<?xml version="1.0" encoding="utf-8"?>
<!-- Generator: Adobe Illustrator 25.0.0, SVG Export Plug-In . SVG Version: 6.00 Build 0)  -->
<svg version="1.1" id="illustration" xmlns="http://www.w3.org/2000/svg" xmlns:xlink="http://www.w3.org/1999/xlink" x="0px"
	 y="0px" viewBox="0 0 324.83 296.54" style="enable-background:new 0 0 324.83 296.54;" xml:space="preserve">
<style type="text/css">
	.st0{fill:#FFFFFF;}
	.st1{fill:#E0F3FF;}
	.st2{opacity:0.5;fill:#E0F3FF;}
	.st3{opacity:0.5;fill:#FFFFFF;}
	.st4{fill:url(#SVGID_1_);}
	.st5{opacity:0.82;fill:url(#SVGID_2_);}
	.st6{fill:url(#SVGID_3_);}
	.st7{opacity:0.82;fill:url(#SVGID_4_);}
	.st8{fill:#047FC4;}
	.st9{opacity:0.5;fill:#047FC4;}
	.st10{fill:url(#SVGID_5_);}
	.st11{fill:url(#SVGID_6_);}
	.st12{fill:url(#SVGID_7_);}
	.st13{fill:url(#SVGID_8_);}
	.st14{fill:url(#SVGID_9_);}
	.st15{fill:url(#SVGID_10_);}
	.st16{fill:url(#SVGID_11_);}
	.st17{fill:#0C409A;}
	.st18{opacity:0.5;fill:#0C409A;}
	.st19{fill:url(#SVGID_12_);}
	.st20{fill:url(#SVGID_13_);}
	.st21{fill:url(#SVGID_14_);}
	.st22{fill:url(#SVGID_15_);}
	.st23{opacity:0.5;fill:url(#SVGID_16_);}
	.st24{fill:url(#SVGID_17_);}
	.st25{fill:url(#SVGID_18_);}
	.st26{opacity:0.5;fill:url(#SVGID_19_);}
	.st27{fill:url(#SVGID_20_);}
	.st28{fill:url(#SVGID_21_);}
	.st29{fill:url(#SVGID_22_);}
	.st30{fill:url(#SVGID_23_);}
	.st31{fill:url(#SVGID_24_);}
	.st32{fill:url(#SVGID_25_);}
	.st33{fill:url(#SVGID_26_);}
	.st34{fill:url(#SVGID_27_);}
	.st35{fill:url(#SVGID_28_);}
	.st36{fill:url(#SVGID_29_);}
	.st37{fill:url(#SVGID_30_);}
	.st38{fill:url(#SVGID_31_);}
	.st39{fill:url(#SVGID_32_);}
	.st40{fill:url(#SVGID_33_);}
	.st41{fill:url(#SVGID_34_);}
	.st42{fill:url(#SVGID_35_);}
	.st43{fill:url(#SVGID_36_);}
	.st44{opacity:0.5;fill:url(#SVGID_37_);}
	.st45{fill:url(#SVGID_38_);}
	.st46{fill:url(#SVGID_39_);}
	.st47{fill:url(#SVGID_40_);}
	.st48{fill:url(#SVGID_41_);}
	.st49{fill:url(#SVGID_42_);}
	.st50{fill:url(#SVGID_43_);}
	.st51{fill:url(#SVGID_44_);}
	.st52{fill:url(#SVGID_45_);}
	.st53{fill:url(#SVGID_46_);}
	.st54{fill:url(#SVGID_47_);}
	.st55{fill:url(#SVGID_48_);}
	.st56{fill:url(#SVGID_49_);}
	.st57{fill:url(#SVGID_50_);}
	.st58{opacity:0.5;fill:url(#SVGID_51_);}
	.st59{fill:url(#SVGID_52_);}
	.st60{opacity:0.5;fill:url(#SVGID_53_);}
	.st61{opacity:0.5;fill:url(#SVGID_54_);}
	.st62{opacity:0.5;fill:url(#SVGID_55_);}
	.st63{fill:url(#SVGID_56_);}
	.st64{fill:url(#SVGID_57_);}
	.st65{fill:url(#SVGID_58_);}
	.st66{opacity:0.5;fill:url(#SVGID_59_);}
	.st67{fill:url(#SVGID_60_);}
	.st68{fill:url(#SVGID_61_);}
	.st69{fill:url(#SVGID_62_);}
	.st70{fill:url(#SVGID_63_);}
	.st71{fill:url(#SVGID_64_);}
	.st72{fill:url(#SVGID_65_);}
	.st73{fill:url(#SVGID_66_);}
	.st74{fill:url(#SVGID_67_);}
	.st75{fill:url(#SVGID_68_);}
	.st76{fill:url(#SVGID_69_);}
	.st77{fill:url(#SVGID_70_);}
	.st78{fill:#FE9083;}
	.st79{fill:url(#SVGID_71_);}
	.st80{fill:url(#SVGID_72_);}
	.st81{fill:url(#SVGID_73_);}
	.st82{fill:url(#SVGID_74_);}
	.st83{fill:url(#SVGID_75_);}
	.st84{fill:url(#SVGID_76_);}
	.st85{fill:url(#SVGID_77_);}
	.st86{fill:url(#SVGID_78_);}
	.st87{opacity:0.5;fill:url(#SVGID_79_);}
	.st88{fill:url(#SVGID_80_);}
	.st89{fill:url(#SVGID_81_);}
	.st90{fill:url(#SVGID_82_);}
	.st91{fill:url(#SVGID_83_);}
	.st92{fill:url(#SVGID_84_);}
	.st93{fill:#38368E;}
	.st94{fill:url(#SVGID_85_);}
	.st95{fill:url(#SVGID_86_);}
	.st96{fill:#131163;}
	.st97{fill:url(#SVGID_87_);}
	.st98{fill:#FFEBED;}
	.st99{fill:url(#SVGID_88_);}
	.st100{fill:#7F9EC9;}
	.st101{fill:#CB4D7A;}
	.st102{fill:#E4688E;}
	.st103{fill:#FFC0A7;}
	.st104{fill:url(#SVGID_89_);}
	.st105{fill:#9F4A8B;}
	.st106{fill:url(#SVGID_90_);}
	.st107{opacity:0.39;fill:#A8485B;}
	.st108{fill:url(#SVGID_91_);}
	.st109{opacity:0.5;fill:url(#SVGID_92_);}
	.st110{opacity:0.5;fill:url(#SVGID_93_);}
	.st111{opacity:0.5;fill:url(#SVGID_94_);}
	.st112{fill:url(#SVGID_95_);}
	.st113{fill:url(#SVGID_96_);}
	.st114{opacity:0.5;fill:url(#SVGID_97_);}
	.st115{fill:url(#SVGID_98_);}
	.st116{fill:url(#SVGID_99_);}
	.st117{opacity:0.5;fill:url(#SVGID_100_);}
	.st118{opacity:0.5;fill:url(#SVGID_101_);}
	.st119{fill:url(#SVGID_102_);}
	.st120{fill:url(#SVGID_103_);}
	.st121{opacity:0.5;fill:url(#SVGID_104_);}
	.st122{opacity:0.5;fill:url(#SVGID_105_);}
	.st123{opacity:0.5;fill:url(#SVGID_106_);}
	.st124{opacity:0.5;fill:url(#SVGID_107_);}
	.st125{opacity:0.5;fill:url(#SVGID_108_);}
	.st126{opacity:0.3;fill:url(#SVGID_109_);}
	.st127{opacity:0.3;fill:url(#SVGID_110_);}
	.st128{opacity:0.3;fill:url(#SVGID_111_);}
	.st129{opacity:0.3;fill:url(#SVGID_112_);}
	.st130{opacity:0.5;fill:url(#SVGID_113_);}
	.st131{opacity:0.5;fill:url(#SVGID_114_);}
	.st132{opacity:0.3;fill:url(#SVGID_115_);}
	.st133{opacity:0.5;fill:url(#SVGID_116_);}
	.st134{fill:#FEB1A8;}
	.st135{fill:url(#SVGID_117_);}
	.st136{opacity:0.2;fill:#FF275E;}
	.st137{fill:url(#SVGID_118_);}
	.st138{fill:url(#SVGID_119_);}
	.st139{fill:url(#SVGID_120_);}
	.st140{fill:url(#SVGID_121_);}
	.st141{fill:url(#SVGID_122_);}
	.st142{fill:url(#SVGID_123_);}
	.st143{opacity:0.5;fill:#CFB4FF;}
	.st144{opacity:0.5;fill:#5990FF;}
	.st145{fill:url(#SVGID_124_);}
	.st146{fill:url(#SVGID_125_);}
	.st147{fill:#34C7FF;}
	.st148{opacity:0.5;fill:url(#SVGID_126_);}
	.st149{fill:url(#SVGID_127_);}
	.st150{opacity:0.82;fill:url(#SVGID_128_);}
	.st151{fill:url(#SVGID_129_);}
	.st152{opacity:0.3;fill:url(#SVGID_130_);}
	.st153{opacity:0.5;fill:url(#SVGID_131_);}
	.st154{fill:url(#SVGID_132_);}
	.st155{fill:url(#SVGID_133_);}
	.st156{fill:url(#SVGID_134_);}
	.st157{fill:url(#SVGID_135_);}
	.st158{fill:url(#SVGID_136_);}
	.st159{fill:url(#SVGID_137_);}
	.st160{fill:url(#SVGID_138_);}
	.st161{fill:url(#SVGID_139_);}
	.st162{fill:url(#SVGID_140_);}
	.st163{fill:url(#SVGID_141_);}
	.st164{fill:#FFB398;}
	.st165{fill:url(#SVGID_142_);}
	.st166{fill:url(#SVGID_143_);}
	.st167{fill:url(#SVGID_144_);}
	.st168{fill:url(#SVGID_145_);}
	.st169{opacity:0.5;fill:url(#SVGID_146_);}
	.st170{opacity:0.5;fill:url(#SVGID_147_);}
	.st171{opacity:0.5;fill:url(#SVGID_148_);}
	.st172{fill:url(#SVGID_149_);}
	.st173{fill:url(#SVGID_150_);}
	.st174{fill:url(#SVGID_151_);}
	.st175{fill:url(#SVGID_152_);}
	.st176{opacity:0.5;fill:url(#SVGID_153_);}
	.st177{opacity:0.5;fill:url(#SVGID_154_);}
	.st178{fill:url(#SVGID_155_);}
	.st179{fill:url(#SVGID_156_);}
	.st180{fill:url(#SVGID_157_);}
	.st181{opacity:0.5;fill:url(#SVGID_158_);}
	.st182{opacity:0.5;fill:url(#SVGID_159_);}
	.st183{fill:url(#SVGID_160_);}
	.st184{opacity:0.5;fill:url(#SVGID_161_);}
	.st185{fill:url(#SVGID_162_);}
	.st186{fill:url(#SVGID_163_);}
	.st187{fill:url(#SVGID_164_);}
	.st188{fill:url(#SVGID_165_);}
	.st189{fill:url(#SVGID_166_);}
	.st190{fill:url(#SVGID_167_);}
	.st191{opacity:0.5;fill:url(#SVGID_168_);}
	.st192{fill:url(#SVGID_169_);}
	.st193{fill:url(#SVGID_170_);}
	.st194{fill:url(#SVGID_171_);}
	.st195{fill:#6DFFE8;}
	.st196{opacity:0.5;fill:url(#SVGID_172_);}
	.st197{opacity:0.5;fill:url(#SVGID_173_);}
	.st198{fill:url(#SVGID_174_);}
	.st199{opacity:0.5;fill:url(#SVGID_175_);}
	.st200{opacity:0.5;fill:url(#SVGID_176_);}
	.st201{fill:#6446A6;}
	.st202{opacity:0.5;fill:url(#SVGID_177_);}
	.st203{fill:url(#SVGID_178_);}
	.st204{opacity:0.3;fill:url(#SVGID_179_);}
	.st205{opacity:0.3;fill:url(#SVGID_180_);}
	.st206{opacity:0.3;fill:url(#SVGID_181_);}
	.st207{opacity:0.5;fill:url(#SVGID_182_);}
	.st208{opacity:0.3;fill:url(#SVGID_183_);}
	.st209{opacity:0.5;fill:url(#SVGID_184_);}
	.st210{fill:url(#SVGID_185_);}
	.st211{fill:url(#SVGID_186_);}
	.st212{fill:url(#SVGID_187_);}
	.st213{fill:url(#SVGID_188_);}
	.st214{opacity:0.5;fill:url(#SVGID_189_);}
	.st215{fill:url(#SVGID_190_);}
	.st216{fill:url(#SVGID_191_);}
	.st217{opacity:0.5;fill:url(#SVGID_192_);}
	.st218{fill:url(#SVGID_193_);}
	.st219{fill:url(#SVGID_194_);}
	.st220{fill:url(#SVGID_195_);}
	.st221{fill:url(#SVGID_196_);}
	.st222{fill:url(#SVGID_197_);}
	.st223{fill:url(#SVGID_198_);}
	.st224{fill:url(#SVGID_199_);}
	.st225{fill:url(#SVGID_200_);}
	.st226{fill:url(#SVGID_201_);}
	.st227{fill:url(#SVGID_202_);}
	.st228{fill:url(#SVGID_203_);}
	.st229{fill:url(#SVGID_204_);}
	.st230{fill:url(#SVGID_205_);}
	.st231{fill:url(#SVGID_206_);}
	.st232{fill:url(#SVGID_207_);}
	.st233{fill:url(#SVGID_208_);}
	.st234{fill:url(#SVGID_209_);}
	.st235{opacity:0.5;fill:url(#SVGID_210_);}
	.st236{fill:url(#SVGID_211_);}
	.st237{fill:url(#SVGID_212_);}
	.st238{fill:url(#SVGID_213_);}
	.st239{fill:url(#SVGID_214_);}
	.st240{fill:url(#SVGID_215_);}
	.st241{fill:url(#SVGID_216_);}
	.st242{fill:url(#SVGID_217_);}
	.st243{fill:url(#SVGID_218_);}
	.st244{fill:url(#SVGID_219_);}
	.st245{fill:url(#SVGID_220_);}
	.st246{fill:url(#SVGID_221_);}
	.st247{fill:url(#SVGID_222_);}
	.st248{fill:url(#SVGID_223_);}
	.st249{opacity:0.5;fill:url(#SVGID_224_);}
	.st250{fill:url(#SVGID_225_);}
	.st251{opacity:0.5;fill:url(#SVGID_226_);}
	.st252{opacity:0.5;fill:url(#SVGID_227_);}
	.st253{opacity:0.5;fill:url(#SVGID_228_);}
	.st254{fill:url(#SVGID_229_);}
	.st255{fill:url(#SVGID_230_);}
	.st256{fill:url(#SVGID_231_);}
	.st257{opacity:0.5;fill:url(#SVGID_232_);}
	.st258{fill:url(#SVGID_233_);}
	.st259{fill:url(#SVGID_234_);}
	.st260{fill:url(#SVGID_235_);}
	.st261{fill:url(#SVGID_236_);}
	.st262{fill:url(#SVGID_237_);}
	.st263{fill:url(#SVGID_238_);}
	.st264{fill:url(#SVGID_239_);}
	.st265{opacity:0.4;}
	.st266{opacity:0.5;fill:#4723A9;}
	.st267{fill:url(#SVGID_240_);}
	.st268{opacity:0.5;fill:url(#SVGID_241_);}
	.st269{fill:url(#SVGID_242_);}
	.st270{fill:url(#SVGID_243_);}
	.st271{fill:url(#SVGID_244_);}
	.st272{fill:url(#SVGID_245_);}
	.st273{fill:url(#SVGID_246_);}
	.st274{fill:#D9187C;}
	.st275{opacity:0.5;fill:#D9187C;}
	.st276{fill:url(#SVGID_247_);}
	.st277{fill:url(#SVGID_248_);}
	.st278{fill:url(#SVGID_249_);}
	.st279{fill:#FF51AA;}
	.st280{fill:url(#SVGID_250_);}
	.st281{fill:url(#SVGID_251_);}
	.st282{fill:url(#SVGID_252_);}
	.st283{fill:url(#SVGID_253_);}
	.st284{fill:url(#SVGID_254_);}
	.st285{opacity:0.5;fill:url(#SVGID_255_);}
	.st286{fill:url(#SVGID_256_);}
	.st287{fill:url(#SVGID_257_);}
	.st288{fill:url(#SVGID_258_);}
	.st289{fill:url(#SVGID_259_);}
	.st290{fill:url(#SVGID_260_);}
	.st291{fill:url(#SVGID_261_);}
	.st292{opacity:0.76;fill:url(#SVGID_262_);}
	.st293{opacity:0.5;fill:url(#SVGID_263_);}
	.st294{fill:url(#SVGID_264_);}
	.st295{fill:url(#SVGID_265_);}
	.st296{fill:url(#SVGID_266_);}
	.st297{fill:url(#SVGID_267_);}
	.st298{opacity:0.5;fill:url(#SVGID_268_);}
	.st299{opacity:0.5;fill:url(#SVGID_269_);}
	.st300{opacity:0.5;fill:url(#SVGID_270_);}
	.st301{fill:url(#SVGID_271_);}
	.st302{fill:url(#SVGID_272_);}
	.st303{fill:#365EE0;}
	.st304{fill:url(#SVGID_273_);}
	.st305{opacity:0.5;fill:url(#SVGID_274_);}
	.st306{fill:url(#SVGID_275_);}
	.st307{fill:url(#SVGID_276_);}
	.st308{opacity:0.3;fill:url(#SVGID_277_);}
	.st309{opacity:0.5;fill:#FF7E70;}
	.st310{fill:#9A8EFE;}
	.st311{opacity:0.5;fill:#9A8EFE;}
	.st312{opacity:0.5;fill:#F9DBC2;}
	.st313{fill:url(#SVGID_278_);}
	.st314{fill:url(#SVGID_279_);}
	.st315{opacity:0.82;fill:url(#SVGID_280_);}
	.st316{fill:url(#SVGID_281_);}
	.st317{opacity:0.82;fill:url(#SVGID_282_);}
	.st318{fill:url(#SVGID_283_);}
	.st319{fill:#9B5ED7;}
	.st320{fill:#744CA2;}
	.st321{fill:url(#SVGID_284_);}
	.st322{fill:url(#SVGID_285_);}
	.st323{fill:#FEA297;}
	.st324{fill:url(#SVGID_286_);}
	.st325{fill:url(#SVGID_287_);}
	.st326{fill:url(#SVGID_288_);}
	.st327{fill:url(#SVGID_289_);}
	.st328{fill:url(#SVGID_290_);}
	.st329{opacity:0.5;fill:url(#SVGID_291_);}
	.st330{fill:url(#SVGID_292_);}
	.st331{fill:url(#SVGID_293_);}
	.st332{opacity:0.5;fill:url(#SVGID_294_);}
	.st333{fill:url(#SVGID_295_);}
	.st334{fill:url(#SVGID_296_);}
	.st335{fill:url(#SVGID_297_);}
	.st336{fill:url(#SVGID_298_);}
	.st337{fill:url(#SVGID_299_);}
	.st338{fill:url(#SVGID_300_);}
	.st339{fill:url(#SVGID_301_);}
	.st340{fill:url(#SVGID_302_);}
	.st341{fill:url(#SVGID_303_);}
	.st342{fill:url(#SVGID_304_);}
	.st343{fill:url(#SVGID_305_);}
	.st344{fill:url(#SVGID_306_);}
	.st345{fill:url(#SVGID_307_);}
	.st346{fill:url(#SVGID_308_);}
	.st347{fill:url(#SVGID_309_);}
	.st348{fill:url(#SVGID_310_);}
	.st349{fill:url(#SVGID_311_);}
	.st350{opacity:0.5;fill:url(#SVGID_312_);}
	.st351{fill:url(#SVGID_313_);}
	.st352{fill:url(#SVGID_314_);}
	.st353{fill:url(#SVGID_315_);}
	.st354{fill:url(#SVGID_316_);}
	.st355{fill:url(#SVGID_317_);}
	.st356{fill:url(#SVGID_318_);}
	.st357{fill:url(#SVGID_319_);}
	.st358{fill:url(#SVGID_320_);}
	.st359{fill:url(#SVGID_321_);}
	.st360{fill:url(#SVGID_322_);}
	.st361{fill:url(#SVGID_323_);}
	.st362{fill:url(#SVGID_324_);}
	.st363{fill:url(#SVGID_325_);}
	.st364{opacity:0.5;fill:url(#SVGID_326_);}
	.st365{fill:url(#SVGID_327_);}
	.st366{opacity:0.5;fill:url(#SVGID_328_);}
	.st367{opacity:0.5;fill:url(#SVGID_329_);}
	.st368{opacity:0.5;fill:url(#SVGID_330_);}
	.st369{fill:url(#SVGID_331_);}
	.st370{fill:url(#SVGID_332_);}
	.st371{fill:url(#SVGID_333_);}
	.st372{opacity:0.5;fill:url(#SVGID_334_);}
	.st373{fill:url(#SVGID_335_);}
	.st374{fill:url(#SVGID_336_);}
	.st375{fill:url(#SVGID_337_);}
	.st376{fill:url(#SVGID_338_);}
	.st377{fill:url(#SVGID_339_);}
	.st378{fill:url(#SVGID_340_);}
	.st379{fill:url(#SVGID_341_);}
	.st380{fill:url(#SVGID_342_);}
	.st381{fill:url(#SVGID_343_);}
	.st382{fill:url(#SVGID_344_);}
	.st383{fill:url(#SVGID_345_);}
	.st384{fill:url(#SVGID_346_);}
	.st385{fill:url(#SVGID_347_);}
	.st386{opacity:0.5;fill:url(#SVGID_348_);}
	.st387{fill:#36295C;}
	.st388{fill:url(#SVGID_349_);}
	.st389{fill:url(#SVGID_350_);}
	.st390{fill:url(#SVGID_351_);}
	.st391{fill:url(#SVGID_352_);}
	.st392{fill:url(#SVGID_353_);}
	.st393{fill:url(#SVGID_354_);}
	.st394{fill:url(#SVGID_355_);}
	.st395{fill:url(#SVGID_356_);}
	.st396{fill:url(#SVGID_357_);}
	.st397{fill:url(#SVGID_358_);}
	.st398{opacity:0.5;fill:url(#SVGID_359_);}
	.st399{opacity:0.5;fill:url(#SVGID_360_);}
	.st400{fill:url(#SVGID_361_);}
	.st401{fill:url(#SVGID_362_);}
	.st402{fill:url(#SVGID_363_);}
	.st403{fill:url(#SVGID_364_);}
	.st404{opacity:0.5;fill:url(#SVGID_365_);}
	.st405{opacity:0.5;fill:url(#SVGID_366_);}
	.st406{fill:url(#SVGID_367_);}
	.st407{opacity:0.5;fill:url(#SVGID_368_);}
	.st408{opacity:0.3;fill:url(#SVGID_369_);}
	.st409{opacity:0.3;fill:url(#SVGID_370_);}
	.st410{opacity:0.5;fill:url(#SVGID_371_);}
	.st411{opacity:0.5;fill:url(#SVGID_372_);}
	.st412{opacity:0.5;fill:#CE47B8;}
	.st413{opacity:0.3;fill:url(#SVGID_373_);}
	.st414{opacity:0.5;fill:url(#SVGID_374_);}
	.st415{opacity:0.3;fill:url(#SVGID_375_);}
	.st416{opacity:0.5;fill:url(#SVGID_376_);}
	.st417{fill:url(#SVGID_377_);}
	.st418{opacity:0.82;fill:url(#SVGID_378_);}
	.st419{fill:url(#SVGID_379_);}
	.st420{opacity:0.2;fill:url(#SVGID_380_);}
	.st421{fill:url(#SVGID_381_);}
	.st422{fill:url(#SVGID_382_);}
	.st423{fill:url(#SVGID_383_);}
	.st424{opacity:0.82;fill:url(#SVGID_384_);}
	.st425{fill:url(#SVGID_385_);}
	.st426{fill:url(#SVGID_386_);}
	.st427{fill:url(#SVGID_387_);}
	.st428{fill:url(#SVGID_388_);}
	.st429{fill:url(#SVGID_389_);}
	.st430{fill:url(#SVGID_390_);}
	.st431{opacity:0.5;fill:#FFAEB0;}
	.st432{fill:url(#SVGID_391_);}
	.st433{fill:url(#SVGID_392_);}
	.st434{opacity:0.82;fill:url(#SVGID_393_);}
	.st435{fill:url(#SVGID_394_);}
	.st436{opacity:0.82;fill:url(#SVGID_395_);}
	.st437{display:none;}
	.st438{display:inline;fill:#047FC4;}
	.st439{display:inline;opacity:0.5;fill:#047FC4;}
	.st440{fill:url(#SVGID_396_);}
	.st441{fill:url(#SVGID_397_);}
	.st442{fill:url(#SVGID_398_);}
	.st443{fill:url(#SVGID_399_);}
	.st444{fill:url(#SVGID_400_);}
	.st445{display:inline;fill:#0C409A;}
	.st446{display:inline;opacity:0.5;fill:#0C409A;}
	.st447{display:inline;fill:url(#SVGID_401_);}
	.st448{display:inline;fill:url(#SVGID_402_);}
	.st449{display:inline;fill:url(#SVGID_403_);}
	.st450{display:inline;fill:url(#SVGID_404_);}
	.st451{display:inline;opacity:0.5;fill:url(#SVGID_405_);}
	.st452{display:inline;fill:url(#SVGID_406_);}
	.st453{display:inline;fill:url(#SVGID_407_);}
	.st454{display:inline;opacity:0.5;fill:url(#SVGID_408_);}
	.st455{display:inline;fill:url(#SVGID_409_);}
	.st456{display:inline;fill:url(#SVGID_410_);}
	.st457{display:inline;fill:url(#SVGID_411_);}
	.st458{display:inline;fill:url(#SVGID_412_);}
	.st459{display:inline;fill:url(#SVGID_413_);}
	.st460{display:inline;fill:url(#SVGID_414_);}
	.st461{display:inline;fill:url(#SVGID_415_);}
	.st462{display:inline;fill:url(#SVGID_416_);}
	.st463{display:inline;fill:url(#SVGID_417_);}
	.st464{display:inline;fill:url(#SVGID_418_);}
	.st465{display:inline;fill:url(#SVGID_419_);}
	.st466{display:inline;fill:url(#SVGID_420_);}
	.st467{display:inline;fill:url(#SVGID_421_);}
	.st468{display:inline;fill:url(#SVGID_422_);}
	.st469{display:inline;fill:url(#SVGID_423_);}
	.st470{display:inline;fill:url(#SVGID_424_);}
	.st471{display:inline;fill:url(#SVGID_425_);}
	.st472{display:inline;opacity:0.5;fill:url(#SVGID_426_);}
	.st473{display:inline;fill:url(#SVGID_427_);}
	.st474{display:inline;fill:url(#SVGID_428_);}
	.st475{display:inline;fill:url(#SVGID_429_);}
	.st476{display:inline;fill:url(#SVGID_430_);}
	.st477{display:inline;fill:url(#SVGID_431_);}
	.st478{display:inline;fill:url(#SVGID_432_);}
	.st479{display:inline;fill:url(#SVGID_433_);}
	.st480{display:inline;fill:url(#SVGID_434_);}
	.st481{display:inline;fill:url(#SVGID_435_);}
	.st482{display:inline;fill:url(#SVGID_436_);}
	.st483{display:inline;fill:url(#SVGID_437_);}
	.st484{display:inline;fill:url(#SVGID_438_);}
	.st485{display:inline;fill:url(#SVGID_439_);}
	.st486{display:inline;opacity:0.5;fill:url(#SVGID_440_);}
	.st487{display:inline;fill:url(#SVGID_441_);}
	.st488{display:inline;opacity:0.5;fill:url(#SVGID_442_);}
	.st489{display:inline;opacity:0.5;fill:url(#SVGID_443_);}
	.st490{display:inline;opacity:0.5;fill:url(#SVGID_444_);}
	.st491{display:inline;fill:url(#SVGID_445_);}
	.st492{display:inline;fill:url(#SVGID_446_);}
	.st493{display:inline;fill:url(#SVGID_447_);}
	.st494{display:inline;opacity:0.5;fill:url(#SVGID_448_);}
	.st495{display:inline;fill:url(#SVGID_449_);}
	.st496{display:inline;fill:url(#SVGID_450_);}
	.st497{display:inline;fill:url(#SVGID_451_);}
	.st498{display:inline;fill:url(#SVGID_452_);}
	.st499{display:inline;fill:url(#SVGID_453_);}
	.st500{display:inline;fill:url(#SVGID_454_);}
	.st501{display:inline;fill:url(#SVGID_455_);}
	.st502{fill:url(#SVGID_456_);}
	.st503{fill:url(#SVGID_457_);}
	.st504{fill:url(#SVGID_458_);}
	.st505{fill:url(#SVGID_459_);}
	.st506{fill:url(#SVGID_460_);}
	.st507{fill:url(#SVGID_461_);}
	.st508{opacity:0.5;fill:url(#SVGID_462_);}
	.st509{fill:url(#SVGID_463_);}
	.st510{fill:url(#SVGID_464_);}
	.st511{fill:url(#SVGID_465_);}
	.st512{fill:url(#SVGID_466_);}
	.st513{fill:url(#SVGID_467_);}
	.st514{fill:url(#SVGID_468_);}
	.st515{fill:url(#SVGID_469_);}
	.st516{fill:url(#SVGID_470_);}
	.st517{fill:url(#SVGID_471_);}
	.st518{fill:url(#SVGID_472_);}
	.st519{fill:url(#SVGID_473_);}
	.st520{opacity:0.5;fill:url(#SVGID_474_);}
	.st521{opacity:0.5;fill:url(#SVGID_475_);}
	.st522{fill:url(#SVGID_476_);}
	.st523{fill:url(#SVGID_477_);}
	.st524{fill:url(#SVGID_478_);}
	.st525{fill:url(#SVGID_479_);}
	.st526{opacity:0.5;fill:url(#SVGID_480_);}
	.st527{opacity:0.5;fill:url(#SVGID_481_);}
	.st528{fill:url(#SVGID_482_);}
	.st529{opacity:0.5;fill:url(#SVGID_483_);}
	.st530{opacity:0.3;fill:url(#SVGID_484_);}
	.st531{opacity:0.3;fill:url(#SVGID_485_);}
	.st532{opacity:0.5;fill:url(#SVGID_486_);}
	.st533{opacity:0.5;fill:url(#SVGID_487_);}
	.st534{opacity:0.3;fill:url(#SVGID_488_);}
	.st535{opacity:0.5;fill:url(#SVGID_489_);}
	.st536{opacity:0.3;fill:url(#SVGID_490_);}
	.st537{opacity:0.5;fill:url(#SVGID_491_);}
	.st538{fill:url(#SVGID_492_);}
	.st539{opacity:0.82;fill:url(#SVGID_493_);}
	.st540{fill:url(#SVGID_494_);}
	.st541{opacity:0.2;fill:url(#SVGID_495_);}
	.st542{fill:url(#SVGID_496_);}
	.st543{fill:url(#SVGID_497_);}
	.st544{fill:url(#SVGID_498_);}
	.st545{opacity:0.82;fill:url(#SVGID_499_);}
	.st546{fill:url(#SVGID_500_);}
	.st547{fill:url(#SVGID_501_);}
	.st548{fill:url(#SVGID_502_);}
	.st549{fill:url(#SVGID_503_);}
	.st550{fill:url(#SVGID_504_);}
	.st551{fill:url(#SVGID_505_);}
	.st552{fill:url(#SVGID_506_);}
	.st553{fill:url(#SVGID_507_);}
	.st554{fill:url(#SVGID_508_);}
	.st555{fill:url(#SVGID_509_);}
	.st556{fill:url(#SVGID_510_);}
	.st557{fill:url(#SVGID_511_);}
	.st558{fill:url(#SVGID_512_);}
	.st559{fill:url(#SVGID_513_);}
	.st560{fill:url(#SVGID_514_);}
	.st561{opacity:0.83;fill:url(#SVGID_515_);}
	.st562{fill:url(#SVGID_516_);}
	.st563{opacity:0.62;fill:url(#SVGID_517_);}
	.st564{fill:url(#SVGID_518_);}
	.st565{fill:url(#SVGID_519_);}
	.st566{opacity:0.62;fill:url(#SVGID_520_);}
	.st567{fill:url(#SVGID_521_);}
	.st568{fill:url(#SVGID_522_);}
	.st569{fill:url(#SVGID_523_);}
	.st570{fill:url(#SVGID_524_);}
	.st571{opacity:0.83;fill:url(#SVGID_525_);}
	.st572{fill:url(#SVGID_526_);}
	.st573{fill:url(#SVGID_527_);}
	.st574{fill:url(#SVGID_528_);}
	.st575{fill:url(#SVGID_529_);}
	.st576{fill:url(#SVGID_530_);}
	.st577{fill:#E87A8D;}
	.st578{fill:url(#SVGID_531_);}
	.st579{opacity:0.62;fill:url(#SVGID_532_);}
	.st580{fill:url(#SVGID_533_);}
	.st581{fill:url(#SVGID_534_);}
	.st582{fill:url(#SVGID_535_);}
	.st583{fill:url(#SVGID_536_);}
	.st584{fill:#77485E;}
	.st585{fill:url(#SVGID_537_);}
	.st586{fill:url(#SVGID_538_);}
	.st587{fill:url(#SVGID_539_);}
	.st588{fill:url(#SVGID_540_);}
	.st589{fill:url(#SVGID_541_);}
	.st590{fill:url(#SVGID_542_);}
	.st591{fill:url(#SVGID_543_);}
	.st592{fill:url(#SVGID_544_);}
	.st593{fill:url(#SVGID_545_);}
	.st594{fill:#E37E7F;}
	.st595{fill:url(#SVGID_546_);}
	.st596{fill:url(#SVGID_547_);}
	.st597{fill:url(#SVGID_548_);}
	.st598{fill:url(#SVGID_549_);}
	.st599{fill:url(#SVGID_550_);}
	.st600{fill:url(#SVGID_551_);}
	.st601{fill:url(#SVGID_552_);}
	.st602{fill:url(#SVGID_553_);}
	.st603{fill:url(#SVGID_554_);}
	.st604{fill:url(#SVGID_555_);}
	.st605{fill:url(#SVGID_556_);}
	.st606{fill:url(#SVGID_557_);}
	.st607{fill:url(#SVGID_558_);}
	.st608{fill:url(#SVGID_559_);}
	.st609{fill:url(#SVGID_560_);}
	.st610{opacity:0.62;fill:url(#SVGID_561_);}
	.st611{opacity:0.62;fill:url(#SVGID_562_);}
	.st612{opacity:0.62;fill:url(#SVGID_563_);}
	.st613{opacity:0.62;fill:url(#SVGID_564_);}
	.st614{opacity:0.62;fill:url(#SVGID_565_);}
	.st615{opacity:0.5;fill:url(#SVGID_566_);}
	.st616{opacity:0.62;fill:url(#SVGID_567_);}
	.st617{opacity:0.62;fill:url(#SVGID_568_);}
	.st618{opacity:0.62;fill:url(#SVGID_569_);}
	.st619{fill:url(#SVGID_570_);}
	.st620{fill:url(#SVGID_571_);}
	.st621{opacity:0.83;fill:url(#SVGID_572_);}
	.st622{fill:url(#SVGID_573_);}
	.st623{fill:url(#SVGID_574_);}
	.st624{opacity:0.5;fill:url(#SVGID_575_);}
	.st625{opacity:0.62;fill:url(#SVGID_576_);}
	.st626{opacity:0.62;fill:url(#SVGID_577_);}
	.st627{fill:url(#SVGID_578_);}
	.st628{fill:url(#SVGID_579_);}
	.st629{opacity:0.84;fill:url(#SVGID_580_);}
	.st630{opacity:0.84;fill:url(#SVGID_581_);}
	.st631{opacity:0.84;fill:url(#SVGID_582_);}
	.st632{opacity:0.62;fill:url(#SVGID_583_);}
	.st633{fill:url(#SVGID_584_);}
	.st634{fill:url(#SVGID_585_);}
	.st635{fill:url(#SVGID_586_);}
	.st636{fill:url(#SVGID_587_);}
	.st637{fill:url(#SVGID_588_);}
	.st638{fill:url(#SVGID_589_);}
	.st639{fill:url(#SVGID_590_);}
	.st640{fill:#D7E2FF;}
	.st641{fill:#D7D9FF;}
	.st642{fill:url(#SVGID_591_);}
	.st643{fill:url(#SVGID_592_);}
	.st644{fill:url(#SVGID_593_);}
	.st645{opacity:0.5;fill:url(#SVGID_594_);}
	.st646{opacity:0.5;fill:url(#SVGID_595_);}
	.st647{opacity:0.5;fill:url(#SVGID_596_);}
	.st648{opacity:0.5;fill:url(#SVGID_597_);}
	.st649{opacity:0.5;fill:url(#SVGID_598_);}
	.st650{opacity:0.5;fill:url(#SVGID_599_);}
	.st651{fill:url(#SVGID_600_);}
	.st652{opacity:0.5;fill:url(#SVGID_601_);}
	.st653{opacity:0.5;fill:url(#SVGID_602_);}
	.st654{fill:url(#SVGID_603_);}
	.st655{fill:url(#SVGID_604_);}
	.st656{opacity:0.76;fill:url(#SVGID_605_);}
	.st657{opacity:0.76;fill:url(#SVGID_606_);}
	.st658{opacity:0.76;fill:url(#SVGID_607_);}
	.st659{fill:url(#SVGID_608_);}
	.st660{opacity:0.5;fill:url(#SVGID_609_);}
	.st661{opacity:0.5;fill:url(#SVGID_610_);}
	.st662{fill:url(#SVGID_611_);}
	.st663{fill:url(#SVGID_612_);}
	.st664{fill:#EE8183;}
	.st665{fill:url(#SVGID_613_);}
	.st666{opacity:0.6;fill:url(#SVGID_614_);}
	.st667{fill:url(#SVGID_615_);}
	.st668{fill:#E28183;}
	.st669{opacity:0.91;fill:url(#SVGID_616_);}
	.st670{fill:url(#SVGID_617_);}
	.st671{opacity:0.6;fill:url(#SVGID_618_);}
	.st672{fill:url(#SVGID_619_);}
	.st673{fill:url(#SVGID_620_);}
	.st674{opacity:0.91;fill:url(#SVGID_621_);}
	.st675{opacity:0.5;fill:url(#SVGID_622_);}
	.st676{opacity:0.5;fill:url(#SVGID_623_);}
	.st677{opacity:0.5;fill:url(#SVGID_624_);}
	.st678{opacity:0.5;fill:url(#SVGID_625_);}
	.st679{opacity:0.5;fill:url(#SVGID_626_);}
	.st680{opacity:0.76;fill:url(#SVGID_627_);}
	.st681{opacity:0.5;fill:url(#SVGID_628_);}
	.st682{opacity:0.3;fill:url(#SVGID_629_);}
	.st683{opacity:0.5;fill:url(#SVGID_630_);}
	.st684{opacity:0.5;fill:url(#SVGID_631_);}
	.st685{opacity:0.5;fill:url(#SVGID_632_);}
	.st686{opacity:0.5;fill:url(#SVGID_633_);}
	.st687{fill:url(#SVGID_634_);}
	.st688{opacity:0.5;fill:url(#SVGID_635_);}
	.st689{opacity:0.3;fill:url(#SVGID_636_);}
	.st690{opacity:0.5;fill:url(#SVGID_637_);}
	.st691{opacity:0.5;fill:#7A4AC0;}
	.st692{fill:url(#SVGID_638_);}
	.st693{fill:url(#SVGID_639_);}
	.st694{fill:url(#SVGID_640_);}
	.st695{opacity:0.6;fill:url(#SVGID_641_);}
	.st696{fill:url(#SVGID_642_);}
	.st697{fill:url(#SVGID_643_);}
	.st698{fill:#C6659C;}
	.st699{fill:#CB5F7D;}
	.st700{fill:#FFBCAF;}
	.st701{opacity:0.6;fill:url(#SVGID_644_);}
	.st702{fill:url(#SVGID_645_);}
	.st703{fill:#D2726C;}
	.st704{opacity:0.6;fill:url(#SVGID_646_);}
	.st705{opacity:0.6;fill:url(#SVGID_647_);}
	.st706{opacity:0.5;fill:url(#SVGID_648_);}
	.st707{fill:url(#SVGID_649_);}
	.st708{fill:url(#SVGID_650_);}
	.st709{fill:url(#SVGID_651_);}
	.st710{opacity:0.8;fill:url(#SVGID_652_);}
	.st711{opacity:0.8;fill:url(#SVGID_653_);}
	.st712{fill:url(#SVGID_654_);}
	.st713{fill:url(#SVGID_655_);}
	.st714{fill:url(#SVGID_656_);}
	.st715{opacity:0.6;fill:#36D1F7;}
	.st716{opacity:0.6;fill:url(#SVGID_657_);}
	.st717{opacity:0.3;fill:url(#SVGID_658_);}
	.st718{opacity:0.3;fill:url(#SVGID_659_);}
	.st719{opacity:0.3;fill:url(#SVGID_660_);}
	.st720{opacity:0.3;fill:url(#SVGID_661_);}
	.st721{fill:#D1D4FB;}
	.st722{fill:#E0FFFF;}
	.st723{fill:url(#SVGID_662_);}
	.st724{fill:url(#SVGID_663_);}
	.st725{fill:none;}
</style>
<g>
	<path class="st1" d="M225.65,107.57c33.46,15.92,50.34,58.93,36.6,96.36c-16.69,45.47-84.72,78.55-157.57,64.26
		c-46.74-9.17-87.95-63.75-82.5-140.82c6.37-90.14,57.21-101.2,85.57-77.97C177.69,106.67,185.29,88.36,225.65,107.57z"/>
</g>
<g>
	<linearGradient id="SVGID_1_" gradientUnits="userSpaceOnUse" x1="104.1617" y1="236.6357" x2="104.1617" y2="86.3451">
		<stop  offset="0" style="stop-color:#9E8CEF"/>
		<stop  offset="1" style="stop-color:#CAAFEE"/>
	</linearGradient>
	<path class="st4" d="M169.54,190.4c-0.09,0.04-0.13,0.07-0.13,0.07c-0.69,0.08-2.82-0.39-5.62-2.81l-0.01-0.01
		c0-0.01-0.01-0.02-0.03-0.03c-0.01-0.01-0.02-0.03-0.03-0.03c-2.35-2.05-5.16-5.48-7.97-11.09c-5.61-11.21-7.22-18.7-7.48-20.01
		l-0.03-0.2l-3.27,5.19c-2.22,6.68-6.42,34.3-6.35,35.49c0.08,1.19,3.73,6.99,3.65,7.7c0,0,0,0.01-0.01,0.02
		c-0.1,0.72-1.74,2.3-2.21,4.03c-0.32,1.15,1.91,4.77,3.48,7.47v0.01c0.81,1.41,1.44,2.56,1.44,3c0,1.26-3.97,7.45-3.97,7.45v3.33
		l-0.06,0.06l-0.18,0.17l-0.15,0.13c-1.51,1.19-7.9,5.08-27.87,6.16c-23.66,1.26-39.42-6.35-39.42-6.35l1.19-3.26
		c0,0-1.11-0.95-1.19-1.42c-0.08-0.48,0.87-1.59,0.87-1.59s-2.38-1.26-2.38-2.86c0-1.58,4.77-6.5,4.61-10.71
		c-0.16-4.2-3.81-7.93-4.29-10.31c-0.48-2.38,6.19-8.25,6.19-8.25c-5.71-18.09-6.83-42.37-6.83-42.37l-1.11-1.27
		c0,0-6.83,15.55-13.02,23.17c-0.74,0.9-1.52,1.8-2.32,2.66c-1.73,1.87-3.56,3.62-5.33,5.15c-4.29,3.74-8.18,6.19-9.17,6
		c-1.59-0.32-7.94-12.86-7.65-25.71c0.13-6.11,3.82-12.96,7.65-18.44c0.41-0.59,0.82-1.16,1.24-1.73c2.71-3.69,5.32-6.59,6.57-7.91
		c0.49-0.52,0.76-0.8,0.76-0.8s-0.87-2.81-1.47-5.24c-0.01-0.06-0.03-0.12-0.04-0.18c0-0.03-0.01-0.06-0.02-0.08
		c-0.01-0.04-0.02-0.06-0.02-0.06c-0.35-1.5-0.57-2.8-0.37-3.12c0.53-0.85,3.6-1.8,4.13-2.43c0.53-0.64,2.75-11.32,4.44-12.49
		c1.62-1.11,4.48-1.93,14-5.67c0.47-0.18,0.95-0.37,1.45-0.57c10.68-4.23,21.16-9.36,21.16-9.36l4.02-4.94h1.79l-0.59,1.26
		l-0.03,0.04c0.28,1.27,0.61,2.5,0.98,3.66c0.01,0.03,0.02,0.07,0.03,0.09c5.53,17.44,19.75,23.06,19.75,23.06
		c9.88-7.3,9.69-18.88,9.69-18.88v-1.59l1.85,0.55l1.26,3.02c0,0,2.14,3.33,10.64,7.07c1.47,0.64,3.04,1.46,4.67,2.39
		c7.77,4.41,16.42,11.24,17.08,12.69c0.07,0.15,0.14,0.39,0.23,0.72v0.01c0.91,3.58,2.79,17.01,4.53,21.8
		c1.09,2.99,2.81,4.64,4.07,5.49c0.01,0.01,0.01,0.01,0.02,0.01c0.94,0.64,1.62,0.85,1.62,0.85c0.13,0.74,0.26,1.47,0.38,2.19
		C178.03,173.73,171.1,189.31,169.54,190.4z"/>
	<linearGradient id="SVGID_2_" gradientUnits="userSpaceOnUse" x1="77.4199" y1="173.9284" x2="77.4199" y2="134.0523">
		<stop  offset="0" style="stop-color:#CCEDFF"/>
		<stop  offset="1" style="stop-color:#755CBB"/>
	</linearGradient>
	<path style="opacity:0.5;fill:url(#SVGID_2_);" d="M100.8,153.46c-13.43,1.37-17.05,5.11-17.05,5.11
		c-3.78,0.48-12.26-9.2-12.26-9.2l-1.11-1.27c0,0-6.83,15.55-13.02,23.17c-0.74,0.9-1.52,1.8-2.32,2.66l0.88-1.98
		c0,0,1.44-0.69,1.86-8.25c0.43-7.55-3.17-18.83-3.2-20.36c-0.03-1.53-0.55-9.29-0.55-9.29l11.48,6.85l-2.12-6.72l8.36,6.72
		c0,0,3.27,4.92,11.54,9.03C91.1,153.81,99.84,153.5,100.8,153.46z"/>
	<linearGradient id="SVGID_3_" gradientUnits="userSpaceOnUse" x1="80.6302" y1="177.2804" x2="80.6302" y2="147.053">
		<stop  offset="0" style="stop-color:#CCEDFF"/>
		<stop  offset="1" style="stop-color:#755CBB"/>
	</linearGradient>
	<path style="opacity:0.5;fill:url(#SVGID_3_);" d="M70.38,148.1l8-1.05c0,0,3.2,2.12,9.62,4.73l-5.35,7.9c0,0,2.12,11.26,8.22,17.6
		c0,0-16.18-8.99-18.46-16.55L70.38,148.1z"/>
	<linearGradient id="SVGID_4_" gradientUnits="userSpaceOnUse" x1="107.9981" y1="211.1593" x2="143.5284" y2="211.1593">
		<stop  offset="0" style="stop-color:#CCEDFF"/>
		<stop  offset="1" style="stop-color:#755CBB"/>
	</linearGradient>
	<path style="opacity:0.5;fill:url(#SVGID_4_);" d="M143.53,216.19L143.53,216.19c-15.73,4.07-35.7-1.76-35.53-2.47
		c0.17-0.71,5.47,0.32,17.76-2.14c11.92-2.39,16.24-6.63,16.5-6.88c-0.1,0.72-1.74,2.3-2.21,4.03
		C139.73,209.87,141.96,213.49,143.53,216.19z"/>
	<linearGradient id="SVGID_5_" gradientUnits="userSpaceOnUse" x1="125.1314" y1="214.1446" x2="125.1314" y2="204.6919">
		<stop  offset="0" style="stop-color:#CCCCFF"/>
		<stop  offset="1" style="stop-color:#755CBB"/>
	</linearGradient>
	<path style="opacity:0.5;fill:url(#SVGID_5_);" d="M142.26,204.69c-0.1,0.72-1.74,2.3-2.21,4.03c0,0-6.82,7.22-32.05,5
		c0.17-0.71,5.47,0.32,17.76-2.14C137.68,209.19,142,204.95,142.26,204.69z"/>
	<linearGradient id="SVGID_6_" gradientUnits="userSpaceOnUse" x1="87.3199" y1="219.4915" x2="87.3199" y2="200.0266">
		<stop  offset="0" style="stop-color:#CCCCFF"/>
		<stop  offset="1" style="stop-color:#755CBB"/>
	</linearGradient>
	<path style="opacity:0.5;fill:url(#SVGID_6_);" d="M102.5,219.49c0,0-18.59-3.05-26.17-7.94c0,0-0.01,0-0.01-0.01
		c0.08-0.42,0.11-0.83,0.09-1.24c-0.16-4.19-3.78-7.9-4.28-10.28c0.08,0.23,0.63,1.48,3.27,3.74c1.67,1.43,4.19,3.27,7.97,5.51
		c0.1,0.06,0.2,0.12,0.29,0.17c5.36,3.17,9.98,5.31,13.31,6.88c0.03,0.01,0.04,0.02,0.06,0.03
		C100.03,217.77,101.98,218.7,102.5,219.49C102.5,219.48,102.5,219.49,102.5,219.49z"/>
	<linearGradient id="SVGID_7_" gradientUnits="userSpaceOnUse" x1="22.6102" y1="176.2188" x2="140.9989" y2="176.2188">
		<stop  offset="0" style="stop-color:#CCCCFF"/>
		<stop  offset="1" style="stop-color:#755CBB"/>
	</linearGradient>
	<path style="opacity:0.5;fill:url(#SVGID_7_);" d="M141,226.65v3.33l-0.06,0.06l-0.18,0.17l-0.15,0.13
		c-1.51,1.19-7.9,5.08-27.87,6.16c-23.66,1.26-39.42-6.35-39.42-6.35l1.19-3.26c0,0-1.11-0.95-1.19-1.42
		c-0.08-0.48,0.87-1.59,0.87-1.59s-2.38-1.26-2.38-2.86c0-1.43,3.89-5.58,4.51-9.47c0.08-0.42,0.11-0.83,0.09-1.24
		c-0.16-4.19-3.78-7.9-4.28-10.28c-0.01-0.03-0.01-0.03-0.01-0.03c-0.48-2.38,6.19-8.25,6.19-8.25
		c-5.71-18.09-6.83-42.37-6.83-42.37l-1.11-1.27c0,0-6.83,15.55-13.02,23.17c-6.19,7.62-15.24,14.13-16.82,13.81
		c-3.65,0-7.73-6.35-11.43-14.18c-3.7-7.83-3.93-30.33-4.12-31.72c-0.2-1.39-2.26-4.17-2.39-5.36c3.97,6.83,10.29,4.82,10.29,4.82
		c-4.58,0.1-6.96-8.47-6.96-8.47l-0.03-0.06l-0.03-0.06l-2.24-5.9c0.25,0.28,5.49,6.14,10.54,2.53c5.18-3.7,7.86-10.87,7.86-10.87
		v9.2c0,0,0.31,1.43,0.79,1.43c-0.31,4.24-1.21,9.4-2.29,14.48c-2.35,11-5.58,21.62-5.58,21.62s8.74-4.76,11.82-16.82
		c1.47-5.77,1.71-10.79,1.57-14.44c-0.13-3.12-0.54-5.26-0.7-6.04c-0.01-0.06-0.03-0.12-0.04-0.18c0-0.03-0.01-0.06-0.02-0.08
		c0-0.02-0.01-0.03-0.01-0.04l0.85,1.79l1.61,3.99c1.87,15.48-1.98,38.8-1.98,38.8c5.61-6.99,6.78-22.43,6.53-26.18
		c-0.11-1.79-0.25-4-0.34-5.81c-0.13-1.98-0.21-3.48-0.21-3.48l11.48,6.85l-2.12-6.72l8.36,6.72c0,0,7.51,9.05,15.24,10.1
		c7.72,1.06,36.07,0.43,36.07,0.43s-24.65,1.58-31.84,3.7c-7.19,2.12-8.57,4.55-8.57,4.55c5.2,26.46,33.99,35.38,34.88,35.65
		c-26.12-3.92-38.27-26.12-38.27-26.12s-0.43,12.49,1.58,17.25c2.01,4.76,13.86,16.4,29.1,18.83c1.28,0.2,2.55,0.33,3.79,0.39
		c12.85,0.6,23.49-5.96,24.57-6.67c0.06-0.04,0.09-0.06,0.09-0.06s-0.01,0.02-0.03,0.04c-0.41,0.63-5.68,8.03-26.95,8.84
		c-1.29,0.05-2.55,0.04-3.77-0.01c-0.01,0-0.02,0-0.02,0c-19.72-0.83-29.76-13.96-29.76-13.96s-7.3,3.92-2.64,9.73
		c0.05,0.06,0.1,0.13,0.15,0.18c1.37,1.58,4.4,3.52,7.97,5.51c0.1,0.06,0.2,0.12,0.29,0.17c4.32,2.39,9.39,4.85,13.31,6.88
		c0.03,0.01,0.04,0.02,0.06,0.03c2.4,1.25,4.36,2.32,5.46,3.12c0.01,0,0.01,0.01,0.01,0.01c1.11,0.8,1.33,1.32,0.25,1.45
		c-5.5,0.64-26.34-3.91-27.19-2.65c-0.85,1.27,1.03,4.55,1.03,4.55c19.13,9.48,60.06,4.81,61.35,4.67
		c-34.26,8.77-62.28-2.34-62.28-2.34l0.93,3.28c0,0,15.26,5.28,33.24,5.71c17.99,0.42,29.21-4.18,29.21-4.18L141,226.65z"/>
	<g>
		<linearGradient id="SVGID_8_" gradientUnits="userSpaceOnUse" x1="109.2103" y1="284.6398" x2="109.2103" y2="229.9857">
			<stop  offset="0" style="stop-color:#6456C0"/>
			<stop  offset="1" style="stop-color:#5F2C95"/>
		</linearGradient>
		<path class="st13" d="M160.55,280c-0.11,0.03-0.22,0.05-0.33,0.07c-0.21,0.04-0.4,0.09-0.6,0.11c-9.32,1.77-18,2.96-26.07,3.69
			c-1.25,0.11-2.48,0.22-3.69,0.32c-0.97,0.07-1.94,0.13-2.89,0.19c-0.14,0.01-0.27,0.02-0.42,0.02c-1.66,0.11-3.29,0.19-4.89,0.25
			c-1.56-6.2-3.21-12.18-4.68-17.29l-0.11-0.37c-0.17-0.61-0.35-1.21-0.52-1.8c-1.74-6-3.15-10.5-3.7-12.28
			c-0.04-0.12-0.08-0.22-0.11-0.32c-0.03-0.12-0.07-0.22-0.09-0.29c-0.01-0.01-0.01-0.02-0.01-0.03l-0.07-0.2
			c-2.33-1.39-6.87,0.32-6.87,0.32l-0.1,0.35v0.01l-1.97,7.12l-0.24,0.91l-6.41,23.31c-1.8-0.15-3.54-0.35-5.23-0.56
			c-0.14-0.01-0.28-0.03-0.43-0.04c-1.06-0.13-2.09-0.27-3.09-0.42v-0.01c-0.5-0.07-0.99-0.14-1.47-0.22
			c-12.09-1.88-21.19-4.82-27.55-7.47c-0.39-0.16-0.78-0.33-1.15-0.49c3.92-18.47,10.72-34.04,12.57-38.08
			c0.29-0.68,0.47-1.03,0.47-1.03l-0.01-0.01c-0.05-0.13-0.61-1.25-0.46-2c0.05-0.33,0.66-0.95,1.33-1.56
			c0.91-0.83,1.99-1.67,2.12-1.77c0.01-0.01,0.01-0.01,0.01-0.01l9.22-0.05h0.01l15.7-0.1h0.01l25.25-0.15h0.04l14.88-0.1l1.99-0.01
			c0,0,0.68,0.34,1.54,0.86h0.01c1.46,0.88,3.45,2.26,3.45,3.27c0,1.39-0.55,2.28-0.68,2.48l-0.04,0.04c0,0.01,0.01,0.01,0.01,0.02
			c0.01,0.03,0.04,0.1,0.09,0.2c5.22,9.86,9.29,21.53,12.36,32.37C158.8,272.95,159.74,276.58,160.55,280z"/>
		<radialGradient id="SVGID_9_" cx="74.9444" cy="261.4656" r="18.9667" gradientUnits="userSpaceOnUse">
			<stop  offset="0" style="stop-color:#4B474B"/>
			<stop  offset="1" style="stop-color:#000000"/>
		</radialGradient>
		<path style="opacity:0.5;fill:url(#SVGID_9_);" d="M90.43,269.54v0.01c-0.38,3.73-1.03,7.65-1.96,11.66
			c-0.14,0.61-0.29,1.22-0.44,1.84c-0.5-0.07-0.99-0.14-1.47-0.22c-12.09-1.88-21.19-4.82-27.55-7.47c0.05-0.29,0.13-0.6,0.2-0.9
			c3.52-15.22,10.02-27.53,16.42-32.35c0.79-0.61,1.57-1.09,2.36-1.45c0.7-0.33,1.39-0.56,2.06-0.66c0.01-0.01,0.01-0.02,0.02-0.02
			c0,0.01,0.01,0.01,0.01,0.01h0.03c0.84-0.15,1.65-0.14,2.45,0.04c1.58,0.36,2.96,1.37,4.11,2.91c0.1,0.12,0.19,0.25,0.27,0.38
			c0.42,0.59,0.79,1.26,1.14,1.98v0.01c0.72,1.51,1.3,3.28,1.75,5.29c0.23,1.04,0.43,2.13,0.58,3.28
			C91.01,258.38,91.04,263.73,90.43,269.54z"/>
		<radialGradient id="SVGID_10_" cx="142.6541" cy="262.0348" r="19.7294" gradientUnits="userSpaceOnUse">
			<stop  offset="0" style="stop-color:#4B474B"/>
			<stop  offset="1" style="stop-color:#000000"/>
		</radialGradient>
		<path style="opacity:0.5;fill:url(#SVGID_10_);" d="M159.63,280.17c-9.32,1.77-18,2.96-26.07,3.69c-1.25,0.11-2.48,0.22-3.69,0.32
			c-0.28-0.87-0.55-1.77-0.8-2.68c-1.41-5.01-2.36-9.91-2.88-14.46c-0.11-0.93-0.21-1.84-0.27-2.73c-0.61-7.47,0-13.9,1.72-18.28
			l0.01-0.01c1.23-3.16,3.06-5.25,5.42-5.91c1.04-0.29,2.12-0.29,3.23-0.02c6.95,1.59,15.23,13.27,20.43,29.15
			c0.45,1.35,0.87,2.75,1.27,4.17C158.62,275.69,159.18,277.95,159.63,280.17z"/>
		<g>
			<linearGradient id="SVGID_11_" gradientUnits="userSpaceOnUse" x1="91.1307" y1="267.8602" x2="105.6381" y2="267.8602">
				<stop  offset="0" style="stop-color:#9E8CEF"/>
				<stop  offset="1" style="stop-color:#CAAFEE"/>
			</linearGradient>
			<path class="st16" d="M105.64,252.52l-0.23,0.2v0.01l-2.7,2.36c-0.04,0.08-0.14,0.29-0.31,0.62c-0.36,0.72-1.01,2.04-1.82,3.86
				c-2.22,4.89-5.81,13.45-9.02,23.95c-0.14-0.01-0.28-0.03-0.43-0.04c3.22-10.56,6.84-19.16,9.07-24.09
				c1.03-2.26,1.77-3.75,2.04-4.29v-0.01c0.08-0.13,0.11-0.21,0.12-0.22l0.04-0.07l2.91-2.53l0.05-0.05l0.14,0.16L105.64,252.52z"/>
		</g>
		<g>
			<linearGradient id="SVGID_12_" gradientUnits="userSpaceOnUse" x1="112.2364" y1="268.2971" x2="126.9732" y2="268.2971">
				<stop  offset="0" style="stop-color:#9E8CEF"/>
				<stop  offset="1" style="stop-color:#CAAFEE"/>
			</linearGradient>
			<path class="st19" d="M120.4,266.04c2.04,4.94,4.42,11.22,6.58,18.33c-0.14,0.01-0.27,0.02-0.42,0.02
				c-2.2-7.19-4.59-13.51-6.65-18.45c-0.84-2.03-1.63-3.82-2.32-5.34c-1.53-3.4-2.58-5.44-2.73-5.72l-2.21-1.98l-0.02-0.02h-0.01
				l-0.38-0.35l0.21-0.24h0.01l0.07-0.08l2.69,2.44c0.03,0.07,0.99,1.9,2.46,5.1C118.45,261.46,119.38,263.58,120.4,266.04z"/>
		</g>
		<linearGradient id="SVGID_13_" gradientUnits="userSpaceOnUse" x1="107.599" y1="284.6398" x2="107.599" y2="229.9857">
			<stop  offset="0" style="stop-color:#CCCCFF"/>
			<stop  offset="1" style="stop-color:#755CBB"/>
		</linearGradient>
		<path style="opacity:0.76;fill:url(#SVGID_13_);" d="M146,234.12c0,1.39-0.55,2.28-0.68,2.48l-0.04,0.04
			c-3.2,0.72-6.23,1.97-8.99,3.45c-3.31,1.79-6.25,3.92-8.65,5.93l-0.01,0.01c-4.33,3.6-6.94,6.81-6.94,6.81
			c1.57,3.03,3.38,7.04,5.22,11.47c0.4,0.94,0.8,1.9,1.19,2.87c2.2,5.4,4.44,11.24,6.46,16.68c-1.25,0.11-2.48,0.22-3.69,0.32
			c-0.97,0.07-1.94,0.13-2.89,0.19c-0.14,0.01-0.27,0.02-0.42,0.02c-1.66,0.11-3.29,0.19-4.89,0.25c-1.56-6.2-3.21-12.18-4.68-17.29
			l-0.11-0.37c-0.17-0.61-0.35-1.21-0.52-1.8c-1.74-6-3.15-10.5-3.7-12.28c-0.04-0.12-0.08-0.22-0.11-0.32
			c-0.03-0.12-0.07-0.22-0.09-0.29c-0.01-0.01-0.01-0.02-0.01-0.03l-0.07-0.2c-2.33-1.39-6.87,0.32-6.87,0.32l-0.1,0.35v0.01
			l-1.97,7.12l-0.24,0.91l-6.41,23.31c-1.8-0.15-3.54-0.35-5.23-0.56c-0.14-0.01-0.28-0.03-0.43-0.04
			c-1.06-0.13-2.09-0.27-3.09-0.42v-0.01c-0.5-0.07-0.99-0.14-1.47-0.22c1.29-4.81,2.64-9.34,3.87-13.27v-0.01
			c2.06-6.59,3.8-11.46,4.35-13.01c0.13-0.34,0.2-0.52,0.2-0.52c-1.62-1.88-3.36-3.69-5.15-5.41c-4.07-3.93-8.37-7.36-11.84-9.94
			c-4.13-3.06-7.08-4.9-7.08-4.9l-0.01-0.01l-1.7-1.07l1.25-0.93c2.04,1.96,5.58,4.12,9.44,6.14l0.02,0.01
			c0.05,0.03,0.11,0.07,0.17,0.09c0,0.01,0.01,0.01,0.01,0.01h0.03c2.26,1.19,4.6,2.32,6.83,3.33c5.04,2.32,9.36,4.03,10.25,4.36
			l0.07,0.02l-25.49-15.52c0.91-0.83,1.99-1.67,2.12-1.77c0.01-0.01,0.01-0.01,0.01-0.01l9.22-0.05h0.01l15.7-0.1h0.01l25.25-0.15
			h0.04l14.88-0.1l1.99-0.01c0,0,0.68,0.34,1.54,0.86l-18.33,10.08L146,234.12z"/>
		<linearGradient id="SVGID_14_" gradientUnits="userSpaceOnUse" x1="116.2956" y1="267.3453" x2="116.2956" y2="246.966">
			<stop  offset="0" style="stop-color:#CCCCFF"/>
			<stop  offset="1" style="stop-color:#755CBB"/>
		</linearGradient>
		<polygon style="opacity:0.76;fill:url(#SVGID_14_);" points="112.38,252.05 120.21,246.97 118.35,252.05 116.99,267.35 		"/>
		<linearGradient id="SVGID_15_" gradientUnits="userSpaceOnUse" x1="92.6913" y1="259.8513" x2="92.6913" y2="239.8853">
			<stop  offset="0" style="stop-color:#CCCCFF"/>
			<stop  offset="1" style="stop-color:#755CBB"/>
		</linearGradient>
		<polygon style="opacity:0.76;fill:url(#SVGID_15_);" points="105.5,252.37 97.35,247.75 79.88,239.89 102.12,254.58 
			103.45,259.85 		"/>
	</g>
	<path class="st78" d="M127.95,95.02c0.05,0.36,0.09,0.55,0.09,0.55c-0.41,1.71-0.88,3.29-1.39,4.74
		c-1.64,4.72-3.69,8.07-5.22,10.15c-1.33,1.8-2.28,2.66-2.28,2.66c-12.22-3.84-18.24-15.79-20.55-21.73
		c-0.02-0.03-0.03-0.06-0.03-0.09c-0.44-1.12-0.74-2.03-0.92-2.61c0,0,0,0,0-0.01c-0.14-0.47-0.21-0.73-0.21-0.73
		c0.05-0.1,0.1-0.21,0.15-0.31l0.03-0.04c0.2-0.42,0.4-0.85,0.59-1.26c1.6-3.5,2.66-6.78,3.35-9.36c0.59-2.19,0.91-3.89,1.06-4.78
		c0.08-0.46,0.11-0.71,0.11-0.71l5.7,3.01l19.62,10.39c-0.29,1.8-0.41,3.49-0.42,4.98c-0.02,1.05,0.02,1.98,0.08,2.78
		c0.06,0.97,0.16,1.74,0.23,2.24v0.01C127.93,94.95,127.94,94.98,127.95,95.02z"/>
	<linearGradient id="SVGID_16_" gradientUnits="userSpaceOnUse" x1="112.9425" y1="117.4687" x2="112.9425" y2="87.6433">
		<stop  offset="0" style="stop-color:#D5CDF8"/>
		<stop  offset="1" style="stop-color:#F3EDFB"/>
	</linearGradient>
	<path style="fill:url(#SVGID_16_);" d="M122.51,114.45c-1.13,1.12-2.46,2.13-4.05,2.96c-0.03,0.03-0.07,0.04-0.1,0.06
		c0,0-0.04-0.03-0.12-0.07l-0.01-0.01c-0.43-0.26-1.88-1.16-3.84-2.63c-5.13-3.86-13.69-11.67-16.13-22.19
		c-0.01-0.02-0.01-0.03-0.02-0.04c-0.28-1.25-0.49-2.52-0.59-3.84c0,0,0,0,0-0.01c-0.03-0.34-0.05-0.69-0.06-1.04
		c0,0,1.7,4,4.65,8.31c3.47,5.08,8.67,10.61,14.88,10.65c5.38,0.03,8.13-3.64,9.53-7.04c0.59-1.44,0.95-2.82,1.13-3.85
		c0.01-0.01,0.01-0.02,0.01-0.02c0.06-0.3,0.1-0.57,0.14-0.8v-0.01c0.02-0.12,0.03-0.22,0.04-0.31c0.05-0.38,0.07-0.59,0.07-0.59
		S130.1,106.85,122.51,114.45z"/>
	<linearGradient id="SVGID_17_" gradientUnits="userSpaceOnUse" x1="97.5883" y1="102.5267" x2="128.2967" y2="102.5267">
		<stop  offset="0" style="stop-color:#CCCCFF"/>
		<stop  offset="1" style="stop-color:#755CBB"/>
	</linearGradient>
	<path style="opacity:0.5;fill:url(#SVGID_17_);" d="M122.51,114.45c-1.13,1.12-2.46,2.13-4.05,2.96h-0.1l-0.12-0.01l-0.01-0.01
		c-0.43-0.26-1.88-1.16-3.84-2.63c-5.13-3.86-13.69-11.67-16.13-22.19c-0.01-0.02-0.01-0.03-0.02-0.04
		c-0.28-1.25-0.49-2.52-0.59-3.84c0,0,0,0,0-0.01c-0.03-0.34-0.05-0.69-0.06-1.04c0,0,1.7,4,4.65,8.31c0,0,3.38,9.3,10.7,13.9
		c3.67,2.3,6.45,1.97,8.49,0.61c2.04-1.35,3.37-3.7,4.15-5.48c0.78-1.78,1.03-3.45,1.07-4.67c0.01-0.28,0.01-0.53,0-0.75
		c0.59-1.44,0.95-2.82,1.13-3.85c0.01-0.01,0.01-0.02,0.01-0.02c0.06-0.3,0.1-0.57,0.14-0.8v-0.01c0.02-0.12,0.03-0.22,0.04-0.31
		c0.05-0.38,0.07-0.59,0.07-0.59S130.1,106.85,122.51,114.45z"/>
	<linearGradient id="SVGID_18_" gradientUnits="userSpaceOnUse" x1="41.7902" y1="142.9849" x2="78.3915" y2="142.9849">
		<stop  offset="0" style="stop-color:#CCCCFF"/>
		<stop  offset="1" style="stop-color:#755CBB"/>
	</linearGradient>
	<path style="opacity:0.5;fill:url(#SVGID_18_);" d="M78.39,147.05l-6.9,2.32l-1.11-1.27c0,0-6.83,15.55-13.02,23.17
		c-0.74,0.9-1.52,1.8-2.32,2.66c-1.73,1.87-3.56,3.62-5.33,5.15l-5.26-22.67l-2.67-17.21c2.71-3.69,5.32-6.59,6.57-7.91
		c0.49-0.52,0.76-0.8,0.76-0.8s-0.87-2.81-1.47-5.24c-0.01-0.06-0.03-0.12-0.04-0.18c0-0.03-0.01-0.06-0.02-0.08
		c-0.01-0.04-0.02-0.06-0.02-0.06c-0.35-1.5-0.57-2.8-0.37-3.12c0.53-0.85,3.6-1.8,4.13-2.43c0.53-0.64,2.75-11.32,4.44-12.49
		c0,0-1.11,10.26,4.77,23.28l2.86,4.02l8.36,6.72C71.76,140.9,74.93,145.12,78.39,147.05z"/>
	<linearGradient id="SVGID_19_" gradientUnits="userSpaceOnUse" x1="40.6582" y1="185.0763" x2="40.6582" y2="114.7969">
		<stop  offset="0" style="stop-color:#9E8CEF"/>
		<stop  offset="1" style="stop-color:#DAC7F3"/>
	</linearGradient>
	<path style="fill:url(#SVGID_19_);" d="M58.42,165.61c-1.48,11-17.87,19.46-17.87,19.46c-3.65,0-7.73-6.35-11.43-14.18
		c-3.7-7.83-3.93-30.33-4.12-31.72c-0.2-1.39-2.26-4.17-2.39-5.36c-0.12-1.19,3.33-3.65,3.33-3.65l-0.03-0.06l-0.03-0.06
		c-0.36-0.77-2.39-5.12-2.24-5.91c0.16-0.87,4.04-2.77,4.04-2.77l0.24,4.28c0,0,9.03-1.71,12.09-8.7l0.54-2.14l1.51,1.01v9.2
		c0,0,0.31,1.43,0.79,1.43s4-1.76,4.73-1.52c0.75,0.24,1.47,5.17,2.46,5.8c0.98,0.64,3.6,2.46,4,3.33c0.18,0.39,0.19,1.81,0.21,3.48
		c0.03,2.04,0.04,4.46,0.34,5.81C55.15,145.79,59.91,154.61,58.42,165.61z"/>
	<linearGradient id="SVGID_20_" gradientUnits="userSpaceOnUse" x1="161.5108" y1="164.8209" x2="208.6698" y2="164.8209">
		<stop  offset="0" style="stop-color:#A999F1"/>
		<stop  offset="1" style="stop-color:#DAC7F3"/>
	</linearGradient>
	<path class="st27" d="M208.34,156.19c-0.74,1.16-4.44,3.6-5.39,4.56c-0.95,0.95,0,4.08,0,4.08c-15.55,16.51-31.77,24.77-33.4,25.58
		c-0.09,0.04-0.13,0.07-0.13,0.07c-9.77-6.57-8.93-17.38-5.69-26.49c3.1-8.74,8.41-15.92,8.64-16.23l0.01-0.01c0,0,0,0,0.01-0.01
		c0.18-0.07,2.96-1.22,4.96-1.37c0.66-0.05,1.26,0.21,1.83,0.57c1.19,0.74,2.19,1.9,3.17,1.42c1.43-0.72,4.63-8.28,6.8-8.49
		c1.52-0.14,3.62,1.4,5.02,2.28c0.61,0.39,1.09,0.64,1.32,0.58c0.8-0.21,3.49-3.44,3.71-3.53c0.21-0.09,1.44,0.81,1.44,0.81
		l-0.86,1.07c1.32,7.62,5.66,12.75,5.66,12.75l2.91-4.25C208.34,149.56,209.08,155.02,208.34,156.19z"/>
	<path class="st101" d="M127.99,94.7c-0.02,0.11-0.03,0.22-0.04,0.33c-0.04,0.23-0.09,0.44-0.16,0.67c0,0,0,0.01-0.01,0.02
		c-1,3.69-5.03,7.47-10.11,5.65c-5.55-1.98-16.12-24.37-16.12-24.37l1.06-4.78l25.08,20.44l0.28,1.93L127.99,94.7z"/>
	<g>
		<path class="st664" d="M44.46,90.6c0,0-1.53-8.46-0.85-14.71c0.69-6.24-0.18-13.33-0.18-13.33s-1.52-0.63-2.63,0
			c-1.11,0.63-3.7,7.09-2.54,12.27c1.16,5.18,0.26,17.62,0.26,17.62h-1.75l-3.81-5.24l-1.85-0.53c0,0-10.66,10.05-10.5,16.03
			l1.39,5.32l13.13-0.45l8.57-9.79L44.46,90.6z"/>
		<linearGradient id="SVGID_21_" gradientUnits="userSpaceOnUse" x1="25.3181" y1="105.214" x2="25.3181" y2="86.6834">
			<stop  offset="0.016" style="stop-color:#FFC2A9"/>
			<stop  offset="1" style="stop-color:#FF9595"/>
		</linearGradient>
		<path class="st28" d="M31.13,86.68c0,0,0.28,6.67,1.77,12.38c0,0-0.25,2.34-2.99,2.5l-0.67-0.75c0,0-0.48,2.66-2.9,2.86l-2.3-2.3
			l0.6,1.9c0,0-0.83,2.02-3.02,1.94c0,0-3.65-2.86-3.89-6.59l3.61-3.05v-2.34l4.29-3.02l0.08-1.71
			C25.71,88.51,28.22,86.64,31.13,86.68z"/>
		<linearGradient id="SVGID_22_" gradientUnits="userSpaceOnUse" x1="36.9869" y1="104.7752" x2="36.9869" y2="74.1012">
			<stop  offset="0" style="stop-color:#FFEADB"/>
			<stop  offset="0.9944" style="stop-color:#C27CB6"/>
		</linearGradient>
		<path style="opacity:0.6;fill:url(#SVGID_22_);" d="M43.77,74.1c0,0-0.64,1.63-1.55,2.27c-0.91,0.63-3.56,1.12-3.56,1.12
			l-0.12,14.96h-1.75l-3.81-5.24c0,0,1.93,2.99,2.05,5.24l-1.51,0.74l-1.31-4.48l-0.62,3.23l0.62,4.01c0,0,2.26-1.94,6.34-2.02
			l0.61,1.12c0,0-7.39,6.12-9.1,9.73c0,0,3.65-4.64,11.98-9.76l0.79-2.46l1.05-5.87C43.9,86.68,42.9,78.22,43.77,74.1z"/>
		<linearGradient id="SVGID_23_" gradientUnits="userSpaceOnUse" x1="35.9917" y1="125.6433" x2="35.9917" y2="78.3548">
			<stop  offset="0.016" style="stop-color:#FFC2A9"/>
			<stop  offset="1" style="stop-color:#FF9595"/>
		</linearGradient>
		<path class="st30" d="M49.96,100.17c-0.69,2.06-7.88,10.63-8.68,12.49c-0.8,1.85-1.27,4.28-1.27,4.28
			c-3.53,7.65-12.09,8.7-12.09,8.7l-0.39-6.9c0,0-4.6-2.65-5.38-4.1l-0.01-0.03l-0.09-0.24c-0.23-1.35-0.03-6.35-0.03-6.35
			l8.05-3.26c3.49-4.52,11.99-9.76,11.99-9.76l0.39-2.37c-6.1-3-5.08-12.07-4.05-13.18c1.03-1.11,2.93-1.11,2.93-1.11
			s2.23,7.3,3.65,10.71C46.42,92.48,50.65,98.11,49.96,100.17z"/>
		<path class="st668" d="M25.71,88.51c0,0,0.9,8.33,3.53,12.3c0,0-3.35-4.15-3.61-10.59L25.71,88.51z"/>
		<path class="st668" d="M21.34,93.23c0,0,0.87,6.7,5,10.43c0,0-3.65-1.82-5-8.09V93.23z"/>
		<linearGradient id="SVGID_24_" gradientUnits="userSpaceOnUse" x1="27.5351" y1="118.2638" x2="42.4034" y2="118.2638">
			<stop  offset="0.016" style="stop-color:#D1A1D6"/>
			<stop  offset="0.9944" style="stop-color:#BD89C4"/>
		</linearGradient>
		<path style="opacity:0.91;fill:url(#SVGID_24_);" d="M42.4,110.88c0,0-9.07,8.81-14.87,7.86l0.39,6.9c0,0,9.52-0.83,12.62-10.85
			C40.55,114.79,41.66,111.91,42.4,110.88z"/>
	</g>
	<g>
		<linearGradient id="SVGID_25_" gradientUnits="userSpaceOnUse" x1="209.6419" y1="154.4469" x2="209.6419" y2="91.2102">
			<stop  offset="0.016" style="stop-color:#FFC2A9"/>
			<stop  offset="1" style="stop-color:#FF9595"/>
		</linearGradient>
		<path class="st32" d="M234.24,122.86c0,0-8.33,15.24-18.09,19.92h-3.33l-7.7,11.67c0,0-4.98-3.12-5.34-13.38
			c0,0,1.74-1.82,2.17-3.87c0,0-2.75-2.16-3.49-3.74c-0.74-1.59-1.01-6.35-1.53-8.31c-0.53-1.96-5.03-6.03-6.03-6.56
			c-1.01-0.53-5.55-0.8-5.55-0.8s-0.64-1.64,0-2.43c0.64-0.8,7.72-3.55,11.58-0.9c0,0,0.27,2.01,0.69,3.07
			c0.43,1.06,3.81,4.81,4.34,4.81c0.53,0,2.81-1.9,3.81-3.38c0.96-1.42,6.08-12.45,7.32-16.18c0.01-0.04,0.02-0.08,0.03-0.11
			c0.02-0.06,0.04-0.12,0.05-0.17c0.02-0.04,0.03-0.08,0.03-0.11c0.01-0.02,0.02-0.03,0.02-0.04c0.95-3.22,6.51-9.41,9.47-11.11
			c0,0,1.26-0.32,1.95,1.26c0,0-2.38,6.78-4.87,10.8c-0.42,0.68-0.87,1.47-1.34,2.33c0,0,0,0-0.01,0c-2.12,3.89-4.51,9-4.85,9.74
			l-0.04,0.09l1.32,0.68l3.58-3.39l3.67-3.48l8.42,8.89l-0.83,1.06l-2.63,3.38l1.33,0.24l3.1-3.43L234.24,122.86z"/>
		<linearGradient id="SVGID_26_" gradientUnits="userSpaceOnUse" x1="217.1126" y1="134.1864" x2="217.1126" y2="102.7696">
			<stop  offset="0" style="stop-color:#FFEADB"/>
			<stop  offset="0.9944" style="stop-color:#C27CB6"/>
		</linearGradient>
		<path style="opacity:0.6;fill:url(#SVGID_26_);" d="M232.29,126.1l-2.66,3.91c0,0-14.62-11.27-17.79-12.23
			c-3.17-0.95-4.34-0.32-4.34-0.32l-3.27,4.18c0,0,6.03,5.34,6.56,12.54c0,0-2.01-9.1-8.84-11.85c0.53,0,2.81-1.9,3.81-3.38
			c0.96-1.42,6.08-12.45,7.32-16.18c-0.17,0.64-0.39,1.88,0.13,2.86c0.72,1.33,4.96,0.08,5.21,0c0.01,0,0.01,0,0.01,0l-4.86,9.74
			l-0.04,0.09l1.32,0.68l3.58-3.39l-1.79,4.16l13.05,2.3l-2.63,3.38l1.33,0.24L232.29,126.1z"/>
		<linearGradient id="SVGID_27_" gradientUnits="userSpaceOnUse" x1="223.3105" y1="123.3426" x2="223.3105" y2="109.2591">
			<stop  offset="0" style="stop-color:#FFB0B0"/>
			<stop  offset="0.984" style="stop-color:#FFC2A9"/>
		</linearGradient>
		<path class="st34" d="M222.09,109.27c0,0,2.54-0.37,4.18,2.91l-0.37,1.06c0,0,2.47,0.48,4.87,4.5c0,0-2.12,3.86-7.35,5.61
			c0,0-2.43-0.69-2.86-2.75l0.48-1.32l-1.9,1.43c0,0-2.27,0.69-3.28-2.7L222.09,109.27z"/>
		<linearGradient id="SVGID_28_" gradientUnits="userSpaceOnUse" x1="231.4791" y1="125.5114" x2="231.4791" y2="117.7883">
			<stop  offset="0" style="stop-color:#FFB0B0"/>
			<stop  offset="0.984" style="stop-color:#FFC2A9"/>
		</linearGradient>
		<path class="st35" d="M235,121.81c0,0,0.53-2.43-2.06-4.02l-5.03,5.55c0,0,0.15,1.78,2.33,2.17
			C230.24,125.51,233.68,124.35,235,121.81z"/>
		<linearGradient id="SVGID_29_" gradientUnits="userSpaceOnUse" x1="198.447" y1="140.9045" x2="212.811" y2="140.9045">
			<stop  offset="0.016" style="stop-color:#D1A1D6"/>
			<stop  offset="0.9944" style="stop-color:#BD89C4"/>
		</linearGradient>
		<path style="opacity:0.91;fill:url(#SVGID_29_);" d="M198.45,133.45c0,0,5.82,6.5,14.36,9.33l-3.68,5.58l-7.68-9.76l0.49-1.41
			C201.94,137.19,198.87,134.88,198.45,133.45z"/>
		<path class="st668" d="M225.9,113.24c0,0-2.43,4.02-4.87,6.03l-0.48,1.32c0,0,4.72-3.19,6.46-6.87
			C227.02,113.72,226.46,113.32,225.9,113.24z"/>
	</g>
	<linearGradient id="SVGID_30_" gradientUnits="userSpaceOnUse" x1="178.4568" y1="190.4796" x2="178.4568" y2="119.6966">
		<stop  offset="0" style="stop-color:#CCCCFF"/>
		<stop  offset="1" style="stop-color:#755CBB"/>
	</linearGradient>
	<path style="opacity:0.5;fill:url(#SVGID_30_);" d="M208.34,156.19c-0.74,1.16-4.44,3.6-5.39,4.56c-0.95,0.95,0,4.08,0,4.08
		c-15.55,16.51-31.77,24.77-33.4,25.58c-0.09,0.04-0.13,0.07-0.13,0.07c-1.27,0.16-7.46-1.58-13.65-13.96
		c-5.61-11.21-7.22-18.7-7.48-20.01l-0.03-0.2l1.37-1.85l2.03-22.85l1.42,4.6c5.39-6.51,10.48-16.5,10.48-16.5l0.23,0.72v0.01
		c0.91,3.58,2.79,17.01,4.53,21.8c1.09,2.99,2.81,4.64,4.07,5.49l0.01,0.02l-0.01,0.01c-4.97,4.53-7.43,11.05-8.64,16.23
		c-1.11,4.76-1.19,8.4-1.19,8.4s1.37-6.45,5.71-14.21c1.57-2.82,3.87-5.34,6.14-7.41c1.71-1.56,3.41-2.86,4.79-3.84
		c1.19,0.74,2.19,1.9,3.17,1.42c-6.53,9.81-6.37,29.22-0.23,25.52c6.13-3.7,7.53-11.56,7.53-11.56c-1.45-9.57-1.02-20.37,0.15-22.42
		c1.41,0.05,5.46,2.89,5.69,2.82c-0.37,11.27,4.92,18.79,4.92,18.79l3.49-5.4c-5.08-8.57-4.71-16.91-4.71-16.91
		c0.21-0.09,1.44,0.81,1.44,0.81l-0.86,1.07c1.32,7.62,5.66,12.75,5.66,12.75l2.91-4.25C208.34,149.56,209.08,155.02,208.34,156.19z
		"/>
	<linearGradient id="SVGID_31_" gradientUnits="userSpaceOnUse" x1="126.9827" y1="156.408" x2="149.6118" y2="156.408">
		<stop  offset="0" style="stop-color:#CCEDFF"/>
		<stop  offset="1" style="stop-color:#755CBB"/>
	</linearGradient>
	<path style="opacity:0.5;fill:url(#SVGID_31_);" d="M126.98,151.33c0,0,13.62,0.74,22.63,3.12l-4.64,7.04
		C144.97,161.49,137.99,155.35,126.98,151.33z"/>
	<linearGradient id="SVGID_32_" gradientUnits="userSpaceOnUse" x1="106.458" y1="196.122" x2="139.7141" y2="196.122">
		<stop  offset="0" style="stop-color:#CCEDFF"/>
		<stop  offset="1" style="stop-color:#755CBB"/>
	</linearGradient>
	<path style="opacity:0.5;fill:url(#SVGID_32_);" d="M139.71,188.88c0,0-8.5,7.09-16.86,10.37c-8.36,3.28-16.4,3.6-16.4,3.6
		s4.81,1.43,16.63-0.48c11.82-1.9,15.87-8.31,15.87-8.31L139.71,188.88z"/>
	<linearGradient id="SVGID_33_" gradientUnits="userSpaceOnUse" x1="32.8577" y1="138.6398" x2="32.8577" y2="115.8019">
		<stop  offset="0" style="stop-color:#CCEDFF"/>
		<stop  offset="1" style="stop-color:#755CBB"/>
	</linearGradient>
	<path style="opacity:0.5;fill:url(#SVGID_33_);" d="M23.66,124.14l2.29,6.02c0,0,2.33,8.13,6.96,8.47
		c4.63,0.34,9.15-13.63,9.15-13.63v-9.2c0,0-4.92,10.56-10.24,11.75C26.5,128.74,23.66,124.14,23.66,124.14z"/>
	<linearGradient id="SVGID_34_" gradientUnits="userSpaceOnUse" x1="51.3384" y1="118.5284" x2="60.5422" y2="118.5284">
		<stop  offset="0" style="stop-color:#CCEDFF"/>
		<stop  offset="1" style="stop-color:#755CBB"/>
	</linearGradient>
	<path style="opacity:0.5;fill:url(#SVGID_34_);" d="M51.34,119.38c0,0,4.13,8.25,9.2,10.79c0,0-6.04-14.65-4.76-23.28
		C55.78,106.89,53.56,108.27,51.34,119.38z"/>
	<linearGradient id="SVGID_35_" gradientUnits="userSpaceOnUse" x1="151.3907" y1="173.9284" x2="151.3907" y2="131.5982">
		<stop  offset="0" style="stop-color:#CCCCFF"/>
		<stop  offset="1" style="stop-color:#755CBB"/>
	</linearGradient>
	<path style="opacity:0.76;fill:url(#SVGID_35_);" d="M151.64,131.6l1.42,4.6l1.44,37.73c0,0-3.66-7.18-6.23-17.43l1.33-2.05
		C149.61,154.45,151.85,140.22,151.64,131.6z"/>
	<linearGradient id="SVGID_36_" gradientUnits="userSpaceOnUse" x1="198.9813" y1="164.8242" x2="198.9813" y2="142.7043">
		<stop  offset="0" style="stop-color:#CCCCFF"/>
		<stop  offset="1" style="stop-color:#755CBB"/>
	</linearGradient>
	<path style="opacity:0.5;fill:url(#SVGID_36_);" d="M195.48,142.7c0,0-0.81,18.54,7.07,20.14l0.39,1.98
		C202.94,164.82,192.75,164.45,195.48,142.7z"/>
	<linearGradient id="SVGID_37_" gradientUnits="userSpaceOnUse" x1="173.8946" y1="163.8359" x2="173.8946" y2="146.9255">
		<stop  offset="0" style="stop-color:#CCCCFF"/>
		<stop  offset="1" style="stop-color:#755CBB"/>
	</linearGradient>
	<path style="opacity:0.3;fill:url(#SVGID_37_);" d="M182.34,148.34c0,0-0.3,0.66-3.17-1.42c0,0-9.91,7.02-13.73,16.91
		c0,0,6.11-9.09,9.36-10.07c3.25-0.98,4.03,2.64,4.03,2.64S180.13,151.3,182.34,148.34z"/>
	<linearGradient id="SVGID_38_" gradientUnits="userSpaceOnUse" x1="28.0772" y1="140.0977" x2="28.0772" y2="133.8178">
		<stop  offset="0" style="stop-color:#CCEDFF"/>
		<stop  offset="1" style="stop-color:#755CBB"/>
	</linearGradient>
	<path style="opacity:0.5;fill:url(#SVGID_38_);" d="M22.61,133.82c0,0,3.81,7.03,10.95,4.82c0,0-4.28,2.88-8.57,0.54
		C25,139.18,22.34,134.61,22.61,133.82z"/>
	<linearGradient id="SVGID_39_" gradientUnits="userSpaceOnUse" x1="44.8525" y1="159.2434" x2="44.8525" y2="124.9229">
		<stop  offset="0" style="stop-color:#CCCCFF"/>
		<stop  offset="1" style="stop-color:#755CBB"/>
	</linearGradient>
	<path style="opacity:0.5;fill:url(#SVGID_39_);" d="M47.58,124.92c0,0,5.24,19.6-8.43,34.32c0,0,8.88-4.56,10.89-15.11
		C52.05,133.58,47.58,124.92,47.58,124.92z"/>
	<linearGradient id="SVGID_40_" gradientUnits="userSpaceOnUse" x1="133.1505" y1="135.086" x2="133.1505" y2="109.2591">
		<stop  offset="0" style="stop-color:#CCEDFF"/>
		<stop  offset="1" style="stop-color:#755CBB"/>
	</linearGradient>
	<path style="opacity:0.5;fill:url(#SVGID_40_);" d="M141.5,109.26c0,0-0.59,8.85-4.83,15.19c-4.24,6.35-12.65,10.63-12.65,10.63
		s10.55-3.89,15.39-9.36C144.25,120.25,141.5,109.26,141.5,109.26z"/>
	<linearGradient id="SVGID_41_" gradientUnits="userSpaceOnUse" x1="99.3151" y1="131.5947" x2="99.3151" y2="95.9487">
		<stop  offset="0" style="stop-color:#CCEDFF"/>
		<stop  offset="1" style="stop-color:#755CBB"/>
	</linearGradient>
	<path style="opacity:0.5;fill:url(#SVGID_41_);" d="M87.52,95.95c0,0,0,7.4,2.38,14.94c2.38,7.54,23.04,20.71,23.04,20.71
		s-21.3-8.85-25.42-16.8C83.39,106.84,87.52,95.95,87.52,95.95z"/>
	<linearGradient id="SVGID_42_" gradientUnits="userSpaceOnUse" x1="87.2788" y1="138.1144" x2="146.8161" y2="138.1144">
		<stop  offset="0" style="stop-color:#8642A0"/>
		<stop  offset="1" style="stop-color:#6456C0"/>
	</linearGradient>
	<path class="st49" d="M87.28,131.18v12.05c0,0,27.73-0.22,58.83,1.84l0.71-10.84C146.82,134.22,119.78,131.01,87.28,131.18z"/>
	<linearGradient id="SVGID_43_" gradientUnits="userSpaceOnUse" x1="92.4122" y1="103.7579" x2="131.1576" y2="103.7579">
		<stop  offset="0" style="stop-color:#CCCCFF"/>
		<stop  offset="1" style="stop-color:#755CBB"/>
	</linearGradient>
	<path style="opacity:0.5;fill:url(#SVGID_43_);" d="M131.16,97.55c-0.65,7.79-3.02,13.22-5.55,16.88
		c-3.48,5.03-7.25,6.74-7.25,6.74c-3.77-1.64-7.04-3.69-9.85-5.94c-11.94-9.55-15.8-22.78-16.09-23.87
		c5.04,12.18,12.45,19.56,18.06,23.71c4.52,3.36,7.88,4.62,7.88,4.62v-3.89c-0.9-0.34-1.77-0.72-2.6-1.14
		c-9.88-4.98-15.08-15.37-17.5-22.09c-0.01-0.02-0.01-0.03-0.02-0.04c-1.32-3.64-1.83-6.19-1.83-6.19h1.79l-0.59,1.26l-0.03,0.04
		c0.28,1.27,0.61,2.5,0.98,3.66c0.01,0.03,0.02,0.07,0.03,0.09c5.53,17.44,19.75,23.06,19.75,23.06c9.88-7.3,9.69-18.88,9.69-18.88
		v-1.59l1.85,0.55L131.16,97.55z"/>
	<linearGradient id="SVGID_44_" gradientUnits="userSpaceOnUse" x1="192.0156" y1="162.3022" x2="192.0156" y2="139.8795">
		<stop  offset="0" style="stop-color:#CCCCFF"/>
		<stop  offset="1" style="stop-color:#755CBB"/>
	</linearGradient>
	<path style="opacity:0.3;fill:url(#SVGID_44_);" d="M189.79,139.88c0,0-2.69,8.77-0.15,22.42c0,0,1.27-17.3,2.22-18.81
		c0.95-1.51,3.62-0.79,3.62-0.79S191.29,140.39,189.79,139.88z"/>
	<linearGradient id="SVGID_45_" gradientUnits="userSpaceOnUse" x1="160.3213" y1="187.5974" x2="160.3213" y2="119.6966">
		<stop  offset="0" style="stop-color:#CCCCFF"/>
		<stop  offset="1" style="stop-color:#755CBB"/>
	</linearGradient>
	<path style="opacity:0.5;fill:url(#SVGID_45_);" d="M163.72,187.6c-2.35-2.05-5.16-5.48-7.97-11.09
		c-5.61-11.21-7.22-18.7-7.48-20.01l1.33-2.05l1.78-17.25l1.67-1c0,0,5.96-6.57,10.48-16.5c0.07,0.15,0.14,0.39,0.23,0.72v0.01
		c0.91,3.58,2.79,17.01,4.53,21.8c1.09,2.99,2.81,4.64,4.07,5.49c0,0-10.31,15.29-10.81,26.21
		C161.11,183.86,163.32,187.09,163.72,187.6z"/>
	<path class="st691" d="M146.46,107.01l-16.13,5.23l-4.72,2.19l-0.03,0.01l-3.07,0.01l-4.15,0.01l-2.6,0.21l-1.37,0.1l-3.91,0.31
		l-1.97,0.16l-19.35-7l-3.46-1.25l-15.91-5.76c0.47-0.18,0.95-0.37,1.45-0.57c10.68-4.23,21.16-9.36,21.16-9.36l4.02-4.94h1.79
		c1.6-3.5,2.66-6.78,3.35-9.36l1.06-4.78c0.08-0.46,0.11-0.71,0.11-0.71l5.7,3.01l19.21,15.36c-0.02,1.05,0.02,1.98,0.08,2.78
		l0.28,1.93c0.05-0.38,0.07-0.59,0.07-0.59l1.85,0.55l1.26,3.02c0,0,2.14,3.33,10.64,7.07
		C143.26,105.27,144.83,106.08,146.46,107.01z"/>
	<g>
		<linearGradient id="SVGID_46_" gradientUnits="userSpaceOnUse" x1="124.7147" y1="92.6451" x2="124.7147" y2="27.9798">
			<stop  offset="0.016" style="stop-color:#FFC2A9"/>
			<stop  offset="1" style="stop-color:#FF9595"/>
		</linearGradient>
		<path class="st53" d="M134.17,92.29c0,0-7.52,1.69-15.82-2.33c-8.3-4.02-15.28-15.87-15.7-18.83c-0.42-2.96,3.17-10.69,3.17-16.72
			s-2.96-16.4,2.01-22.01c4.98-5.6,27.82-6.45,35.24,0.75c0,0,2.29,5.76,2.29,9.02c0,0.79-0.14,1.94-0.35,3.27
			c-0.07,0.49-0.16,1.02-0.24,1.57c-0.66,3.94-1.57,8.76-1.15,10.87c0.15,0.74,0.39,1.42,0.66,2.06v0.01
			c0.91,2.11,2.27,3.79,2.51,5.62C147.11,67.96,143.91,84.89,134.17,92.29z"/>
		<linearGradient id="SVGID_47_" gradientUnits="userSpaceOnUse" x1="100.6081" y1="66.5512" x2="100.6081" y2="47.4863">
			<stop  offset="0.016" style="stop-color:#FFC2A9"/>
			<stop  offset="1" style="stop-color:#FF9595"/>
		</linearGradient>
		<path class="st54" d="M105.76,52.71c0,0-2.05-5.15-7.21-5.23c0,0-3.02,1.19-3.49,3.49c0,0,1.11,8.33,2.38,12.22
			c1.27,3.89,5.93,3.33,5.93,3.33S107.42,60.32,105.76,52.71z"/>
		<linearGradient id="SVGID_48_" gradientUnits="userSpaceOnUse" x1="133.7026" y1="73.761" x2="134.502" y2="69.599">
			<stop  offset="0" style="stop-color:#E1616A"/>
			<stop  offset="1" style="stop-color:#FF8883"/>
		</linearGradient>
		<path class="st55" d="M125.58,69.68c0,0,1.72-0.13,2.46,0.42c0.74,0.56,3.44,3.17,6.85,3.89c3.41,0.71,5.7-2.19,6.43-2.34
			c0.73-0.15,1.53,0.88,1.53,0.88s-0.31-1.19-2.09-1.73c0,0-0.72,2.74-5.66,1.8c-4.95-0.94-7.05-3.13-7.05-3.13l-0.25-0.45
			C127.79,69.02,126.4,69.31,125.58,69.68z"/>
		<linearGradient id="SVGID_49_" gradientUnits="userSpaceOnUse" x1="126.487" y1="70.5764" x2="126.487" y2="28.919">
			<stop  offset="0" style="stop-color:#FFEADB"/>
			<stop  offset="0.9944" style="stop-color:#C27CB6"/>
		</linearGradient>
		<path style="opacity:0.6;fill:url(#SVGID_49_);" d="M118.28,44.06l0.07-0.53c0,0,4.93-8.66,14.69-8.89
			c9.76-0.24,11.96,5.88,11.96,5.88l1.81-2.74l-4.12-8.37l-28.68-0.48l-6.98,5.63l-0.88,13.79l3.1,18.21l7.55,4.03l2.13-1.89
			c-0.79-6.1-5.32-11.67-5.32-11.67l3.31-2.3c0,0,8.49,4.11,13.4,2.88c0,0,3.69-10.77,3.48-18.75
			C133.81,38.86,121.23,40.72,118.28,44.06z"/>
		<path class="st93" d="M117.85,44.7c0,0,0.48-3.12,5.74-4.37c5.86-1.39,10.63-2.56,10.63-2.56s-1.04,3.42-2.99,4.7
			c0,0-6.2-0.23-9.34,0.49C118.74,43.67,117.85,44.7,117.85,44.7z"/>
		<path class="st93" d="M145.01,40.51c0,0-2.98,2.29-5,7.77c0,0,1.94-2.54,3.73-2.5c1.22,0.03,1.03,1.24,1.03,1.24
			S145.98,43.74,145.01,40.51z"/>
		<linearGradient id="SVGID_50_" gradientUnits="userSpaceOnUse" x1="124.4567" y1="53.5168" x2="124.4567" y2="45.2647">
			<stop  offset="0" style="stop-color:#CF6074"/>
			<stop  offset="1" style="stop-color:#F37270"/>
		</linearGradient>
		<path class="st57" d="M119.81,53.52c0,0,0.32-6.59,6.74-8.25c0,0,2.3,2.98,2.54,6.35C129.1,51.61,125.69,50.98,119.81,53.52z"/>
		<linearGradient id="SVGID_51_" gradientUnits="userSpaceOnUse" x1="140.9165" y1="56.1353" x2="140.9165" y2="48.9543">
			<stop  offset="0" style="stop-color:#CF6074"/>
			<stop  offset="1" style="stop-color:#FF817F"/>
		</linearGradient>
		<path style="fill:url(#SVGID_51_);" d="M138.22,56.14c0,0,0.52-5.24,3.53-7.18c0,0,2.05,1.54,1.84,5.93
			C143.59,54.88,141.79,54.23,138.22,56.14z"/>
		<path class="st98" d="M119.81,53.52c0,0,2.09,2.57,7.93,3.07c0,0,1.11-1.69,1.01-5.01C128.76,51.57,123.39,51.06,119.81,53.52z"/>
		<path class="st98" d="M138.22,56.14v0.77c0,0,0.9,1.88,4.13,2.2c0,0,1.04-1.62,1.13-4.25C143.48,54.85,141.42,54.34,138.22,56.14z
			"/>
		<path class="st100" d="M126.06,51.44c0,0-1.48,1.8-1.35,4.65c0,0,1.94,0.46,3.04,0.5c0,0,1.28-1.78,1.01-5.01
			C128.76,51.57,127.06,51.21,126.06,51.44z"/>
		<path class="st100" d="M141.29,54.94c0,0-0.84,0.9-1,3.66c0,0,1.15,0.5,2.06,0.5c0,0,1.18-1.67,1.13-4.25
			C143.48,54.85,142.66,54.54,141.29,54.94z"/>
		<path class="st93" d="M125.58,56.28c0,0-0.53-3.56,1.51-4.92l1.67,0.21c0,0,0.55,2.82-1.01,5.01
			C127.75,56.58,126.09,56.4,125.58,56.28z"/>
		<path class="st93" d="M142.02,54.78c0,0-0.75,1.58-1.11,4.05c0,0,0.58,0.24,1.43,0.27c0,0,1.14-1.4,1.13-4.25
			C143.48,54.85,142.61,54.62,142.02,54.78z"/>
		<path class="st96" d="M119.81,53.52c0,0,3.89-2.26,10.51-0.97l-1.23-0.93C129.1,51.61,124.38,50.14,119.81,53.52z"/>
		<path class="st96" d="M138.22,56.14c0,0,3.12-1.66,6.75-0.78l-1.5-1.11C143.48,54.25,141.04,53.87,138.22,56.14z"/>
		<path class="st0" d="M124.02,53.52c0,0,1.06-0.23,2.01,0.73C126.03,54.25,124.73,54.63,124.02,53.52z"/>
		<path class="st0" d="M139.65,56.58c0,0,1.66-0.32,2.23,0.43C141.88,57.02,141,57.63,139.65,56.58z"/>
		<path class="st698" d="M120.21,53.9c0,0,3.02,2.99,7.86,3.7l0.12-1.76l-0.44,0.74C127.75,56.58,123.1,56.31,120.21,53.9z"/>
		<path class="st698" d="M138.22,56.9c0,0,0.54,1.93,4.47,2.8l-0.13-0.95l-0.22,0.34C142.35,59.1,139.55,58.74,138.22,56.9z"/>
		<path class="st699" d="M130.33,64.63c0,0,1.47-0.32,4.17,0c2.7,0.32,5.73,1.06,7.39,0c0,0-2.2,2.2-4.11,2.54
			c-1.91,0.33-4.81-1.34-4.81-1.34l-1.27,0.02C131.69,65.85,130.71,65.37,130.33,64.63z"/>
		<path class="st105" d="M131.88,65.84c0,0,0.66-0.42,1.22-0.32c0.56,0.11,1.12,0.91,1.12,0.91S133.04,65.82,131.88,65.84z"/>
		<path class="st700" d="M141.88,64.63c0.71-0.69-2.94-7.19-4.69-7.43c-1.75-0.24-3.39,7.29-3.39,7.29s2.43,0.34,4.78,0.66
			C140.94,65.46,141.88,64.63,141.88,64.63z"/>
		<linearGradient id="SVGID_52_" gradientUnits="userSpaceOnUse" x1="141.5923" y1="60.3138" x2="141.5923" y2="44.1546">
			<stop  offset="0" style="stop-color:#FFEADB"/>
			<stop  offset="0.9944" style="stop-color:#C27CB6"/>
		</linearGradient>
		<path style="opacity:0.6;fill:url(#SVGID_52_);" d="M144.49,44.16c-0.99-0.13-4.48,4.12-4.48,4.12s-2.22,6.88-1.78,8.91
			c0.44,2.04,5.83,3.12,5.83,3.12l0.23-0.36v-0.01c-0.28-0.64-0.51-1.32-0.66-2.06c-0.43-2.11,0.49-6.93,1.15-10.87
			c0,0,0.22-0.81,0.24-1.57C145.04,44.81,144.94,44.21,144.49,44.16z"/>
		<linearGradient id="SVGID_53_" gradientUnits="userSpaceOnUse" x1="125.5807" y1="93.4585" x2="125.5807" y2="15.0395">
			<stop  offset="0" style="stop-color:#2E33A0"/>
			<stop  offset="1" style="stop-color:#0665A5"/>
		</linearGradient>
		<path style="fill:url(#SVGID_53_);" d="M149.56,32.66c0,0-0.01-0.04-0.04-0.13c-0.91-2.22-3.05-5.23-3.76-6.23
			c-0.05-0.08-0.11-0.14-0.14-0.2c-0.02-0.03-0.05-0.07-0.08-0.1c0-0.01-0.01-0.01-0.01-0.02h-0.01c0,0-0.52-5-1.99-6.9
			c0,0-0.03-0.04-0.1-0.12c-0.26-0.28-0.52-0.48-0.83-0.56c-0.09-0.02-0.17-0.03-0.26-0.03c-1.41,0-5.56,0.81-8.71,1.46
			c-0.33,0.08-0.64,0.14-0.95,0.21c-0.08,0.01-0.14,0.02-0.22,0.04c-0.21,0.04-0.39,0.08-0.58,0.12c-1.06,0.23-1.81,0.4-2.02,0.45
			c-0.02,0.01-0.03,0.01-0.05,0.01c1.11-2.61,0.95-5.63,0.95-5.63s-0.02,0.01-0.04,0.03c-3.31,2.98-6.55,3.31-11.14,5.43
			c-2.32,1.08-3.41,2.08-4.3,3.11l-0.31,0.37l-0.33,0.39c-0.19,0.23-0.37,0.47-0.57,0.71c-0.01,0.01-0.02,0.01-0.03,0.03
			c-0.13,0.16-0.28,0.33-0.44,0.49c-0.19,0.19-0.36,0.37-0.52,0.54c-0.17,0.16-0.34,0.32-0.5,0.46c-0.11,0.1-0.21,0.19-0.32,0.27
			c-0.2,0.16-0.38,0.32-0.57,0.44c-0.03,0.03-0.07,0.05-0.1,0.07c-0.37,0.25-0.78,0.5-1.2,0.74c-0.01,0.01-0.02,0.01-0.02,0.01
			c-3.3,1.85-7.96,3.34-8.62,5.49c-0.13,0.44-0.2,0.91-0.2,1.41c-0.01,2.39,1.37,5.34,2.16,8.37c0.9,3.46,0.55,6.55,0.5,6.86
			c0,0,0,0,0,0.01c0,0.01,0,0.01,0,0.01s0,0,0.01,0.01c0.09,0.13,0.78,1.06,1.37,2.59c0.08,0.17,0.14,0.35,0.21,0.55
			c0.07,0.19,0.12,0.38,0.19,0.59c0,0,0,0,0,0.01c0,0.01,0,0.01,0,0.02c0,0.01,0.01,0.02,0.01,0.03c0.03,0.1,0.05,0.2,0.09,0.31
			c0.03,0.12,0.07,0.24,0.1,0.37c0.05,0.23,0.11,0.47,0.14,0.72c0.04,0.21,0.08,0.42,0.1,0.63c0.03,0.2,0.05,0.39,0.07,0.6
			c0.01,0.03,0.01,0.07,0.01,0.1c0.01,0.13,0.02,0.27,0.02,0.42c0.02,0.22,0.02,0.44,0.02,0.67c0,0.22-0.01,0.44-0.02,0.67
			c-0.02,0.56-0.08,1.14-0.19,1.74c-0.11,0.62-0.23,1.19-0.37,1.69c-0.02,0.1-0.04,0.2-0.08,0.28c-0.19,0.66-0.39,1.21-0.6,1.69
			c-0.04,0.11-0.09,0.22-0.14,0.32c-0.05,0.11-0.11,0.22-0.16,0.33c-0.2,0.38-0.4,0.69-0.59,0.93c-0.07,0.09-0.12,0.16-0.19,0.23
			c-0.11,0.14-0.22,0.26-0.33,0.35c-0.04,0.04-0.09,0.08-0.12,0.11c-0.19,0.16-0.32,0.24-0.37,0.26c-0.01,0-0.01,0.01-0.01,0.01
			c-0.01,0-0.01,0-0.01,0v0.01h-0.01c0,0.01,0,0.01,0,0.02c-0.19,0.37-0.33,0.73-0.44,1.09c-0.04,0.1-0.07,0.21-0.1,0.31
			c-0.01,0.03-0.02,0.07-0.02,0.09c-0.04,0.14-0.09,0.29-0.11,0.44c-0.04,0.16-0.08,0.33-0.1,0.49c-0.02,0.13-0.04,0.25-0.05,0.37
			c-0.02,0.12-0.03,0.24-0.04,0.35c-0.01,0.14-0.02,0.26-0.03,0.39c-0.05,1.27,0.15,2.13,0.15,2.13
			c2.93,11.66,15.06,18.6,15.06,18.6c0.32,0.12,0.62,0.23,0.93,0.34c0.03,0.02,0.08,0.03,0.11,0.04h0.03
			c0.8,0.27,1.56,0.52,2.32,0.74c0.07,0.01,0.13,0.03,0.2,0.05c0.17,0.04,0.36,0.1,0.54,0.14c0.12,0.03,0.24,0.07,0.35,0.1
			c0.13,0.03,0.26,0.07,0.39,0.1c0.16,0.03,0.31,0.08,0.46,0.11c0.24,0.05,0.47,0.11,0.71,0.16c0.26,0.07,0.52,0.12,0.78,0.16
			c0.24,0.05,0.48,0.1,0.72,0.13c0.15,0.02,0.31,0.05,0.46,0.08c0.17,0.03,0.36,0.07,0.54,0.09c0.03,0.01,0.08,0.01,0.12,0.02
			c0.23,0.03,0.45,0.07,0.68,0.09c0,0,0.01,0,0.02,0c0.03,0.01,0.08,0.01,0.11,0.02c0.08,0.01,0.14,0.02,0.21,0.02
			c0.14,0.01,0.27,0.03,0.4,0.04c0.02,0,0.03,0,0.04,0.01c0.07,0,0.12,0,0.19,0.01c0.45,0.04,0.88,0.08,1.31,0.11
			c0.03,0.01,0.07,0.01,0.09,0.01c0.21,0.01,0.4,0.02,0.6,0.02c0.13,0.01,0.25,0.02,0.38,0.02c0.51,0.01,0.99,0.02,1.44,0.01
			c0.33,0,0.63-0.01,0.91-0.02c0.42-0.02,0.79-0.05,1.1-0.1c0.23-0.02,0.44-0.04,0.62-0.07c0-0.01,0.01-0.01,0.02,0
			c0.27-0.03,0.49-0.07,0.67-0.1c0.11-0.02,0.21-0.04,0.28-0.05c0.04,0,0.07-0.01,0.09-0.01v-0.01h0.03
			c0.03-0.01,0.04-0.01,0.04-0.01c0.01-0.01,0.01-0.01,0.01-0.02l0.02-0.01c7.46-4.9,10.25-20.47,10.6-22.6
			c0.01-0.03,0.01-0.07,0.01-0.1c0-0.03,0.01-0.05,0.01-0.08c0.01-0.01,0.01-0.03,0.01-0.04c-0.13,0.2-1.43,2.21-1.82,1.94
			l-0.01-0.01c-0.02-0.02-0.04-0.04-0.05-0.08c-0.36-0.76-0.54-1.41-0.94-1.98c-0.07-0.09-0.13-0.16-0.2-0.24
			c-0.02-0.03-0.05-0.07-0.09-0.09c-0.95-0.99-3-1.75-8.88-2.51c-9.98-1.31-13.31,0.56-15.28,1.42c-0.73,0.32-1.28,0.5-1.91,0.33
			c-0.08-0.02-0.17-0.05-0.27-0.1c-2.52-0.98-8.46-6.82-8.61-14.68c-0.16-8.18,5.32-13.97,5.32-13.97c-0.08-0.07-0.14-0.13-0.21-0.2
			c-0.07-0.05-0.14-0.13-0.21-0.22c-0.13-0.15-0.25-0.32-0.37-0.5c-0.09-0.13-0.16-0.26-0.24-0.4c-0.09-0.16-0.17-0.34-0.24-0.51
			c0,0-0.01,0,0-0.01c-0.1-0.23-0.2-0.48-0.27-0.73c-0.03-0.11-0.07-0.22-0.1-0.33c-0.03-0.12-0.07-0.24-0.09-0.36
			c-0.03-0.12-0.05-0.23-0.07-0.35c-0.03-0.23-0.07-0.45-0.09-0.69c-0.02-0.22-0.03-0.45-0.03-0.67c0-0.7,0.1-1.38,0.31-2
			c0.04-0.15,0.1-0.31,0.17-0.45c0.2-0.44,0.46-0.82,0.8-1.15c2.14-2.06,5.79-1.58,14.75-0.64c8.98,0.96,8.98,0.4,8.98,0.4
			c2.84,0.73,4.48,3.4,4.94,4.26c0.09,0.16,0.13,0.26,0.13,0.26l1.11-1.03c0.25,0.37,0.49,0.74,0.69,1.11
			c0.07,0.13,0.13,0.25,0.2,0.37c0.11,0.2,0.21,0.4,0.29,0.6c0.09,0.19,0.16,0.36,0.23,0.54c0.1,0.22,0.17,0.45,0.25,0.67
			c0.07,0.19,0.13,0.37,0.19,0.56c0.05,0.19,0.11,0.37,0.15,0.55c0.05,0.19,0.1,0.36,0.13,0.54c0.05,0.21,0.1,0.42,0.13,0.62
			c0.01,0.01,0,0.01,0,0.01c0.01,0.07,0.02,0.13,0.04,0.2c0.03,0.24,0.07,0.48,0.1,0.71c0.01,0.1,0.02,0.2,0.03,0.29
			c0.04,0.43,0.05,0.8,0.07,1.13c0.01,0.38,0,0.7-0.01,0.91v0.08c0,0.02,0,0.05-0.01,0.07c0,0.12-0.01,0.19-0.01,0.19
			s0.04-0.1,0.14-0.28c0-0.01,0.01-0.01,0.02-0.02v-0.03c0.29-0.6,0.93-1.93,1.63-3.48c0.12-0.26,0.24-0.54,0.36-0.81
			c0.36-0.82,0.72-1.67,1.04-2.48c0.12-0.32,0.24-0.62,0.35-0.92c0.26-0.67,0.48-1.3,0.62-1.84c0.03-0.11,0.05-0.21,0.08-0.31
			C149.61,33.33,149.65,32.88,149.56,32.66z M121.47,73.67c0.78-2.21,2.59-3.38,4.12-3.99c0.09-0.04,0.16-0.08,0.25-0.11
			c0.09-0.03,0.17-0.07,0.26-0.09c0.16-0.07,0.33-0.11,0.49-0.16c0.54-0.15,0.97-0.23,1.22-0.27c0.14-0.02,0.23-0.03,0.23-0.03
			s2.64,2.22,6.61,2.48c3.97,0.26,5.4-0.47,5.87-0.68c0.05-0.02,0.13-0.03,0.23-0.01c0.01,0,0.01,0,0.02,0s0.01,0,0.02,0
			c0.2,0.03,0.47,0.13,0.75,0.32c0.02,0.01,0.05,0.03,0.09,0.05c0.4,0.27,0.83,0.69,1.19,1.29c0,0.01,0.01,0.01,0.01,0.02v0.02
			c0.4,0.7,0.68,1.64,0.66,2.85c-0.04,2.5-2.09,7.83-4,7.52c-1.9-0.32-2.31-5.13-2.93-5.77c-0.64-0.63-4.09-0.37-4.09-0.37
			s-3.17,3.6-4.44,3.7C126.77,80.55,120,77.79,121.47,73.67z"/>
		<path class="st703" d="M139,58.64c0,0,3.42,4.25,3.09,5.84c-0.36,1.75-4.32,2.68-4.32,2.68s3.18-1.1,3.83-2.68
			C141.6,64.48,140.78,61.27,139,58.64z"/>
		<linearGradient id="SVGID_54_" gradientUnits="userSpaceOnUse" x1="146.1806" y1="44.0736" x2="146.1806" y2="25.9824">
			<stop  offset="0" style="stop-color:#FFEADB"/>
			<stop  offset="0.9944" style="stop-color:#8860C7"/>
		</linearGradient>
		<path style="opacity:0.6;fill:url(#SVGID_54_);" d="M145.21,44.07c0,0,0.55-4.76-2.46-9.12c2.42-4.32,2.77-8.97,2.77-8.97
			l0.01,0.01c0.82,2.02,1.29,5.95,1.29,5.95l2.75,0.72C150.13,34.07,145.21,44.07,145.21,44.07z"/>
		<linearGradient id="SVGID_55_" gradientUnits="userSpaceOnUse" x1="121.5274" y1="93.4583" x2="121.5274" y2="15.0354">
			<stop  offset="0" style="stop-color:#CCC2DB"/>
			<stop  offset="0.9944" style="stop-color:#8860C7"/>
		</linearGradient>
		<path style="opacity:0.6;fill:url(#SVGID_55_);" d="M141.5,35.71c-0.46-0.85-2.09-3.53-4.94-4.25c0,0,0,0.55-8.97-0.4
			c-8.96-0.95-12.61-1.42-14.76,0.64c-2.14,2.07-1.35,6.9,0.64,8.57c0,0-5.48,5.8-5.32,13.97c0.15,7.86,6.09,13.7,8.61,14.68
			l-0.12,0.87c0,0,0.44,18.01,4.82,19.44c4.37,1.42,13.45,0.69,14.3,1.53c0.8,0.8-0.12,2.19-0.2,2.31
			c-0.01,0.01-0.01,0.01-0.01,0.01s-7.09,1.75-17.88-2.27c0,0-12.13-6.94-15.06-18.6c0,0-0.68-2.75,0.75-5.69
			c0,0,2.04-0.87,2.96-6.21c1.05-5.96-2.11-10.03-2.11-10.03s0.44-3.22-0.51-6.88c-0.95-3.65-2.76-7.19-1.96-9.78
			c5.08,0.8,8.41-1.85,8.41-1.85s0.89-1.23,4.82-1.87c3.93-0.64,19.72,0.95,19.72,0.95s-1.58-1.31-4.92-2.19
			c-3.15-0.83-13.9,0.13-15.06,0.23c1.23-0.22,13.43-2.31,14.82-1.89c1.47,0.44,6.75,2.86,6.75,2.86c-0.48-2.42-5.2-8.25-5.2-8.25
			s-6.67,0.12-11.03,1.03c-3.89,0.81-6.03,2.6-6.45,2.96l1.04-1.23l0.33-0.39l0.31-0.37l1.52-0.26l7.66-3.09
			c2.57-1.37,5.86-4.77,6.26-5.19c0.03-0.03,0.04-0.04,0.04-0.04s0.16,3.02-0.95,5.63c6.47-0.8,8.65-0.39,8.65-0.39
			C141.4,24.43,141.5,35.71,141.5,35.71z"/>
		<linearGradient id="SVGID_56_" gradientUnits="userSpaceOnUse" x1="126.7859" y1="93.4397" x2="126.7859" y2="90.0703">
			<stop  offset="0" style="stop-color:#776D7E"/>
			<stop  offset="1" style="stop-color:#9D68C2"/>
		</linearGradient>
		<path style="opacity:0.5;fill:url(#SVGID_56_);" d="M117.67,90.81c0,0,3.96-0.94,9.95-0.7c5.98,0.24,9.42,0.27,7.94,2.97
			C135.55,93.08,128.04,94.78,117.67,90.81z"/>
		<linearGradient id="SVGID_57_" gradientUnits="userSpaceOnUse" x1="136.6711" y1="20.6638" x2="136.6711" y2="18.1607">
			<stop  offset="0" style="stop-color:#1F77D1"/>
			<stop  offset="1" style="stop-color:#0686C9"/>
		</linearGradient>
		<path class="st64" d="M138.46,20.27c0,0,3.64-1.42,5.07-1.19c0,0-0.57-0.76-1.16-0.92c-0.6-0.16-12.56,2.5-12.56,2.5
			S137.27,19.79,138.46,20.27z"/>
		<linearGradient id="SVGID_58_" gradientUnits="userSpaceOnUse" x1="120.7246" y1="28.9054" x2="120.7246" y2="21.5043">
			<stop  offset="0" style="stop-color:#1F77D1"/>
			<stop  offset="1" style="stop-color:#0686C9"/>
		</linearGradient>
		<path class="st65" d="M131.08,21.62c0,0-0.29,3.96-1.55,5.39l-14.82,1.89l-4.35-0.77c0,0,1.68-0.72,3.53-2.88
			C115.75,23.1,125.41,20.98,131.08,21.62z"/>
		<linearGradient id="SVGID_59_" gradientUnits="userSpaceOnUse" x1="147.5444" y1="32.6577" x2="147.5444" y2="25.9824">
			<stop  offset="0" style="stop-color:#1F77D1"/>
			<stop  offset="1" style="stop-color:#0686C9"/>
		</linearGradient>
		<path style="fill:url(#SVGID_59_);" d="M145.52,25.98c0,0,1.21,3.89,1.3,5.95l2.75,0.72C149.57,32.66,148.73,29.71,145.52,25.98z"
			/>
		<linearGradient id="SVGID_60_" gradientUnits="userSpaceOnUse" x1="103.3846" y1="62.0327" x2="94.8451" y2="51.5707">
			<stop  offset="0" style="stop-color:#FFEADB"/>
			<stop  offset="0.9944" style="stop-color:#B060F4"/>
		</linearGradient>
		<path style="opacity:0.8;fill:url(#SVGID_60_);" d="M105.15,59.71c0,0-1.04-5-3.6-7.47c-2.55-2.47-5.46-1.68-5.46-1.68
			s0.79,9.27,1.63,11.53c0.83,2.26,2.1,2.86,2.1,2.86s-1.79-1.56-2.02-4.63c-0.24-3.07-0.32-7.39,0.36-7.91
			c0.67-0.52,3.4,1.5,3.4,1.5s-0.86,1.05-1.38,3.79c-0.52,2.73,1.39,4.72,2.1,4.68c0.71-0.04-0.04-3.16,0.08-4.06
			C102.48,57.4,104.06,57.6,105.15,59.71z"/>
		<linearGradient id="SVGID_61_" gradientUnits="userSpaceOnUse" x1="104.2786" y1="60.6851" x2="100.0769" y2="55.5375">
			<stop  offset="0" style="stop-color:#FFEADB"/>
			<stop  offset="0.9944" style="stop-color:#B060F4"/>
		</linearGradient>
		<path style="opacity:0.8;fill:url(#SVGID_61_);" d="M102.6,53.49c0,0-2.79,1.83-2.49,5.59c0.3,3.76,2.45,3.59,2.46,2.8
			c0.01-0.79-0.41-2.82-0.19-3.97c0.22-1.15,2.07-0.63,2.07-0.63S103.23,54.31,102.6,53.49z"/>
		<path class="st147" d="M146.22,70.23c0,0-3.47,15.81-10.66,22.85C135.55,93.08,143.76,89.85,146.22,70.23z"/>
		<path class="st147" d="M142.37,18.17c0,0,1.83,1.42,2.18,6.36c0.35,4.94-1.8,10.42-1.8,10.42s2.75-4.1,3.01-8.6
			C146.03,21.86,143.82,18.74,142.37,18.17z"/>
	</g>
	<linearGradient id="SVGID_62_" gradientUnits="userSpaceOnUse" x1="120.2301" y1="29.5674" x2="134.6921" y2="29.5674">
		<stop  offset="0" style="stop-color:#1F77D1"/>
		<stop  offset="1" style="stop-color:#0686C9"/>
	</linearGradient>
	<path class="st69" d="M120.23,28.51c0,0,4.23,1.44,8.87,1.85c4.64,0.41,5.59,0.5,5.59,0.5s-1.86-1.81-5.84-2.35
		C124.88,27.97,120.23,28.51,120.23,28.51z"/>
	<linearGradient id="SVGID_63_" gradientUnits="userSpaceOnUse" x1="140.6282" y1="72.8174" x2="145.0146" y2="72.8174">
		<stop  offset="0" style="stop-color:#1F77D1"/>
		<stop  offset="1" style="stop-color:#0686C9"/>
	</linearGradient>
	<path class="st70" d="M140.67,70.58c0,0,2.02,0,2.82,2.54c0.64,2.02,0.81,3.77,0.81,3.77l0.72-2.78c0,0-0.93-3.52-1.91-4.32
		c-0.7-0.57-1.91-1.15-2.48-1.01L140.67,70.58z"/>
	<linearGradient id="SVGID_64_" gradientUnits="userSpaceOnUse" x1="135.2127" y1="69.5558" x2="139.9438" y2="69.5558">
		<stop  offset="0" style="stop-color:#1F77D1"/>
		<stop  offset="1" style="stop-color:#0686C9"/>
	</linearGradient>
	<path class="st71" d="M135.21,68.04l0.34,3.02c0,0,2.47,0.2,4.1-0.48l0.29-1.82C139.94,68.75,136.8,67.96,135.21,68.04z"/>
	<path class="st147" d="M146.46,107.01c0,0,14.43,10.54,16.3,14.16c1.87,3.62,2.63,14.99,5.16,19.91c0,0-1.73-8.05-2.95-14.36
		c-1.21-6.31-0.92-6.4-1.6-7.95C162.71,117.23,151.93,109.76,146.46,107.01z"/>
	<path class="st147" d="M143.87,165.67c0,0-6.96,29.77-6.64,31.78c0.32,2.01,4.82,6.11,5.03,7.24c0,0-3.44,4.61-3.28,5.63
		c0.16,1.02,6.03,7.47,5.87,9.47c-0.05,0.58-3.85,6.86-3.85,6.86s4.3-6.18,4.52-7.16c0.21-0.98-5.27-9.23-5.43-10.07
		c-0.42-2.17,2.74-3.77,2.84-5.19c0.11-1.43-4.27-4.92-4.3-7.25S143.87,165.67,143.87,165.67z"/>
	<path class="st147" d="M160.55,280c0.39-0.07,0.79-0.14,1.18-0.22c-0.76-3.31-1.69-6.86-2.82-10.59
		c-2.98-9.93-7.31-21.15-13.62-32.53c0.01,0.03,0.04,0.1,0.09,0.2c0.8,1.84,6.42,14.96,11.74,32.38c1.06,3.45,2.11,7.08,3.1,10.83
		L160.55,280z"/>
	<path class="st700" d="M49.96,100.17c0,0-3.89-0.83-5.5-4.22c-1.61-3.39-0.56-8.31-0.56-8.31s3.05,5.84,4.56,7.84
		C49.98,97.48,50.39,99.75,49.96,100.17z"/>
	<g>
		<path class="st715" d="M169.99,82.43l2.7,76.88c0.11,3.05,2.61,5.47,5.66,5.47H310.8c3.08,0,5.59-2.45,5.66-5.53l1.85-77.78
			c0.08-3.2-2.5-5.82-5.7-5.8l-136.99,0.9C172.43,76.59,169.88,79.24,169.99,82.43z"/>
		<g>
			<path class="st320" d="M316.84,77.21c-1.13-1.14-2.63-1.75-4.23-1.75l-136.99,0.9c-1.61,0.01-3.09,0.66-4.21,1.8
				c-0.24,0.25-0.45,0.51-0.62,0.79c-0.7,1.03-1.05,2.23-1.01,3.48l2.28,65.08l0.02,0.5v0.13l0.16,4.71v0.01l0.01,0.37v0.01
				l0.08,2.16v0.01l0.14,3.9c0.08,2.11,1.23,3.92,2.94,4.89c0.62,0.36,1.32,0.61,2.08,0.71c0.27,0.04,0.56,0.07,0.85,0.07H310.8
				c3.22,0,5.8-2.51,5.88-5.74l1.85-77.78C318.56,79.86,317.96,78.36,316.84,77.21z M318.1,81.46l-0.12,4.88l-1.74,72.9
				c-0.07,2.94-2.51,5.33-5.45,5.33H178.35c-0.28,0-0.56-0.02-0.83-0.07c-0.76-0.11-1.47-0.38-2.1-0.79
				c-1.46-0.93-2.46-2.55-2.52-4.41l-0.15-4.25l-0.08-2.26l-0.01-0.37l-0.16-4.63v-0.11l-2.15-61.34l-0.14-3.92
				c-0.04-1.19,0.29-2.33,0.95-3.28c0.17-0.24,0.36-0.47,0.57-0.69c0.86-0.91,2-1.47,3.22-1.63c0.01-0.01,0.02-0.01,0.03-0.01
				c0.22-0.03,0.43-0.04,0.64-0.04l21.72-0.14l115.27-0.75h0.04c0.96,0,1.89,0.25,2.71,0.72c0.08,0.03,0.16,0.09,0.24,0.14
				c0.04,0.03,0.08,0.05,0.11,0.08c0.29,0.2,0.58,0.43,0.83,0.69C317.58,78.56,318.14,79.97,318.1,81.46z"/>
		</g>
		<linearGradient id="SVGID_65_" gradientUnits="userSpaceOnUse" x1="170.1089" y1="81.0318" x2="318.4055" y2="81.0318">
			<stop  offset="0" style="stop-color:#9D68C2"/>
			<stop  offset="1" style="stop-color:#AEC2FF"/>
		</linearGradient>
		<path style="opacity:0.6;fill:url(#SVGID_65_);" d="M170.19,86.35h147.97l0.24-4.05c0.21-3.59-2.66-6.6-6.25-6.57L175.21,76.8
			c-2.86,0.02-5.15,2.38-5.1,5.23L170.19,86.35z"/>
		<linearGradient id="SVGID_66_" gradientUnits="userSpaceOnUse" x1="200.2762" y1="137.0421" x2="200.2762" y2="92.3146">
			<stop  offset="0" style="stop-color:#CCEDFF"/>
			<stop  offset="1" style="stop-color:#9D68C2"/>
		</linearGradient>
		<polygon style="opacity:0.3;fill:url(#SVGID_66_);" points="177.63,92.55 177.63,137.04 222.92,137.04 222.92,92.31 		"/>
		<linearGradient id="SVGID_67_" gradientUnits="userSpaceOnUse" x1="276.5431" y1="115.2353" x2="276.5431" y2="95.5338">
			<stop  offset="0" style="stop-color:#CCEDFF"/>
			<stop  offset="1" style="stop-color:#9D68C2"/>
		</linearGradient>
		<rect x="266.69" y="95.53" style="opacity:0.3;fill:url(#SVGID_67_);" width="19.7" height="19.7"/>
		<linearGradient id="SVGID_68_" gradientUnits="userSpaceOnUse" x1="299.7882" y1="115.2353" x2="299.7882" y2="95.5338">
			<stop  offset="0" style="stop-color:#CCEDFF"/>
			<stop  offset="1" style="stop-color:#9D68C2"/>
		</linearGradient>
		<rect x="289.94" y="95.53" style="opacity:0.3;fill:url(#SVGID_68_);" width="19.7" height="19.7"/>
		<linearGradient id="SVGID_69_" gradientUnits="userSpaceOnUse" x1="252.9096" y1="115.2353" x2="252.9096" y2="95.5338">
			<stop  offset="0" style="stop-color:#CCEDFF"/>
			<stop  offset="1" style="stop-color:#9D68C2"/>
		</linearGradient>
		<rect x="243.06" y="95.53" style="opacity:0.3;fill:url(#SVGID_69_);" width="19.7" height="19.7"/>
		<rect x="259.26" y="126.72" class="st721" width="50.38" height="4.72"/>
		<rect x="246.66" y="133.9" class="st721" width="62.98" height="1.46"/>
		<rect x="247.25" y="117.75" class="st721" width="12.05" height="1.46"/>
		<rect x="270.52" y="117.75" class="st721" width="12.05" height="1.46"/>
		<rect x="293.76" y="117.75" class="st721" width="12.05" height="1.46"/>
		<rect x="243.06" y="136.28" class="st721" width="20.26" height="1.46"/>
		<rect x="246.66" y="138.62" class="st721" width="62.98" height="1.46"/>
		<rect x="243.06" y="140.97" class="st721" width="66.58" height="1.46"/>
		<rect x="243.06" y="143.32" class="st721" width="66.58" height="1.46"/>
		<rect x="246.66" y="152.8" class="st721" width="62.98" height="1.46"/>
		<rect x="243.06" y="155.15" class="st721" width="66.58" height="1.46"/>
		<rect x="243.06" y="157.49" class="st721" width="66.58" height="1.46"/>
		<rect x="243.06" y="145.66" class="st721" width="63.9" height="1.46"/>
		<rect x="246.66" y="148.01" class="st721" width="62.98" height="1.46"/>
		<rect x="243.06" y="150.35" class="st721" width="53.94" height="1.46"/>
		<g>
			<path class="st722" d="M190.32,102.35c-6.36,0-11.65,4.62-12.69,10.68c-0.13,0.71-0.2,1.45-0.2,2.21c0,0.75,0.07,1.5,0.2,2.21
				c1.05,6.05,6.34,10.67,12.69,10.67c2.5,0,4.84-0.72,6.82-1.96c1.7-1.07,3.14-2.51,4.18-4.23c1.19-1.96,1.88-4.25,1.88-6.7
				C203.2,108.14,197.42,102.35,190.32,102.35z M200.69,121.34c-0.93,1.58-2.22,2.94-3.75,3.94c-1.9,1.27-4.17,2-6.62,2
				c-6.64,0-12.05-5.41-12.05-12.05c0-6.64,5.41-12.05,12.05-12.05s12.04,5.41,12.04,12.05
				C202.36,117.47,201.75,119.55,200.69,121.34z"/>
		</g>
		<circle class="st0" cx="190.32" cy="115.24" r="7"/>
		<g>
			<path class="st722" d="M234.35,86.34c-2.17-4.11-6.48-6.92-11.43-6.92c-4.95,0-9.25,2.81-11.42,6.92
				c-0.93,1.78-1.46,3.82-1.46,5.98v0.07c0,0.23,0.01,0.47,0.03,0.7c0.17,3.16,1.51,6.02,3.58,8.16c1.45,1.52,3.29,2.69,5.34,3.34
				c1.23,0.39,2.56,0.61,3.92,0.61c4.22,0,7.97-2.04,10.33-5.19c1.61-2.14,2.56-4.81,2.56-7.69
				C235.81,90.17,235.28,88.12,234.35,86.34z M232.44,99.69c-2.21,2.84-5.65,4.66-9.52,4.66c-1.21,0-2.38-0.17-3.48-0.51
				c-2.09-0.63-3.93-1.81-5.37-3.38c-1.78-1.93-2.93-4.42-3.15-7.19c-0.03-0.29-0.04-0.6-0.04-0.9v-0.07c0-2.17,0.58-4.22,1.59-5.98
				c2.08-3.63,5.99-6.07,10.45-6.07c4.47,0,8.38,2.45,10.45,6.07c1.02,1.76,1.59,3.8,1.59,5.98
				C234.97,95.09,234.02,97.65,232.44,99.69z"/>
		</g>
		
			<ellipse transform="matrix(0.1602 -0.9871 0.9871 0.1602 96.0913 297.571)" class="st0" cx="222.92" cy="92.31" rx="6.59" ry="6.59"/>
		<g>
			<polygon class="st0" points="175.38,80.31 176.32,78.88 181.41,83.34 180.63,84.43 			"/>
			<polygon class="st0" points="181.54,80.31 180.6,78.88 175.51,83.34 176.29,84.43 			"/>
		</g>
		<rect x="268.98" y="79.85" class="st0" width="45.6" height="2.29"/>
	</g>
	<g>
		<linearGradient id="SVGID_70_" gradientUnits="userSpaceOnUse" x1="41.0181" y1="66.8278" x2="41.0181" y2="46.2055">
			<stop  offset="0" style="stop-color:#D93DE3"/>
			<stop  offset="1" style="stop-color:#FF6DBA"/>
		</linearGradient>
		<polygon class="st77" points="29.03,46.84 29.03,66.63 52.69,66.83 53.01,46.21 		"/>
		<linearGradient id="SVGID_71_" gradientUnits="userSpaceOnUse" x1="53.6232" y1="66.8278" x2="53.6232" y2="46.2055">
			<stop  offset="0" style="stop-color:#A242EA"/>
			<stop  offset="1" style="stop-color:#FE117E"/>
		</linearGradient>
		<polygon class="st79" points="53.01,46.21 54.56,48.8 53.78,66.81 52.69,66.83 		"/>
		<polygon class="st0" points="33.25,53.52 35.44,50.35 47.26,60.26 45.44,62.68 		"/>
		<polygon class="st0" points="47.56,53.52 45.37,50.35 33.56,60.26 35.37,62.68 		"/>
	</g>
</g>
<path class="st725" d="M163.2,255.98c-0.1,0.03-0.2,0.05-0.3,0.06"/>
</svg>
