<?xml version="1.0" encoding="utf-8"?>
<!-- Generator: Adobe Illustrator 25.0.0, SVG Export Plug-In . SVG Version: 6.00 Build 0)  -->
<svg version="1.1" id="illustration" xmlns="http://www.w3.org/2000/svg" xmlns:xlink="http://www.w3.org/1999/xlink" x="0px"
	 y="0px" viewBox="0 0 324.83 296.54" style="enable-background:new 0 0 324.83 296.54;" xml:space="preserve">
<style type="text/css">
	.st0{fill:#FFFFFF;}
	.st1{fill:#E0F3FF;}
	.st2{opacity:0.5;fill:#E0F3FF;}
	.st3{opacity:0.5;fill:#FFFFFF;}
	.st4{fill:url(#SVGID_1_);}
	.st5{opacity:0.82;fill:url(#SVGID_2_);}
	.st6{fill:url(#SVGID_3_);}
	.st7{opacity:0.82;fill:url(#SVGID_4_);}
	.st8{fill:#047FC4;}
	.st9{opacity:0.5;fill:#047FC4;}
	.st10{fill:url(#SVGID_5_);}
	.st11{fill:url(#SVGID_6_);}
	.st12{fill:url(#SVGID_7_);}
	.st13{fill:url(#SVGID_8_);}
	.st14{fill:url(#SVGID_9_);}
	.st15{fill:url(#SVGID_10_);}
	.st16{fill:url(#SVGID_11_);}
	.st17{fill:#0C409A;}
	.st18{opacity:0.5;fill:#0C409A;}
	.st19{fill:url(#SVGID_12_);}
	.st20{fill:url(#SVGID_13_);}
	.st21{fill:url(#SVGID_14_);}
	.st22{fill:url(#SVGID_15_);}
	.st23{opacity:0.5;fill:url(#SVGID_16_);}
	.st24{fill:url(#SVGID_17_);}
	.st25{fill:url(#SVGID_18_);}
	.st26{opacity:0.5;fill:url(#SVGID_19_);}
	.st27{fill:url(#SVGID_20_);}
	.st28{fill:url(#SVGID_21_);}
	.st29{fill:url(#SVGID_22_);}
	.st30{fill:url(#SVGID_23_);}
	.st31{fill:url(#SVGID_24_);}
	.st32{fill:url(#SVGID_25_);}
	.st33{fill:url(#SVGID_26_);}
	.st34{fill:url(#SVGID_27_);}
	.st35{fill:url(#SVGID_28_);}
	.st36{fill:url(#SVGID_29_);}
	.st37{fill:url(#SVGID_30_);}
	.st38{fill:url(#SVGID_31_);}
	.st39{fill:url(#SVGID_32_);}
	.st40{fill:url(#SVGID_33_);}
	.st41{fill:url(#SVGID_34_);}
	.st42{fill:url(#SVGID_35_);}
	.st43{fill:url(#SVGID_36_);}
	.st44{opacity:0.5;fill:url(#SVGID_37_);}
	.st45{fill:url(#SVGID_38_);}
	.st46{fill:url(#SVGID_39_);}
	.st47{fill:url(#SVGID_40_);}
	.st48{fill:url(#SVGID_41_);}
	.st49{fill:url(#SVGID_42_);}
	.st50{fill:url(#SVGID_43_);}
	.st51{fill:url(#SVGID_44_);}
	.st52{fill:url(#SVGID_45_);}
	.st53{fill:url(#SVGID_46_);}
	.st54{fill:url(#SVGID_47_);}
	.st55{fill:url(#SVGID_48_);}
	.st56{fill:url(#SVGID_49_);}
	.st57{fill:url(#SVGID_50_);}
	.st58{opacity:0.5;fill:url(#SVGID_51_);}
	.st59{fill:url(#SVGID_52_);}
	.st60{opacity:0.5;fill:url(#SVGID_53_);}
	.st61{opacity:0.5;fill:url(#SVGID_54_);}
	.st62{opacity:0.5;fill:url(#SVGID_55_);}
	.st63{fill:url(#SVGID_56_);}
	.st64{fill:url(#SVGID_57_);}
	.st65{fill:url(#SVGID_58_);}
	.st66{opacity:0.5;fill:url(#SVGID_59_);}
	.st67{fill:url(#SVGID_60_);}
	.st68{fill:url(#SVGID_61_);}
	.st69{fill:url(#SVGID_62_);}
	.st70{fill:url(#SVGID_63_);}
	.st71{fill:url(#SVGID_64_);}
	.st72{fill:url(#SVGID_65_);}
	.st73{fill:url(#SVGID_66_);}
	.st74{fill:url(#SVGID_67_);}
	.st75{fill:url(#SVGID_68_);}
	.st76{fill:url(#SVGID_69_);}
	.st77{fill:url(#SVGID_70_);}
	.st78{fill:#FE9083;}
	.st79{fill:url(#SVGID_71_);}
	.st80{fill:url(#SVGID_72_);}
	.st81{fill:url(#SVGID_73_);}
	.st82{fill:url(#SVGID_74_);}
	.st83{fill:url(#SVGID_75_);}
	.st84{fill:url(#SVGID_76_);}
	.st85{fill:url(#SVGID_77_);}
	.st86{fill:url(#SVGID_78_);}
	.st87{opacity:0.5;fill:url(#SVGID_79_);}
	.st88{fill:url(#SVGID_80_);}
	.st89{fill:url(#SVGID_81_);}
	.st90{fill:url(#SVGID_82_);}
	.st91{fill:url(#SVGID_83_);}
	.st92{fill:url(#SVGID_84_);}
	.st93{fill:#38368E;}
	.st94{fill:url(#SVGID_85_);}
	.st95{fill:url(#SVGID_86_);}
	.st96{fill:#131163;}
	.st97{fill:url(#SVGID_87_);}
	.st98{fill:#FFEBED;}
	.st99{fill:url(#SVGID_88_);}
	.st100{fill:#7F9EC9;}
	.st101{fill:#CB4D7A;}
	.st102{fill:#E4688E;}
	.st103{fill:#FFC0A7;}
	.st104{fill:url(#SVGID_89_);}
	.st105{fill:#9F4A8B;}
	.st106{fill:url(#SVGID_90_);}
	.st107{opacity:0.39;fill:#A8485B;}
	.st108{fill:url(#SVGID_91_);}
	.st109{opacity:0.5;fill:url(#SVGID_92_);}
	.st110{opacity:0.5;fill:url(#SVGID_93_);}
	.st111{opacity:0.5;fill:url(#SVGID_94_);}
	.st112{fill:url(#SVGID_95_);}
	.st113{fill:url(#SVGID_96_);}
	.st114{opacity:0.5;fill:url(#SVGID_97_);}
	.st115{fill:url(#SVGID_98_);}
	.st116{fill:url(#SVGID_99_);}
	.st117{opacity:0.5;fill:url(#SVGID_100_);}
	.st118{opacity:0.5;fill:url(#SVGID_101_);}
	.st119{fill:url(#SVGID_102_);}
	.st120{fill:url(#SVGID_103_);}
	.st121{opacity:0.5;fill:url(#SVGID_104_);}
	.st122{opacity:0.5;fill:url(#SVGID_105_);}
	.st123{opacity:0.5;fill:url(#SVGID_106_);}
	.st124{opacity:0.5;fill:url(#SVGID_107_);}
	.st125{opacity:0.5;fill:url(#SVGID_108_);}
	.st126{opacity:0.3;fill:url(#SVGID_109_);}
	.st127{opacity:0.3;fill:url(#SVGID_110_);}
	.st128{opacity:0.3;fill:url(#SVGID_111_);}
	.st129{opacity:0.3;fill:url(#SVGID_112_);}
	.st130{opacity:0.5;fill:url(#SVGID_113_);}
	.st131{opacity:0.5;fill:url(#SVGID_114_);}
	.st132{opacity:0.3;fill:url(#SVGID_115_);}
	.st133{opacity:0.5;fill:url(#SVGID_116_);}
	.st134{fill:#FEB1A8;}
	.st135{fill:url(#SVGID_117_);}
	.st136{opacity:0.2;fill:#FF275E;}
	.st137{fill:url(#SVGID_118_);}
	.st138{fill:url(#SVGID_119_);}
	.st139{fill:url(#SVGID_120_);}
	.st140{fill:url(#SVGID_121_);}
	.st141{fill:url(#SVGID_122_);}
	.st142{fill:url(#SVGID_123_);}
	.st143{opacity:0.5;fill:#CFB4FF;}
	.st144{opacity:0.5;fill:#5990FF;}
	.st145{fill:url(#SVGID_124_);}
	.st146{fill:url(#SVGID_125_);}
	.st147{fill:#34C7FF;}
	.st148{opacity:0.5;fill:url(#SVGID_126_);}
	.st149{fill:url(#SVGID_127_);}
	.st150{opacity:0.82;fill:url(#SVGID_128_);}
	.st151{fill:url(#SVGID_129_);}
	.st152{opacity:0.3;fill:url(#SVGID_130_);}
	.st153{opacity:0.5;fill:url(#SVGID_131_);}
	.st154{fill:url(#SVGID_132_);}
	.st155{fill:url(#SVGID_133_);}
	.st156{fill:url(#SVGID_134_);}
	.st157{fill:url(#SVGID_135_);}
	.st158{fill:url(#SVGID_136_);}
	.st159{fill:url(#SVGID_137_);}
	.st160{fill:url(#SVGID_138_);}
	.st161{fill:url(#SVGID_139_);}
	.st162{fill:url(#SVGID_140_);}
	.st163{fill:url(#SVGID_141_);}
	.st164{fill:#FFB398;}
	.st165{fill:url(#SVGID_142_);}
	.st166{fill:url(#SVGID_143_);}
	.st167{fill:url(#SVGID_144_);}
	.st168{fill:url(#SVGID_145_);}
	.st169{opacity:0.5;fill:url(#SVGID_146_);}
	.st170{opacity:0.5;fill:url(#SVGID_147_);}
	.st171{opacity:0.5;fill:url(#SVGID_148_);}
	.st172{fill:url(#SVGID_149_);}
	.st173{fill:url(#SVGID_150_);}
	.st174{fill:url(#SVGID_151_);}
	.st175{fill:url(#SVGID_152_);}
	.st176{opacity:0.5;fill:url(#SVGID_153_);}
	.st177{opacity:0.5;fill:url(#SVGID_154_);}
	.st178{fill:url(#SVGID_155_);}
	.st179{fill:url(#SVGID_156_);}
	.st180{fill:url(#SVGID_157_);}
	.st181{opacity:0.5;fill:url(#SVGID_158_);}
	.st182{opacity:0.5;fill:url(#SVGID_159_);}
	.st183{fill:url(#SVGID_160_);}
	.st184{opacity:0.5;fill:url(#SVGID_161_);}
	.st185{fill:url(#SVGID_162_);}
	.st186{fill:url(#SVGID_163_);}
	.st187{fill:url(#SVGID_164_);}
	.st188{fill:url(#SVGID_165_);}
	.st189{fill:url(#SVGID_166_);}
	.st190{fill:url(#SVGID_167_);}
	.st191{opacity:0.5;fill:url(#SVGID_168_);}
	.st192{fill:url(#SVGID_169_);}
	.st193{fill:url(#SVGID_170_);}
	.st194{fill:url(#SVGID_171_);}
	.st195{fill:#6DFFE8;}
	.st196{opacity:0.5;fill:url(#SVGID_172_);}
	.st197{opacity:0.5;fill:url(#SVGID_173_);}
	.st198{fill:url(#SVGID_174_);}
	.st199{opacity:0.5;fill:url(#SVGID_175_);}
	.st200{opacity:0.5;fill:url(#SVGID_176_);}
	.st201{fill:#6446A6;}
	.st202{opacity:0.5;fill:url(#SVGID_177_);}
	.st203{fill:url(#SVGID_178_);}
	.st204{opacity:0.3;fill:url(#SVGID_179_);}
	.st205{opacity:0.3;fill:url(#SVGID_180_);}
	.st206{opacity:0.3;fill:url(#SVGID_181_);}
	.st207{opacity:0.5;fill:url(#SVGID_182_);}
	.st208{opacity:0.3;fill:url(#SVGID_183_);}
	.st209{opacity:0.5;fill:url(#SVGID_184_);}
	.st210{fill:url(#SVGID_185_);}
	.st211{fill:url(#SVGID_186_);}
	.st212{fill:url(#SVGID_187_);}
	.st213{fill:url(#SVGID_188_);}
	.st214{opacity:0.5;fill:url(#SVGID_189_);}
	.st215{fill:url(#SVGID_190_);}
	.st216{fill:url(#SVGID_191_);}
	.st217{opacity:0.5;fill:url(#SVGID_192_);}
	.st218{fill:url(#SVGID_193_);}
	.st219{fill:url(#SVGID_194_);}
	.st220{fill:url(#SVGID_195_);}
	.st221{fill:url(#SVGID_196_);}
	.st222{fill:url(#SVGID_197_);}
	.st223{fill:url(#SVGID_198_);}
	.st224{fill:url(#SVGID_199_);}
	.st225{fill:url(#SVGID_200_);}
	.st226{fill:url(#SVGID_201_);}
	.st227{fill:url(#SVGID_202_);}
	.st228{fill:url(#SVGID_203_);}
	.st229{fill:url(#SVGID_204_);}
	.st230{fill:url(#SVGID_205_);}
	.st231{fill:url(#SVGID_206_);}
	.st232{fill:url(#SVGID_207_);}
	.st233{fill:url(#SVGID_208_);}
	.st234{fill:url(#SVGID_209_);}
	.st235{opacity:0.5;fill:url(#SVGID_210_);}
	.st236{fill:url(#SVGID_211_);}
	.st237{fill:url(#SVGID_212_);}
	.st238{fill:url(#SVGID_213_);}
	.st239{fill:url(#SVGID_214_);}
	.st240{fill:url(#SVGID_215_);}
	.st241{fill:url(#SVGID_216_);}
	.st242{fill:url(#SVGID_217_);}
	.st243{fill:url(#SVGID_218_);}
	.st244{fill:url(#SVGID_219_);}
	.st245{fill:url(#SVGID_220_);}
	.st246{fill:url(#SVGID_221_);}
	.st247{fill:url(#SVGID_222_);}
	.st248{fill:url(#SVGID_223_);}
	.st249{opacity:0.5;fill:url(#SVGID_224_);}
	.st250{fill:url(#SVGID_225_);}
	.st251{opacity:0.5;fill:url(#SVGID_226_);}
	.st252{opacity:0.5;fill:url(#SVGID_227_);}
	.st253{opacity:0.5;fill:url(#SVGID_228_);}
	.st254{fill:url(#SVGID_229_);}
	.st255{fill:url(#SVGID_230_);}
	.st256{fill:url(#SVGID_231_);}
	.st257{opacity:0.5;fill:url(#SVGID_232_);}
	.st258{fill:url(#SVGID_233_);}
	.st259{fill:url(#SVGID_234_);}
	.st260{fill:url(#SVGID_235_);}
	.st261{fill:url(#SVGID_236_);}
	.st262{fill:url(#SVGID_237_);}
	.st263{fill:url(#SVGID_238_);}
	.st264{fill:url(#SVGID_239_);}
	.st265{opacity:0.4;}
	.st266{opacity:0.5;fill:#4723A9;}
	.st267{fill:url(#SVGID_240_);}
	.st268{opacity:0.5;fill:url(#SVGID_241_);}
	.st269{fill:url(#SVGID_242_);}
	.st270{fill:url(#SVGID_243_);}
	.st271{fill:url(#SVGID_244_);}
	.st272{fill:url(#SVGID_245_);}
	.st273{fill:url(#SVGID_246_);}
	.st274{fill:#D9187C;}
	.st275{opacity:0.5;fill:#D9187C;}
	.st276{fill:url(#SVGID_247_);}
	.st277{fill:url(#SVGID_248_);}
	.st278{fill:url(#SVGID_249_);}
	.st279{fill:#FF51AA;}
	.st280{fill:url(#SVGID_250_);}
	.st281{fill:url(#SVGID_251_);}
	.st282{fill:url(#SVGID_252_);}
	.st283{fill:url(#SVGID_253_);}
	.st284{fill:url(#SVGID_254_);}
	.st285{opacity:0.5;fill:url(#SVGID_255_);}
	.st286{fill:url(#SVGID_256_);}
	.st287{fill:url(#SVGID_257_);}
	.st288{fill:url(#SVGID_258_);}
	.st289{fill:url(#SVGID_259_);}
	.st290{fill:url(#SVGID_260_);}
	.st291{fill:url(#SVGID_261_);}
	.st292{opacity:0.76;fill:url(#SVGID_262_);}
	.st293{opacity:0.5;fill:url(#SVGID_263_);}
	.st294{fill:url(#SVGID_264_);}
	.st295{fill:url(#SVGID_265_);}
	.st296{fill:url(#SVGID_266_);}
	.st297{fill:url(#SVGID_267_);}
	.st298{opacity:0.5;fill:url(#SVGID_268_);}
	.st299{opacity:0.5;fill:url(#SVGID_269_);}
	.st300{opacity:0.5;fill:url(#SVGID_270_);}
	.st301{fill:url(#SVGID_271_);}
	.st302{fill:url(#SVGID_272_);}
	.st303{fill:#365EE0;}
	.st304{fill:url(#SVGID_273_);}
	.st305{opacity:0.5;fill:url(#SVGID_274_);}
	.st306{fill:url(#SVGID_275_);}
	.st307{fill:url(#SVGID_276_);}
	.st308{opacity:0.3;fill:url(#SVGID_277_);}
	.st309{opacity:0.5;fill:#FF7E70;}
	.st310{fill:#9A8EFE;}
	.st311{opacity:0.5;fill:#9A8EFE;}
	.st312{opacity:0.5;fill:#F9DBC2;}
	.st313{fill:url(#SVGID_278_);}
	.st314{fill:url(#SVGID_279_);}
	.st315{opacity:0.82;fill:url(#SVGID_280_);}
	.st316{fill:url(#SVGID_281_);}
	.st317{opacity:0.82;fill:url(#SVGID_282_);}
	.st318{fill:url(#SVGID_283_);}
	.st319{fill:#9B5ED7;}
	.st320{fill:#744CA2;}
	.st321{fill:url(#SVGID_284_);}
	.st322{fill:url(#SVGID_285_);}
	.st323{fill:#FEA297;}
	.st324{fill:url(#SVGID_286_);}
	.st325{fill:url(#SVGID_287_);}
	.st326{fill:url(#SVGID_288_);}
	.st327{fill:url(#SVGID_289_);}
	.st328{fill:url(#SVGID_290_);}
	.st329{opacity:0.5;fill:url(#SVGID_291_);}
	.st330{fill:url(#SVGID_292_);}
	.st331{fill:url(#SVGID_293_);}
	.st332{opacity:0.5;fill:url(#SVGID_294_);}
	.st333{fill:url(#SVGID_295_);}
	.st334{fill:url(#SVGID_296_);}
	.st335{fill:url(#SVGID_297_);}
	.st336{fill:url(#SVGID_298_);}
	.st337{fill:url(#SVGID_299_);}
	.st338{fill:url(#SVGID_300_);}
	.st339{fill:url(#SVGID_301_);}
	.st340{fill:url(#SVGID_302_);}
	.st341{fill:url(#SVGID_303_);}
	.st342{fill:url(#SVGID_304_);}
	.st343{fill:url(#SVGID_305_);}
	.st344{fill:url(#SVGID_306_);}
	.st345{fill:url(#SVGID_307_);}
	.st346{fill:url(#SVGID_308_);}
	.st347{fill:url(#SVGID_309_);}
	.st348{fill:url(#SVGID_310_);}
	.st349{fill:url(#SVGID_311_);}
	.st350{opacity:0.5;fill:url(#SVGID_312_);}
	.st351{fill:url(#SVGID_313_);}
	.st352{fill:url(#SVGID_314_);}
	.st353{fill:url(#SVGID_315_);}
	.st354{fill:url(#SVGID_316_);}
	.st355{fill:url(#SVGID_317_);}
	.st356{fill:url(#SVGID_318_);}
	.st357{fill:url(#SVGID_319_);}
	.st358{fill:url(#SVGID_320_);}
	.st359{fill:url(#SVGID_321_);}
	.st360{fill:url(#SVGID_322_);}
	.st361{fill:url(#SVGID_323_);}
	.st362{fill:url(#SVGID_324_);}
	.st363{fill:url(#SVGID_325_);}
	.st364{opacity:0.5;fill:url(#SVGID_326_);}
	.st365{fill:url(#SVGID_327_);}
	.st366{opacity:0.5;fill:url(#SVGID_328_);}
	.st367{opacity:0.5;fill:url(#SVGID_329_);}
	.st368{opacity:0.5;fill:url(#SVGID_330_);}
	.st369{fill:url(#SVGID_331_);}
	.st370{fill:url(#SVGID_332_);}
	.st371{fill:url(#SVGID_333_);}
	.st372{opacity:0.5;fill:url(#SVGID_334_);}
	.st373{fill:url(#SVGID_335_);}
	.st374{fill:url(#SVGID_336_);}
	.st375{fill:url(#SVGID_337_);}
	.st376{fill:url(#SVGID_338_);}
	.st377{fill:url(#SVGID_339_);}
	.st378{fill:url(#SVGID_340_);}
	.st379{fill:url(#SVGID_341_);}
	.st380{fill:url(#SVGID_342_);}
	.st381{fill:url(#SVGID_343_);}
	.st382{fill:url(#SVGID_344_);}
	.st383{fill:url(#SVGID_345_);}
	.st384{fill:url(#SVGID_346_);}
	.st385{fill:url(#SVGID_347_);}
	.st386{opacity:0.5;fill:url(#SVGID_348_);}
	.st387{fill:#36295C;}
	.st388{fill:url(#SVGID_349_);}
	.st389{fill:url(#SVGID_350_);}
	.st390{fill:url(#SVGID_351_);}
	.st391{fill:url(#SVGID_352_);}
	.st392{fill:url(#SVGID_353_);}
	.st393{fill:url(#SVGID_354_);}
	.st394{fill:url(#SVGID_355_);}
	.st395{fill:url(#SVGID_356_);}
	.st396{fill:url(#SVGID_357_);}
	.st397{fill:url(#SVGID_358_);}
	.st398{opacity:0.5;fill:url(#SVGID_359_);}
	.st399{opacity:0.5;fill:url(#SVGID_360_);}
	.st400{fill:url(#SVGID_361_);}
	.st401{fill:url(#SVGID_362_);}
	.st402{fill:url(#SVGID_363_);}
	.st403{fill:url(#SVGID_364_);}
	.st404{opacity:0.5;fill:url(#SVGID_365_);}
	.st405{opacity:0.5;fill:url(#SVGID_366_);}
	.st406{fill:url(#SVGID_367_);}
	.st407{opacity:0.5;fill:url(#SVGID_368_);}
	.st408{opacity:0.3;fill:url(#SVGID_369_);}
	.st409{opacity:0.3;fill:url(#SVGID_370_);}
	.st410{opacity:0.5;fill:url(#SVGID_371_);}
	.st411{opacity:0.5;fill:url(#SVGID_372_);}
	.st412{opacity:0.5;fill:#CE47B8;}
	.st413{opacity:0.3;fill:url(#SVGID_373_);}
	.st414{opacity:0.5;fill:url(#SVGID_374_);}
	.st415{opacity:0.3;fill:url(#SVGID_375_);}
	.st416{opacity:0.5;fill:url(#SVGID_376_);}
	.st417{fill:url(#SVGID_377_);}
	.st418{opacity:0.82;fill:url(#SVGID_378_);}
	.st419{fill:url(#SVGID_379_);}
	.st420{opacity:0.2;fill:url(#SVGID_380_);}
	.st421{fill:url(#SVGID_381_);}
	.st422{fill:url(#SVGID_382_);}
	.st423{fill:url(#SVGID_383_);}
	.st424{opacity:0.82;fill:url(#SVGID_384_);}
	.st425{fill:url(#SVGID_385_);}
	.st426{fill:url(#SVGID_386_);}
	.st427{fill:url(#SVGID_387_);}
	.st428{fill:url(#SVGID_388_);}
	.st429{fill:url(#SVGID_389_);}
	.st430{fill:url(#SVGID_390_);}
	.st431{opacity:0.5;fill:#FFAEB0;}
	.st432{fill:url(#SVGID_391_);}
	.st433{fill:url(#SVGID_392_);}
	.st434{opacity:0.82;fill:url(#SVGID_393_);}
	.st435{fill:url(#SVGID_394_);}
	.st436{opacity:0.82;fill:url(#SVGID_395_);}
	.st437{display:none;}
	.st438{display:inline;fill:#047FC4;}
	.st439{display:inline;opacity:0.5;fill:#047FC4;}
	.st440{fill:url(#SVGID_396_);}
	.st441{fill:url(#SVGID_397_);}
	.st442{fill:url(#SVGID_398_);}
	.st443{fill:url(#SVGID_399_);}
	.st444{fill:url(#SVGID_400_);}
	.st445{display:inline;fill:#0C409A;}
	.st446{display:inline;opacity:0.5;fill:#0C409A;}
	.st447{display:inline;fill:url(#SVGID_401_);}
	.st448{display:inline;fill:url(#SVGID_402_);}
	.st449{display:inline;fill:url(#SVGID_403_);}
	.st450{display:inline;fill:url(#SVGID_404_);}
	.st451{display:inline;opacity:0.5;fill:url(#SVGID_405_);}
	.st452{display:inline;fill:url(#SVGID_406_);}
	.st453{display:inline;fill:url(#SVGID_407_);}
	.st454{display:inline;opacity:0.5;fill:url(#SVGID_408_);}
	.st455{display:inline;fill:url(#SVGID_409_);}
	.st456{display:inline;fill:url(#SVGID_410_);}
	.st457{display:inline;fill:url(#SVGID_411_);}
	.st458{display:inline;fill:url(#SVGID_412_);}
	.st459{display:inline;fill:url(#SVGID_413_);}
	.st460{display:inline;fill:url(#SVGID_414_);}
	.st461{display:inline;fill:url(#SVGID_415_);}
	.st462{display:inline;fill:url(#SVGID_416_);}
	.st463{display:inline;fill:url(#SVGID_417_);}
	.st464{display:inline;fill:url(#SVGID_418_);}
	.st465{display:inline;fill:url(#SVGID_419_);}
	.st466{display:inline;fill:url(#SVGID_420_);}
	.st467{display:inline;fill:url(#SVGID_421_);}
	.st468{display:inline;fill:url(#SVGID_422_);}
	.st469{display:inline;fill:url(#SVGID_423_);}
	.st470{display:inline;fill:url(#SVGID_424_);}
	.st471{display:inline;fill:url(#SVGID_425_);}
	.st472{display:inline;opacity:0.5;fill:url(#SVGID_426_);}
	.st473{display:inline;fill:url(#SVGID_427_);}
	.st474{display:inline;fill:url(#SVGID_428_);}
	.st475{display:inline;fill:url(#SVGID_429_);}
	.st476{display:inline;fill:url(#SVGID_430_);}
	.st477{display:inline;fill:url(#SVGID_431_);}
	.st478{display:inline;fill:url(#SVGID_432_);}
	.st479{display:inline;fill:url(#SVGID_433_);}
	.st480{display:inline;fill:url(#SVGID_434_);}
	.st481{display:inline;fill:url(#SVGID_435_);}
	.st482{display:inline;fill:url(#SVGID_436_);}
	.st483{display:inline;fill:url(#SVGID_437_);}
	.st484{display:inline;fill:url(#SVGID_438_);}
	.st485{display:inline;fill:url(#SVGID_439_);}
	.st486{display:inline;opacity:0.5;fill:url(#SVGID_440_);}
	.st487{display:inline;fill:url(#SVGID_441_);}
	.st488{display:inline;opacity:0.5;fill:url(#SVGID_442_);}
	.st489{display:inline;opacity:0.5;fill:url(#SVGID_443_);}
	.st490{display:inline;opacity:0.5;fill:url(#SVGID_444_);}
	.st491{display:inline;fill:url(#SVGID_445_);}
	.st492{display:inline;fill:url(#SVGID_446_);}
	.st493{display:inline;fill:url(#SVGID_447_);}
	.st494{display:inline;opacity:0.5;fill:url(#SVGID_448_);}
	.st495{display:inline;fill:url(#SVGID_449_);}
	.st496{display:inline;fill:url(#SVGID_450_);}
	.st497{display:inline;fill:url(#SVGID_451_);}
	.st498{display:inline;fill:url(#SVGID_452_);}
	.st499{display:inline;fill:url(#SVGID_453_);}
	.st500{display:inline;fill:url(#SVGID_454_);}
	.st501{display:inline;fill:url(#SVGID_455_);}
	.st502{fill:url(#SVGID_456_);}
	.st503{fill:url(#SVGID_457_);}
	.st504{fill:url(#SVGID_458_);}
	.st505{fill:url(#SVGID_459_);}
	.st506{fill:url(#SVGID_460_);}
	.st507{fill:url(#SVGID_461_);}
	.st508{opacity:0.5;fill:url(#SVGID_462_);}
	.st509{fill:url(#SVGID_463_);}
	.st510{fill:url(#SVGID_464_);}
	.st511{fill:url(#SVGID_465_);}
	.st512{fill:url(#SVGID_466_);}
	.st513{fill:url(#SVGID_467_);}
	.st514{fill:url(#SVGID_468_);}
	.st515{fill:url(#SVGID_469_);}
	.st516{fill:url(#SVGID_470_);}
	.st517{fill:url(#SVGID_471_);}
	.st518{fill:url(#SVGID_472_);}
	.st519{fill:url(#SVGID_473_);}
	.st520{opacity:0.5;fill:url(#SVGID_474_);}
	.st521{opacity:0.5;fill:url(#SVGID_475_);}
	.st522{fill:url(#SVGID_476_);}
	.st523{fill:url(#SVGID_477_);}
	.st524{fill:url(#SVGID_478_);}
	.st525{fill:url(#SVGID_479_);}
	.st526{opacity:0.5;fill:url(#SVGID_480_);}
	.st527{opacity:0.5;fill:url(#SVGID_481_);}
	.st528{fill:url(#SVGID_482_);}
	.st529{opacity:0.5;fill:url(#SVGID_483_);}
	.st530{opacity:0.3;fill:url(#SVGID_484_);}
	.st531{opacity:0.3;fill:url(#SVGID_485_);}
	.st532{opacity:0.5;fill:url(#SVGID_486_);}
	.st533{opacity:0.5;fill:url(#SVGID_487_);}
	.st534{opacity:0.3;fill:url(#SVGID_488_);}
	.st535{opacity:0.5;fill:url(#SVGID_489_);}
	.st536{opacity:0.3;fill:url(#SVGID_490_);}
	.st537{opacity:0.5;fill:url(#SVGID_491_);}
	.st538{fill:url(#SVGID_492_);}
	.st539{opacity:0.82;fill:url(#SVGID_493_);}
	.st540{fill:url(#SVGID_494_);}
	.st541{opacity:0.2;fill:url(#SVGID_495_);}
	.st542{fill:url(#SVGID_496_);}
	.st543{fill:url(#SVGID_497_);}
	.st544{fill:url(#SVGID_498_);}
	.st545{opacity:0.82;fill:url(#SVGID_499_);}
	.st546{fill:url(#SVGID_500_);}
	.st547{fill:url(#SVGID_501_);}
	.st548{fill:url(#SVGID_502_);}
	.st549{fill:url(#SVGID_503_);}
	.st550{fill:url(#SVGID_504_);}
	.st551{fill:url(#SVGID_505_);}
	.st552{fill:url(#SVGID_506_);}
	.st553{fill:url(#SVGID_507_);}
	.st554{fill:url(#SVGID_508_);}
	.st555{fill:url(#SVGID_509_);}
	.st556{fill:url(#SVGID_510_);}
	.st557{fill:url(#SVGID_511_);}
	.st558{fill:url(#SVGID_512_);}
	.st559{fill:url(#SVGID_513_);}
	.st560{fill:url(#SVGID_514_);}
	.st561{opacity:0.83;fill:url(#SVGID_515_);}
	.st562{fill:url(#SVGID_516_);}
	.st563{opacity:0.62;fill:url(#SVGID_517_);}
	.st564{fill:url(#SVGID_518_);}
	.st565{fill:url(#SVGID_519_);}
	.st566{opacity:0.62;fill:url(#SVGID_520_);}
	.st567{fill:url(#SVGID_521_);}
	.st568{fill:url(#SVGID_522_);}
	.st569{fill:url(#SVGID_523_);}
	.st570{fill:url(#SVGID_524_);}
	.st571{opacity:0.83;fill:url(#SVGID_525_);}
	.st572{fill:url(#SVGID_526_);}
	.st573{fill:url(#SVGID_527_);}
	.st574{fill:url(#SVGID_528_);}
	.st575{fill:url(#SVGID_529_);}
	.st576{fill:url(#SVGID_530_);}
	.st577{fill:#E87A8D;}
	.st578{fill:url(#SVGID_531_);}
	.st579{opacity:0.62;fill:url(#SVGID_532_);}
	.st580{fill:url(#SVGID_533_);}
	.st581{fill:url(#SVGID_534_);}
	.st582{fill:url(#SVGID_535_);}
	.st583{fill:url(#SVGID_536_);}
	.st584{fill:#77485E;}
	.st585{fill:url(#SVGID_537_);}
	.st586{fill:url(#SVGID_538_);}
	.st587{fill:url(#SVGID_539_);}
	.st588{fill:url(#SVGID_540_);}
	.st589{fill:url(#SVGID_541_);}
	.st590{fill:url(#SVGID_542_);}
	.st591{fill:url(#SVGID_543_);}
	.st592{fill:url(#SVGID_544_);}
	.st593{fill:url(#SVGID_545_);}
	.st594{fill:#E37E7F;}
	.st595{fill:url(#SVGID_546_);}
	.st596{fill:url(#SVGID_547_);}
	.st597{fill:url(#SVGID_548_);}
	.st598{fill:url(#SVGID_549_);}
	.st599{fill:url(#SVGID_550_);}
	.st600{fill:url(#SVGID_551_);}
	.st601{fill:url(#SVGID_552_);}
	.st602{fill:url(#SVGID_553_);}
	.st603{fill:url(#SVGID_554_);}
	.st604{fill:url(#SVGID_555_);}
	.st605{fill:url(#SVGID_556_);}
	.st606{fill:url(#SVGID_557_);}
	.st607{fill:url(#SVGID_558_);}
	.st608{fill:url(#SVGID_559_);}
	.st609{fill:url(#SVGID_560_);}
	.st610{opacity:0.62;fill:url(#SVGID_561_);}
	.st611{opacity:0.62;fill:url(#SVGID_562_);}
	.st612{opacity:0.62;fill:url(#SVGID_563_);}
	.st613{opacity:0.62;fill:url(#SVGID_564_);}
	.st614{opacity:0.62;fill:url(#SVGID_565_);}
	.st615{opacity:0.5;fill:url(#SVGID_566_);}
	.st616{opacity:0.62;fill:url(#SVGID_567_);}
	.st617{opacity:0.62;fill:url(#SVGID_568_);}
	.st618{opacity:0.62;fill:url(#SVGID_569_);}
	.st619{fill:url(#SVGID_570_);}
	.st620{fill:url(#SVGID_571_);}
	.st621{opacity:0.83;fill:url(#SVGID_572_);}
	.st622{fill:url(#SVGID_573_);}
	.st623{fill:url(#SVGID_574_);}
	.st624{opacity:0.5;fill:url(#SVGID_575_);}
	.st625{opacity:0.62;fill:url(#SVGID_576_);}
	.st626{opacity:0.62;fill:url(#SVGID_577_);}
	.st627{fill:url(#SVGID_578_);}
	.st628{fill:url(#SVGID_579_);}
	.st629{opacity:0.84;fill:url(#SVGID_580_);}
	.st630{opacity:0.84;fill:url(#SVGID_581_);}
	.st631{opacity:0.84;fill:url(#SVGID_582_);}
	.st632{opacity:0.62;fill:url(#SVGID_583_);}
	.st633{fill:url(#SVGID_584_);}
	.st634{fill:url(#SVGID_585_);}
	.st635{fill:url(#SVGID_586_);}
	.st636{fill:url(#SVGID_587_);}
	.st637{fill:url(#SVGID_588_);}
	.st638{fill:url(#SVGID_589_);}
	.st639{fill:url(#SVGID_590_);}
	.st640{fill:#D7E2FF;}
	.st641{fill:#D7D9FF;}
	.st642{fill:url(#SVGID_591_);}
	.st643{fill:url(#SVGID_592_);}
	.st644{fill:none;}
</style>
<path class="st1" d="M94.92,82.31c8.93-33.26,44.12-50.77,81.7-38.34c31.64,10.46,89.55,87.61,94.47,135.21
	c4.68,45.2-44.39,89.78-119.04,92.9c-87.32,3.65-107.43-43.11-90.56-72.34C103.07,127.64,84.15,122.43,94.92,82.31z"/>
<g>
	<linearGradient id="SVGID_1_" gradientUnits="userSpaceOnUse" x1="221.7005" y1="212.7434" x2="221.7005" y2="118.3904">
		<stop  offset="0" style="stop-color:#744FD8"/>
		<stop  offset="1" style="stop-color:#3996F7"/>
	</linearGradient>
	<path class="st4" d="M237.92,174.98c0,0-2.17-0.65-3.04,1.09c-0.87,1.74-3.59,22.63-2.83,28.51c0.77,5.88,2.94,3.7,2.94,3.7
		s-0.22,3.48-1.63,4.46l-0.01-0.01c-0.02-0.01-0.05-0.03-0.09-0.07c-0.03-0.02-0.08-0.05-0.13-0.09h-0.01
		c-0.84-0.55-3.73-2.46-6.4-4.3c-3.15-2.18-5.01-4.03-5.01-4.03s0.44-3.48,0.44-4.45c0-0.98-6.97-24.17-13.82-31.34
		c-6.39-6.69-0.11-44.4,0.77-49.49l0.1-0.57c0,0,5.55,1.64,7.94,3.38c2.39,1.76,10.99,22.95,11.43,33.83
		c0.44,10.88,4.35,17.06,4.35,17.06s1.31-0.79,3.49,0L237.92,174.98z"/>
	<linearGradient id="SVGID_2_" gradientUnits="userSpaceOnUse" x1="219.2969" y1="212.5797" x2="219.2969" y2="118.3904">
		<stop  offset="0" style="stop-color:#9D68C2"/>
		<stop  offset="1" style="stop-color:#CCEDFF"/>
	</linearGradient>
	<path style="opacity:0.83;fill:url(#SVGID_2_);" d="M233.11,212.58c-0.84-0.55-3.73-2.46-6.4-4.3c-3.15-2.18-5.01-4.03-5.01-4.03
		s0.44-3.48,0.44-4.45c0-0.98-6.97-24.17-13.82-31.34c-6.39-6.69-0.11-44.4,0.77-49.49l0.1-0.57c0,0,4.51,5.66,6.47,16.92
		c1.96,11.27-0.81,33.47-0.81,33.47s3.91,17.95,13.54,18.28c0,0-8.08,11.83-4.89,17.76C224.11,205.96,231.64,211.54,233.11,212.58z"
		/>
	<linearGradient id="SVGID_3_" gradientUnits="userSpaceOnUse" x1="182.7354" y1="286.6254" x2="182.7354" y2="226.9945">
		<stop  offset="0" style="stop-color:#1C257B"/>
		<stop  offset="1" style="stop-color:#482C83"/>
	</linearGradient>
	<path class="st6" d="M216.76,277.03c-8.4,3.88-16.24,6.36-23.45,7.82c-1.52,0.31-3,0.57-4.46,0.79c-0.37,0.06-0.74,0.11-1.1,0.16
		c-0.26,0.04-0.53,0.08-0.79,0.11c-0.46-3.01-0.9-5.78-1.28-8.14c-0.14-0.85-0.27-1.64-0.39-2.38c-0.05-0.32-0.11-0.63-0.16-0.94
		c-0.02-0.14-0.05-0.29-0.07-0.43c-0.03-0.19-0.06-0.37-0.09-0.55c-0.03-0.23-0.07-0.44-0.11-0.65c-0.02-0.15-0.05-0.29-0.07-0.43
		c-0.06-0.31-0.11-0.6-0.15-0.86c-0.02-0.09-0.03-0.19-0.04-0.28c-0.03-0.16-0.05-0.3-0.08-0.43c-0.01-0.07-0.02-0.13-0.03-0.19
		l-0.03-0.16l-0.03-0.16c-0.03-0.14-0.04-0.22-0.04-0.22c-1.29,5.41-3,11-4.89,16.46c-11.02,0.46-19.93-1.39-26.33-3.51
		c-0.47-0.15-0.93-0.31-1.37-0.46c-0.57-0.21-1.11-0.41-1.63-0.61c-0.51-0.2-0.99-0.39-1.45-0.58c0.27-1.57,0.5-3.09,0.68-4.55
		c0.89-7.08,1.57-14.55,2.07-20.86v-0.02c0.43-5.47,0.73-10.06,0.89-12.76c0.03-0.59,0.06-1.09,0.08-1.49
		c0.04-0.73,0.06-1.12,0.06-1.12c0.47-0.48,1.17-0.96,2.05-1.44l0.02-0.01c3.98-2.14,11.8-4.22,20.4-6.04c0.01,0,0.02,0,0.03-0.01
		c5.11-1.08,10.49-2.07,15.49-2.93c0.02,0,0.04,0,0.06-0.01c8.33-1.41,15.64-2.44,18.99-2.9h0.01c0.06-0.01,0.12-0.02,0.17-0.03
		c0.96-0.12,1.56-0.2,1.72-0.22l0.05-0.01l0.3,0.97l0.42,1.37l0.93,3.02v0.01c0,0,1.87,0.4,2.12,1.71c0.24,1.3-1.5,2.5-1.5,2.5
		C216.07,249.72,216.78,264.1,216.76,277.03z"/>
	<linearGradient id="SVGID_4_" gradientUnits="userSpaceOnUse" x1="183.0502" y1="270.0908" x2="183.0502" y2="226.9896">
		<stop  offset="0" style="stop-color:#8B8BE0"/>
		<stop  offset="1" style="stop-color:#A177B7"/>
	</linearGradient>
	<path style="opacity:0.62;fill:url(#SVGID_4_);" d="M152.35,243.2c0,0,15.82-1.95,25.77,2.78c9.96,4.73,9.06,12.9,9.06,12.9
		l-2.81,11.21l9.67-10.12l19.7-23.4c0,0-3.69,2.23-8.48,3.21c0,0,6.72-4.16,7.86-7.43l-1.65-5.37l-59.14,12.63V243.2z"/>
	<linearGradient id="SVGID_5_" gradientUnits="userSpaceOnUse" x1="239.3606" y1="209.422" x2="239.3606" y2="193.9165">
		<stop  offset="0.016" style="stop-color:#FFC2A9"/>
		<stop  offset="1" style="stop-color:#FF9595"/>
	</linearGradient>
	<path class="st10" d="M230.44,198.65c0,0-0.65,7.35,3.75,10.77c0,0,9.06-4.73,13.52-12.46
		C252.18,189.24,230.44,198.65,230.44,198.65z"/>
	<linearGradient id="SVGID_6_" gradientUnits="userSpaceOnUse" x1="182.288" y1="241.7322" x2="182.288" y2="226.9928">
		<stop  offset="0" style="stop-color:#D1C8F8"/>
		<stop  offset="1" style="stop-color:#EEE5F9"/>
	</linearGradient>
	<path class="st11" d="M152.5,240.6l-0.15,1.14c0,0,12.22-3.09,18.09-3.31c5.88-0.22,12.1,4.46,24.62,2.17s17.17-11.31,17.17-11.31
		l-0.74-2.29L152.5,240.6z"/>
	<linearGradient id="SVGID_7_" gradientUnits="userSpaceOnUse" x1="182.0692" y1="241.7322" x2="182.0692" y2="226.9928">
		<stop  offset="0" style="stop-color:#8B8BE0"/>
		<stop  offset="1" style="stop-color:#A177B7"/>
	</linearGradient>
	<path style="opacity:0.62;fill:url(#SVGID_7_);" d="M156.6,240.72c0,0,11.86-2.98,28.36-4.86c16.5-1.88,22.71-2.45,24.25-3.67
		c1.54-1.22,2.58-4.26,2.58-4.26l-0.31-0.94l-58.99,13.6l-0.15,1.14L156.6,240.72z"/>
	<linearGradient id="SVGID_8_" gradientUnits="userSpaceOnUse" x1="265.7975" y1="180.4467" x2="265.7975" y2="175.5101">
		<stop  offset="0.016" style="stop-color:#FFA58B"/>
		<stop  offset="1" style="stop-color:#FF898E"/>
	</linearGradient>
	<path class="st13" d="M265.34,175.51c0,0,2.53,2.05,2.54,3.8c0.02,1.76-4.17,0.94-4.17,0.94L265.34,175.51z"/>
	<linearGradient id="SVGID_9_" gradientUnits="userSpaceOnUse" x1="127.79" y1="184.6473" x2="127.79" y2="115.3541">
		<stop  offset="0" style="stop-color:#744FD8"/>
		<stop  offset="1" style="stop-color:#3996F7"/>
	</linearGradient>
	<path class="st14" d="M141.06,167.47l-1.79-9.8c0,0-4.57,0-11.26,6.2c0,0-0.16,3.36-2.46,7.56c0,0-7.7,3.71-11.28,8.77
		c-3.58,5.06-4.93,5.57-8.66,2.7c-0.99-0.76-1.66-3.33-2.02-6.84c-0.53-5.3-0.33-12.72,0.59-19.26c0.76-5.39,2.01-10.17,3.74-12.66
		c0,0-0.16-3.33,1.47-5.94c0.08,0.05,0.16,0.1,0.24,0.16c0.53,0.34,1.91,1.08,3.34,0.82c1.85-0.33,3.4-3.16,3.4-3.16
		s1.06,0.11,1.6,0.88c0,0,7.4-4.49,12.09-12.04c4.68-7.55,5.44-8.48,5.44-8.48s1.2-0.49,2.82-0.79c1.28-0.24,2.82-0.35,4.26-0.02
		C142.59,115.56,165.33,150.71,141.06,167.47z"/>
	<linearGradient id="SVGID_10_" gradientUnits="userSpaceOnUse" x1="175.2431" y1="134.8699" x2="175.2431" y2="93.5338">
		<stop  offset="0.016" style="stop-color:#FFA58B"/>
		<stop  offset="1" style="stop-color:#FF898E"/>
	</linearGradient>
	<path class="st15" d="M189.5,118.39c0,0-2.83-4.23-2.83-14.09l-22.07-10.77c0,0,1.11,7.6-2.63,14.19c-0.99,1.74-5.6,4.49-5.6,4.49
		s20.17,24.88,29.85,22.49c9.69-2.39,7.74-12.93,7.74-12.93S192.32,122.42,189.5,118.39z"/>
	<linearGradient id="SVGID_11_" gradientUnits="userSpaceOnUse" x1="174.2329" y1="129.7898" x2="174.2329" y2="110.4214">
		<stop  offset="0" style="stop-color:#D1C8F8"/>
		<stop  offset="1" style="stop-color:#EEE5F9"/>
	</linearGradient>
	<path class="st16" d="M159.08,110.42c0,0,10.93,10.9,20.34,11.51c10.08,0.65,8.42-7.73,8.42-7.73s4.56,6.39,3.25,11.43
		c-1.31,5.03-11.26,5.28-18.94,1.93c-7.67-3.35-15.01-16.35-15.01-16.35L159.08,110.42z"/>
	<linearGradient id="SVGID_12_" gradientUnits="userSpaceOnUse" x1="127.9333" y1="184.6473" x2="127.9333" y2="115.3541">
		<stop  offset="0" style="stop-color:#9D68C2"/>
		<stop  offset="1" style="stop-color:#CCEDFF"/>
	</linearGradient>
	<path style="opacity:0.83;fill:url(#SVGID_12_);" d="M141.06,167.47l-1.79-9.8c0,0-4.57,0-11.26,6.2c0,0-0.16,3.36-2.46,7.56
		c0,0-7.7,3.71-11.28,8.77c-3.58,5.06-4.93,5.57-8.66,2.7c-0.99-0.76-1.66-3.33-2.02-6.84l0.59-1.4V156.8
		c0.76-5.39,2.01-10.17,3.74-12.66c0,0-0.16-3.33,1.47-5.94c0.08,0.05,0.16,0.1,0.24,0.16c6.33,4.13,8.57,16.27,9,25.3
		c0.06-2.29,1.51-11.16,2.61-10.99c1.41,0.22,3.8,16.54,3.8,16.54c2.83-14-6.29-30.89-7.02-32.23c8.33,11.51,9.74,24.73,9.74,24.73
		l12.95-9.47c0,0,7.8-7.84,5.1-21.33c-2.7-13.49-7.5-15.33-7.5-15.33c1.28-0.24,2.82-0.35,4.26-0.02
		C142.59,115.56,165.33,150.71,141.06,167.47z"/>
	<linearGradient id="SVGID_13_" gradientUnits="userSpaceOnUse" x1="176.5027" y1="104.3029" x2="176.5027" y2="38.6731">
		<stop  offset="0.016" style="stop-color:#FFC2A9"/>
		<stop  offset="1" style="stop-color:#FF9595"/>
	</linearGradient>
	<path class="st20" d="M195.14,102c-0.03,0.03-0.06,0.05-0.09,0.09c-0.31,0.37-0.64,0.65-0.99,0.84c-4.9,2.51-17.95,1.85-25.03-4.35
		c-2.69-2.36-4.7-5.19-6.31-8.07c-0.01-0.03-0.02-0.03-0.02-0.03c-2.57-4.68-4.02-9.54-5.44-12.9c-2.28-5.44-4.16-14.54-3.7-19.81
		c0.43-4.89,1.41-9.03,8.06-14.69c6.63-5.66,22.96-5.99,27.09-0.33c4.14,5.66,4.02,18.39,5.01,21.22c0.98,2.83,4.46,6.2,5.44,10.01
		C200.08,77.51,199.13,97.03,195.14,102z"/>
	<linearGradient id="SVGID_14_" gradientUnits="userSpaceOnUse" x1="175.0783" y1="90.261" x2="175.0783" y2="38.4054">
		<stop  offset="0.016" style="stop-color:#FFA58B"/>
		<stop  offset="1" style="stop-color:#FF898E"/>
	</linearGradient>
	<path class="st21" d="M195.19,66.71c0,0-0.21,3.4-2.86,3.63c-2.08,0.18-3.35-2.88-3.35-2.88s-0.37-8.31,0.68-12.41l0.99-3.26
		c0,0-2.84-2.98-7.09-2.6c-4.24,0.37-5.77,4.91-5.77,4.91s3.77,10.78,3.22,15.98c0,0-2.84,2.72-7.63,2.39
		c-5.54-0.38-8.32-3.67-8.32-3.67s-3.02,3.53-3.6,6.53c-0.69,3.58,0.5,14.94,0.5,14.94s-3.81-12.3-4.84-15.89
		c-1.03-3.59-2.94-19.53-1.8-22.25s4.44-11.58,18.57-13.33c14.13-1.74,16.76,2.99,16.76,2.99l1.46,7.02l-0.01,3.62
		c0,0,0.99,9.33,1.34,10.9C193.79,64.88,195.19,66.71,195.19,66.71z"/>
	<linearGradient id="SVGID_15_" gradientUnits="userSpaceOnUse" x1="174.546" y1="78.174" x2="166.7991" y2="29.262">
		<stop  offset="0" style="stop-color:#D49092"/>
		<stop  offset="0.1274" style="stop-color:#D18E92"/>
		<stop  offset="0.2036" style="stop-color:#C98991"/>
		<stop  offset="0.2664" style="stop-color:#BB7F90"/>
		<stop  offset="0.3218" style="stop-color:#A7718F"/>
		<stop  offset="0.3725" style="stop-color:#8C5F8D"/>
		<stop  offset="0.4196" style="stop-color:#6C498A"/>
		<stop  offset="0.4631" style="stop-color:#472F88"/>
		<stop  offset="0.4721" style="stop-color:#3E2987"/>
		<stop  offset="0.6068" style="stop-color:#352278"/>
		<stop  offset="0.8455" style="stop-color:#291762"/>
		<stop  offset="1" style="stop-color:#24135A"/>
	</linearGradient>
	<path class="st22" d="M192.16,52.78c0,0-0.38-4.79-3.1-9.53c0,0-3.02,3.19-7.92,4.89c0,0,2.27-2.11,3.33-3.74
		c-0.19,0.15-3.23,2.5-7.5,4.32c0,0,1.22-1.88,1.22-2.7c0-0.82-3.1-4.4-6.69-4.32c-3.59,0.09-10.45,2.45-13.88,8.98
		c-3.42,6.53,0.02,7.13,1.9,8.84c0,0-0.94,8.1-0.73,14.87c0.07,2.02,0.24,3.93,0.56,5.46c0.05,0.25,0.11,0.48,0.17,0.71l-4.9-4.48
		c0,0-0.04-2.99-1.93-7.28c-0.21-0.49-0.45-1-0.72-1.52l-0.03-0.04c-0.1-0.21-0.22-0.41-0.33-0.63c-1.17-2.19-4.78-6.28-4.26-10.45
		c0.49-3.92,7.63-7.29,9.37-9.91c0,0-5.47,1.75-8.06,4.36c0,0,0.41-2.46,2.45-3.84c2.02-1.39,3.73-0.53,6.68-1.71
		c2.96-1.18,6.94-11.1,11.67-14.85c4.74-3.76,15.59-3.02,19.1,0c0.9,0.78,1.58,1.71,2.08,2.68h0.01c0,0.01,0,0.01,0,0.01v0.01
		c0.01,0.02,0.02,0.03,0.02,0.04c1.45,2.77,1.49,5.75,1.49,5.75S194.2,47.04,192.16,52.78z"/>
	<linearGradient id="SVGID_16_" gradientUnits="userSpaceOnUse" x1="79.5627" y1="183.359" x2="79.5627" y2="67.8951">
		<stop  offset="0.016" style="stop-color:#FFC2A9"/>
		<stop  offset="1" style="stop-color:#FF9595"/>
	</linearGradient>
	<path style="fill:url(#SVGID_16_);" d="M111.36,142.99l-3.43,1.14c0,0-15.67-9.3-20.73-31.91c0,0,3.92-6.78,4.08-9.23
		c0.16-2.45-2.34-7.56-3.1-13.98c-0.76-6.42,0.76-11.32,0.65-12.08c-0.11-0.76-4.03-0.87-5.11,2.29c-1.09,3.16,0.54,8.81,0,9.9
		c-0.54,1.09-1.85,2.94-1.85,2.94s-5.77-8.71-7.29-9.58c-1.52-0.87-3.92,3.39-5.01,3.6c-1.09,0.21-5.06-5.29-8.9-8.47
		c-3.84-3.18-11.02-9.88-11.75-9.71c-0.73,0.16-1.71,1.47-1.55,2.77c0.16,1.31,3.26,7.02,8,9.3c0,0,5.71,3.92,8.73,9.22
		c0,0-1.31,2.2-2.2,2.29c-0.9,0.08-6.04-3.35-10.12-4.98c-4.08-1.63-7.84-2.69-8.49-2.45c-0.65,0.24-0.41,1.71,0,2.69
		c0.41,0.98,4.08,3.84,8.08,4.82c0,0,5.96,2.37,7.92,4.82c0,0-0.24,2.45-0.9,2.86c-0.65,0.41-5.55-0.33-8.57-0.73
		c-3.02-0.41-6.52,0.08-6.93,0.49c-0.41,0.41-0.09,1.8,2.36,2.69c2.45,0.9,5.39,0.33,5.88,0.41c0.49,0.08,9.39,2.86,10.45,3.51
		c1.06,0.65,5.72,7.61,9.06,9.73c3.35,2.12,8.16,1.04,8.16,1.04s5.36,30.09,7.97,42.06c2.61,11.97,12.62,24.38,21.33,24.92
		c0,0,7.84-3.05,8.27-19.15C116.8,148.1,111.36,142.99,111.36,142.99z"/>
	<linearGradient id="SVGID_17_" gradientUnits="userSpaceOnUse" x1="176.043" y1="240.5961" x2="176.043" y2="110.4214">
		<stop  offset="0" style="stop-color:#744FD8"/>
		<stop  offset="1" style="stop-color:#3996F7"/>
	</linearGradient>
	<path class="st24" d="M205.7,176.4c0,0-3.26,17.03,0.98,35.48c0,0,2.61,1.79,2.94,4.07c0,0,0,0.02,0.01,0.04
		c0.31,2.27-0.17,4.37-0.17,4.37s1.15,1.15,2.13,2.77c0.18,0.31,0.28,0.67,0.32,1.07c0.16,1.69-0.81,3.83-0.81,3.83
		s-1.96,5.07-22.36,6.86c-20.4,1.8-36.24,5.71-36.24,5.71s-1.23-4.07,1.02-7.18c0,0-3.47-3.1-3.31-4.25s7.68-14.2,5.72-23.34
		c-1.96-9.14-9.3-16.56-13.39-34.4c0,0-2.72-0.91-2.89-2.22c-0.16-1.3,1.2-3.43,1.2-3.43l0.49,0.93c0,0,9.3-5.33,6.8-27.86
		c-2.5-22.53-5.14-23.9-9.8-23.27c0,0,3.71-3.44,4.58-3.36c0.87,0.08,1.2,1.68,1.2,1.68s2.91,1.2,6.34,0
		c3.43-1.2,5.73-3.48,5.73-3.48s20.67,17.5,29.74,16.43c10.35-1.22,3.05-12.56,3.05-12.56s6.5,1.27,9.98,2.08
		c3.49,0.82,4.79,0,4.79,0s2.07-3.08,4.79-1.02c2.72,2.05,6.09,13.37,5.01,31.65C212.46,165.29,205.7,176.4,205.7,176.4z"/>
	<path class="st577" d="M170.39,66.35c0,0-0.55,1.67-0.27,3.18c0.29,1.51,5.72,2.98,8.3,0.7C181,67.94,170.39,66.35,170.39,66.35z"
		/>
	<linearGradient id="SVGID_18_" gradientUnits="userSpaceOnUse" x1="242.5983" y1="201.7632" x2="242.5983" y2="138.7184">
		<stop  offset="0" style="stop-color:#1C257B"/>
		<stop  offset="1" style="stop-color:#482C83"/>
	</linearGradient>
	<path class="st25" d="M279.49,142.99c-6.75,18.07-25.25,56.48-25.25,56.48c-24.37,4.68-47.23,0.76-47.23,0.76l-1.31-2.11
		c8.49-25.67,26.78-59.15,26.78-59.15c22.42-1.2,46.14,2.39,46.14,2.39L279.49,142.99z"/>
	<linearGradient id="SVGID_19_" gradientUnits="userSpaceOnUse" x1="264.2591" y1="187.9986" x2="264.2591" y2="163.7164">
		<stop  offset="0" style="stop-color:#8B8BE0"/>
		<stop  offset="1" style="stop-color:#A177B7"/>
	</linearGradient>
	<path style="opacity:0.62;fill:url(#SVGID_19_);" d="M257.89,170.17c0,0-1.03,12.13,1.8,17.83l11.13-24.28l-5.3,1.25l0.7,2.45
		C266.21,167.42,261.81,167.21,257.89,170.17z"/>
	<linearGradient id="SVGID_20_" gradientUnits="userSpaceOnUse" x1="265.1448" y1="176.6182" x2="265.1448" y2="163.7164">
		<stop  offset="0.016" style="stop-color:#FFC2A9"/>
		<stop  offset="1" style="stop-color:#FF9595"/>
	</linearGradient>
	<path class="st27" d="M270.02,163.72c0,0,1.77,1.41,2.12,2.56c0.38,1.25,0.87,4.4-2.78,5.39l-1.63,0.44c0,0,1.2,0.54,1.41,1.36
		c0.22,0.82-1.14,2.61-3.32,3.05c-2.18,0.44-5.82-0.44-6.91-1.41c-1.09-0.98-0.38-2.34,1.25-2.72c0,0-2.39-0.54-2.29-2.2
		c0.11-1.66,5.6-3.46,11.43-2.91L270.02,163.72z"/>
	<path class="st577" d="M189.5,67.96c0,0,0.88,1.4,2.83,0.99c1.95-0.41,1.77-3.79,1.41-4.98C193.38,62.8,189.53,66.87,189.5,67.96z"
		/>
	<linearGradient id="SVGID_21_" gradientUnits="userSpaceOnUse" x1="271.3372" y1="165.2127" x2="271.3372" y2="155.4399">
		<stop  offset="0.016" style="stop-color:#FFC2A9"/>
		<stop  offset="1" style="stop-color:#FF9595"/>
	</linearGradient>
	<path class="st28" d="M274.43,155.44c0,0,2.94,2.73,2.94,4.6c0,1.88-4.33,4.24-11.75,5.17c0,0-0.69-1.44,0-2.99
		c0.69-1.55,4.41-3.73,7.47-4.22L274.43,155.44z"/>
	<linearGradient id="SVGID_22_" gradientUnits="userSpaceOnUse" x1="264.5654" y1="181.8396" x2="264.5654" y2="177.5764">
		<stop  offset="0.016" style="stop-color:#FFC2A9"/>
		<stop  offset="1" style="stop-color:#FF9595"/>
	</linearGradient>
	<path class="st29" d="M265.87,177.59c0,0-5.04-0.49-4.61,4.12c0,0,2.82,0.4,4.89-0.2c2.07-0.6,1.8-2.18,1.63-2.72
		C267.62,178.24,267.44,177.81,265.87,177.59z"/>
	<linearGradient id="SVGID_23_" gradientUnits="userSpaceOnUse" x1="171.0561" y1="63.0009" x2="171.0561" y2="52.4179">
		<stop  offset="0" style="stop-color:#1C257B"/>
		<stop  offset="1" style="stop-color:#482C83"/>
	</linearGradient>
	<path class="st30" d="M164.82,63c0,0,0.41-2.63,2.98-5.29c1.85-1.92,5.42-3.85,7.93-4.83c0,0,0.38,0.82,0.38,2.34
		c0,0,0.41-1.44,0.76-2.8c0,0,0.56,1.36,0.39,4.01c0,0-2.19,0.77-5.79,1.75C166.98,59.41,164.82,63,164.82,63z"/>
	<path class="st584" d="M188.98,66.35c0,0,0-6.88,2-7.26c1.67-0.32,2.46,3.57,2.46,3.57L188.98,66.35z"/>
	<path class="st584" d="M170.12,68.31c0,0-0.07-4.83,3.89-6.55c3.96-1.71,5.33,3.84,5.33,3.84L170.12,68.31z"/>
	<linearGradient id="SVGID_24_" gradientUnits="userSpaceOnUse" x1="174.9455" y1="71.1105" x2="174.9455" y2="62.6548">
		<stop  offset="0" style="stop-color:#D0C7F8"/>
		<stop  offset="1" style="stop-color:#FFFFFF"/>
	</linearGradient>
	<path class="st31" d="M179.76,68.3c-0.11,1.01-1.47,2.81-4.41,2.81c-2.61,0-5.23-1.31-5.22-2.81c0-0.53,0.14-1.09,0.38-1.67
		c0.53-1.27,1.59-2.52,2.88-3.27c0.86-0.51,1.84-0.78,2.83-0.68C179.38,63,179.86,67.3,179.76,68.3z"/>
	<linearGradient id="SVGID_25_" gradientUnits="userSpaceOnUse" x1="191.3819" y1="68.7935" x2="191.3819" y2="60.3372">
		<stop  offset="0" style="stop-color:#D0C7F8"/>
		<stop  offset="1" style="stop-color:#FFFFFF"/>
	</linearGradient>
	<path class="st32" d="M193.79,64.88c0.04,2.24-0.93,3.95-2.64,3.91c-0.72-0.02-1.15-0.22-1.46-0.56c-0.26-0.29-0.41-0.7-0.54-1.19
		c-0.06-0.22-0.12-0.45-0.17-0.7c0,0,0.18-2.11,0.74-3.83c0.13-0.38,0.27-0.73,0.42-1.03c0.28-0.54,0.61-0.95,1.02-1.09
		C192.48,59.91,193.75,62.63,193.79,64.88z"/>
	<linearGradient id="SVGID_26_" gradientUnits="userSpaceOnUse" x1="55.9246" y1="95.4058" x2="69.5707" y2="95.4058">
		<stop  offset="0" style="stop-color:#CF6074"/>
		<stop  offset="1" style="stop-color:#FF817F"/>
	</linearGradient>
	<path class="st33" d="M69.57,86.08c0,0-2.45,3.31-5.41,8.65c-2.41,4.35-2.59,10.88-2.59,10.88s-3.43-1.55-5.31-1.96
		c-1.88-0.41,4.57-10.37,4.57-10.37l7.33-8.07L69.57,86.08z"/>
	<radialGradient id="SVGID_27_" cx="173.9984" cy="68.0892" r="3.3272" gradientUnits="userSpaceOnUse">
		<stop  offset="0" style="stop-color:#CF95FF"/>
		<stop  offset="1" style="stop-color:#8161FF"/>
	</radialGradient>
	<path class="st34" d="M177.29,66.72c0,1.88-1.52,3.39-3.39,3.39c-1.88,0-3.4-1.52-3.4-3.39c0-0.03,0-0.06,0.01-0.09
		c0.53-1.27,1.59-2.52,2.88-3.27c0.16-0.03,0.34-0.04,0.52-0.04C175.77,63.31,177.29,64.84,177.29,66.72z"/>
	<linearGradient id="SVGID_28_" gradientUnits="userSpaceOnUse" x1="173.8937" y1="69.0689" x2="173.8937" y2="64.3601">
		<stop  offset="0" style="stop-color:#8642A0"/>
		<stop  offset="1" style="stop-color:#4E37B7"/>
	</linearGradient>
	<path class="st35" d="M176.25,66.71c0,1.3-1.05,2.35-2.35,2.35c-1.3,0-2.35-1.05-2.35-2.35c0-1.3,1.05-2.35,2.35-2.35
		C175.19,64.36,176.25,65.41,176.25,66.71z"/>
	<radialGradient id="SVGID_29_" cx="190.7012" cy="66.2481" r="2.2311" gradientUnits="userSpaceOnUse">
		<stop  offset="0" style="stop-color:#CF95FF"/>
		<stop  offset="1" style="stop-color:#8161FF"/>
	</radialGradient>
	<path class="st36" d="M192.32,64.87c0,1.88-1.03,3.39-2.31,3.39c-0.11,0-0.22-0.01-0.33-0.03c-0.26-0.29-0.41-0.7-0.54-1.19
		c-0.06-0.22-0.12-0.45-0.17-0.7c0,0,0.18-2.11,0.74-3.83c0.13-0.38,0.27-0.73,0.42-1.03C191.36,61.57,192.32,63.06,192.32,64.87z"
		/>
	<linearGradient id="SVGID_30_" gradientUnits="userSpaceOnUse" x1="51.3701" y1="84.3997" x2="62.7857" y2="84.3997">
		<stop  offset="0" style="stop-color:#CF6074"/>
		<stop  offset="1" style="stop-color:#FF817F"/>
	</linearGradient>
	<path class="st37" d="M51.37,91.57c0,0,2.29,0.82,3.31,0.57c1.02-0.24,1.55-2.47,1.55-2.74c0-0.28-2.92-2.22-2.92-2.22l3.7,1.87
		l3.63-4.28c0,0-2.03-2.64-4.92-4.53c0,0,2.96,1.79,3.86,1.14c0.9-0.65,1.27-1.88,1.27-2.49c0-0.61-3.03-3.72-3.03-3.72
		s4.56,3.73,4.93,4.36c0.38,0.63-2.15,9.68-2.15,9.68l-4.92,4.45C55.67,93.64,52.72,92.26,51.37,91.57z"/>
	<linearGradient id="SVGID_31_" gradientUnits="userSpaceOnUse" x1="190.1708" y1="67.2251" x2="190.1708" y2="62.5126">
		<stop  offset="0" style="stop-color:#8642A0"/>
		<stop  offset="1" style="stop-color:#4E37B7"/>
	</linearGradient>
	<path class="st38" d="M191.37,64.87c0,1.3-0.71,2.35-1.6,2.35c-0.22,0-0.43-0.07-0.62-0.18c-0.06-0.22-0.12-0.45-0.17-0.7
		c0,0,0.18-2.11,0.74-3.83h0.05C190.65,62.51,191.37,63.57,191.37,64.87z"/>
	<path class="st577" d="M189.79,52.83c0,0-1.82,9.68-0.82,14.63c0,0-0.59-7.44,1.67-12.75L189.79,52.83z"/>
	<linearGradient id="SVGID_32_" gradientUnits="userSpaceOnUse" x1="191.1492" y1="56.4716" x2="191.1492" y2="49.1881">
		<stop  offset="0" style="stop-color:#1C257B"/>
		<stop  offset="1" style="stop-color:#482C83"/>
	</linearGradient>
	<path class="st39" d="M189.44,56.47c0,0,0.22-3.26,0.71-6.04l0.33,1.14l0.95-2.39c0,0,2.45,1.49,0.95,4.69
		C192.37,53.88,190.8,53.7,189.44,56.47z"/>
	<path class="st577" d="M179.94,80.17c0,0,0.2,2.21,4.29,3.46c4.08,1.25,7.57,0.48,8.84-0.93c0,0-1.32,1.58-3.71,2.01
		c-2.39,0.44-6.02-0.13-7.73-1.44c-1.88-1.44-2.26-2.72-2.26-2.72L179.94,80.17z"/>
	<path class="st594" d="M178.18,81.11c0,0,1.99-1.02,3.75-1.32c0,0-1.88-0.35-2.75-0.14C178.31,79.87,178.18,81.11,178.18,81.11z"/>
	<g>
		<linearGradient id="SVGID_33_" gradientUnits="userSpaceOnUse" x1="186.8449" y1="78.886" x2="188.849" y2="72.7564">
			<stop  offset="0" style="stop-color:#FF8883"/>
			<stop  offset="1" style="stop-color:#E8868D"/>
		</linearGradient>
		<path class="st40" d="M182.37,75.08c0,0,2.83,0,5.44,0.16c2.61,0.16,5.01-0.16,5.99-0.87c0,0,0.16,3.05-3.1,4.9
			c0,0-1.31,0.49-2.67,0c0,0-1.25-1.36-3.59-1.8C184.43,77.47,182.26,76.82,182.37,75.08z"/>
		<linearGradient id="SVGID_34_" gradientUnits="userSpaceOnUse" x1="188.0793" y1="76.1685" x2="188.0793" y2="70.0781">
			<stop  offset="0" style="stop-color:#FF8883"/>
			<stop  offset="1" style="stop-color:#FFB1A4"/>
		</linearGradient>
		<path class="st41" d="M187.53,70.11c-3.37,0.47-5.17,4.97-5.17,4.97l6.37,1.09c2.88-0.16,5.06-1.8,5.06-1.8
			S190.91,69.64,187.53,70.11z"/>
		<path class="st105" d="M184.23,77.4c0,0,0.32-0.3,1.36-0.23s2.03,1.75,2.03,1.75S186.54,77.92,184.23,77.4z"/>
	</g>
	<g>
		
			<linearGradient id="SVGID_35_" gradientUnits="userSpaceOnUse" x1="95.5626" y1="186.6937" x2="95.5626" y2="139.6442" gradientTransform="matrix(0.8807 0.4736 -0.4736 0.8807 52.6796 -100.5205)">
			<stop  offset="0" style="stop-color:#1C257B"/>
			<stop  offset="1" style="stop-color:#482C83"/>
		</linearGradient>
		<path class="st42" d="M67.7,69.05L57.11,88.74c0,0-2.73,11.41-7.8,15.9c0,0-0.59,2.19,0.88,5.48l22.28-41.44
			C72.48,68.68,69.82,67.54,67.7,69.05z"/>
		
			<linearGradient id="SVGID_36_" gradientUnits="userSpaceOnUse" x1="446.6149" y1="186.8718" x2="446.6149" y2="139.8223" gradientTransform="matrix(-0.8807 -0.4736 -0.4736 0.8807 533.8101 158.0071)">
			<stop  offset="0" style="stop-color:#1C257B"/>
			<stop  offset="1" style="stop-color:#482C83"/>
		</linearGradient>
		<path class="st43" d="M74.8,72.87L64.22,92.56c0,0-8.01,8.57-8.96,15.27c0,0-1.5,1.69-5.05,2.29l22.28-41.44
			C72.48,68.68,74.89,70.27,74.8,72.87z"/>
		
			<linearGradient id="SVGID_37_" gradientUnits="userSpaceOnUse" x1="97.5784" y1="188.0222" x2="97.5784" y2="185.9575" gradientTransform="matrix(0.8807 0.4736 -0.4736 0.8807 52.6796 -100.5205)">
			<stop  offset="0" style="stop-color:#1C257B"/>
			<stop  offset="1" style="stop-color:#482C83"/>
		</linearGradient>
		<path style="fill:url(#SVGID_37_);" d="M49.78,109.05l1.53,0.82c0,0-1.3,1.64-1.74,1.41C49.13,111.05,49.78,109.05,49.78,109.05z"
			/>
		
			<linearGradient id="SVGID_38_" gradientUnits="userSpaceOnUse" x1="97.5783" y1="182.2869" x2="97.5783" y2="164.5946" gradientTransform="matrix(0.8807 0.4736 -0.4736 0.8807 52.6796 -100.5205)">
			<stop  offset="0" style="stop-color:#6A4FAC"/>
			<stop  offset="1" style="stop-color:#513689"/>
		</linearGradient>
		<path class="st45" d="M49.32,104.64l5.94,3.19c0,0,0.69-5.74,8.96-15.27l-7.1-3.82C57.11,88.74,55.47,97.57,49.32,104.64z"/>
	</g>
	<linearGradient id="SVGID_39_" gradientUnits="userSpaceOnUse" x1="67.424" y1="86.2731" x2="67.424" y2="63.4309">
		<stop  offset="0.016" style="stop-color:#FFA58B"/>
		<stop  offset="1" style="stop-color:#FF898E"/>
	</linearGradient>
	<path class="st46" d="M76.32,84.29c0,0-3.48-4.31-6.53-9.1c-3.05-4.79-8.54-12.51-10.42-11.7c-1.88,0.82-0.24,5.71,1.47,8.81
		c1.71,3.1,3.92,4.24,4.9,5.88s3.84,7.9,3.84,7.9S74,87.14,76.32,84.29z"/>
	<linearGradient id="SVGID_40_" gradientUnits="userSpaceOnUse" x1="239.7361" y1="208.4584" x2="239.7361" y2="201.198">
		<stop  offset="0" style="stop-color:#1C257B"/>
		<stop  offset="1" style="stop-color:#482C83"/>
	</linearGradient>
	<path class="st47" d="M238.7,201.43c0,0-1.38,6.6-0.79,7.01c0.6,0.41,3.78-7.24,3.78-7.24L238.7,201.43z"/>
	<g>
		<linearGradient id="SVGID_41_" gradientUnits="userSpaceOnUse" x1="257.147" y1="284.3246" x2="257.147" y2="208.4345">
			<stop  offset="0" style="stop-color:#1C257B"/>
			<stop  offset="1" style="stop-color:#482C83"/>
		</linearGradient>
		<path class="st48" d="M275.63,284.25c2.37-13.51-3.33-27.58-14.52-35.84c-21.87-16.15-23.39-39.72-23.4-39.96l0.21-0.01l0.13-0.01
			h0.09c0.01,0.23,1.52,23.61,23.23,39.64c11.31,8.35,17.08,22.58,14.69,36.25"/>
	</g>
	
		<linearGradient id="SVGID_42_" gradientUnits="userSpaceOnUse" x1="637.0233" y1="62.5411" x2="637.0233" y2="43.9824" gradientTransform="matrix(-0.983 0.1833 0.1833 0.983 771.8464 -84.5378)">
		<stop  offset="0.016" style="stop-color:#FFAC8B"/>
		<stop  offset="1" style="stop-color:#FF9595"/>
	</linearGradient>
	<path class="st49" d="M159.01,78.97c0,0-5.39-5.37-8.61-2.33c-3.82,3.61-1.12,11.55,3.11,14.98c3.68,2.98,7.63,2.19,8.45-1.36
		C161.96,90.26,163.08,82.24,159.01,78.97z"/>
	<path class="st577" d="M158.88,84.03c0,0-3.17-3.72-5.79-2.77c-2.62,0.96-1.87,5.13-1.87,5.13s0.03-3.05,1.73-3.51
		c1.7-0.46,2.74,1.74,2.74,1.74s-0.91,0.08-0.88,2.65c0.03,2.57,3.04,4.97,4.23,3.15C160.23,88.61,158.88,84.03,158.88,84.03z"/>
	<path class="st0" d="M177.79,66.92c0,0.32-0.26,0.57-0.57,0.57c-0.32,0-0.57-0.26-0.57-0.57c0-0.32,0.26-0.57,0.57-0.57
		C177.54,66.35,177.79,66.6,177.79,66.92z"/>
	<path class="st0" d="M193.07,64.94c0,0.32-0.26,0.58-0.58,0.58c-0.32,0-0.58-0.26-0.58-0.58s0.26-0.58,0.58-0.58
		C192.81,64.36,193.07,64.62,193.07,64.94z"/>
	<linearGradient id="SVGID_43_" gradientUnits="userSpaceOnUse" x1="164.5864" y1="103.9142" x2="187.8365" y2="103.9142">
		<stop  offset="0" style="stop-color:#CF6074"/>
		<stop  offset="1" style="stop-color:#FF817F"/>
	</linearGradient>
	<path class="st50" d="M164.59,99.2c0,0,8.48,16.47,23.25,15c0,0-1.32-5.78-1.17-9.9c0,0-6.88-0.18-11.98-2.29
		c-5.74-2.38-10.09-8.48-10.09-8.48L164.59,99.2z"/>
	<linearGradient id="SVGID_44_" gradientUnits="userSpaceOnUse" x1="71.5827" y1="108.4916" x2="71.5827" y2="90.4804">
		<stop  offset="0.016" style="stop-color:#FF997C"/>
		<stop  offset="1" style="stop-color:#FF898E"/>
	</linearGradient>
	<path class="st51" d="M76.32,108.27c-4.01,1.14-11.45-2.38-12.1-5.77c-0.65-3.39,4.38-12.57,8.86-12c4.49,0.57,6.65,3.88,5.71,6.86
		C77.72,100.77,78.6,107.62,76.32,108.27z"/>
	<linearGradient id="SVGID_45_" gradientUnits="userSpaceOnUse" x1="77.662" y1="98.0428" x2="81.8677" y2="98.0428">
		<stop  offset="0" style="stop-color:#CF6074"/>
		<stop  offset="1" style="stop-color:#FF817F"/>
	</linearGradient>
	<path class="st52" d="M81.87,92.06c0,0-4.46,7.43-4.05,13.55c0,0-1.17-8.87,2.99-15.12L81.87,92.06z"/>
	<linearGradient id="SVGID_46_" gradientUnits="userSpaceOnUse" x1="81.7316" y1="121.7749" x2="81.7316" y2="114.3381">
		<stop  offset="0" style="stop-color:#CF6074"/>
		<stop  offset="1" style="stop-color:#FF817F"/>
	</linearGradient>
	<path class="st53" d="M78.79,116.38c0,0,4.16-0.82,5.88-2.04l-4.91,7.44C79.76,121.77,79.11,118.81,78.79,116.38z"/>
	<linearGradient id="SVGID_47_" gradientUnits="userSpaceOnUse" x1="112.2855" y1="182.5829" x2="112.2855" y2="142.9857">
		<stop  offset="0" style="stop-color:#CF6074"/>
		<stop  offset="1" style="stop-color:#FF817F"/>
	</linearGradient>
	<path class="st54" d="M107.93,144.13c0,0,2.91,3.44,4.84,16.92c1.94,13.49-3.38,21.53-3.38,21.53s5.39-1.02,7-16.8
		c1.61-15.78-5.03-22.8-5.03-22.8L107.93,144.13z"/>
	<linearGradient id="SVGID_48_" gradientUnits="userSpaceOnUse" x1="175.1286" y1="240.5961" x2="175.1286" y2="112.2207">
		<stop  offset="0" style="stop-color:#8B8BE0"/>
		<stop  offset="1" style="stop-color:#A177B7"/>
	</linearGradient>
	<path style="opacity:0.62;fill:url(#SVGID_48_);" d="M211.1,228.03c0,0-1.96,5.07-22.36,6.86c-20.4,1.8-36.24,5.71-36.24,5.71
		s-1.23-4.07,1.02-7.18c0,0-3.47-3.1-3.31-4.25s7.68-14.2,5.72-23.34c-1.96-9.14-9.3-16.56-13.39-34.4c0,0-2.72-0.91-2.89-2.22
		c-0.16-1.3,1.2-3.43,1.2-3.43l0.49,0.93c0,0,9.3-5.33,6.8-27.86c-2.5-22.53-5.14-23.9-9.8-23.27c0,0,3.71-3.44,4.58-3.36
		c0,0,5.53,4.16,9.35,26.49c3.2,18.71,8.51,30.39,8.51,30.39s10.46,3.92,22.73,3.51c12.25-0.41,11-1.95,21.77-1.18
		c0,0-23.24,2.48-32.05,4.07c-8.81,1.59-16.86,4.94-16.86,4.94s7.47,17.39,6.25,28.98c-0.87,8.3-3.91,15.23-3.91,15.23
		s1.54,0.6,16.52-0.04c14.98-0.65,34.41-8.66,34.41-8.66s0,0.02,0.01,0.04c0.06,0.34,0.43,2.63-0.17,4.37c0,0-14.96,3.27-28.78,5.88
		c-13.82,2.61-21.98,6.86-21.98,6.86s2.82,1.58,24.35-0.76c21.53-2.33,27.75-3.77,28.85-8.14l0.01,0.02
		C212.06,225.89,211.1,228.03,211.1,228.03z"/>
	<linearGradient id="SVGID_49_" gradientUnits="userSpaceOnUse" x1="168.2371" y1="177.5101" x2="168.2371" y2="171.8049">
		<stop  offset="0" style="stop-color:#8B8BE0"/>
		<stop  offset="1" style="stop-color:#A177B7"/>
	</linearGradient>
	<path style="opacity:0.62;fill:url(#SVGID_49_);" d="M153.51,176.41c0,0,2.56-3.41,8.45-4.37c5.9-0.96,15.25,1.32,21,1.31
		c0,0-16.09,3.05-22.19,3.92C154.67,178.14,153.51,176.41,153.51,176.41z"/>
	<linearGradient id="SVGID_50_" gradientUnits="userSpaceOnUse" x1="207.2606" y1="148.6445" x2="207.2606" y2="114.8167">
		<stop  offset="0" style="stop-color:#8B8BE0"/>
		<stop  offset="1" style="stop-color:#A177B7"/>
	</linearGradient>
	<path style="opacity:0.62;fill:url(#SVGID_50_);" d="M203.75,116.37c0,0,5.88,10.29,6.97,32.27c0,0,0.98-17.38-5.01-33.83
		C205.71,114.82,204.77,115.06,203.75,116.37z"/>
	<linearGradient id="SVGID_51_" gradientUnits="userSpaceOnUse" x1="195.0594" y1="157.0239" x2="195.0594" y2="125.627">
		<stop  offset="0" style="stop-color:#8B8BE0"/>
		<stop  offset="1" style="stop-color:#A177B7"/>
	</linearGradient>
	<path style="opacity:0.62;fill:url(#SVGID_51_);" d="M202.93,125.63c0,0-1.79,12.91-15.75,31.4c0,0,9.14-7.41,12.34-14.58
		C202.93,134.82,202.93,125.63,202.93,125.63z"/>
	<linearGradient id="SVGID_52_" gradientUnits="userSpaceOnUse" x1="184.9594" y1="217.1396" x2="184.9594" y2="208.4584">
		<stop  offset="0" style="stop-color:#8B8BE0"/>
		<stop  offset="1" style="stop-color:#A177B7"/>
	</linearGradient>
	<path style="opacity:0.62;fill:url(#SVGID_52_);" d="M168.24,208.46c0,0,4.06,6.57,12.88,8.2c8.81,1.63,20.57-1.41,20.57-1.41
		s-11.32,1.96-19.81-0.87C173.39,211.54,168.24,208.46,168.24,208.46z"/>
	<linearGradient id="SVGID_53_" gradientUnits="userSpaceOnUse" x1="143.8486" y1="166.7127" x2="143.8486" y2="150.0007">
		<stop  offset="0" style="stop-color:#9D68C2"/>
		<stop  offset="1" style="stop-color:#90AEFF"/>
	</linearGradient>
	<path class="st60" d="M139.27,157.68c0,0,6.61-2.73,9.15-7.67c0,0-0.39,12.25-7.08,16.71
		C141.34,166.71,139.67,161.75,139.27,157.68z"/>
	<linearGradient id="SVGID_54_" gradientUnits="userSpaceOnUse" x1="194.0529" y1="270.0908" x2="194.0529" y2="244.5985">
		<stop  offset="0" style="stop-color:#8B8BE0"/>
		<stop  offset="1" style="stop-color:#A177B7"/>
	</linearGradient>
	<path style="opacity:0.62;fill:url(#SVGID_54_);" d="M184.38,270.09l3.48-12.73c0,0,6.05-8.76,15.87-12.76l-9.67,14.83
		L184.38,270.09z"/>
	<linearGradient id="SVGID_55_" gradientUnits="userSpaceOnUse" x1="150.1724" y1="281.9745" x2="150.1724" y2="255.9845">
		<stop  offset="0" style="stop-color:#8B8BE0"/>
		<stop  offset="1" style="stop-color:#A177B7"/>
	</linearGradient>
	<path style="opacity:0.62;fill:url(#SVGID_55_);" d="M150.17,281.97c-0.51-0.2-0.99-0.39-1.45-0.58c0.27-1.57,0.5-3.09,0.68-4.55
		c0.89-7.08,1.57-14.55,2.07-20.86C151.49,256.44,152.29,260.92,150.17,281.97z"/>
	<linearGradient id="SVGID_56_" gradientUnits="userSpaceOnUse" x1="186.1152" y1="285.9145" x2="186.1152" y2="270.6346">
		<stop  offset="0" style="stop-color:#8B8BE0"/>
		<stop  offset="1" style="stop-color:#A177B7"/>
	</linearGradient>
	<path style="opacity:0.62;fill:url(#SVGID_56_);" d="M186.71,280.98c0.32,1.52,0.68,3.14,1.04,4.82c-0.26,0.04-0.53,0.08-0.79,0.11
		c-0.46-3.01-0.9-5.78-1.28-8.14c-0.14-0.85-0.27-1.64-0.39-2.38c-0.05-0.32-0.11-0.63-0.16-0.94c-0.02-0.14-0.05-0.29-0.07-0.43
		c-0.03-0.19-0.06-0.37-0.09-0.55c-0.04-0.23-0.08-0.44-0.11-0.65c-0.02-0.15-0.05-0.29-0.07-0.43c-0.06-0.31-0.11-0.6-0.15-0.86
		c-0.02-0.09-0.03-0.19-0.04-0.28c-0.03-0.16-0.05-0.3-0.08-0.43c-0.01-0.07-0.02-0.13-0.03-0.19l0.25,1.15l0.19,0.85l0.26,1.23
		l0.24,1.16l0.14,0.67l0.31,1.45l0.57,2.64l0.25,1.19L186.71,280.98z"/>
	<linearGradient id="SVGID_57_" gradientUnits="userSpaceOnUse" x1="242.5983" y1="200.2256" x2="242.5983" y2="138.7184">
		<stop  offset="0" style="stop-color:#8642A0"/>
		<stop  offset="1" style="stop-color:#6456C0"/>
	</linearGradient>
	<path class="st64" d="M279.49,142.99c-32.98-4.25-46.38-2.28-46.38-2.28c-11.8,20.2-26.1,59.52-26.1,59.52l-1.31-2.11
		c8.49-25.67,26.78-59.15,26.78-59.15c22.42-1.2,46.14,2.39,46.14,2.39L279.49,142.99z"/>
	<linearGradient id="SVGID_58_" gradientUnits="userSpaceOnUse" x1="260.1738" y1="172.4224" x2="268.2957" y2="172.4224">
		<stop  offset="0" style="stop-color:#CF6074"/>
		<stop  offset="1" style="stop-color:#FF817F"/>
	</linearGradient>
	<path class="st65" d="M267.74,172.1c0,0-4.3,0.49-7.56,0.27c0,0,4.49,0.82,8.12,0.06L267.74,172.1z"/>
	<linearGradient id="SVGID_59_" gradientUnits="userSpaceOnUse" x1="156.3306" y1="118.2956" x2="156.3306" y2="118.0975">
		<stop  offset="0" style="stop-color:#9D68C2"/>
		<stop  offset="1" style="stop-color:#CCEDFF"/>
	</linearGradient>
	<path style="opacity:0.83;fill:url(#SVGID_59_);" d="M156.3,118.1c0.02,0.07,0.04,0.13,0.07,0.2
		C156.33,118.2,156.3,118.13,156.3,118.1z"/>
	<linearGradient id="SVGID_60_" gradientUnits="userSpaceOnUse" x1="184.1602" y1="225.0747" x2="184.1602" y2="211.8733">
		<stop  offset="0" style="stop-color:#B9ACF4"/>
		<stop  offset="1" style="stop-color:#E1D1F5"/>
	</linearGradient>
	<path class="st67" d="M158.7,224.65c0,0,7.96,0.26,24.35-2.66c17.43-3.1,23.64-10.12,23.64-10.12s2.5,1.63,2.94,4.07
		c0,0-14.79,6.24-26.57,7.77C171.27,225.26,161.09,225.36,158.7,224.65z"/>
	<linearGradient id="SVGID_61_" gradientUnits="userSpaceOnUse" x1="193.7334" y1="233.047" x2="193.7334" y2="223.1333">
		<stop  offset="0" style="stop-color:#B9ACF4"/>
		<stop  offset="1" style="stop-color:#E1D1F5"/>
	</linearGradient>
	<path class="st68" d="M175.68,233.05c0,0,9.87-1.59,20.89-4.28c11.02-2.69,15.02-5.63,15.02-5.63s1.82,3.54-5.42,5.59
		C198.93,230.76,175.68,233.05,175.68,233.05z"/>
	<linearGradient id="SVGID_62_" gradientUnits="userSpaceOnUse" x1="230.8042" y1="201.7655" x2="230.8042" y2="165.5669">
		<stop  offset="0" style="stop-color:#B9ACF4"/>
		<stop  offset="1" style="stop-color:#E1D1F5"/>
	</linearGradient>
	<path style="opacity:0.5;fill:url(#SVGID_62_);" d="M220.38,166.75l35.52,29.24l-1.66,3.48c0,0-22.42,4.62-47.23,0.76l-1.31-2.11
		c0,0,8.01-21.43,13.39-32.55L220.38,166.75z"/>
	<linearGradient id="SVGID_63_" gradientUnits="userSpaceOnUse" x1="152.4346" y1="283.0445" x2="152.4346" y2="264.8645">
		<stop  offset="0" style="stop-color:#8B8BE0"/>
		<stop  offset="1" style="stop-color:#A177B7"/>
	</linearGradient>
	<path style="opacity:0.62;fill:url(#SVGID_63_);" d="M153.17,283.04c-0.47-0.15-0.93-0.31-1.37-0.46
		c-0.38-10.35,0.55-17.72,0.55-17.72L153.17,283.04z"/>
	<linearGradient id="SVGID_64_" gradientUnits="userSpaceOnUse" x1="188.8652" y1="285.6446" x2="188.8652" y2="258.8846">
		<stop  offset="0" style="stop-color:#8B8BE0"/>
		<stop  offset="1" style="stop-color:#A177B7"/>
	</linearGradient>
	<path style="opacity:0.62;fill:url(#SVGID_64_);" d="M193.31,284.85c-1.52,0.31-3,0.57-4.46,0.79c-0.83-1.62-1.57-3.2-2.14-4.66
		l-0.01-0.01l-0.25-1.19l-0.57-2.64l-0.31-1.45l-0.14-0.67l-0.24-1.16l-0.26-1.23l-0.19-0.85l-0.25-1.15l-0.03-0.16l-0.03-0.16
		l0.09-0.36v-0.02l0.72-2.99l0.01-0.03l1.94-8.03l0.1,0.59l1.06,6.24v0.01l0.03,0.19l0.52,3.09
		C188.9,269,190.79,276.48,193.31,284.85z"/>
	<linearGradient id="SVGID_65_" gradientUnits="userSpaceOnUse" x1="188.8624" y1="126.8509" x2="188.8624" y2="114.2019">
		<stop  offset="0" style="stop-color:#3D2CB0"/>
		<stop  offset="1" style="stop-color:#0355C7"/>
	</linearGradient>
	<path class="st72" d="M188.98,114.29l-1.14-0.09c0,0,2.36,3.77,2.84,6.87c0.49,3.1-1.57,5.1-4.76,5.78c0,0,5.14-0.3,5.79-3.83
		C192.37,119.48,188.98,114.29,188.98,114.29z"/>
	<linearGradient id="SVGID_66_" gradientUnits="userSpaceOnUse" x1="156.0414" y1="63.2777" x2="153.4257" y2="46.7629">
		<stop  offset="0" style="stop-color:#5E3187"/>
		<stop  offset="0.3777" style="stop-color:#422271"/>
		<stop  offset="0.7555" style="stop-color:#2C1760"/>
		<stop  offset="1" style="stop-color:#24135A"/>
	</linearGradient>
	<path class="st73" d="M152.41,50.05c0,0-5.47,3.15-5.64,7.32c-0.16,4.16,3.36,6.85,3.36,6.85l0.48-2.25c0,0,2.69,0.44,5.22-0.49
		c2.53-0.93,3.7-1.96,3.7-1.96s-3.22-1.89-3.29-5.04c-0.08-3.15,5.49-8.82,5.49-8.82l-4.99,0.58
		C156.74,46.24,153.56,48.78,152.41,50.05z"/>
	<linearGradient id="SVGID_67_" gradientUnits="userSpaceOnUse" x1="181.2986" y1="46.0232" x2="181.2986" y2="31.1159">
		<stop  offset="0" style="stop-color:#8B8BE0"/>
		<stop  offset="1" style="stop-color:#A177B7"/>
	</linearGradient>
	<path style="opacity:0.84;fill:url(#SVGID_67_);" d="M178.2,46.02c0,0,5.01-5.44,6.02-9.25c1.01-3.81-3.01-5.66-3.01-5.66
		s1.42,1.58,1.14,5.22C182.08,39.98,178.2,46.02,178.2,46.02z"/>
	<linearGradient id="SVGID_68_" gradientUnits="userSpaceOnUse" x1="170.4589" y1="46.0232" x2="170.4589" y2="35.9031">
		<stop  offset="0" style="stop-color:#8B8BE0"/>
		<stop  offset="1" style="stop-color:#A177B7"/>
	</linearGradient>
	<path style="opacity:0.84;fill:url(#SVGID_68_);" d="M162.62,44.96c0,0,5.1-8.95,9.89-9.06c4.79-0.11,6.18,8.71,5.7,10.12
		c0,0-0.14-3.49-6.08-3.66C166.17,42.19,162.62,44.96,162.62,44.96z"/>
	<linearGradient id="SVGID_69_" gradientUnits="userSpaceOnUse" x1="191.0075" y1="45.2116" x2="191.0075" y2="38.6745">
		<stop  offset="0" style="stop-color:#8B8BE0"/>
		<stop  offset="1" style="stop-color:#A177B7"/>
	</linearGradient>
	<path style="opacity:0.84;fill:url(#SVGID_69_);" d="M189.06,43.25c0,0,2.62-3.35,3.1-4.57c0,0,0.66,2.95,0.78,5.07
		c0,0,0.38,0.98-2.88,1.47L189.06,43.25z"/>
	<linearGradient id="SVGID_70_" gradientUnits="userSpaceOnUse" x1="171.609" y1="77.2918" x2="171.609" y2="60.0097">
		<stop  offset="0" style="stop-color:#F2C7CC"/>
		<stop  offset="1" style="stop-color:#A177B7"/>
	</linearGradient>
	<path style="opacity:0.62;fill:url(#SVGID_70_);" d="M154.63,76.07l8.74-7.28c0,0,0.33,6.91,6.37,8.14
		c6.04,1.22,10.54-0.75,12.19-4.57c1.65-3.81,1.96-9.11,1.96-9.11s0.4-0.62,2.33-0.6c1.93,0.02,2.75,0.78,2.75,0.78v-3.29
		c0,0-4-0.62-5.74,0.79c0,0,0.6,10.6-3.18,13.22c-3.78,2.62-6.98,2.96-11.03,0.91c-3.13-1.59-4.44-6.63-3.47-9.55l-2.93,0.59
		l-8.38,9.84L154.63,76.07z"/>
	<g>
		<linearGradient id="SVGID_71_" gradientUnits="userSpaceOnUse" x1="173.4022" y1="75.5189" x2="175.4141" y2="58.7832">
			<stop  offset="0" style="stop-color:#1C257B"/>
			<stop  offset="1" style="stop-color:#482C83"/>
		</linearGradient>
		<path class="st79" d="M183.75,64.76c0-0.01,0-0.01,0-0.02c-0.03-0.5-0.09-0.99-0.17-1.45c-0.08-0.53-0.19-0.9-0.32-1.34v-0.12
			c-0.19-0.68-0.43-1.24-0.71-1.61c-0.32-0.43-1.03-0.69-1.97-0.82c-0.07-0.01-0.15-0.02-0.23-0.02c-0.3-0.04-0.62-0.05-0.96-0.06
			c-0.54,0-1.12,0.02-1.73,0.07c-0.23,0.02-0.47,0.05-0.7,0.08c-3.97,0.47-8.85,2.06-10.78,4.2c-0.25,0.28-0.46,0.58-0.62,0.89
			c-0.04,0.06-0.07,0.13-0.1,0.2c-0.02,0.04-0.03,0.07-0.04,0.1c-0.1,0.24-0.18,0.47-0.24,0.73c-0.06,0.24-0.1,0.49-0.12,0.74
			c-0.06,0.73,0.02,1.49,0.24,2.26c0.06,0.22,0.13,0.43,0.22,0.65v0.01c1.04,2.82,3.69,5.47,6.68,6.06
			c1.94,0.38,3.54,0.44,4.88,0.26c0.03-0.01,0.05-0.01,0.08-0.01c0.27-0.04,0.53-0.09,0.77-0.16c0.01,0,0.01,0,0.02,0
			c1.3-0.31,2.31-0.85,3.13-1.56c0.63-0.53,1.14-1.15,1.57-1.81C183.67,70.48,183.97,67.44,183.75,64.76z M177.7,60.22
			c0.7-0.05,1.35-0.06,1.93-0.04c1.13,0.05,1.97,0.25,2.31,0.61c0.65,0.69,1.12,2.26,1.26,4.12c0.07,0.96,0.05,1.99-0.07,3.02
			c0,0,0,0,0,0.01c-0.12,0.98-0.33,1.95-0.66,2.86c-0.23,0.64-0.57,1.21-1,1.7l-0.01,0.01c-0.73,0.86-1.72,1.5-2.86,1.93
			c-0.02,0.01-0.04,0.01-0.06,0.02c-0.69,0.25-1.43,0.42-2.2,0.51c-0.03,0.01-0.07,0.01-0.11,0.01c-0.15,0.02-0.3,0.03-0.45,0.04
			c-0.08,0-0.15,0.01-0.23,0.01c-0.13,0.01-0.24,0.02-0.38,0.02c-0.12,0-0.24,0-0.35-0.01c-0.12,0.01-0.23,0-0.35,0h-0.01
			c-0.82-0.04-1.65-0.17-2.45-0.38c-0.19-0.05-0.4-0.12-0.61-0.21c-0.1-0.04-0.21-0.09-0.32-0.14c-0.01-0.01-0.01-0.01-0.02-0.01
			c-1.44-0.7-3.12-2.13-4.16-3.98c-0.01,0-0.01-0.01-0.01-0.01c-0.81-1.42-1.23-3.07-0.85-4.8c0.57-2.64,5.42-4.41,9.65-5.05
			c0.28-0.04,0.56-0.08,0.84-0.12C176.93,60.29,177.32,60.25,177.7,60.22z"/>
		<linearGradient id="SVGID_72_" gradientUnits="userSpaceOnUse" x1="173.7131" y1="75.4869" x2="175.7247" y2="58.7545">
			<stop  offset="0" style="stop-color:#1C257B"/>
			<stop  offset="1" style="stop-color:#65459C"/>
		</linearGradient>
		<path class="st80" d="M169.87,73.33c0.16,0.14,0.47,0.38,0.94,0.64C170.5,73.79,170.19,73.57,169.87,73.33z M169.87,73.33
			c0.16,0.14,0.47,0.38,0.94,0.64C170.5,73.79,170.19,73.57,169.87,73.33z M169.87,73.33c0.16,0.14,0.47,0.38,0.94,0.64
			C170.5,73.79,170.19,73.57,169.87,73.33z M169.87,73.33c0.16,0.14,0.47,0.38,0.94,0.64C170.5,73.79,170.19,73.57,169.87,73.33z
			 M169.87,73.33c0.16,0.14,0.47,0.38,0.94,0.64C170.5,73.79,170.19,73.57,169.87,73.33z M169.87,73.33
			c0.16,0.14,0.47,0.38,0.94,0.64C170.5,73.79,170.19,73.57,169.87,73.33z M169.87,73.33c0.16,0.14,0.47,0.38,0.94,0.64
			C170.5,73.79,170.19,73.57,169.87,73.33z M183.89,63.25c0,0-0.01-0.04-0.02-0.12c-0.01-0.06-0.02-0.14-0.04-0.23
			c-0.02-0.14-0.05-0.27-0.08-0.39c-0.02-0.07-0.03-0.15-0.05-0.23c-0.08-0.35-0.18-0.68-0.28-0.98c-0.05-0.14-0.1-0.27-0.16-0.39
			c-0.12-0.28-0.25-0.53-0.4-0.72c-0.05-0.06-0.1-0.12-0.17-0.17c0,0,0,0,0-0.01h-0.01c-0.56-0.51-1.77-0.73-3.29-0.72h-0.01
			c-0.54,0-1.11,0.04-1.72,0.1c-0.23,0.02-0.47,0.05-0.7,0.08c-3.91,0.52-8.59,2.09-10.47,4.17c-0.5,0.55-0.82,1.19-1,1.88
			c-0.05,0.23-0.09,0.47-0.11,0.71c-0.01,0.03-0.01,0.06-0.01,0.1c-0.09,1.07,0.15,2.22,0.63,3.33c1.15,2.65,3.68,5.06,6.51,5.62
			c1.79,0.35,3.29,0.42,4.57,0.29c0.03-0.01,0.05-0.01,0.08-0.01c0.23-0.03,0.44-0.06,0.66-0.1h0.01c1.13-0.22,2.06-0.61,2.84-1.12
			c0,0,0.01,0,0.01-0.01c0,0,0.01,0,0.01-0.01h0.01c0.97-0.64,1.67-1.43,2.26-2.33C184.17,70.16,184.37,66.19,183.89,63.25z
			 M176.53,60.34c0.4-0.05,0.79-0.09,1.17-0.12c0.69-0.06,1.34-0.09,1.92-0.07c1.29,0.02,2.26,0.22,2.62,0.61
			c0.44,0.46,0.8,1.32,1.02,2.39v0.12c0.2,0.91,0.3,1.86,0.29,2.98c0,0.01,0,0.01,0,0.02c-0.02,1.49-0.26,3.08-0.77,4.49
			c-0.13,0.35-0.28,0.68-0.47,0.98c0,0.01-0.01,0.01-0.01,0.02c-0.01,0.01-0.01,0.02-0.02,0.03h-0.01
			c-0.01,0.02-0.02,0.03-0.03,0.05c-0.05,0.08-0.12,0.18-0.2,0.29c0,0.02-0.01,0.03-0.02,0.04c-0.29,0.39-0.62,0.73-1,1.03v0.01
			c-0.01,0.01-0.01,0.01-0.02,0.01c-0.04,0.04-0.09,0.07-0.13,0.1c-0.06,0.05-0.11,0.09-0.17,0.13c-0.4,0.3-0.85,0.55-1.33,0.75
			c-0.09,0.05-0.18,0.09-0.27,0.12c-0.85,0.35-1.79,0.56-2.76,0.65c-0.03,0.01-0.07,0.01-0.11,0.01c-1,0.08-2.03,0.03-3.03-0.16
			c-0.03,0-0.05-0.01-0.07-0.01c-0.04,0-0.08-0.01-0.11-0.02c-0.01,0-0.02,0-0.02,0c-0.02,0-0.03-0.01-0.05-0.02
			c-0.21-0.04-0.42-0.08-0.63-0.14c-0.39-0.1-0.82-0.28-1.26-0.52c-0.03-0.02-0.07-0.04-0.1-0.06c-0.05-0.03-0.1-0.05-0.15-0.08
			c-0.31-0.18-0.62-0.4-0.94-0.64c-0.02-0.01-0.04-0.03-0.06-0.04c-0.05-0.05-0.07-0.07-0.07-0.07c-0.85-0.67-1.68-1.56-2.32-2.57
			c-0.95-1.5-1.48-3.3-1.07-5.18c0.56-2.58,5.2-4.32,9.34-5.01C175.97,60.42,176.25,60.38,176.53,60.34z M169.87,73.33
			c0.16,0.14,0.47,0.38,0.94,0.64C170.5,73.79,170.19,73.57,169.87,73.33z M169.87,73.33c0.16,0.14,0.47,0.38,0.94,0.64
			C170.5,73.79,170.19,73.57,169.87,73.33z M169.87,73.33c0.16,0.14,0.47,0.38,0.94,0.64C170.5,73.79,170.19,73.57,169.87,73.33z
			 M169.87,73.33c0.16,0.14,0.47,0.38,0.94,0.64C170.5,73.79,170.19,73.57,169.87,73.33z M169.87,73.33
			c0.16,0.14,0.47,0.38,0.94,0.64C170.5,73.79,170.19,73.57,169.87,73.33z M169.87,73.33c0.16,0.14,0.47,0.38,0.94,0.64
			C170.5,73.79,170.19,73.57,169.87,73.33z"/>
		<linearGradient id="SVGID_73_" gradientUnits="userSpaceOnUse" x1="191.9477" y1="72.1365" x2="193.6495" y2="57.981">
			<stop  offset="0" style="stop-color:#1C257B"/>
			<stop  offset="1" style="stop-color:#482C83"/>
		</linearGradient>
		<path class="st81" d="M197.51,62.07v-0.09c-0.04-1.38-0.19-2.47-0.46-2.92c-0.22-0.37-0.69-0.62-1.3-0.78
			c-0.41-0.11-0.89-0.17-1.4-0.2c-0.24-0.01-0.5-0.01-0.78,0c-0.23,0-0.46,0.01-0.69,0.02c-0.05,0.01-0.1,0.01-0.14,0.01
			c-1.29,0.11-2.55,0.38-3.29,0.74c-0.14,0.07-0.26,0.14-0.36,0.21c-0.06,0.05-0.12,0.12-0.17,0.23c-0.01,0-0.01,0.01-0.01,0.01
			c-0.02,0.07-0.05,0.15-0.08,0.25v0.01c-0.03,0.11-0.06,0.24-0.08,0.39c-0.01,0.05-0.02,0.1-0.03,0.16
			c-0.01,0.16-0.03,0.34-0.04,0.53c-0.03,0.53-0.02,1.15,0.02,1.84v0.03c0,0.01,0,0.01,0,0.02v0.02c0.02,0.24,0.04,0.47,0.07,0.73
			c0.04,0.34,0.09,0.66,0.15,1.03v0.08c0,0.01,0,0.01,0,0.02c0,0.01,0,0.01,0,0.02s0,0.01,0,0.02s0,0.01,0,0.02v0.15
			c0.03,0.14,0.06,0.26,0.1,0.41v0.05c0.02,0.11,0.04,0.23,0.07,0.35c0.04,0.23,0.09,0.47,0.14,0.7c0.08,0.35,0.17,0.71,0.27,1.05
			c0.04,0.13,0.07,0.25,0.12,0.37v0.01c0.06,0.23,0.14,0.46,0.22,0.68c0.02,0.06,0.04,0.11,0.07,0.17l-0.01,0.01l0.01,0.01
			c0.14,0.39,0.3,0.76,0.47,1.11c0.23,0.48,0.49,0.91,0.77,1.29c0.96,1.27,2.16,1.58,3.1,1.52c0.02,0.01,0.04,0.01,0.05,0
			c0.58-0.04,1.06-0.22,1.31-0.4c0.52-0.36,0.93-1.4,1.25-2.75c0.13-0.58,0.24-1.23,0.34-1.9c0.02-0.16,0.05-0.32,0.07-0.49
			C197.46,65.21,197.55,63.5,197.51,62.07z M197.16,64.58c-0.1,1.49-0.32,3.01-0.6,4.16c-0.1,0.38-0.2,0.71-0.3,1
			c-0.27,0.76-0.69,1.31-1.2,1.63c-0.02,0.01-0.04,0.02-0.06,0.03c-0.08,0.05-0.16,0.09-0.24,0.12c-0.2,0.09-0.4,0.14-0.62,0.15
			c-0.01,0-0.01,0.01-0.02,0.01c-0.06,0-0.12,0-0.18-0.01c-0.08,0.01-0.16,0-0.24-0.01c-0.01,0.01-0.02,0-0.03,0
			c-0.06-0.01-0.12-0.02-0.18-0.03c-0.56-0.12-1.16-0.44-1.76-0.99c-0.13-0.12-0.25-0.27-0.37-0.45c-0.24-0.35-0.47-0.8-0.67-1.33
			h-0.01c-0.02-0.04-0.03-0.08-0.05-0.13c-0.07-0.17-0.13-0.35-0.2-0.53c-0.11-0.33-0.22-0.68-0.32-1.04
			c-0.03-0.1-0.06-0.21-0.08-0.31c-0.1-0.38-0.19-0.76-0.28-1.15c-0.14-0.7-0.26-1.4-0.33-2.08c0-0.01,0-0.01,0-0.02
			c-0.06-0.42-0.09-0.85-0.11-1.24c-0.05-1.13,0.05-2.06,0.36-2.52c0.44-0.67,1.74-1.11,3.13-1.22c0.04-0.01,0.09-0.01,0.14-0.01
			c0.12-0.01,0.25-0.01,0.37-0.01c0.13-0.01,0.25-0.01,0.37-0.01c1.15,0.03,2.23,0.32,2.76,0.9
			C197.13,60.25,197.29,62.38,197.16,64.58z"/>
		<linearGradient id="SVGID_74_" gradientUnits="userSpaceOnUse" x1="192.2962" y1="72.1326" x2="193.9965" y2="57.989">
			<stop  offset="0" style="stop-color:#1C257B"/>
			<stop  offset="1" style="stop-color:#65459C"/>
		</linearGradient>
		<path class="st82" d="M197.4,59.06c-0.27-0.44-0.89-0.71-1.67-0.86c0,0-0.01,0-0.02,0c-0.04-0.01-0.07-0.02-0.11-0.02
			c-0.08-0.01-0.19-0.03-0.33-0.04s-0.3-0.03-0.5-0.04c-0.06-0.01-0.13-0.01-0.2-0.01c-0.07-0.01-0.15-0.01-0.22-0.01
			c-0.24-0.01-0.5-0.01-0.78,0c-0.04,0-0.09,0-0.13,0.01c-0.12,0.01-0.24,0.01-0.36,0.02c-0.06,0.01-0.13,0.01-0.19,0.02
			c-0.05,0-0.1,0.01-0.15,0.02c-0.36,0.03-0.7,0.08-1.04,0.14c-0.2,0.03-0.4,0.07-0.6,0.13c-0.27,0.06-0.55,0.14-0.82,0.24
			c-0.35,0.12-0.65,0.25-0.85,0.4c-0.01,0.01-0.01,0.01-0.01,0.01v0.01l-0.01,0.01c-0.11,0.09-0.19,0.28-0.25,0.54
			c-0.07,0.29-0.12,0.68-0.14,1.14c-0.01,0.4-0.01,0.86,0.01,1.35v0.04c0,0.01,0,0.01,0,0.02c0.02,0.42,0.06,0.86,0.12,1.33v0.01
			c0.02,0.28,0.06,0.57,0.11,0.86v0.01c0.07,0.49,0.16,1,0.27,1.5c0.09,0.42,0.19,0.84,0.31,1.25c0,0.03,0.01,0.05,0.02,0.07
			c0.1,0.36,0.21,0.7,0.33,1.04c0.05,0.14,0.1,0.27,0.15,0.4c0.01,0.03,0.02,0.04,0.02,0.06v0.01c0.18,0.45,0.38,0.87,0.6,1.26v0.01
			c0.16,0.31,0.35,0.58,0.54,0.84c0.85,1.12,1.88,1.49,2.75,1.52c0.02,0.01,0.04,0.01,0.05,0c0.74,0.03,1.36-0.19,1.66-0.4
			c0.47-0.33,0.85-1.21,1.14-2.36C198,66.15,198.13,60.27,197.4,59.06z M197.2,67.3c-0.11,0.67-0.25,1.3-0.39,1.82v0.01
			c-0.07,0.23-0.13,0.42-0.2,0.61c-0.05,0.15-0.12,0.3-0.19,0.43c0,0.01-0.01,0.02-0.02,0.04c-0.1,0.22-0.23,0.42-0.38,0.59v0.01
			c-0.46,0.59-1.08,0.89-1.76,0.86c-0.03,0.01-0.07,0.01-0.1,0.01c-0.01-0.01-0.01-0.01-0.02-0.01c-0.28-0.02-0.56-0.09-0.86-0.22
			c-0.01,0-0.02,0-0.03-0.01c-0.28-0.12-0.56-0.3-0.85-0.53c-0.01-0.01-0.02-0.01-0.03-0.02c-0.03-0.02-0.06-0.05-0.09-0.08
			c-0.03-0.02-0.06-0.04-0.09-0.06c-0.07-0.07-0.11-0.11-0.11-0.11c-0.09-0.09-0.19-0.2-0.28-0.32c-0.2-0.27-0.4-0.62-0.59-1.03
			v-0.01c-0.04-0.1-0.09-0.2-0.13-0.31c-0.03-0.06-0.05-0.12-0.08-0.19c-0.09-0.22-0.17-0.45-0.25-0.69
			c-0.12-0.34-0.23-0.7-0.33-1.07c-0.05-0.17-0.09-0.35-0.14-0.52c-0.08-0.35-0.16-0.7-0.23-1.05c-0.19-0.95-0.33-1.91-0.38-2.77
			c-0.05-0.82-0.03-1.55,0.08-2.1c0-0.01,0-0.01,0-0.02c0.05-0.3,0.14-0.54,0.26-0.72c0.07-0.11,0.16-0.21,0.28-0.3l0.01-0.01
			c0.21-0.18,0.48-0.33,0.8-0.46h0.01l0.01-0.01c0.49-0.19,1.06-0.33,1.68-0.41c0.05-0.01,0.1-0.01,0.15-0.01
			c0.12-0.01,0.24-0.03,0.36-0.04c0.13-0.01,0.25-0.01,0.37-0.01c1.28-0.02,2.52,0.25,3.11,0.9c0.41,0.45,0.63,1.36,0.72,2.49v0.09
			c0.1,1.43-0.01,3.19-0.24,4.74C197.25,66.98,197.22,67.14,197.2,67.3z"/>
		<linearGradient id="SVGID_75_" gradientUnits="userSpaceOnUse" x1="185.7076" y1="61.5788" x2="185.9925" y2="59.2092">
			<stop  offset="0" style="stop-color:#1C257B"/>
			<stop  offset="1" style="stop-color:#65459C"/>
		</linearGradient>
		<path class="st83" d="M183.41,61.3c0,0,2.51-1.87,5.61-0.53c0,0-0.06-0.66,0.14-1.14c0,0-2.21-0.66-6.48,0.38
			C182.68,60.01,183.26,60.91,183.41,61.3z"/>
		<linearGradient id="SVGID_76_" gradientUnits="userSpaceOnUse" x1="158.5496" y1="76.4608" x2="160.0591" y2="63.9045">
			<stop  offset="0" style="stop-color:#1C257B"/>
			<stop  offset="1" style="stop-color:#65459C"/>
		</linearGradient>
		<path class="st84" d="M165.56,64.57l-2.93,0.95l-9.56,10.21c0,0,0.32-0.09,1.18,0.23l8.56-9.06c0,0,1.41-0.74,2.41-0.54
			C165.22,66.35,165.17,65.17,165.56,64.57z"/>
		<linearGradient id="SVGID_77_" gradientUnits="userSpaceOnUse" x1="160.5558" y1="70.2543" x2="160.5558" y2="66.7146">
			<stop  offset="0" style="stop-color:#8642A0"/>
			<stop  offset="1" style="stop-color:#6456C0"/>
		</linearGradient>
		<polygon class="st85" points="161.5,66.71 161.58,68.18 159.62,70.25 159.53,68.81 		"/>
		<path class="st640" d="M183.43,59.84l0.5,0.52c0,0,1.48-0.33,2.9-0.34c1.41-0.01,1.77,0.16,1.77,0.16l0.37-0.59
			C188.97,59.59,186.47,59.05,183.43,59.84z"/>
		<path class="st640" d="M190.27,58.66l0.31,0.4c0,0,1.99-1.17,5.23-0.4l-0.08-0.46C195.73,58.2,193.01,57.71,190.27,58.66z"/>
		<path class="st640" d="M177.79,59.89l0.15-0.46c0,0,3.67-0.38,4.66,0.63c1,1.02,1.28,3.19,1.28,3.19l-0.45,0.06
			c0,0-0.35-2.3-1.46-2.98C180.84,59.64,177.79,59.89,177.79,59.89z"/>
		<path class="st641" d="M169.74,73.22c0,0,1.93,2.41,6.33,2.04c4.41-0.37,6.29-3.61,6.29-3.61s-2.08,3.26-6.39,3.4
			C171.66,75.19,169.74,73.22,169.74,73.22z"/>
		<path class="st641" d="M192.08,70.64c0,0,1.2,1.34,2.54,1.16c1.35-0.18,1.85-1.72,1.85-1.72s-0.77,1.56-2.2,1.48
			C192.85,71.48,192.08,70.64,192.08,70.64z"/>
		<path class="st641" d="M174.42,75.02c0,0,0.34,0.26,1.29,0.28c0.95,0.02,1.95-0.47,1.95-0.47S175.8,75.14,174.42,75.02z"/>
		<path class="st641" d="M193.09,71.41c0,0,1.06,0.38,1.91,0c0.85-0.38,1.03-0.69,1.03-0.69s-0.03,0.97-1.07,1.09
			C193.92,71.94,193.09,71.41,193.09,71.41z"/>
		<path class="st641" d="M171.06,74.3c0,0-0.16-3.53,4.02-6c4.19-2.47,8.05-0.37,8.05-0.37s0.13,3.07-2.12,5.19
			C178.75,75.24,173.84,75.35,171.06,74.3z"/>
		<path class="st641" d="M191.21,69.29c0,0,2.82-3.59,5.99-4.72c0,0-0.07,4.86-1.17,6.15C194.93,72.01,192.83,72.43,191.21,69.29z"
			/>
		<linearGradient id="SVGID_78_" gradientUnits="userSpaceOnUse" x1="168.3309" y1="71.0037" x2="168.3309" y2="63.207">
			<stop  offset="0" style="stop-color:#000000"/>
			<stop  offset="1" style="stop-color:#E1D1F5"/>
		</linearGradient>
		<path class="st86" d="M166.47,66.61c0,0,0.45,2.86,2.08,4.4l1.65-0.39c0,0-1.28-4.94-1.3-7.4
			C168.89,63.21,166.79,64.46,166.47,66.61z"/>
	</g>
	<linearGradient id="SVGID_79_" gradientUnits="userSpaceOnUse" x1="178.8941" y1="104.3029" x2="178.8941" y2="90.5118">
		<stop  offset="0.016" style="stop-color:#FFA58B"/>
		<stop  offset="1" style="stop-color:#FF898E"/>
	</linearGradient>
	<path style="fill:url(#SVGID_79_);" d="M195.06,102.1c-0.31,0.37-0.64,0.65-0.99,0.84c-4.9,2.51-17.95,1.85-25.03-4.35
		c-2.69-2.36-4.7-5.19-6.31-8.07c0.34,0.44,3.96,6.62,12.51,10.03C184.19,104.1,194.43,103,195.06,102.1z"/>
</g>
<path class="st644" d="M151.8,282.58c0.44,0.15,0.9,0.31,1.37,0.46"/>
</svg>
