<svg width="169" height="51" viewBox="0 0 169 51" fill="none" xmlns="http://www.w3.org/2000/svg">
<path d="M0 6.67295C0 2.98758 2.98758 0 6.67295 0H162.153C165.838 0 168.826 2.98758 168.826 6.67295V43.3742C168.826 47.0595 165.838 50.0471 162.153 50.0471H6.67295C2.98758 50.0471 0 47.0595 0 43.3742V6.67295Z" fill="black"/>
<path fill-rule="evenodd" clip-rule="evenodd" d="M0 43.3742V6.67295C0 2.98758 2.98758 0 6.67295 0H162.153C165.838 0 168.826 2.98758 168.826 6.67295V43.3742C168.826 47.0595 165.838 50.0471 162.153 50.0471H6.67295C2.98758 50.0471 0 47.0595 0 43.3742ZM1.00094 43.3742V6.67295C1.00094 3.54039 3.54039 1.00094 6.67295 1.00094H162.153C165.285 1.00094 167.825 3.54039 167.825 6.67295V43.3742C167.825 46.5067 165.285 49.0462 162.153 49.0462H6.67295C3.54039 49.0462 1.00094 46.5067 1.00094 43.3742Z" fill="white" fill-opacity="0.3"/>
<path d="M38.1502 26.043C38.133 23.1098 39.462 20.8991 42.1458 19.269C40.6448 17.1186 38.3739 15.9358 35.3804 15.7079C32.5461 15.4842 29.4452 17.3594 28.3097 17.3594C27.1098 17.3594 24.3658 15.7853 22.2067 15.7853C17.7509 15.8541 13.0156 19.3379 13.0156 26.4258C13.0156 28.5203 13.3984 30.6837 14.164 32.9116C15.1876 35.8448 18.8778 43.0317 22.7271 42.9155C24.7399 42.8682 26.1636 41.4876 28.7828 41.4876C31.3247 41.4876 32.6407 42.9155 34.8858 42.9155C38.7696 42.8596 42.1071 36.3265 43.0791 33.3847C37.8707 30.9289 38.1502 26.1935 38.1502 26.043ZM33.63 12.9252C35.8105 10.336 35.6127 7.97912 35.5482 7.13184C33.6214 7.24366 31.3935 8.44362 30.1247 9.91884C28.7269 11.5016 27.9054 13.4585 28.0818 15.6649C30.1634 15.824 32.0644 14.7531 33.63 12.9252Z" fill="white"/>
<path d="M61.6431 36.2168H59.4341L58.2241 32.3969H54.0181L52.8655 36.2168H50.7148L54.8819 23.2121H57.4556L61.6431 36.2168ZM57.8593 30.7943L56.765 27.3985C56.6493 27.0516 56.4324 26.2346 56.1123 24.9486H56.0734C55.946 25.5017 55.7408 26.3187 55.4587 27.3985L54.3839 30.7943H57.8593Z" fill="white"/>
<path d="M72.3593 31.4129C72.3593 33.0077 71.9304 34.2683 71.0724 35.1937C70.304 36.0175 69.3498 36.4289 68.2108 36.4289C66.9813 36.4289 66.0981 35.9853 65.5602 35.098H65.5213V40.0378H63.4475V29.9266C63.4475 28.924 63.4212 27.895 63.3706 26.8396H65.1944L65.3102 28.3259H65.3491C66.0407 27.206 67.0902 26.6471 68.4987 26.6471C69.5998 26.6471 70.519 27.0839 71.2543 27.9585C71.9916 28.8341 72.3593 29.9852 72.3593 31.4129ZM70.2466 31.4891C70.2466 30.5764 70.0424 29.824 69.6319 29.2318C69.1835 28.6142 68.5814 28.3054 67.8266 28.3054C67.3149 28.3054 66.85 28.4774 66.4346 28.8165C66.0183 29.1585 65.7459 29.6051 65.6185 30.1582C65.5543 30.4162 65.5222 30.6272 65.5222 30.7934V32.3569C65.5222 33.039 65.7304 33.6146 66.1467 34.0846C66.563 34.5546 67.1038 34.7892 67.7692 34.7892C68.5502 34.7892 69.1582 34.4862 69.593 33.8823C70.0287 33.2774 70.2466 32.48 70.2466 31.4891Z" fill="white"/>
<path d="M83.0954 31.4129C83.0954 33.0077 82.6664 34.2683 81.8075 35.1937C81.0401 36.0175 80.0858 36.4289 78.9468 36.4289C77.7173 36.4289 76.8341 35.9853 76.2972 35.098H76.2583V40.0378H74.1845V29.9266C74.1845 28.924 74.1582 27.895 74.1076 26.8396H75.9314L76.0472 28.3259H76.0861C76.7767 27.206 77.8263 26.6471 79.2357 26.6471C80.3358 26.6471 81.255 27.0839 81.9923 27.9585C82.7267 28.8341 83.0954 29.9852 83.0954 31.4129ZM80.9827 31.4891C80.9827 30.5764 80.7774 29.824 80.3669 29.2318C79.9185 28.6142 79.3184 28.3054 78.5626 28.3054C78.05 28.3054 77.586 28.4774 77.1697 28.8165C76.7534 29.1585 76.482 29.6051 76.3546 30.1582C76.2913 30.4162 76.2583 30.6272 76.2583 30.7934V32.3569C76.2583 33.039 76.4664 33.6146 76.8808 34.0846C77.2971 34.5537 77.8379 34.7892 78.5052 34.7892C79.2863 34.7892 79.8942 34.4862 80.329 33.8823C80.7648 33.2774 80.9827 32.48 80.9827 31.4891Z" fill="white"/>
<path d="M95.0987 32.57C95.0987 33.6762 94.7164 34.5762 93.9489 35.271C93.1056 36.0303 91.9315 36.4095 90.4229 36.4095C89.03 36.4095 87.9133 36.1398 87.0681 35.5994L87.5486 33.8629C88.459 34.416 89.458 34.6935 90.5464 34.6935C91.3275 34.6935 91.9354 34.5156 92.3722 34.1619C92.807 33.8081 93.0239 33.3332 93.0239 32.741C93.0239 32.2133 92.8449 31.7687 92.486 31.4081C92.129 31.0475 91.5327 30.7124 90.7001 30.4026C88.4337 29.5534 87.3015 28.3094 87.3015 26.6736C87.3015 25.6045 87.6984 24.7279 88.4931 24.0458C89.2848 23.3628 90.3412 23.0217 91.6621 23.0217C92.84 23.0217 93.8186 23.2279 94.5997 23.6393L94.0812 25.3377C93.3517 24.939 92.5268 24.7397 91.6037 24.7397C90.8742 24.7397 90.3042 24.9204 89.8957 25.2801C89.5504 25.6016 89.3772 25.9934 89.3772 26.4576C89.3772 26.9716 89.5747 27.3967 89.9716 27.7309C90.3169 28.0397 90.9443 28.3739 91.8547 28.7345C92.9684 29.185 93.7865 29.7117 94.3127 30.3156C94.837 30.9176 95.0987 31.671 95.0987 32.57Z" fill="white"/>
<path d="M101.955 28.4033H99.669V32.9561C99.669 34.1141 100.072 34.6926 100.879 34.6926C101.25 34.6926 101.557 34.6604 101.8 34.5959L101.858 36.178C101.449 36.3314 100.911 36.4086 100.245 36.4086C99.4259 36.4086 98.7858 36.1575 98.3238 35.6561C97.8637 35.1539 97.6322 34.3115 97.6322 33.1281V28.4014H96.2704V26.8378H97.6322V25.1209L99.669 24.5033V26.8378H101.955V28.4033Z" fill="white"/>
<path d="M112.269 31.451C112.269 32.8924 111.858 34.0758 111.039 35.0012C110.18 35.954 109.04 36.4289 107.619 36.4289C106.249 36.4289 105.159 35.9726 104.346 35.0599C103.533 34.1471 103.126 32.995 103.126 31.6064C103.126 30.1533 103.544 28.9631 104.384 28.0376C105.221 27.1113 106.352 26.6481 107.773 26.6481C109.142 26.6481 110.244 27.1044 111.076 28.0181C111.872 28.9044 112.269 30.0487 112.269 31.451ZM110.117 31.5185C110.117 30.6536 109.933 29.9119 109.561 29.2934C109.126 28.5448 108.504 28.1715 107.699 28.1715C106.865 28.1715 106.232 28.5458 105.797 29.2934C105.425 29.9129 105.241 30.6663 105.241 31.5575C105.241 32.4224 105.425 33.1641 105.797 33.7817C106.246 34.5302 106.872 34.9035 107.68 34.9035C108.472 34.9035 109.094 34.5224 109.542 33.7621C109.924 33.1318 110.117 32.3823 110.117 31.5185Z" fill="white"/>
<path d="M119.009 28.6718C118.804 28.6337 118.585 28.6142 118.356 28.6142C117.626 28.6142 117.062 28.8907 116.665 29.4448C116.32 29.9334 116.147 30.551 116.147 31.2966V36.2169H114.074L114.093 29.7927C114.093 28.7119 114.067 27.7279 114.015 26.8406H115.822L115.897 28.6347H115.955C116.174 28.0181 116.519 27.5217 116.992 27.1494C117.454 26.8142 117.953 26.6471 118.491 26.6471C118.682 26.6471 118.855 26.6608 119.009 26.6852V28.6718Z" fill="white"/>
<path d="M128.283 31.0846C128.283 31.4579 128.259 31.7726 128.207 32.0296H121.986C122.01 32.956 122.311 33.6645 122.889 34.1531C123.413 34.5899 124.091 34.8088 124.924 34.8088C125.845 34.8088 126.685 34.6612 127.441 34.3651L127.766 35.8114C126.883 36.1984 125.84 36.3909 124.637 36.3909C123.189 36.3909 122.053 35.9629 121.226 35.1078C120.402 34.2527 119.988 33.1045 119.988 31.6641C119.988 30.2501 120.372 29.0726 121.142 28.1335C121.947 27.1309 123.036 26.6295 124.405 26.6295C125.75 26.6295 126.769 27.1309 127.46 28.1335C128.008 28.9299 128.283 29.9149 128.283 31.0846ZM126.306 30.5442C126.319 29.9266 126.184 29.3931 125.903 28.9426C125.544 28.3631 124.993 28.0739 124.251 28.0739C123.573 28.0739 123.021 28.3563 122.6 28.9231C122.255 29.3735 122.049 29.9139 121.986 30.5433H126.306V30.5442Z" fill="white"/>
<path d="M57.4375 14.4669C57.4375 15.8726 57.0178 16.9307 56.1797 17.6414C55.4034 18.297 54.3002 18.6255 52.8713 18.6255C52.1627 18.6255 51.5564 18.5944 51.0488 18.5323V10.8517C51.711 10.7442 52.4243 10.6893 53.1946 10.6893C54.5558 10.6893 55.5817 10.9866 56.2736 11.5814C57.0487 12.2538 57.4375 13.2152 57.4375 14.4669ZM56.1238 14.5015C56.1238 13.5903 55.8837 12.8916 55.4034 12.4043C54.9231 11.9182 54.2218 11.6746 53.298 11.6746C52.9057 11.6746 52.5717 11.7008 52.2947 11.7558V17.5948C52.4481 17.6187 52.7286 17.6294 53.1364 17.6294C54.0898 17.6294 54.8257 17.3631 55.344 16.8304C55.8623 16.2978 56.1238 15.5215 56.1238 14.5015Z" fill="white"/>
<path d="M64.4028 15.6948C64.4028 16.5607 64.1567 17.2701 63.6645 17.8267C63.1486 18.3988 62.465 18.6842 61.6114 18.6842C60.7888 18.6842 60.1338 18.4107 59.6452 17.8613C59.1578 17.3131 58.914 16.6216 58.914 15.788C58.914 14.9161 59.1649 14.2008 59.6689 13.6454C60.173 13.09 60.8506 12.8118 61.7042 12.8118C62.5268 12.8118 63.1878 13.0853 63.6883 13.6335C64.1638 14.1661 64.4028 14.854 64.4028 15.6948ZM63.1105 15.7354C63.1105 15.2159 62.9988 14.7704 62.7765 14.399C62.5149 13.9499 62.1428 13.7254 61.659 13.7254C61.1585 13.7254 60.7781 13.9499 60.5166 14.399C60.2931 14.7704 60.1825 15.2231 60.1825 15.7581C60.1825 16.2777 60.2942 16.7231 60.5166 17.0946C60.7864 17.5436 61.1621 17.7682 61.6471 17.7682C62.1226 17.7682 62.4959 17.5401 62.7646 17.0826C62.9952 16.704 63.1105 16.255 63.1105 15.7354Z" fill="white"/>
<path d="M73.7423 12.9264L71.9888 18.5563H70.8476L70.1212 16.1116C69.937 15.5013 69.7872 14.8946 69.6707 14.2926H69.6481C69.5399 14.9113 69.3901 15.5168 69.1975 16.1116L68.426 18.5563H67.2717L65.6228 12.9264H66.9031L67.5368 15.6028C67.6901 16.2358 67.8161 16.8389 67.9172 17.4098H67.9398C68.0325 16.9392 68.1859 16.3397 68.4022 15.6148L69.1975 12.9275H70.2128L70.9748 15.5574C71.1591 16.1988 71.3088 16.8162 71.4242 17.411H71.4586C71.543 16.8318 71.6702 16.2143 71.8391 15.5574L72.5191 12.9275H73.7423V12.9264Z" fill="white"/>
<path d="M80.2007 18.5564H78.9548V15.3317C78.9548 14.3381 78.5791 13.8412 77.8254 13.8412C77.4557 13.8412 77.1573 13.9774 76.9255 14.2509C76.6961 14.5244 76.5796 14.8468 76.5796 15.2159V18.5552H75.3337V14.5351C75.3337 14.0407 75.3183 13.5044 75.2885 12.924H76.3834L76.4417 13.8042H76.4762C76.6212 13.5307 76.8375 13.305 77.1217 13.1246C77.4593 12.9144 77.8373 12.8081 78.251 12.8081C78.7741 12.8081 79.2092 12.9777 79.5551 13.3181C79.9855 13.7349 80.2007 14.3572 80.2007 15.1836V18.5564Z" fill="white"/>
<path d="M83.6361 18.5563H82.3914V10.343H83.6361V18.5563Z" fill="white"/>
<path d="M90.971 15.6948C90.971 16.5607 90.7249 17.2701 90.2328 17.8267C89.7168 18.3988 89.0321 18.6842 88.1797 18.6842C87.3559 18.6842 86.7008 18.4107 86.2134 17.8613C85.726 17.3131 85.4823 16.6216 85.4823 15.788C85.4823 14.9161 85.7332 14.2008 86.2372 13.6454C86.7413 13.09 87.4189 12.8118 88.2713 12.8118C89.0951 12.8118 89.7549 13.0853 90.2566 13.6335C90.7321 14.1661 90.971 14.854 90.971 15.6948ZM89.6776 15.7354C89.6776 15.2159 89.5659 14.7704 89.3436 14.399C89.0832 13.9499 88.7099 13.7254 88.2273 13.7254C87.7256 13.7254 87.3452 13.9499 87.0848 14.399C86.8613 14.7704 86.7508 15.2231 86.7508 15.7581C86.7508 16.2777 86.8625 16.7231 87.0848 17.0946C87.3547 17.5436 87.7304 17.7682 88.2154 17.7682C88.6909 17.7682 89.063 17.5401 89.3317 17.0826C89.5635 16.704 89.6776 16.255 89.6776 15.7354Z" fill="white"/>
<path d="M97.0007 18.5564H95.8821L95.7893 17.9079H95.7548C95.3721 18.425 94.8264 18.6842 94.1179 18.6842C93.5889 18.6842 93.1609 18.5134 92.8387 18.1742C92.5463 17.8661 92.4 17.4827 92.4 17.0277C92.4 16.3398 92.6854 15.8155 93.2596 15.4524C93.8326 15.0893 94.6386 14.9114 95.6764 14.9197V14.8146C95.6764 14.073 95.2888 13.7027 94.5126 13.7027C93.9598 13.7027 93.4724 13.8425 93.0515 14.1195L92.7983 13.2979C93.319 12.9742 93.9621 12.8118 94.7206 12.8118C96.1852 12.8118 96.9199 13.5881 96.9199 15.1407V17.214C96.9199 17.7765 96.9472 18.2244 97.0007 18.5564ZM95.7073 16.6216V15.7534C94.333 15.7295 93.6459 16.1081 93.6459 16.888C93.6459 17.1818 93.7244 17.4015 93.8849 17.5484C94.0453 17.6953 94.2498 17.7682 94.4935 17.7682C94.767 17.7682 95.0225 17.681 95.2556 17.5078C95.4897 17.3334 95.6336 17.1125 95.6871 16.8414C95.7002 16.7805 95.7073 16.7064 95.7073 16.6216Z" fill="white"/>
<path d="M104.08 18.5563H102.974L102.916 17.6522H102.882C102.529 18.3401 101.927 18.6841 101.082 18.6841C100.406 18.6841 99.8442 18.4178 99.3984 17.8851C98.9526 17.3524 98.7303 16.6609 98.7303 15.8118C98.7303 14.9005 98.9716 14.1624 99.4566 13.5987C99.9262 13.0732 100.502 12.8105 101.186 12.8105C101.939 12.8105 102.465 13.0649 102.765 13.5748H102.789V10.343H104.036V17.0395C104.036 17.5877 104.05 18.0929 104.08 18.5563ZM102.789 16.182V15.2433C102.789 15.0809 102.777 14.9495 102.754 14.8492C102.684 14.5482 102.533 14.295 102.304 14.0908C102.072 13.8865 101.793 13.7838 101.47 13.7838C101.006 13.7838 100.642 13.969 100.374 14.3404C100.109 14.7118 99.975 15.186 99.975 15.7652C99.975 16.3218 100.102 16.7732 100.358 17.1207C100.628 17.491 100.991 17.6761 101.447 17.6761C101.856 17.6761 102.183 17.522 102.431 17.2127C102.671 16.9273 102.789 16.5833 102.789 16.182Z" fill="white"/>
<path d="M114.736 15.6948C114.736 16.5607 114.49 17.2701 113.997 17.8267C113.481 18.3988 112.799 18.6842 111.944 18.6842C111.123 18.6842 110.468 18.4107 109.978 17.8613C109.491 17.3131 109.247 16.6216 109.247 15.788C109.247 14.9161 109.498 14.2008 110.002 13.6454C110.506 13.09 111.184 12.8118 112.038 12.8118C112.86 12.8118 113.522 13.0853 114.021 13.6335C114.497 14.1661 114.736 14.854 114.736 15.6948ZM113.445 15.7354C113.445 15.2159 113.333 14.7704 113.111 14.399C112.848 13.9499 112.477 13.7254 111.992 13.7254C111.493 13.7254 111.112 13.9499 110.849 14.399C110.626 14.7704 110.515 15.2231 110.515 15.7581C110.515 16.2777 110.627 16.7231 110.849 17.0946C111.119 17.5436 111.495 17.7682 111.98 17.7682C112.456 17.7682 112.83 17.5401 113.099 17.0826C113.328 16.704 113.445 16.255 113.445 15.7354Z" fill="white"/>
<path d="M121.434 18.5564H120.19V15.3317C120.19 14.3381 119.814 13.8412 119.059 13.8412C118.689 13.8412 118.391 13.9774 118.16 14.2509C117.93 14.5244 117.814 14.8468 117.814 15.2159V18.5552H116.567V14.5351C116.567 14.0407 116.553 13.5044 116.523 12.924H117.617L117.675 13.8042H117.71C117.856 13.5307 118.072 13.305 118.355 13.1246C118.694 12.9144 119.071 12.8081 119.486 12.8081C120.008 12.8081 120.443 12.9777 120.789 13.3181C121.22 13.7349 121.434 14.3572 121.434 15.1836V18.5564Z" fill="white"/>
<path d="M129.819 13.8639H128.447V16.5989C128.447 17.294 128.69 17.6416 129.173 17.6416C129.397 17.6416 129.582 17.6224 129.728 17.583L129.76 18.5325C129.514 18.6257 129.191 18.6722 128.793 18.6722C128.3 18.6722 127.918 18.5218 127.641 18.2208C127.362 17.9198 127.225 17.4134 127.225 16.7028V13.8639H126.406V12.9264H127.225V11.8945L128.445 11.5243V12.9252H129.817V13.8639H129.819Z" fill="white"/>
<path d="M136.414 18.5563H135.167V15.3556C135.167 14.3464 134.792 13.8412 134.039 13.8412C133.461 13.8412 133.067 14.1338 132.85 14.719C132.814 14.842 132.792 14.9925 132.792 15.1692V18.5551H131.547V10.343H132.792V13.7361H132.816C133.208 13.1186 133.771 12.8105 134.499 12.8105C135.015 12.8105 135.442 12.9801 135.781 13.3204C136.203 13.7444 136.414 14.375 136.414 15.2087V18.5563Z" fill="white"/>
<path d="M143.219 15.475C143.219 15.6995 143.202 15.8882 143.172 16.0423H139.436C139.452 16.5988 139.631 17.0228 139.977 17.3166C140.293 17.5794 140.701 17.7107 141.2 17.7107C141.753 17.7107 142.257 17.6224 142.711 17.4444L142.906 18.3139C142.374 18.5456 141.749 18.6614 141.025 18.6614C140.157 18.6614 139.474 18.4046 138.979 17.8911C138.482 17.3775 138.236 16.6884 138.236 15.8237C138.236 14.9746 138.466 14.2675 138.928 13.7038C139.411 13.1019 140.063 12.8009 140.887 12.8009C141.693 12.8009 142.306 13.1019 142.719 13.7038C143.053 14.1815 143.219 14.7727 143.219 15.475ZM142.03 15.1513C142.039 14.7799 141.957 14.4598 141.788 14.1899C141.572 13.8424 141.243 13.668 140.797 13.668C140.39 13.668 140.059 13.8376 139.805 14.178C139.599 14.4491 139.476 14.7727 139.436 15.1513H142.03Z" fill="white"/>
</svg>
