<svg width="1127" height="1101" viewBox="0 0 1127 1101" fill="none" xmlns="http://www.w3.org/2000/svg">
<g filter="url(#filter0_d)">
<path d="M231.807 40H894.836C995.356 40 1076.64 121.265 1076.64 221.807V859.193C1076.64 959.713 995.379 1041 894.836 1041H231.807C131.287 1041 50 959.735 50 859.193V221.807C50 121.287 131.287 40 231.807 40Z" fill="url(#paint0_linear)"/>
<path d="M231.807 65H894.836C981.551 65 1051.64 135.074 1051.64 221.807V859.193C1051.64 945.908 981.57 1016 894.836 1016H231.807C145.092 1016 75 945.926 75 859.193V221.807C75 135.094 145.094 65 231.807 65Z" stroke="white" stroke-width="50"/>
</g>
<g clip-path="url(#clip0)">
<path d="M429.039 489.924C429.039 497.456 429.854 503.563 431.278 508.041C432.907 512.52 434.942 517.405 437.792 522.697C438.81 524.326 439.217 525.954 439.217 527.379C439.217 529.415 437.996 531.451 435.35 533.486L422.525 542.036C420.693 543.257 418.861 543.868 417.233 543.868C415.197 543.868 413.162 542.85 411.126 541.018C408.276 537.964 405.833 534.707 403.798 531.451C401.762 527.99 399.727 524.122 397.488 519.441C381.61 538.168 361.661 547.532 337.641 547.532C320.542 547.532 306.904 542.646 296.929 532.875C286.955 523.105 281.866 510.077 281.866 493.792C281.866 476.489 287.973 462.444 300.39 451.859C312.807 441.274 329.295 435.981 350.262 435.981C357.183 435.981 364.307 436.592 371.839 437.61C379.371 438.627 387.106 440.256 395.248 442.088V427.228C395.248 411.758 391.991 400.969 385.681 394.659C379.167 388.348 368.175 385.295 352.501 385.295C345.376 385.295 338.048 386.109 330.516 387.941C322.985 389.773 315.657 392.012 308.532 394.862C305.275 396.287 302.832 397.101 301.407 397.508C299.983 397.915 298.965 398.119 298.15 398.119C295.301 398.119 293.876 396.083 293.876 391.809V381.834C293.876 378.577 294.283 376.135 295.301 374.71C296.318 373.285 298.15 371.86 301 370.435C308.125 366.771 316.674 363.717 326.649 361.275C336.623 358.628 347.208 357.407 358.404 357.407C382.628 357.407 400.337 362.903 411.737 373.895C422.932 384.888 428.632 401.58 428.632 423.971V489.924H429.039ZM346.394 520.865C353.112 520.865 360.033 519.644 367.361 517.201C374.689 514.759 381.203 510.28 386.699 504.174C389.956 500.306 392.399 496.031 393.62 491.146C394.841 486.26 395.656 480.357 395.656 473.436V464.887C389.752 463.462 383.442 462.24 376.928 461.426C370.414 460.612 364.104 460.205 357.793 460.205C344.155 460.205 334.181 462.851 327.463 468.347C320.746 473.843 317.489 481.578 317.489 491.756C317.489 501.324 319.931 508.448 325.02 513.334C329.906 518.423 337.03 520.865 346.394 520.865ZM509.852 542.85C506.188 542.85 503.746 542.239 502.117 540.814C500.489 539.593 499.064 536.743 497.842 532.875L450.006 375.524C448.785 371.453 448.174 368.806 448.174 367.382C448.174 364.125 449.802 362.293 453.059 362.293H473.008C476.876 362.293 479.522 362.903 480.947 364.328C482.575 365.55 483.797 368.399 485.018 372.267L519.216 507.023L550.971 372.267C551.989 368.196 553.211 365.55 554.839 364.328C556.468 363.107 559.317 362.293 562.981 362.293H579.266C583.134 362.293 585.78 362.903 587.409 364.328C589.037 365.55 590.462 368.399 591.276 372.267L623.439 508.652L658.654 372.267C659.876 368.196 661.301 365.55 662.726 364.328C664.354 363.107 667 362.293 670.664 362.293H689.595C692.852 362.293 694.684 363.921 694.684 367.382C694.684 368.399 694.481 369.417 694.277 370.638C694.074 371.86 693.667 373.488 692.852 375.727L643.795 533.079C642.573 537.15 641.148 539.796 639.52 541.018C637.891 542.239 635.245 543.053 631.785 543.053H614.278C610.411 543.053 607.765 542.443 606.136 541.018C604.508 539.593 603.083 536.947 602.268 532.875L570.717 401.58L539.369 532.672C538.351 536.743 537.129 539.389 535.501 540.814C533.872 542.239 531.023 542.85 527.359 542.85H509.852ZM771.426 548.346C760.841 548.346 750.256 547.125 740.078 544.682C729.9 542.239 721.961 539.593 716.669 536.54C713.412 534.707 711.173 532.672 710.359 530.84C709.544 529.008 709.137 526.972 709.137 525.14V514.759C709.137 510.484 710.766 508.448 713.819 508.448C715.04 508.448 716.262 508.652 717.483 509.059C718.704 509.466 720.537 510.28 722.572 511.095C729.493 514.148 737.025 516.591 744.964 518.219C753.106 519.848 761.045 520.662 769.187 520.662C782.012 520.662 791.986 518.423 798.907 513.944C805.828 509.466 809.492 502.952 809.492 494.606C809.492 488.907 807.66 484.225 803.996 480.357C800.332 476.489 793.411 473.029 783.436 469.772L753.92 460.612C739.06 455.93 728.068 449.009 721.351 439.849C714.633 430.892 711.173 420.918 711.173 410.333C711.173 401.783 713.005 394.251 716.669 387.737C720.333 381.224 725.218 375.524 731.325 371.046C737.432 366.364 744.353 362.903 752.495 360.461C760.638 358.018 769.187 357 778.144 357C782.622 357 787.304 357.204 791.782 357.814C796.464 358.425 800.739 359.239 805.014 360.053C809.085 361.071 812.953 362.089 816.617 363.31C820.281 364.532 823.131 365.753 825.166 366.974C828.016 368.603 830.052 370.231 831.273 372.063C832.494 373.692 833.105 375.931 833.105 378.781V388.348C833.105 392.623 831.477 394.862 828.423 394.862C826.795 394.862 824.148 394.048 820.688 392.419C809.085 387.127 796.057 384.481 781.604 384.481C770.001 384.481 760.841 386.313 754.531 390.18C748.221 394.048 744.964 399.951 744.964 408.297C744.964 413.997 746.999 418.882 751.07 422.75C755.142 426.617 762.673 430.485 773.462 433.946L802.367 443.106C817.024 447.788 827.609 454.301 833.919 462.647C840.229 470.993 843.283 480.561 843.283 491.146C843.283 499.899 841.451 507.838 837.99 514.759C834.326 521.68 829.441 527.786 823.131 532.672C816.82 537.761 809.288 541.425 800.535 544.071C791.375 546.921 781.808 548.346 771.426 548.346Z" fill="#252F3E"/>
<path fill-rule="evenodd" clip-rule="evenodd" d="M809.899 647.276C742.928 696.741 645.626 723 561.964 723C444.713 723 339.066 679.642 259.271 607.582C252.96 601.883 258.66 594.147 266.192 598.626C352.501 648.701 458.962 679.032 569.088 679.032C643.387 679.032 725.015 663.561 800.128 631.806C811.324 626.717 820.891 639.134 809.899 647.276Z" fill="white"/>
<path fill-rule="evenodd" clip-rule="evenodd" d="M837.787 615.521C829.237 604.529 781.197 610.228 759.416 612.875C752.902 613.689 751.885 607.989 757.788 603.715C796.057 576.845 858.957 584.58 866.285 593.537C873.613 602.697 864.25 665.597 828.423 695.723C822.927 700.405 817.634 697.963 820.077 691.856C828.22 671.703 846.336 626.31 837.787 615.521Z" fill="white"/>
</g>
<defs>
<filter id="filter0_d" x="0" y="0" width="1126.64" height="1101" filterUnits="userSpaceOnUse" color-interpolation-filters="sRGB">
<feFlood flood-opacity="0" result="BackgroundImageFix"/>
<feColorMatrix in="SourceAlpha" type="matrix" values="0 0 0 0 0 0 0 0 0 0 0 0 0 0 0 0 0 0 127 0" result="hardAlpha"/>
<feOffset dy="10"/>
<feGaussianBlur stdDeviation="25"/>
<feComposite in2="hardAlpha" operator="out"/>
<feColorMatrix type="matrix" values="0 0 0 0 0.768627 0 0 0 0 0.768627 0 0 0 0 0.768627 0 0 0 0.5 0"/>
<feBlend mode="normal" in2="BackgroundImageFix" result="effect1_dropShadow"/>
<feBlend mode="normal" in="SourceGraphic" in2="effect1_dropShadow" result="shape"/>
</filter>
<linearGradient id="paint0_linear" x1="563.322" y1="40" x2="563.322" y2="1041" gradientUnits="userSpaceOnUse">
<stop stop-color="#FFC368"/>
<stop offset="0.963542" stop-color="#FB9F16"/>
</linearGradient>
<clipPath id="clip0">
<rect width="624.573" height="366" fill="white" transform="translate(251 357)"/>
</clipPath>
</defs>
</svg>
