<?xml version="1.0" encoding="utf-8"?>
<!-- Generator: Adobe Illustrator 25.0.0, SVG Export Plug-In . SVG Version: 6.00 Build 0)  -->
<svg version="1.1" id="Layer_1" xmlns="http://www.w3.org/2000/svg" xmlns:xlink="http://www.w3.org/1999/xlink" x="0px" y="0px"
	 viewBox="0 0 1600 548" style="enable-background:new 0 0 1600 548;" xml:space="preserve">
<style type="text/css">
	.st0{display:none;}
	.st1{display:inline;fill:#36295C;}
	.st2{display:inline;fill:url(#SVGID_1_);}
	.st3{display:inline;opacity:0.83;fill:url(#SVGID_2_);}
	.st4{display:inline;fill:url(#SVGID_3_);}
	.st5{display:inline;opacity:0.62;fill:url(#SVGID_4_);}
	.st6{display:inline;fill:url(#SVGID_5_);}
	.st7{display:inline;fill:url(#SVGID_6_);}
	.st8{display:inline;opacity:0.62;fill:url(#SVGID_7_);}
	.st9{display:inline;fill:url(#SVGID_8_);}
	.st10{display:inline;fill:url(#SVGID_9_);}
	.st11{display:inline;fill:url(#SVGID_10_);}
	.st12{display:inline;fill:url(#SVGID_11_);}
	.st13{display:inline;opacity:0.83;fill:url(#SVGID_12_);}
	.st14{display:inline;fill:url(#SVGID_13_);}
	.st15{display:inline;fill:url(#SVGID_14_);}
	.st16{display:inline;fill:url(#SVGID_15_);}
	.st17{display:inline;fill:url(#SVGID_16_);}
	.st18{display:inline;fill:url(#SVGID_17_);}
	.st19{display:inline;fill:#E87A8D;}
	.st20{display:inline;fill:url(#SVGID_18_);}
	.st21{display:inline;opacity:0.62;fill:url(#SVGID_19_);}
	.st22{display:inline;fill:url(#SVGID_20_);}
	.st23{display:inline;fill:url(#SVGID_21_);}
	.st24{display:inline;fill:url(#SVGID_22_);}
	.st25{display:inline;fill:url(#SVGID_23_);}
	.st26{display:inline;fill:#77485E;}
	.st27{display:inline;fill:url(#SVGID_24_);}
	.st28{display:inline;fill:url(#SVGID_25_);}
	.st29{display:inline;fill:url(#SVGID_26_);}
	.st30{display:inline;fill:url(#SVGID_27_);}
	.st31{display:inline;fill:url(#SVGID_28_);}
	.st32{display:inline;fill:url(#SVGID_29_);}
	.st33{display:inline;fill:url(#SVGID_30_);}
	.st34{display:inline;fill:url(#SVGID_31_);}
	.st35{display:inline;fill:url(#SVGID_32_);}
	.st36{display:inline;fill:#E37E7F;}
	.st37{display:inline;}
	.st38{fill:url(#SVGID_33_);}
	.st39{fill:url(#SVGID_34_);}
	.st40{fill:#9F4A8B;}
	.st41{fill:url(#SVGID_35_);}
	.st42{fill:url(#SVGID_36_);}
	.st43{fill:url(#SVGID_37_);}
	.st44{fill:url(#SVGID_38_);}
	.st45{display:inline;fill:url(#SVGID_39_);}
	.st46{display:inline;fill:url(#SVGID_40_);}
	.st47{fill:url(#SVGID_41_);}
	.st48{display:inline;fill:url(#SVGID_42_);}
	.st49{display:inline;fill:#FFFFFF;}
	.st50{display:inline;fill:url(#SVGID_43_);}
	.st51{display:inline;fill:url(#SVGID_44_);}
	.st52{display:inline;fill:url(#SVGID_45_);}
	.st53{display:inline;fill:url(#SVGID_46_);}
	.st54{display:inline;fill:url(#SVGID_47_);}
	.st55{display:inline;opacity:0.62;fill:url(#SVGID_48_);}
	.st56{display:inline;opacity:0.62;fill:url(#SVGID_49_);}
	.st57{display:inline;opacity:0.62;fill:url(#SVGID_50_);}
	.st58{display:inline;opacity:0.62;fill:url(#SVGID_51_);}
	.st59{display:inline;opacity:0.62;fill:url(#SVGID_52_);}
	.st60{display:inline;opacity:0.5;fill:url(#SVGID_53_);}
	.st61{display:inline;opacity:0.62;fill:url(#SVGID_54_);}
	.st62{display:inline;opacity:0.62;fill:url(#SVGID_55_);}
	.st63{display:inline;opacity:0.62;fill:url(#SVGID_56_);}
	.st64{display:inline;opacity:0.62;fill:url(#SVGID_57_);}
	.st65{display:inline;opacity:0.62;fill:url(#SVGID_58_);}
	.st66{display:inline;fill:url(#SVGID_59_);}
	.st67{display:inline;fill:url(#SVGID_60_);}
	.st68{display:inline;opacity:0.83;fill:url(#SVGID_61_);}
	.st69{display:inline;fill:url(#SVGID_62_);}
	.st70{display:inline;fill:url(#SVGID_63_);}
	.st71{display:inline;opacity:0.5;fill:url(#SVGID_64_);}
	.st72{display:inline;opacity:0.62;fill:url(#SVGID_65_);}
	.st73{display:inline;opacity:0.62;fill:url(#SVGID_66_);}
	.st74{display:inline;fill:url(#SVGID_67_);}
	.st75{display:inline;fill:url(#SVGID_68_);}
	.st76{display:inline;opacity:0.84;fill:url(#SVGID_69_);}
	.st77{display:inline;opacity:0.84;fill:url(#SVGID_70_);}
	.st78{display:inline;opacity:0.84;fill:url(#SVGID_71_);}
	.st79{display:inline;opacity:0.62;fill:url(#SVGID_72_);}
	.st80{fill:url(#SVGID_73_);}
	.st81{fill:url(#SVGID_74_);}
	.st82{fill:url(#SVGID_75_);}
	.st83{fill:url(#SVGID_76_);}
	.st84{fill:url(#SVGID_77_);}
	.st85{fill:url(#SVGID_78_);}
	.st86{fill:url(#SVGID_79_);}
	.st87{fill:#D7E2FF;}
	.st88{fill:#D7D9FF;}
	.st89{fill:url(#SVGID_80_);}
	.st90{display:inline;fill:url(#SVGID_81_);}
	.st91{opacity:0.73;fill:url(#SVGID_82_);}
	.st92{fill:#953DA2;}
	.st93{fill:#D1D4FB;}
	.st94{fill:#FFFFFF;}
	.st95{display:inline;fill:#4F31E0;}
	.st96{display:none;fill:#744CA2;}
	.st97{display:inline;fill:url(#SVGID_83_);}
	.st98{display:inline;fill:#FF1D9C;}
	.st99{display:inline;fill:url(#SVGID_84_);}
	.st100{display:inline;fill:#946BFF;}
	.st101{fill:url(#SVGID_85_);}
	.st102{fill:#744CA2;}
</style>
<g class="st0">
	<path class="st1" d="M1185.2,1153.98l0.03,0.75c-1.27,2.24,11.17,2.28,19.72,1.67c27.93-1.98,56.82-4.03,75.4-19.14
		c23.17-18.84,34.75-80.14,34.86-80.76l0.74,0.14c-0.12,0.62-11.74,62.18-35.13,81.2c-18.76,15.25-47.76,17.31-75.82,19.3
		C1196.47,1157.76,1178.3,1157.72,1185.2,1153.98z"/>
</g>
<g class="st0">
	
		<linearGradient id="SVGID_1_" gradientUnits="userSpaceOnUse" x1="482.4575" y1="375.9642" x2="482.4575" y2="224.93" gradientTransform="matrix(-1 0 0 1 1596.8075 0)">
		<stop  offset="0" style="stop-color:#744FD8"/>
		<stop  offset="1" style="stop-color:#3996F7"/>
	</linearGradient>
	<path class="st2" d="M1088.39,315.52c0,0,3.48-1.05,4.87,1.74c1.39,2.79,5.75,36.23,4.54,45.63c-1.23,9.41-4.7,5.93-4.7,5.93
		s0.34,5.57,2.61,7.14l0.01-0.01c0.03-0.01,0.08-0.06,0.15-0.11c0.06-0.03,0.12-0.08,0.21-0.14h0.01c1.34-0.88,5.97-3.94,10.25-6.88
		c5.05-3.49,8.01-6.45,8.01-6.45s-0.7-5.57-0.7-7.13c0-1.57,11.16-38.68,22.12-50.17c10.23-10.72,0.18-71.08-1.23-79.23l-0.17-0.91
		c0,0-8.88,2.62-12.71,5.42c-3.82,2.81-17.6,36.74-18.29,54.16c-0.7,17.42-6.96,27.31-6.96,27.31s-2.1-1.27-5.59,0L1088.39,315.52z"
		/>
	
		<linearGradient id="SVGID_2_" gradientUnits="userSpaceOnUse" x1="478.61" y1="375.7022" x2="478.61" y2="224.93" gradientTransform="matrix(-1 0 0 1 1596.8075 0)">
		<stop  offset="0" style="stop-color:#9D68C2"/>
		<stop  offset="1" style="stop-color:#CCEDFF"/>
	</linearGradient>
	<path class="st3" d="M1096.09,375.7c1.34-0.88,5.97-3.94,10.25-6.88c5.05-3.49,8.01-6.45,8.01-6.45s-0.7-5.57-0.7-7.13
		c0-1.57,11.16-38.68,22.12-50.17c10.23-10.72,0.18-71.08-1.23-79.23l-0.17-0.91c0,0-7.23,9.06-10.36,27.08
		c-3.14,18.04,1.3,53.58,1.3,53.58s-6.26,28.74-21.68,29.26c0,0,12.93,18.94,7.83,28.44
		C1110.49,365.11,1098.45,374.03,1096.09,375.7z"/>
	
		<linearGradient id="SVGID_3_" gradientUnits="userSpaceOnUse" x1="402.5983" y1="585.6498" x2="402.5983" y2="398.7738" gradientTransform="matrix(-1 0 0 1 1596.8075 0)">
		<stop  offset="0" style="stop-color:#1C257B"/>
		<stop  offset="1" style="stop-color:#482C83"/>
	</linearGradient>
	<path class="st4" d="M1125.57,542.06c0.29,3.17,0.84,5.74,1.5,7.97v0.01c1.12,3.85,2.52,6.73,3.3,10.04
		c1.21,5.23,2.61,25.57,2.61,25.57h36.59c-1.39-7.53-3.13-13.36-5.23-32.19c-2-18,8.76-80.03,9.68-85.34
		c0.04-0.23,0.07-0.36,0.07-0.36c9.41,39.36,32.49,85.01,34.85,87.61c2.34,2.62,7.05,4.96,7.05,4.96
		c2.62,4.96,8.11,25.31,8.11,25.31h42.06c-2.34-10.76-13.06-26.86-16.47-32.88c-3.39-6.01-16.19-47.04-19.6-74.21
		c-1.42-11.32-2.51-23.28-3.31-33.39v-0.03c-1.12-14.12-1.65-24.6-1.65-24.6c-10.7-10.96-94.42-21.78-94.42-21.78l-2.65,8.59
		c0,0-2.99,0.65-3.39,2.74c-0.39,2.08,2.41,4,2.41,4C1117.68,467.41,1124.8,533.44,1125.57,542.06z"/>
	
		<linearGradient id="SVGID_4_" gradientUnits="userSpaceOnUse" x1="420.5886" y1="467.7623" x2="420.5886" y2="398.7686" gradientTransform="matrix(-1 0 0 1 1596.8075 0)">
		<stop  offset="0" style="stop-color:#8B8BE0"/>
		<stop  offset="1" style="stop-color:#A177B7"/>
	</linearGradient>
	<path class="st5" d="M1225.37,424.72c0,0-25.32-3.12-41.26,4.46c-15.94,7.58-14.51,20.64-14.51,20.64l4.49,17.94l-15.49-16.2
		l-31.53-37.45c0,0,5.9,3.57,13.57,5.14c0,0-10.75-6.66-12.58-11.89l2.65-8.59l94.66,20.22V424.72z"/>
	
		<linearGradient id="SVGID_5_" gradientUnits="userSpaceOnUse" x1="510.7266" y1="370.6476" x2="510.7266" y2="345.8274" gradientTransform="matrix(-1 0 0 1 1596.8075 0)">
		<stop  offset="0.016" style="stop-color:#FFC2A9"/>
		<stop  offset="1" style="stop-color:#FF9595"/>
	</linearGradient>
	<path class="st6" d="M1100.36,353.4c0,0,1.05,11.76-6.01,17.25c0,0-14.5-7.58-21.64-19.95
		C1065.57,338.33,1100.36,353.4,1100.36,353.4z"/>
	
		<linearGradient id="SVGID_6_" gradientUnits="userSpaceOnUse" x1="419.3685" y1="422.3677" x2="419.3685" y2="398.7738" gradientTransform="matrix(-1 0 0 1 1596.8075 0)">
		<stop  offset="0" style="stop-color:#D1C8F8"/>
		<stop  offset="1" style="stop-color:#EEE5F9"/>
	</linearGradient>
	<path class="st7" d="M1225.13,420.55l0.24,1.82c0,0-19.56-4.95-28.96-5.3c-9.41-0.35-19.38,7.14-39.41,3.48
		c-20.03-3.66-27.48-18.11-27.48-18.11l1.19-3.66L1225.13,420.55z"/>
	
		<linearGradient id="SVGID_7_" gradientUnits="userSpaceOnUse" x1="419.0182" y1="422.3677" x2="419.0182" y2="398.7738" gradientTransform="matrix(-1 0 0 1 1596.8075 0)">
		<stop  offset="0" style="stop-color:#8B8BE0"/>
		<stop  offset="1" style="stop-color:#A177B7"/>
	</linearGradient>
	<path class="st8" d="M1218.56,420.76c0,0-18.99-4.77-45.39-7.78c-26.41-3-36.35-3.92-38.82-5.88c-2.47-1.96-4.13-6.82-4.13-6.82
		l0.49-1.51l94.42,21.78l0.24,1.82L1218.56,420.76z"/>
	
		<linearGradient id="SVGID_8_" gradientUnits="userSpaceOnUse" x1="553.0452" y1="324.2657" x2="553.0452" y2="316.3636" gradientTransform="matrix(-1 0 0 1 1596.8075 0)">
		<stop  offset="0.016" style="stop-color:#FFA58B"/>
		<stop  offset="1" style="stop-color:#FF898E"/>
	</linearGradient>
	<path class="st9" d="M1044.49,316.36c0,0-4.04,3.28-4.07,6.09c-0.03,2.82,6.68,1.51,6.68,1.51L1044.49,316.36z"/>
	
		<linearGradient id="SVGID_9_" gradientUnits="userSpaceOnUse" x1="332.1316" y1="330.9897" x2="332.1316" y2="220.0697" gradientTransform="matrix(-1 0 0 1 1596.8075 0)">
		<stop  offset="0" style="stop-color:#744FD8"/>
		<stop  offset="1" style="stop-color:#3996F7"/>
	</linearGradient>
	<path class="st10" d="M1243.43,303.49l2.87-15.68c0,0,7.32,0,18.02,9.93c0,0,0.26,5.38,3.93,12.09c0,0,12.33,5.94,18.05,14.04
		c5.72,8.1,7.89,8.91,13.86,4.32c1.59-1.21,2.66-5.34,3.23-10.95c0.84-8.48,0.52-20.37-0.94-30.84c-1.21-8.63-3.21-16.29-5.99-20.27
		c0,0,0.26-5.32-2.36-9.5c-0.12,0.08-0.26,0.17-0.39,0.26c-0.86,0.54-3.06,1.72-5.35,1.31c-2.97-0.52-5.45-5.06-5.45-5.06
		s-1.7,0.18-2.56,1.41c0,0-11.85-7.18-19.35-19.28c-7.49-12.08-8.7-13.57-8.7-13.57s-1.92-0.79-4.51-1.27
		c-2.04-0.39-4.51-0.57-6.81-0.03C1240.99,220.41,1204.58,276.67,1243.43,303.49z"/>
	
		<linearGradient id="SVGID_10_" gradientUnits="userSpaceOnUse" x1="408.0914" y1="251.3093" x2="408.0914" y2="185.1411" gradientTransform="matrix(-1 0 0 1 1596.8075 0)">
		<stop  offset="0.016" style="stop-color:#FFA58B"/>
		<stop  offset="1" style="stop-color:#FF898E"/>
	</linearGradient>
	<path class="st11" d="M1165.9,224.93c0,0,4.54-6.78,4.54-22.55l35.33-17.24c0,0-1.78,12.17,4.21,22.72
		c1.58,2.79,8.96,7.19,8.96,7.19s-32.29,39.82-47.79,36c-15.5-3.82-12.39-20.7-12.39-20.7S1161.37,231.38,1165.9,224.93z"/>
	
		<linearGradient id="SVGID_11_" gradientUnits="userSpaceOnUse" x1="406.4744" y1="243.1773" x2="406.4744" y2="212.1737" gradientTransform="matrix(-1 0 0 1 1596.8075 0)">
		<stop  offset="0" style="stop-color:#D1C8F8"/>
		<stop  offset="1" style="stop-color:#EEE5F9"/>
	</linearGradient>
	<path class="st12" d="M1214.59,212.17c0,0-17.5,17.44-32.56,18.42c-16.13,1.05-13.48-12.37-13.48-12.37s-7.3,10.23-5.21,18.29
		c2.09,8.06,18.03,8.45,30.31,3.09c12.28-5.36,24.03-26.17,24.03-26.17L1214.59,212.17z"/>
	
		<linearGradient id="SVGID_12_" gradientUnits="userSpaceOnUse" x1="332.361" y1="330.9897" x2="332.361" y2="220.0697" gradientTransform="matrix(-1 0 0 1 1596.8075 0)">
		<stop  offset="0" style="stop-color:#9D68C2"/>
		<stop  offset="1" style="stop-color:#CCEDFF"/>
	</linearGradient>
	<path class="st13" d="M1243.43,303.49l2.87-15.68c0,0,7.32,0,18.02,9.93c0,0,0.26,5.38,3.93,12.09c0,0,12.33,5.94,18.05,14.04
		c5.72,8.1,7.89,8.91,13.86,4.32c1.59-1.21,2.66-5.34,3.23-10.95l-0.94-2.25v-28.59c-1.21-8.63-3.21-16.29-5.99-20.27
		c0,0,0.26-5.32-2.36-9.5c-0.12,0.08-0.26,0.17-0.39,0.26c-10.14,6.61-13.72,26.04-14.41,40.5c-0.1-3.67-2.42-17.86-4.18-17.59
		c-2.26,0.35-6.09,26.48-6.09,26.48c-4.52-22.41,10.07-49.44,11.24-51.59c-13.34,18.42-15.6,39.58-15.6,39.58l-20.73-15.16
		c0,0-12.48-12.55-8.16-34.15c4.32-21.6,12.01-24.53,12.01-24.53c-2.04-0.39-4.51-0.57-6.81-0.03
		C1240.99,220.41,1204.58,276.67,1243.43,303.49z"/>
	
		<linearGradient id="SVGID_13_" gradientUnits="userSpaceOnUse" x1="410.1078" y1="202.3796" x2="410.1078" y2="97.3236" gradientTransform="matrix(-1 0 0 1 1596.8075 0)">
		<stop  offset="0.016" style="stop-color:#FFC2A9"/>
		<stop  offset="1" style="stop-color:#FF9595"/>
	</linearGradient>
	<path class="st14" d="M1156.86,198.7c0.04,0.04,0.1,0.08,0.14,0.15c0.5,0.59,1.02,1.05,1.59,1.34c7.85,4.01,28.74,2.97,40.06-6.96
		c4.3-3.78,7.53-8.3,10.09-12.92c0.01-0.04,0.03-0.06,0.03-0.06c4.11-7.49,6.44-15.27,8.7-20.64c3.65-8.7,6.66-23.28,5.92-31.7
		c-0.69-7.83-2.26-14.45-12.89-23.51c-10.62-9.06-36.75-9.58-43.37-0.52c-6.62,9.06-6.44,29.44-8.01,33.97
		c-1.57,4.54-7.14,9.93-8.72,16.02C1148.96,159.49,1150.48,190.74,1156.86,198.7z"/>
	
		<linearGradient id="SVGID_14_" gradientUnits="userSpaceOnUse" x1="407.8276" y1="179.9023" x2="407.8276" y2="96.895" gradientTransform="matrix(-1 0 0 1 1596.8075 0)">
		<stop  offset="0.016" style="stop-color:#FFA58B"/>
		<stop  offset="1" style="stop-color:#FF898E"/>
	</linearGradient>
	<path class="st15" d="M1156.79,142.21c0,0,0.34,5.44,4.58,5.82c3.33,0.3,5.36-4.62,5.36-4.62s0.59-13.31-1.1-19.86l-1.58-5.23
		c0,0,4.55-4.77,11.34-4.17c6.79,0.6,9.23,7.86,9.23,7.86s-6.03,17.26-5.16,25.58c0,0,4.55,4.35,12.22,3.83
		c8.87-0.6,13.33-5.88,13.33-5.88s4.84,5.65,5.76,10.46c1.1,5.74-0.8,23.91-0.8,23.91s6.1-19.68,7.75-25.43
		c1.65-5.75,4.7-31.27,2.88-35.62c-1.83-4.35-7.1-18.54-29.73-21.33s-26.82,4.78-26.82,4.78l-2.33,11.24l0.01,5.79
		c0,0-1.58,14.93-2.14,17.44C1159.03,139.28,1156.79,142.21,1156.79,142.21z"/>
	
		<linearGradient id="SVGID_15_" gradientUnits="userSpaceOnUse" x1="406.9756" y1="160.5541" x2="394.5748" y2="82.259" gradientTransform="matrix(-1 0 0 1 1596.8075 0)">
		<stop  offset="0" style="stop-color:#D49092"/>
		<stop  offset="0.1274" style="stop-color:#D18E92"/>
		<stop  offset="0.2036" style="stop-color:#C98991"/>
		<stop  offset="0.2664" style="stop-color:#BB7F90"/>
		<stop  offset="0.3218" style="stop-color:#A7718F"/>
		<stop  offset="0.3725" style="stop-color:#8C5F8D"/>
		<stop  offset="0.4196" style="stop-color:#6C498A"/>
		<stop  offset="0.4631" style="stop-color:#472F88"/>
		<stop  offset="0.4721" style="stop-color:#3E2987"/>
		<stop  offset="0.6068" style="stop-color:#352278"/>
		<stop  offset="0.8455" style="stop-color:#291762"/>
		<stop  offset="1" style="stop-color:#24135A"/>
	</linearGradient>
	<path class="st16" d="M1161.63,119.9c0,0,0.61-7.67,4.96-15.25c0,0,4.84,5.1,12.67,7.83c0,0-3.64-3.38-5.34-5.99
		c0.3,0.23,5.17,4,12,6.91c0,0-1.96-3.01-1.96-4.32c0-1.31,4.96-7.05,10.72-6.92c5.75,0.14,16.73,3.92,22.22,14.37
		c5.47,10.45-0.03,11.42-3.03,14.15c0,0,1.5,12.96,1.17,23.8c-0.11,3.24-0.39,6.29-0.9,8.74c-0.08,0.4-0.18,0.77-0.28,1.13
		l7.85-7.17c0,0,0.07-4.79,3.09-11.65c0.33-0.79,0.72-1.6,1.14-2.44l0.04-0.07c0.17-0.33,0.34-0.66,0.52-1.01
		c1.88-3.5,7.65-10.06,6.81-16.73c-0.78-6.28-12.21-11.67-14.99-15.86c0,0,8.76,2.8,12.91,6.98c0,0-0.66-3.93-3.92-6.15
		c-3.24-2.22-5.97-0.84-10.69-2.74c-4.73-1.89-11.12-17.76-18.69-23.77c-7.58-6.01-24.96-4.83-30.57,0
		c-1.45,1.24-2.52,2.74-3.32,4.29h-0.01c0,0.01,0,0.01,0,0.01v0.01c-0.01,0.03-0.03,0.04-0.03,0.07c-2.32,4.44-2.39,9.2-2.39,9.2
		S1158.37,110.72,1161.63,119.9z"/>
	
		<linearGradient id="SVGID_16_" gradientUnits="userSpaceOnUse" x1="254.9324" y1="328.9276" x2="254.9324" y2="144.1003" gradientTransform="matrix(-1 0 0 1 1596.8075 0)">
		<stop  offset="0.016" style="stop-color:#FFC2A9"/>
		<stop  offset="1" style="stop-color:#FF9595"/>
	</linearGradient>
	<path class="st17" d="M1290.98,264.3l5.49,1.83c0,0,25.08-14.88,33.18-51.08c0,0-6.27-10.85-6.53-14.77
		c-0.26-3.92,3.75-12.11,4.96-22.38c1.22-10.28-1.22-18.12-1.05-19.34c0.17-1.22,6.45-1.39,8.19,3.66c1.74,5.05-0.87,14.11,0,15.85
		c0.87,1.74,2.96,4.7,2.96,4.7s9.23-13.94,11.67-15.33c2.44-1.39,6.27,5.43,8.01,5.77c1.74,0.33,8.1-8.47,14.24-13.56
		c6.14-5.1,17.64-15.81,18.81-15.55c1.18,0.26,2.74,2.35,2.48,4.44c-0.26,2.09-5.23,11.24-12.8,14.89c0,0-9.15,6.27-13.98,14.76
		c0,0,2.09,3.53,3.53,3.66c1.44,0.13,9.67-5.36,16.2-7.97c6.53-2.61,12.54-4.31,13.59-3.92c1.05,0.39,0.65,2.74,0,4.31
		c-0.65,1.57-6.53,6.14-12.93,7.71c0,0-9.54,3.79-12.67,7.71c0,0,0.39,3.92,1.44,4.57c1.05,0.65,8.88-0.52,13.72-1.18
		c4.83-0.65,10.44,0.13,11.1,0.78c0.66,0.65,0.14,2.87-3.78,4.31c-3.92,1.44-8.62,0.52-9.41,0.65c-0.78,0.13-15.02,4.57-16.72,5.62
		c-1.7,1.05-9.15,12.18-14.51,15.57c-5.36,3.4-13.06,1.67-13.06,1.67s-8.58,48.17-12.76,67.33c-4.18,19.16-20.21,39.02-34.14,39.89
		c0,0-12.54-4.88-13.24-30.66C1282.27,272.49,1290.98,264.3,1290.98,264.3z"/>
	
		<linearGradient id="SVGID_17_" gradientUnits="userSpaceOnUse" x1="409.3719" y1="420.5491" x2="409.3719" y2="212.1737" gradientTransform="matrix(-1 0 0 1 1596.8075 0)">
		<stop  offset="0" style="stop-color:#744FD8"/>
		<stop  offset="1" style="stop-color:#3996F7"/>
	</linearGradient>
	<path class="st18" d="M1139.96,317.78c0,0,5.21,27.26-1.57,56.79c0,0-4.18,2.87-4.7,6.52c0,0,0,0.03-0.01,0.07
		c-0.5,3.64,0.28,6.99,0.28,6.99s-1.83,1.83-3.41,4.44c-0.29,0.5-0.46,1.08-0.51,1.71c-0.25,2.7,1.3,6.12,1.3,6.12
		s3.14,8.11,35.8,10.98c32.66,2.88,58,9.14,58,9.14s1.97-6.52-1.63-11.49c0,0,5.56-4.96,5.3-6.8c-0.26-1.83-12.29-22.73-9.16-37.36
		c3.14-14.63,14.89-26.51,21.43-55.07c0,0,4.36-1.46,4.62-3.56c0.26-2.08-1.92-5.49-1.92-5.49l-0.79,1.49c0,0-14.89-8.54-10.88-44.6
		c4-36.06,8.23-38.25,15.69-37.25c0,0-5.94-5.5-7.34-5.38c-1.39,0.12-1.92,2.69-1.92,2.69s-4.66,1.92-10.15,0
		c-5.49-1.92-9.17-5.57-9.17-5.57s-33.09,28.02-47.61,26.3c-16.57-1.96-4.88-20.1-4.88-20.1s-10.41,2.03-15.98,3.33
		c-5.59,1.31-7.67,0-7.67,0s-3.31-4.92-7.67-1.63c-4.36,3.28-9.75,21.4-8.01,50.67C1129.14,300.01,1139.96,317.78,1139.96,317.78z"
		/>
	<path class="st19" d="M1196.49,141.62c0,0,0.88,2.68,0.43,5.1c-0.46,2.42-9.15,4.77-13.28,1.11
		C1179.5,144.17,1196.49,141.62,1196.49,141.62z"/>
	
		<linearGradient id="SVGID_18_" gradientUnits="userSpaceOnUse" x1="515.9094" y1="358.3878" x2="515.9094" y2="257.4698" gradientTransform="matrix(-1 0 0 1 1596.8075 0)">
		<stop  offset="0" style="stop-color:#1C257B"/>
		<stop  offset="1" style="stop-color:#482C83"/>
	</linearGradient>
	<path class="st20" d="M1021.84,264.3c10.8,28.92,40.42,90.41,40.42,90.41c39.01,7.49,75.6,1.21,75.6,1.21l2.1-3.38
		c-13.58-41.1-42.86-94.69-42.86-94.69c-35.88-1.92-73.86,3.82-73.86,3.82L1021.84,264.3z"/>
	
		<linearGradient id="SVGID_19_" gradientUnits="userSpaceOnUse" x1="550.5825" y1="336.3543" x2="550.5825" y2="297.485" gradientTransform="matrix(-1 0 0 1 1596.8075 0)">
		<stop  offset="0" style="stop-color:#8B8BE0"/>
		<stop  offset="1" style="stop-color:#A177B7"/>
	</linearGradient>
	<path class="st21" d="M1056.42,307.81c0,0,1.65,19.42-2.87,28.54l-17.82-38.87l8.48,2l-1.11,3.93
		C1043.1,303.41,1050.15,303.07,1056.42,307.81z"/>
	
		<linearGradient id="SVGID_20_" gradientUnits="userSpaceOnUse" x1="552.0003" y1="318.1374" x2="552.0003" y2="297.485" gradientTransform="matrix(-1 0 0 1 1596.8075 0)">
		<stop  offset="0.016" style="stop-color:#FFC2A9"/>
		<stop  offset="1" style="stop-color:#FF9595"/>
	</linearGradient>
	<path class="st22" d="M1037,297.48c0,0-2.84,2.25-3.4,4.09c-0.61,2-1.39,7.04,4.44,8.62l2.61,0.7c0,0-1.92,0.87-2.26,2.18
		c-0.35,1.31,1.83,4.18,5.31,4.88s9.32-0.7,11.06-2.26c1.74-1.57,0.61-3.75-2-4.35c0,0,3.83-0.86,3.66-3.52
		c-0.17-2.66-8.97-5.54-18.29-4.66L1037,297.48z"/>
	<path class="st19" d="M1165.9,144.21c0,0-1.41,2.25-4.53,1.59c-3.12-0.66-2.83-6.07-2.26-7.97
		C1159.68,135.94,1165.85,142.46,1165.9,144.21z"/>
	
		<linearGradient id="SVGID_21_" gradientUnits="userSpaceOnUse" x1="561.9128" y1="299.8801" x2="561.9128" y2="284.2365" gradientTransform="matrix(-1 0 0 1 1596.8075 0)">
		<stop  offset="0.016" style="stop-color:#FFC2A9"/>
		<stop  offset="1" style="stop-color:#FF9595"/>
	</linearGradient>
	<path class="st23" d="M1029.94,284.24c0,0-4.7,4.36-4.7,7.37c0,3.01,6.92,6.79,18.81,8.27c0,0,1.11-2.31,0-4.79
		c-1.11-2.48-7.05-5.97-11.95-6.75L1029.94,284.24z"/>
	
		<linearGradient id="SVGID_22_" gradientUnits="userSpaceOnUse" x1="551.0728" y1="326.4954" x2="551.0728" y2="319.6711" gradientTransform="matrix(-1 0 0 1 1596.8075 0)">
		<stop  offset="0.016" style="stop-color:#FFC2A9"/>
		<stop  offset="1" style="stop-color:#FF9595"/>
	</linearGradient>
	<path class="st24" d="M1043.64,319.7c0,0,8.08-0.78,7.38,6.59c0,0-4.52,0.64-7.83-0.32c-3.31-0.96-2.87-3.48-2.61-4.35
		C1040.84,320.74,1041.13,320.04,1043.64,319.7z"/>
	
		<linearGradient id="SVGID_23_" gradientUnits="userSpaceOnUse" x1="401.3892" y1="136.266" x2="401.3892" y2="119.3254" gradientTransform="matrix(-1 0 0 1 1596.8075 0)">
		<stop  offset="0" style="stop-color:#1C257B"/>
		<stop  offset="1" style="stop-color:#482C83"/>
	</linearGradient>
	<path class="st25" d="M1205.4,136.27c0,0-0.66-4.21-4.77-8.47c-2.96-3.07-8.68-6.16-12.69-7.73c0,0-0.61,1.31-0.61,3.75
		c0,0-0.65-2.31-1.22-4.49c0,0-0.89,2.18-0.63,6.42c0,0,3.51,1.24,9.28,2.81C1201.94,130.52,1205.4,136.27,1205.4,136.27z"/>
	<path class="st26" d="M1166.73,141.62c0,0,0-11.02-3.2-11.63c-2.68-0.51-3.94,5.71-3.94,5.71L1166.73,141.62z"/>
	<path class="st26" d="M1196.91,144.76c0,0,0.11-7.74-6.23-10.48c-6.34-2.74-8.53,6.15-8.53,6.15L1196.91,144.76z"/>
	
		<linearGradient id="SVGID_24_" gradientUnits="userSpaceOnUse" x1="407.6151" y1="149.2473" x2="407.6151" y2="135.7119" gradientTransform="matrix(-1 0 0 1 1596.8075 0)">
		<stop  offset="0" style="stop-color:#D0C7F8"/>
		<stop  offset="1" style="stop-color:#FFFFFF"/>
	</linearGradient>
	<path class="st27" d="M1181.49,144.75c0.18,1.61,2.36,4.5,7.06,4.5c4.18,0,8.37-2.1,8.36-4.5c0-0.84-0.22-1.75-0.61-2.68
		c-0.84-2.03-2.54-4.04-4.61-5.24c-1.38-0.81-2.94-1.25-4.54-1.09C1182.1,136.27,1181.33,143.15,1181.49,144.75z"/>
	
		<linearGradient id="SVGID_25_" gradientUnits="userSpaceOnUse" x1="433.9255" y1="145.5385" x2="433.9255" y2="132.002" gradientTransform="matrix(-1 0 0 1 1596.8075 0)">
		<stop  offset="0" style="stop-color:#D0C7F8"/>
		<stop  offset="1" style="stop-color:#FFFFFF"/>
	</linearGradient>
	<path class="st28" d="M1159.03,139.28c-0.07,3.59,1.49,6.32,4.22,6.26c1.14-0.03,1.85-0.34,2.34-0.9c0.41-0.47,0.66-1.12,0.87-1.9
		c0.1-0.34,0.19-0.72,0.28-1.12c0,0-0.29-3.38-1.19-6.14c-0.21-0.61-0.43-1.17-0.68-1.65c-0.44-0.87-0.98-1.52-1.63-1.74
		C1161.12,131.32,1159.08,135.68,1159.03,139.28z"/>
	
		<linearGradient id="SVGID_26_" gradientUnits="userSpaceOnUse" x1="217.0941" y1="188.1377" x2="238.9379" y2="188.1377" gradientTransform="matrix(-1 0 0 1 1596.8075 0)">
		<stop  offset="0" style="stop-color:#CF6074"/>
		<stop  offset="1" style="stop-color:#FF817F"/>
	</linearGradient>
	<path class="st29" d="M1357.87,173.21c0,0,3.93,5.3,8.66,13.84c3.86,6.96,4.14,17.41,4.14,17.41s5.49-2.48,8.49-3.14
		s-7.32-16.59-7.32-16.59l-11.73-12.92L1357.87,173.21z"/>
	
		<radialGradient id="SVGID_27_" cx="406.099" cy="144.411" r="5.326" gradientTransform="matrix(-1 0 0 1 1596.8075 0)" gradientUnits="userSpaceOnUse">
		<stop  offset="0" style="stop-color:#CF95FF"/>
		<stop  offset="1" style="stop-color:#8161FF"/>
	</radialGradient>
	<path class="st30" d="M1185.44,142.21c0,3.01,2.43,5.43,5.43,5.43c3.01,0,5.45-2.43,5.45-5.43c0-0.04,0-0.1-0.01-0.14
		c-0.84-2.03-2.54-4.04-4.61-5.24c-0.26-0.04-0.55-0.07-0.83-0.07C1187.86,136.77,1185.44,139.21,1185.44,142.21z"/>
	
		<linearGradient id="SVGID_28_" gradientUnits="userSpaceOnUse" x1="405.9314" y1="145.9793" x2="405.9314" y2="138.4417" gradientTransform="matrix(-1 0 0 1 1596.8075 0)">
		<stop  offset="0" style="stop-color:#8642A0"/>
		<stop  offset="1" style="stop-color:#4E37B7"/>
	</linearGradient>
	<path class="st31" d="M1187.11,142.21c0,2.08,1.69,3.77,3.77,3.77c2.08,0,3.77-1.69,3.77-3.77c0-2.08-1.69-3.77-3.77-3.77
		C1188.79,138.44,1187.11,140.13,1187.11,142.21z"/>
	
		<radialGradient id="SVGID_29_" cx="432.8358" cy="141.4639" r="3.5713" gradientTransform="matrix(-1 0 0 1 1596.8075 0)" gradientUnits="userSpaceOnUse">
		<stop  offset="0" style="stop-color:#CF95FF"/>
		<stop  offset="1" style="stop-color:#8161FF"/>
	</radialGradient>
	<path class="st32" d="M1161.37,139.26c0,3.01,1.65,5.43,3.7,5.43c0.18,0,0.36-0.01,0.52-0.06c0.41-0.47,0.66-1.12,0.87-1.9
		c0.1-0.34,0.19-0.72,0.28-1.12c0,0-0.29-3.38-1.19-6.14c-0.21-0.61-0.43-1.17-0.68-1.65
		C1162.92,133.98,1161.37,136.35,1161.37,139.26z"/>
	
		<linearGradient id="SVGID_30_" gradientUnits="userSpaceOnUse" x1="209.8035" y1="170.5199" x2="228.0768" y2="170.5199" gradientTransform="matrix(-1 0 0 1 1596.8075 0)">
		<stop  offset="0" style="stop-color:#CF6074"/>
		<stop  offset="1" style="stop-color:#FF817F"/>
	</linearGradient>
	<path class="st33" d="M1387,181.99c0,0-3.66,1.31-5.29,0.91c-1.63-0.39-2.48-3.95-2.48-4.39c0-0.44,4.68-3.56,4.68-3.56l-5.92,2.99
		l-5.81-6.86c0,0,3.25-4.22,7.87-7.25c0,0-4.74,2.87-6.17,1.82c-1.44-1.05-2.04-3-2.03-3.98c0.01-0.98,4.84-5.95,4.84-5.95
		s-7.29,5.97-7.89,6.97c-0.6,1,3.45,15.49,3.45,15.49l7.87,7.12C1380.12,185.31,1384.85,183.1,1387,181.99z"/>
	
		<linearGradient id="SVGID_31_" gradientUnits="userSpaceOnUse" x1="431.9868" y1="143.0278" x2="431.9868" y2="135.4844" gradientTransform="matrix(-1 0 0 1 1596.8075 0)">
		<stop  offset="0" style="stop-color:#8642A0"/>
		<stop  offset="1" style="stop-color:#4E37B7"/>
	</linearGradient>
	<path class="st34" d="M1162.9,139.26c0,2.08,1.14,3.76,2.57,3.76c0.34,0,0.69-0.11,0.99-0.29c0.1-0.34,0.19-0.72,0.28-1.12
		c0,0-0.29-3.38-1.19-6.14h-0.08C1164.05,135.48,1162.9,137.18,1162.9,139.26z"/>
	<path class="st19" d="M1165.42,119.98c0,0,2.92,15.5,1.31,23.42c0,0,0.94-11.92-2.68-20.41L1165.42,119.98z"/>
	
		<linearGradient id="SVGID_32_" gradientUnits="userSpaceOnUse" x1="433.5529" y1="125.8143" x2="433.5529" y2="114.1554" gradientTransform="matrix(-1 0 0 1 1596.8075 0)">
		<stop  offset="0" style="stop-color:#1C257B"/>
		<stop  offset="1" style="stop-color:#482C83"/>
	</linearGradient>
	<path class="st35" d="M1165.99,125.81c0,0-0.35-5.23-1.13-9.67l-0.52,1.83l-1.52-3.82c0,0-3.92,2.38-1.52,7.51
		C1161.3,121.66,1163.81,121.37,1165.99,125.81z"/>
	<path class="st19" d="M1181.19,163.75c0,0-0.33,3.54-6.86,5.54c-6.53,2-12.11,0.77-14.15-1.49c0,0,2.1,2.53,5.94,3.22
		c3.83,0.7,9.63-0.21,12.37-2.31c3.01-2.31,3.61-4.35,3.61-4.35L1181.19,163.75z"/>
	<path class="st36" d="M1184.02,165.25c0,0-3.18-1.63-6.01-2.11c0,0,3.01-0.57,4.4-0.22
		C1183.8,163.27,1184.02,165.25,1184.02,165.25z"/>
	<g class="st37">
		
			<linearGradient id="SVGID_33_" gradientUnits="userSpaceOnUse" x1="426.6628" y1="161.6938" x2="429.871" y2="151.8819" gradientTransform="matrix(-1 0 0 1 1596.8075 0)">
			<stop  offset="0" style="stop-color:#FF8883"/>
			<stop  offset="1" style="stop-color:#E8868D"/>
		</linearGradient>
		<path class="st38" d="M1177.31,155.6c0,0-4.53,0-8.71,0.26c-4.18,0.26-8.02-0.26-9.58-1.39c0,0-0.26,4.88,4.97,7.84
			c0,0,2.09,0.78,4.27,0c0,0,2-2.18,5.75-2.87C1174.01,159.43,1177.49,158.39,1177.31,155.6z"/>
		
			<linearGradient id="SVGID_34_" gradientUnits="userSpaceOnUse" x1="428.6388" y1="157.3439" x2="428.6388" y2="147.5947" gradientTransform="matrix(-1 0 0 1 1596.8075 0)">
			<stop  offset="0" style="stop-color:#FF8883"/>
			<stop  offset="1" style="stop-color:#FFB1A4"/>
		</linearGradient>
		<path class="st39" d="M1169.04,147.65c5.4,0.76,8.27,7.95,8.27,7.95l-10.19,1.74c-4.62-0.26-8.1-2.87-8.1-2.87
			S1163.64,146.89,1169.04,147.65z"/>
		<path class="st40" d="M1174.33,159.31c0,0-0.51-0.47-2.18-0.38c-1.67,0.1-3.26,2.8-3.26,2.8S1170.63,160.14,1174.33,159.31z"/>
	</g>
	<g class="st37">
		
			<linearGradient id="SVGID_35_" gradientUnits="userSpaceOnUse" x1="268.3201" y1="379.7184" x2="268.3201" y2="304.4045" gradientTransform="matrix(-0.8807 0.4736 0.4736 0.8807 1448.1957 -251.3412)">
			<stop  offset="0" style="stop-color:#1C257B"/>
			<stop  offset="1" style="stop-color:#482C83"/>
		</linearGradient>
		<path class="st41" d="M1360.86,145.95l16.95,31.52c0,0,4.38,18.26,12.48,25.44c0,0,0.94,3.5-1.41,8.77l-35.67-66.33
			C1353.21,145.35,1357.47,143.54,1360.86,145.95z"/>
		
			<linearGradient id="SVGID_36_" gradientUnits="userSpaceOnUse" x1="966.3052" y1="379.8965" x2="966.3052" y2="304.5827" gradientTransform="matrix(0.8807 -0.4736 0.4736 0.8807 355.0936 336.2766)">
			<stop  offset="0" style="stop-color:#1C257B"/>
			<stop  offset="1" style="stop-color:#482C83"/>
		</linearGradient>
		<path class="st42" d="M1349.49,152.06l16.95,31.52c0,0,12.82,13.72,14.35,24.44c0,0,2.4,2.71,8.09,3.66l-35.67-66.33
			C1353.21,145.35,1349.35,147.9,1349.49,152.06z"/>
		
			<linearGradient id="SVGID_37_" gradientUnits="userSpaceOnUse" x1="271.5469" y1="381.8449" x2="271.5469" y2="378.5399" gradientTransform="matrix(-0.8807 0.4736 0.4736 0.8807 1448.1957 -251.3412)">
			<stop  offset="0" style="stop-color:#1C257B"/>
			<stop  offset="1" style="stop-color:#482C83"/>
		</linearGradient>
		<path class="st43" d="M1389.55,209.98l-2.45,1.32c0,0,2.08,2.63,2.79,2.25C1390.59,213.17,1389.55,209.98,1389.55,209.98z"/>
		
			<linearGradient id="SVGID_38_" gradientUnits="userSpaceOnUse" x1="271.5467" y1="372.6642" x2="271.5467" y2="344.3435" gradientTransform="matrix(-0.8807 0.4736 0.4736 0.8807 1448.1957 -251.3412)">
			<stop  offset="0" style="stop-color:#6A4FAC"/>
			<stop  offset="1" style="stop-color:#513689"/>
		</linearGradient>
		<path class="st44" d="M1390.29,202.91l-9.5,5.11c0,0-1.1-9.18-14.35-24.44l11.37-6.11
			C1377.81,177.47,1380.44,191.6,1390.29,202.91z"/>
	</g>
	
		<linearGradient id="SVGID_39_" gradientUnits="userSpaceOnUse" x1="235.5015" y1="173.5186" x2="235.5015" y2="136.9543" gradientTransform="matrix(-1 0 0 1 1596.8075 0)">
		<stop  offset="0.016" style="stop-color:#FFA58B"/>
		<stop  offset="1" style="stop-color:#FF898E"/>
	</linearGradient>
	<path class="st45" d="M1347.07,170.35c0,0,5.57-6.91,10.45-14.57c4.88-7.66,13.67-20.03,16.68-18.73c3,1.31,0.39,9.15-2.35,14.11
		c-2.74,4.96-6.27,6.79-7.84,9.41c-1.57,2.61-6.14,12.65-6.14,12.65S1350.78,174.9,1347.07,170.35z"/>
	
		<linearGradient id="SVGID_40_" gradientUnits="userSpaceOnUse" x1="511.3278" y1="369.105" x2="511.3278" y2="357.4831" gradientTransform="matrix(-1 0 0 1 1596.8075 0)">
		<stop  offset="0" style="stop-color:#1C257B"/>
		<stop  offset="1" style="stop-color:#482C83"/>
	</linearGradient>
	<path class="st46" d="M1087.13,357.86c0,0,2.21,10.57,1.26,11.22c-0.96,0.65-6.06-11.6-6.06-11.6L1087.13,357.86z"/>
	<g class="st37">
		
			<linearGradient id="SVGID_41_" gradientUnits="userSpaceOnUse" x1="523.6061" y1="585.6848" x2="523.6061" y2="369.0611" gradientTransform="matrix(-1 0 0 1 1596.8075 0)">
			<stop  offset="0" style="stop-color:#1C257B"/>
			<stop  offset="1" style="stop-color:#482C83"/>
		</linearGradient>
		<path class="st47" d="M1119.23,585.68l0.69-0.07c-0.04-0.36-4.17-36.44-48.07-49.52c-24.02-7.16-39.99-23.8-43.82-45.67
			c-3.78-21.62,5.34-44.14,23.24-57.36c35.01-25.86,37.44-63.59,37.46-63.97l-0.69-0.04c-0.02,0.38-2.44,37.8-37.18,63.45
			c-18.11,13.38-27.34,36.16-23.51,58.03c3.87,22.13,20.02,38.98,44.3,46.21C1115.11,549.71,1119.19,585.33,1119.23,585.68z"/>
	</g>
	
		<linearGradient id="SVGID_42_" gradientUnits="userSpaceOnUse" x1="1103.5378" y1="131.644" x2="1103.5378" y2="101.9362" gradientTransform="matrix(0.983 0.1833 -0.1833 0.983 157.0849 -146.2669)">
		<stop  offset="0.016" style="stop-color:#FFAC8B"/>
		<stop  offset="1" style="stop-color:#FF9595"/>
	</linearGradient>
	<path class="st48" d="M1214.69,161.83c0,0,8.63-8.6,13.79-3.73c6.12,5.77,1.79,18.49-4.98,23.99c-5.88,4.77-12.22,3.51-13.53-2.18
		C1209.98,179.9,1208.18,167.07,1214.69,161.83z"/>
	<path class="st19" d="M1214.92,169.92c0,0,5.08-5.96,9.27-4.43c4.19,1.53,2.99,8.21,2.99,8.21s-0.05-4.89-2.77-5.62
		c-2.72-0.73-4.39,2.78-4.39,2.78s1.46,0.12,1.41,4.24c-0.05,4.12-4.86,7.95-6.77,5.04
		C1212.75,177.25,1214.92,169.92,1214.92,169.92z"/>
	<path class="st49" d="M1184.63,142.54c0,0.51,0.41,0.91,0.91,0.91c0.5,0,0.91-0.41,0.91-0.91c0-0.51-0.41-0.91-0.91-0.91
		C1185.04,141.62,1184.63,142.03,1184.63,142.54z"/>
	<path class="st49" d="M1160.19,139.36c0,0.51,0.41,0.92,0.92,0.92c0.51,0,0.92-0.41,0.92-0.92s-0.41-0.92-0.92-0.92
		C1160.6,138.44,1160.19,138.85,1160.19,139.36z"/>
	
		<linearGradient id="SVGID_43_" gradientUnits="userSpaceOnUse" x1="391.0329" y1="201.7574" x2="428.2502" y2="201.7574" gradientTransform="matrix(-1 0 0 1 1596.8075 0)">
		<stop  offset="0" style="stop-color:#CF6074"/>
		<stop  offset="1" style="stop-color:#FF817F"/>
	</linearGradient>
	<path class="st50" d="M1205.77,194.21c0,0-13.58,26.37-37.22,24.02c0,0,2.11-9.25,1.88-15.84c0,0,11.01-0.29,19.17-3.67
		c9.19-3.81,16.16-13.57,16.16-13.57L1205.77,194.21z"/>
	
		<linearGradient id="SVGID_44_" gradientUnits="userSpaceOnUse" x1="242.1585" y1="209.0845" x2="242.1585" y2="180.2534" gradientTransform="matrix(-1 0 0 1 1596.8075 0)">
		<stop  offset="0.016" style="stop-color:#FF997C"/>
		<stop  offset="1" style="stop-color:#FF898E"/>
	</linearGradient>
	<path class="st51" d="M1347.07,208.73c6.41,1.83,18.33-3.81,19.37-9.23c1.04-5.43-7-20.12-14.19-19.21
		c-7.19,0.91-10.64,6.21-9.15,10.97C1344.82,196.73,1343.41,207.69,1347.07,208.73z"/>
	
		<linearGradient id="SVGID_45_" gradientUnits="userSpaceOnUse" x1="251.8898" y1="192.3588" x2="258.6221" y2="192.3588" gradientTransform="matrix(-1 0 0 1 1596.8075 0)">
		<stop  offset="0" style="stop-color:#CF6074"/>
		<stop  offset="1" style="stop-color:#FF817F"/>
	</linearGradient>
	<path class="st52" d="M1338.19,182.78c0,0,7.14,11.89,6.49,21.69c0,0,1.88-14.19-4.79-24.21L1338.19,182.78z"/>
	
		<linearGradient id="SVGID_46_" gradientUnits="userSpaceOnUse" x1="258.4042" y1="230.3477" x2="258.4042" y2="218.4433" gradientTransform="matrix(-1 0 0 1 1596.8075 0)">
		<stop  offset="0" style="stop-color:#CF6074"/>
		<stop  offset="1" style="stop-color:#FF817F"/>
	</linearGradient>
	<path class="st53" d="M1343.11,221.71c0,0-6.66-1.31-9.41-3.27l7.85,11.9C1341.55,230.35,1342.59,225.59,1343.11,221.71z"/>
	
		<linearGradient id="SVGID_47_" gradientUnits="userSpaceOnUse" x1="307.313" y1="327.6852" x2="307.313" y2="264.3006" gradientTransform="matrix(-1 0 0 1 1596.8075 0)">
		<stop  offset="0" style="stop-color:#CF6074"/>
		<stop  offset="1" style="stop-color:#FF817F"/>
	</linearGradient>
	<path class="st54" d="M1296.47,266.13c0,0-4.65,5.5-7.75,27.09c-3.1,21.59,5.42,34.47,5.42,34.47s-8.63-1.63-11.21-26.89
		c-2.57-25.26,8.05-36.49,8.05-36.49L1296.47,266.13z"/>
	
		<linearGradient id="SVGID_48_" gradientUnits="userSpaceOnUse" x1="407.9082" y1="420.5491" x2="407.9082" y2="215.0539" gradientTransform="matrix(-1 0 0 1 1596.8075 0)">
		<stop  offset="0" style="stop-color:#8B8BE0"/>
		<stop  offset="1" style="stop-color:#A177B7"/>
	</linearGradient>
	<path class="st55" d="M1131.32,400.43c0,0,3.14,8.11,35.8,10.98c32.66,2.88,58,9.14,58,9.14s1.97-6.52-1.63-11.49
		c0,0,5.56-4.96,5.3-6.8c-0.26-1.83-12.29-22.73-9.16-37.36c3.14-14.63,14.89-26.51,21.43-55.07c0,0,4.36-1.46,4.62-3.56
		c0.26-2.08-1.92-5.49-1.92-5.49l-0.79,1.49c0,0-14.89-8.54-10.88-44.6c4-36.06,8.23-38.25,15.69-37.25c0,0-5.94-5.5-7.34-5.38
		c0,0-8.85,6.65-14.96,42.41c-5.11,29.95-13.62,48.64-13.62,48.64s-16.75,6.27-36.39,5.62c-19.61-0.65-17.62-3.13-34.84-1.89
		c0,0,37.19,3.97,51.3,6.52c14.11,2.55,26.99,7.9,26.99,7.9s-11.95,27.84-10,46.38c1.4,13.28,6.27,24.37,6.27,24.37
		s-2.46,0.97-26.44-0.07c-23.98-1.05-55.08-13.86-55.08-13.86s0,0.03-0.01,0.07c-0.1,0.54-0.69,4.21,0.28,6.99
		c0,0,23.95,5.23,46.07,9.41c22.12,4.18,35.18,10.98,35.18,10.98s-4.52,2.53-38.98-1.22c-34.46-3.74-44.43-6.03-46.18-13.04
		l-0.01,0.03C1129.78,397.01,1131.32,400.43,1131.32,400.43z"/>
	
		<linearGradient id="SVGID_49_" gradientUnits="userSpaceOnUse" x1="396.8767" y1="319.565" x2="396.8767" y2="310.4324" gradientTransform="matrix(-1 0 0 1 1596.8075 0)">
		<stop  offset="0" style="stop-color:#8B8BE0"/>
		<stop  offset="1" style="stop-color:#A177B7"/>
	</linearGradient>
	<path class="st56" d="M1223.5,317.8c0,0-4.09-5.45-13.53-6.99c-9.44-1.54-24.41,2.11-33.62,2.09c0,0,25.75,4.88,35.52,6.27
		C1221.65,320.57,1223.5,317.8,1223.5,317.8z"/>
	
		<linearGradient id="SVGID_50_" gradientUnits="userSpaceOnUse" x1="459.343" y1="273.3588" x2="459.343" y2="219.2094" gradientTransform="matrix(-1 0 0 1 1596.8075 0)">
		<stop  offset="0" style="stop-color:#8B8BE0"/>
		<stop  offset="1" style="stop-color:#A177B7"/>
	</linearGradient>
	<path class="st57" d="M1143.09,221.7c0,0-9.41,16.47-11.15,51.66c0,0-1.56-27.82,8.02-54.15
		C1139.95,219.21,1141.46,219.61,1143.09,221.7z"/>
	
		<linearGradient id="SVGID_51_" gradientUnits="userSpaceOnUse" x1="439.8121" y1="286.772" x2="439.8121" y2="236.5139" gradientTransform="matrix(-1 0 0 1 1596.8075 0)">
		<stop  offset="0" style="stop-color:#8B8BE0"/>
		<stop  offset="1" style="stop-color:#A177B7"/>
	</linearGradient>
	<path class="st58" d="M1144.39,236.51c0,0,2.86,20.67,25.21,50.26c0,0-14.62-11.85-19.76-23.34
		C1144.39,251.24,1144.39,236.51,1144.39,236.51z"/>
	
		<linearGradient id="SVGID_52_" gradientUnits="userSpaceOnUse" x1="423.6446" y1="383.0014" x2="423.6446" y2="369.1051" gradientTransform="matrix(-1 0 0 1 1596.8075 0)">
		<stop  offset="0" style="stop-color:#8B8BE0"/>
		<stop  offset="1" style="stop-color:#A177B7"/>
	</linearGradient>
	<path class="st59" d="M1199.93,369.11c0,0-6.5,10.51-20.61,13.13c-14.11,2.61-32.92-2.26-32.92-2.26s18.12,3.14,31.7-1.39
		C1191.69,374.04,1199.93,369.11,1199.93,369.11z"/>
	
		<linearGradient id="SVGID_53_" gradientUnits="userSpaceOnUse" x1="357.8372" y1="302.2812" x2="357.8372" y2="275.5298" gradientTransform="matrix(-1 0 0 1 1596.8075 0)">
		<stop  offset="0" style="stop-color:#9D68C2"/>
		<stop  offset="1" style="stop-color:#90AEFF"/>
	</linearGradient>
	<path class="st60" d="M1246.3,287.81c0,0-10.58-4.37-14.65-12.29c0,0,0.63,19.62,11.34,26.75
		C1242.99,302.28,1245.66,294.34,1246.3,287.81z"/>
	
		<linearGradient id="SVGID_54_" gradientUnits="userSpaceOnUse" x1="438.201" y1="467.7623" x2="438.201" y2="426.9558" gradientTransform="matrix(-1 0 0 1 1596.8075 0)">
		<stop  offset="0" style="stop-color:#8B8BE0"/>
		<stop  offset="1" style="stop-color:#A177B7"/>
	</linearGradient>
	<path class="st61" d="M1174.09,467.76l-5.57-20.38c0,0-9.68-14.02-25.4-20.43l15.49,23.74L1174.09,467.76z"/>
	
		<linearGradient id="SVGID_55_" gradientUnits="userSpaceOnUse" x1="359.2623" y1="585.6498" x2="359.2623" y2="445.1791" gradientTransform="matrix(-1 0 0 1 1596.8075 0)">
		<stop  offset="0" style="stop-color:#8B8BE0"/>
		<stop  offset="1" style="stop-color:#A177B7"/>
	</linearGradient>
	<path class="st62" d="M1208.94,555.38c2.34,2.62,7.05,4.96,7.05,4.96c2.62,4.96,8.11,25.31,8.11,25.31h42.06
		c-2.34-10.76-13.06-26.86-16.47-32.88c-3.39-6.01-16.19-47.04-19.6-74.21c-1.42-11.32-2.51-23.28-3.31-33.39
		c-0.04,0.77-1.44,8.67,2.63,47.03c4.18,39.37,7.04,56.38,6.69,59.86C1235.76,555.56,1218.69,563.92,1208.94,555.38z"/>
	
		<linearGradient id="SVGID_56_" gradientUnits="userSpaceOnUse" x1="446.2601" y1="585.6498" x2="446.2601" y2="468.1266" gradientTransform="matrix(-1 0 0 1 1596.8075 0)">
		<stop  offset="0" style="stop-color:#8B8BE0"/>
		<stop  offset="1" style="stop-color:#A177B7"/>
	</linearGradient>
	<path class="st63" d="M1127.08,550.04c1.12,3.85,2.52,6.73,3.3,10.04c1.21,5.23,2.61,25.57,2.61,25.57h36.59
		c-1.39-7.53-3.13-13.36-5.23-32.19c-2-18,8.76-80.03,9.68-85.34c-1.21,5.71-14.73,70.04-17.78,75.5
		C1149.62,555.47,1131.64,559.48,1127.08,550.04z"/>
	
		<linearGradient id="SVGID_57_" gradientUnits="userSpaceOnUse" x1="374.0729" y1="567.6098" x2="374.0729" y2="553.0521" gradientTransform="matrix(-1 0 0 1 1596.8075 0)">
		<stop  offset="0" style="stop-color:#8B8BE0"/>
		<stop  offset="1" style="stop-color:#A177B7"/>
	</linearGradient>
	<path class="st64" d="M1235.66,553.05c0,0-2.89,12.67-16.9,14.56l-2.78-7.27c0,0-5.3-3.23-6.18-4.1c0,0,3.91,2.97,12.93,1.57
		C1231.75,556.43,1235.66,553.05,1235.66,553.05z"/>
	
		<linearGradient id="SVGID_58_" gradientUnits="userSpaceOnUse" x1="458.5973" y1="560.082" x2="458.5973" y2="550.0425" gradientTransform="matrix(-1 0 0 1 1596.8075 0)">
		<stop  offset="0" style="stop-color:#8B8BE0"/>
		<stop  offset="1" style="stop-color:#A177B7"/>
	</linearGradient>
	<path class="st65" d="M1149.34,551.91c0,0-6.34,7.13-18.97,8.18c0,0-2.36-6.16-3.3-10.04c0,0,5.28,5.02,11.13,5.02
		C1144.39,555.06,1149.34,551.91,1149.34,551.91z"/>
	
		<linearGradient id="SVGID_59_" gradientUnits="userSpaceOnUse" x1="515.9094" y1="355.9265" x2="515.9094" y2="257.4698" gradientTransform="matrix(-1 0 0 1 1596.8075 0)">
		<stop  offset="0" style="stop-color:#8642A0"/>
		<stop  offset="1" style="stop-color:#6456C0"/>
	</linearGradient>
	<path class="st66" d="M1021.84,264.3c52.79-6.8,74.25-3.65,74.25-3.65c18.89,32.33,41.77,95.28,41.77,95.28l2.1-3.38
		c-13.58-41.1-42.86-94.69-42.86-94.69c-35.88-1.92-73.86,3.82-73.86,3.82L1021.84,264.3z"/>
	
		<linearGradient id="SVGID_60_" gradientUnits="userSpaceOnUse" x1="544.0431" y1="311.4209" x2="557.0441" y2="311.4209" gradientTransform="matrix(-1 0 0 1 1596.8075 0)">
		<stop  offset="0" style="stop-color:#CF6074"/>
		<stop  offset="1" style="stop-color:#FF817F"/>
	</linearGradient>
	<path class="st67" d="M1040.66,310.9c0,0,6.88,0.78,12.11,0.44c0,0-7.19,1.31-13,0.09L1040.66,310.9z"/>
	
		<linearGradient id="SVGID_61_" gradientUnits="userSpaceOnUse" x1="377.8175" y1="224.7782" x2="377.8175" y2="224.4611" gradientTransform="matrix(-1 0 0 1 1596.8075 0)">
		<stop  offset="0" style="stop-color:#9D68C2"/>
		<stop  offset="1" style="stop-color:#CCEDFF"/>
	</linearGradient>
	<path class="st68" d="M1219.05,224.46c-0.03,0.11-0.07,0.21-0.11,0.32C1218.99,224.63,1219.03,224.52,1219.05,224.46z"/>
	
		<linearGradient id="SVGID_62_" gradientUnits="userSpaceOnUse" x1="422.3653" y1="395.7034" x2="422.3653" y2="374.5714" gradientTransform="matrix(-1 0 0 1 1596.8075 0)">
		<stop  offset="0" style="stop-color:#B9ACF4"/>
		<stop  offset="1" style="stop-color:#E1D1F5"/>
	</linearGradient>
	<path class="st69" d="M1215.2,395.02c0,0-12.75,0.41-38.98-4.25c-27.91-4.96-37.83-16.2-37.83-16.2s-4.01,2.61-4.7,6.52
		c0,0,23.67,9.99,42.54,12.45C1195.08,395.99,1211.38,396.17,1215.2,395.02z"/>
	
		<linearGradient id="SVGID_63_" gradientUnits="userSpaceOnUse" x1="437.6896" y1="408.4649" x2="437.6896" y2="392.5957" gradientTransform="matrix(-1 0 0 1 1596.8075 0)">
		<stop  offset="0" style="stop-color:#B9ACF4"/>
		<stop  offset="1" style="stop-color:#E1D1F5"/>
	</linearGradient>
	<path class="st70" d="M1188.02,408.46c0,0-15.8-2.54-33.44-6.85c-17.64-4.31-24.05-9.02-24.05-9.02s-2.91,5.67,8.68,8.94
		C1150.79,404.81,1188.02,408.46,1188.02,408.46z"/>
	
		<linearGradient id="SVGID_64_" gradientUnits="userSpaceOnUse" x1="497.0301" y1="358.3915" x2="497.0301" y2="300.4471" gradientTransform="matrix(-1 0 0 1 1596.8075 0)">
		<stop  offset="0" style="stop-color:#B9ACF4"/>
		<stop  offset="1" style="stop-color:#E1D1F5"/>
	</linearGradient>
	<path class="st71" d="M1116.46,302.35l-56.86,46.8l2.66,5.56c0,0,35.88,7.4,75.6,1.21l2.1-3.38c0,0-12.82-34.3-21.43-52.1
		L1116.46,302.35z"/>
	
		<linearGradient id="SVGID_65_" gradientUnits="userSpaceOnUse" x1="372.2468" y1="517.9308" x2="372.2468" y2="459.4007" gradientTransform="matrix(-1 0 0 1 1596.8075 0)">
		<stop  offset="0" style="stop-color:#8B8BE0"/>
		<stop  offset="1" style="stop-color:#A177B7"/>
	</linearGradient>
	<path class="st72" d="M1225.37,459.4c0,0,3.57,28.17-2.63,58.53L1225.37,459.4z"/>
	
		<linearGradient id="SVGID_66_" gradientUnits="userSpaceOnUse" x1="435.1257" y1="520.6307" x2="435.1257" y2="449.82" gradientTransform="matrix(-1 0 0 1 1596.8075 0)">
		<stop  offset="0" style="stop-color:#8B8BE0"/>
		<stop  offset="1" style="stop-color:#A177B7"/>
	</linearGradient>
	<path class="st73" d="M1166.86,466.02c0,0-9.68,38.32-17.52,54.61c0,0,15.43-21.16,21.04-35.45l3.64-17.05l-4.42-18.31
		L1166.86,466.02z"/>
	
		<linearGradient id="SVGID_67_" gradientUnits="userSpaceOnUse" x1="429.8924" y1="238.473" x2="429.8924" y2="218.2253" gradientTransform="matrix(-1 0 0 1 1596.8075 0)">
		<stop  offset="0" style="stop-color:#3D2CB0"/>
		<stop  offset="1" style="stop-color:#0355C7"/>
	</linearGradient>
	<path class="st74" d="M1166.73,218.37l1.82-0.15c0,0-3.77,6.03-4.55,11c-0.78,4.96,2.51,8.16,7.61,9.25c0,0-8.22-0.48-9.27-6.14
		C1161.3,226.67,1166.73,218.37,1166.73,218.37z"/>
	
		<linearGradient id="SVGID_68_" gradientUnits="userSpaceOnUse" x1="377.3546" y1="136.709" x2="373.1676" y2="110.2733" gradientTransform="matrix(-1 0 0 1 1596.8075 0)">
		<stop  offset="0" style="stop-color:#5E3187"/>
		<stop  offset="0.3777" style="stop-color:#422271"/>
		<stop  offset="0.7555" style="stop-color:#2C1760"/>
		<stop  offset="1" style="stop-color:#24135A"/>
	</linearGradient>
	<path class="st75" d="M1225.27,115.54c0,0,8.76,5.05,9.02,11.71c0.26,6.66-5.37,10.96-5.37,10.96l-0.77-3.6c0,0-4.31,0.7-8.36-0.78
		s-5.92-3.14-5.92-3.14s5.15-3.03,5.27-8.06c0.12-5.04-8.79-14.12-8.79-14.12l7.98,0.93
		C1218.34,109.43,1223.43,113.5,1225.27,115.54z"/>
	
		<linearGradient id="SVGID_69_" gradientUnits="userSpaceOnUse" x1="417.7846" y1="109.0892" x2="417.7846" y2="85.2265" gradientTransform="matrix(-1 0 0 1 1596.8075 0)">
		<stop  offset="0" style="stop-color:#8B8BE0"/>
		<stop  offset="1" style="stop-color:#A177B7"/>
	</linearGradient>
	<path class="st76" d="M1183.97,109.09c0,0-8.02-8.71-9.64-14.8c-1.62-6.1,4.82-9.06,4.82-9.06s-2.28,2.53-1.83,8.36
		C1177.76,99.42,1183.97,109.09,1183.97,109.09z"/>
	
		<linearGradient id="SVGID_70_" gradientUnits="userSpaceOnUse" x1="400.4332" y1="109.0892" x2="400.4332" y2="92.8896" gradientTransform="matrix(-1 0 0 1 1596.8075 0)">
		<stop  offset="0" style="stop-color:#8B8BE0"/>
		<stop  offset="1" style="stop-color:#A177B7"/>
	</linearGradient>
	<path class="st77" d="M1208.92,107.39c0,0-8.16-14.32-15.82-14.5c-7.66-0.17-9.89,13.94-9.12,16.2c0,0,0.22-5.59,9.74-5.86
		C1203.23,102.95,1208.92,107.39,1208.92,107.39z"/>
	
		<linearGradient id="SVGID_71_" gradientUnits="userSpaceOnUse" x1="433.3261" y1="107.79" x2="433.3261" y2="97.3259" gradientTransform="matrix(-1 0 0 1 1596.8075 0)">
		<stop  offset="0" style="stop-color:#8B8BE0"/>
		<stop  offset="1" style="stop-color:#A177B7"/>
	</linearGradient>
	<path class="st78" d="M1166.6,104.65c0,0-4.2-5.37-4.96-7.32c0,0-1.06,4.72-1.25,8.11c0,0-0.61,1.57,4.61,2.35L1166.6,104.65z"/>
	
		<linearGradient id="SVGID_72_" gradientUnits="userSpaceOnUse" x1="402.2742" y1="159.142" x2="402.2742" y2="131.4779" gradientTransform="matrix(-1 0 0 1 1596.8075 0)">
		<stop  offset="0" style="stop-color:#F2C7CC"/>
		<stop  offset="1" style="stop-color:#A177B7"/>
	</linearGradient>
	<path class="st79" d="M1221.72,157.19l-13.99-11.65c0,0-0.53,11.06-10.2,13.02c-9.67,1.96-16.88-1.2-19.52-7.31
		c-2.64-6.11-3.13-14.59-3.13-14.59s-0.64-0.99-3.73-0.96c-3.09,0.03-4.41,1.24-4.41,1.24v-5.26c0,0,6.41-0.99,9.19,1.27
		c0,0-0.95,16.96,5.09,21.16c6.05,4.2,11.17,4.74,17.65,1.46c5.01-2.54,7.1-10.62,5.55-15.29l4.7,0.95l13.41,15.75L1221.72,157.19z"
		/>
	<g class="st37">
		
			<linearGradient id="SVGID_73_" gradientUnits="userSpaceOnUse" x1="405.1381" y1="156.3051" x2="408.3581" y2="129.5203" gradientTransform="matrix(-1 0 0 1 1596.8075 0)">
			<stop  offset="0" style="stop-color:#1C257B"/>
			<stop  offset="1" style="stop-color:#482C83"/>
		</linearGradient>
		<path class="st80" d="M1176.87,150.73c2.65,4.04,7.15,7.14,16.72,5.25c8.19-1.61,14.8-12.92,9.64-18.63
			c-5.16-5.71-23.56-9.03-26.21-5.52C1174.64,135.01,1174.07,146.46,1176.87,150.73z M1178.01,132.74
			c2.59-2.74,23.87,0.36,25.44,7.55c1.57,7.19-5.44,13.56-9.55,14.66c-6.67,1.77-14.59-0.23-16.74-6.18
			C1175,142.81,1175.92,134.95,1178.01,132.74z"/>
		
			<linearGradient id="SVGID_74_" gradientUnits="userSpaceOnUse" x1="405.6341" y1="156.2482" x2="408.8542" y2="129.4634" gradientTransform="matrix(-1 0 0 1 1596.8075 0)">
			<stop  offset="0" style="stop-color:#1C257B"/>
			<stop  offset="1" style="stop-color:#65459C"/>
		</linearGradient>
		<path class="st81" d="M1176.38,150.67c2.66,4.04,7.15,7.14,16.72,5.25c8.19-1.62,14.8-12.92,9.64-18.63
			c-5.16-5.71-23.56-9.03-26.21-5.52C1174.14,134.95,1173.58,146.4,1176.38,150.67z M1177.52,132.68
			c2.59-2.74,23.87,0.36,25.44,7.55c1.57,7.19-5.44,13.56-9.55,14.66c-6.67,1.77-14.59-0.23-16.74-6.18
			C1174.51,142.75,1175.42,134.89,1177.52,132.68z"/>
		
			<linearGradient id="SVGID_75_" gradientUnits="userSpaceOnUse" x1="434.8351" y1="150.8943" x2="437.5598" y2="128.2294" gradientTransform="matrix(-1 0 0 1 1596.8075 0)">
			<stop  offset="0" style="stop-color:#1C257B"/>
			<stop  offset="1" style="stop-color:#482C83"/>
		</linearGradient>
		<path class="st82" d="M1156.12,150.59c1.07,0.75,4.63,1.54,7.13-1.79c3.97-5.27,4.76-17.81,3.31-18.84
			c-2.23-1.6-11.18-2.58-12.75,0C1152.24,132.55,1153.16,148.5,1156.12,150.59z M1154.79,130.65c2.09-2.31,9.4-1.64,10.85,0.56
			c1.74,2.64-0.63,14.8-3.31,17.28c-2.98,2.76-6.02,1.97-7.25-1.43C1153.65,143.12,1152.7,132.95,1154.79,130.65z"/>
		
			<linearGradient id="SVGID_76_" gradientUnits="userSpaceOnUse" x1="435.3901" y1="150.8943" x2="438.1148" y2="128.2294" gradientTransform="matrix(-1 0 0 1 1596.8075 0)">
			<stop  offset="0" style="stop-color:#1C257B"/>
			<stop  offset="1" style="stop-color:#65459C"/>
		</linearGradient>
		<path class="st83" d="M1155.57,150.59c1.07,0.75,4.63,1.54,7.13-1.79c3.97-5.27,4.76-17.81,3.31-18.84
			c-2.23-1.6-11.18-2.58-12.75,0C1151.69,132.55,1152.6,148.5,1155.57,150.59z M1154.23,130.65c2.09-2.31,9.4-1.64,10.85,0.56
			c1.74,2.64-0.63,14.8-3.31,17.28c-2.98,2.76-6.02,1.97-7.25-1.43C1153.1,143.12,1152.14,132.95,1154.23,130.65z"/>
		
			<linearGradient id="SVGID_77_" gradientUnits="userSpaceOnUse" x1="424.8424" y1="133.9896" x2="425.2984" y2="130.1965" gradientTransform="matrix(-1 0 0 1 1596.8075 0)">
			<stop  offset="0" style="stop-color:#1C257B"/>
			<stop  offset="1" style="stop-color:#65459C"/>
		</linearGradient>
		<path class="st84" d="M1175.64,133.55c0,0-4.02-3-8.98-0.85c0,0,0.1-1.06-0.22-1.82c0,0,3.54-1.05,10.37,0.6
			C1176.81,131.48,1175.88,132.92,1175.64,133.55z"/>
		
			<linearGradient id="SVGID_78_" gradientUnits="userSpaceOnUse" x1="381.3696" y1="157.8118" x2="383.7859" y2="137.7124" gradientTransform="matrix(-1 0 0 1 1596.8075 0)">
			<stop  offset="0" style="stop-color:#1C257B"/>
			<stop  offset="1" style="stop-color:#65459C"/>
		</linearGradient>
		<path class="st85" d="M1204.22,138.77l4.7,1.52l15.3,16.34c0,0-0.52-0.15-1.89,0.36l-13.71-14.5c0,0-2.26-1.19-3.85-0.86
			C1204.77,141.62,1204.83,139.74,1204.22,138.77z"/>
		
			<linearGradient id="SVGID_79_" gradientUnits="userSpaceOnUse" x1="384.5811" y1="147.8768" x2="384.5811" y2="142.2107" gradientTransform="matrix(-1 0 0 1 1596.8075 0)">
			<stop  offset="0" style="stop-color:#8642A0"/>
			<stop  offset="1" style="stop-color:#6456C0"/>
		</linearGradient>
		<polygon class="st86" points="1210.72,142.21 1210.58,144.56 1213.72,147.88 1213.87,145.57 		"/>
		<path class="st87" d="M1175.61,131.21l-0.8,0.84c0,0-2.37-0.53-4.64-0.55c-2.26-0.02-2.83,0.25-2.83,0.25l-0.6-0.95
			C1166.74,130.81,1170.75,129.94,1175.61,131.21z"/>
		<path class="st87" d="M1164.65,129.32l-0.49,0.65c0,0-3.18-1.88-8.38-0.65l0.14-0.73
			C1155.92,128.58,1160.28,127.79,1164.65,129.32z"/>
		<path class="st87" d="M1184.63,131.28l-0.25-0.73c0,0-5.87-0.61-7.46,1.02c-1.59,1.63-2.04,5.1-2.04,5.1l0.73,0.1
			c0,0,0.56-3.68,2.33-4.76C1179.76,130.89,1184.63,131.28,1184.63,131.28z"/>
		<path class="st88" d="M1197.53,152.63c0,0-3.09,3.85-10.14,3.26c-7.05-0.59-10.07-5.77-10.07-5.77s3.33,5.22,10.23,5.44
			C1194.45,155.78,1197.53,152.63,1197.53,152.63z"/>
		<path class="st88" d="M1161.77,148.49c0,0-1.92,2.14-4.07,1.85c-2.16-0.29-2.96-2.75-2.96-2.75s1.23,2.5,3.52,2.37
			C1160.54,149.84,1161.77,148.49,1161.77,148.49z"/>
		<path class="st88" d="M1190.03,155.51c0,0-0.55,0.41-2.07,0.45c-1.52,0.04-3.13-0.76-3.13-0.76S1187.83,155.69,1190.03,155.51z"/>
		<path class="st88" d="M1160.15,149.73c0,0-1.69,0.61-3.05,0c-1.36-0.61-1.65-1.11-1.65-1.11s0.05,1.55,1.72,1.75
			C1158.83,150.57,1160.15,149.73,1160.15,149.73z"/>
		<path class="st88" d="M1195.42,154.36c0,0,0.26-5.65-6.44-9.6c-6.7-3.95-12.88-0.59-12.88-0.59s-0.21,4.92,3.39,8.3
			C1183.1,155.85,1190.96,156.04,1195.42,154.36z"/>
		<path class="st88" d="M1163.16,146.33c0,0-4.51-5.75-9.59-7.56c0,0,0.11,7.79,1.87,9.85
			C1157.2,150.68,1160.56,151.36,1163.16,146.33z"/>
		
			<linearGradient id="SVGID_80_" gradientUnits="userSpaceOnUse" x1="397.0268" y1="149.0764" x2="397.0268" y2="136.5959" gradientTransform="matrix(-1 0 0 1 1596.8075 0)">
			<stop  offset="0" style="stop-color:#000000"/>
			<stop  offset="1" style="stop-color:#E1D1F5"/>
		</linearGradient>
		<path class="st89" d="M1202.76,142.04c0,0-0.72,4.58-3.33,7.04l-2.63-0.63c0,0,2.05-7.91,2.09-11.85
			C1198.89,136.6,1202.24,138.6,1202.76,142.04z"/>
	</g>
	
		<linearGradient id="SVGID_81_" gradientUnits="userSpaceOnUse" x1="413.9358" y1="202.3796" x2="413.9358" y2="180.3037" gradientTransform="matrix(-1 0 0 1 1596.8075 0)">
		<stop  offset="0.016" style="stop-color:#FFA58B"/>
		<stop  offset="1" style="stop-color:#FF898E"/>
	</linearGradient>
	<path class="st90" d="M1157,198.85c0.5,0.59,1.02,1.05,1.59,1.34c7.85,4.01,28.74,2.97,40.06-6.96c4.3-3.78,7.53-8.3,10.09-12.92
		c-0.55,0.7-6.33,10.6-20.03,16.06C1174.4,202.06,1158.01,200.29,1157,198.85z"/>
</g>
<g class="st0">
	<g class="st37">
		
			<linearGradient id="SVGID_82_" gradientUnits="userSpaceOnUse" x1="157.7367" y1="485.0099" x2="157.7367" y2="412.5275" gradientTransform="matrix(-1 0 0 1 1596.8075 0)">
			<stop  offset="0" style="stop-color:#D906E3"/>
			<stop  offset="1" style="stop-color:#FF6DF9"/>
		</linearGradient>
		<path class="st91" d="M1401.09,485.01h75.8c6.1,0,11.1-4.84,11.31-10.93l1.68-49.86c0.22-6.39-4.91-11.69-11.31-11.69h-79.01
			c-6.38,0-11.5,5.28-11.31,11.66l1.52,49.86C1389.97,480.15,1394.98,485.01,1401.09,485.01z"/>
		<g>
			<path class="st92" d="M1389.47,474.05l-1.52-49.86c-0.1-3.17,1.07-6.17,3.28-8.45c2.21-2.28,5.17-3.53,8.34-3.53h79.01
				c3.18,0,6.15,1.26,8.36,3.54c2.21,2.29,3.37,5.29,3.26,8.47l-1.68,49.86c-0.21,6.3-5.31,11.23-11.62,11.23h-75.8
				C1394.77,485.32,1389.66,480.37,1389.47,474.05z M1399.57,412.84c-3,0-5.81,1.19-7.9,3.34c-2.09,2.15-3.19,5-3.1,8l1.52,49.86
				c0.18,5.98,5.01,10.67,11,10.67h75.8c5.97,0,10.8-4.67,11-10.63l1.68-49.86c0.1-3.01-0.99-5.86-3.09-8.02
				c-2.09-2.16-4.9-3.36-7.91-3.36H1399.57z"/>
		</g>
		
			<rect x="1405.27" y="420.55" transform="matrix(-1 -4.490864e-11 4.490864e-11 -1 2879.9622 882.3385)" class="st93" width="69.42" height="41.23"/>
		<polygon class="st94" points="1446.13,430.78 1446.13,451.55 1428.39,440.22 		"/>
		
			<rect x="1405.27" y="469.38" transform="matrix(-1 -4.490864e-11 4.490864e-11 -1 2879.9622 942.5389)" class="st93" width="69.42" height="3.77"/>
		<rect x="1456.72" y="469.38" class="st94" width="17.97" height="3.77"/>
	</g>
	<polygon class="st95" points="82.46,177.57 100.35,181.38 108.98,174.2 89.39,170.25 	"/>
</g>
<path class="st96" d="M1669.82,119.96l25.52-31.36l11.91,36.33L1669.82,119.96z M1694.97,90.61l-23.28,28.61l34.15,4.54
	L1694.97,90.61z"/>
<g class="st0">
	
		<linearGradient id="SVGID_83_" gradientUnits="userSpaceOnUse" x1="589.778" y1="1537.3545" x2="589.778" y2="1524.8071" gradientTransform="matrix(-0.7568 0.6536 0.6536 0.7568 -459.6038 -1064.1984)">
		<stop  offset="0" style="stop-color:#8642A0"/>
		<stop  offset="1" style="stop-color:#6456C0"/>
	</linearGradient>
	<circle class="st97" cx="94.77" cy="480" r="6.27"/>
	<polygon class="st98" points="70.62,467.64 63.88,481.14 68.38,483.19 74.69,470.78 	"/>
	
		<linearGradient id="SVGID_84_" gradientUnits="userSpaceOnUse" x1="410.8718" y1="1493.0779" x2="410.8718" y2="1474.6576" gradientTransform="matrix(-0.9218 0.3878 0.3878 0.9218 543.8194 -1036.5585)">
		<stop  offset="0" style="stop-color:#459FFF"/>
		<stop  offset="1" style="stop-color:#A96DFF"/>
	</linearGradient>
	<path class="st99" d="M732.03,494.18c1.97,4.69,7.37,6.89,12.06,4.92c4.69-1.97,6.89-7.37,4.92-12.06
		c-1.97-4.69-7.37-6.89-12.06-4.92C732.26,484.09,730.06,489.49,732.03,494.18z"/>
	<path class="st100" d="M1001.07,77.25c2.42,0.42,4.73-1.2,5.15-3.62c0.42-2.42-1.2-4.73-3.62-5.15c-2.42-0.42-4.73,1.2-5.15,3.62
		C997.02,74.52,998.65,76.83,1001.07,77.25z"/>
</g>
<rect x="857.78" y="587.78" transform="matrix(0.6356 -0.772 0.772 0.6356 -136.7546 887.1636)" class="st96" width="27.26" height="1.34"/>
<g>
	
		<linearGradient id="SVGID_85_" gradientUnits="userSpaceOnUse" x1="1159.938" y1="124.8065" x2="1159.938" y2="88.7221" gradientTransform="matrix(-1 0 0 1 1596.8075 0)">
		<stop  offset="0" style="stop-color:#B31A8F"/>
		<stop  offset="1" style="stop-color:#FE117E"/>
	</linearGradient>
	<circle class="st101" cx="436.87" cy="106.76" r="18.04"/>
	<path class="st102" d="M1456.2,121.42l16.62-29.05l16.35,31.39L1456.2,121.42z M1457.62,120.66l30.08,2.13l-14.92-28.64
		L1457.62,120.66z"/>
	
		<rect x="1500.66" y="84.33" transform="matrix(0.5009 -0.8655 0.8655 0.5009 682.2137 1353.0452)" class="st102" width="27.26" height="1.34"/>
</g>
</svg>
