<?xml version="1.0" encoding="utf-8"?>
<!-- Generator: Adobe Illustrator 25.0.0, SVG Export Plug-In . SVG Version: 6.00 Build 0)  -->
<svg version="1.1" id="Layer_1" xmlns="http://www.w3.org/2000/svg" xmlns:xlink="http://www.w3.org/1999/xlink" x="0px" y="0px"
	 viewBox="0 0 185 207" style="enable-background:new 0 0 185 207;" xml:space="preserve">
<style type="text/css">
	.st0{clip-path:url(#SVGID_2_);}
	.st1{fill:#FFFFFF;stroke:#263238;stroke-width:0.5;stroke-linecap:round;stroke-linejoin:round;}
	.st2{fill:none;stroke:#263238;stroke-width:0.5;stroke-linecap:round;stroke-linejoin:round;}
	.st3{fill:#181F21;stroke:#263238;stroke-width:0.5;stroke-linecap:round;stroke-linejoin:round;}
	.st4{fill:#263238;}
	.st5{opacity:0.2;fill:#FFFFFF;enable-background:new    ;}
	.st6{fill:#FFFFFF;}
	.st7{opacity:0.44;fill:#FFFFFF;enable-background:new    ;}
	.st8{fill:none;stroke:#FFFFFF;stroke-width:0.5;stroke-miterlimit:10;}
	.st9{fill:#5680F8;}
	.st10{fill:none;stroke:#263238;stroke-width:0.5;stroke-miterlimit:10;}
	.st11{fill:#FFFFFF;stroke:#263238;stroke-width:0.5;stroke-miterlimit:10;}
	.st12{fill:#263238;stroke:#263238;stroke-width:0.5;stroke-linecap:round;stroke-linejoin:round;}
	.st13{fill:#808080;stroke:#263238;stroke-width:0.5;stroke-linecap:round;stroke-linejoin:round;}
	.st14{fill:#060707;stroke:#263238;stroke-width:0.5;stroke-linecap:round;stroke-linejoin:round;}
	.st15{fill:#5680F8;stroke:#020202;stroke-width:0.5;stroke-miterlimit:10;}
	.st16{fill:#181F21;}
	.st17{opacity:0.2;enable-background:new    ;}
</style>
<g>
	<defs>
		<rect id="SVGID_1_" y="0" width="185" height="207"/>
	</defs>
	<clipPath id="SVGID_2_">
		<use xlink:href="#SVGID_1_"  style="overflow:visible;"/>
	</clipPath>
	<g class="st0">
		<path class="st1" d="M14.4,159.9l-1.9,4.1c0,0,2.4,2.6,3.4,2.6s1.5-1.1,2.8-1.5c1.3-0.4,3.4-4.5,3.4-4.5s-1.3-2.2-2.6-2.4
			c-1.3-0.2-3.2-0.9-4.3-1.1C14.2,156.9,14.4,159.9,14.4,159.9z"/>
		<path class="st2" d="M14.4,159.9l1.3,2.2v1.9c0,0,1.3,0.6,1.7,0c0.4-0.6,2.4-2.8,2.4-2.8l-0.9-1.9"/>
		<path class="st2" d="M15.7,164l-2.4-0.4"/>
		<path class="st1" d="M51.5,198.7l-4.3,1.3c0,0-0.4,3.5,0.3,4.3c0.7,0.8,1.8,0.4,3,1.1c1.2,0.7,5.7-0.4,5.7-0.4s0.8-2.4,0.1-3.5
			c-0.7-1.1-1.5-3-2-4C53.6,196.6,51.5,198.7,51.5,198.7z"/>
		<path class="st2" d="M51.5,198.7l-0.8,2.4l-1.5,1.3c0,0,0.4,1.4,1.1,1.3c0.8-0.1,3.7-0.1,3.7-0.1l0.9-1.9"/>
		<path class="st2" d="M49.3,202.4l-1.2-2.1"/>
		<path class="st1" d="M7.5,159.1c0,0-3.7,2.4-3,3.7c0.6,1.3,1.1,2.2,1.7,2.6c0.6,0.4,2.6,1.1,3.2,0.6c0.6-0.4,2.2-1.5,2.4-3.2
			c0.2-1.7,0.9-1.9,0.2-2.8C11.4,159.1,7.5,159.1,7.5,159.1z"/>
		<path class="st2" d="M4.5,162.7l2.6,1.7l2.2-0.2l0.9-2.4c0-0.7-0.6-1.3-1.3-1.3c-0.7,0-1.4,0.2-1.9,0.6l0.4,1.3"/>
		<path class="st1" d="M23.5,156.1c0,0-3.2,3-2.8,5.2c0.4,2.2,4.5,3.9,4.5,3.9l5-2.8l-1.5-3.8l-3.2-1.7L23.5,156.1z"/>
		<path class="st2" d="M20.7,161.2l3.4,1.3l3.9-1.3l-1.5-3.4"/>
		<path class="st2" d="M23.5,156.1l-0.2,4.5l2.6,0.9"/>
		<path class="st1" d="M33.2,196.6c0,0-3.2,3-2.8,5.2c0.4,2.2,4.5,3.9,4.5,3.9l5-2.8l-1.5-3.9l-3.2-1.7L33.2,196.6z"/>
		<path class="st2" d="M30.4,201.8l3.4,1.3l3.9-1.3l-1.5-3.5"/>
		<path class="st2" d="M33.2,196.6l-0.2,4.5l2.6,0.9"/>
		<path class="st1" d="M11.6,152.8c0,0-3.2,3-2.8,5.2c0.4,2.2,4.5,3.8,4.5,3.8l4.9-2.8l-1.5-3.8l-3.2-1.7L11.6,152.8z"/>
		<path class="st2" d="M8.8,158l3.4,1.3l3.9-1.3l-1.5-3.4"/>
		<path class="st2" d="M11.6,152.8l-0.2,4.5l2.6,0.9"/>
		<path class="st3" d="M29.7,206H4.2l-3.8-42.4h33.2L29.7,206z"/>
		<path class="st1" d="M12.7,199c0,0-3.7,2.4-3,3.7c0.6,1.3,1.1,2.2,1.7,2.6c0.6,0.4,2.6,1.1,3.2,0.6c0.6-0.4,2.2-1.5,2.4-3.2
			c0.2-1.7,0.9-1.9,0.2-2.8C16.6,198.9,12.7,199,12.7,199z"/>
		<path class="st2" d="M9.7,202.6l2.6,1.7l2.2-0.2l0.9-2.4c0-0.7-0.6-1.3-1.3-1.3c-0.7,0-1.4,0.2-1.9,0.6l0.4,1.3"/>
		<path class="st4" d="M66.5,94H42.6L11.3,9.9h23.9L66.5,94z"/>
		<path class="st5" d="M66.5,94H42.6L11.3,9.9h23.9L66.5,94z"/>
		<path class="st4" d="M28.8,30.4h-6.1c-0.9-0.1-1.6-0.6-1.9-1.4l-2.4-6.4c-0.2-0.4-0.1-1,0.4-1.3c0.2-0.1,0.3-0.1,0.5-0.1h6.1
			c0.9,0.1,1.6,0.6,1.9,1.4l2.4,6.4C30,29.8,29.6,30.4,28.8,30.4z"/>
		<path class="st4" d="M36.8,14.1H12.9l-1.6-4.3h23.9L36.8,14.1z"/>
		<path class="st2" d="M21.1,14.8l0.7,1.8"/>
		<path class="st2" d="M22,14.8l0.7,1.8"/>
		<path class="st2" d="M22.9,14.8l0.7,1.8"/>
		<path class="st2" d="M23.8,14.8l0.7,1.8"/>
		<path class="st2" d="M24.7,14.8l0.7,1.8"/>
		<path class="st2" d="M25.7,14.8l0.7,1.8"/>
		<path class="st2" d="M26.6,14.8l0.7,1.8"/>
		<path class="st2" d="M27.5,14.8l0.7,1.8"/>
		<path class="st2" d="M28.4,14.8l0.7,1.8"/>
		<path class="st2" d="M29.3,14.8l0.7,1.8"/>
		<path class="st6" d="M26.8,26.4l-5.8-3.7c-0.1-0.1-0.3-0.1-0.4,0c-0.1,0.1-0.1,0.2-0.1,0.3l2.7,5.7c0.1,0.1,0.2,0.3,0.4,0.3h0.1
			c0.1,0,0.2-0.1,0.2-0.1l0.6-1.9h2.3c0.1,0,0.2-0.1,0.2-0.2c0,0,0,0,0,0C27.1,26.6,27,26.5,26.8,26.4z"/>
		<path class="st4" d="M26.7,26.7L20.9,23l2.7,5.7l0.7-2L26.7,26.7z"/>
		<path class="st6" d="M37.5,26.7L31.7,23l2.7,5.7l0.7-2L37.5,26.7z"/>
		<path class="st6" d="M40.5,29.9L40,28.7l-0.7,1L40.5,29.9z"/>
		<path class="st6" d="M54.5,67.5L54,66.3l-0.7,1L54.5,67.5z"/>
		<path class="st6" d="M58.8,79.1l-0.5-1.2l-0.7,1L58.8,79.1z"/>
		<path class="st6" d="M63.2,90.9l-0.5-1.2l-0.7,1L63.2,90.9z"/>
		<path class="st6" d="M38.5,54.2L38,53l-0.7,1L38.5,54.2z"/>
		<path class="st6" d="M43.5,67.5L43,66.3l-0.7,1L43.5,67.5z"/>
		<path class="st6" d="M47.8,79.1l-0.5-1.2l-0.7,1L47.8,79.1z"/>
		<path class="st6" d="M52.2,90.9l-0.5-1.2l-0.7,1L52.2,90.9z"/>
		<path class="st6" d="M26.8,42.6l1,0.6l2.8-5.8l-1-0.7L26.8,42.6z"/>
		<path class="st6" d="M28.1,36.9c-1.5-1.1-1.6-1.4-1.2-2.7c-0.8,1-1,1.1-2.6,0.2c1.5,1.1,1.6,1.4,1.2,2.7
			C26.2,36.1,26.5,36.1,28.1,36.9z"/>
		<path class="st6" d="M32.9,37.5c-0.9-0.7-1-0.8-0.7-1.6c-0.5,0.6-0.6,0.6-1.6,0.1c0.9,0.7,1,0.8,0.7,1.6
			C31.8,37,31.9,37,32.9,37.5z"/>
		<path class="st6" d="M32.6,40.3c-0.6-0.5-0.7-0.6-0.5-1.2c-0.3,0.5-0.4,0.5-1.1,0.1c0.6,0.5,0.7,0.6,0.5,1.2
			C31.8,39.9,31.9,39.9,32.6,40.3z"/>
		<path class="st6" d="M47.1,65.9l0.6,0.4l2.8-5.8l-0.6-0.4L47.1,65.9z"/>
		<path class="st6" d="M44.8,41.1l-5.1-3.2l2.3,5.1l0.6-1.8L44.8,41.1z"/>
		<path class="st6" d="M41,41.4c-1.9,0-3.8-1.1-4.3-2.5c-0.5-1.4,0.6-2.5,2.5-2.5s3.8,1.1,4.3,2.5C44,40.3,42.9,41.4,41,41.4z
			 M39.3,36.7c-1.7,0-2.7,1-2.3,2.2s2.2,2.2,3.9,2.2c1.7,0,2.7-1,2.3-2.2C42.7,37.7,41,36.7,39.3,36.7z"/>
		<path class="st6" d="M38.7,40.9c-0.5,0-1-0.4-1.1-0.8c-0.2-0.3-0.1-0.6,0.2-0.8c0.1-0.1,0.2-0.1,0.3-0.1c0.5,0,1,0.4,1.1,0.8
			c0.2,0.3,0.1,0.6-0.2,0.8C39,40.9,38.8,40.9,38.7,40.9z M38.2,39.5c-0.2,0-0.4,0.1-0.4,0.3c0,0.1,0,0.1,0,0.2
			c0.1,0.3,0.4,0.5,0.7,0.5c0.3,0,0.4-0.2,0.3-0.5C38.8,39.7,38.6,39.5,38.2,39.5z"/>
		<path class="st6" d="M38.8,41.8l-0.2-0.3c0.3-0.1,0.5-0.3,0.6-0.6c0-0.3-0.1-0.5-0.2-0.7l0.2-0.1c0.2,0.3,0.3,0.6,0.3,0.9
			C39.5,41.4,39.2,41.7,38.8,41.8z"/>
		<path class="st6" d="M35.6,50.1L32,47.5l-0.8,1.2l3.6,2.6L35.6,50.1z"/>
		<path class="st6" d="M29.9,53.5l0.6,0.4l1.3-2.1c-0.1-0.1-0.2-0.3-0.1-0.5c0.1-0.2,0.4-0.2,0.6,0c0.2,0.1,0.3,0.4,0.2,0.6
			C32.3,52,32.1,52.1,32,52l-1.3,2.1l0.5,0.4l3.2-0.9l0.2-1.9l-3.5-2.6l-1.6,0.9L29.9,53.5z"/>
		<path class="st2" d="M26.5,45.3h20.6"/>
		<path class="st6" d="M44.4,47.5l-0.8,1.2l3.6,2.6l0.8-1.2L44.4,47.5z"/>
		<path class="st6" d="M41.9,49.9l0.4,3.5l0.6,0.4l1.3-2.1C44,51.7,44,51.5,44,51.3c0.1-0.2,0.4-0.2,0.6,0c0.2,0.1,0.3,0.4,0.2,0.6
			c-0.1,0.1-0.3,0.2-0.5,0.1L43.1,54l0.5,0.4l3.2-0.9l0.2-1.9l-3.5-2.6L41.9,49.9z"/>
		<path class="st6" d="M41,51c0-0.3,0.1-0.5,0.1-0.8c0.1-0.6-0.1-1.2-0.5-1.6c-0.4-0.5-1-0.8-1.6-1c-0.1,0-0.2,0-0.2,0.1
			c0,0.1,0.1,0.2,0.2,0.2c0.5,0.1,0.9,0.4,1.3,0.8c0.3,0.4,0.5,0.8,0.4,1.3c0,0.3-0.1,0.6-0.1,0.8c-0.2,1.3-0.3,2.1,1.9,3.3
			c0,0,0.1,0,0.1,0c0,0,0.1,0,0.1-0.1c0-0.1,0-0.2-0.1-0.2C40.8,52.8,40.9,52.3,41,51z"/>
		<path class="st6" d="M31.9,59.6l0.1,0.3c0.2,0.5,0.4,1,0.6,1.5l0.6-0.1c-0.2-0.3-0.3-0.7-0.4-1h2.6l2.1,5.7h-1l0.2,0.6h2.6
			l-0.2-0.6h-0.9L36,60.2h2.5l0.4,1.2h0.7l-0.6-1.5l-0.1-0.3L31.9,59.6z"/>
		<path class="st7" d="M45.3,75.4c0.6,1.5-0.6,2.7-2.7,2.7c-2,0-4.1-1.2-4.7-2.7c-0.5-1.5,0.6-2.7,2.7-2.7
			C42.7,72.8,44.7,73.9,45.3,75.4z"/>
		<path class="st8" d="M45.3,75.4c0.6,1.5-0.6,2.7-2.7,2.7c-2,0-4.1-1.2-4.7-2.7c-0.5-1.5,0.6-2.7,2.7-2.7
			C42.7,72.8,44.7,73.9,45.3,75.4z"/>
		<path class="st6" d="M52.9,75.5l2.4-4.4c0.1-0.2,0.4-0.2,0.6-0.1c0,0,0,0,0,0c0.3,0.1,0.5,0.4,0.4,0.7l-1.3,4.9L52.9,75.5z"/>
		<path class="st6" d="M52.5,75.9c0.9-0.1,2.8,0.7,2.9,1.9c0,0.3-0.2,0.5-0.4,0.6c-0.8,0.4-1.8,0.5-2.7,0.5c0.2-0.2,0.3-0.5,0.3-0.8
			c-0.1-0.4-0.3-0.7-0.4-1C51.8,76.5,51.9,75.9,52.5,75.9"/>
		<path class="st6" d="M47.4,85.5c-0.2-0.5-0.5-0.9-0.9-1.2l-0.7,1.2c0.4,0.4,0.8,0.8,1,1.4c0.2,0.5,0.5,0.9,0.7,1.3l0.7-1.1
			C48,86.5,47.7,86,47.4,85.5z"/>
		<path class="st6" d="M46.6,86.8c-0.2-0.5-0.5-0.9-0.9-1.2L45,86.8c0.4,0.4,0.8,0.8,1,1.4c0.2,0.5,0.4,0.9,0.7,1.3l0.7-1.1
			C47.1,87.9,46.8,87.4,46.6,86.8z"/>
		<path class="st6" d="M47.7,85.5c0.2,0.5,0.4,0.9,0.7,1.3l1.1-1.7l-2.4-1.7l-0.4,0.7C47.1,84.5,47.5,85,47.7,85.5z"/>
		<path class="st6" d="M45.8,88.2c-0.2-0.5-0.5-0.9-0.9-1.2l-0.6,1l0.1,2.2c0,0.2,0.2,0.3,0.3,0.3c0,0,0,0,0,0l1.9-0.7
			C46.2,89.2,46,88.7,45.8,88.2z M44.9,89.7l-0.1-1.2l1.1,0.8L44.9,89.7z"/>
		<path class="st6" d="M55,86.5l-0.8,1.3l4.1,3l0.8-1.3l0.2,0.2l1.9-3l-4.6-3.4l-1.9,3L55,86.5z M58,90.1l-3.1-2.3l0.6-0.9l3.1,2.3
			L58,90.1z"/>
		<path class="st6" d="M15.9,11l0.2,0.4l-0.6,0.7l1.1,0.7l0.1,0.4L15,12.1L15.9,11z"/>
		<path class="st6" d="M14.5,11l0.2,0.4L14,12.1l1.1,0.7l0.2,0.4l-1.7-1.1L14.5,11z"/>
		<path class="st3" d="M112.8,60.3H63.4L48.3,18.1h49.5L112.8,60.3z"/>
		<path class="st9" d="M109.3,58H65.2L51.8,20.4h44.1L109.3,58z"/>
		<path class="st6" d="M100.9,34.6l-7.3-5.4l-5.8,15L73,40l-7.7,18h44.1L100.9,34.6z"/>
		<path class="st6" d="M70.6,28.4c-1-2.9-4.2-5.2-7-5.2c-2.9,0-4.3,2.3-3.3,5.2c1,2.9,4.2,5.2,7,5.2S71.6,31.3,70.6,28.4z"/>
		<path class="st3" d="M118,53H68.5L53.4,10.8h49.5L118,53z"/>
		<path class="st9" d="M114.4,50.7H70.4L56.9,13.1H101L114.4,50.7z"/>
		<path class="st6" d="M106.1,27.3l-7.3-5.4l-5.8,15l-14.9-4.2l-7.7,18h44.1L106.1,27.3z"/>
		<path class="st6" d="M75.7,21.2c-1-2.9-4.2-5.2-7-5.2c-2.9,0-4.3,2.3-3.3,5.2c1,2.9,4.2,5.2,7,5.2S76.7,24,75.7,21.2z"/>
		<path d="M118.2,4.2l1.2,2.9H119c-0.2-0.4-0.4-0.8-0.7-1.1c-0.3-0.3-0.6-0.6-1-0.8C116.9,5,116.5,4.9,116,5h-1.7l3.4,9.4
			c0.1,0.5,0.4,1,0.8,1.4c0.3,0.3,0.8,0.4,1.2,0.4h0.4l0.1,0.3H115l-0.1-0.3h0.4c0.5,0,0.8-0.2,0.9-0.5c0-0.5-0.1-0.9-0.3-1.3
			L112.5,5H111c-0.4,0-0.8,0-1.2,0.1c-0.3,0.1-0.5,0.4-0.6,0.6c-0.1,0.4-0.1,0.9,0.1,1.3H109l-0.9-2.9L118.2,4.2z"/>
		<path class="st10" d="M125.7,10h3.8"/>
		<path class="st10" d="M129.3,20h-18.9l-7-19.2h18.9L129.3,20z"/>
		<path class="st11" d="M107.7,10.7h-1.4l-0.5-1.4h1.4L107.7,10.7z"/>
		<path class="st11" d="M126.6,10.7h-1.4l-0.5-1.4h1.4L126.6,10.7z"/>
		<path class="st11" d="M104.3,1.6h-1.4l-0.5-1.4h1.4L104.3,1.6z"/>
		<path class="st11" d="M123.3,1.6h-1.4l-0.5-1.4h1.4L123.3,1.6z"/>
		<path class="st11" d="M113.8,1.6h-1.4l-0.5-1.4h1.4L113.8,1.6z"/>
		<path class="st11" d="M111.3,20.6h-1.4l-0.5-1.4h1.4L111.3,20.6z"/>
		<path class="st11" d="M130.2,20.6h-1.4l-0.5-1.4h1.4L130.2,20.6z"/>
		<path class="st10" d="M119.9,20.3l1.4,3.8"/>
		<path class="st11" d="M120.8,20.6h-1.4l-0.5-1.4h1.4L120.8,20.6z"/>
		<path class="st4" d="M122.3,24.8h-1.4l-0.5-1.4h1.4L122.3,24.8z"/>
		<path class="st10" d="M109.2,16.4h15.9"/>
		<path class="st4" d="M130.2,10c-0.2-0.4-0.6-0.7-1-0.8c-0.3,0-0.5,0.2-0.5,0.5c0,0.1,0,0.2,0.1,0.3c0.2,0.4,0.6,0.7,1,0.7
			c0.3,0,0.5-0.2,0.5-0.5C130.2,10.2,130.2,10.1,130.2,10z"/>
		<path class="st12" d="M44.3,206.7h-1.1l-1.7-96.2H46L44.3,206.7z"/>
		<path class="st12" d="M139.7,206.7h-1.1l-1.7-96.2h4.4L139.7,206.7z"/>
		<path class="st1" d="M146.4,109H39.8v2.5h106.6V109z"/>
		<path class="st13" d="M81.8,79.6c0.1,0.8-0.4,1.5-1.2,1.6c-0.8,0.1-1.5-0.4-1.6-1.2c-0.1-0.8,0.4-1.5,1.2-1.6c0.1,0,0.1,0,0.2,0
			C81.1,78.4,81.7,78.9,81.8,79.6z"/>
		<path class="st13" d="M83.2,83.3c0.1,0.8-0.4,1.5-1.2,1.6c-0.8,0.1-1.5-0.4-1.6-1.2c-0.1-0.8,0.4-1.5,1.2-1.6c0.1,0,0.1,0,0.2,0
			C82.5,82.1,83.1,82.6,83.2,83.3z"/>
		<path class="st13" d="M84.5,87c0.1,0.8-0.4,1.5-1.2,1.6c-0.8,0.1-1.5-0.4-1.6-1.2c-0.1-0.8,0.4-1.5,1.2-1.6c0.1,0,0.1,0,0.2,0
			C83.8,85.8,84.4,86.3,84.5,87z"/>
		<path class="st13" d="M85.9,90.7c0.1,0.8-0.4,1.5-1.2,1.6c-0.8,0.1-1.5-0.4-1.6-1.2c-0.1-0.8,0.4-1.5,1.2-1.6c0.1,0,0.1,0,0.2,0
			C85.2,89.5,85.8,90,85.9,90.7z"/>
		<path class="st14" d="M66.7,108.7H57l-1.5-16.1h12.6L66.7,108.7z"/>
		<path class="st9" d="M67.7,97.9l-11.1,5.7l0.5,5.1h5.2l5-5.8L67.7,97.9z"/>
		<path class="st15" d="M69.3,90.7H54.4v3.5h14.9V90.7z"/>
		<path class="st12" d="M95.4,108.9H77.9c-1.2,0.1-2.3-0.9-2.3-2.1c-0.1-1.2,0.9-2.3,2.1-2.3c0.1,0,0.2,0,0.2,0h17.5
			c1.2-0.1,2.3,0.9,2.3,2.1s-0.9,2.3-2.1,2.3C95.6,109,95.5,109,95.4,108.9z"/>
		<path class="st12" d="M141.8,109H88.1L75.3,74H129L141.8,109z"/>
		<path class="st6" d="M138.4,105.3H92.5L81.6,75.5h45.9L138.4,105.3z"/>
		<path class="st14" d="M147.4,121.4c-1.2,1.8-2.7,3.6-4.2,5.1c-4.9,4.5-9.1,9.6-12.5,15.3c-4.8,8.2-8.2,16.5-11.4,23.8
			c-3.2,7.2-9,20.6-11.9,24.7s-4.8,6.2-4.8,6.2s-4.8,0.1-10.4-0.4c-5.6-0.5-8-1.5-8.1,0c-0.1,1.5,3.8,5.5,6.6,6.2
			c2.8,0.7,6.4,1.8,7.3,2.6c0.8,0.8,1.9,1.8,3.3,1.2c1.4-0.6,5.7-6.5,10.4-10.6s10.4-8.1,15.5-17.7c5.1-9.5,5.4-15,9-18.5
			c3.6-3.6,7.4-9.2,11.9-12.1c4.6-3,18.2-8.4,22.6-14.1c4.4-5.7,2.1-12.6-2.1-15.1C164.4,115.5,150.7,114.6,147.4,121.4z"/>
		<path class="st1" d="M110.8,184.3c-1,2.1-2.1,4.1-3.4,6c-2.9,4.1-4.8,6.2-4.8,6.2s-4.8,0.1-10.4-0.4c-5.6-0.5-8-1.5-8.1,0
			c-0.1,1.5,3.8,5.5,6.6,6.2c2.8,0.7,6.4,1.8,7.3,2.6c0.8,0.8,1.9,1.8,3.3,1.2c1.4-0.6,5.7-6.6,10.4-10.6c2.2-1.9,4.6-3.8,7-6.2
			C115.7,188.5,112.9,186.8,110.8,184.3z"/>
		<path class="st9" d="M101.3,206.2c0.8-0.5,1.4-1.1,2-1.9c-3.8-0.8-5.8-2.7-7.6-3.2c-1.6-0.5-3.1-1.2-4.6-2l1.9-2.8l-1-0.1
			c-5.7-0.5-8-1.5-8.1,0c-0.1,1.5,3.8,5.5,6.6,6.2c2.8,0.7,6.4,1.8,7.3,2.6C98.9,205.8,99.9,206.8,101.3,206.2z"/>
		<path class="st16" d="M108,139.5c0.8,3.2,1.9,6.3,3.3,9.3c2.3,4.5,7.3,9.3,10.9,12c3.6,2.7,15.3,13.2,21.1,21.5
			c0.7,1-2,4.5-5.4,7.6c-3.4,3.1-4.9,4.2-3.1,4.8c1.8,0.6,6.1,0.3,10.4-3.3c4.3-3.6,7.1-6,8.5-9c0.7-1.5-3.1-3.3-5.3-5.2
			c-2.3-1.9-10.7-14.6-13.3-20.5c-2.6-5.9-9.2-14.3-14.1-17.3"/>
		<path class="st2" d="M108,139.5c0.8,3.2,1.9,6.3,3.3,9.3c2.3,4.5,7.3,9.3,10.9,12c3.6,2.7,15.3,13.2,21.1,21.5
			c0.7,1-2,4.5-5.4,7.6c-3.4,3.1-4.9,4.2-3.1,4.8c1.8,0.6,6.1,0.3,10.4-3.3c4.3-3.6,7.1-6,8.5-9c0.7-1.5-3.1-3.3-5.3-5.2
			c-2.3-1.9-10.7-14.6-13.3-20.5c-2.6-5.9-9.2-14.3-14.1-17.3"/>
		<path class="st1" d="M153.7,182.4c0.7-1.5-3.1-3.3-5.3-5.2c-1.9-1.6-8.1-10.9-11.6-17.3l-7.7,6.8c4.8,4.4,10.7,10.4,14.2,15.6
			c0.7,1-2,4.5-5.4,7.6c-3.4,3.1-4.9,4.2-3.1,4.8c1.8,0.6,6.1,0.3,10.4-3.3C149.5,187.8,152.3,185.4,153.7,182.4z"/>
		<path class="st9" d="M151.3,179.4c-0.6,0.9-1.4,2.1-2.3,3.7c-2.2,3.6-8,8.3-8.8,7.5c-0.5-0.5-0.9-1.1-1.2-1.8
			c-0.4,0.4-0.8,0.8-1.2,1.1c-3.4,3.1-4.9,4.2-3.1,4.8c1.8,0.6,6.1,0.3,10.4-3.3c4.3-3.6,7.1-6,8.5-9
			C154.1,181.5,152.9,180.5,151.3,179.4z"/>
		<path class="st1" d="M182.1,189.8h-38.5v1.8h38.5V189.8z"/>
		<path class="st1" d="M147.1,141.1l-6.7,64.6c0,0.3,0.2,0.5,0.5,0.6c0,0,0,0,0.1,0c0.3,0,0.5-0.2,0.5-0.4l10-64.7H147.1z"/>
		<path class="st1" d="M177.9,141.1l6.7,64.6c0,0.3-0.2,0.5-0.4,0.6c0,0,0,0-0.1,0c-0.3,0-0.5-0.2-0.5-0.4l-10-64.7H177.9z"/>
		<path class="st1" d="M165.7,141.1l0.3,64.6c0,0.3-0.2,0.5-0.5,0.5c-0.3,0-0.5-0.2-0.5-0.5l-3.6-64.6H165.7z"/>
		<path class="st9" d="M108.2,95.7c2.2-1,2.8-4.3,1.4-7.4c-1.4-3.1-4.2-4.9-6.4-4c-2.2,1-2.8,4.3-1.4,7.4S106.1,96.7,108.2,95.7z"/>
		<path class="st9" d="M144.4,131.3h35.7c1.8,0,3.2,1.4,3.2,3.2v4.1c0,1.8-1.4,3.2-3.2,3.2h-35.7c-1.8,0-3.2-1.4-3.2-3.2v-4.1
			C141.2,132.8,142.6,131.3,144.4,131.3z"/>
		<path class="st2" d="M144.4,131.3h35.7c1.8,0,3.2,1.4,3.2,3.2v4.1c0,1.8-1.4,3.2-3.2,3.2h-35.7c-1.8,0-3.2-1.4-3.2-3.2v-4.1
			C141.2,132.8,142.6,131.3,144.4,131.3z"/>
		<path class="st16" d="M108.9,143.6c-0.8-2.6-4.1-7.8,11.7-18.7c8.3-5.8,26.4-10.2,26.4-10.2l1.7-1.9c0,0,4.9,5.1,14.4,4.8
			c9.5-0.4,15.4-4.5,16.6-4.2c1.1,0.3,1.2,3.3,0.8,8.9c-0.4,5.6-1,8.4-5.4,9.8s-14.2,1.8-21.2,1.7c-3.5,0-7-0.2-10.4-0.6
			c0,0-15.1,9.5-24.5,10.2"/>
		<path class="st2" d="M108.9,143.6c-0.8-2.6-4.1-7.8,11.7-18.7c8.3-5.8,26.4-10.2,26.4-10.2l1.7-1.9c0,0,4.9,5.1,14.4,4.8
			c9.5-0.4,15.4-4.5,16.6-4.2c1.1,0.3,1.2,3.3,0.8,8.9c-0.4,5.6-1,8.4-5.4,9.8s-14.2,1.8-21.2,1.7c-3.5,0-7-0.2-10.4-0.6
			c0,0-15.1,9.5-24.5,10.2"/>
		<path class="st1" d="M143.8,81c-0.7,0.2-21.4,4.3-23.2,4c-1.8-0.3-6.6-4.4-8.3-4.3c-1.7,0.1-5.1,0.7-5.4,1.6c-0.3,0.9,0.8,4,0.8,4
			s-1.1,1.7-0.6,2.5c0.6,0.8,3.8-1.1,3.8-1.1s3.7,2.7,5.4,2.2c1.7-0.6,3.5-1.2,3.5-1.2s26.6,1.6,27,1.7c0.3,0.1,3.6,0.8,4-4
			C151.2,81.5,147.8,79.8,143.8,81z"/>
		<path class="st2" d="M107.6,86.3l4.6-3.9"/>
		<path class="st4" d="M109.3,84.6l2.5-7.8l1,0.2l-1.2,5.7L109.3,84.6z"/>
		<path class="st6" d="M127.6,89.3c0,0-27.5,7.6-32,7.1c-4.4-0.5-5.8-2.5-6.8-2.5c-1,0-3.8,1.4-5.1,1.3C82.4,95,81,94.7,81,95.5
			c0,0.8,1.1,2,1.8,2s3.4-0.1,3.4-0.1s-5.3,1.6-5.6,2.6c-0.2,1,0.4,1.9,1.4,2.1c0,0,0,0,0.1,0c0.5,0.1,1.1,0.3,1.5,0.7
			c0.2,0.9,0.6,1.7,1.1,2.5c0.7,0.8,2.7,1.1,5,0.7c2.3-0.5,6.2-2.5,7.1-3.1c0.9-0.6,28.5-3.1,30.5-3.5c2-0.4,4.5-0.5,5.3-1.8
			C133.4,96.3,127.6,89.3,127.6,89.3z"/>
		<path class="st2" d="M127.6,89.3c0,0-27.5,7.6-32,7.1c-4.4-0.5-5.8-2.5-6.8-2.5c-1,0-3.8,1.4-5.1,1.3C82.4,95,81,94.7,81,95.5
			c0,0.8,1.1,2,1.8,2s3.4-0.1,3.4-0.1s-5.3,1.6-5.6,2.6c-0.2,1,0.4,1.9,1.4,2.1c0,0,0,0,0.1,0c0.5,0.1,1.1,0.3,1.5,0.7
			c0.2,0.9,0.6,1.7,1.1,2.5c0.7,0.8,2.7,1.1,5,0.7c2.3-0.5,6.2-2.5,7.1-3.1c0.9-0.6,28.5-3.1,30.5-3.5c2-0.4,4.5-0.5,5.3-1.8
			C133.4,96.3,127.6,89.3,127.6,89.3z"/>
		<path class="st9" d="M150.8,61.5c0,0-2.5,6.8-5.7,11.3c-3.2,4.5-4.5,9.3-2.5,14.4c1.1,3,3.5,5.3,6.5,6.3c0,0-1.6,15-1.1,19
			c0.5,4,6.6,8.6,15.8,9c9.2,0.4,17.1-3,17.1-6.1c0-3.2-6.5-20.1-6.5-23.6s0.6-14.5-2.5-24.4C168.9,57.5,158.1,54.3,150.8,61.5z"/>
		<path class="st17" d="M171.9,67.3c-1.6-5.3-5.5-8.7-9.9-9.5c-2.1,0.5-7.9,1.8-9.3,2.2c-0.7,0.5-1.3,1-1.9,1.6
			c0,0-2.5,6.8-5.7,11.3c-2.1,3-3.4,6.2-3.5,9.5c8.4,2,21.1,5.2,19.9,5.6c-1.8,0.5-9.7-3.7-7.4-1.1c2.4,2.6,15,14.8,11.3,13.7
			c-3.7-1.1-11.8-9.7-9.7-5.5c2.1,4.2,7.9,11.1,6,11.1c-1.8,0-11.6-9.7-8.2-4c3.4,5.8,18.9,15,13.9,16.3c-2.9,0.8-9,0.6-12.5,1.2
			c2.8,1.1,5.7,1.8,8.7,1.9c9.2,0.3,17.1-2.9,17.1-6.1c0-3.2-6.5-20.1-6.5-23.6C174.4,88.2,175,77.2,171.9,67.3z"/>
		<path class="st2" d="M150.8,61.5c0,0-2.5,6.8-5.7,11.3c-3.2,4.5-4.5,9.3-2.5,14.4c1.1,3,3.5,5.3,6.5,6.3c0,0-1.6,15-1.1,19
			c0.5,4,6.6,8.6,15.8,9c9.2,0.4,17.1-3,17.1-6.1c0-3.2-6.5-20.1-6.5-23.6s0.6-14.5-2.5-24.4C168.9,57.5,158.1,54.3,150.8,61.5z"/>
		<path class="st2" d="M152.2,89.1c0,0,8.3,13.5,20.5,17.3"/>
		<path class="st2" d="M151.3,91.3c0,0,3.2,10.6,11.5,15.7"/>
		<path class="st2" d="M153,82.8c0,0,7.5-3.3,10.6-5.4"/>
		<path class="st2" d="M149.9,83.6c0,0,2.7,0.6,9.6,0"/>
		<path class="st9" d="M150.2,63.2c-1.7,1.1-3.4,2.5-4.8,4c-2.6,2.7-15.2,21.8-15.2,21.8s3.7,7.8,4.9,8.1
			c1.1,0.2,20.9-16.7,22.7-18.7c1.8-2.1,2.9-5.8,2.4-7.4"/>
		<path class="st17" d="M157.7,78.3c1.8-2,2.9-5.8,2.4-7.4l-4.5-3.5l-1.4,1.5c0,0-0.1,5.8-5.3,8.9c-5.2,3.1-7.4,3.2-8.1,7.1
			c-0.8,3.9,1.8,5-1.3,5.5c-3.2,0.5-5.3,0.8-5.3,2.9c0,1,0.1,2.1,0.2,3.1c0.1,0.2,0.4,0.4,0.6,0.5C136.2,97.3,155.9,80.4,157.7,78.3
			z"/>
		<path class="st2" d="M150.2,63.2c-1.7,1.1-3.4,2.5-4.8,4c-2.6,2.7-15.2,21.8-15.2,21.8s3.7,7.8,4.9,8.1
			c1.1,0.2,20.9-16.7,22.7-18.7c1.8-2.1,2.9-5.8,2.4-7.4"/>
		<path class="st1" d="M125.9,90.1c0,0,3.5,8.4,4.3,9.3c0.8,0.9,5,0.3,6.3-0.7s1.1-3.1,1.1-3.1s-5.2-9.2-5.8-9.6
			c-0.6-0.4-0.8,0.6-3.2,1.4C126.3,88.2,125.4,88.5,125.9,90.1z"/>
		<path class="st6" d="M131.6,40.1c0,0-0.2,3.3,0.3,4.3c0.6,1,2.2,2,2.2,3.4c0,1.4-1.1,3.2-0.8,4.2c0.3,1,2.2,1.1,2.2,1.1
			s3.4,4.2,4.4,5.7c1,1.5,1.5,0.9,3.1,0.5c1.6-0.4,5-3.4,6.9-5.7c1.9-2.3-1.3-9.2-5.4-13.8c-4.2-4.7-10.4-4.5-11.8-3.2
			C131.2,37.9,131.6,40.1,131.6,40.1z"/>
		<path class="st2" d="M131.6,40.1c0,0-0.2,3.3,0.3,4.3c0.6,1,2.2,2,2.2,3.4c0,1.4-1.1,3.2-0.8,4.2c0.3,1,2.2,1.1,2.2,1.1
			s3.4,4.2,4.4,5.7c1,1.5,1.5,0.9,3.1,0.5c1.6-0.4,5-3.4,6.9-5.7c1.9-2.3-1.3-9.2-5.4-13.8c-4.2-4.7-10.4-4.5-11.8-3.2
			C131.2,37.9,131.6,40.1,131.6,40.1z"/>
		<path class="st14" d="M128,35.1v0.5l-0.2,5.6l6.1,0.8l1.4-2.4v2.6c1.9-0.2,3.8,0.1,5.6,0.8c2.9,1.1,6.7,9.2,6.5,12.5s-3.1,4-2.7,9
			c0.3,5,7.9,10,13.7,6.8c5.8-3.2,6.7-7.3,9.1-6.5c2.4,0.8,6,5.7,8.3-1.3c2.3-6.9,1.2-11.3-4.1-17c-5.3-5.7-9.5-5.2-10.2-9.8
			c-0.7-4.5-2.2-10.7-7-14.1s-11.9-3.6-17.9-1C130.4,24.1,128,32.1,128,35.1z"/>
		<path class="st2" d="M128,35.1v0.5l-0.2,5.6l6.1,0.8l1.4-2.4v2.6c1.9-0.2,3.8,0.1,5.6,0.8c2.9,1.1,6.7,9.2,6.5,12.5s-3.1,4-2.7,9
			c0.3,5,7.9,10,13.7,6.8c5.8-3.2,6.7-7.3,9.1-6.5c2.4,0.8,6,5.7,8.3-1.3c2.3-6.9,1.2-11.3-4.1-17c-5.3-5.7-9.5-5.2-10.2-9.8
			c-0.7-4.5-2.2-10.7-7-14.1s-11.9-3.6-17.9-1C130.4,24.1,128,32.1,128,35.1z"/>
	</g>
</g>
</svg>
