<svg width="353" height="257" viewBox="0 0 353 257" fill="none" xmlns="http://www.w3.org/2000/svg">
<rect width="353" height="257" fill="url(#paint0_linear)"/>
<mask id="mask0" mask-type="alpha" maskUnits="userSpaceOnUse" x="0" y="0" width="353" height="257">
<rect width="353" height="257" fill="url(#paint1_linear)"/>
</mask>
<g mask="url(#mask0)">
<g opacity="0.3">
<path d="M121 269.612L178.783 195.698C190.793 180.335 209.512 171.758 228.99 172.693L244.555 173.44C262.249 174.29 279.416 167.286 291.466 154.302L353 88" stroke="white" stroke-width="1.00118"/>
<path d="M121 287.505L178.783 213.59C190.793 198.227 209.512 189.65 228.989 190.585L244.555 191.333C262.249 192.182 279.416 185.179 291.466 172.195L353 105.892" stroke="white" stroke-width="1.00118"/>
<path d="M121 305.397L178.783 231.483C190.793 216.12 209.512 207.543 228.989 208.478L244.555 209.225C262.249 210.075 279.416 203.072 291.466 190.087L353 123.785" stroke="white" stroke-width="1.00118"/>
<path d="M121 323.291L178.783 249.376C190.793 234.013 209.512 225.436 228.989 226.371L244.555 227.119C262.249 227.968 279.416 220.965 291.466 207.981L353 141.679" stroke="white" stroke-width="1.00118"/>
</g>
</g>
<defs>
<linearGradient id="paint0_linear" x1="22" y1="34" x2="305" y2="248" gradientUnits="userSpaceOnUse">
<stop stop-color="#EC1C24"/>
<stop offset="1" stop-color="#FF3152"/>
</linearGradient>
<linearGradient id="paint1_linear" x1="22" y1="34" x2="305" y2="248" gradientUnits="userSpaceOnUse">
<stop stop-color="#EC1C24"/>
<stop offset="1" stop-color="#FF3152"/>
</linearGradient>
</defs>
</svg>
