<svg id="Layer_1" data-name="Layer 1" xmlns="http://www.w3.org/2000/svg" viewBox="0 0 200 113"><defs><style>.cls-1{fill:#363636;}.cls-2{fill:#0a0a0a;}.cls-3{fill:#fdfdfd;}</style></defs><path class="cls-1" d="M147.3,81.5a1.21,1.21,0,0,0,.88-.61c2.12-4.49,5.48-5.59,9.7-5,2,.29,1.9.06.85,1.84a11.45,11.45,0,0,1-2.85,3.31,7.4,7.4,0,0,1-6.67,1.27,2.41,2.41,0,0,0-1.52.16,7.11,7.11,0,0,0-3.37,2.64,52.26,52.26,0,0,1-6.47,6.92c-.09.09-.25.14-.24.31l-.09.07s0,0,.06,0,.07-.06,0-.1a1.89,1.89,0,0,0,1.88-.78c2.67-3.73,6.23-4.77,10.79-3.22,1.61.55,1.61.55.52,1.85a11.85,11.85,0,0,1-4.29,3.4,7.91,7.91,0,0,1-6.51-.18,2.66,2.66,0,0,0-1.34-.13,9.66,9.66,0,0,0-5.23,2.35,47.8,47.8,0,0,1-8.63,5.39l-.32.18a1.8,1.8,0,0,0,2.08-.26c3.24-2.66,6.76-2.9,10.5-.73a20.61,20.61,0,0,1,2.07,1.43c.23.18.29.33,0,.53a11.77,11.77,0,0,1-7,2.92,8.34,8.34,0,0,1-5.64-2.27,1.86,1.86,0,0,0-1-.41,10.61,10.61,0,0,0-6,.88,44.17,44.17,0,0,1-10,2.78c-.08,0-.19,0-.22.16a2.35,2.35,0,0,0,2.06.16c3.71-1.43,6.94-.56,9.67,2.28a17.93,17.93,0,0,1,2,2.52c.2.3.24.45-.16.6a13.17,13.17,0,0,1-6.24.81,8.12,8.12,0,0,1-5.8-4,2.73,2.73,0,0,0-1.67-1.31,13.84,13.84,0,0,1-1.77-.64,1.7,1.7,0,0,0-1-.1c-1,.17-2.11.31-3.35.49l2.89,1.08c.54.21,1.06.46,1.6.68.31.12.38.23.31.61-.12.64-.35.53-.77.33a34.09,34.09,0,0,0-5.45-2,5.75,5.75,0,0,0-3.08,0,38.84,38.84,0,0,0-5.34,1.87c-.23.1-.53.55-.79.1s-.18-.83.43-1.08c1.36-.55,2.72-1.08,4.31-1.61-1.4-.21-2.6-.47-3.81-.55-.51,0-1,.37-1.58.5a4.56,4.56,0,0,0-2.8,2c-2.32,3.34-5.75,4.38-10.1,3.22-.56-.14-1.11-.33-1.67-.51-.22-.07-.38-.17-.19-.44,1.74-2.55,3.72-4.81,6.94-5.46a7.92,7.92,0,0,1,4.66.48,2.3,2.3,0,0,0,2.28-.16c-1.27-.28-2.48-.53-3.68-.81a53.59,53.59,0,0,1-8.74-2.89,2.41,2.41,0,0,0-1.42-.23,4.55,4.55,0,0,1-.9.07,5.35,5.35,0,0,0-3.5,1.17c-2.9,2.2-6,2-9.14.38a16.69,16.69,0,0,1-2.52-1.63c-.24-.2-.36-.34,0-.58,2.23-1.74,4.62-3.09,7.58-2.9a8,8,0,0,1,4.69,2,2.48,2.48,0,0,0,2.35.57c0-.23-.17-.24-.3-.3A56.94,56.94,0,0,1,65,94.49a3.27,3.27,0,0,0-1.74-.79,3.23,3.23,0,0,1-.54-.11,5.79,5.79,0,0,0-3.78.17c-3.23,1.15-6,.11-8.45-2.16a16.27,16.27,0,0,1-2-2.24c-.16-.21-.35-.42.06-.58,2.5-1,5.05-1.55,7.69-.63a8.81,8.81,0,0,1,4.35,3.57,1.18,1.18,0,0,0,1,.63c.16,0,.39.15.48-.1s-.11-.33-.24-.46c-1.36-1.24-2.65-2.55-3.89-3.91-1.06-1.18-2.1-2.38-3-3.66A3.36,3.36,0,0,0,53.32,83a3,3,0,0,1-.7-.32,2.69,2.69,0,0,0-2.17-.25A7.42,7.42,0,0,1,42.93,80a15,15,0,0,1-2.3-3.32c-.13-.25-.18-.44.16-.51,2.83-.59,5.6-.73,8.12,1a8.54,8.54,0,0,1,2.74,3.39,1.42,1.42,0,0,0,1,.92c.07.07.16.15.26,0s-.08-.12-.12-.19a65.17,65.17,0,0,1-5.26-9.5c-.25-.57-.89-.73-1.3-1.12a3.25,3.25,0,0,0-2.4-.84c-3.27,0-5.48-1.75-7-4.55a17.1,17.1,0,0,1-1.15-2.76c-.12-.37-.07-.51.35-.51,4.75,0,8.12,1.71,9.46,6.44a1.4,1.4,0,0,0,.82,1l.16.07-.06-.17a67.18,67.18,0,0,1-2.59-8.54,3.13,3.13,0,0,0-1.25-2.07c-.56-.4-.84-1.22-1.54-1.36-4.34-.86-6.3-3.78-7-7.87-.27-1.65-.26-1.65,1.36-1.15a9.53,9.53,0,0,1,5,3.23,7.42,7.42,0,0,1,1.54,4.27,2.67,2.67,0,0,0,1.17,2c-.32-1.91-.59-3.72-.75-5.55a43,43,0,0,1-.24-4.53,1.3,1.3,0,0,0-.35-.94c-.61-.7-1.18-1.44-1.77-2.16a1.21,1.21,0,0,0-.47-.4c-3.77-1.77-5-4.91-4.74-8.83,0-.53.13-1.06.18-1.6,0-.27.1-.39.38-.24,2.52,1.34,4.66,3,5.45,5.94A7.05,7.05,0,0,1,41,43.08c-.31,1.2.58,1.67,1.11,2.39.1-2.1.24-4.18.52-6.25.16-1.25.34-2.49.57-3.73a1.91,1.91,0,0,0-.14-1.06,8.37,8.37,0,0,0-2.7-3.82,7.15,7.15,0,0,1-2.27-6.33,14.75,14.75,0,0,1,.56-3c.09-.28.16-.49.51-.23,2.22,1.65,4.07,3.57,4.47,6.47a8.27,8.27,0,0,1-.3,3.39c-.29,1-.28,1.05.27,2.1.22-.11.2-.34.24-.52a53.63,53.63,0,0,1,2.44-7.72,2.4,2.4,0,0,0,0-1.16,6.1,6.1,0,0,0-1.45-3.7,6.75,6.75,0,0,1-1.2-6.4,14.09,14.09,0,0,1,1.11-2.87c.18-.34.33-.38.6-.08,2.68,3,4,6.33,1.81,10.23-.29.51-.08,1,0,1.62.55-1.1,1-2.06,1.5-3,.6-1.13,1.22-2.25,1.87-3.35a3.21,3.21,0,0,0,.44-1.63,6.76,6.76,0,0,0-.72-3.26c-1.52-3.08-.33-6,1.78-8.38.22-.27.33-.13.45.08C54.41,6,55.05,9.38,52.3,12.4c-.31.35-.24.73-.26,1.14.27,0,.32-.26.42-.4a51,51,0,0,1,3.71-4.82,1.52,1.52,0,0,0,.39-.85c.5-3.65,2.13-6,6.61-7.13.23-.06.54-.23.49.26-.29,2.9-1,5.55-3.85,7.08a5.91,5.91,0,0,1-1.68.67,2.33,2.33,0,0,0-1.42.92,52,52,0,0,0-4,5.45s-.1.11-.09.14.13.05.2,0a2,2,0,0,0,1.26-1.09c1.46-2.64,3.8-3.67,7.13-3.13,1.8.29,1.65.15.76,1.61a7,7,0,0,1-4.14,3.43,6.23,6.23,0,0,1-3.18,0,1.27,1.27,0,0,0-.94.09c-.66.33-1.33.66-2,1a1.43,1.43,0,0,0-.67.68,60.06,60.06,0,0,0-3.19,6.37c.62-.34,1.17-.49,1.44-1.16,1.4-3.45,4-5,7.71-4.72,1.74.13,1.75.14.93,1.69a8.29,8.29,0,0,1-4,4.13,6.68,6.68,0,0,1-3.7.37,2.27,2.27,0,0,0-1.24.25,4.21,4.21,0,0,0-2.55,3.05c-.59,2.11-1.33,4.17-1.72,6.33l0,.17.15-.06A2.61,2.61,0,0,0,46,32c.72-3.6,3.13-5.62,7.07-6.07,1.48-.16,1.48-.16,1.1,1.28a15,15,0,0,1-.7,2.05,6.87,6.87,0,0,1-6.42,4.47,2,2,0,0,0-1,.44,5,5,0,0,0-2.21,4c-.22,2.41-.49,4.82-.57,7.24,0,.11-.05.23.11.35a2.4,2.4,0,0,0,.71-1.84c-.54-4.77,2-7.55,6.16-9.21.22-.09.4-.14.43.2.24,2.89.09,5.7-2,8a7.11,7.11,0,0,1-2.94,1.94,3,3,0,0,0-1.15.93,5.53,5.53,0,0,0-1.24,4.7c.24,2.09.41,4.18.75,6.25,0,.21.1.42.19.79a2.69,2.69,0,0,0,.44-2.19c-1.16-3.84.07-7.06,3.54-9.54,1.25-.89,1.26-.9,1.59.62a10.23,10.23,0,0,1-.18,6.05,7.42,7.42,0,0,1-3.22,3.66,1.55,1.55,0,0,0-.76.85,4.55,4.55,0,0,1-.56,1.2,2.65,2.65,0,0,0-.28,2.37,65.19,65.19,0,0,0,2.7,8.51c.05.12,0,.29.24.33a2.57,2.57,0,0,0-.13-2.16c-2-3.49-1.81-7.45,2.33-11.51a13.51,13.51,0,0,1,1.88,5A7.72,7.72,0,0,1,49.6,67.6,2,2,0,0,0,49,68.81a1.17,1.17,0,0,1,0,.27,5.37,5.37,0,0,0,.68,4.69c1.25,2.26,2.5,4.52,3.94,6.67.15.23.31.44.56.78a2.49,2.49,0,0,0-.58-2.06C50.66,76,50.59,72.5,52.27,68.78c.09-.21.19-.43.3-.63.76-1.43.58-1.29,1.48-.18a10.61,10.61,0,0,1,2.73,6.44,8.36,8.36,0,0,1-1.3,4.64,3.17,3.17,0,0,0-.35,1.38A5.93,5.93,0,0,0,57,85a77.77,77.77,0,0,0,6.12,6.37c-.06-.53-.06-1-.45-1.25-4-3-4.69-6.86-3.32-11.38.11-.36.25-.7.36-1.06s.19-.36.44-.15a12.21,12.21,0,0,1,4.52,6.38,8.65,8.65,0,0,1-.5,5.47,2.54,2.54,0,0,0-.1,1.34,4.76,4.76,0,0,0,2.16,3.3,65.56,65.56,0,0,0,9.86,6.2l.48.22A2.32,2.32,0,0,0,75.19,99a9.14,9.14,0,0,1-6.1-8.21,14.88,14.88,0,0,1,0-3.2c0-.24,0-.52.38-.36,2.81,1.19,5.29,2.78,6.66,5.65a9.62,9.62,0,0,1,.76,5.19,1.52,1.52,0,0,0,.26,1.18,1,1,0,0,1,.13.25c.45,1.49,1.6,2.1,3,2.61A59.24,59.24,0,0,0,90.39,105l.74.11a2.75,2.75,0,0,0-2-1.15,8.14,8.14,0,0,1-7.74-5.61,16.91,16.91,0,0,1-.94-3.43c0-.28-.13-.59.35-.55,2.78.26,5.44.86,7.49,3a8.76,8.76,0,0,1,2.3,5.14,2.67,2.67,0,0,0,.71,1.37,5.42,5.42,0,0,0,4.19,1.94,25.7,25.7,0,0,1,3.25.47c1.77.35,3.46-.28,5.18-.41a8.22,8.22,0,0,1,.83-.11c1.85.09,3-1,4.2-2.21a1.73,1.73,0,0,0,.37-1.09A8.49,8.49,0,0,1,113,96.22a12.73,12.73,0,0,1,6.1-1.82c.25,0,.48,0,.41.36-.46,2.65-1.24,5.18-3.26,7.11A7.76,7.76,0,0,1,111,104a2.53,2.53,0,0,0-2.08,1.11,8.51,8.51,0,0,0,1.86-.29,55.28,55.28,0,0,0,10.57-3.35,1.87,1.87,0,0,0,.81-.79,6.81,6.81,0,0,0,1-4c-.06-3.59,1.79-6.16,4.74-8a15.58,15.58,0,0,1,2.6-1.34c.24-.1.45-.18.47.21.19,3.13-.08,6.16-2.14,8.73a8.76,8.76,0,0,1-4,2.8c-.71.25-1,.73-1.33,1.49.87-.45,1.61-.82,2.33-1.21a61.76,61.76,0,0,0,9.15-6.15,2.5,2.5,0,0,0,.75-1.35,4.42,4.42,0,0,0,0-3c-1.23-3.39-.3-6.4,2-9.07a17.61,17.61,0,0,1,2.15-2.08c.19-.15.37-.33.51.07,1.12,3.16,1.65,6.32-.15,9.44A9.42,9.42,0,0,1,137.54,90a1.66,1.66,0,0,0-.64,1.39,57.83,57.83,0,0,0,5.95-6.2,2.88,2.88,0,0,0,.22-.27c1.79-2.17,1.79-2.17,1.79-5a1,1,0,0,0-.14-.53c-2.36-3.7-1.84-7.24.6-10.67.37-.51.79-1,1.18-1.47.19-.24.33-.21.47,0,2.25,3.93,2.83,8-.42,11.72a2.34,2.34,0,0,0-.7,2c.21.09.23-.11.29-.2A62.39,62.39,0,0,0,151.19,72a1.68,1.68,0,0,0,.14-1.33,1.41,1.41,0,0,1-.07-.41,6,6,0,0,0-1.49-3.4c-2.07-2.44-2.14-5.25-1.15-8.17a13,13,0,0,1,1.16-2.61c.12-.2.19-.46.49-.13,1.95,2.16,3.46,4.52,3.24,7.6a7.57,7.57,0,0,1-1.14,3.63,2.68,2.68,0,0,0-.16,2.41A43.9,43.9,0,0,0,154,64.77c.52-1.67,1-3.36,1.34-5.07a.91.91,0,0,0,0-.67c-.39-.77-.76-1.55-1.12-2.33a.88.88,0,0,0-.37-.39c-3.63-2.11-4.52-5.34-3.78-9.23.1-.55.24-1.09.37-1.63.06-.25.14-.43.47-.22,2.32,1.53,4.27,3.34,4.74,6.26a7.32,7.32,0,0,1-.29,3.72,2.59,2.59,0,0,0,.41,2.35,34.61,34.61,0,0,0,.58-3.59c.24-1.83.35-3.67.43-5.51a2.07,2.07,0,0,0-.36-1.22,7.28,7.28,0,0,0-3.25-3c-2.33-1.09-3.39-3.22-3.74-5.72a14.06,14.06,0,0,1,0-3.55c0-.26,0-.47.4-.32,3,1.26,5.53,3,6.15,6.55a7.4,7.4,0,0,1,.05,2.57,2.38,2.38,0,0,0,.74,2c0-.74,0-1.37,0-2a60,60,0,0,0-.79-7.43,1.47,1.47,0,0,0-.6-1,5.2,5.2,0,0,1-.78-.7,3.1,3.1,0,0,0-2.18-1,6.52,6.52,0,0,1-5.57-3.88,13.77,13.77,0,0,1-1.14-3.44c0-.27-.11-.54.31-.5,2.47.22,4.8.75,6.51,2.76A6.76,6.76,0,0,1,154,32.12,2.74,2.74,0,0,0,155.34,34a24,24,0,0,0-.74-3.21c-.46-1.63-1-3.25-1.58-4.85a1.3,1.3,0,0,0-.68-.82,3.69,3.69,0,0,1-.66-.39,3.42,3.42,0,0,0-2.39-.61,6.36,6.36,0,0,1-6.28-3,13.61,13.61,0,0,1-1.44-2.62c-.09-.24-.18-.47.2-.51,2.59-.28,5.09-.2,7.13,1.76a6.57,6.57,0,0,1,1.73,2.67c.25.74.83,1,1.52,1.35a54.86,54.86,0,0,0-3.33-6.64.81.81,0,0,0-.41-.36,7.13,7.13,0,0,1-1-.49,4,4,0,0,0-3-.49A5.22,5.22,0,0,1,140,14.57a10.57,10.57,0,0,1-2.52-3.23c-.1-.19-.2-.4.13-.47,2.12-.47,4.21-.65,6.17.55A5.87,5.87,0,0,1,146,13.83a1.82,1.82,0,0,0,1.22,1c.06.05.13.18.21.08s0-.16-.1-.2a45.54,45.54,0,0,0-4.46-6,1.14,1.14,0,0,0-.61-.3c-3.67-1-5.48-3.31-5.89-7.78,0-.43.11-.43.48-.35,3.85.85,5.94,3,6.57,6.92A2.51,2.51,0,0,0,144,8.53a53.8,53.8,0,0,1,3.87,5.07c.13-.82.14-.83-.25-1.28A6.72,6.72,0,0,1,146.38,5a14,14,0,0,1,1-2.14c.16-.28.3-.31.52-.06,2.42,2.82,3.29,5.88,1.33,9.15a3.6,3.6,0,0,0-.3,1.53,4.91,4.91,0,0,0,.94,3.45,38.12,38.12,0,0,1,2.53,4.82c.08.18.09.41.38.52a2.81,2.81,0,0,0-.16-1.8c-1.81-3.33-1-6.36,1.25-9.12,1.15-1.42.94-1.57,1.73.21a8.57,8.57,0,0,1,.66,6,7.5,7.5,0,0,1-1.87,3.15,2,2,0,0,0-.52,1,7.38,7.38,0,0,0,.47,4.87,34.36,34.36,0,0,1,1.73,5.81c0,.18.11.35.2.63a2.43,2.43,0,0,0,.39-2c-1.16-3.64,0-6.57,2.8-9,.42-.37.87-.69,1.31-1,.26-.22.39-.16.48.16,1.26,4.35.74,8-3.07,10.59a1.13,1.13,0,0,0-.48.65,4.93,4.93,0,0,1-.43,1.1,4,4,0,0,0-.39,3,51,51,0,0,1,.85,8.54c0,.13,0,.26,0,.51.76-.84,1.33-1.47,1.14-2.72-.59-3.94,1.3-6.7,4.57-8.67a4.35,4.35,0,0,1,1.37-.65c.44,3.13.49,6.15-1.74,8.73a5.83,5.83,0,0,1-1.83,1.49A8.11,8.11,0,0,0,159,45.66a4.79,4.79,0,0,0-1.35,3.61,50.26,50.26,0,0,1-.94,8.55,2.51,2.51,0,0,0,1.16-1.89c.29-3.58,2.28-5.89,5.56-7.18a17.49,17.49,0,0,1,2.13-.66c.34-.08.41,0,.38.33-.47,4.59-2.29,8-7,9a1,1,0,0,0-.57.35l-1.76,1.7a.91.91,0,0,0-.31.52,65.11,65.11,0,0,1-2.92,9.57c.73-.27.82-.36,1-.92,1.22-4.08,3.74-6.11,8-6.45.53,0,1.07,0,1.6-.06.29,0,.38.12.29.39-1.33,4.26-3.81,7.63-8.74,7.44a2.33,2.33,0,0,0-1.28.42,6.37,6.37,0,0,0-2.6,3.14,57.4,57.4,0,0,1-4.48,7.89c0,.06-.14.18-.12.19S147.22,81.57,147.3,81.5Z"/><path class="cls-2" d="M135.78,32.28c-.76,1.78-2.54,2.62-3.74,4,.32.24.68,0,1,.13s.49-.08.52.22-.25.4-.47.44a22.31,22.31,0,0,1-2.55.35,15,15,0,0,1-4.2-.59c-.9-.22-1.75-.59-2.64-.84a3.7,3.7,0,0,1-1.6-1,.78.78,0,0,0-.74-.3c-.33.08-.21.41-.27.64a9.37,9.37,0,0,1-1.53,3.22,7.08,7.08,0,0,0-.62.85c-.77,1.49-2.26,2.17-3.52,3.1a2.16,2.16,0,0,1-1,.33c-1,.13-1.37.83-1.62,1.67a2.4,2.4,0,0,1-1.12,1.6,6.34,6.34,0,0,1,.53-1.54,3.72,3.72,0,0,0,.29-1.82c-.11-1.11,0-1.62,1.26-1.66a2.1,2.1,0,0,0,1.18-.38c.09-.07.21-.14.18-.28s-.18-.15-.28-.15l-1.4,0a1.42,1.42,0,0,1-.91-.28.85.85,0,0,1-.27-.94c.08-.33.42-.21.66-.18a7.94,7.94,0,0,0,4.13-.72,3.84,3.84,0,0,0,1.3-.93c.34-.34.26-.58-.23-.62s-.88,0-1.32,0a1.41,1.41,0,0,1-.78-.09c.4-.25.72-.46,1-.64a20.08,20.08,0,0,0,3.22-2.19,1.73,1.73,0,0,1,1.15-.41l1.68,0a9.45,9.45,0,0,0,3.38-.24,3.56,3.56,0,0,1-1.39,1.12c-.14.07-.35.11-.32.31s.27.24.44.24c1.45,0,2.93.19,4.31-.47.18-.08.45-.1.45-.35s-.27-.25-.46-.32c-.61-.26-1.33-.15-2-.6,1.53-.63,3-1.11,4.49-1.66a26.1,26.1,0,0,0,3.35-1.56,9.55,9.55,0,0,0,1.43-1.21c.15-.11.27-.4.51-.21s0,.37-.08.53c-.88,1.08-1.61,2.27-2.6,3.27-.14.14-.4.27-.21.49s.41,0,.57-.07S135.46,32.09,135.78,32.28Z"/><path class="cls-2" d="M84,36.43a4.61,4.61,0,0,1-2,0c-.13,0-.3-.08-.39.05s0,.3.14.42a2.93,2.93,0,0,0,1.08.87,7.25,7.25,0,0,0,4.88,1c.38-.08.46.18.38.47-.14.52-.39,1-1,1l-1.46,0c-.17,0-.43-.09-.46.17a.43.43,0,0,0,.39.44,8.24,8.24,0,0,0,1.22.25.86.86,0,0,1,1,1,6.79,6.79,0,0,0,1,3.8.2.2,0,0,1,0,.29,1.83,1.83,0,0,1-1.05-1.31c-.21-1.12-.7-2-2-2.16s-2.28-1.23-3.21-2.1a10.71,10.71,0,0,1-3.08-5.56c-.1-.42-.3-.42-.6-.27a3.35,3.35,0,0,0-.36.21,16.39,16.39,0,0,1-8.5,2.47,10.86,10.86,0,0,1-2.83-.35c-.18,0-.39-.1-.37-.34s.24-.26.45-.29.89.2,1-.17-.44-.52-.68-.79c-.83-.94-2-1.56-2.6-2.7-.11-.21-.41-.47-.22-.65s.51,0,.72.22l.34.25c.1.08.21.21.35,0a.24.24,0,0,0,0-.41c-.93-.63-1.29-1.76-2.17-2.44-.32-.25-.45-.73-.68-1.1-.06-.08,0-.12,0-.17s.14-.07.23,0a11.56,11.56,0,0,0,1.1.72,37.89,37.89,0,0,0,3.57,1.87c1.38.57,2.83,1,4.26,1.43.14,0,.37,0,.35.23a.33.33,0,0,1-.36.34c-.59-.07-1.06.34-1.62.35-.16,0-.35.06-.36.27s.18.2.29.25a5,5,0,0,0,2.21.57c.77,0,1.54,0,2.31,0,.13,0,.31,0,.36-.13s-.11-.29-.24-.37l-1.22-.68c-.13-.08-.33-.16-.25-.35s.24-.13.38-.1c1.65.43,3.33.16,5,.23a.94.94,0,0,1,.69.28,16.13,16.13,0,0,0,3.62,2.45C83.69,36.06,83.93,36.12,84,36.43Z"/><path class="cls-2" d="M83,37.08l2-.23c.15,0,.37,0,.39-.21s-.2-.22-.34-.31c-1.49-1-3.21-1.63-4.52-2.92a2,2,0,0,0-1.48-.64A23.09,23.09,0,0,1,73,32.12a28.63,28.63,0,0,1-7.63-2.93A19.15,19.15,0,0,1,62,26.4c-.16-.14-.33-.35-.53-.22s0,.36.08.53c.49,1.11,1.2,2.09,1.78,3.15.32.59,1,.93,1.21,1.59-.3.14-.51,0-.72-.17-.59-.35-1.16-.78-1.78-1.08A4,4,0,0,1,60,26.77c-.2-1.44-.21-2.91-.54-4.33-.05-.21,0-.48.23-.51s.22.25.27.41c.26.87.52,1.73.77,2.6.08.3.18.54.56.37a.47.47,0,0,1,.51.16c2.3,2.11,5.14,3.21,8,4.24,1.68.6,3.47.77,5.18,1.27a20.43,20.43,0,0,0,4.61.4,3.35,3.35,0,0,1,1.89.95,33.35,33.35,0,0,0,6.16,4c.32.15.62.33.92.5s.52.1.5.4-.25.51-.56.63a4.55,4.55,0,0,1-2.12.33A6.74,6.74,0,0,1,83,37.08Z"/><path class="cls-2" d="M105.46,38.08c-1-.55-1.78-.1-2.59.48a3.38,3.38,0,0,0-1.43,2.31c-.27,0-.32-.15-.41-.25-.68-.74-.84-.75-1.56-.08s-.62.53-.89-.21a3.7,3.7,0,0,0-2-2.41,2.19,2.19,0,0,0-1.43,0c.2.37.52.34.77.42a3.33,3.33,0,0,1,2.33,2.68c.06.24.08.52-.17.62s-.32-.21-.46-.35L97,40.68c-.19-.17-.38-.27-.6,0s-.57.23-.45.53.4.11.62.07.29-.06.35.12-.07.26-.16.36a2,2,0,0,1-1.61.18.48.48,0,0,1-.17-.55,1.63,1.63,0,0,1,1.24-1.3,7.52,7.52,0,0,0-3.33-1.55c-1.69-.33-2.66-1.6-3.64-2.84a.76.76,0,0,1-.14-.67,2.18,2.18,0,0,1,.83.76,5.83,5.83,0,0,0,4.11,2.08c.32,0,.57,0,.75-.35a1.14,1.14,0,0,1,.81-.5,12.88,12.88,0,0,1,2.4-.36,14.07,14.07,0,0,1,2.42-.17,35.68,35.68,0,0,1,3.73.37,1.87,1.87,0,0,1,1.17.58c.55.83,1.26.51,1.91.32a6.14,6.14,0,0,0,3.52-2.45c.07-.12.17-.26.33-.16a.29.29,0,0,1,.1.42,2.8,2.8,0,0,1-.43.71c-1.11,1.08-2.2,2.13-3.87,2.32a4.64,4.64,0,0,0-2.26,1c-.28.22-.34.41,0,.66a1.45,1.45,0,0,1,.3.39c.21.37.44.82.09,1.16s-.87.14-1.3-.05c-.18-.08-.34-.23-.28-.43s.3-.16.47-.14a.47.47,0,0,0,.45-.06c-.27-.41-.55-.61-1-.3a4.67,4.67,0,0,0-.76.71c-.12.12-.24.25-.42.19a.43.43,0,0,1-.24-.47,3,3,0,0,1,1.56-2.49A5.57,5.57,0,0,1,105.46,38.08Z"/><path class="cls-2" d="M139,25.29a1.32,1.32,0,0,1-.52,1.18,22.45,22.45,0,0,1-4.47,3.3,28,28,0,0,1-7.28,2.49c-.61.11-1.19.33-1.82.43-1.21.18-2.41-.11-3.61,0-.21,0-.42,0-.59.14a26.21,26.21,0,0,1-5.25,3.4c-.19.11-.51.18-.45.46s.36.15.55.23a4.63,4.63,0,0,0,1.66.11c.13,0,.3,0,.32.16s-.1.2-.21.25a1.3,1.3,0,0,1-.31.16,15.06,15.06,0,0,1-3.89.63h-.21c-.61-.14-1.45-.23-1.51-.89s.79-.78,1.31-.93a6.27,6.27,0,0,0,1.41-.73,17,17,0,0,0,3-2,18.61,18.61,0,0,0,1.87-1.5,2.76,2.76,0,0,1,2.11-.7,22,22,0,0,0,5.15-.65,34.32,34.32,0,0,0,5.22-1.4,29.28,29.28,0,0,0,4.71-2.22C137.1,26.59,138,26,139,25.29Z"/><path class="cls-2" d="M100.84,51.48a11.54,11.54,0,0,1-4.47-1c-1.24-.45-2.33-1.22-3.6-1.59-.3-.09-.31-.45-.54-.62a.19.19,0,0,1,0-.18.41.41,0,0,1,.46,0,8.16,8.16,0,0,0,2.23.48,3.85,3.85,0,0,0,2.23-.69c.41-.23.82-.45,1.21-.69s.71-.1.89.3a1.08,1.08,0,0,0,.28.47c.27.22.28.89.7.71a1.47,1.47,0,0,0,1-1.06c.08-.58.3-.62.78-.34.64.37,1.31.68,2,1a4.38,4.38,0,0,0,3.26,0c.16,0,.3-.12.46-.16a.43.43,0,0,1,.49.18c.16.24-.08.33-.2.45a3.39,3.39,0,0,1-1.1.57,19.4,19.4,0,0,1-5.78,2.15A2.3,2.3,0,0,0,100.84,51.48Z"/><path class="cls-2" d="M128.85,41a8.88,8.88,0,0,1-3.49-.15c-.87-.13-1.72-.33-2.58-.52-.43-.1-.54,0-.49.44s.45,1,.53,1.48c-.09,0-.16.08-.17.06A30.66,30.66,0,0,0,120,40.4a.75.75,0,0,1-.2-1.08,18,18,0,0,0,1.54-3.4c.22-.77.27-.7.86-.23a11.67,11.67,0,0,0,4.14,2.17.58.58,0,0,1,.14,0c.28.11.7.17.72.46s-.46.29-.71.41a1.68,1.68,0,0,1-.55.11c-.23,0-.52,0-.57.26s.24.34.45.43a18.34,18.34,0,0,0,2.39,1A.84.84,0,0,1,128.85,41Z"/><path class="cls-2" d="M71.53,41a1.7,1.7,0,0,1,.83-.55l2.42-1c.16-.07.4-.17.38-.37s-.29-.15-.46-.18a11.07,11.07,0,0,1-1.3-.26c-.31-.09-.4-.32-.07-.54a1.24,1.24,0,0,1,.49-.24,8.92,8.92,0,0,0,4.06-2c.9-.68.94-.69,1.25.36A4.27,4.27,0,0,0,80,38.07a5.28,5.28,0,0,1,.7,1.5c.15.3-.06.63-.33.85a24.27,24.27,0,0,0-2.44,1.71c-.09.09-.25.17-.37,0s-.1-.2-.06-.24c.48-.55.45-1.51,1.37-1.71.25-.06.49-.14.73-.22s.23-.1.18-.25-.19-.13-.3-.1c-.51.15-1,.28-1.53.47a15.61,15.61,0,0,1-5.86,1A3.81,3.81,0,0,1,71.53,41Z"/><path class="cls-2" d="M91.74,47.33c-.3.28-.52.24-.75,0a12,12,0,0,1-2.34-3,5.81,5.81,0,0,1-.31-3.15A12.73,12.73,0,0,1,89,38.52c.33-.93.75-1.1,1.58-.59.08,0,.19.08.23.15.65,1.2,1.83,1.06,2.91,1.17a1.91,1.91,0,0,1,.48.06c.63.2.69.39.31.94a1.5,1.5,0,0,0,.16,2.16,2,2,0,0,0,2.18,0c.16-.13.33-.47.56-.24s-.05.45-.24.61c-1.26,1-2.13,1.2-3.16.59a1.67,1.67,0,0,1-.39-2.85,1.47,1.47,0,0,0,.45-.67c-.49-.06-.71.33-1,.58a1.55,1.55,0,0,0-.23.27c-.22.29-.44.73-.83.64s-.37-.57-.4-.94c0-.14,0-.29-.2-.33s-.26.08-.28.22c-.06.84-.65,1.47-.86,2.27a5.53,5.53,0,0,0,.41,3.25C90.87,46.35,91.05,47.05,91.74,47.33Z"/><path class="cls-2" d="M105.11,47.9c-1.35,0-3.35-1.62-3.49-2.79a5.46,5.46,0,0,1,1-2c.28-.15.43.08.6.21a3.24,3.24,0,0,0,2,.91,2.5,2.5,0,0,0,2.55-1.62c.46-.87.47-.87,1.07-.1a2.83,2.83,0,0,1,.2.28c1,1.42.91,1.86-.29,3.12a5.16,5.16,0,0,1-2.52,1.77C105.81,47.79,105.45,47.86,105.11,47.9Z"/><path class="cls-2" d="M95.17,47.92a9,9,0,0,1-2-.64c-1.17-.42-1.68-1.46-2.27-2.4-.44-.7.35-2.59,1.12-2.81.31-.09.41.15.53.34a6.13,6.13,0,0,0,.57,1,2.46,2.46,0,0,0,3.49.4L97,43.5c.75-.56.77-.56,1,.3,0,.1.07.22.12.32.66,1.3.67,1.31-.27,2.38A3.93,3.93,0,0,1,95.17,47.92Z"/><path class="cls-2" d="M99.84,55.05c0,.82,0,1.63,0,2.45,0,.36,0,.64-.51.47-.19-.06-.42,0-.62-.06-1.34-.33-1.53-.69-1.23-2.34,0-.17.28-.4,0-.51s-.39.09-.53.27l-.07.11c-.7,1.22-.7,1.22-1.54.09-1-1.32-1-1.47.23-2.59.47-.44,1-.85,1.45-1.31a.5.5,0,0,1,.63-.09,5.32,5.32,0,0,0,1.8.47c.39.05.48.24.47.6,0,.81,0,1.63,0,2.44Z"/><path class="cls-2" d="M100.44,56c0-1.09,0-2.19,0-3.28,0-.52.17-.79.69-.81a1.55,1.55,0,0,0,.62-.09c1.27-.66,2,.13,2.8.94a6.25,6.25,0,0,0,.86.92.54.54,0,0,1,.17.79c-.28.53-.53,1.08-.85,1.59s-.55.4-1-.09c-.21-.25-.25-.84-.63-.7s-.14.66-.16,1,.28.87-.2,1.15a3.58,3.58,0,0,1-1.91.56c-.3,0-.27-.27-.27-.47,0-.51,0-1,0-1.53Z"/><path class="cls-2" d="M111.29,70.61h2.59c-.95.33-.83,1.1-.83,1.82,0,1.37,0,2.75,0,4.12,0,.23.15.56-.12.7s-.5-.17-.68-.36c-1.2-1.23-2.38-2.48-3.57-3.72-.16-.17-.31-.34-.62-.66a24.58,24.58,0,0,0,.07,3.87c.07.44.47.58.82.84h-2.55c1.15-.29.93-1.19.93-2a24.66,24.66,0,0,1,0-2.58c.09-.89-.43-1.3-1-1.68-.14-.08-.33-.07-.39-.42a11,11,0,0,0,1.82,0c.76-.13,1.14.34,1.56.79l3,3.16c0-1.07,0-2,0-2.94C112.28,71,111.7,71,111.29,70.61Z"/><path class="cls-2" d="M90.61,70.75c0-.21.17-.2.28-.2,1.21,0,2.42,0,3.63,0a1.76,1.76,0,0,1,1.86,1.61,1.91,1.91,0,0,1-1.47,2.14,2.13,2.13,0,0,1-.89.12c-.79-.13-1,.23-.88.92a2,2,0,0,1,0,.55c0,.62,0,1.15.93,1.13l-.11.18H90.64c1-.27.76-1.08.77-1.76,0-1.09,0-2.19,0-3.28C91.43,71.51,91.41,70.91,90.61,70.75Zm2.54,1.71h0c0,.3,0,.6,0,.9,0,.52.21.6.64.43a1.33,1.33,0,0,0,.87-1.22,1.27,1.27,0,0,0-.63-1.3c-.6-.35-.86-.2-.87.49C93.14,72,93.15,72.23,93.15,72.46Z"/><path class="cls-2" d="M85.47,77.3c-.82,0-1.45,0-2.07,0-.1,0-.25,0-.3-.1a.26.26,0,0,1,.18-.33c.61-.19.74-.72.93-1.22.55-1.52,1.11-3.05,1.64-4.59a.67.67,0,0,1,.74-.53.69.69,0,0,1,.76.52c.6,1.59,1.25,3.16,1.85,4.75a2.12,2.12,0,0,0,1.16,1.42H87c.1-.33.67-.24.55-.7A5.63,5.63,0,0,0,87,75c-.15-.25-1.57-.14-1.75.09A1.46,1.46,0,0,0,85.47,77.3Zm.63-4.66c-.15.38-.27.65-.37.92-.29.76-.29.74.52.71.43,0,.46-.15.29-.5S86.27,73.09,86.1,72.64Z"/><path class="cls-2" d="M100.24,77.12c.79-.12.86-.63.85-1.24,0-1.14,0-2.28,0-3.42,0-.74.26-1.62-1-1.74l.16-.17H105c.22,0,.27.12.27.31s0,.23,0,.35c0,.33.22.83-.11,1s-.3-.45-.49-.68a2.4,2.4,0,0,0-1.77-.34c-.15.09-.12.23-.12.36a9.84,9.84,0,0,0,0,1.33c0,.3-.25.74.24.89a1.09,1.09,0,0,0,1.42-.59c.07-.19.14-.2.27-.2s.23.11.22.27c0,.31,0,.61,0,.91s.15.63-.12.78-.32-.3-.53-.42a2.43,2.43,0,0,0-1.36-.14s-.07,0-.1.07a3.17,3.17,0,0,0,.31,2.24,1.47,1.47,0,0,0,1.93-.72c.08-.16.09-.44.33-.39s.15.35.14.54c0,1.23,0,1.23-1.3,1.23h-3.35A.8.8,0,0,1,100.24,77.12Z"/><path class="cls-2" d="M108.66,47.41c.31-.56.74-1,1-1.61a4.54,4.54,0,0,0,0-4.28c-.37-.75-.7-1.52-1.06-2.28-.08-.17-.12-.29,0-.42.42-.32.81-.69,1.26-1,.79-.49,1-.36,1.36.49a16.73,16.73,0,0,1,.66,3.11,5.05,5.05,0,0,1-1.28,4.44,4.37,4.37,0,0,1-1.46,1.47C109,47.43,108.9,47.56,108.66,47.41Z"/><path class="cls-2" d="M78.42,76.33c.13-.36-.17-.91.21-1s.33.49.55.73a1.62,1.62,0,0,0,1.45.67.89.89,0,0,0,.78-.62c.13-.4-.13-.66-.42-.87s-.87-.54-1.29-.83c-1.17-.79-1.5-1.63-1-2.63a2.28,2.28,0,0,1,2.79-1.11l.26.08c.23,0,.55-.42.64,0a4,4,0,0,1,0,1.65c-.06.23-.34,0-.44-.18a1.71,1.71,0,0,0-.9-.93.85.85,0,0,0-1.1.31c-.32.42-.11.77.23,1,.58.43,1.17.85,1.79,1.22A1.89,1.89,0,0,1,82,76.92a3,3,0,0,1-2.4.27c-.27-.06-.53-.26-.83,0s-.4.1-.39-.23Z"/><path class="cls-2" d="M118.84,77.24h-3.29l-.18-.16c1.12-.08.94-.81.94-1.45,0-1.25,0-2.51,0-3.77,0-.24.21-.65-.17-.71s-.94-.19-1.32.21c0,0,0,.09-.08.12-.22.17-.17.79-.51.58s-.12-.79-.12-1.21.35-.31.6-.31c1.66,0,3.31,0,5,0,.57,0,.71.16.65.65a2,2,0,0,1,0,.35c-.06.22.19.59-.14.65s-.25-.32-.34-.53a1.53,1.53,0,0,0-1.65-.51c-.16.09-.12.24-.12.37,0,1.58,0,3.16,0,4.75C118.05,76.79,118.4,77,118.84,77.24Z"/><path class="cls-2" d="M98.27,42.83A3.62,3.62,0,0,1,99,41.66c.32-.46.74-1.19,1.3-1.11s.85.72,1.16,1.19.18.8.64,1a.38.38,0,0,1,0,.32c-.78,1.3-.9,2.82-1.38,4.21a.66.66,0,0,1-.46.49c-.23,0-.33-.22-.46-.38a1.53,1.53,0,0,1-.26-.63,9.12,9.12,0,0,0-.89-2.7A2.8,2.8,0,0,1,98.27,42.83Zm1-.54a.91.91,0,0,0,1,.51c.31,0,.76-.11.7-.6a.87.87,0,0,0-.84-.79A1,1,0,0,0,99.31,42.29Z"/><path class="cls-2" d="M120.56,70.62h3.38c-1,.35-.77,1.21-.78,1.95,0,1,0,2.05,0,3.07s0,1,.89,1.6h-3.41c1-.28.76-1,.76-1.68V72.2C121.4,71.55,121.58,70.78,120.56,70.62Z"/><path class="cls-2" d="M136,31.4a.5.5,0,0,1,.2-.49c1.11-1.1,1.68-2.56,2.61-3.75.71-.91.64-2,1-3a9.45,9.45,0,0,0,.49-2c0-.19.08-.42.29-.39a.4.4,0,0,1,.32.47c-.23,2.3-.32,4.62-1.33,6.76a1.83,1.83,0,0,1-.5.74,14.18,14.18,0,0,1-2.94,1.71C136.1,31.47,136,31.42,136,31.4Z"/><path class="cls-2" d="M100.12,77.24H96.58c.33-.32.77-.26.83-.64a6.8,6.8,0,0,0,.06-.9c0-1.25,0-2.51,0-3.76,0-.59-.07-1.07-.75-1.3H100c-1,.38-.73,1.26-.74,2,0,1,0,2,0,3S99.22,76.68,100.12,77.24Z"/><path class="cls-2" d="M133.79,35.26a6.75,6.75,0,0,0,1.94-1.9c.13-.16.34-.3.32-.52-.06-.76.5-1,1-1.32A10.16,10.16,0,0,0,141,28.14c.12-.22.3-.44.54-.27s0,.38-.14.55c-.57,1-1.31,1.79-1.9,2.74a11,11,0,0,1-2.78,2.7,6.18,6.18,0,0,1-2.59,1.54C134,35.42,133.92,35.44,133.79,35.26Z"/><path class="cls-2" d="M66.37,35.4A13.37,13.37,0,0,1,60,30c-.45-.67-1.21-1.31-1.11-2.47a7.58,7.58,0,0,1,.82,1c.84,1.57,2.41,2.26,3.8,3.17.19.14.43.24.51.45a8.12,8.12,0,0,0,2.43,3.16Z"/><path class="cls-2" d="M106.71,40c-.1.26.09.34.18.46a1.79,1.79,0,0,1-.61,2.91,2.85,2.85,0,0,1-3.39-.94c-.06-.13-.15-.27,0-.38s.36,0,.48.1a1.66,1.66,0,0,0,1.58.51,1.47,1.47,0,0,0,1.27-1,1.21,1.21,0,0,0-.29-1.41c-.19-.19-.46-.4-.3-.71s.45-.3.72-.35.37,0,.56,0c1.17-.15,1.7.28,1.73,1.43a.67.67,0,0,1-.31.66c-.24.11-.3-.22-.44-.35C107.51,40.6,107.36,40,106.71,40Z"/><path class="cls-2" d="M105.72,50.67c-.09.59-.43,1.17,0,1.76.09.14.1.26,0,.36a.23.23,0,0,1-.32,0c-.53-.48-1.06-1-1.57-1.47-.18-.18,0-.3.18-.31a6.84,6.84,0,0,0,1.75-.6Z"/><path class="cls-2" d="M114.23,43.53c.78,0,.8.09.55.82a1.15,1.15,0,0,0-.08.41c0,.55-.27.64-.77.54s-.86-.36-.47-.93C113.68,44.06,113.51,43.38,114.23,43.53Z"/><path class="cls-2" d="M94.62,52.29l.06-.2a1,1,0,0,0,0-1c-.08-.19-.28-.4,0-.58.44.16.88.3,1.31.47s.58.5.16.84a3.8,3.8,0,0,1-1.56,1Z"/><path class="cls-2" d="M86.13,43.52c.8-.05.75.65.84,1.09s-.53.74-.81.71c-.83-.09-.29-1-.71-1.46-.15-.17.25-.3.47-.34A.74.74,0,0,1,86.13,43.52Z"/><path class="cls-1" d="M94.76,50.49c-.31.18-.11.39,0,.58a1,1,0,0,1,0,1,1.74,1.74,0,0,0-.8-1.81c-.1-.05-.26-.16-.12-.32s.25-.07.36,0S94.55,50.32,94.76,50.49Z"/><path class="cls-1" d="M105.72,50.67l0-.25a3.53,3.53,0,0,1,1.09-.69C106.5,50.31,106.21,50.6,105.72,50.67Z"/><path class="cls-1" d="M94.62,52.29l0,.49C94.38,52.65,94.49,52.47,94.62,52.29Z"/><path class="cls-2" d="M66.47,35.28s.11.11.1.13-.13,0-.2,0Z"/><path class="cls-3" d="M137.6,92.35c.05,0,.05.08,0,.1s0,0-.06,0l.09-.07Z"/></svg>