<svg id="Layer_1" data-name="Layer 1" xmlns="http://www.w3.org/2000/svg" viewBox="0 0 200 113"><defs><style>.cls-1{fill:#1d3c6e;}</style></defs><path class="cls-1" d="M15.73,72.31h-.31c-.28,0-.6,0-.92,0a7.51,7.51,0,0,1-.87-.09L13,72.06,12.74,72l-.16,0a6.14,6.14,0,0,1-.94-.23l-.17,0c-.26-.08-.49-.14-.72-.23l-.5-.19-.51-.2a8.84,8.84,0,0,1-.83-.38l-.29-.13-.46-.26L8,70.2l-.15-.08-.41-.26c-.31-.21-.62-.42-.92-.65l-.06,0A4.59,4.59,0,0,1,6,68.81l-.34-.28-.12-.11-.07-.06-.1-.09a9.78,9.78,0,0,1-1.12-1.11l-.07-.08c-.28-.3-.51-.58-.73-.85s-.33-.47-.49-.7l-.1-.15c-.12-.17-.25-.36-.37-.55l0-.09c-.19-.31-.38-.63-.56-.95l-.32-.68c-.05-.11-.09-.21-.14-.31l-.09-.13c-.05-.1-.09-.2-.13-.3a.91.91,0,0,1-.08-.2L1,61.84c-.08-.24-.16-.47-.23-.71l0-.1c-.1-.33-.2-.66-.27-1a11.07,11.07,0,0,1-.24-1.4,3.56,3.56,0,0,0-.06-.44l-.06-.41c0-.26,0-.52,0-.83V55.79c0-.17,0-.33,0-.49v-.19l.09-.83a1.65,1.65,0,0,1,0-.31l0-.18.18-.93c0-.18.1-.37.15-.54l0-.11c.09-.31.18-.62.28-.94,0,0,0-.08.06-.13l0-.07.08-.2c0-.12.09-.24.14-.36l.16-.37.11-.23c.06-.15.13-.31.2-.46L1.93,49v0l.33-.57v0l.42-.69c.13-.22.36-.52.54-.76s.52-.65.81-1,.41-.45.63-.66l.15-.15.67-.62c.24-.21.53-.41.8-.63l.32-.24.28-.21c.09-.06.19-.14.3-.2l.23-.1.5-.32a2.69,2.69,0,0,1,.29-.16l.18-.09.32-.17.13-.06L9.74,42a9.66,9.66,0,0,1,1.39-.52c.52-.16.94-.28,1.33-.37a11.1,11.1,0,0,1,1.4-.25l.27,0,.76-.09h1.24a10.48,10.48,0,0,1,1.12,0c.37,0,.72.06,1.09.12h.05c.29,0,.67.1,1,.18s.68.17,1,.26l.9.3.37.14.29.11.41.16.69.33.39.21.31.17a9.47,9.47,0,0,1,1.14.71,16.32,16.32,0,0,1,1.32,1l.05,0a11.85,11.85,0,0,1,1,1l.25.27a6.14,6.14,0,0,1,.42.47c.24.29.5.59.73.91s.61.88.86,1.3.36.64.52,1l.1.2c.18.36.33.72.51,1.15s.22.6.31.89l.07.2c.09.3.19.61.26.93s.12.53.17.79l.05.28a13.2,13.2,0,0,1,.18,1.54,15.26,15.26,0,0,1,0,1.66c0,.47,0,1-.11,1.58,0,.24-.07.49-.12.73s-.13.64-.21.95l0,.15a10.19,10.19,0,0,1-.34,1.11c-.07.16-.13.33-.19.5s-.1.29-.16.43-.21.5-.35.8a12.67,12.67,0,0,1-.83,1.54l-.08.14-.19.28-.17.24c-.22.31-.44.63-.68.93s-.41.46-.6.68l-.2.17c-.15.17-.31.34-.46.49-.38.37-.78.72-1.18,1s-.68.52-1,.76l-.13.09a7.49,7.49,0,0,1-1,.59l-.3.17L23,70.6l-.32.15a5.87,5.87,0,0,1-.81.36l-.41.16a2.3,2.3,0,0,1-.42.16c-.25.09-.5.17-.79.25l-.12,0c-.26.08-.53.15-.79.21l-.69.13-.42.07c-.43.07-.86.12-1.3.15h0c-.24,0-.48,0-.75,0h-.42Zm0-31.45h-.78a6.53,6.53,0,0,0-.76.08l-.27,0a12.84,12.84,0,0,0-1.35.26c-.39.1-.83.22-1.33.37a11.14,11.14,0,0,0-1.36.51l-.9.42-.14.06-.32.17-.18.1A2.49,2.49,0,0,0,8,43l-.5.31-.14.1a2.61,2.61,0,0,0-.3.2l-.26.19-.33.25-.78.63a7.93,7.93,0,0,0-.66.61l-.15.15c-.21.2-.42.41-.63.65s-.55.65-.8,1-.36.48-.54.75-.29.45-.42.68l0,0c-.11.19-.21.38-.32.56v0c-.07.13-.15.26-.22.41l-.2.46-.15.22-.16.36-.12.35-.08.21,0,.08a.54.54,0,0,0-.05.11c-.09.31-.19.62-.28.94l0,.1c0,.17-.1.35-.14.53s-.15.64-.22.93l0,.18a2.54,2.54,0,0,0,0,.29l-.09.83v.19c0,.16,0,.32,0,.48V57a5.1,5.1,0,0,0,0,.8,2.7,2.7,0,0,0,.06.41c0,.14,0,.3.06.46A12.63,12.63,0,0,0,.68,60c.07.33.17.67.27,1l0,.1c.07.23.15.46.23.7l.11.3a1.07,1.07,0,0,0,.07.19c0,.1.09.19.13.29l.08.17.14.31c.1.23.2.45.32.67s.36.64.55.95l0,.07c.11.19.24.37.36.55l.1.14c.16.23.33.47.5.69s.45.54.72.83L4.4,67a11.12,11.12,0,0,0,1.07,1.1l.1.09.07.06.12.1.33.29.48.35,0,0,.93.64a4.06,4.06,0,0,0,.41.25l.15.08.17.11c.14.08.29.17.44.24l.29.15a7.43,7.43,0,0,0,.81.37l.52.2.49.19c.17.07.45.15.7.23l.18,0a6.71,6.71,0,0,0,.91.22l.17,0,.28.06.6.11c.27,0,.55.07.85.09l.92,0h.72c.27,0,.5,0,.73,0h0a11.3,11.3,0,0,0,1.29-.14l.41-.08.68-.12c.22,0,.52-.13.78-.21l.12,0,.78-.24.42-.16.44-.16a5.51,5.51,0,0,0,.78-.36l.29-.15a3.59,3.59,0,0,0,.38-.21l.31-.17a8.64,8.64,0,0,0,1-.59l.13-.08c.35-.24.69-.49,1-.76s.78-.66,1.16-1c.15-.15.31-.31.46-.48l.17-.19a7.44,7.44,0,0,0,.59-.67c.23-.3.45-.61.67-.92l.17-.23c.07-.09.12-.19.18-.28l.09-.13c.3-.5.58-1,.83-1.53.13-.29.24-.53.34-.79s.11-.28.16-.41.12-.34.19-.51a9.65,9.65,0,0,0,.33-1.08l0-.15c.08-.3.14-.61.2-.94s.08-.48.12-.72c.06-.52.09-1.06.11-1.56s0-1,0-1.62a11.08,11.08,0,0,0-.19-1.52l-.05-.28c-.05-.26-.1-.53-.16-.79s-.17-.62-.26-.91l-.07-.22c-.1-.28-.19-.58-.31-.87S30.17,50,30,49.65l-.1-.2c-.16-.31-.33-.64-.51-.94s-.53-.83-.85-1.3a8.94,8.94,0,0,0-.71-.89c-.14-.16-.28-.31-.41-.47l-.26-.27a13,13,0,0,0-1-1l-.05,0a16.32,16.32,0,0,0-1.32-1,11.44,11.44,0,0,0-1.11-.69l-.32-.18L23,42.5c-.22-.11-.42-.21-.68-.32L21.85,42l-.27-.11-.36-.13c-.29-.1-.59-.21-.89-.3s-.62-.18-.95-.26-.75-.14-1-.18h-.05c-.36-.06-.71-.11-1.07-.14l-1.11,0h-.42m9.45,27.87h0l-.21.1a2.5,2.5,0,0,1-.74.3c-.25.06-.5.09-.75.14a.49.49,0,0,1-.17,0,3,3,0,0,0-.73-.06l-.25,0c-.25-.07-.51-.15-.76-.2a3.43,3.43,0,0,1-.78-.27,4.43,4.43,0,0,0-.45-.2,3.39,3.39,0,0,1-.53-.2A6.26,6.26,0,0,0,19,68l-.2,0-.52-.09-.25,0a4.37,4.37,0,0,0-1.25.09c-.23.06-.46.1-.69.15a.43.43,0,0,1-.25,0,.33.33,0,0,0-.13,0l-.45-.08-.49,0-.22,0a1,1,0,0,0-.24,0,4.78,4.78,0,0,1-.75.08h-.06L13,68a2.13,2.13,0,0,0-.45.13.72.72,0,0,1-.35.11h-.08l-.59.27-.48.24a2.57,2.57,0,0,1-.52.21c-.3.07-.59.2-.9.25-.14,0-.27.07-.42.08H8.51a.81.81,0,0,1-.31,0A4.22,4.22,0,0,1,7.41,69a3.23,3.23,0,0,0-.42-.2.63.63,0,0,0-.27-.06c0,.08,0,.12.06.17a2.91,2.91,0,0,0,.63.53,4.33,4.33,0,0,1,.41.3,1.43,1.43,0,0,0,.49.21.49.49,0,0,1,.17.06,1.34,1.34,0,0,0,.65.17.32.32,0,0,1,.14,0,1.15,1.15,0,0,0,.55.07H10a.6.6,0,0,0,.23,0,2.43,2.43,0,0,1,.47-.08,4,4,0,0,0,.47-.11,1.23,1.23,0,0,0,.26-.12,2.39,2.39,0,0,0,.37-.15,5,5,0,0,0,.65-.41c.21-.16.37-.26.55-.39s.3-.25.46-.36a2.79,2.79,0,0,1,.34-.18l.28-.13a2.09,2.09,0,0,1,.35-.13,5.42,5.42,0,0,1,.57,0l.1,0-.11.09-.58.36-.09,0a2.89,2.89,0,0,0-.7.42l-.55.39a1.63,1.63,0,0,0-.29.23,7.57,7.57,0,0,1-.74.76.19.19,0,0,0-.07.06.15.15,0,0,0,0,.21h0l.11.08.2.16.19.16c.09.05.11.05.18,0a1.46,1.46,0,0,1,.16-.21,1.63,1.63,0,0,0,.27-.31,1.14,1.14,0,0,1,.15-.17c.19-.2.38-.41.57-.59l.12-.1a3.39,3.39,0,0,0,.42-.33,3.6,3.6,0,0,1,.83-.57l.46-.26.17-.08a.15.15,0,0,1,.13,0,2,2,0,0,1,.37.17c.32.21.64.41,1,.65a2.94,2.94,0,0,1,.41.31,3.63,3.63,0,0,1,.63.67l.09.08.3.29c.12.13.24.27.38.41s.19.11.32,0,.22-.19.33-.29.1-.16,0-.24a3.13,3.13,0,0,0-.64-.62,3.5,3.5,0,0,1-.3-.24c-.1-.07-.2-.17-.29-.24l-.35-.25L18,69.14l-.58-.34L17,68.55c-.14-.08-.15-.1-.23-.15.07-.09.07-.1.16-.1h.41a.27.27,0,0,1,.12,0l.21,0a.48.48,0,0,1,.18,0l.29.19.51.34.09.08a1.66,1.66,0,0,0,.21.16,1.19,1.19,0,0,1,.33.22.52.52,0,0,0,.19.11,4.73,4.73,0,0,1,.74.39.61.61,0,0,0,.14.07,3.38,3.38,0,0,1,.34.11,4,4,0,0,0,.83.21h.7a.2.2,0,0,0,.11,0l.71-.14a2.58,2.58,0,0,0,.83-.33l.62-.37A2,2,0,0,0,25,69a1.58,1.58,0,0,0,.12-.15.09.09,0,0,0,0-.13h0m1.6-7.89h0a1,1,0,0,0-.3.29l-.44.53a.71.71,0,0,0-.12.18,3.39,3.39,0,0,0-.31.7.88.88,0,0,1-.05.15l-.31.66c-.06.14-.11.27-.16.42l-.24.66c-.08.22-.14.34-.21.51a2,2,0,0,1-.1.26l-.31.69a1.63,1.63,0,0,1-.24.38l-.62.71s0,.08,0,.1l.1.06h0l.56-.1.3-.07a2.79,2.79,0,0,0,.48-.09l.62-.19.5-.14a4.12,4.12,0,0,0,.83-.3,3.67,3.67,0,0,1,.52-.27,4.33,4.33,0,0,0,.7-.39,4.83,4.83,0,0,0,1.25-1.22,6.44,6.44,0,0,0,.59-1l.17-.32a1.26,1.26,0,0,0,.14-.44.18.18,0,0,0-.08-.18,1,1,0,0,0-.16.19,2.15,2.15,0,0,1-.4.45,6.22,6.22,0,0,1-.73.63c-.24.18-.49.33-.73.49l-.07,0-.68.33c-.22.11-.41.25-.63.36a5.09,5.09,0,0,0-.71.42,3.75,3.75,0,0,1-.36.24.88.88,0,0,0-.24.19.45.45,0,0,1-.25.18c.19-.26.37-.5.54-.75a1.61,1.61,0,0,0,.27-.48c0-.09.07-.18.11-.27s.07-.23.11-.34a4.32,4.32,0,0,1,.13-.47,1.06,1.06,0,0,0,.09-.35,3.58,3.58,0,0,1,.11-.79c.05-.22.09-.45.14-.68s.06-.27.1-.42.09-.25.13-.37a.17.17,0,0,0,0-.19m1.11,1.72h0a.69.69,0,0,1,.05-.13,1.07,1.07,0,0,0,.14-.47,5,5,0,0,1,.08-.66c0-.15,0-.31.05-.46s0-.42-.06-.63c0-.38-.14-.74-.16-1.12s-.06-.67,0-1a.88.88,0,0,0,0-.23l-.05-.1h0v0l-.12.25a3.61,3.61,0,0,0-.28.86c-.05.22-.12.44-.15.66s-.07.6-.1.9-.05.63-.1.94-.11.67-.17,1-.18.8-.26,1.21a1.33,1.33,0,0,1-.05.19l-.27.65a.2.2,0,0,0,0,.11s.08,0,.12,0a1.75,1.75,0,0,0,.27-.16,11.26,11.26,0,0,1,1.15-.8l.48-.33a2.37,2.37,0,0,1,.3-.23,4.68,4.68,0,0,0,.87-.73l.46-.46a1.93,1.93,0,0,0,.28-.36c.12-.22.24-.42.37-.62A3,3,0,0,0,31,60a5.89,5.89,0,0,0,.2-1.78.11.11,0,0,0-.1-.13.31.31,0,0,1-.05.12,3.58,3.58,0,0,1-.11.35c-.14.3-.29.59-.44.88a.83.83,0,0,1-.21.28,4.4,4.4,0,0,0-.35.39,3.7,3.7,0,0,1-.28.28l-.25.23-.24.29a5,5,0,0,0-.49.54,1.07,1.07,0,0,1-.14.16,1.17,1.17,0,0,0-.28.35l-.2.36a.71.71,0,0,1-.21.27m-26-.2h0s0,.06,0,.07,0,.26.08.39a4.66,4.66,0,0,0,.26.61,9.9,9.9,0,0,0,.57,1,5,5,0,0,0,1.11,1.14c.23.17.46.34.69.49a.94.94,0,0,0,.22.12c.22.09.42.17.65.24l.39.13a2,2,0,0,1,.59.17l.12,0,.58.14.32.09,1,.15a.33.33,0,0,0,.14,0L8.45,67A1.76,1.76,0,0,1,8,66.52L8,66.42a1.84,1.84,0,0,1-.42-.73,1.33,1.33,0,0,0-.13-.33,2.87,2.87,0,0,1-.22-.62,4.54,4.54,0,0,0-.26-.7l-.18-.41a3.47,3.47,0,0,0-.36-.78c-.06-.1-.12-.2-.17-.3s-.13-.31-.21-.45a3.54,3.54,0,0,0-.83-1.05.11.11,0,0,1-.07,0,.21.21,0,0,0,0,.11l.09.26a2,2,0,0,1,.13.41,9,9,0,0,0,.23,1,4.29,4.29,0,0,1,.14.62c0,.3.12.6.2.9a2.58,2.58,0,0,0,.08.26c.08.2.16.42.24.61a.6.6,0,0,0,.09.15c.17.2.34.41.52.6l.22.21,0,.07H7A.56.56,0,0,1,6.75,66,6.1,6.1,0,0,0,6,65.43H6a4.08,4.08,0,0,1-.58-.32l-.56-.3c-.35-.18-.7-.36-1-.56s-.53-.32-.79-.49a3.79,3.79,0,0,1-.38-.32A1.77,1.77,0,0,1,2.28,63c-.11-.18-.23-.35-.35-.52a.3.3,0,0,1-.05-.07M29.37,58.8h0v-.34a2.41,2.41,0,0,0,0-.71c0-.13,0-.28-.07-.42s-.13-.36-.2-.54a6.14,6.14,0,0,0-.48-1l-.18-.32c-.06-.11-.07-.18-.12-.27a3.5,3.5,0,0,1-.41-1,.26.26,0,0,0-.05-.09.14.14,0,0,0-.1-.05c-.05,0,0,.06-.05.1a6.46,6.46,0,0,0,0,.88c0,.17,0,.34,0,.49s.11.51.17.77,0,.26.08.39.09.35.13.53.07.31.1.46.09.42.14.63.06.31.1.47.08.36.13.54a2.06,2.06,0,0,1,.07.66,1.94,1.94,0,0,1,0,.68.38.38,0,0,0,0,.15.14.14,0,0,0,.05.08.08.08,0,0,0,.09,0,1.87,1.87,0,0,0,.29-.34,8.72,8.72,0,0,1,.61-.85.52.52,0,0,0,.1-.11,3.91,3.91,0,0,1,.44-.65,3.5,3.5,0,0,0,.37-.62,7,7,0,0,0,.51-1.2c0-.07.07-.14.09-.22.07-.3.13-.61.2-.91V56a4.88,4.88,0,0,0,0-1.08v-.06a1.77,1.77,0,0,0-.05-.32.63.63,0,0,1,0-.19,1.3,1.3,0,0,0-.1-.52c0-.12-.06-.25-.1-.37s0-.14-.11-.13-.06.09-.07.15c0,.29,0,.59,0,.88v.18c-.06.23-.13.45-.18.69a2.55,2.55,0,0,1-.25.59,2.53,2.53,0,0,0-.18.37c-.13.3-.24.61-.37.92a6.14,6.14,0,0,0-.32,1c0,.2-.07.41-.11.61m-4.94,5.51H24.4a2.27,2.27,0,0,0-.46.3l-.46.44-.19.19a1,1,0,0,1-.14.15,3.62,3.62,0,0,0-.7.71.54.54,0,0,1-.15.15l-.53.42c-.11.09-.21.2-.32.28a3.52,3.52,0,0,1-.74.46,3,3,0,0,1-.71.3,1,1,0,0,0-.23,0l-.19,0c-.06,0-.07.08,0,.12l.18,0,.62.12,0,0,.25.08c.18,0,.37.06.54.11l.62.18a3.79,3.79,0,0,0,.83.14l.2,0,.24,0h.44a1,1,0,0,0,.5,0,.11.11,0,0,1,.08,0,2,2,0,0,0,.54-.07,3,3,0,0,0,.72-.23l.16-.05a.85.85,0,0,0,.22-.09c.2-.13.38-.28.58-.41a2.31,2.31,0,0,0,.54-.44,3.54,3.54,0,0,0,.35-.42l.06-.06a1.35,1.35,0,0,0,.34-.51.1.1,0,0,0,0-.14l-.19.17a2.15,2.15,0,0,1-.83.5,3.93,3.93,0,0,1-.94.29c-.29,0-.57.09-.83.13h0l-.83.09a4,4,0,0,0-.48.07,2.24,2.24,0,0,1-.34,0,.89.89,0,0,0-.39.06l-.14,0-.42,0s-.09,0-.13,0,.12-.1.19-.13A4.79,4.79,0,0,0,23,67l.27-.28a1.28,1.28,0,0,0,.17-.22c.13-.22.25-.44.37-.67a3.46,3.46,0,0,1,.27-.5l0-.07a1.52,1.52,0,0,1,.26-.56.94.94,0,0,0,.12-.22.22.22,0,0,0,0-.22M4.35,63.12h0l0,0a.47.47,0,0,1-.1-.1L4,62.64a1.47,1.47,0,0,1-.14-.28.31.31,0,0,0-.14-.18.28.28,0,0,1-.1-.09,1.81,1.81,0,0,0-.32-.46.35.35,0,0,1,0-.08l-.12-.15-.52-.54a3.06,3.06,0,0,0-.3-.32A2.77,2.77,0,0,1,1.74,60l-.06-.06-.32-.36a.82.82,0,0,1-.16-.25c-.13-.32-.24-.64-.36-1l-.09-.19h0l0,.16v.9l0,.16c0,.07.05.14.06.21a3.79,3.79,0,0,0,.18.66l.07.14c.1.25.2.5.31.74a2.4,2.4,0,0,0,.16.27,2.46,2.46,0,0,0,.56.64l.13.15.39.41.23.2a1,1,0,0,0,.36.27l.1.07a3.43,3.43,0,0,0,.41.32,2.46,2.46,0,0,1,.27.17l.22.14.12.05.68.45.44.29.17.07a1.17,1.17,0,0,0-.06-.2,1.71,1.71,0,0,0-.14-.27,1.79,1.79,0,0,1-.24-.63,1.63,1.63,0,0,0-.07-.3c0-.07,0-.13-.06-.2-.06-.42-.13-.83-.19-1.25,0-.23,0-.46,0-.7a1.46,1.46,0,0,0,0-.36,1.85,1.85,0,0,0,0-.27c0-.09,0-.06,0-.09a4.33,4.33,0,0,0-.08-.5c-.05-.27-.1-.53-.16-.79s-.09-.36-.14-.53l-.19-.62s0,0,0-.06l0,0a.88.88,0,0,0,0,.16v.41a1.27,1.27,0,0,1,0,.28,3.6,3.6,0,0,1-.15.63h0c0,.32-.09.64-.14,1a1.65,1.65,0,0,1,0,.31,1.66,1.66,0,0,0,0,.8.55.55,0,0,1,0,.17,1.64,1.64,0,0,0,.16.66c0,.09.06.2.1.29a.87.87,0,0,0,.07.17l.2.29c.06.09,0,.08,0,.11m7.89,4.68h0l-.12,0-.22,0-1-.42a1.77,1.77,0,0,1-.33-.19l-.31-.27-.51-.45L9.26,66l-.71-.71c-.23-.23-.44-.41-.66-.61l-.42-.34a.14.14,0,0,0-.16,0,.61.61,0,0,0,.05.12,2.12,2.12,0,0,1,.12.2c.12.25.22.49.34.74l0,.06a3.72,3.72,0,0,1,.36.65,2.28,2.28,0,0,0,.23.47,3,3,0,0,0,.7.68c.16.1.32.2.49.29s.1.05.09.13H9.6l-.26,0-.59-.1a.66.66,0,0,1-.27-.06h-.6a5.06,5.06,0,0,1-.55,0l-.48-.07a2.32,2.32,0,0,1-.38,0c-.27,0-.52-.12-.78-.19L5.42,67c-.15-.08-.3-.16-.44-.25a2.61,2.61,0,0,1-.63-.51.17.17,0,0,0-.15-.06,1.4,1.4,0,0,0,.15.3,3.83,3.83,0,0,0,.28.42c.16.18.33.35.51.52a3.07,3.07,0,0,0,.35.28q.33.23.66.42l.16.08.49.2A.5.5,0,0,0,7,68.5a.64.64,0,0,1,.2,0,2.58,2.58,0,0,0,1,.17c.29,0,.58,0,.87,0a1.25,1.25,0,0,0,.42-.08l.35-.08.44-.07.15-.08a1,1,0,0,1,.41-.14.09.09,0,0,0,.07,0,3.24,3.24,0,0,1,.53-.16L12,68a.26.26,0,0,0,.23-.18M29.41,54.26h0a.61.61,0,0,1-.07-.1,1.42,1.42,0,0,1-.1-.29,1.37,1.37,0,0,0-.32-.56c-.11-.14-.25-.27-.35-.41a2.61,2.61,0,0,0-.52-.58l-.25-.22a2.88,2.88,0,0,1-.33-.35,2.09,2.09,0,0,1-.41-.52,1.74,1.74,0,0,0-.11-.18S26.86,51,26.8,51s0,.09,0,.14h0c0,.14,0,.28.09.42s.06.16.08.23A.84.84,0,0,1,27,52c0,.14.07.28.11.41a2.89,2.89,0,0,0,.32.6.2.2,0,0,1,0,.08,4.79,4.79,0,0,0,.62,1,2.37,2.37,0,0,1,.23.3A10.59,10.59,0,0,1,29,55.55a3.64,3.64,0,0,1,.42,1.11v0l.06.06s.05,0,.06-.06l.11-.35a1,1,0,0,0,.07-.21,4.29,4.29,0,0,1,.2-.7,5.37,5.37,0,0,1,.21-.56,2.73,2.73,0,0,0,.29-.93v0a3.51,3.51,0,0,0,.17-1.16,6,6,0,0,0,0-.85c0-.19-.05-.38-.1-.56a3.61,3.61,0,0,0-.19-.64c-.13-.34-.3-.66-.44-1a1.35,1.35,0,0,0-.35-.47.13.13,0,0,0-.15,0,.57.57,0,0,0,0,.14,1,1,0,0,1,.12.42.24.24,0,0,0,0,.14,1.22,1.22,0,0,1,0,.26c0,.54,0,1.07,0,1.6,0,.24-.05.48-.07.73s0,.57,0,.86v.92M3.31,61.07h0a.42.42,0,0,0,0-.27c0-.13,0-.26,0-.39a2.26,2.26,0,0,1,0-.58,7.53,7.53,0,0,0,.09-.8V59c0-.14.09-.28.13-.42a.14.14,0,0,0,0-.09c0-.13.06-.27.1-.41s.13-.34.19-.5A2.75,2.75,0,0,0,3.93,57c0-.18.07-.44.13-.66a6.63,6.63,0,0,0,.11-.76c0-.22,0-.42,0-.65s0-.28,0-.41a.47.47,0,0,0,0-.31c-.1,0-.12.07-.15.14a5,5,0,0,1-.36.9l-.52,1c0,.07-.07.16-.11.23a3,3,0,0,0-.32.65,5.49,5.49,0,0,0-.17.7c0,.23,0,.47,0,.71v.15H2.57a.36.36,0,0,1,0-.09,4.07,4.07,0,0,0-.22-.83l-.13-.33a3.62,3.62,0,0,0-.3-.77,8.76,8.76,0,0,1-.49-1.13,5,5,0,0,1-.2-.66,3.63,3.63,0,0,1-.11-1.27.14.14,0,0,0,0-.17L1,53.61s0,.08,0,.13a2.9,2.9,0,0,0-.2.87.32.32,0,0,1,0,.14.54.54,0,0,0,0,.22v1a.46.46,0,0,0,.06.23.5.5,0,0,1,0,.13c0,.19.06.39.08.59a4.31,4.31,0,0,0,.24.87c.06.19.15.37.22.55a1.72,1.72,0,0,0,.29.49c.15.2.31.39.46.58s.25.35.37.52l.42.53c.14.17.25.32.38.49l.1.13M2.59,49.2h0a.08.08,0,0,0-.11,0,2,2,0,0,0-.17.23c-.13.21-.23.42-.36.63a1.56,1.56,0,0,0-.29.61v0c-.1.31-.21.62-.28.94a2.89,2.89,0,0,0-.08.83v.25a5.27,5.27,0,0,0,.11.9l0,.1.15.61a1,1,0,0,0,0,.16c.06.15.13.29.19.44s.19.59.3.88a3.11,3.11,0,0,1,.19.8.86.86,0,0,0,.05.27.1.1,0,0,0,.07.08c.05,0,.05,0,.06-.09v-.12l.09-.48a1,1,0,0,1,.07-.15c0-.11.09-.23.14-.34S3,55.55,3,55.4a3.44,3.44,0,0,1,.35-.58,4.21,4.21,0,0,0,.28-.41,2.84,2.84,0,0,1,.2-.33,4.56,4.56,0,0,0,.38-.59,2.1,2.1,0,0,1,.15-.3l.38-.7v0c0-.15.07-.29.1-.42a.3.3,0,0,1,0-.13l.18-.65v-.09H5a.86.86,0,0,1-.07.1,5.32,5.32,0,0,1-.55.61c-.3.27-.56.58-.83.87l-.12.13a1.58,1.58,0,0,0-.38.48L3,53.48a1.64,1.64,0,0,0-.32.54,2.8,2.8,0,0,1-.13.41.3.3,0,0,1,0,.08c-.06-.09-.06-.09-.06-.17s0-.22,0-.33v-.86a4.4,4.4,0,0,0-.05-.51c0-.17,0-.24,0-.36a7.17,7.17,0,0,1-.09-2.22,4.48,4.48,0,0,1,.2-.62.63.63,0,0,0,.09-.25m22.9-1.09h0v.06a.78.78,0,0,0,.06.4,1.18,1.18,0,0,1,.12.33.48.48,0,0,0,.07.21,1.5,1.5,0,0,1,.15.42.54.54,0,0,0,.05.11l.41.54a1.29,1.29,0,0,0,.17.16l.13.11a5.25,5.25,0,0,0,.71.63l.19.15c.17.16.34.34.53.49a2.47,2.47,0,0,1,.49.53c.09.14.2.28.29.41s.09.18.14.26.06.09.12.08.08-.06.09-.12v-.16a3.35,3.35,0,0,1-.05-.63c0-.52,0-1,0-1.53a4.35,4.35,0,0,0,0-1.08,2.62,2.62,0,0,0-.29-.91,2,2,0,0,1-.16-.28,3.3,3.3,0,0,0-.42-.61l-.16-.16-.45-.33A1.09,1.09,0,0,0,27.2,47c-.1,0-.12,0-.17.07l0,.05a2.08,2.08,0,0,1,.58.79,3.16,3.16,0,0,1,.22.5c.07.25.11.5.16.75v.18a5.4,5.4,0,0,1,.11.58,4.27,4.27,0,0,0,.25.79,1.09,1.09,0,0,1,.07.3l-.08-.08a2.74,2.74,0,0,0-.63-.73l0,0-.49-.47a3.61,3.61,0,0,0-.72-.51.86.86,0,0,1-.33-.27c-.05-.07-.12-.13-.17-.19a2.11,2.11,0,0,1-.17-.22l-.18-.27a.17.17,0,0,0-.17-.09m-19.13.05h0l0,0-.14.17-.26.33a2.22,2.22,0,0,0-.19.27.76.76,0,0,1-.19.21,1.5,1.5,0,0,0-.25.19c-.1.08-.19.19-.29.26a4.68,4.68,0,0,0-.64.52c-.17.18-.35.34-.53.5a1.21,1.21,0,0,0-.34.47.1.1,0,0,1-.11.1.34.34,0,0,1,0-.2,3,3,0,0,0,.21-.64c0-.18.09-.35.12-.52a2.74,2.74,0,0,1,0-.28c0-.2.07-.39.11-.58l0-.08A1.31,1.31,0,0,0,4,48.59a.6.6,0,0,1,.12-.41l0,0a2.06,2.06,0,0,1,.57-.83l.11-.11a.09.09,0,0,0-.13-.07l-.23.1a3.2,3.2,0,0,0-.71.49.81.81,0,0,1-.1.09,1.29,1.29,0,0,0-.16.17,3.55,3.55,0,0,0-.45.75A1.71,1.71,0,0,0,2.9,49a2.07,2.07,0,0,0-.08.42c0,.3-.06.59-.09.9,0,.08,0,.16,0,.25a1.93,1.93,0,0,0,0,.34c0,.22,0,.42,0,.65s0,.51,0,.77v.56a.23.23,0,0,0,.07.17,1.34,1.34,0,0,0,.11-.14,3.1,3.1,0,0,1,.47-.56l.08-.09c.2-.2.39-.42.59-.61l.54-.53a2.26,2.26,0,0,1,.29-.25,2.67,2.67,0,0,0,.47-.42l.53-.69A1,1,0,0,0,6,49.52a1.85,1.85,0,0,1,.13-.29,1.27,1.27,0,0,0,.18-.57,3.39,3.39,0,0,1,.06-.41v-.1M24,45.47h0l.36.42a1.85,1.85,0,0,1,.41.47c.08.13.2.23.28.35s.38.53.56.79a3.72,3.72,0,0,0,.33.45,5.85,5.85,0,0,0,.74.83h0l.41.42.13.1a1.7,1.7,0,0,1,.39.27.12.12,0,0,0,.1,0s0-.07.06-.1v-.08c0-.1,0-.21-.07-.31-.08-.27-.17-.54-.26-.8a2,2,0,0,0-.14-.3c-.05-.12-.12-.22-.17-.34a2,2,0,0,0-.29-.42c-.05,0-.1-.12-.15-.18a3.46,3.46,0,0,0-.93-.9,4.83,4.83,0,0,0-1.05-.62c-.13,0-.26-.1-.39-.13a.24.24,0,0,0-.3.07M4.23,49.68h0a1.51,1.51,0,0,0,.32-.22l.32-.31L5.06,49l.41-.37a1,1,0,0,0,.21-.19l.45-.59a3.27,3.27,0,0,0,.29-.44,1.51,1.51,0,0,0,.1-.17l.42-.56a4,4,0,0,1,.24-.33l.55-.62a.53.53,0,0,0,.06-.1H7.67l-.34.1a4,4,0,0,0-.54.21l-.51.25a2.9,2.9,0,0,0-.33.2l-.41.38-.29.3a.9.9,0,0,0-.15.18c-.09.11-.16.24-.24.35a2.34,2.34,0,0,0-.36.88l-.06.22a3,3,0,0,0-.21.72v.3m8.84-4.87h0l0,0h.06M15.9,64.42h-.39a8.33,8.33,0,0,1-1-.11A7.46,7.46,0,0,1,13,63.9l-.83-.37A6.84,6.84,0,0,1,11,62.82a5.42,5.42,0,0,1-.8-.71L10,61.85l-.33-.37c-.1-.13-.23-.3-.33-.45l-.09-.2c-.09-.13-.17-.25-.24-.37a2.07,2.07,0,0,1-.19-.32,7.1,7.1,0,0,1-.42-.88L8.28,59a4.72,4.72,0,0,1-.18-.53,7.68,7.68,0,0,1-.19-.83v-.07a5.24,5.24,0,0,1-.08-.53,3.44,3.44,0,0,0,0-.56v-.32h0l0-.83c0-.28.07-.57.12-.85v-.13a7.27,7.27,0,0,1,.22-.8,1.6,1.6,0,0,0,.1-.31A8,8,0,0,1,9,51.81v0l.13-.2.06-.07c.16-.24.36-.51.57-.77a7.46,7.46,0,0,1,.78-.81l.05,0a4.74,4.74,0,0,1,1-.75,1.37,1.37,0,0,0,.2-.13l.18-.12.38-.19.12-.06.28-.13a7.69,7.69,0,0,1,1.05-.37,8.09,8.09,0,0,1,1.09-.22c.17,0,.35,0,.53-.05h.2a4.12,4.12,0,0,1,.86,0l1,.14a4.57,4.57,0,0,1,1.1.29A9.85,9.85,0,0,1,20,49a6.58,6.58,0,0,1,.61.42l.16.12.36.28a1.37,1.37,0,0,1,.17.17s0,0,.07.07v0a4.45,4.45,0,0,1,.48.49l.18.21a4.18,4.18,0,0,1,.53.72c.2.33.37.64.53.94a8.21,8.21,0,0,1,.63,1.5,9.84,9.84,0,0,1,.23,1.3,7.76,7.76,0,0,1,0,1.18,7.36,7.36,0,0,1-.14,1.24A7.91,7.91,0,0,1,23.51,59a7.39,7.39,0,0,1-.58,1.16,2.48,2.48,0,0,0-.18.31l-.25.41a6.41,6.41,0,0,1-1,1.16l-.09.08-.06.07a8.41,8.41,0,0,1-1.3,1,8,8,0,0,1-1.83.83c-.3.09-.61.16-.92.22a4.48,4.48,0,0,1-.64.08l-.24,0a5.07,5.07,0,0,1-.55,0m-8-8.27h0v.09a.17.17,0,0,0,0,.1v.21a5.06,5.06,0,0,0,0,.55c0,.18.05.35.08.53v.06c.06.27.12.55.19.81a4.72,4.72,0,0,0,.18.53l.09.23a5.33,5.33,0,0,0,.41.87l.18.32.24.36.1.14c.11.15.22.31.34.45s.21.24.32.36l.25.26a4.92,4.92,0,0,0,.82.69,7.33,7.33,0,0,0,1.1.7c.25.12.52.25.8.36a8.16,8.16,0,0,0,1.54.42c.32,0,.65.09,1,.11a7.06,7.06,0,0,0,.92,0,.66.66,0,0,0,.24,0,3.19,3.19,0,0,0,.62-.08,9.28,9.28,0,0,0,.91-.22A7.82,7.82,0,0,0,20,63.1a7.62,7.62,0,0,0,1.28-1l.07-.07.09-.08a6.59,6.59,0,0,0,1-1.14c.09-.13.16-.27.24-.41s.12-.21.19-.32a6.34,6.34,0,0,0,.55-1.18,6.77,6.77,0,0,0,.35-1.32,8.47,8.47,0,0,0,.15-1.22,9.16,9.16,0,0,0,0-1.17,9.26,9.26,0,0,0-.22-1.28,8.41,8.41,0,0,0-.56-1.47c-.16-.3-.33-.6-.53-.94a4.38,4.38,0,0,0-.52-.7l-.18-.19a4.25,4.25,0,0,0-.47-.48l0,0h0l-.09-.07c-.06-.06-.11-.12-.17-.17s-.24-.2-.35-.27l-.17-.13L20,49.07a9.74,9.74,0,0,0-1.46-.69,5.54,5.54,0,0,0-1.08-.29l-1-.13a3.84,3.84,0,0,0-.83,0h-.2a4.75,4.75,0,0,0-.53,0,9.66,9.66,0,0,0-1.07.22,6.29,6.29,0,0,0-1,.36,1.71,1.71,0,0,0-.27.14l-.13.06L12,49a1.78,1.78,0,0,0-.18.12l-.21.14a4.53,4.53,0,0,0-1,.73l0,0a8.4,8.4,0,0,0-.78.8c-.21.26-.41.53-.57.76l-.05.08a1.27,1.27,0,0,0-.13.19v0a7.23,7.23,0,0,0-.67,1.44l-.1.32a6.39,6.39,0,0,0-.22.78l0,.13a5.72,5.72,0,0,0-.12.83Zm8.49-14h0a.34.34,0,0,1-.09-.19,1.08,1.08,0,0,0-.07-.31.17.17,0,0,0-.17-.13h-.24a.15.15,0,0,0-.13.21.57.57,0,0,1,0,.18c0,.33,0,.66-.08,1a2.7,2.7,0,0,1-.06.41c-.05.18,0,.21.16.22s.18-.05.13-.18a.71.71,0,0,1,0-.29,2.58,2.58,0,0,1,0-.39v-.07a.16.16,0,0,1,.06.08c0,.11,0,.21.07.31s0,.12.11.12.1,0,.12-.1l.11-.26s0-.08.1-.11a2.44,2.44,0,0,1-.1.76c-.05.11,0,.16.08.18l.41,0c.15,0,.14,0,.12-.15a2.83,2.83,0,0,1,0-.29c0-.33,0-.66.07-1a.6.6,0,0,1,.09-.39.11.11,0,0,0,0-.15l-.06,0-.33,0a.16.16,0,0,0-.17.14c0,.07-.05.14-.08.22s-.05.13-.09.21m5.21,2.3h0c.1.08.1.08.05.16s-.17.26-.26.38-.1.22,0,.28a1.1,1.1,0,0,0,.28.2.1.1,0,0,0,.14,0s0,0,0,0a.82.82,0,0,1,.2-.35.51.51,0,0,0,.08-.36v-.13l.17,0a.54.54,0,0,0,.43-.44.55.55,0,0,0-.23-.56A4.94,4.94,0,0,0,22,43.2l-.11,0c-.12,0-.17,0-.2.11a.28.28,0,0,1,0,.12l-.21.3-.5.66a.92.92,0,0,1-.25.23c-.11.06-.1.17,0,.24A3.54,3.54,0,0,0,21,45a.11.11,0,0,0,.16,0,.08.08,0,0,0,0-.05.94.94,0,0,1,.12-.22l.16-.21a.81.81,0,0,1,.12-.14m-9.08-1.43h0a2,2,0,0,0,.09-.33A.58.58,0,0,0,12,42l-.18,0-.49.16a.51.51,0,0,0-.18.09c-.07.06-.07.1,0,.15a.45.45,0,0,1,.15.21l.33.9a.93.93,0,0,1,.11.49c0,.09,0,.12.13.1l.41-.13c.14,0,.09-.07.06-.15s0-.05-.05-.08-.14-.34-.2-.52,0-.09.08-.08a.1.1,0,0,1,.1.07l.15.44c.06.15.16.22.26.2l.27-.07c.09,0,.1-.09.06-.17a3,3,0,0,1-.15-.31.63.63,0,0,0-.21-.3l-.16-.09M8.24,44h0a.73.73,0,0,0-.25.08c-.18.13-.36.27-.52.41s-.08.18,0,.23a.44.44,0,0,1,.16.1l.83.94a.45.45,0,0,1,.12.21c0,.1.08.12.17,0l.48-.36a.47.47,0,0,0,.18-.36.66.66,0,0,0-.09-.39,2.49,2.49,0,0,0-.67-.74A.83.83,0,0,0,8.24,44m12.87-.91h0a.49.49,0,0,0,0-.22.52.52,0,0,0-.53-.39.73.73,0,0,0-.48.21,1.85,1.85,0,0,0-.48.89.9.9,0,0,0,0,.46.49.49,0,0,0,.38.39.62.62,0,0,0,.58-.16,1.61,1.61,0,0,0,.54-.83c0-.11,0-.23.06-.33M9.69,43h0a1,1,0,0,0-.23.06c-.2.09-.39.19-.58.29l-.07.06c-.06.09,0,.16.06.19a.37.37,0,0,1,.13.12l.36.54.36.57a.78.78,0,0,1,0,.14c0,.14.06.17.19.11l.35-.18c.1-.06.11-.16,0-.2a.55.55,0,0,1-.24-.26c-.08-.11-.08-.13,0-.22a.52.52,0,0,0,.25-.6.77.77,0,0,0-.12-.28A.69.69,0,0,0,9.68,43m13.77,1.54h0v.26a.1.1,0,0,0,.14.08.29.29,0,0,0,.14-.38.31.31,0,0,0-.09-.11l-.3-.25a.69.69,0,0,0-.13-.11.12.12,0,0,0-.21.08.45.45,0,0,1-.12.21l-.78.77a.75.75,0,0,1-.33.25c-.08,0-.1.1,0,.17l.32.29a2.09,2.09,0,0,0,.25.18.09.09,0,0,0,.12,0l.25-.15a.08.08,0,0,0,0-.11h0a.11.11,0,0,0-.12-.08l-.14,0s-.09.05-.15,0a3.14,3.14,0,0,1,.42-.48s.06,0,.12-.07a.54.54,0,0,0,0,.18.12.12,0,0,0,0,.1.08.08,0,0,0,.09,0c.09-.07.17-.16.26-.24a.11.11,0,0,0,0-.13.18.18,0,0,0-.12,0H23c0-.06,0-.1.07-.12s.23-.23.35-.34M18,42.29h0a.46.46,0,0,1-.05-.41.15.15,0,0,0-.12-.22,1.7,1.7,0,0,0-.31-.06q-.19,0-.15.18a1.09,1.09,0,0,1,.05.17,4.21,4.21,0,0,0,0,.5,1.63,1.63,0,0,1-.16,1,.1.1,0,0,0,.07.15,3.31,3.31,0,0,0,.45.07c.15,0,.15,0,.12-.13a.62.62,0,0,1,0-.38,1.58,1.58,0,0,1,.09-.42,5.21,5.21,0,0,1,.47-.83.14.14,0,0,0,0-.17l-.05,0a.19.19,0,0,0-.1,0c-.11,0-.17,0-.16.14s-.11.29-.2.42m1.3-.08h0c.08,0,.08.1.09.16a2.25,2.25,0,0,0,0,.22.18.18,0,0,0,.1.07.13.13,0,0,0,.08-.07,1.68,1.68,0,0,0,.09-.32.16.16,0,0,0-.14-.18.49.49,0,0,1-.19-.07.35.35,0,0,0-.49.11l0,0a1,1,0,0,0-.12.67c.05.23.1.46.13.68a.48.48,0,0,1,0,.17.1.1,0,0,1-.08.07s-.06,0-.06,0a2,2,0,0,0-.05-.22.27.27,0,0,0,0-.12.1.1,0,0,0-.12-.06.09.09,0,0,0-.06.06,1,1,0,0,0-.07.41c0,.06,0,.09.1.11a.3.3,0,0,1,.16,0,.39.39,0,0,0,.48,0,.55.55,0,0,0,.24-.37,2.43,2.43,0,0,0,0-.66c0-.17-.06-.34-.08-.5a.16.16,0,0,1,.05-.16M13.3,43.74h0a.49.49,0,0,1,.31-.07.29.29,0,0,0,.27-.13.57.57,0,0,0,.08-.42,1.46,1.46,0,0,0-.3-.58l-.35-.39a.34.34,0,0,1-.09-.24.19.19,0,0,1,.17.08l.1.14a.15.15,0,0,0,.2,0h0a.76.76,0,0,0-.12-.46.1.1,0,0,0-.12-.05.57.57,0,0,1-.29,0,.28.28,0,0,0-.29.19.62.62,0,0,0,0,.38,1.07,1.07,0,0,0,.25.47q.22.24.42.48a.46.46,0,0,1,.09.15v.1h-.09a.74.74,0,0,1-.13-.12l-.11-.11a.1.1,0,0,0-.14,0c-.06,0-.05.08,0,.13s.08.22.12.33l.07.09M11,44.33h0c0,.16,0,.19.16.13l.42-.18a.09.09,0,0,0,.05-.1s0,0,0,0a.28.28,0,0,0-.09-.1l-.12-.13c-.15-.36-.36-.73-.54-1.09a.29.29,0,0,1,0-.22c0-.13,0-.18-.17-.14a2.83,2.83,0,0,0-.36.16.16.16,0,0,0-.08.06c-.06.07,0,.13,0,.16a.41.41,0,0,1,.16.16.35.35,0,0,0,.05.13c.16.33.33.65.49,1l.06.2m3.25-.53h0l0,0,.13,0a.58.58,0,0,0,.15-.57.3.3,0,0,0-.16-.17.21.21,0,0,0-.24.07.19.19,0,0,0,0,.26h0a.24.24,0,0,1,.08.31.5.5,0,0,0,0,.12m7.84-.23h0c.09,0,.09.1.05.15s-.21.28-.32.41-.07,0-.11,0a.09.09,0,0,1,0-.13l.33-.45.05,0m-10-.71h0a.1.1,0,0,1-.06.07.07.07,0,0,1-.09,0,.64.64,0,0,1-.08-.14c0-.12-.09-.25-.13-.38V42.3l0-.06a.06.06,0,0,1,.06,0,.28.28,0,0,1,.1.09c.05.13.1.26.15.41s0,.08,0,.12M8.06,44.29h0a.41.41,0,0,1,.11.07c.09.09.16.18.25.26l.36.42.32.36a.16.16,0,0,1,0,.07v.09a.11.11,0,0,1-.11,0l-.11-.11-.57-.63L8,44.44a.2.2,0,0,1,0-.11l.07,0m12.69-1.5h0a.09.09,0,0,1,0,.08l-.27.52c-.13.24-.26.49-.41.73l0,.05s-.06,0-.1,0,0-.07,0-.11.15-.31.23-.46l.41-.75a1,1,0,0,1,.08-.14.11.11,0,0,1,.08,0l0,.06m-11.37.54h0a.17.17,0,0,1,.23.09c.06.09.12.17.17.26s.11.17.16.27a.23.23,0,0,1,0,.12.06.06,0,0,1-.06.05,0,0,0,0,1,0,0l0,0c-.14-.23-.29-.45-.41-.68v0m10.83,19h0a.14.14,0,0,1-.13.1,1.78,1.78,0,0,1-.61,0,.31.31,0,0,0-.19,0l-.16,0a.23.23,0,0,1-.24-.13.61.61,0,0,0-.17-.19.13.13,0,0,1,0-.07,3.76,3.76,0,0,1-.2-.73,0,0,0,0,0,0,0,1.37,1.37,0,0,1-.15-.38.5.5,0,0,0-.16-.28c-.06-.06-.1-.06-.16,0l-.11.13a3.21,3.21,0,0,1-.19.31l-.65.83a.44.44,0,0,1-.08.11.62.62,0,0,1-.18.14c-.08,0-.11.07-.07.16a1,1,0,0,0,.12.16s.11,0,.08.12-.09,0-.14,0a.6.6,0,0,1-.32-.07.3.3,0,0,1-.19-.19h0c-.17-.22-.06-.42.05-.59a2.54,2.54,0,0,1,.44-.54A.62.62,0,0,0,17,61s0,0,0-.05.15-.27.2-.41a.29.29,0,0,0-.07-.37A.27.27,0,0,1,17.1,60a7.49,7.49,0,0,1,0-1.16c0-.12-.05-.16-.16-.11l-.14.11a.25.25,0,0,1-.35,0l-.34-.22h0a1.33,1.33,0,0,0-.3-.23.2.2,0,0,1-.08-.28l0-.06a.61.61,0,0,0,.07-.35c0-.06,0-.1-.08-.12s-.14,0-.15.07a.91.91,0,0,1-.2.42.68.68,0,0,0-.07.37c0,.33,0,.65,0,1a4.68,4.68,0,0,1,0,.53,3.71,3.71,0,0,0,0,.88V61a2,2,0,0,0,.14.72c0,.12.09.25.13.37a.25.25,0,0,1,0,.24c0,.07,0,.11.06.13a.39.39,0,0,1,.25.2.44.44,0,0,0,.15.12l.44.2.17,0a.42.42,0,0,1,.14.06.13.13,0,0,1,0,.16.13.13,0,0,1-.07.06.53.53,0,0,1-.17,0,3,3,0,0,1-.6,0l-.41-.08-.11-.05a.33.33,0,0,0-.25,0,1.16,1.16,0,0,1-.42-.08.17.17,0,0,1-.12-.14V62.8a.2.2,0,0,0-.15-.21l-.06,0c-.09,0-.12-.07-.1-.16a.86.86,0,0,0-.05-.42c0-.13-.09-.14-.18,0l-.36.42c-.18.21-.18.21-.44.14s-.22,0-.19.19a.8.8,0,0,0,.08.16c.05.12.11.22.16.34s0,.18-.14.17a.86.86,0,0,1-.58-.29L12.68,63a.36.36,0,0,1-.11-.21.52.52,0,0,0-.13-.28.29.29,0,0,1,0-.42l.07-.06a.47.47,0,0,0,.21-.23,1.09,1.09,0,0,1,.24-.24.71.71,0,0,0,.13-.12c.16-.19.31-.41.45-.59l.17-.19a.21.21,0,0,0,.07-.24l-.21-.83,0-.24c-.07-.37-.15-.74-.21-1.1a.18.18,0,0,0-.16-.18.54.54,0,0,1-.32-.18,1.21,1.21,0,0,0-.24-.21.2.2,0,0,0-.13,0h-.37a.32.32,0,0,1-.23-.09l-.12-.13a.39.39,0,0,1-.15-.41.27.27,0,0,0-.1-.29.3.3,0,0,1-.08-.36,1.58,1.58,0,0,0,0-.75c0-.16,0-.33-.07-.49a.22.22,0,0,1,.07-.19.52.52,0,0,0,.16-.33.56.56,0,0,1,0-.12l.19-.38a.53.53,0,0,0,0-.12,2,2,0,0,1,.2-.63,1,1,0,0,0,.12-.23.5.5,0,0,1,.18-.27.54.54,0,0,1,.18-.11l.29-.12a4.33,4.33,0,0,1,.42-.13,1.22,1.22,0,0,0,.63-.36.22.22,0,0,0,0-.23.36.36,0,0,0,0-.09,3.22,3.22,0,0,1-.23-.5.45.45,0,0,1,.05-.42.9.9,0,0,1,.34-.36l0,0a.47.47,0,0,1,.41-.17h.07a.78.78,0,0,1,.56,0,1.93,1.93,0,0,0,.34.11.42.42,0,0,1,.2.1.86.86,0,0,0,.14.13.2.2,0,0,1,.06.27s0,0,0,0a.43.43,0,0,0-.09.26.11.11,0,0,1,0,.08.34.34,0,0,0,0,.31c.07.12.07.13,0,.21a.53.53,0,0,0-.22.34.18.18,0,0,1-.19.15l-.24,0a.16.16,0,0,0-.13.11.14.14,0,0,0,.07.12,1,1,0,0,0,.48.26.34.34,0,0,1,.27.29c0,.2.07.41.11.6a6,6,0,0,1,.06,1,.41.41,0,0,0,0,.19.42.42,0,0,1,0,.31.22.22,0,0,0,0,.16c0,.18.06.36.1.54a.41.41,0,0,0,0,.16,3.74,3.74,0,0,1,.29.72c.07.18.12.37.17.55a.25.25,0,0,1,0,.17,3.19,3.19,0,0,1-.05.42v0s0,.1,0,.11a.24.24,0,0,0,.12,0,1.56,1.56,0,0,1,.7-.3l.17,0a.17.17,0,0,0,.14-.19.18.18,0,0,0,0-.09l-.07-.07a.39.39,0,0,1-.1-.41.21.21,0,0,1,.12-.17,1.38,1.38,0,0,1,.3-.14.41.41,0,0,1,.22,0l.41.08a1.37,1.37,0,0,0,.29.07c.12,0,.16.12.13.23a.38.38,0,0,0,0,.33.14.14,0,0,1,0,.1,1.45,1.45,0,0,1-.18.17,1.19,1.19,0,0,1-.22.12c0,.07.08.09.13.12l.14,0a.33.33,0,0,1,.2.24,2.47,2.47,0,0,1,.08.6.46.46,0,0,0,.14.36c.11.12.11.16,0,.28a.51.51,0,0,0-.14.45l.06.78a2,2,0,0,0,0,.42,2.83,2.83,0,0,0,.11.31.5.5,0,0,1,0,.13,1.15,1.15,0,0,0,.17.48.2.2,0,0,1,0,.13c0,.08,0,.11.11.14a1.14,1.14,0,0,0,.41.07h.16l.09,0M12.58,55.2h0a.31.31,0,0,0-.13.28.39.39,0,0,1,0,.18,1,1,0,0,0-.07.41,1.16,1.16,0,0,1,0,.49.35.35,0,0,0,.1.43.73.73,0,0,0,.08.09s.06,0,.08.06a.16.16,0,0,0,.08-.18c0-.33,0-.67,0-1a3.93,3.93,0,0,0,0-.49,2.56,2.56,0,0,0-.05-.27M25,53.54h0a.91.91,0,0,1,.13-.08l.41-.19c.17-.07.2-.13.15-.3s-.06-.13-.17-.09l-.9.39-.3.15a.12.12,0,0,0-.07.13c0,.09.05.13.15.14l.48,0,.16,0a.29.29,0,0,1-.17.14l-.39.17a.18.18,0,0,0-.09.1.18.18,0,0,0,.15.2h.16l.53,0,.58,0h.12c0-.07,0-.1-.07-.1h-.15l-.46,0c-.05,0-.1,0-.12-.06a.09.09,0,0,1,.06-.06L25.4,54l.31-.13a.14.14,0,0,0,.08-.16.14.14,0,0,0-.13-.1h-.07l-.46,0a.21.21,0,0,1-.18-.08m-2.13-2.86h0l.11,0,.44-.25c.09-.05.14,0,.2,0l.05.07a.14.14,0,0,1,0,.19h0l-.09.07-.32.17c-.11.06-.11.1-.05.19a.94.94,0,0,0,.09.12.08.08,0,0,0,.11,0h0l.35-.19.74-.41a.18.18,0,0,0,.07-.1.29.29,0,0,0-.13-.22c-.06-.06-.12,0-.18,0l-.27.14c-.09,0-.17,0-.24-.08s-.05-.15.05-.23l.15-.1L24,50a.19.19,0,0,0,.05-.09.39.39,0,0,0-.15-.21c-.07,0-.12,0-.17,0l-.6.34-.37.23c-.12.08-.12.1-.09.17a1.27,1.27,0,0,0,.13.22m-1.8-2h0a.61.61,0,0,0,.39-.17,1.57,1.57,0,0,0,.32-.41.5.5,0,0,0-.19-.68l-.05,0a.32.32,0,0,1-.12-.08.84.84,0,0,0-.23-.18c-.12-.08-.19-.07-.28.05l-.09.14-.58.74h0c-.07.09-.06.13,0,.19l.14.08.35.24a.59.59,0,0,0,.32.08M24.79,57h-.18c-.11,0-.15,0-.16.15v.09c0,.14,0,.17.17.16l.27,0a.35.35,0,0,0,.23-.09c.09-.07.11-.07.18,0a.37.37,0,0,0,.51.07.39.39,0,0,0,.13-.2,2.56,2.56,0,0,0,.07-.62c0-.12-.05-.16-.17-.17l-.74-.05-.37,0c-.22,0-.22,0-.23.22s0,.16.15.17l.43,0c.06,0,.12,0,.13.08a.13.13,0,0,1-.07.15L25,57H24.8m-19-1.06h0l.14,0h.3a.17.17,0,0,1,.19.15v.12c0,.1,0,.12-.13.13H5.83v.34c.49,0,1,0,1.46,0,0,0,0-.06,0-.09v-.12c0-.12,0-.14-.14-.14h-.5c-.09,0-.12,0-.14-.12v-.07c0-.15,0-.2.19-.2h.54v-.34H5.91a.13.13,0,0,0-.12.08c0,.09,0,.16,0,.26m.58-3.4h0l.24.11.42.18.51.18.1,0a.11.11,0,0,0,.15-.06h0a1.54,1.54,0,0,0,.08-.19c0-.06.07-.18.11-.26a.47.47,0,0,0-.14-.6A1.14,1.14,0,0,0,7,51.63a.54.54,0,0,0-.42.29l-.12.28-.13.32M24.6,60h0c.37,0,.6-.13.66-.41l0-.09a1.43,1.43,0,0,0,.13-.28c0-.1,0-.16-.08-.19l-.87-.28-.28-.09c-.1,0-.14,0-.18.09l-.15.41a.51.51,0,0,0,.22.67,1.33,1.33,0,0,0,.52.17M14.85,47.2h0l.26,0a.55.55,0,0,0,.45-.55,2,2,0,0,0-.08-.49.63.63,0,0,0-.64-.37l-.28.07a.45.45,0,0,0-.35.37,1.05,1.05,0,0,0,0,.5.61.61,0,0,0,.33.45.67.67,0,0,0,.28.06m10.46,7.58h0a1.23,1.23,0,0,0-.33,0,.59.59,0,0,0-.41.26.68.68,0,0,0,0,.62l0,.05a.7.7,0,0,0,.48.26,1.36,1.36,0,0,0,.69-.09.59.59,0,0,0,.27-.27.73.73,0,0,0,0-.39.52.52,0,0,0-.52-.47h-.2M8.18,49.65h0a.43.43,0,0,0-.34.1.85.85,0,0,0-.26.33.42.42,0,0,0,0,.38.81.81,0,0,0,.32.34,1.41,1.41,0,0,0,.37.18.58.58,0,0,0,.61-.15,2.35,2.35,0,0,0,.19-.25.37.37,0,0,0,0-.38.94.94,0,0,0-.51-.45.64.64,0,0,0-.38-.1M6.3,57.27h0c0-.11-.07-.13-.13-.1a.4.4,0,0,0-.26.42.67.67,0,0,0,.42.54,1,1,0,0,0,.64,0A1.51,1.51,0,0,0,7.25,58a.44.44,0,0,0,.2-.31.65.65,0,0,0-.12-.47.19.19,0,0,1,0-.18.14.14,0,0,0,0-.09,4,4,0,0,0-.69.1.08.08,0,0,0-.06.1h0a1.88,1.88,0,0,0,0,.33s0,.1.09.09v-.06c0-.13,0-.15.15-.17a1.18,1.18,0,0,1,.29,0,.15.15,0,0,1,.18.09.17.17,0,0,1,0,.21.29.29,0,0,1-.18.12l-.56.08H6.29c-.18,0-.23-.07-.27-.25v-.06a.42.42,0,0,1,.28-.19m2.86-8.92h0a.08.08,0,0,0,0,.12h0c.16.15.33.29.49.42s.14.06.1.14-.12,0-.18,0A1.26,1.26,0,0,0,9.34,49c-.23,0-.47-.07-.7-.09h0a.18.18,0,0,0-.16.12c0,.07,0,.09.07.12s.28.27.42.42a6.26,6.26,0,0,0,.52.45h0c.05-.06,0-.09,0-.13L9,49.53a1.27,1.27,0,0,1-.13-.19h.16l.33.07.5.1a.15.15,0,0,0,.14,0l.1-.08a.1.1,0,0,0,0-.17l-.88-.78-.12-.09m9.73-.73h0c.05.05.1.06.14,0l0-.07a.22.22,0,0,1,.31-.06l.15.06c.09.05.13.08.11.17s0,.28.19.33.13,0,.16-.07a.24.24,0,0,0,0-.08l.15-.67c0-.15.06-.3.08-.46a.11.11,0,0,0,0-.08.41.41,0,0,0-.23-.13.2.2,0,0,0-.14.08l-.63.62-.26.26-.07.09m.26-1.34h0a.22.22,0,0,0-.16-.09,1.11,1.11,0,0,1-.3-.08L18.42,46a.14.14,0,0,0-.2.1,1,1,0,0,0-.08.22l-.06.19,0,.15-.11.29a2,2,0,0,0-.08.26c0,.09,0,.1.07.13l.3.08.49.14a.1.1,0,0,0,.12,0l-.27-.1-.21-.08a.11.11,0,0,1-.07-.13v0c0-.11.07-.22.1-.33s.07-.1.15-.08a2.44,2.44,0,0,0,.26.06.07.07,0,0,0,.06,0s0,0,0-.06l-.11,0c-.21,0-.25-.13-.18-.32,0,0,0-.07,0-.11s.09-.11.19-.08a1.7,1.7,0,0,0,.21.07c.08,0,.12.05.17,0M11.5,47.72h0v0a1.32,1.32,0,0,1,.28,0,.18.18,0,0,1,.16.21.14.14,0,0,1-.07.11l-.07.07a.31.31,0,0,1-.43,0l0,0,0,0s-.05-.07-.1,0-.05.07,0,.11l0,.07a.4.4,0,0,0,.31.13.85.85,0,0,0,.54-.27.32.32,0,0,0,.1-.32.52.52,0,0,0-.26-.32.52.52,0,0,0-.3,0l-.35,0A.28.28,0,0,1,11,47.2a.12.12,0,0,1,0-.14.44.44,0,0,1,.32-.15c.12,0,.21,0,.27.11l.08,0s0-.08,0-.09a.41.41,0,0,0-.14-.12.42.42,0,0,0-.31,0l-.17.07a.38.38,0,0,0-.26.29.42.42,0,0,0,.3.46l.39,0m-.83.27h0c-.09,0-.09,0-.13,0l-.19.12a.14.14,0,0,1-.19,0h0L10,48a.13.13,0,0,1,0-.18l0,0a.67.67,0,0,1,.11-.07s.15-.09.18-.2H10.2l-.64.45s0,0,0,.06c.31.36.59.74.92,1.06.17-.11.33-.23.49-.35l.28-.2v-.07s-.05,0-.06,0l-.16.1-.24.17a.1.1,0,0,1-.14,0h0c-.09-.11-.19-.21-.27-.32s0-.13.05-.19l.22-.17M6,53.78H6l.26.08.3.07.48.13.28.06c.1,0,.14,0,.17-.09.06-.24.13-.49.2-.73,0,0,0-.08,0-.09s-.05,0-.07,0,0,0,0,0l-.11.35c0,.11,0,.12-.17.1l-.37-.1c-.13,0-.1-.06-.09-.14a1.21,1.21,0,0,1,0-.18.11.11,0,0,0,0-.14c-.06,0-.07.08-.09.14a.83.83,0,0,1,0,.15.13.13,0,0,1-.15.09h0l-.26-.07c-.1,0-.11-.08-.07-.19a.49.49,0,0,0,0-.34s-.06,0-.06,0a5,5,0,0,0-.22.78m6.69-7.44h0l.26-.05c.09,0,.1,0,.13.07.1.26.19.53.28.8a.69.69,0,0,0,.14.33l.21-.06c.14,0,.16-.08.12-.22v0c-.1-.29-.19-.58-.28-.87s0-.17.11-.22a.36.36,0,0,0,.14-.11h-.11l-.39.09-.38.11a.94.94,0,0,0-.16,0c-.05,0-.08.05-.08.14m11.81,5.58h0a1.46,1.46,0,0,0-.05-.2.13.13,0,0,1,.05-.18l.19-.1c.11,0,.15,0,.21.06a1.28,1.28,0,0,1,.11.24.05.05,0,0,0,.08.05.11.11,0,0,0,0-.08l-.3-.63c0-.08-.08-.09-.17-.05l-.12.07-1,.42a.16.16,0,0,0-.09.07,0,0,0,0,0,0,.07,1,1,0,0,0,.12.25c0,.07.07,0,.14,0l.19-.12.22-.09c.11,0,.12,0,.2.06l.13.19M22,49.73h0l.11.12c.13.15.16.14.31,0l.46-.38.36-.27c.12-.09.1-.05.17,0l.15.15a.09.09,0,0,0,0-.12h0l-.17-.2L23,48.62a.09.09,0,0,0-.13,0h0l.09.11c.08.11.07.16,0,.24l-.3.25-.48.38a.81.81,0,0,0-.12.14M5.85,55.22h0a.78.78,0,0,0,.05-.14c0-.17,0-.19.21-.18l.41,0,.75.08c.07-.08,0-.19,0-.29s0-.09-.08-.1l-.63-.08-.46,0c-.12,0-.15,0-.15-.16V54.2c0-.05,0,0,0-.06s0,0,0,0a.59.59,0,0,0-.05.19c0,.18,0,.37-.08.56a.51.51,0,0,0,0,.3m11.42-9.41h0l-.16,0c-.23-.07-.25,0-.28.2l-.15,1c0,.11,0,.14.12.16a5.52,5.52,0,0,1,.71.1.2.2,0,0,0,.11,0l0,0a.73.73,0,0,0-.29-.07c-.25,0-.3-.08-.26-.32s.1-.59.16-.88v-.12m7.28,11.81h0c-.12,0-.17,0-.19.12l-.15.62c0,.05-.05.13,0,.15s.08-.07.09-.13.05-.17.07-.25a.16.16,0,0,1,.2-.12l.61.12.42.07a.12.12,0,0,0,.14-.06c.1-.18.05-.3-.15-.33h0a7,7,0,0,1-.8-.13l-.26,0M7.71,58.75h0a.19.19,0,0,0,0,.18c0,.09.07.18.1.26s0,.13-.08.18l-.23.07-.31.1c-.17.06-.34.1-.51.15s-.08.06-.07.14.08.22.15.22h0L7.06,60l.63-.21L8,59.68c.11,0,.12,0,.08-.17s-.14-.41-.21-.59a.34.34,0,0,0-.11-.17m0-.13h0a1.23,1.23,0,0,0,0-.19c0-.16,0-.16-.19-.13l-1.25.29s0,0,0,0,0,.17.09.26a.07.07,0,0,0,0,0h.11l.85-.18.39-.1m16.2-6.23h0s0,0,0-.05A2.52,2.52,0,0,0,23.7,52s-.06,0-.09,0l.1.19c0,.07,0,.16.12.19m-2.37-4.77h0a1.34,1.34,0,0,1-.07.18,1.49,1.49,0,0,1-.28.38c-.09.08-.17.18-.26.26a.21.21,0,0,1-.24,0c-.12-.06-.15-.14-.07-.25l.23-.3.35-.44c.05-.06.09-.12.19-.09a.29.29,0,0,1,.15.23m4.05,9.06h0a.56.56,0,0,1,.21,0,.1.1,0,0,1,.1.11.06.06,0,0,1,0,0,.26.26,0,0,1-.23.18.29.29,0,0,1-.27-.12.16.16,0,0,1,0-.16.12.12,0,0,1,.14-.08h.08M6.9,51.9h0l.31.09a2.81,2.81,0,0,1,.5.22.32.32,0,0,1,.16.32.13.13,0,0,1-.13.11h0l-.3-.11-.66-.26-.08,0a.09.09,0,0,1,0-.13h0a.31.31,0,0,1,.28-.18m18,7.83h0a1.85,1.85,0,0,1-.83-.27.27.27,0,0,1-.14-.27.11.11,0,0,1,.1-.1h0l.23,0,.76.24c.06,0,.14,0,.13.11a.21.21,0,0,1-.08.16.5.5,0,0,1-.2.08M14.57,46.18h0a1.43,1.43,0,0,1,0-.22.18.18,0,0,1,.19-.12.19.19,0,0,1,.17.1,1.48,1.48,0,0,1,.13.5,2,2,0,0,1,0,.34.4.4,0,0,1-.06.26.16.16,0,0,1-.2.08l-.06,0a.43.43,0,0,1-.11-.2c-.06-.22-.09-.46-.14-.69m10.58,9.43h-.37a.27.27,0,0,1-.12,0,.16.16,0,0,1-.07-.21.18.18,0,0,1,.07-.08.52.52,0,0,1,.2-.09,4.22,4.22,0,0,1,.87,0,.18.18,0,0,1,.2.16.19.19,0,0,1-.18.21,2.46,2.46,0,0,1-.6.07M7.94,49.88h0l.23.09a3.84,3.84,0,0,1,.63.42.52.52,0,0,1,.13.17s0,.18-.11.2a.25.25,0,0,1-.17,0,3.09,3.09,0,0,1-.8-.48l-.07-.06a.19.19,0,0,1,0-.21.2.2,0,0,1,.2-.11M19.82,47h0c0,.12-.06.25-.1.38s-.13.14-.24.07-.15-.14,0-.26a2.85,2.85,0,0,1,.27-.25h.07a.09.09,0,0,0,0,.07M15.91,67.75h0a11.64,11.64,0,0,1,0-23.25,11.65,11.65,0,0,1,0,23.27m0-23h0a11.42,11.42,0,0,0,0,22.83,11.43,11.43,0,0,0,0-22.84m-2.67,4.76h0a8.65,8.65,0,0,1,2.43-.41A8.65,8.65,0,0,0,13.24,49.49Zm.15.42h0a9.18,9.18,0,0,1,2.29-.81,9.18,9.18,0,0,0-2.29.81m2.29-.81h.08a9,9,0,0,0-2.52.42h0a9.18,9.18,0,0,1,2.43-.42v0m-1.89,1.15h0a8.21,8.21,0,0,1,1.93-1.15,8.21,8.21,0,0,0-1.93,1.15m1.93-1.15h0l.08,0h0a8.74,8.74,0,0,0-2.38.83h0a8.91,8.91,0,0,1,2.28-.83l0,0m-1.37,1.44h0a7.9,7.9,0,0,1,1.41-1.42,7.9,7.9,0,0,0-1.41,1.42m1.41-1.42h0l.05,0h0a8.41,8.41,0,0,0-2,1.18h0a8.33,8.33,0,0,1,1.92-1.16l0,0m-.7,1.6h0a9.6,9.6,0,0,1,.75-1.59A9.6,9.6,0,0,0,15,50.74m.75-1.59h0l0,0h0a7.43,7.43,0,0,0-1.46,1.45h0a7.79,7.79,0,0,1,1.39-1.42h0m.07,1.66h0c0-.63,0-1.19,0-1.66,0,.45,0,1,0,1.66m0-1.66h0v0h0A10.67,10.67,0,0,0,15,50.73h0a9.56,9.56,0,0,1,.72-1.6h.05Zm.83,1.57h0a10.08,10.08,0,0,0-.78-1.58,9.61,9.61,0,0,1,.79,1.61m-.78-1.58h0l-.05,0h0c0,.46,0,1,0,1.69h0c0-.63,0-1.19-.05-1.66h.05m1.48,1.4h0a7.69,7.69,0,0,0-1.45-1.4,7.69,7.69,0,0,1,1.45,1.4m-1.45-1.4h0l0,0h0a9.17,9.17,0,0,1,.83,1.62h0a9.09,9.09,0,0,0-.83-1.57h0m2,1.11h0a8.69,8.69,0,0,0-2-1.13,8.69,8.69,0,0,1,2,1.13m-2-1.13h0l-.07,0h0a8.47,8.47,0,0,1,1.49,1.44h0a8.35,8.35,0,0,0-1.46-1.39l0,0m2.34.76h0A9.12,9.12,0,0,0,16,49.12a9.12,9.12,0,0,1,2.31.78M16,49.12h-.09a8.37,8.37,0,0,1,2,1.15h0a8.19,8.19,0,0,0-2-1.11l0,0m2.44.36h0A9.14,9.14,0,0,0,16,49.1a9.14,9.14,0,0,1,2.43.39M16,49.1h-.09a9.61,9.61,0,0,1,2.39.8h0A8.91,8.91,0,0,0,16,49.13v0Zm-5,1.46h0a8.63,8.63,0,0,1,2.11-1,8.63,8.63,0,0,0-2.11,1m2.11-1h0l.08,0v-.05l-.08,0v.06m-1.83,1.81h0a10,10,0,0,1,2-1.38,10,10,0,0,0-2,1.38m2-1.38h0l.08,0a.76.76,0,0,1-.15-.41h0a8.53,8.53,0,0,0-2.19,1.06v0a8.43,8.43,0,0,1,2.1-1.05.86.86,0,0,0,.16.41M12,52h0a10.86,10.86,0,0,1,1.66-1.66A10.86,10.86,0,0,0,12,52m1.66-1.66h0l.06-.05a1.8,1.8,0,0,1-.37-.36h0a9.75,9.75,0,0,0-2.07,1.42v0a9.72,9.72,0,0,1,2-1.4,1.63,1.63,0,0,0,.38.36m-.63,2.19h0a13.52,13.52,0,0,1,1.22-1.89,13.06,13.06,0,0,0-1.22,1.9m1.22-1.9h0l0-.06a2.85,2.85,0,0,1-.55-.28h0A10.43,10.43,0,0,0,12,52l0,0a10.49,10.49,0,0,1,1.66-1.67,2.78,2.78,0,0,0,.57.29m.09,2.24h0c.18-.7.39-1.4.63-2.08-.25.68-.46,1.36-.64,2m.64-2h0a.07.07,0,0,1,0-.06,4.12,4.12,0,0,1-.69-.18h0a14,14,0,0,0-1.27,2h0a13.42,13.42,0,0,1,1.19-1.9,4.21,4.21,0,0,0,.72.18M15.89,53h0c0-.75,0-1.46,0-2.1,0,.64,0,1.35,0,2.1m0-2.1h0v-.07H15.8a5.81,5.81,0,0,1-.72-.05h0a19.11,19.11,0,0,0-.66,2.11h0c.18-.74.41-1.43.61-2.06a4.76,4.76,0,0,0,.84.07m1.51,2h0a20.51,20.51,0,0,0-.68-2.05,20.51,20.51,0,0,1,.68,2.05m-.68-2.05h0l0-.06a4.11,4.11,0,0,1-.78.07h-.05c0,.66,0,1.39,0,2.17h0c0-.75,0-1.47,0-2.1a4.34,4.34,0,0,0,.8-.08m2,1.7h0a12.56,12.56,0,0,0-1.24-1.89,12.56,12.56,0,0,1,1.24,1.89m-1.24-1.89h0l-.05-.06a3.18,3.18,0,0,1-.69.18h0a20.11,20.11,0,0,1,.71,2.11h0a16.94,16.94,0,0,0-.7-2,4.38,4.38,0,0,0,.71-.19M19.7,52h0A11.6,11.6,0,0,0,18,50.3,11.6,11.6,0,0,1,19.7,52M18,50.3h0l-.06,0a2.81,2.81,0,0,1-.54.29h0a13,13,0,0,1,1.3,2h0a12.68,12.68,0,0,0-1.26-1.89,2.42,2.42,0,0,0,.55-.29m2.37,1h0a9.35,9.35,0,0,0-2-1.36,9.35,9.35,0,0,1,2,1.36m-2-1.37h0l-.08,0a1.17,1.17,0,0,1-.35.35h0A11,11,0,0,1,19.72,52l0,0A11.19,11.19,0,0,0,18,50.27a1.58,1.58,0,0,0,.36-.37m2.24.58h0a8.33,8.33,0,0,0-2.1-1,8.33,8.33,0,0,1,2.1,1m-2.1-1h0l-.08,0h0a.79.79,0,0,1-.13.39h0a9.68,9.68,0,0,1,2.08,1.39v0a9.82,9.82,0,0,0-2-1.35.67.67,0,0,0,.13-.41v0M9.35,52.08h0A7.41,7.41,0,0,1,11,50.53a7.41,7.41,0,0,0-1.66,1.55M11,50.53h0l.06,0v-.1l-.06,0ZM9.71,53.2h0a9.42,9.42,0,0,1,1.58-1.81A9,9,0,0,0,9.73,53.2m1.56-1.81h0l.06-.06a1.45,1.45,0,0,1-.27-.75v0a7.64,7.64,0,0,0-1.72,1.59v0A8.42,8.42,0,0,1,11,50.63a1.52,1.52,0,0,0,.27.76m-.61,2.71h0a12.87,12.87,0,0,1,1.31-2,12.87,12.87,0,0,0-1.31,2m1.31-2h0l.06-.06a2.67,2.67,0,0,1-.69-.65v0A9.94,9.94,0,0,0,9.75,53.2l0,0a9.48,9.48,0,0,1,1.52-1.82,2.47,2.47,0,0,0,.68.65m.1,2.76h0a17.49,17.49,0,0,1,1-2.22,17.49,17.49,0,0,0-1,2.22m1-2.22h0l0-.08a4.14,4.14,0,0,1-1-.5l0,0a12,12,0,0,0-1.37,2.1l0,0A12.22,12.22,0,0,1,12,52.08a5.24,5.24,0,0,0,1,.52m.83,2.68h0c.14-.83.31-1.59.51-2.34q-.3,1.13-.51,2.34m.51-2.34h0a.13.13,0,0,1,0-.08,7.05,7.05,0,0,1-1.28-.32h0a17.38,17.38,0,0,0-1,2.3h.06a17.52,17.52,0,0,1,.94-2.23,7.29,7.29,0,0,0,1.3.33m1.55,2.49h0v0m0-2.38h0V53h-.14a8.3,8.3,0,0,1-1.32-.11h-.05c-.2.77-.38,1.59-.53,2.42H14c.14-.81.3-1.6.49-2.34a8.55,8.55,0,0,0,1.34.11h.14m2,2.21h0c-.16-.8-.33-1.59-.54-2.33.21.74.38,1.53.54,2.33m-.54-2.33h0v-.08A8.66,8.66,0,0,1,16,53h-.06v2.46H16c0-.83,0-1.62,0-2.38a8.9,8.9,0,0,0,1.46-.13m2.32,1.85h0a16.2,16.2,0,0,0-1-2.21,16.2,16.2,0,0,1,1,2.21m-1-2.21h0l0-.07a6.8,6.8,0,0,1-1.25.34h0c.21.77.41,1.58.55,2.41H18c-.15-.8-.34-1.59-.54-2.33a6.21,6.21,0,0,0,1.26-.35m2.38,1.49h0a11.88,11.88,0,0,0-1.34-2,11.88,11.88,0,0,1,1.34,2m-1.34-2h0L19.72,52a5.19,5.19,0,0,1-1,.52h0a16.75,16.75,0,0,1,1,2.29h.05a16.5,16.5,0,0,0-1-2.23,4.75,4.75,0,0,0,1-.52M22,53.12h0a9.93,9.93,0,0,0-1.57-1.79A9.93,9.93,0,0,1,22,53.12m-1.57-1.79h0l-.07-.06a2.36,2.36,0,0,1-.64.66l0,0A11.61,11.61,0,0,1,21.1,54l0,0a12,12,0,0,0-1.34-2,2.76,2.76,0,0,0,.65-.67m1.9.73h0a8,8,0,0,0-1.66-1.52A8,8,0,0,1,22.35,52m-1.66-1.52h0l-.07-.05v0a1.48,1.48,0,0,1-.2.75v0A10,10,0,0,1,22,53.12v0a9.61,9.61,0,0,0-1.58-1.79,1.54,1.54,0,0,0,.24-.72v0M8.22,54.14h0a6.76,6.76,0,0,1,1.07-1.93,6.76,6.76,0,0,0-1.07,1.93m1.07-1.93h0l.05-.06V52l-.05.06v.14m-.63,3.16h0a8.9,8.9,0,0,1,1-2.11,8.9,8.9,0,0,0-1,2.11m1-2.11h0l0-.06a2.07,2.07,0,0,1-.37-1v0a6.85,6.85,0,0,0-1.12,2v0a6.76,6.76,0,0,1,1.07-1.93,2.07,2.07,0,0,0,.37,1m.1,3.18h0a11.4,11.4,0,0,1,.85-2.26,11.4,11.4,0,0,0-.85,2.26m.85-2.26h0a.25.25,0,0,0,0-.07,3.66,3.66,0,0,1-.92-.88l0,0a8.63,8.63,0,0,0-1.06,2.18l0,0a9.27,9.27,0,0,1,1-2.11,3.7,3.7,0,0,0,.93.88m.81,3.09h0a16.23,16.23,0,0,1,.63-2.37,16.23,16.23,0,0,0-.63,2.37m.63-2.37h0l0-.08a7.12,7.12,0,0,1-1.38-.69l0,0a11.63,11.63,0,0,0-.89,2.34l.05,0a11.34,11.34,0,0,1,.83-2.26A6,6,0,0,0,12,54.9m1.47,2.91h0c.08-.83.19-1.66.33-2.46-.14.83-.25,1.64-.33,2.46m.33-2.46h0v-.08a10,10,0,0,1-1.71-.43h-.06a17,17,0,0,0-.64,2.43l.07,0a16.36,16.36,0,0,1,.63-2.38,10.34,10.34,0,0,0,1.74.45M15.94,58h0v0m0-2.49h0v-.09h-.21a10.75,10.75,0,0,1-1.8-.15h-.07c-.15.83-.26,1.69-.34,2.54h.07c.08-.83.19-1.66.32-2.45a13.82,13.82,0,0,0,1.82.15h.18m2.4,2.26h0c-.09-.83-.2-1.64-.35-2.45.15.83.26,1.63.35,2.45M18,55.33h0v-.08a13,13,0,0,1-2,.18h-.07V58H16c0-.83,0-1.66,0-2.49a10.88,10.88,0,0,0,2-.18m2.41,1.89h0a14.8,14.8,0,0,0-.64-2.37,14.8,14.8,0,0,1,.64,2.37m-.64-2.37h0l0-.08a10,10,0,0,1-1.7.47h-.07c.16.83.28,1.69.37,2.53h.07c-.08-.83-.2-1.64-.36-2.45a9.82,9.82,0,0,0,1.71-.47M22,56.35h0a11,11,0,0,0-.86-2.25A11,11,0,0,1,22,56.35m-.86-2.25h0l0-.07a6.06,6.06,0,0,1-1.34.75h-.05a17.38,17.38,0,0,1,.66,2.45l.06,0a15.93,15.93,0,0,0-.64-2.37,6.45,6.45,0,0,0,1.35-.71m1.94,1.17h0a8.62,8.62,0,0,0-1-2.1,9.07,9.07,0,0,1,1,2.1m-1-2.1h0L22,53.12a3.39,3.39,0,0,1-.88.89l0,0a10.8,10.8,0,0,1,.9,2.33l.05,0a11.3,11.3,0,0,0-.87-2.24,3.46,3.46,0,0,0,.9-.89m1.4.86h0a6.76,6.76,0,0,0-1.07-1.93,6.76,6.76,0,0,1,1.07,1.93m-1.07-1.93h0l-.05-.06v0a2,2,0,0,1-.32,1v0a8.74,8.74,0,0,1,1.06,2.17l0,0a8.73,8.73,0,0,0-1-2.08,1.89,1.89,0,0,0,.31-1v0M7.83,56.3h0a6.67,6.67,0,0,1,.36-2.07,6.67,6.67,0,0,0-.36,2.07m.36-2.07h0l0-.07V54l0,.07v.16m.09,3.38h0a7.86,7.86,0,0,1,.35-2.15,7.86,7.86,0,0,0-.35,2.15m.35-2.15h0l0-.07a2.39,2.39,0,0,1-.41-1.19v0a6.6,6.6,0,0,0-.39,2.16v0a6.67,6.67,0,0,1,.36-2.07,2.47,2.47,0,0,0,.42,1.16m.83,3.27h0a9,9,0,0,1,.29-2.2,9,9,0,0,0-.29,2.2m.29-2.2h0v-.08a4.24,4.24,0,0,1-1.08-1l0,0a7.66,7.66,0,0,0-.37,2.23l0,0a7.43,7.43,0,0,1,.34-2.15,4.45,4.45,0,0,0,1.09,1m1.46,3.08h0a12.87,12.87,0,0,1,.2-2.24,12.87,12.87,0,0,0-.2,2.24m.2-2.24h0a.14.14,0,0,0,0-.09,7.55,7.55,0,0,1-1.61-.8l0,0a9.28,9.28,0,0,0-.31,2.28l.05,0a9.1,9.1,0,0,1,.29-2.2,7,7,0,0,0,1.62.81m2,2.82h0c0-.73,0-1.5.11-2.27-.07.77-.11,1.54-.11,2.27m.11-2.27h0v-.08a12.86,12.86,0,0,1-2-.52l-.06,0a14,14,0,0,0-.22,2.33l.07,0a13,13,0,0,1,.2-2.24,11.1,11.1,0,0,0,2,.52m2.42,2.46h0v0m0-2.27h0V58h-.22a14.89,14.89,0,0,1-2.11-.18h-.08c-.07.8-.11,1.59-.12,2.35h.09c0-.73,0-1.49.1-2.26a15,15,0,0,0,2.12.17h.22m2.49,2h0c0-.73,0-1.49-.11-2.26.07.77.11,1.53.11,2.26m-.11-2.26h0a.11.11,0,0,1,0-.08A13.65,13.65,0,0,1,16,58h-.08v2.36H16V58.09a13.69,13.69,0,0,0,2.31-.22m2.29,1.66h0a12.86,12.86,0,0,0-.22-2.23,12.86,12.86,0,0,1,.22,2.23m-.22-2.23h0v-.09a11.55,11.55,0,0,1-2,.56h-.08c.08.8.12,1.59.13,2.34h.08a22,22,0,0,0-.13-2.26,11.38,11.38,0,0,0,2-.55m1.94,1.34h0a9.14,9.14,0,0,0-.32-2.2,9.11,9.11,0,0,1,.3,2.2m-.3-2.2h0a.11.11,0,0,0,0-.08,7.08,7.08,0,0,1-1.56.83l-.07,0a12.86,12.86,0,0,1,.24,2.32l.06,0a14.08,14.08,0,0,0-.24-2.24A6.93,6.93,0,0,0,22,56.44m1.43,1.08h0a7.37,7.37,0,0,0-.35-2.14,7.37,7.37,0,0,1,.35,2.14m-.35-2.14h0l0-.08a4.28,4.28,0,0,1-1,1.05l-.05,0a9.21,9.21,0,0,1,.32,2.27l.05,0a9.45,9.45,0,0,0-.29-2.18,3.81,3.81,0,0,0,1-1m.75.83h0a6.35,6.35,0,0,0-.36-2.07,6.35,6.35,0,0,1,.36,2.07m-.36-2.07h0a.07.07,0,0,0,0-.07v.06a2.32,2.32,0,0,1-.36,1.14l0,0a7.65,7.65,0,0,1,.37,2.22l0,0a7.72,7.72,0,0,0-.34-2.14,2.33,2.33,0,0,0,.36-1.15v-.06M7.85,56.85h0v0m.87,2.81h0a6.13,6.13,0,0,1-.4-2l0,0a6.24,6.24,0,0,0,.4,2l0,0m1.12,1.06h0a6.42,6.42,0,0,1-.33-1.94l0,0a6.75,6.75,0,0,0,.33,1.94l.05,0m1.66.83h0a7.74,7.74,0,0,1-.21-1.92l-.07,0a8.58,8.58,0,0,0,.24,1.89l.07,0m2.1.53h0a14.29,14.29,0,0,1-.13-1.86h-.08a16.28,16.28,0,0,0,.13,1.86h.08m2.4.18h0V60.38h-.09v1.85H16M18.38,62h0a14.43,14.43,0,0,0,.15-1.86h-.08A16.63,16.63,0,0,1,18.31,62h.07m2-.58h0a8,8,0,0,0,.25-1.89l-.07,0a8,8,0,0,1-.24,1.89l.06,0m1.6-.83h0a6.09,6.09,0,0,0,.34-1.94l-.05,0a6.42,6.42,0,0,1-.33,1.9l0,0m1.05-1.08h0a6.27,6.27,0,0,0,.42-2l0,0a6.26,6.26,0,0,1-.41,2l0,0M10.7,62.27h0a4.57,4.57,0,0,1-.89-1.54,4.74,4.74,0,0,0,.89,1.54m-.89-1.54h0l0-.06a4.41,4.41,0,0,1-1.08-1l0,0a5.58,5.58,0,0,0,.61,1.16l.06.1a5.77,5.77,0,0,1-.61-1.15,4,4,0,0,0,1.07,1M12.12,63h0a4,4,0,0,1-.65-1.42A4,4,0,0,0,12.12,63m-.65-1.42h0V61.5a7.33,7.33,0,0,1-1.61-.8l0,0a4.74,4.74,0,0,0,.92,1.6l0,0a4.41,4.41,0,0,1-.89-1.54,7.33,7.33,0,0,0,1.61.8m2.42,1.88h0a5.19,5.19,0,0,1-.35-1.34,5.63,5.63,0,0,0,.35,1.34m-.35-1.34h0V62a10.9,10.9,0,0,1-2-.52l-.06,0A4.07,4.07,0,0,0,12.12,63h.05a4.34,4.34,0,0,1-.64-1.42,10.8,10.8,0,0,0,2,.52m2.38,1.5h0v0m0-1.31h0v-.06h-.21A14.89,14.89,0,0,1,13.6,62h-.08a5.65,5.65,0,0,0,.36,1.4h.06a6.11,6.11,0,0,1-.33-1.34,14.48,14.48,0,0,0,2.08.18h.21m2,1.15h0a5.6,5.6,0,0,0,.36-1.35,5.6,5.6,0,0,1-.36,1.35m.36-1.35h0v0a14.65,14.65,0,0,1-2.28.21h-.09V63.6H16c0-.33,0-.77,0-1.32a12.37,12.37,0,0,0,2.27-.21m1.39.88h0a4.33,4.33,0,0,0,.66-1.43A4.33,4.33,0,0,1,19.68,63m.66-1.43h0v-.06a10.35,10.35,0,0,1-2,.54h-.08a5.28,5.28,0,0,1-.35,1.42H18a5.19,5.19,0,0,0,.37-1.35,10.35,10.35,0,0,0,2-.54m.71.71h0A4.71,4.71,0,0,0,22,60.68a4.71,4.71,0,0,1-.91,1.56M22,60.68h0l0-.06a7.19,7.19,0,0,1-1.56.8h-.06a4.51,4.51,0,0,1-.69,1.49l0,0a4.28,4.28,0,0,0,.7-1.4A7,7,0,0,0,22,60.66m.58-.11h0a5.29,5.29,0,0,1-.57.75,5.29,5.29,0,0,0,.57-.75M22,61.3h0a5.69,5.69,0,0,0,1.09-1.77A3.92,3.92,0,0,1,22,60.59l0,0a4.81,4.81,0,0,1-.93,1.61l0,0A4.66,4.66,0,0,0,22,60.66a4,4,0,0,0,1-1A5.7,5.7,0,0,1,22,61.33m1.28-2.14h0l0-.1a4.11,4.11,0,0,1-.21.42l0,0a5.85,5.85,0,0,1-.52,1l.08-.12a6.57,6.57,0,0,0,.44-.88,2.35,2.35,0,0,0,.19-.39M11.42,62.92h0a4,4,0,0,0,.67.37c-.23-.11-.45-.24-.67-.37m.67.37h0a4,4,0,0,1-1.39-1A4.1,4.1,0,0,1,10,61.7l.07.07a3.72,3.72,0,0,0,.64.55,3.86,3.86,0,0,0,1.35,1m1,.52h0a2.31,2.31,0,0,1-1-.77,2.31,2.31,0,0,0,1,.77m-1-.77h0l0,0a6.48,6.48,0,0,1-1.37-.68l0,0a3.53,3.53,0,0,0,.71.63l.06.05a3.64,3.64,0,0,1-.69-.61,6.11,6.11,0,0,0,1.35.68m2.27,1.11h0a1.28,1.28,0,0,1-.51-.66,1.28,1.28,0,0,0,.51.66m-.51-.66h0v0A10.09,10.09,0,0,1,12.19,63h-.06a2.27,2.27,0,0,0,1,.83h0a2.2,2.2,0,0,1-1-.77,9.82,9.82,0,0,0,1.7.42m2,.77h0v0m0-.62h0a0,0,0,0,0,0,0h-.16a13.37,13.37,0,0,1-1.79-.15h-.06a1.26,1.26,0,0,0,.53.69h.05a1.22,1.22,0,0,1-.5-.64,11.73,11.73,0,0,0,1.77.14h.18m1.45.49h0a1.38,1.38,0,0,0,.57-.67,1.35,1.35,0,0,1-.55.65m.55-.65h0v0A12.61,12.61,0,0,1,16,63.6h-.07v.65H16c0-.21,0-.41,0-.61a12.47,12.47,0,0,0,1.92-.18m.73.31h0a2.42,2.42,0,0,0,1-.79,2.42,2.42,0,0,1-1,.79m1-.79h0l0,0a9.71,9.71,0,0,1-1.68.46h-.07a1.32,1.32,0,0,1-.56.69h.05a1.34,1.34,0,0,0,.56-.66A9.5,9.5,0,0,0,19.65,63m.74-.16h0c-.21.13-.51.3-.74.41a4.1,4.1,0,0,0,.74-.41m-.74.41h0a4.06,4.06,0,0,0,1.41-1,6.76,6.76,0,0,1-1.33.7l-.05,0a2.45,2.45,0,0,1-1,.83h0a2.41,2.41,0,0,0,1-.79A6.25,6.25,0,0,0,21,62.25a4,4,0,0,1-1.36,1m1.93-1.46h0l.07-.08a3.78,3.78,0,0,1-.56.5l0,0a4.28,4.28,0,0,1-.67.6l.08-.05a4.07,4.07,0,0,0,.59-.51,3.3,3.3,0,0,0,.53-.46m-8.43,2h0a2.31,2.31,0,0,0,1.25.07,2.31,2.31,0,0,1-1.25-.07m1.25.07h0a2.16,2.16,0,0,1-1.28-.09l-.11,0,.08,0,.07,0h0a2.21,2.21,0,0,0,1.25.06m.18.31h0a.72.72,0,0,0,.51-.13.77.77,0,0,1-.51.13m.51-.13h0a.67.67,0,0,1-.68.08,6.67,6.67,0,0,1-1.24-.33h.05a6.75,6.75,0,0,0,1.25.32.64.64,0,0,0,.65-.09m3.54-.28h0a6.7,6.7,0,0,1-1.24.34h-.05l-.17.06h0l.15-.05a6.51,6.51,0,0,0,1.15-.31Zm0,0Zm-.1-14.28h0l-.07,0,.07,0m-.2-.45h0a7.46,7.46,0,0,0-2.31,0,7.46,7.46,0,0,1,2.31,0m-2.31,0H16a8.9,8.9,0,0,1,2.52.39h0A8.73,8.73,0,0,0,16.06,49v0m2-.38h0A6.13,6.13,0,0,0,16,49a6.13,6.13,0,0,1,2-.36M16,49h0L16,49h0a8,8,0,0,1,2.4,0h0a8.06,8.06,0,0,0-2.3,0l0,0m1.42-.64h0A3.93,3.93,0,0,0,16,49a3.93,3.93,0,0,1,1.46-.62M16,49h0l-.05,0h0a5.77,5.77,0,0,1,2-.38h0A5.73,5.73,0,0,0,16,49s0,0,0,0m.75-.83h0A2.55,2.55,0,0,0,16,49a2.64,2.64,0,0,1,.73-.76m-.79.8h0l0,0h0a3.94,3.94,0,0,1,1.51-.66h0A4,4,0,0,0,16,49h0m0-.88h0a3,3,0,0,0-.06.85c0-.41,0-.71,0-.88m0,.88h0v0h0a2.74,2.74,0,0,1,.83-.83h0a2.71,2.71,0,0,0-.77.81h-.06m-.78-.83h0a2.53,2.53,0,0,1,.73.83,2.53,2.53,0,0,0-.73-.83m.73.83h0l0,0h0c0-.45,0-.75,0-.91h0V49h0m-1.45-.63h0a3.64,3.64,0,0,1,1.4.64,3.64,3.64,0,0,0-1.4-.64m1.4.64h0l.05,0h0a2.49,2.49,0,0,0-.75-.86h0a2.62,2.62,0,0,1,.76.83h0m-2-.37h0a5.57,5.57,0,0,1,1.93.38,5.81,5.81,0,0,0-1.93-.38m1.93.38h0l.07,0h0a3.79,3.79,0,0,0-1.45-.68h0a3.66,3.66,0,0,1,1.42.64h0m-2.32,0h0a7.65,7.65,0,0,1,2.29,0,7.65,7.65,0,0,0-2.29,0m2.29,0h.08a5.68,5.68,0,0,0-2-.42h0a5.87,5.87,0,0,1,1.95.37l0,0m-2.45.39h0a9.12,9.12,0,0,1,2.44-.36,9.12,9.12,0,0,0-2.44.36m2.44-.36h.08a7.53,7.53,0,0,0-2.37,0h0a7.71,7.71,0,0,1,2.3,0v0m-2.43.37h0a8.88,8.88,0,0,1,2.52-.37h0a8.93,8.93,0,0,0-2.52.36Zm7.47,1.11h0l-.07-.05.07.05m-.3-.83h0a6.55,6.55,0,0,0-2-.68,6.55,6.55,0,0,1,2,.68m-2-.65h-.07a.9.9,0,0,1,.13.42h0l.08,0a8.33,8.33,0,0,1,2.1,1v0a8.27,8.27,0,0,0-2.1-1,.91.91,0,0,0-.14-.42m1.33,0h0a4.29,4.29,0,0,0-1.7-.37,4.29,4.29,0,0,1,1.7.37M18,48.69H18a1.45,1.45,0,0,1,.35.35h0a6.56,6.56,0,0,1,2.07.69v0a6.57,6.57,0,0,0-2-.66,1.54,1.54,0,0,0-.36-.36m.62-.19h0l.07,0-.07,0m.07,0h0a2.35,2.35,0,0,0-1.31-.13,3.45,3.45,0,0,1,.54.28h0a4.33,4.33,0,0,1,1.77.38l0,0a4.33,4.33,0,0,0-1.7-.37,3.6,3.6,0,0,0-.55-.29,2.28,2.28,0,0,1,1.24.14m-1.5-.41h0a.68.68,0,0,1,.2.07.68.68,0,0,0-.2-.07m.2.07h0a.7.7,0,0,0-.71,0,5.27,5.27,0,0,1,.68.19h0a2.31,2.31,0,0,1,1.25.1h-.05a2.29,2.29,0,0,0-1.16-.1,4.38,4.38,0,0,0-.71-.19.71.71,0,0,1,.69,0M15.86,48h0v0m0,.06h0c0-.1,0-.07,0,.09h0a6,6,0,0,1,.85,0h0a.86.86,0,0,1,.52-.11h-.05a.77.77,0,0,0-.47.1,5.29,5.29,0,0,0-.8-.07h0c0-.15,0-.18,0-.08m-1.3,0h0a.54.54,0,0,0-.19.07.54.54,0,0,1,.19-.07m-.19.07h0a.59.59,0,0,1,.65,0,5.25,5.25,0,0,1,.79-.06h0V48h0v.13a4.65,4.65,0,0,0-.83.07.6.6,0,0,0-.62,0m-1.22.3h0l-.09,0Zm-.09,0h0a2,2,0,0,1,1.24-.12,4.39,4.39,0,0,1,.69-.18h0a.7.7,0,0,0-.44-.12h0a.63.63,0,0,1,.46.1,3.52,3.52,0,0,0-.71.18,2.08,2.08,0,0,0-1.21.12m-1,.52h0a4.12,4.12,0,0,1,1.66-.35,4.12,4.12,0,0,0-1.66.35m1.66-.35h.07a2.73,2.73,0,0,1,.54-.27h0a2.08,2.08,0,0,0-1.16.07h0a2.21,2.21,0,0,1,1.14-.09,2.29,2.29,0,0,0-.56.29m-2.38,1h0a6.3,6.3,0,0,1,2-.64,6.3,6.3,0,0,0-2,.64m2-.64h.08a1.33,1.33,0,0,1,.36-.35h0A4.15,4.15,0,0,0,12,49l0,0a4.07,4.07,0,0,1,1.69-.36,1.45,1.45,0,0,0-.38.36m-2.26,1.42h0a8.39,8.39,0,0,1,2.1-1,8.39,8.39,0,0,0-2.1,1m2.1-1h0l.08,0a.87.87,0,0,1,.14-.42h0a6.23,6.23,0,0,0-2,.66l0,0a6.31,6.31,0,0,1,2-.66.93.93,0,0,0-.15.42m-2.1,1h0a8.32,8.32,0,0,1,2.18-1h0a8.32,8.32,0,0,0-2.18,1h0m11.34,1.66h0l-.05-.07.05.07M22,51h0a6.14,6.14,0,0,0-1.57-1.25A6.14,6.14,0,0,1,22,51m-1.57-1.25h0l-.06,0a1.46,1.46,0,0,1,.23.75v0l.07,0a8,8,0,0,1,1.66,1.53v0a8.27,8.27,0,0,0-1.66-1.52,1.48,1.48,0,0,0-.24-.76m0-.31h0a4,4,0,0,1,.71.66,4,4,0,0,0-.71-.66m.71.66h0A4.16,4.16,0,0,0,19.73,49a2.4,2.4,0,0,1,.65.66v0A5.55,5.55,0,0,1,22,51v0a5.89,5.89,0,0,0-1.57-1.24,2.63,2.63,0,0,0-.66-.67,4.11,4.11,0,0,1,1.34,1M19,48.63h0l-.15-.07a4.15,4.15,0,0,1,.83.45l0,0a4.89,4.89,0,0,1,.69.42l0,0h0a5,5,0,0,0-.59-.34,5.19,5.19,0,0,0-.77-.42m-7.51.66h0a3.82,3.82,0,0,0-.79.71,3.82,3.82,0,0,1,.79-.71m-.79.71h0A3.87,3.87,0,0,1,12,49a4.94,4.94,0,0,1,.79-.41l-.13.05A5,5,0,0,0,12,49a3.91,3.91,0,0,0-1.31,1m-.95.9h0a5.65,5.65,0,0,1,1.55-1.24,5.65,5.65,0,0,0-1.55,1.24m1.55-1.24h0l.07,0A2.44,2.44,0,0,1,12,49l0,0a3.6,3.6,0,0,0-.58.32h0l0,0L12,49a2.63,2.63,0,0,0-.66.67M9.35,52h0A7.63,7.63,0,0,1,11,50.48,7.63,7.63,0,0,0,9.35,52M11,50.48h0l.06,0a1.52,1.52,0,0,1,.27-.76l0,0a5.43,5.43,0,0,0-1.62,1.27v0a5.55,5.55,0,0,1,1.56-1.25,1.52,1.52,0,0,0-.27.76M9.37,52h0a7.7,7.7,0,0,1,1.72-1.55h0A7.22,7.22,0,0,0,9.38,52v0m14.16,2.11h0a.08.08,0,0,0,0-.07s0,0,0,.07m-.95-2.4h0a5.53,5.53,0,0,1,.54,1.09,5.53,5.53,0,0,0-.54-1.09m.54,1.09h0A5.74,5.74,0,0,0,22.07,51a2,2,0,0,1,.32,1v0l.05.06a7.1,7.1,0,0,1,1.07,1.92v0a7.1,7.1,0,0,0-1.07-1.92,2,2,0,0,0-.36-1,5.78,5.78,0,0,1,1,1.75m-1.27-2.08h0l-.08-.08A2.78,2.78,0,0,1,22,51v0a5.85,5.85,0,0,1,.53.7l0,0,0-.06a5.06,5.06,0,0,0-.42-.58,3.55,3.55,0,0,0-.23-.31m-12.49.71h0a5.44,5.44,0,0,0-.67,1.26,6,6,0,0,1,.66-1.28m-.66,1.28h0a5.69,5.69,0,0,1,1.06-1.79,3,3,0,0,1,.22-.28l-.07.08a2.56,2.56,0,0,0-.2.26,5.46,5.46,0,0,0-1,1.73M8.22,54h0A6.79,6.79,0,0,1,9.29,52,6.79,6.79,0,0,0,8.22,54M9.29,52h0L9.34,52a2,2,0,0,1,.36-1v0c-.13.15-.28.36-.4.51l0,.05,0,0A4.07,4.07,0,0,1,9.64,51a2.06,2.06,0,0,0-.36,1M8.21,54h0a6.88,6.88,0,0,1,1.12-2v0a6.85,6.85,0,0,0-1.11,2v0m15.15-.58h0l-.05-.1a1.91,1.91,0,0,1,.14.71v.05a.08.08,0,0,0,0,.07,6.57,6.57,0,0,1,.36,2.07v-.09a6.49,6.49,0,0,0-.36-2,2.34,2.34,0,0,0-.13-.69M7.84,55.84h0v0Zm0,.26h0A6.32,6.32,0,0,1,8.22,54a2.1,2.1,0,0,1,.14-.65l0,.1a4.56,4.56,0,0,0-.13.62,6.68,6.68,0,0,0-.36,2.08m0-.12h0a6.5,6.5,0,0,1,.38-2v0a6.48,6.48,0,0,0-.38,1.89ZM16,60.39h0a14.8,14.8,0,0,0,2.49-.25,10,10,0,0,0,2.16-.6l.06,0a7.78,7.78,0,0,0,1.66-.88,3.49,3.49,0,0,0,1.11-1.12,3.15,3.15,0,0,0,.42-1.32h-.06a3.1,3.1,0,0,1-.41,1.29,3.53,3.53,0,0,1-1.1,1.11,7.3,7.3,0,0,1-1.66.87H20.6a9.94,9.94,0,0,1-2.15.6,13.82,13.82,0,0,1-2.49.24,13.86,13.86,0,0,1-2.49-.13,13,13,0,0,1-2.22-.59,8.54,8.54,0,0,1-1.73-.88,4.53,4.53,0,0,1-1.23-1.12,3.58,3.58,0,0,1-.41-.94h0a3.27,3.27,0,0,0,.43,1,4.53,4.53,0,0,0,1.25,1.14,8.88,8.88,0,0,0,1.74.88,12.27,12.27,0,0,0,4.42.77H16"/><path class="cls-1" d="M39.51,66.13h1.13c.64,0,1-.49,1.21-1.45a16.72,16.72,0,0,0,.09-2.24V49.93a18.07,18.07,0,0,0-.08-2.21c-.16-1-.57-1.44-1.22-1.44H39.51Zm6.27-3.35h0q0,5.06-5.13,5.06H35.71V44.56h4.92q5.15,0,5.14,5.07Z"/><path class="cls-1" d="M56.57,67.84h-3.7a5.93,5.93,0,0,1-3.89-1,4.29,4.29,0,0,1-1.17-3.32V44.56H56v1.72H51.67v7h3.1v1.54h-3.1V63A6.19,6.19,0,0,0,52,65.62c.23.37.79.56,1.62.56.07,0,.49,0,1.24,0s1.32,0,1.68,0Z"/><path class="cls-1" d="M69.74,49.19h0a11.9,11.9,0,0,0-.11-2c-.16-.83-.55-1.27-1.16-1.27a3,3,0,0,0-1.16.19V62.46h1.11c.63,0,1-.42,1.21-1.19a11.42,11.42,0,0,0,.11-1.94ZM67.32,67.84H63.46v-22a12,12,0,0,1,5-1.31,5.8,5.8,0,0,1,3.88,1,4.25,4.25,0,0,1,1.17,3.34V59.59a4.2,4.2,0,0,1-1.17,3.32A5.77,5.77,0,0,1,68.5,64a11.77,11.77,0,0,1-1.18-.05Z"/><path class="cls-1" d="M78.86,59.76h0v8.08H75.08v-22a11.3,11.3,0,0,1,5-1.31,5.78,5.78,0,0,1,3.87,1A4.27,4.27,0,0,1,85.17,49V67.84H81.33V59.76Zm0-1.72h2.46V48.33c0-1.58-.44-2.38-1.3-2.38a3.55,3.55,0,0,0-1.16.17Z"/><path class="cls-1" d="M93.39,44.56h3.78V63.65A4.28,4.28,0,0,1,96,67a5.89,5.89,0,0,1-3.89,1,5.89,5.89,0,0,1-3.88-1,4.27,4.27,0,0,1-1.18-3.35V44.56h3.85V60.18q0,5.26.29,5.81a1,1,0,0,0,.94.48c.63,0,1-.39,1.17-1.15a15.3,15.3,0,0,0,.06-1.91Z"/><path class="cls-1" d="M107.65,67.84H104a5.8,5.8,0,0,1-3.87-1,4.21,4.21,0,0,1-1.18-3.34V44.56h3.84V63a6.2,6.2,0,0,0,.35,2.65c.23.37.77.56,1.63.56l1.25,0,1.66,0Z"/><path class="cls-1" d="M194.31,58.08h5.61V56.15h-3.5V44.59H194.3Zm-5.67-4.47.94-6.81,1,6.81Zm2.54,4.47h2.13l-2.2-13.49h-2.88L186,58.08h2l.36-2.64h2.45Zm-12.8,0h1.9V48.23l2.61,9.85H185V44.59h-1.9v8.07L181,44.59h-2.63Zm-4.64-1.74c-.67,0-1.1-.36-1.1-1.33V47.65c0-1,.42-1.33,1.1-1.33s1.1.37,1.1,1.33V55c0,1-.42,1.33-1.1,1.33m0,1.93c2.07,0,3.22-1.24,3.22-3.39v-7.1c0-2.16-1.14-3.39-3.22-3.39s-3.22,1.25-3.22,3.39v7.1c0,2.16,1.14,3.39,3.22,3.39M167,58.08h2.12V44.59H167Zm-5.36,0h2.12V46.51H166V44.59H159.4v1.92h2.21Zm-6.45-4.47.94-6.81,1,6.81Zm2.54,4.47h2.12l-2.2-13.49h-2.87l-2.19,13.49h2l.37-2.64h2.45Zm-12.8,0h1.89V48.23l2.62,9.85h2.14V44.59h-1.89v8.07l-2.14-8.07H144.9Zm-5.64-7.71V46.51h1c.75,0,1.08.42,1.08,1.39v1c0,1.08-.48,1.43-1.28,1.43Zm-2.13,7.71h2.13V52.29H140c1,0,1.32.42,1.32,1.66v2.49a4.06,4.06,0,0,0,.2,1.66h2.16a3.94,3.94,0,0,1-.23-1.63v-2.4c0-1.53-.35-2.53-1.41-2.85v0c.94-.39,1.39-1.28,1.39-2.66v-.83c0-2.08-.95-3.1-3.14-3.1h-3.15Zm-6.92,0H136V56.15h-3.67V52h2.91V50.08h-2.91V46.51H136V44.59h-5.79Zm-5.35,0H127V46.51h2.21V44.59h-6.55v1.92h2.22Zm-9.9,0h1.9V48.23l2.62,9.85h2.14V44.59h-1.89v8.07l-2.14-8.07H115Zm-3.69,0h2.13V44.59h-2.12Z"/><path class="cls-1" d="M198.2,67.89c1.05,0,1.59-.63,1.59-1.71V61h-1v5.27c0,.49-.2.66-.54.66s-.56-.17-.56-.66V61h-1.07v5.2a1.5,1.5,0,0,0,1.6,1.71m-4.39-4V62h.48c.38,0,.54.22.54.71v.52c0,.54-.24.72-.64.72Zm-1.08,3.89h1.08V64.89h.36c.49,0,.67.21.67.83V67a2.13,2.13,0,0,0,.1.83H196a2.14,2.14,0,0,1-.11-.83V65.76c0-.76-.18-1.27-.71-1.43h0c.47-.2.69-.64.69-1.34v-.42c0-1-.47-1.56-1.58-1.56h-1.57Zm-2.35.1c1,0,1.59-.62,1.59-1.71V61h-1v5.27c0,.49-.2.66-.54.66s-.54-.17-.54-.66V61h-1.07v5.2c0,1.08.54,1.71,1.59,1.71m-3.77,0a1.52,1.52,0,0,0,1.62-1.73A2.69,2.69,0,0,0,187,64c-.7-.62-.94-1-.94-1.46s.2-.65.54-.65.54.18.54.67v.35h1V62.6c0-1.09-.51-1.71-1.55-1.71a1.49,1.49,0,0,0-1.6,1.69,2.7,2.7,0,0,0,1.2,2.13c.7.61.93,1,.93,1.52s-.22.68-.56.68-.55-.17-.55-.66v-.46h-1v.39c0,1.08.53,1.71,1.58,1.71m-4.08-.1h1.07V64.88L184.9,61h-1.05l-.74,2.54L182.38,61h-1.14l1.29,3.91Zm-6.2,0h.94V62.64l.79,5.15h.9l.79-5.15v5.15h1V61h-1.5l-.71,4.94L177.84,61h-1.51ZM172.83,69h.5l.61-1.27v-1h-1.07v1.07h.37Zm-3.44-1.16h2.83v-1h-1.76V61h-1.07Zm-2.34-.88c-.34,0-.56-.18-.56-.67V62.51c0-.49.22-.67.56-.67s.55.18.55.67v3.73c0,.49-.21.67-.55.67m0,1a1.51,1.51,0,0,0,1.62-1.71V62.6a1.62,1.62,0,1,0-3.24,0v3.58a1.51,1.51,0,0,0,1.62,1.71m-3.89-1c-.34,0-.56-.18-.56-.67V62.51c0-.49.22-.67.56-.67s.55.18.55.67v3.73c0,.49-.21.67-.55.67m0,1a1.51,1.51,0,0,0,1.62-1.71V62.6a1.62,1.62,0,1,0-3.23,0v3.58a1.51,1.51,0,0,0,1.62,1.71m-5.63-.1h1.08V64.74h1.14V67.8h1.07V61h-1.07v2.77h-1.14V61h-1.08Zm-2.2.1a1.47,1.47,0,0,0,1.57-1.66v-.92h-1v1c0,.45-.21.62-.53.62s-.54-.17-.54-.62V62.49c0-.45.22-.63.54-.63s.53.18.53.63v.79h1v-.72a1.58,1.58,0,1,0-3.15,0v3.65a1.47,1.47,0,0,0,1.58,1.66m-3.71,0c1.05,0,1.61-.62,1.61-1.73A2.65,2.65,0,0,0,152.05,64c-.69-.62-.94-1-.94-1.46s.2-.65.54-.65.54.18.54.66v.36h1v-.28c0-1.1-.52-1.71-1.55-1.71a1.48,1.48,0,0,0-1.6,1.68,2.65,2.65,0,0,0,1.2,2.13c.7.61.93,1,.93,1.53s-.22.68-.56.68-.56-.18-.56-.66v-.45h-1v.39c0,1.08.53,1.71,1.58,1.71m-6.29-.1h2.83v-1h-1.76V61h-1.09Zm-2.88-2.26.47-3.43.49,3.43Zm1.28,2.26h1.07L143.7,61h-1.45l-1.11,6.81h1l.18-1.34h1.24Zm-4.17,0h1.07V61h-1.07Zm-2.71,0h1.08V62h1.11V61h-3.32v1h1.12Zm-5,0h1v-5l1.32,5h1.08V61h-1v4.08L133.21,61h-1.33Zm-3.48,0h2.9v-1h-1.84V64.74h1.46v-1h-1.46V62h1.84V61h-2.9Zm-2.88-1V62h.55c.34,0,.54.18.54.67v3.54c0,.48-.2.66-.54.66Zm-1.07,1h1.63a1.45,1.45,0,0,0,1.6-1.66V62.67c0-1.09-.52-1.68-1.6-1.68h-1.63Zm-1.86,0h1.07V61h-1.07Zm-2.22.1c1,0,1.61-.62,1.61-1.73A2.69,2.69,0,0,0,120.8,64c-.7-.61-1-1-1-1.46s.21-.65.55-.65.53.19.53.67v.35h1V62.6c0-1.09-.52-1.71-1.56-1.71a1.48,1.48,0,0,0-1.59,1.69A2.69,2.69,0,0,0,120,64.71c.7.61.93,1,.93,1.52s-.22.68-.56.68-.55-.17-.55-.66v-.46h-1v.39c0,1.08.52,1.71,1.57,1.71m-4.9-.1h2.91v-1h-1.85V64.74H118v-1h-1.47V62h1.85V61h-2.91Zm-2.85-3.88V62h.49c.38,0,.54.22.54.71v.52c0,.54-.24.72-.64.72Zm-1.06,3.89h1.06V64.89H113c.49,0,.68.21.68.83V67a2.12,2.12,0,0,0,.09.83h1.09a2,2,0,0,1-.12-.83V65.76c0-.76-.17-1.27-.71-1.43h0a1.28,1.28,0,0,0,.71-1.34v-.42c0-1-.48-1.56-1.59-1.56h-1.58Z"/></svg>