<svg id="Layer_1" data-name="Layer 1" xmlns="http://www.w3.org/2000/svg" xmlns:xlink="http://www.w3.org/1999/xlink" viewBox="0 0 200 113"><defs><style>.cls-1{fill:url(#linear-gradient);}.cls-2{fill:url(#linear-gradient-2);}.cls-3{fill:url(#linear-gradient-3);}.cls-4{fill:url(#linear-gradient-4);}.cls-5{fill:url(#linear-gradient-5);}.cls-6{fill:#0a452c;}.cls-7{fill:url(#linear-gradient-6);}.cls-8{fill:url(#linear-gradient-7);}.cls-9{fill:url(#linear-gradient-8);}.cls-10{fill:url(#linear-gradient-9);}.cls-11{fill:url(#linear-gradient-10);}.cls-12{fill:url(#linear-gradient-11);}.cls-13{fill:url(#linear-gradient-12);}.cls-14{fill:url(#linear-gradient-13);}.cls-15{fill:url(#linear-gradient-14);}.cls-16{fill:url(#linear-gradient-15);}.cls-17{fill:url(#linear-gradient-16);}.cls-18{fill:url(#linear-gradient-17);}.cls-19{fill:#815a24;}.cls-20{fill:#211f1f;}.cls-21{fill:url(#linear-gradient-18);}.cls-22{fill:url(#linear-gradient-19);}.cls-23{fill:url(#linear-gradient-20);}.cls-24{fill:url(#linear-gradient-21);}.cls-25{fill:url(#linear-gradient-22);}.cls-26{fill:url(#linear-gradient-23);}.cls-27,.cls-29{fill-rule:evenodd;}.cls-27{fill:url(#linear-gradient-24);}.cls-28{fill:url(#linear-gradient-25);}.cls-29{fill:url(#linear-gradient-26);}.cls-30{fill:url(#linear-gradient-27);}.cls-31{fill:#774e2a;}.cls-32{fill:url(#linear-gradient-28);}.cls-33{fill:url(#linear-gradient-29);}</style><linearGradient id="linear-gradient" x1="-291.02" y1="-358.39" x2="-290.7" y2="-358.39" gradientTransform="matrix(297.97, 0, 0, -297.97, 86721.07, -106748.91)" gradientUnits="userSpaceOnUse"><stop offset="0" stop-color="#382514"/><stop offset="0.25" stop-color="#da9e4f"/><stop offset="0.31" stop-color="#c38c44"/><stop offset="0.44" stop-color="#93682d"/><stop offset="0.5" stop-color="#815a24"/><stop offset="0.71" stop-color="#f3cb75"/><stop offset="0.75" stop-color="#f1e288"/><stop offset="1" stop-color="#5b3f1a"/></linearGradient><linearGradient id="linear-gradient-2" x1="-292.28" y1="-358.88" x2="-291.96" y2="-358.88" gradientTransform="matrix(111.24, 0, 0, -111.24, 32585.87, -39854.46)" xlink:href="#linear-gradient"/><linearGradient id="linear-gradient-3" x1="-294.89" y1="-360.09" x2="-294.57" y2="-360.09" gradientTransform="matrix(52.95, 0, 0, -52.95, 15717.7, -18999.38)" xlink:href="#linear-gradient"/><linearGradient id="linear-gradient-4" x1="-293.66" y1="-359.18" x2="-293.34" y2="-359.18" gradientTransform="matrix(87.77, 0, 0, -87.77, 25890.89, -31457.53)" xlink:href="#linear-gradient"/><linearGradient id="linear-gradient-5" x1="-290.94" y1="-359.42" x2="-290.61" y2="-359.42" gradientTransform="matrix(74.7, 0, 0, -74.7, 21734.07, -26781.31)" gradientUnits="userSpaceOnUse"><stop offset="0" stop-color="#036c43"/><stop offset="0.14" stop-color="#1d8248"/><stop offset="0.35" stop-color="#42a14e"/><stop offset="0.53" stop-color="#58b453"/><stop offset="0.64" stop-color="#60bb54"/><stop offset="1" stop-color="#3a813e"/></linearGradient><linearGradient id="linear-gradient-6" x1="-291.47" y1="-359.29" x2="-291.15" y2="-359.29" gradientTransform="matrix(81.23, 0, 0, -81.23, 23696.95, -29116.04)" xlink:href="#linear-gradient-5"/><linearGradient id="linear-gradient-7" x1="-292.09" y1="-359.24" x2="-291.76" y2="-359.24" gradientTransform="matrix(84.04, 0, 0, -84.04, 24593.67, -30121.74)" xlink:href="#linear-gradient-5"/><linearGradient id="linear-gradient-8" x1="-294.17" y1="-360.58" x2="-293.85" y2="-360.58" gradientTransform="matrix(59.16, 0, 0, -59.16, 17496.98, -21284.73)" xlink:href="#linear-gradient-5"/><linearGradient id="linear-gradient-9" x1="107.66" y1="37.37" x2="107.67" y2="37.37" gradientTransform="matrix(0, 0.01, 0.01, 0, 372.69, 147.87)" xlink:href="#linear-gradient-5"/><linearGradient id="linear-gradient-10" x1="112.9" y1="37.47" x2="112.9" y2="37.47" gradientTransform="matrix(0, 0, 0, 0, 340.17, -148.88)" xlink:href="#linear-gradient-5"/><linearGradient id="linear-gradient-11" x1="-10058.75" y1="-5838.71" x2="-10058.37" y2="-5838.71" gradientTransform="matrix(0.03, 0, 0, -0.03, 436.54, -121.82)" xlink:href="#linear-gradient-5"/><linearGradient id="linear-gradient-12" x1="149.71" y1="37.09" x2="149.71" y2="37.09" gradientTransform="matrix(0.01, 0, 0, -0.01, 453.93, -150.85)" xlink:href="#linear-gradient-5"/><linearGradient id="linear-gradient-13" x1="134.36" y1="37.29" x2="134.37" y2="37.29" gradientTransform="matrix(0, 0, 0, 0, 443.09, 155.11)" xlink:href="#linear-gradient-5"/><linearGradient id="linear-gradient-14" x1="124.85" y1="37.25" x2="124.85" y2="37.25" gradientTransform="matrix(0.01, 0, 0, -0.01, 377.84, -150.63)" xlink:href="#linear-gradient-5"/><linearGradient id="linear-gradient-15" x1="130.8" y1="36.35" x2="130.8" y2="36.35" gradientTransform="matrix(0.01, 0, 0, -0.01, 396.13, -153.4)" xlink:href="#linear-gradient-5"/><linearGradient id="linear-gradient-16" x1="-292.95" y1="-359.34" x2="-292.62" y2="-359.34" gradientTransform="matrix(115.85, 0, 0, -115.85, 34051.47, -41590.55)" xlink:href="#linear-gradient-5"/><linearGradient id="linear-gradient-17" x1="112.31" y1="49.85" x2="112.31" y2="49.85" gradientTransform="matrix(0, 0, 0, 0, 337.73, -110.02)" xlink:href="#linear-gradient-5"/><linearGradient id="linear-gradient-18" x1="-291.27" y1="-359.65" x2="-290.94" y2="-359.65" gradientTransform="matrix(5.03, -144.63, -144.63, -5.03, -50376.37, -43830.93)" xlink:href="#linear-gradient"/><linearGradient id="linear-gradient-19" x1="-276.34" y1="-365.04" x2="-276.01" y2="-365.04" gradientTransform="matrix(18.59, 0, 0, -18.59, 5310.66, -6724.21)" xlink:href="#linear-gradient"/><linearGradient id="linear-gradient-20" x1="-291.27" y1="-359.77" x2="-290.94" y2="-359.77" gradientTransform="matrix(5.03, -144.63, -144.63, -5.03, -50402.24, -43832.57)" xlink:href="#linear-gradient"/><linearGradient id="linear-gradient-21" x1="-280.07" y1="-362.98" x2="-279.74" y2="-362.98" gradientTransform="matrix(26.66, 0, 0, -26.66, 7631.61, -9617.95)" xlink:href="#linear-gradient"/><linearGradient id="linear-gradient-22" x1="-291.26" y1="-359.54" x2="-290.94" y2="-359.54" gradientTransform="matrix(5.03, -144.63, -144.63, -5.03, -50353.17, -43829.4)" xlink:href="#linear-gradient"/><linearGradient id="linear-gradient-23" x1="-281.31" y1="-362.97" x2="-280.98" y2="-362.97" gradientTransform="matrix(26.67, 0, 0, -26.67, 7681.51, -9618.22)" xlink:href="#linear-gradient"/><linearGradient id="linear-gradient-24" x1="-289.32" y1="-355.65" x2="-289" y2="-355.65" gradientTransform="matrix(0.63, 124.51, 124.51, -0.63, 44640.74, 35826.91)" xlink:href="#linear-gradient"/><linearGradient id="linear-gradient-25" x1="-288.76" y1="-358.95" x2="-288.43" y2="-358.95" gradientTransform="matrix(139.26, 0, 0, -139.26, 40366.59, -49938.23)" xlink:href="#linear-gradient"/><linearGradient id="linear-gradient-26" x1="-291.99" y1="-355.37" x2="-291.66" y2="-355.37" gradientTransform="matrix(3.91, -111.98, 111.98, 3.91, 41113.6, -31237.43)" xlink:href="#linear-gradient"/><linearGradient id="linear-gradient-27" x1="-291.64" y1="-358.14" x2="-291.31" y2="-358.14" gradientTransform="matrix(230.5, -46, -46, -230.5, 50813.61, -95894.63)" xlink:href="#linear-gradient"/><linearGradient id="linear-gradient-28" x1="-291.64" y1="-358.11" x2="-291.32" y2="-358.11" gradientTransform="matrix(230.5, -46, -46, -230.5, 50816.47, -95881.98)" xlink:href="#linear-gradient"/><linearGradient id="linear-gradient-29" x1="-291.64" y1="-358.07" x2="-291.32" y2="-358.07" gradientTransform="matrix(230.5, -46, -46, -230.5, 50819.43, -95871.46)" xlink:href="#linear-gradient"/></defs><path class="cls-1" d="M102.39,40.61A3.88,3.88,0,0,0,101,37.43a6.55,6.55,0,0,0-4.13-1.15,12.32,12.32,0,0,0-7,2.37,13.72,13.72,0,0,0-4.56,5.23,22.61,22.61,0,0,1-1.73,3.28,7.19,7.19,0,0,1-2.84,2.59,5.74,5.74,0,0,1-2.11.58,2.41,2.41,0,0,1-1.47-.55,1.73,1.73,0,0,1-.48-1.27c0-.09,0-.19,0-.29h0a4.53,4.53,0,0,1,.08-.49h0l.1-.4V46.8a2.64,2.64,0,0,0-.59-1.67h0l-.18-.2h0L71,39.43l-1.86-2h0l0,0-.2-.21h0a4.73,4.73,0,0,1-1-1.72l6.86-2.6,2.87-1.1.47-.18h0c2.88-1.09,4.49-1.51,5.55-1.5h0a3.17,3.17,0,0,1,1.2.21,7.18,7.18,0,0,1,1.14.61l1.14.73-.57-1.23a3.93,3.93,0,0,0-1.61-1.76,4.77,4.77,0,0,0-2.42-.6h0a6.43,6.43,0,0,0-1.14.1,16.7,16.7,0,0,0-2.2.61c-.94.32-2.08.73-3.29,1.2l-.79.3h0l-3.32,1.29h0l-.44.17L67.38,33.2l-.17.07-.1,0h0a3.43,3.43,0,0,1-.79.2h-.23L66,33.7l-.51,1.35c-.06.25-.14.77-.14.77h0v0h0a.71.71,0,0,0,0,.14,3.13,3.13,0,0,0,.08.7h0a3,3,0,0,0,.26.75,10.18,10.18,0,0,0,2.2,3.12h0c.45.5,1.92,2.09,3.37,3.66l1.47,1.59,1.57,1.72h0c.17.18.3.33.4.45l.08.11a5.55,5.55,0,0,1-1.44,1.29h0a5.38,5.38,0,0,1-2.62.93H53.46a2.07,2.07,0,0,1-1.41-.53l0,0a1.4,1.4,0,0,1-.35-.53h0a2,2,0,0,1-.12-.73h0a9.29,9.29,0,0,1,1.07-3.46l2.28-4.84v0l.32-.67a9,9,0,0,1,.68-1.41,2.18,2.18,0,0,1,.5-.54,1,1,0,0,1,.58-.19h0a2.39,2.39,0,0,0,.42,0,1.72,1.72,0,0,0,.28-.08h0a.62.62,0,0,0,.31-.28h0a.6.6,0,0,0,.05-.22h0v0a.42.42,0,0,0-.12-.3h0a.56.56,0,0,0-.29-.17h0l-.21,0H52.92l-.18,0a.4.4,0,0,0-.15,0,.66.66,0,0,0-.31.24.27.27,0,0,0-.07.12.88.88,0,0,0,0,.19.8.8,0,0,0,0,.16l.06.11a.47.47,0,0,0,.23.17h0a.87.87,0,0,0,.3.07h.33l.19,0,0,0h0s0,0,0,.07h0a1.11,1.11,0,0,1-.06.3,2.3,2.3,0,0,1-.16.43h0c-.13.31-.31.65-.45,1-.29.63-.95,2.06-2.51,5.41a15.74,15.74,0,0,1-2.39,3.78,5.23,5.23,0,0,1-3.91,1.9,2.1,2.1,0,0,1-1.56-.47,1.16,1.16,0,0,1-.3-.49,2,2,0,0,1-.1-.69h0a6,6,0,0,1,.34-1.78A19.61,19.61,0,0,1,43,45h0l3-6.38.14-.31a2.21,2.21,0,0,1,.41-.6h0a.86.86,0,0,1,.59-.27h.28a2.17,2.17,0,0,0,.48-.05h0a1,1,0,0,0,.27-.11.67.67,0,0,0,.24-.28h0a.45.45,0,0,0,.05-.22h0a.46.46,0,0,0-.13-.32h0a.61.61,0,0,0-.29-.16h0l-.22,0h-4.5a1,1,0,0,0-.36.06,1.42,1.42,0,0,0-.34.23l0,.1h0a.68.68,0,0,0,0,.2,1,1,0,0,0,.1.29.59.59,0,0,0,.26.17h0a1.22,1.22,0,0,0,.3.06h.27l.24,0,0,0h0v0h0a1.13,1.13,0,0,1-.05.24c0,.1-.08.22-.13.35h0c-.11.26-.27.56-.41.87-.28.59-1,2.06-2.64,5.68a16,16,0,0,1-1.64,2.89,6.92,6.92,0,0,1-2.53,2.17l0,0a5.09,5.09,0,0,1-2.06.6h0a2,2,0,0,1-1.39-.54h0a2.52,2.52,0,0,1-.36-.53,2,2,0,0,1-.12-.72h0a5.71,5.71,0,0,1,.33-1.68A19.56,19.56,0,0,1,33.53,45l.27-.58c.69-1.38,2.56-5.43,2.72-5.78h0l0-.07h0a2.62,2.62,0,0,1,.48-.8,1,1,0,0,1,.84-.34,3.08,3.08,0,0,0,.53,0h0a.87.87,0,0,0,.25-.1h0a.51.51,0,0,0,.24-.26.52.52,0,0,0,.06-.23h0a.45.45,0,0,0-.12-.31.55.55,0,0,0-.3-.17h0l-.21,0H33.87a1.56,1.56,0,0,0-.67.11.66.66,0,0,0-.13.51.46.46,0,0,0,.09.27h0a.51.51,0,0,0,.26.18h0a1.15,1.15,0,0,0,.31,0H34l.21,0,0,0h0v0h0a.81.81,0,0,1-.06.28h0c0,.13-.12.29-.19.45l0,.07h0c-.78,1.68-1.66,3.64-2.65,5.77l-.28.58a15.29,15.29,0,0,1-1.63,2.89,7,7,0,0,1-2.56,2.19h0a5.48,5.48,0,0,1-2.13.6H11a3.24,3.24,0,0,1-2.34-.73A2.44,2.44,0,0,1,8,47.76H8a8,8,0,0,1,.84-3.2,13.48,13.48,0,0,1,2-3l.56-.66H8.21L8.09,41h0a22.47,22.47,0,0,0-1.73,2.66,8.65,8.65,0,0,0-.9,3.59h0a4.36,4.36,0,0,0,1.46,3.41,5.51,5.51,0,0,0,3.67,1.22H24.42a9.6,9.6,0,0,0,5.78-2.29,3,3,0,0,0,1.1,1.51,4.58,4.58,0,0,0,2.72.79h0a9.62,9.62,0,0,0,5.62-2.28A2.73,2.73,0,0,0,40.52,51a4.4,4.4,0,0,0,3,.9h0a8.65,8.65,0,0,0,5.79-2.29,2.61,2.61,0,0,0,.86,1.32,4.35,4.35,0,0,0,2.22,1H70.83a8.72,8.72,0,0,0,2.43-.55,6.24,6.24,0,0,0,1.55-.94,2.89,2.89,0,0,0,1,.88,5.36,5.36,0,0,0,1.82.54l.59.08.26,0a9.7,9.7,0,0,0,6.07-3.12A3.88,3.88,0,0,0,86,50.8a6.26,6.26,0,0,0,3.82,1.08,12.63,12.63,0,0,0,6.79-2.22,14.17,14.17,0,0,0,5-5.71h0a8.61,8.61,0,0,0,.78-3.32Zm-8,8.6A6.82,6.82,0,0,1,91,50.31a4.23,4.23,0,0,1-2.71-.78,2.77,2.77,0,0,1-1-2.29h0a8.73,8.73,0,0,1,.94-3.52c1.87-4,5.06-5.92,8.12-5.92a3.52,3.52,0,0,1,2.29.7,2.68,2.68,0,0,1,.9,2.17h0a8.49,8.49,0,0,1-.94,3.47A11.46,11.46,0,0,1,94.4,49.21ZM37,37.76Z"/><path class="cls-2" d="M90.82,67.21,99.46,58H107l-8.1,19.27H92.55l6.14-14.6L85.9,77.29h-.28l-.19-14.08L79.54,77.29H73.7L81.79,58H90.6l.22,9.19m16.87-9.68-.45-.19.45.19m.74-.49H99l-7.3,7.77L91.56,57H81.14l-8.9,21.23h8l4.33-10.35.14,10.35h1.68l9.12-10.41L91.08,78.27h8.43L108.43,57"/><path class="cls-3" d="M104.45,77.29l8-19.24h6.26l-8,19.24h-6.24m15-19.73-.45-.19.45.19m.74-.49h-8.38L103,78.27h8.36l8.87-21.2"/><path class="cls-4" d="M131.59,63.32l4.66-5.27h6.14l-8.59,9.3,5.42,9.94H133l-3.22-5.9-5,5.9h-6.45l9.22-10-5-9.22h6.17l2.94,5.27m11.92-5.76-.36-.33.36.33m1.11-.49H135.8l-4,4.57-2.55-4.57h-8.39l5.49,10.06L116.07,78.27h9.12l4.42-5.17,2.83,5.17h8.43L135,67.5l9.63-10.43"/><path class="cls-5" d="M25.44,64.77H18.79a2.18,2.18,0,0,0-.88-1.83,3,3,0,0,0-2-.66,6.5,6.5,0,0,0-2.49.49c-1,.43-1.51,1-1.51,1.77s.66,1,2,1l.72,0,.72,0q7.76,0,7.75,4.47,0,4-4.22,6.41a15.63,15.63,0,0,1-7.88,2,13.07,13.07,0,0,1-6.64-1.46,6.4,6.4,0,0,1-3.22-5.66H7.31v.08a1.47,1.47,0,0,0,.9,1.29A3.36,3.36,0,0,0,9.83,73c2.59,0,3.89-.63,3.89-1.88,0-.66-.93-1-2.77-1H10.2c-.35,0-.6,0-.76,0a8.62,8.62,0,0,1-3.79-.72,3.18,3.18,0,0,1-1.95-3A7.71,7.71,0,0,1,6,61q3.81-4,10.48-4a10.58,10.58,0,0,1,6.31,1.66,6.6,6.6,0,0,1,2.63,5.73Z"/><path class="cls-6" d="M25.44,64.77v-.09H18.79v.09h.09a2.31,2.31,0,0,0-.92-1.9l-.05.07.05-.07a3.14,3.14,0,0,0-2-.67,6.48,6.48,0,0,0-2.52.5h0a3,3,0,0,0-1.16.78,1.61,1.61,0,0,0-.4,1.06.84.84,0,0,0,.54.79,3.57,3.57,0,0,0,1.52.25l.73,0,.71,0a11.79,11.79,0,0,1,5.77,1.1A3.52,3.52,0,0,1,23,69.9c0,2.63-1.38,4.74-4.19,6.34a15.53,15.53,0,0,1-7.83,2,13,13,0,0,1-6.6-1.45,6.32,6.32,0,0,1-3.18-5.59H1.14v.08H7.23a1.55,1.55,0,0,0,.94,1.36,3.41,3.41,0,0,0,1.66.42,7.08,7.08,0,0,0,2.95-.48,1.58,1.58,0,0,0,1-1.48.71.71,0,0,0-.2-.49,1.79,1.79,0,0,0-.95-.43,7.94,7.94,0,0,0-1.7-.14h-.76c-.34,0-.59,0-.75,0a8.63,8.63,0,0,1-3.76-.71h0a3.12,3.12,0,0,1-1.9-3A7.65,7.65,0,0,1,6.08,61q3.78-4,10.42-4a10.46,10.46,0,0,1,6.26,1.65,6.51,6.51,0,0,1,2.6,5.66v.4h.08v0h.08v-.4a6.71,6.71,0,0,0-2.66-5.8,10.71,10.71,0,0,0-6.36-1.68q-6.69,0-10.54,4a7.77,7.77,0,0,0-2.34,5.49,3.26,3.26,0,0,0,2,3.11h0a8.69,8.69,0,0,0,3.83.73h.76l.75,0a6.52,6.52,0,0,1,2.05.24,1.2,1.2,0,0,1,.48.29.53.53,0,0,1,.15.37,1.39,1.39,0,0,1-.92,1.33,6.8,6.8,0,0,1-2.88.47,3.31,3.31,0,0,1-1.58-.4,1.38,1.38,0,0,1-.86-1.22v-.17H1.05v.09A6.48,6.48,0,0,0,4.31,77,13.22,13.22,0,0,0,11,78.42a15.62,15.62,0,0,0,7.91-2c2.84-1.62,4.28-3.79,4.27-6.48a3.68,3.68,0,0,0-2-3.42,12.11,12.11,0,0,0-5.86-1.13c-.17,0-.41,0-.73,0l-.71,0a3.52,3.52,0,0,1-1.45-.23.7.7,0,0,1-.44-.65,1.4,1.4,0,0,1,.35-1,2.86,2.86,0,0,1,1.1-.74h0a6.35,6.35,0,0,1,2.46-.49,3,3,0,0,1,1.93.64h0a2.12,2.12,0,0,1,.85,1.77v.08h6.81v-.08Z"/><path class="cls-7" d="M48.33,57.56,45.44,77.78h-7l.43-2.94H31.77l-2.21,2.94H21.9L37.32,57.56ZM40.91,62.3l-5.79,7.53h4.67Z"/><path class="cls-6" d="M48.33,57.56h-.09L45.36,77.7H38.53L39,74.76H31.73L29.52,77.7H22.07L37.36,57.65h11v-.09h0v-.08h-11L21.74,77.86H29.6l2.21-2.93h7l-.42,2.93h7.17l2.91-20.38h-.09ZM40.91,62.3l-.06,0L35,69.91h4.91L41,62l-.19.25.06,0h-.08l-1.11,7.46H35.28l5.7-7.4-.07-.05h0Z"/><path class="cls-8" d="M74.84,62.23a6.13,6.13,0,0,1-1.78,4.32,5.61,5.61,0,0,1-4.23,1.92,2.67,2.67,0,0,1,2,1.1,3.49,3.49,0,0,1,.67,2.2,22.83,22.83,0,0,1-1.7,6H63a15.18,15.18,0,0,0,1.31-4.32q0-2.74-3.32-2.75H57.66l-2.94,7.07H47.5L56,57.55H68.37a8.46,8.46,0,0,1,4.35,1A4,4,0,0,1,74.84,62.23ZM67.7,63.46c0-.85-.7-1.27-2.1-1.27H61.27l-1.84,4.22h3.85c2.61,0,4.08-.89,4.39-2.69A2.23,2.23,0,0,0,67.7,63.46Z"/><path class="cls-6" d="M74.84,62.23h-.08A6,6,0,0,1,73,66.49a5.52,5.52,0,0,1-4.13,1.9h0v.16a2.59,2.59,0,0,1,1.94,1.07h0a3.46,3.46,0,0,1,.65,2.15,23.18,23.18,0,0,1-1.69,6l.07,0V77.7H63v.08l.07,0a14.9,14.9,0,0,0,1.32-4.35,2.63,2.63,0,0,0-.86-2.13,3.93,3.93,0,0,0-2.54-.7H57.61L54.67,77.7H47.62l8.45-20.07h12.3a8.38,8.38,0,0,1,4.31,1,4,4,0,0,1,2.08,3.6h.16a4.12,4.12,0,0,0-2.16-3.74,8.64,8.64,0,0,0-4.39-1H56L47.38,77.86h7.39l2.94-7.07H61a3.76,3.76,0,0,1,2.44.67,2.43,2.43,0,0,1,.79,2,14.64,14.64,0,0,1-1.29,4.29l0,.11h7l0,0a23.65,23.65,0,0,0,1.71-6,3.61,3.61,0,0,0-.69-2.25l-.07,0,.07,0a2.76,2.76,0,0,0-2-1.13v.16h0a5.67,5.67,0,0,0,4.25-2,6.19,6.19,0,0,0,1.8-4.37ZM67.7,63.46h.09a1.13,1.13,0,0,0-.57-1,3.1,3.1,0,0,0-1.62-.34H61.22L59.3,66.5h4a5.94,5.94,0,0,0,3.1-.69,2.91,2.91,0,0,0,1.37-2.08h0c0-.13,0-.22,0-.27h-.17a2.42,2.42,0,0,1,0,.25h0a2.73,2.73,0,0,1-1.3,2,5.72,5.72,0,0,1-3,.66H59.55l1.77-4.06H65.6a3,3,0,0,1,1.53.3,1,1,0,0,1,.49.89Z"/><polygon class="cls-6" points="112.9 37.47 112.94 37.54 112.94 37.54 113.45 37.2 112.82 37.41 112.82 37.47 112.82 37.62 112.94 37.54 112.9 37.47 112.98 37.47 112.98 37.47 112.9 37.47 112.92 37.55 112.92 37.55 112.9 37.47 112.85 37.4 112.85 37.4 112.9 37.47 112.98 37.47 112.9 37.47"/><path class="cls-9" d="M112.51,37.55h0a.88.88,0,0,0,.39-.08.86.86,0,0,0,.4-.42l-.11,0,.11,0h0a.64.64,0,0,0,0-.1.48.48,0,0,0,0-.18h0a.58.58,0,0,0,0-.19.66.66,0,0,0-.11-.2h0a.64.64,0,0,0-.38-.22h0a1.27,1.27,0,0,0-.28,0h0c-1.47,0-3,0-4.41,0H108l-.1,0a.75.75,0,0,0-.3.2h0a.59.59,0,0,0-.12.2l0,.06v0a.58.58,0,0,0,0,.19h0a.6.6,0,0,0,.06.27.62.62,0,0,0,.16.2.75.75,0,0,0,.23.15l.18,0h0l.42,0h0l0,0h.07a1.2,1.2,0,0,1,0,.23h0a2.78,2.78,0,0,1-.16.4h0c-.39.84-1.82,3.83-4.29,9.13a22.55,22.55,0,0,1-3,5.2,8.15,8.15,0,0,1-1.41,1.29A20.67,20.67,0,0,1,97.89,55l-3.77,2.2,4.2-1.18a12.49,12.49,0,0,0,6.54-4.48h0l0,0a19.46,19.46,0,0,0,1.19-2c.45-.87,1-1.9,1.48-3l1.93-4.18,1.71-3.67h0a2.72,2.72,0,0,1,.58-.88h0a1,1,0,0,1,.31-.2A1.29,1.29,0,0,1,112.51,37.55Z"/><path class="cls-6" d="M112.51,37.55v-.08h0v.16a.89.89,0,0,0,.42-.09.88.88,0,0,0,.44-.45l0-.08-.18-.08,0,.07,0,.08.12,0,0-.08,0,.07h0l.08,0,0-.08,0-.1a1.2,1.2,0,0,0,0-.2h0a.54.54,0,0,0,0-.22h0a.69.69,0,0,0-.12-.22h0l-.06,0,.06,0h0a.75.75,0,0,0-.43-.25v.08l0-.08h0l0,.08,0-.08a1.53,1.53,0,0,0-.3,0h0c-1.47,0-3,0-4.41,0H108l-.12,0a.9.9,0,0,0-.33.23l.06,0-.06,0h0a.56.56,0,0,0-.1.15l0,0h0l0,0,0,0h0l0,0,0,0h0l0,.07v.06h.08l-.07,0a.78.78,0,0,0,0,.22h.08V36.8h-.08v.09h0a.74.74,0,0,0,.07.31h0a.72.72,0,0,0,.17.23.91.91,0,0,0,.27.15l.18,0,0-.08,0,.08h0a2.38,2.38,0,0,0,.43,0v-.17h0v.17h0l0,0h.09v-.08h-.08a1.12,1.12,0,0,1,0,.22l.08,0-.08,0h0a2.78,2.78,0,0,1-.16.4l.15.07h0l-.07,0-.08,0c-.39.83-1.82,3.82-4.28,9.12a22.4,22.4,0,0,1-3,5.19,8.35,8.35,0,0,1-1.39,1.28c-.52.37-1.1.73-1.81,1.15L93.54,57.5l4.8-1.36a12.57,12.57,0,0,0,6.58-4.51l-.06-.05.06.06h0l0,0a18.74,18.74,0,0,0,1.19-2c.46-.86,1-1.89,1.48-3,.63-1.34,1.29-2.8,1.93-4.17l1.71-3.67-.07,0,.07,0h0l-.14-.07h0l.07,0,.07,0a2.65,2.65,0,0,1,.56-.86l-.1-.13h0l0,.07,0,.06a1.2,1.2,0,0,1,.29-.19,1.41,1.41,0,0,1,.4-.06v-.16a1.42,1.42,0,0,0-.45.07,1.08,1.08,0,0,0-.35.22l.1.12h0l0-.06,0-.06a2.47,2.47,0,0,0-.6.91l.14.07h0l-.14-.07h0c-.48,1-.82,1.74-1.72,3.67-.64,1.37-1.3,2.83-1.93,4.18-.51,1.1-1,2.13-1.47,3a18.12,18.12,0,0,1-1.19,2h0A12.37,12.37,0,0,1,98.3,56l-3.59,1,3.22-1.88c.71-.42,1.3-.78,1.82-1.16a8.36,8.36,0,0,0,1.43-1.31,22.57,22.57,0,0,0,3-5.22c2.47-5.3,3.9-8.29,4.29-9.12l-.15-.07h0l.08,0,.07,0c.06-.13.12-.28.17-.42l-.08,0,.07,0h0c0-.09,0-.18,0-.25v-.1h-.21v.17h0v-.17a3,3,0,0,1-.4,0h0a.45.45,0,0,1-.17,0,.71.71,0,0,1-.21-.13.62.62,0,0,1-.14-.18l-.07,0,.07,0a.6.6,0,0,1,0-.24h0v0h-.08V37h.08v-.08a.51.51,0,0,1,0-.17h0v0l0,0-.07,0,.07,0v0a1.21,1.21,0,0,1,.1-.16l-.06-.05.06.05h0a.75.75,0,0,1,.27-.19l.09,0h.09c1.43,0,2.94,0,4.41,0h0l.27,0h0l0-.08,0,.08h0a.59.59,0,0,1,.34.19l.06,0-.07,0h0a.43.43,0,0,1,.09.16h0a.51.51,0,0,1,0,.17h0a.38.38,0,0,1,0,.16.92.92,0,0,0,0,.09l.07,0,0-.07h0l-.12,0-.06.15.12.05,0-.08-.08,0a.65.65,0,0,1-.36.37.8.8,0,0,1-.35.08v.16h0v-.08Z"/><rect class="cls-10" x="107.66" y="37.37" transform="translate(26.09 116.96) rotate(-63.43)"/><polygon class="cls-6" points="107.66 37.37 107.61 37.43 107.61 37.43 107.72 37.32 107.72 37.32 107.72 37.31 107.71 37.31 107.66 37.37 107.62 37.44 107.62 37.44 107.66 37.37 107.61 37.43 107.66 37.37 107.71 37.3 107.71 37.3 107.61 37.44 107.61 37.44 107.67 37.37 107.61 37.43 107.61 37.43 107.72 37.32 107.72 37.32 107.72 37.31 107.71 37.3 107.66 37.37"/><polygon class="cls-11" points="112.9 37.47 112.9 37.47 112.9 37.47 112.9 37.47"/><polygon class="cls-6" points="112.9 37.47 112.9 37.39 112.9 37.39 112.86 37.39 112.84 37.41 112.63 37.62 112.92 37.55 113.56 37.39 112.9 37.39 112.9 37.47 112.88 37.39 112.88 37.39 112.9 37.47 112.96 37.53 112.96 37.53 112.9 37.47 112.9 37.55 112.9 37.55 112.9 37.47 112.88 37.39 112.9 37.47"/><polygon class="cls-12" points="141.83 49.25 141.83 49.25 141.82 49.26 141.83 49.25"/><polygon class="cls-6" points="141.83 49.25 141.77 49.19 141.77 49.19 141.76 49.2 141.88 49.31 141.89 49.3 141.77 49.19 141.83 49.25 141.77 49.19 141.76 49.2 141.88 49.31 141.89 49.3 141.89 49.3 141.77 49.19 141.83 49.25"/><polygon class="cls-13" points="149.71 37.09 149.71 37.09 149.71 37.09 149.71 37.09"/><polygon class="cls-6" points="149.71 37.09 149.64 37.05 149.63 37.05 149.63 37.06 149.71 37.09 149.78 37.13 149.78 37.12 149.71 37.09 149.64 37.05 149.71 37.09 149.64 37.05 149.63 37.06 149.78 37.13 149.78 37.13 149.78 37.13 149.78 37.12 149.64 37.05 149.71 37.09"/><polygon class="cls-6" points="112.31 49.85 112.39 49.85 112.39 49.85 112.39 49.77 112.31 49.77 112.17 49.77 112.23 49.89 112.39 50.2 112.39 49.85 112.31 49.85 112.38 49.81 112.38 49.81 112.31 49.85 112.31 49.93 112.31 49.93 112.31 49.85 112.22 49.85 112.22 49.85 112.31 49.85 112.38 49.81 112.31 49.85"/><rect class="cls-14" x="134.36" y="37.29" transform="translate(27.38 126.73) rotate(-55.41)"/><polygon class="cls-6" points="134.36 37.29 134.31 37.35 134.31 37.35 134.55 37.59 134.43 37.24 134.41 37.23 134.03 36.94 134.3 37.34 134.31 37.35 134.36 37.29 134.43 37.25 134.43 37.24 134.36 37.29 134.31 37.35 134.31 37.36 134.36 37.29 134.29 37.32 134.29 37.32 134.37 37.29 134.42 37.23 134.42 37.23 134.36 37.29 134.43 37.25 134.36 37.29"/><polygon class="cls-15" points="124.85 37.25 124.85 37.25 124.85 37.25 124.85 37.25"/><polygon class="cls-6" points="124.85 37.25 124.85 37.34 124.85 37.34 125.03 37.34 124.91 37.2 124.78 37.3 124.78 37.3 124.81 37.34 124.85 37.34 124.85 37.25 124.91 37.21 124.91 37.2 124.85 37.25 124.78 37.3 124.79 37.31 124.85 37.25 124.85 37.17 124.85 37.17 124.85 37.25 124.91 37.21 124.85 37.25"/><rect class="cls-16" x="130.8" y="36.35"/><polygon class="cls-6" points="130.8 36.35 130.86 36.31 130.86 36.31 130.79 36.35 130.73 36.4 130.73 36.4 130.73 36.41 130.74 36.41 130.85 36.3 130.85 36.29 130.8 36.35 130.86 36.31 130.8 36.35 130.74 36.41 130.74 36.41 130.85 36.3 130.85 36.3 130.8 36.35 130.86 36.3 130.86 36.3 130.73 36.4 130.73 36.4 130.73 36.4 130.74 36.41 130.8 36.35"/><path class="cls-17" d="M149.63,36.39h0a.76.76,0,0,0-.38-.23h0a1,1,0,0,0-.28,0h0l-4.41,0h0a.84.84,0,0,0-.4.12h0a.63.63,0,0,0-.25.3v0h0l0,.08a.64.64,0,0,0,0,.2h0v0a.78.78,0,0,0,0,.22.64.64,0,0,0,.14.21h0a.65.65,0,0,0,.23.15.9.9,0,0,0,.19,0h0a2.42,2.42,0,0,0,.4,0h.11v.1h0a.81.81,0,0,1,0,.17v0h0V38a.87.87,0,0,0,0,.12h0c-.26.57-1.26,2.75-3,6.51h0a14.15,14.15,0,0,1-2.45,3.78,6.47,6.47,0,0,1-1.7,1.3,4.3,4.3,0,0,1-2,.5A2.23,2.23,0,0,1,135,50a2,2,0,0,1-.59-.38,1.24,1.24,0,0,1-.34-.48h0a1.81,1.81,0,0,1-.1-.65h0a5.32,5.32,0,0,1,.32-1.6,18.15,18.15,0,0,1,.79-1.86c2.08-4.48,2.51-5.33,3.16-6.73a1.55,1.55,0,0,1,.41-.57.93.93,0,0,1,.6-.18h0a2.83,2.83,0,0,0,.58,0h0a1.07,1.07,0,0,0,.32-.12h0a.75.75,0,0,0,.3-.33h0a.72.72,0,0,0,.07-.28h0v0h0a.6.6,0,0,0-.15-.39h0a.74.74,0,0,0-.37-.23h0a.89.89,0,0,0-.27,0h-4.47l-.29,0a1,1,0,0,0-.29.11h0a.88.88,0,0,0-.24.23h0a.59.59,0,0,0,0,.08h0v0a.58.58,0,0,0-.07.28h0a.55.55,0,0,0,.13.38.75.75,0,0,0,.18.15l.13.05h0a1.51,1.51,0,0,0,.31.06h0l.4,0h0l0,.08h0c0,.13-.11.3-.2.51h0l-.3.68-2.67,5.7a14.13,14.13,0,0,1-2.44,3.77,6.44,6.44,0,0,1-1.7,1.32,4.35,4.35,0,0,1-2,.5,2.35,2.35,0,0,1-.84-.13,1,1,0,0,1-.6-.48h0a1.85,1.85,0,0,1-.19-.9h0a6.21,6.21,0,0,1,.31-1.72,15.15,15.15,0,0,1,.74-1.87l0-.07h0l3-6.54h0l.09-.18a1.32,1.32,0,0,1,.33-.49.86.86,0,0,1,.25-.14,1.45,1.45,0,0,1,.42-.06,3,3,0,0,0,.61,0h0a.83.83,0,0,0,.32-.13h0a.91.91,0,0,0,.27-.32h0v0a.64.64,0,0,0,.07-.27h0a.71.71,0,0,0,0-.21.88.88,0,0,0-.12-.2.72.72,0,0,0-.22-.15l-.16-.05h0a1.18,1.18,0,0,0-.26,0h-4.47l-.29,0a1,1,0,0,0-.28.1h0a.63.63,0,0,0-.24.21h0a.55.55,0,0,0-.08.14h0a.84.84,0,0,0-.06.24h0a.61.61,0,0,0,.13.37.71.71,0,0,0,.3.23h0a1.47,1.47,0,0,0,.37.1h0l.39.06a1,1,0,0,1,0,.14h0a3.34,3.34,0,0,1-.16.38l-3,6.42a15.91,15.91,0,0,1-1.62,2.87,6.85,6.85,0,0,1-2.5,2.13l-.07,0h0a4.88,4.88,0,0,1-2,.55h-.14a2.08,2.08,0,0,1-1.27-.5,1.06,1.06,0,0,1-.25-.44,1.89,1.89,0,0,1-.09-.62h0a5.51,5.51,0,0,1,.33-1.68,18.18,18.18,0,0,1,.76-1.86l6.95-14.82h0a2,2,0,0,1,.22-.38.88.88,0,0,1,.23-.21h0a2,2,0,0,1,1-.18h0a.8.8,0,0,0,.42-.13h0A.91.91,0,0,0,125,29h0v0h0a.73.73,0,0,0,.06-.28h0a.55.55,0,0,0-.06-.26.49.49,0,0,0-.16-.2h0a.85.85,0,0,0-.23-.12h0a2.39,2.39,0,0,0-.35,0h-4.19a1.6,1.6,0,0,0-.45.07h0a.83.83,0,0,0-.26.17.74.74,0,0,0-.09.12.8.8,0,0,0-.08.16l0,.08a.33.33,0,0,0,0,.12h0v.05h0a.67.67,0,0,0,.09.26.76.76,0,0,0,.25.24h0a2.69,2.69,0,0,0,.31.12h0l.22.05a1.19,1.19,0,0,1-.08.22c-.09.22-.22.51-.39.86h0l-5.56,11.94c-.49,1-1,2.1-1.34,3.11a8.93,8.93,0,0,0-.63,2.89h0a3.51,3.51,0,0,0,.23,1.29,2.9,2.9,0,0,0,1.33,1.51h0a5.75,5.75,0,0,0,2.15.64h0l.38,0,.19,0a9.63,9.63,0,0,0,5.53-2.15,2.88,2.88,0,0,0,.82,1.16,5.21,5.21,0,0,0,3,1h.06a8.63,8.63,0,0,0,3.33-.76,10.73,10.73,0,0,0,2.33-1.41,2.9,2.9,0,0,0,.82,1.23,4.53,4.53,0,0,0,3.11.94h0a8.6,8.6,0,0,0,6.48-2.79h0a21.19,21.19,0,0,0,3.54-5.74l2.42-5.18a1.41,1.41,0,0,1,.39-.54,1.11,1.11,0,0,1,.59-.21h0a2.49,2.49,0,0,0,.39-.06,1.09,1.09,0,0,0,.27-.11h0a.77.77,0,0,0,.28-.31h0a.73.73,0,0,0,.07-.3h0A.66.66,0,0,0,149.63,36.39Zm-14.19,1.13,9.47.38Z"/><path class="cls-6" d="M149.63,36.39l.06,0h0l-.13.09h0l.07,0,.06-.06a.77.77,0,0,0-.42-.25h0a1.06,1.06,0,0,0-.29,0h0l-4.41,0h0a.74.74,0,0,0-.44.14h0l.05.07,0-.08h0l-.07,0,0,.07.08,0-.05-.07a.93.93,0,0,0-.28.33v0h0l.08,0-.08,0s0,0,0,.1a.72.72,0,0,0,0,.22h.08v-.08h-.08v.11h0a.66.66,0,0,0,0,.25h0a.79.79,0,0,0,.15.24h0l.05-.06-.06.06a1.06,1.06,0,0,0,.26.17l.2.05,0-.08,0,.08h0c.12,0,.25,0,.41,0h.11v-.08h-.08v.09h0a.67.67,0,0,1,0,.16h0v0h0l.08,0-.08,0h0l.07,0-.07,0v0h0v0l.08,0-.08,0a.8.8,0,0,1-.05.11l.08,0,.07,0h0l-.15-.06c-.25.58-1.25,2.76-3,6.51l-.05.12h.12v-.08l-.07,0a14.1,14.1,0,0,1-2.44,3.76,6.51,6.51,0,0,1-1.68,1.29,4.24,4.24,0,0,1-2,.48A1.85,1.85,0,0,1,135,50a2.15,2.15,0,0,1-.57-.36l0,.06,0-.06a1.14,1.14,0,0,1-.31-.45l-.08,0,.08,0h0a1.61,1.61,0,0,1-.1-.62h0a5.09,5.09,0,0,1,.32-1.57,16.83,16.83,0,0,1,.78-1.86c2.09-4.47,2.51-5.32,3.17-6.72a1.55,1.55,0,0,1,.38-.55l-.05-.06.05.06a.84.84,0,0,1,.55-.16v0h0a2.93,2.93,0,0,0,.59,0v0h0l0-.08,0,.08a1,1,0,0,0,.34-.13l0-.07-.08,0h0l0,.09.08-.07-.05-.06,0,.08h0l.07,0,0-.08-.08,0,.05.07a.81.81,0,0,0,.32-.36l-.07,0-.05.07h0l.09.06,0-.1-.07,0,.07,0h0l0-.06,0,0-.06.06.07,0a.77.77,0,0,0,.08-.31h-.08v.08h.07V36.8h0a.72.72,0,0,0-.16-.44l-.07,0,.06.06h0l.06-.06-.06-.06-.06.06.07,0h0l-.06-.08-.07.07.06.06.06-.06a.77.77,0,0,0-.42-.25v.08l0-.08h0a1.06,1.06,0,0,0-.29,0h-4.47a1.12,1.12,0,0,0-.31,0,1,1,0,0,0-.31.11l0,.07,0-.07h0a.92.92,0,0,0-.26.26l.07,0v-.08h0l0,0,.07,0-.06-.06h0a.93.93,0,0,0-.05.1l.08,0-.07,0h0l0,0h0v0h0a.54.54,0,0,0-.08.31h.08v-.08h-.09v.09h0a.68.68,0,0,0,.16.42h0a.55.55,0,0,0,.21.17l.09,0,0,0h0v0h0v0h0a1.66,1.66,0,0,0,.33.06v-.08l0,.07h0l.38,0,0-.07,0,.07h0v-.08l-.08,0,0,.08.08,0-.08,0h0c0,.12-.11.28-.2.5l.15.06h0l-.15-.07h0c-.17.41-.28.63-.3.68l-2.66,5.7a14.41,14.41,0,0,1-2.42,3.74,6.43,6.43,0,0,1-1.69,1.3,4.06,4.06,0,0,1-2,.49h0a2.42,2.42,0,0,1-.81-.11l0,.07,0-.07a.94.94,0,0,1-.56-.45l0,0h0v.08l.07,0a1.78,1.78,0,0,1-.18-.86h0a6.15,6.15,0,0,1,.31-1.7,14.63,14.63,0,0,1,.73-1.86l0-.06v0h-.08l.07,0c1.73-3.74,2.74-5.91,3-6.53l-.07,0v.09h0l.11-.24a1.42,1.42,0,0,1,.31-.46h0a.71.71,0,0,1,.23-.12,1.18,1.18,0,0,1,.39-.06,3.13,3.13,0,0,0,.62,0v0h0l0-.08v.08a1,1,0,0,0,.36-.14l-.05-.07-.06.05h0l.05.07.07-.06-.06-.06,0,.07h0l.08,0,0-.08-.07,0,0,.06a.82.82,0,0,0,.29-.35h0v0l-.08,0,.08,0a.89.89,0,0,0,.07-.31h0v0h0a.79.79,0,0,0,0-.23h0a.68.68,0,0,0-.14-.22,1,1,0,0,0-.25-.18l-.17,0h0a1.27,1.27,0,0,0-.27,0h-4.47a1.51,1.51,0,0,0-.3,0,1.15,1.15,0,0,0-.31.11l.08.15h0l0-.07-.05-.07h0a1.07,1.07,0,0,0-.27.24h0l.07,0-.07,0a1,1,0,0,0-.09.15l.08,0v-.08h-.06l0,.06h0v0h.08l.06-.06h0l-.08-.09-.05.12,0,.11h.12v-.08l-.07,0h0l0,.09.08,0,0-.07-.07,0a.82.82,0,0,0-.07.28h.08v-.08h-.07V37h.09v-.17h-.07v.09h0a.7.7,0,0,0,.14.41.74.74,0,0,0,.34.25l0-.07,0,.07h0a1.6,1.6,0,0,0,.39.1v-.08l0,.08h0l.39.06v-.08l-.08,0a.65.65,0,0,1,0,.13l.08,0-.08,0h0v0h.08l-.08,0c0,.12-.1.26-.15.37l-3,6.42a16.59,16.59,0,0,1-1.61,2.85,6.77,6.77,0,0,1-2.47,2.11l0,.07,0-.07-.07,0h0l0,0,.07,0,0-.07a4.86,4.86,0,0,1-1.93.53h-.15v0a1.89,1.89,0,0,1-1.22-.47,1.07,1.07,0,0,1-.24-.4,2.08,2.08,0,0,1-.08-.6h0a5.61,5.61,0,0,1,.32-1.65,19.46,19.46,0,0,1,.76-1.85c1.44-3.08,5.07-10.78,7-14.83l-.15-.07h0l.08,0,.07,0a2,2,0,0,1,.22-.38h0a.68.68,0,0,1,.2-.18h0l0-.07,0,.07a1.85,1.85,0,0,1,1-.17h0v0a.87.87,0,0,0,.47-.15l-.05-.06.05.06h0l0-.06,0,.06a.91.91,0,0,0,.31-.33L125,29l-.06.05h0l.08.08,0-.1h0v0l0-.07-.07,0,0,.07.07,0a.65.65,0,0,0,.07-.31h-.08v.08h.08v-.09h-.08l.08,0h0l0-.1h-.1v.08h.08a.65.65,0,0,0-.06-.29h0a.8.8,0,0,0-.19-.23l0,.07.07,0h0l0-.07-.08-.05,0,.07,0-.06h0l-.07-.07,0,.08.06,0,0-.06a.86.86,0,0,0-.25-.13l0,.07,0-.07h0v.08l0-.08a1.15,1.15,0,0,0-.33,0h0v0h-4.19a1.3,1.3,0,0,0-.48.08l0,.07v-.08h0a.84.84,0,0,0-.28.18h0l-.1.13h0a.89.89,0,0,0-.08.17h0a.36.36,0,0,0,0,.09h0a.78.78,0,0,0,0,.14h.09V28.7h-.09v.09h0v.05h0v0l.07,0h-.08a.67.67,0,0,0,.1.29h0a.68.68,0,0,0,.28.27l0-.07,0,.07h0a1.22,1.22,0,0,0,.33.12h0l0-.08-.06.05h0l0,0h0a.9.9,0,0,0,.22.06l0-.08-.08,0-.07.21h0c-.09.22-.23.5-.39.85l.07,0-.07,0h0C118.45,32.93,114.71,41,114,42.52c-.49,1-1,2.11-1.34,3.13a9.19,9.19,0,0,0-.63,2.91h0a3.67,3.67,0,0,0,.23,1.32h0a3,3,0,0,0,1.37,1.55l.51.29-.42-.42,0,.06,0,.07a5.84,5.84,0,0,0,2.18.65V52l-.08,0h0l0,0h.07l.1,0h0l.29,0h0l.19,0A9.64,9.64,0,0,0,122,49.93l0-.06-.08,0a3,3,0,0,0,.85,1.19,5.2,5.2,0,0,0,3,1v0h.07a8.73,8.73,0,0,0,3.36-.76,10.34,10.34,0,0,0,2.35-1.43l-.05-.06-.07,0a3,3,0,0,0,.83,1.28,4.66,4.66,0,0,0,3.16.95h0a8.66,8.66,0,0,0,6.54-2.82h0l-.07,0,.06,0a21.18,21.18,0,0,0,3.55-5.75l2.42-5.18a1.33,1.33,0,0,1,.37-.52l0-.06,0,.06a1.1,1.1,0,0,1,.55-.19h0a2.59,2.59,0,0,0,.4-.06,1,1,0,0,0,.29-.13l0-.06-.06.05h0l.06.06.06-.06-.06-.05,0,.07h0l.07,0,0-.07-.07,0,0,.07a.83.83,0,0,0,.3-.34l-.07,0,.07,0h0a1.06,1.06,0,0,0,.08-.33h0a.72.72,0,0,0-.17-.45l-.06,0,.06,0-.06,0-.06,0a.52.52,0,0,1,.12.35h0a.67.67,0,0,1-.06.27l.08,0-.07,0h0a.64.64,0,0,1-.24.27l-.06,0,0,.07.07,0,0-.07h0l.06.06.06-.06h0l-.05-.05-.06,0a.87.87,0,0,1-.25.1,3.12,3.12,0,0,1-.37.06h0a1.13,1.13,0,0,0-.63.23h0a1.49,1.49,0,0,0-.42.57l-2.42,5.18a20.82,20.82,0,0,1-3.52,5.71h0l.07,0-.06-.06a8.78,8.78,0,0,1-2.73,2,8.68,8.68,0,0,1-3.69.78h0v0h0a4.46,4.46,0,0,1-3.05-.92,2.83,2.83,0,0,1-.79-1.2l0-.11-.09.07a10.22,10.22,0,0,1-2.31,1.41,8.65,8.65,0,0,1-3.3.75h-.06a5,5,0,0,1-2.89-1,2.64,2.64,0,0,1-.8-1.12l0-.11-.09.07a9.5,9.5,0,0,1-5.49,2.14l-.18,0-.37,0h-.09V52h.08l0-.08h0V52l.08,0h0v-.06h-.06a5.71,5.71,0,0,1-2.13-.62l-.52-.3.43.43.06-.06,0-.07a2.86,2.86,0,0,1-1.29-1.47h0a3.51,3.51,0,0,1-.21-1.26h0a8.53,8.53,0,0,1,.62-2.86c.36-1,.84-2.06,1.33-3.11l5.57-11.94-.08,0,.08,0h0c.16-.35.3-.63.39-.86h0l.08-.22,0-.09-.08,0-.22-.05,0,.08,0-.06h0v0h0l0,.08,0-.08-.3-.11,0,.07,0-.07h0a.59.59,0,0,1-.22-.21h0a.52.52,0,0,1-.07-.23h0v0h-.08v.09h.07v-.08a.31.31,0,0,1,0-.11l-.08,0,.08,0,0-.08h0l.08-.15-.07,0,.07,0a.24.24,0,0,1,.08-.1l-.06-.06.06.06a.65.65,0,0,1,.23-.15l0-.08v.09h0a1.09,1.09,0,0,1,.42-.06h4.23a1,1,0,0,1,.28,0h0V28.1l0,.08h0a.68.68,0,0,1,.2.11l.07.05,0-.07-.07-.05,0,.06h0l0-.07-.06,0h0l0,.06.06.05a.4.4,0,0,1,.14.18l.07,0-.07,0a.56.56,0,0,1,.05.23h0v.09h.08v-.09h0v-.08H125v.08A.5.5,0,0,1,125,29l0,.08.07,0,0-.07L125,29h0l.07,0,0-.06h0L125,28.9l0,.1a1,1,0,0,1-.25.27h0a.81.81,0,0,1-.39.12h0a2.1,2.1,0,0,0-1,.19h0l0,.06,0-.07a1,1,0,0,0-.25.22h0a1.85,1.85,0,0,0-.24.41l.15.07h0l-.07,0-.08,0c-1.88,4-5.51,11.74-6.94,14.82a18.86,18.86,0,0,0-.77,1.87,5.56,5.56,0,0,0-.34,1.7h0a2.47,2.47,0,0,0,.1.65,1.37,1.37,0,0,0,.27.47,2.12,2.12,0,0,0,1.32.52h.16a4.79,4.79,0,0,0,2-.56h0l.06,0h0a6.91,6.91,0,0,0,2.53-2.15,16,16,0,0,0,1.62-2.88l3-6.42.16-.39h0v0h-.08l.07,0h0c0-.06,0-.11,0-.16l0-.08-.09,0-.38,0,0,.08,0-.08h0l0,.08,0-.08h0a1.72,1.72,0,0,1-.36-.09h0a.66.66,0,0,1-.27-.19.59.59,0,0,1-.11-.33h-.08V37h0v-.17h0v.09h.08l-.08,0V37h.08v-.08a.65.65,0,0,1,0-.21l0-.08-.08,0,0,.08.07,0h0l-.08,0,.07,0h0l.08-.12h-.15v.08l.08,0h0l-.08,0,0,.05h0l.14.14v-.19h-.09l.08,0h0l-.07,0v.08h0l0,0a.42.42,0,0,1,.07-.13h0l-.06-.05.06.05h0l-.06,0,.06,0a.82.82,0,0,1,.22-.18h0l-.09-.14h0l.08.15a.82.82,0,0,1,.26-.1l.27,0h4.47a1,1,0,0,1,.24,0l0-.08,0,.08h0l0-.08,0,.08.15,0a.59.59,0,0,1,.18.14.41.41,0,0,1,.11.17l.08,0-.08,0a.52.52,0,0,1,0,.18h0a.89.89,0,0,1-.05.24h0v0h0a.68.68,0,0,1-.23.28l-.07,0,0,.07.07,0,0-.08h0l0,.06.07,0h0l0-.06-.06,0a.82.82,0,0,1-.3.12h0l0,.07v-.08h0a2.69,2.69,0,0,1-.59,0,1.37,1.37,0,0,0-.45.07.79.79,0,0,0-.27.15h0a1.41,1.41,0,0,0-.36.51l-.08.19.07,0v-.08h-.05l0,.05c-.29.62-1.3,2.79-3,6.54h0l0,.05a15.94,15.94,0,0,0-.74,1.88,6.34,6.34,0,0,0-.31,1.75h0a1.93,1.93,0,0,0,.2.94l0,0h0v-.08l-.07,0a1.11,1.11,0,0,0,.64.52h0a2.53,2.53,0,0,0,.87.13h0a4.43,4.43,0,0,0,2-.51,6.74,6.74,0,0,0,1.72-1.33,14.38,14.38,0,0,0,2.46-3.79l2.66-5.7h0c0-.05.13-.28.3-.69l-.07,0,.07,0h0l-.15-.07h0l.08,0,.07,0c.09-.21.16-.39.2-.51h0l0-.08,0-.09-.11,0h0l-.4,0v.08l0-.08h0l0,.08,0-.08h0a1.25,1.25,0,0,1-.29-.06h0l0,.07,0-.07,0,0-.07,0a.61.61,0,0,1-.16-.13l-.07,0,.07,0a.48.48,0,0,1-.12-.33h-.08V37h.08V36.9a.57.57,0,0,1,.06-.24h0v0h0l0-.08-.07,0,.06,0h0l-.07,0v.09h0l0,0a.6.6,0,0,1,.21-.21l0-.07,0,.08h0a.79.79,0,0,1,.27-.1l.27,0v0h4.47v0l.26,0h0a.67.67,0,0,1,.33.2l.05.07.07-.07-.06,0-.06,0h0l0-.06,0-.06h0l-.06.05,0,.06a.58.58,0,0,1,.13.35h.08v-.09h-.08v.08a.79.79,0,0,1,0,.25l0,.05,0,0,.06-.06-.06-.05h0v0l.08,0,0-.07h0l-.08-.05,0,.09a.76.76,0,0,1-.27.29l-.06,0,0,.06.08,0,0-.07h0l.06.07.07,0h0l0-.08-.08,0a.62.62,0,0,1-.29.11h0l0,.07v-.08h0a2.55,2.55,0,0,1-.56,0h0a1,1,0,0,0-.64.19h0a1.74,1.74,0,0,0-.43.61C137.47,39.7,137,40.55,135,45a19.14,19.14,0,0,0-.78,1.87,5.17,5.17,0,0,0-.34,1.63h0a1.76,1.76,0,0,0,.12.68l.07,0-.07,0h0a1.26,1.26,0,0,0,.35.51h0a2.12,2.12,0,0,0,.61.38,2.16,2.16,0,0,0,.77.14,4.39,4.39,0,0,0,2-.51,6.28,6.28,0,0,0,1.72-1.32,14.37,14.37,0,0,0,2.48-3.8l.05-.12h-.13v.09l.08,0c1.73-3.75,2.74-5.94,3-6.51l-.07,0-.08,0h0l.15,0A.87.87,0,0,1,145,38h0v0h0v0h0v-.05h0a.92.92,0,0,0,0-.19h0s0-.07,0-.1V37.5h-.18a2.18,2.18,0,0,1-.38,0l0,.08,0-.08h0l-.17,0a.66.66,0,0,1-.2-.14h0l-.05.07.05-.06a.87.87,0,0,1-.11-.18l-.08,0,.08,0a.58.58,0,0,1,0-.19h0v0h-.08V37h.08V36.9a.84.84,0,0,1,0-.18s0-.06,0-.08h0v0l-.07,0,.07,0a.67.67,0,0,1,.22-.27l.06,0,0-.06-.07,0,0,.07h0l0-.07,0,.07a.64.64,0,0,1,.35-.1h0c1.47,0,2.94,0,4.41,0h0v0l.26,0h0a.69.69,0,0,1,.34.2l.12-.1h0l-.06,0-.07,0h0Zm-4.72,1.51-.07,0h0l.14.07h0l-.14-.08.07,0-.07,0h0l.14.07h0l-.14-.08Z"/><polygon class="cls-6" points="119.28 29.12 119.21 29.16 119.21 29.16 119.35 29.09 119.35 29.09 119.35 29.09 119.21 29.16 119.21 29.16 119.28 29.12 119.35 29.09 119.35 29.09 119.21 29.16 119.21 29.16 119.21 29.16 119.35 29.09 119.35 29.09 119.28 29.12"/><polygon class="cls-6" points="124.85 37.25 124.91 37.2 124.91 37.2 124.79 37.31 124.79 37.31 124.91 37.2 124.85 37.25 124.91 37.2 124.91 37.2 124.79 37.31 124.79 37.31 124.91 37.2 124.85 37.25"/><polygon class="cls-18" points="112.31 49.85 112.31 49.85 112.31 49.85 112.31 49.85"/><polygon class="cls-6" points="112.31 49.85 112.23 49.88 112.23 49.88 112.38 49.83 112.38 49.83 112.22 49.19 112.22 49.86 112.23 49.88 112.31 49.85 112.39 49.85 112.39 49.85 112.31 49.85 112.23 49.87 112.23 49.87 112.31 49.85 112.38 49.83 112.38 49.82 112.31 49.85 112.39 49.85 112.31 49.85"/><path class="cls-19" d="M102.39,40.61h.25a4.15,4.15,0,0,0-1.53-3.37h0A6.75,6.75,0,0,0,96.83,36a12.61,12.61,0,0,0-7.13,2.42,14,14,0,0,0-4.64,5.33A24.11,24.11,0,0,1,83.35,47a7,7,0,0,1-2.74,2.51,5.3,5.3,0,0,1-2,.55v.25l0-.25a2.14,2.14,0,0,1-1.32-.48h0a1.21,1.21,0,0,1-.29-.44,1.76,1.76,0,0,1-.11-.65h0a2.62,2.62,0,0,1,0-.27h-.24l.24,0a3.54,3.54,0,0,1,.08-.45l-.24-.06.24.06h0l.1-.42V46.8h0A2.79,2.79,0,0,0,76.46,45h0l-.18.18.18-.17-.18-.2-1.14-1.2L75.85,45l.22-.11.18-.17-5.11-5.49-1.85-2-.18.16h.25v-.1l-.11-.11h0l-.2-.22-.18.17h.25v-.09L69.06,37a4.61,4.61,0,0,1-1-1.63l-.23.07.08.23,6.87-2.6L77.67,32l.46-.18h0l-.09-.23.09.23a17.71,17.71,0,0,1,5.45-1.49h0a2.86,2.86,0,0,1,1.11.2,6.3,6.3,0,0,1,1.09.59l1.86,1.18-.93-2h0A4.18,4.18,0,0,0,85,28.42a5.13,5.13,0,0,0-2.55-.64h-.25V28h.25v-.25a6.91,6.91,0,0,0-1.18.11l-.2,0v.21h.24l0-.24a18,18,0,0,0-2.23.62c-1,.32-2.09.73-3.31,1.2L75,30l.09.23V30h0L75,30l-3.32,1.29.09.23V31.3h0l-.07,0-.44.17h0L67.29,33h0l-.16.06h0l-.1,0-1.25.47h1.34v-.24L67,33.08l-.43.14a1.38,1.38,0,0,1-.28,0H66l-.19.33L65.23,35h0c-.07.27-.14.78-.14.79h0v0h0v.29h.25v-.25h-.25V36a3.67,3.67,0,0,0,.08.75l.24-.05v-.25h-.3l.06.31,0,.19h.21V36.7l-.24,0h0l0,.27.26-.09-.07-.23-.24,0a3.52,3.52,0,0,0,.28.81l.22-.11-.22.08a10,10,0,0,0,2.25,3.21l.07.08h.11v-.25l-.18.17c.45.5,1.92,2.08,3.37,3.66L72.53,46,74.1,47.7l.08.08h.11v-.24l-.18.16v0a5.1,5.1,0,0,1,.38.43l.07.09.21-.13-.2-.14a5.37,5.37,0,0,1-1.37,1.23h0l0,0,.17.17-.13-.2a5.35,5.35,0,0,1-2.5.89v0H53.46v0a1.78,1.78,0,0,1-1.25-.45l0,0h0a1.09,1.09,0,0,1-.29-.45l-.23.09-.22.11h0l.45-.2a1.75,1.75,0,0,1-.11-.64h0A5.18,5.18,0,0,1,52.11,47a17.72,17.72,0,0,1,.74-1.81l2.28-4.83-.22-.11h-.24v1.12l.77-1.67h0a9.57,9.57,0,0,1,.67-1.37,1.87,1.87,0,0,1,.42-.48h0a.83.83,0,0,1,.45-.15h0a3.06,3.06,0,0,0,.47,0h0a1.34,1.34,0,0,0,.33-.1h0l-.11-.22.09.22h0a.83.83,0,0,0,.43-.4h0l-.22-.1.22.11h0a.8.8,0,0,0,.07-.32H58.1V37h0l.25-.26h0a.75.75,0,0,0-.19-.47h0l-.17.18.18-.17a.74.74,0,0,0-.42-.23h0l-.05.23.06-.23h0a1.28,1.28,0,0,0-.26,0H52.89l-.18,0h0a.93.93,0,0,0-.19,0l.09.23-.08-.23-.17.08a.76.76,0,0,0-.27.27l.18.11-.16-.14s0,0,0,0l.18.11-.16-.14h0a.73.73,0,0,0-.1.19h0a.37.37,0,0,0,0,.16.44.44,0,0,0,0,.09v0a.32.32,0,0,0,0,.08.44.44,0,0,0,0,.14v0l.07.12v0h0a.81.81,0,0,0,.34.26h0l.08-.24-.09.23a1.18,1.18,0,0,0,.36.08h0v-.24l-.11.21h0l0,0h.52l.07-.23-.09.23h0l.08-.22-.11.21h0l.12-.21-.17.17h0l.17-.17-.21.12h0l.21-.12h-.24v.08l0,.06.2-.14-.22.1.17-.08-.18.05v0l.17-.08-.18.05h0a1.65,1.65,0,0,1,0,.23h0c0,.11-.09.25-.15.4h0l.23.08-.22-.1c-.13.3-.31.64-.45,1l.22.1-.22-.1c-.3.62-.95,2.06-2.51,5.4l.22.11L50,44.54a15.39,15.39,0,0,1-2.35,3.72,6.12,6.12,0,0,1-1.67,1.32,4.36,4.36,0,0,1-2.06.5h0A2.85,2.85,0,0,1,43,50a1.21,1.21,0,0,1-.47-.27h0a1,1,0,0,1-.24-.4h0a2,2,0,0,1-.09-.6h0A6,6,0,0,1,42.49,47a18.53,18.53,0,0,1,.75-1.86L43,45l.2.15h0l3-6.4h0c0-.1.08-.2.14-.32h0a2.1,2.1,0,0,1,.36-.52l-.32-.37h0l.15.19.16.19h0a.69.69,0,0,1,.21-.16.44.44,0,0,1,.21,0h.28a2.13,2.13,0,0,0,.53-.05h0l-.07-.23.06.24a1.36,1.36,0,0,0,.34-.15.9.9,0,0,0,.33-.38l0,0V37h-.24l.22.1a.66.66,0,0,0,.07-.32h0a.71.71,0,0,0-.19-.48h0l-.17.17.18-.17a.73.73,0,0,0-.43-.22l0,.23.06-.23h0a.89.89,0,0,0-.27,0h-4.5a1.41,1.41,0,0,0-.45.07,1.48,1.48,0,0,0-.28.17l-.13.11,0,.05,0,.16.23.07-.21-.11h0l-.12.22.22.11.11-.21-.19-.15h0l0,0v0h0a.62.62,0,0,0,0,.1.45.45,0,0,0,0,.18v0s0,.07,0,.14a.56.56,0,0,0,0,.12.31.31,0,0,0,.07.14.71.71,0,0,0,.37.25l.08-.23-.1.22h0l0,0h0l.06-.24-.08.24a1.92,1.92,0,0,0,.36.06h0v-.24l0,.24h.32a.62.62,0,0,1,.18,0l.06-.24-.08.24h.06l.07-.23-.12.21h0l.12-.22-.19.16h0l.19-.15-.25,0v0l.24,0h-.24l0,.15h0c0,.09-.07.2-.12.32l.22.11L43.41,38h0c-.11.25-.27.55-.41.86-.28.6-1,2.07-2.64,5.69a15.82,15.82,0,0,1-1.62,2.85,6.76,6.76,0,0,1-2.43,2.1h0a4.64,4.64,0,0,1-1.94.57h0v0h0a1.71,1.71,0,0,1-1.23-.47l-.16.18.16-.18h0l-.16.19.16-.19a1.24,1.24,0,0,1-.2-.26l-.08-.14,0,0h0l-.21.11.22-.09a1.89,1.89,0,0,1-.1-.63h0a5.26,5.26,0,0,1,.32-1.6h0a17.76,17.76,0,0,1,.77-1.85l.26-.58-.21-.1.21.11c.7-1.39,2.57-5.43,2.73-5.78v0h0l0-.05h0a2.87,2.87,0,0,1,.43-.73L37,37.76l.17.17a.86.86,0,0,1,.26-.19,1.23,1.23,0,0,1,.41-.08h0a2.73,2.73,0,0,0,.57,0h.08l0-.05-.17-.17.05.24a1.84,1.84,0,0,0,.32-.12l-.12-.22.08.23h0a.9.9,0,0,0,.35-.37h0a1,1,0,0,0,.07-.33h0a.67.67,0,0,0-.18-.46h0a.77.77,0,0,0-.42-.23l-.06.23.07-.23h0l0,.24.05-.23a.86.86,0,0,0-.26,0h-4.8l-.25,0a.52.52,0,0,0-.25.12.61.61,0,0,0-.19.31,1,1,0,0,0,0,.27,1.13,1.13,0,0,0,0,.14l.24,0h-.25a.78.78,0,0,0,.14.41l.2-.14-.21.13h0l.2-.13.2-.14h0l-.2.15-.2.14a.81.81,0,0,0,.39.28h0l.06-.23-.09.22h0a2.06,2.06,0,0,0,.36.06h0v-.25l-.06.24H34a.4.4,0,0,1,.15,0l.06-.24-.08.23,0,0,.08-.23-.22.11h0l.22-.11-.24,0v0l.24,0H34a1.32,1.32,0,0,1,0,.2l.23.08.24,0h0l-.48-.1h0l.24.06L34,37.69c0,.12-.11.28-.18.44h0l0,.06.22.1-.17-.17h0l0,0,0,0C33,39.88,32.11,41.84,31.12,44l-.28.59a15.69,15.69,0,0,1-1.61,2.85,6.68,6.68,0,0,1-2.47,2.11l.11.22-.1-.22h0l0,0,0,0,.17.17-.1-.22a5.31,5.31,0,0,1-2,.58v0H11a3,3,0,0,1-2.17-.66,2.2,2.2,0,0,1-.59-1.66h0A7.83,7.83,0,0,1,9,44.65a13.56,13.56,0,0,1,1.93-3l.9-1.06H8.09l-.19.22.37.32h0L8.09,41l-.2-.14s-.32.43-.7,1a13.9,13.9,0,0,0-1.05,1.71,8.91,8.91,0,0,0-.93,3.69h0a4.64,4.64,0,0,0,1.55,3.59,5.78,5.78,0,0,0,3.83,1.27H24.44l0-.25,0-.24h0l0,.24,0,.24h0l0-.24,0,.25a9.83,9.83,0,0,0,5.92-2.36l-.16-.18-.23.07a3.26,3.26,0,0,0,1.18,1.64,4.91,4.91,0,0,0,2.87.83h.07l0-.24,0,.24a9.83,9.83,0,0,0,5.76-2.33l-.16-.19-.23.07a3,3,0,0,0,.91,1.51,4.66,4.66,0,0,0,3.16.95h0a8.93,8.93,0,0,0,5.95-2.34l-.16-.19-.24.07A3,3,0,0,0,50,51.1h0a4.6,4.6,0,0,0,2.34,1H70.9l-.07-.23,0,.24a8.88,8.88,0,0,0,2.5-.56,6.87,6.87,0,0,0,1.61-1l-.15-.19-.2.15a3.35,3.35,0,0,0,1.11.95,6.33,6.33,0,0,0,1.91.57h0l.61.07.3,0a10,10,0,0,0,6.23-3.19l-.19-.17-.23.06A4.1,4.1,0,0,0,85.82,51a6.43,6.43,0,0,0,4,1.13,12.92,12.92,0,0,0,6.92-2.25,14.45,14.45,0,0,0,5.11-5.81L101.6,44l.22.11h0v0l-.22-.08.22.09a8.65,8.65,0,0,0,.81-3.41h-.49a8.21,8.21,0,0,1-.77,3.22h0l.23.09-.22-.11h0a13.9,13.9,0,0,1-4.94,5.61,12.33,12.33,0,0,1-6.65,2.17,6,6,0,0,1-3.67-1,3.61,3.61,0,0,1-1.3-1.93l-.12-.43-.3.32a9.35,9.35,0,0,1-5.91,3l-.24,0-.56-.07,0,.24,0-.24A5.33,5.33,0,0,1,76,51a2.67,2.67,0,0,1-.94-.8L74.86,50l-.2.16a6.11,6.11,0,0,1-1.49.9,8.13,8.13,0,0,1-2.37.54h0l.08.23,0-.24H52.4v.25l0-.25a4.13,4.13,0,0,1-2.11-.91h0a2.41,2.41,0,0,1-.78-1.19l-.1-.37-.29.25a8.41,8.41,0,0,1-5.63,2.22h0a4.16,4.16,0,0,1-2.84-.83,2.5,2.5,0,0,1-.76-1.27l-.1-.38-.3.26A9.43,9.43,0,0,1,34,51.63h0l0,.25v-.25h0a4.37,4.37,0,0,1-2.58-.74,2.73,2.73,0,0,1-1-1.38l-.11-.36-.28.24a9.27,9.27,0,0,1-5.64,2.24h0l.07.48h0l-.05-.48H10.59a5.29,5.29,0,0,1-3.51-1.15A4.12,4.12,0,0,1,5.7,47.26h0a8.45,8.45,0,0,1,.88-3.49,15,15,0,0,1,1-1.64l.49-.69c.12-.18.2-.28.2-.28l-.38-.31h0l.19.16.18.16.05,0h2.46l-.21.25a13.67,13.67,0,0,0-2,3.1,8.37,8.37,0,0,0-.87,3.3h0a2.71,2.71,0,0,0,.74,2,3.48,3.48,0,0,0,2.51.79h13.8A5.58,5.58,0,0,0,27,50l0,0,0,0-.18-.17L27,50h0a7.14,7.14,0,0,0,2.65-2.26,15.9,15.9,0,0,0,1.66-2.93l.28-.59c1-2.13,1.87-4.09,2.66-5.77L34,38.3l.17.17h0l0,0,0-.11h0a4.5,4.5,0,0,0,.2-.48h0l-.24-.06-.24,0h0l.47.13a1.94,1.94,0,0,0,0-.2.51.51,0,0,0,0-.17h0v-.09l0,0,0-.09-.15,0h0l-.27,0h-.28v.25l.06-.24h-.06v0a.69.69,0,0,1-.25,0l-.07.24.09-.23h0l-.06.23.08-.23a.3.3,0,0,1-.15-.1l-.39.29h0l.4-.28h0a.28.28,0,0,1,0-.13v0h0V36.8a.66.66,0,0,1,0-.14.19.19,0,0,1,0-.08l0-.06,0,.07h0l0-.06,0,.07h0l.1,0,.25,0h4.63v0h.18l0-.24-.06.24h0a.35.35,0,0,1,.17.09l.18-.16-.18.16a.28.28,0,0,1,.06.15h0a.5.5,0,0,1,0,.13h0a.36.36,0,0,1-.15.15l.12.21-.08-.23h0l-.19.07h-.07l-.06.05.18.18-.06-.24h0l.06.24,0-.24a3.32,3.32,0,0,1-.48,0h0a1.48,1.48,0,0,0-.59.11,1.45,1.45,0,0,0-.42.3h0a3.14,3.14,0,0,0-.52.86h0l0,.07v0l.23.05-.22-.1c-.16.35-2,4.4-2.72,5.77h0l-.28.58a20,20,0,0,0-.78,1.9h0a5.77,5.77,0,0,0-.35,1.76h0a2.29,2.29,0,0,0,.14.81h0l.12.22a2,2,0,0,0,.29.38h0a2.24,2.24,0,0,0,1.56.6h0A5.22,5.22,0,0,0,36.48,50l0,0-.12-.22.11.22a7.32,7.32,0,0,0,2.62-2.24,16.5,16.5,0,0,0,1.66-2.93c1.69-3.62,2.36-5.1,2.64-5.69.14-.3.3-.6.42-.88l-.23-.09.23.11h0c.06-.14.11-.27.15-.38h0c0-.06,0-.11,0-.16a.66.66,0,0,0,0-.14h0v-.12l0-.07,0,0-.05,0h0l-.08,0h0a1.12,1.12,0,0,0-.29,0h-.25l0,.24.05-.24h-.05v.24l0-.24a1.11,1.11,0,0,1-.25-.05h0l-.06.23.11-.21h0a.35.35,0,0,1-.15-.09l-.05,0,.06,0h0l-.05,0,.06,0h0a.81.81,0,0,1,0-.11v0h0l-.24,0h.25v-.1h0l-.14-.05.14.06h0l-.14-.05.14.06-.21-.08.21.08h0l-.21-.08.21.08-.23-.09.22.11v0l-.23-.09.22.11h0l-.22-.11.2.14h0L43,36.6l-.26-.13-.11.21.22.12h0v0l0-.11-.24-.08.17.18h0a.58.58,0,0,1,.11-.1l.13-.08a1,1,0,0,1,.29,0v0H48l.05-.24-.06.24h0a.47.47,0,0,1,.17.09h0l.17-.17-.18.17a.21.21,0,0,1,.07.15h0a.27.27,0,0,1,0,.12l0,0V37h.24l-.22-.1a.44.44,0,0,1-.16.17.52.52,0,0,1-.19.08h0l.08.23-.06-.24a1.57,1.57,0,0,1-.43,0h-.28a.91.91,0,0,0-.41.09,1.39,1.39,0,0,0-.34.24l.17.18-.16-.18h0l.32.37h0l-.15-.19-.17-.18a2.77,2.77,0,0,0-.46.67h0l-.14.32-3,6.37L43,45l-.19-.15h0l0,0v0A16.92,16.92,0,0,0,42,46.82a6.37,6.37,0,0,0-.35,1.86h0a2.29,2.29,0,0,0,.11.76h0a1.39,1.39,0,0,0,.36.59h0a1.72,1.72,0,0,0,.67.39,3.49,3.49,0,0,0,1.06.14h0A4.94,4.94,0,0,0,46.17,50,6.6,6.6,0,0,0,48,48.59a15.83,15.83,0,0,0,2.43-3.84h0C52,41.41,52.62,40,52.91,39.34h0c.14-.31.32-.65.46-1v0h0l-.24-.07.23.1c.07-.16.12-.32.17-.46h0a1.4,1.4,0,0,0,.07-.37h0s0-.06,0-.09v-.11l-.21.13h.25V37.4l0-.06v0l0,0,0,0,0,0h0l-.05,0h0a.93.93,0,0,0-.26,0h0l-.31,0,0,.25.11-.22h0l0,0h-.06v.25l0-.25a.79.79,0,0,1-.23,0h0l-.07.23.09-.22a.28.28,0,0,1-.12-.1l-.2.15.21-.11,0-.12-.22.12.23-.09v-.11l-.24,0h.24l0-.12h0v0h0s0,0,0,0a.22.22,0,0,1,.1-.09l.06,0h0l0-.09,0,.09h0l0-.09,0,.09h0l.11,0,0-.23,0,.24.18,0h0l0-.25v.25h4.68l0-.24,0,.24h0a.38.38,0,0,1,.16.09h0l.17-.17-.18.16a.25.25,0,0,1,.06.15h0v0h.24v-.25h-.24v.24a.5.5,0,0,1,0,.13l.22.1-.22-.11h0l.23.1-.22-.11a.38.38,0,0,1-.19.17l.1.22-.09-.23h0l.11.22-.1-.22a1.41,1.41,0,0,1-.22.06h0l-.39,0h0a1.17,1.17,0,0,0-.72.23h0a2.28,2.28,0,0,0-.55.6A11.06,11.06,0,0,0,55,39.45h0l-.32.67.22.11h.25V39.12l-2.75,5.82h0a16.79,16.79,0,0,0-.76,1.85,5.66,5.66,0,0,0-.33,1.71h0a2.3,2.3,0,0,0,.13.81l.23-.08.21-.11h0l-.44.19a1.64,1.64,0,0,0,.41.63h0l0,0a2.27,2.27,0,0,0,1.58.59H70.73a5.75,5.75,0,0,0,2.74-1l0,0v0l-.17-.17.13.21A5.92,5.92,0,0,0,75,48.26l.09-.14L75,48l-.1-.15-.41-.45,0,0-.07-.08h-.11v.25l.18-.17c-.34-.38-.91-1-1.58-1.71l-1.46-1.6C70,42.49,68.5,40.9,68.05,40.41L68,40.33h-.11v.24l.19-.16a9.8,9.8,0,0,1-2.16-3h0a2.69,2.69,0,0,1-.24-.69l-.06-.27-.26.09.08.23.24-.05h0l0-.19h-.2v.24l.24-.05h0l-.24,0v.24h.3l-.06-.29a3.42,3.42,0,0,1-.06-.65v-.38h-.25v.24h.24v0h-.24l.24,0h0s0-.13.05-.28.06-.35.08-.46l-.23-.06.22.09.51-1.33.1-.18-.21-.12v.24h.23v0a1.42,1.42,0,0,0,.38-.06,4.6,4.6,0,0,0,.49-.16l1.26-.47H67.11v.25l.08.22.1,0-.08-.23.08.23.17-.07h0L71.34,32h0l.44-.17h0l-.08-.23v.24h.08l3.33-1.29h0l-.09-.23v.24h.09l.78-.31c1.22-.46,2.35-.87,3.29-1.18a15.8,15.8,0,0,1,2.16-.61l.21,0v-.2h-.25l0,.24a6,6,0,0,1,1.1-.1h.24V28h-.24v.24h0a4.61,4.61,0,0,1,2.3.57A3.75,3.75,0,0,1,86.3,30.5h0l.22.47-.44-.28a7,7,0,0,0-1.18-.64,3.66,3.66,0,0,0-1.29-.23h0c-1.12,0-2.74.43-5.62,1.52h0l-.46.18-2.88,1.1C71,34,68.76,34.84,67.76,35.23l-.21.08.06.21a5,5,0,0,0,1.08,1.81l.18-.16h-.24v.09l.06.07.2.22,0,.05.18-.17h-.24v.1l.06.07,1.86,2L73.93,43l2,2.11,1.16,1.25-.76-1.52-.22.11-.18.16.19.2h0l.18-.17-.19.16a2.29,2.29,0,0,1,.53,1.51h0v.51l-.08.37h0a3.43,3.43,0,0,0-.09.51v0h.24l-.24,0c0,.1,0,.21,0,.31h0a2.35,2.35,0,0,0,.14.82A1.75,1.75,0,0,0,77,50h0a2.53,2.53,0,0,0,1.61.62h0a5.78,5.78,0,0,0,2.2-.6,7.48,7.48,0,0,0,2.94-2.68A23.46,23.46,0,0,0,85.5,44,13.41,13.41,0,0,1,90,38.85a12.07,12.07,0,0,1,6.85-2.33,6.33,6.33,0,0,1,4,1.1h0a3.67,3.67,0,0,1,1.34,3h.24Z"/><path class="cls-19" d="M94.4,49.21,94.27,49A6.64,6.64,0,0,1,91,50.07h0v0h0v0h0a3.92,3.92,0,0,1-2.55-.73h0a2.22,2.22,0,0,1-.64-.84,3.14,3.14,0,0,1-.24-1.26h0a8.46,8.46,0,0,1,.92-3.41c1.84-3.93,5-5.78,7.9-5.79a3.33,3.33,0,0,1,2.14.64h0a2.11,2.11,0,0,1,.58.79,3.12,3.12,0,0,1,.23,1.2h0A8.3,8.3,0,0,1,98.39,44a11.15,11.15,0,0,1-4.12,5l.13.21.13.2a11.64,11.64,0,0,0,4.3-5.17,8.75,8.75,0,0,0,1-3.57h0a3.5,3.5,0,0,0-.26-1.4,2.59,2.59,0,0,0-.72-1h0a3.78,3.78,0,0,0-2.45-.76c-3.16,0-6.44,2-8.34,6.07a9,9,0,0,0-1,3.62h0a3.75,3.75,0,0,0,.28,1.45,2.82,2.82,0,0,0,.77,1h0a4.5,4.5,0,0,0,2.87.84v0h0v0h0v0h0v0h0a7,7,0,0,0,3.56-1.15Z"/><polygon class="cls-20" points="37.04 37.76 37.24 37.9 37.24 37.89 37.04 37.76 37.21 37.93 37.21 37.93 37.04 37.76 36.85 37.6 36.84 37.61 37.04 37.76 37.24 37.9 37.04 37.76 37.23 37.91 37.23 37.91 36.86 37.59 36.86 37.59 36.85 37.6 36.83 37.62 37.23 37.91 37.04 37.76"/><path class="cls-21" d="M178.07,65.42V40.51l-1.71-1.09-1.72,1.09V65.42c0,3.1-.2,4.74-.42,7.93-.13,1.8-.43,6.53-.63,9.81l2.77,1.76,2.77-1.76c-.21-3.28-.51-8-.63-9.81C178.27,70.16,178.07,68.52,178.07,65.42Z"/><path class="cls-22" d="M178.07,65.42h.25v-25l-2-1.26-2,1.26v25c0,3.09-.2,4.72-.42,7.91-.13,1.8-.42,6.53-.63,9.81v.14l3,1.94,3-1.94v-.14c-.2-3.28-.5-8-.63-9.81-.22-3.19-.42-4.82-.42-7.91h-.49c0,3.11.2,4.77.42,8,.13,1.79.43,6.52.63,9.8h.25L179,83l-2.63,1.68L173.72,83l-.13.21h.24c.21-3.28.51-8,.63-9.8.23-3.18.43-4.84.43-8V40.65l1.47-.94,1.47.94V65.42Z"/><path class="cls-23" d="M170.19,72.52v0c.05-.13.09-.25.14-.37l1.21-3.2c0-.09,0-.17.08-.25.21-.69.72-2.92.72-8.29V42l-3,2v21.5c0,3.1-1.32,4.75-2.74,7.4l-2.31,4.38,3.34,2.13c1-2.54,2-5.14,2.55-6.68A1.12,1.12,0,0,1,170.19,72.52Z"/><path class="cls-24" d="M170.19,72.52l.23.09v0h0l.14-.38h0l1.21-3.2h0a2.41,2.41,0,0,0,.08-.25h0c.22-.72.73-3,.73-8.36V41.52l-3.54,2.26V65.42a8.7,8.7,0,0,1-.82,3.77c-.5,1.11-1.18,2.18-1.9,3.52L164,77.08l-.1.2,3.78,2.42.11-.28c1-2.54,2-5.14,2.55-6.68h0a.69.69,0,0,1,0-.13h0l-.23-.09-.24-.08s0,.08,0,.13h0c-.57,1.53-1.57,4.13-2.55,6.67l.23.09.14-.21L164.38,77l-.13.21.22.11c1-1.87,1.86-3.52,2.31-4.37.7-1.32,1.39-2.4,1.91-3.55a9.23,9.23,0,0,0,.86-4V44.05l2.56-1.63v18c0,5.35-.51,7.56-.71,8.21l.23.08-.23-.08-.09.25.24.08-.24-.09-1.2,3.2h0c-.05.12-.1.25-.14.37h0v0h0Z"/><path class="cls-25" d="M183.41,65.42V43.92l-3-2V60.38c0,5.37.51,7.6.72,8.28l.09.26,1.2,3.19.15.38v0a.5.5,0,0,0,.05.13c.57,1.54,1.56,4.14,2.54,6.68l3.34-2.13c-1-1.88-1.86-3.53-2.31-4.38C184.74,70.17,183.41,68.52,183.41,65.42Z"/><path class="cls-26" d="M183.41,65.42h.25V43.78l-3.55-2.26V60.38c0,5.38.52,7.63.74,8.36h0l.09.25h0l1.2,3.2c.05.13.1.25.14.38l0,0h0a.69.69,0,0,0,0,.13h0c.57,1.54,1.56,4.14,2.54,6.68l.11.28,3.79-2.42-.11-.2-2.31-4.37c-.71-1.34-1.4-2.41-1.89-3.52a8.7,8.7,0,0,1-.82-3.77h-.5a9.23,9.23,0,0,0,.87,4c.52,1.15,1.2,2.23,1.9,3.55.46.85,1.33,2.5,2.32,4.37l.21-.11-.13-.21L185,79.12l.13.21.23-.09c-1-2.54-2-5.14-2.54-6.67h0s0-.09-.05-.13v0L182.6,72l-1.2-3.2-.23.09.23-.08-.09-.26-.23.08.24-.07c-.2-.65-.72-2.86-.72-8.21v-18l2.56,1.63V65.42Z"/><path class="cls-27" d="M184.13,61.94a15.64,15.64,0,0,0-1.39-28.62,17,17,0,0,0-16.27,1.91A15.64,15.64,0,0,0,160,50.37a15.93,15.93,0,0,0,8.45,11.54l-2.07,5.89a20.33,20.33,0,0,1-6.63-5.54,19.32,19.32,0,0,1-4-13.9c1.06-10.08,9.93-17.82,20.49-17.82,11.76,0,21.17,9.51,20.57,20.87A19.83,19.83,0,0,1,186,67.9Z"/><path class="cls-28" d="M193.33,64.76l.29-.33.18-.2c.1-.11.19-.23.28-.34s.11-.13.17-.2l.34-.44.09-.11.38-.53.15-.22.24-.36.16-.24.21-.34.15-.26c.08-.12.15-.24.22-.36s.08-.16.13-.24l.3-.57.11-.21c.06-.14.13-.28.2-.42l.12-.27c.06-.12.11-.24.16-.36s.09-.19.13-.29l.14-.36c0-.09.07-.19.11-.29s.1-.26.14-.39a2.77,2.77,0,0,0,.1-.26c.07-.21.14-.42.2-.63s.05-.18.08-.27.07-.26.11-.4.06-.21.08-.31l.09-.37c0-.11.05-.21.07-.32s0-.09,0-.14h0a20.68,20.68,0,0,0,.46-4.34c0-12-10.15-21.82-22.66-21.82s-22.65,9.77-22.65,21.82c0,.59,0,1.17.08,1.75h0a1.8,1.8,0,0,0,0,.22c0,.15,0,.3,0,.46l0,.24c0,.16,0,.33.07.49l0,.17c.09.61.22,1.21.36,1.8l0,.12c0,.16.09.31.13.47a2,2,0,0,0,.07.23c0,.15.08.29.13.43l.08.26.14.41c0,.09.07.18.1.27l.15.39c0,.1.07.19.11.28s.11.25.16.38.09.19.12.28l.18.37.13.28.18.36c.05.09.1.18.14.27l.2.36.15.27.2.34.17.27a3,3,0,0,0,.21.33c0,.09.11.18.17.27l.22.33.18.25.24.33.18.23c.15.2.3.4.46.59l.23.27.23.27.24.27.24.26a3.07,3.07,0,0,0,.25.26,3,3,0,0,0,.25.25l.26.26a2.83,2.83,0,0,0,.25.24l.27.26.26.23.28.25a2.75,2.75,0,0,1,.26.22l.3.24.26.2c.1.09.21.16.31.24l.27.2L163,68l.27.19.34.22.26.17.37.23.25.15.42.24.22.12c.21.12.42.24.64.34l.67-1.89-.58-.32-.18-.11c-.13-.07-.26-.14-.38-.22l-.22-.14-.34-.21-.22-.15-.32-.22-.22-.16-.3-.22-.23-.17-.29-.23-.22-.18-.28-.23-.21-.19-.27-.24-.22-.2-.26-.25-.2-.2-.26-.25-.19-.21-.25-.27-.19-.21-.24-.28-.18-.21c-.08-.09-.15-.19-.23-.29l-.17-.21-.23-.31-.16-.21-.25-.36-.12-.17c-.12-.17-.23-.35-.35-.53l-.1-.17c-.08-.13-.16-.25-.23-.38s-.09-.16-.13-.24a2.58,2.58,0,0,1-.18-.32l-.14-.26-.16-.31c-.05-.09-.09-.19-.13-.28l-.15-.31-.13-.28-.13-.31-.12-.29-.12-.31c0-.1-.08-.2-.11-.3s-.07-.21-.11-.31-.07-.2-.1-.31-.07-.2-.1-.31l-.09-.31-.09-.31c0-.11-.05-.22-.08-.33a2.82,2.82,0,0,1-.07-.31c0-.11-.06-.22-.08-.33l-.06-.31-.06-.33-.06-.33c0-.11,0-.22-.05-.33s0-.22,0-.33,0-.22,0-.33l0-.34,0-.33c0-.45-.05-.9-.05-1.36,0-11,9.23-19.85,20.6-19.85s20.6,8.89,20.6,19.85a19.87,19.87,0,0,1-.39,3.88,3,3,0,0,0-.07.32c0,.15-.07.29-.1.43l-.12.44a2.45,2.45,0,0,1-.08.29,2.81,2.81,0,0,1-.1.31,2.46,2.46,0,0,1-.09.29c0,.1-.06.21-.1.31l-.1.28-.11.3-.12.29c0,.1-.07.19-.11.29s-.13.31-.2.46l-.15.31-.15.31-.13.27-.15.29a2.15,2.15,0,0,0-.14.26l-.17.29c0,.08-.09.16-.14.24s-.13.21-.19.31-.09.14-.13.22l-.33.49-.12.17-.24.34L193,62l-.23.3-.16.2c-.07.1-.15.19-.23.29s-.11.13-.16.19l-.27.3c-.05.06-.09.12-.14.17l-.42.45-.07.07-.37.37-.16.15-.29.28-.18.16-.3.26-.17.15-.34.28-.15.12-.5.38,0,0c-.15.12-.31.23-.48.35l-.16.11-.36.24-.19.13-.35.21-.2.12-.38.22-.17.1-.56.3.6,1.93.63-.33.19-.1.43-.24.22-.13.4-.24.21-.13.43-.28.16-.1.58-.4.09-.07.47-.35.18-.14c.12-.1.24-.2.37-.29l.19-.17.35-.3a1.37,1.37,0,0,0,.18-.16l.4-.36.12-.11.49-.48a1.85,1.85,0,0,1,.14-.14l.34-.36Z"/><path class="cls-29" d="M186.59,69.83l-.08-.25a21.74,21.74,0,0,0,12.32-19.43,21.19,21.19,0,0,0-2-8.88A21.18,21.18,0,0,1,199,50.39,21.78,21.78,0,0,1,186.59,69.83Zm-31-10.5a22.33,22.33,0,0,0,10,10.14l.61-1.75.17.09-.67,1.89A22.25,22.25,0,0,1,155.63,59.33Zm.06-8.94c0-11,9.23-19.85,20.6-19.85A20.69,20.69,0,0,1,195,42.09a20.65,20.65,0,0,0-18.83-11.78c-11.38,0-20.6,8.88-20.6,19.84a19.17,19.17,0,0,0,1.9,8.33A19.11,19.11,0,0,1,155.69,50.39Z"/><polygon class="cls-30" points="99.46 58.02 90.82 67.21 90.61 58.02 81.79 58.02 73.7 77.29 77.36 77.29 79.54 77.29 79.75 76.78 85.43 63.21 85.6 75.53 85.62 77.29 85.9 77.29 87.86 75.05 98.69 62.69 94.05 73.72 92.55 77.29 98.86 77.29 100.98 72.23 106.96 58.02 99.46 58.02"/><polygon class="cls-31" points="99.46 58.02 99.34 57.91 90.97 66.81 90.76 57.86 81.68 57.86 73.46 77.46 77.36 77.46 79.64 77.46 79.9 76.85 85.28 64 85.43 75.53 85.46 77.46 85.97 77.46 87.99 75.15 98.15 63.55 93.9 73.66 92.31 77.46 98.97 77.46 101.13 72.3 107.2 57.86 99.39 57.86 99.34 57.91 99.46 58.02 99.46 58.18 106.71 58.18 100.83 72.17 98.75 77.13 92.8 77.13 94.2 73.78 99.23 61.83 87.75 74.94 85.82 77.13 85.78 77.13 85.76 75.53 85.58 62.42 79.6 76.72 79.43 77.13 77.36 77.13 73.95 77.13 81.89 58.18 90.45 58.18 90.66 67.61 99.58 58.13 99.46 58.02 99.46 58.18 99.46 58.02"/><polygon class="cls-32" points="112.48 58.05 107.11 70.92 104.45 77.29 110.69 77.29 113.97 69.45 118.74 58.05 112.48 58.05"/><polygon class="cls-31" points="112.48 58.05 112.33 57.99 106.96 70.86 104.2 77.46 110.8 77.46 114.12 69.52 118.99 57.89 112.37 57.89 112.33 57.99 112.48 58.05 112.48 58.21 118.5 58.21 113.82 69.39 110.58 77.13 104.69 77.13 107.26 70.99 112.63 58.12 112.48 58.05 112.48 58.21 112.48 58.05"/><polygon class="cls-33" points="136.27 64.68 142.39 58.05 136.25 58.05 131.59 63.32 128.65 58.05 122.48 58.05 127.16 66.63 127.51 67.27 118.29 77.29 124.75 77.29 129.79 71.39 133.01 77.29 139.22 77.29 133.8 67.35 136.27 64.68"/><polygon class="cls-31" points="136.27 64.68 136.39 64.79 142.76 57.89 136.17 57.89 131.62 63.04 128.75 57.89 122.2 57.89 127.02 66.71 127.31 67.25 117.92 77.46 124.82 77.46 129.76 71.68 132.92 77.46 139.5 77.46 133.99 67.38 136.39 64.79 136.27 64.68 136.15 64.57 133.59 67.33 138.95 77.13 133.11 77.13 129.82 71.11 124.67 77.13 118.66 77.13 127.71 67.3 127.3 66.55 122.75 58.21 128.55 58.21 131.56 63.6 136.32 58.21 142.02 58.21 136.15 64.57 136.27 64.68"/></svg>