<svg id="Layer_1" data-name="Layer 1" xmlns="http://www.w3.org/2000/svg" viewBox="0 0 200 113"><defs><style>.cls-1,.cls-11{fill:#194397;}.cls-1,.cls-10,.cls-11,.cls-2,.cls-3,.cls-4,.cls-5{fill-rule:evenodd;}.cls-1{opacity:0.7;}.cls-1,.cls-10{isolation:isolate;}.cls-2{fill:#09913e;}.cls-3,.cls-7{fill:#030303;}.cls-4{fill:#1d3d91;}.cls-5,.cls-8{fill:#cb1b7f;}.cls-6{fill:#f19524;}.cls-9{fill:#2d2f83;}.cls-10{opacity:0.3;}</style></defs><path class="cls-1" d="M140.84,83.61l1.32-4.68A64.29,64.29,0,0,1,130.22,87l.78,1.56-.55.29-1.74-1.07c-.05,0-.1,0-.14.06l.79,1.56-.52.25-.79-1.57c-.15.06-.3.15-.45.21a1.47,1.47,0,0,1,.1.22,1.55,1.55,0,0,1,.15,1L129.91,94a70.63,70.63,0,0,0,17.55-11.59Z"/><path class="cls-1" d="M72,89.87a.82.82,0,0,1-.22-.38,1,1,0,0,1,0-.39,3.88,3.88,0,0,1,.26-.73l.14-.31-.59-.28-.28.55a2.3,2.3,0,0,1-.32.49.89.89,0,0,1-.49.23,1.06,1.06,0,0,1-.62-.13,1,1,0,0,1-.5-.54,1,1,0,0,1,.12-.77l.55.2a1.07,1.07,0,0,0-.1.37.36.36,0,0,0,.2.29.41.41,0,0,0,.32,0,1.25,1.25,0,0,0,.3-.4l.3-.59a64.49,64.49,0,0,1-12.86-8.58l1.32,4.76-6.63-1.32A70.39,70.39,0,0,0,70.41,94L72.23,90A.43.43,0,0,1,72,89.87Z"/><path class="cls-2" d="M64.78,63.49a.45.45,0,0,0,.13.06,2,2,0,0,1,1.84,2,4.23,4.23,0,0,1-2,4.11c-.15.1-.3.18-.5.32.94,1.29,1.86,2.54,2.82,3.83-.27.42-.56.86-.89,1.34A41.57,41.57,0,0,1,63.29,71c-.61,0-1.23.08-1.83.12A4.6,4.6,0,0,1,59,70.44a2.47,2.47,0,0,1-.65-.55,1.19,1.19,0,0,1-.3-1c0-.35.11-.67.51-.8.12,0,.19-.24.32-.41l-.48-.18A12.32,12.32,0,0,1,57,66.92a1.66,1.66,0,0,1-.63-2.63c0-.07.06-.12.11-.22l-.38-.13a7.91,7.91,0,0,1-.84-.37A1.32,1.32,0,0,1,54.59,62c.07-.26.17-.51.3-.88a1.29,1.29,0,0,1-.37-.28,6.41,6.41,0,0,1-.78-1c-.36-.62-.31-1.08.08-2-2.09-1.26-2.28-2-.94-3.84a3,3,0,0,1-.4-.33,12,12,0,0,1-1.06-1.08,2,2,0,0,1,0-2.49l.17-.24a8.93,8.93,0,0,1-.5-1,1.6,1.6,0,0,1,.2-1.64.59.59,0,0,1,.63-.32,2.22,2.22,0,0,0,.49-.08c-.12-.24-.18-.4-.27-.57a5.39,5.39,0,0,1-.65-1.81,1.92,1.92,0,0,1,1.22-2.31.71.71,0,0,1,.09-.07,10.63,10.63,0,0,1-.34-1.19,1.82,1.82,0,0,1,1.19-2.29s.08-.07.17-.12a3.45,3.45,0,0,1-.24-.47,11.54,11.54,0,0,1-.52-1.57,1.49,1.49,0,0,1,1.46-1.86c.3,0,.42-.14.35-.46a2,2,0,0,0-.15-.45,2.85,2.85,0,0,1-.22-1.26,1.43,1.43,0,0,1,1.21-1.49c.32-.08.37-.21.2-.52-.07-.11-.15-.2-.22-.31a3.67,3.67,0,0,1-.31-.67,1.4,1.4,0,0,1,1.65-1.8,6.67,6.67,0,0,1,.91.27c.08-.4.13-.8.23-1.19a5,5,0,0,1,.37-1.09c.22-.45.4-.5.91-.42a1.56,1.56,0,0,0,.31,0c0-.16,0-.31,0-.48.07-.77.12-1.54.2-2.31a2.87,2.87,0,0,1,.17-.49,1.1,1.1,0,0,1,1.74-.57l.24.12a7.86,7.86,0,0,1,.15-1.14,4.3,4.3,0,0,1,.48-1.12.87.87,0,0,1,.94-.49c.22,0,.34-.07.44-.3a8.89,8.89,0,0,1,.78-1.46,1.51,1.51,0,0,1,1-.65.88.88,0,0,1,1,.33c.12.17.24.34.54.27,0-.15.08-.33.13-.52.16-.52.27-1,.46-1.54a4.12,4.12,0,0,1,.57-1,1,1,0,0,1,1.15-.4,1.09,1.09,0,0,1,.89.83c0,.14.07.27.12.46a5.5,5.5,0,0,1,.37-.42,5,5,0,0,1,1.59-1.34,2,2,0,0,1,1.91,0,1.19,1.19,0,0,1,.67,1.48,2.69,2.69,0,0,1-1.39,1.77,8.3,8.3,0,0,1-2.15.69c-.1,0-.2.05-.32.06s0,.24.06.34a1.81,1.81,0,0,1-.76,2,9.48,9.48,0,0,1-1,.57c-.11.06-.27.1-.4.16a2.48,2.48,0,0,1-1.61,2.55c-.3.15-.62.29-1,.44,0,.11.07.21.1.33a1.85,1.85,0,0,1-.43,1.94,4.4,4.4,0,0,1-1.46,1c-.14,0-.25.13-.37.18.18,2,0,2.3-1.26,2.87A2.64,2.64,0,0,1,61.91,32a2.21,2.21,0,0,1,.44,1.68c-.19.64-.74.9-1.29,1.15a4,4,0,0,1,.06,1.88,3.42,3.42,0,0,1-1,1.58,2.35,2.35,0,0,1-.89,3,3.25,3.25,0,0,1,.15.4A10.29,10.29,0,0,1,59.73,43a2.32,2.32,0,0,1-.5,1.78c-.27.35-.2.48.2.62a1.21,1.21,0,0,1,.67,2,6.65,6.65,0,0,1-.65.65l-.39.39a1.78,1.78,0,0,0,.34.08.92.92,0,0,1,1,.72,4.19,4.19,0,0,1,.15,2.08c0,.17,0,.32-.06.45s0,.09.06.12a2.76,2.76,0,0,1,.86,2.9,1.08,1.08,0,0,0,.2,1,3.58,3.58,0,0,1,.79,2.6,1.94,1.94,0,0,1,1.09.9,2.2,2.2,0,0,1,.05,1.39C64.44,61.33,65.2,62.13,64.78,63.49ZM57.12,40.1,57.05,40a.61.61,0,0,1,0,.14c0,.28.05.57.06.83s-.06.47.27.64a16.24,16.24,0,0,0,1.43-1,2.63,2.63,0,0,0,.6-.8,1,1,0,0,0,.05-1c-.35.32-.67.66-1,.94A1.41,1.41,0,0,1,57.12,40.1Zm1.29-4.83c.82-.38,1.66-.73,2.48-1.14a2,2,0,0,0,.64-.57.41.41,0,0,0-.14-.68,1,1,0,0,0-.43-.19,2.26,2.26,0,0,0-1.33.19,1.08,1.08,0,0,0-.53.42c-.27.63-.49,1.3-.71,2l0,.05,0,0A.09.09,0,0,1,58.41,35.27ZM64,69.47a7.6,7.6,0,0,0,1.81-2.11,2.76,2.76,0,0,0,.07-2.27,1,1,0,0,0-1.27-.6,1.9,1.9,0,0,0-1.44,1.79c0,.32,0,.66,0,1A2.78,2.78,0,0,0,64,69.47Zm-6.9-15.65c.1,0,.17,0,.2-.08A4.94,4.94,0,0,1,59,52.36a1.61,1.61,0,0,0,.91-1.44,3.26,3.26,0,0,0,0-.53,3,3,0,0,0-.2-.89c-.2-.46-.47-.54-.92-.35a3.58,3.58,0,0,0-2,2.49.48.48,0,0,0,0,.17C56.87,52.48,57,53.13,57.12,53.82Zm2.16,6.77a2,2,0,0,0,.3-.22c.37-.37.74-.74,1.09-1.11a3.84,3.84,0,0,0,.59-.62,1.5,1.5,0,0,0,.28-1.47,6.19,6.19,0,0,0-.58-1,.45.45,0,0,0-.57-.19,3.76,3.76,0,0,0-1.83,1.36,1,1,0,0,0-.12,1c.14.29.22.61.34.91S59.1,60.14,59.28,60.59ZM54.56,48.36c0-.09.08-.12.08-.15,0-1.19.08-2.38.1-3.55a.8.8,0,0,0-.2-.52A11.93,11.93,0,0,0,53.32,43a.56.56,0,0,0-1,.35,1.72,1.72,0,0,0,0,.64c.12.63.27,1.25.44,1.89A5.83,5.83,0,0,0,54.56,48.36Zm6,6.73a3.68,3.68,0,0,0,.12-1.56,2.25,2.25,0,0,0-.24-.65.37.37,0,0,0-.54-.18,3,3,0,0,0-.72.45c-.53.55-1,1.12-1.55,1.71a.44.44,0,0,0-.14.28A10.14,10.14,0,0,0,58,56.85a12.84,12.84,0,0,1,1.16-1A13.92,13.92,0,0,1,60.54,55.09Zm-4.73-.23c-.2-.77-.38-1.48-.58-2.15A.82.82,0,0,0,55,52.4c-.62-.49-1.26-1-1.9-1.43a2.8,2.8,0,0,0-.65-.37c-.45-.16-.65,0-.6.47a2.26,2.26,0,0,0,.8,1.71c.55.44,1.12.82,1.71,1.22.37.26.82.36,1.12.72A1.5,1.5,0,0,0,55.81,54.86Zm.59-9.32.05,0a4,4,0,0,1,0,.49.37.37,0,0,0,.27.41,1.08,1.08,0,0,0,.5,0c.07,0,.14-.12.19-.18.36-.52.73-1,1.07-1.54a6.22,6.22,0,0,0,.5-1.08,2.08,2.08,0,0,0,.08-.78.65.65,0,0,0-.58-.67.93.93,0,0,0-.87.15,1.62,1.62,0,0,0-.74,1.14,8.06,8.06,0,0,1-.18.88C56.58,44.76,56.5,45.14,56.4,45.54Zm.22,11.86A2,2,0,0,0,55.85,56c-.15-.08-.24-.27-.37-.4a3.29,3.29,0,0,0-1.43-.94A.83.83,0,0,0,53,55a1,1,0,0,0,.3,1.62,5.27,5.27,0,0,0,2.13.86A2.12,2.12,0,0,0,56.62,57.4Zm4.47,6.45c0-.13.08-.28.1-.43A3.82,3.82,0,0,1,62.41,61a1.11,1.11,0,0,0,.34-1.2c-.1-.47-.35-.61-.79-.44a3,3,0,0,0-1.67,1.44,2,2,0,0,0,0,2.06,5.33,5.33,0,0,1,.32.74A.39.39,0,0,0,61.09,63.85Zm1.12,2.9a1.43,1.43,0,0,0,.07-.28,4.69,4.69,0,0,1,1.59-2.85,1.28,1.28,0,0,0-.18-2,.48.48,0,0,0-.59-.06A2,2,0,0,0,62,63.07a11.14,11.14,0,0,0,0,3.21A1.79,1.79,0,0,0,62.21,66.75Zm.61,3.47A12.29,12.29,0,0,1,62.05,69a1.54,1.54,0,0,0-1.33-.86,2,2,0,0,0-1.25.14.91.91,0,0,0,0,1.64,1.71,1.71,0,0,0,.39.17,8.13,8.13,0,0,0,2.54.28A3.92,3.92,0,0,0,62.82,70.22Zm-4.71-8.74c-.22-.57-.39-1-.57-1.48a1.11,1.11,0,0,0-.25-.33c-.24-.22-.5-.42-.74-.62a3.68,3.68,0,0,0-1.42-.72.74.74,0,0,0-.81.26.61.61,0,0,0,0,.81,4,4,0,0,0,.93.94A13.22,13.22,0,0,0,58.11,61.48ZM56.57,36.06c.3-.92.57-1.74.84-2.58a.38.38,0,0,0,0-.15,3.79,3.79,0,0,0-.67-1.51c-.49-.53-.94-.47-1.24.19a.85.85,0,0,0-.09.31A5.15,5.15,0,0,0,56.57,36.06Zm4.37,31.31c0-.06,0-.08,0-.1A3.73,3.73,0,0,0,58.76,65a1.93,1.93,0,0,0-1.61-.08.47.47,0,0,0-.3.78,2.07,2.07,0,0,0,.62.66A8.65,8.65,0,0,0,60.94,67.37ZM71.11,16.19a14.24,14.24,0,0,0,1.42-.28,4.19,4.19,0,0,0,1.66-.86,1.09,1.09,0,0,0,.4-.9.7.7,0,0,0-.88-.74,3.28,3.28,0,0,0-1.08.44A5.34,5.34,0,0,0,71,15.62.39.39,0,0,0,71.11,16.19ZM55.7,39.26c.18-.69.37-1.31.52-1.93a.51.51,0,0,0-.09-.28c-.18-.37-.38-.72-.57-1.09a.83.83,0,0,0-1-.57.81.81,0,0,0-.75.94,2.74,2.74,0,0,0,.08.64A5.5,5.5,0,0,0,55.7,39.26Zm-.81,4.06c.14-.78.25-1.43.37-2.08a.85.85,0,0,0,0-.47,11.15,11.15,0,0,0-.92-1.39c-.31-.37-.64-.3-1,0a1.36,1.36,0,0,0-.25,1.27A5.18,5.18,0,0,0,54.89,43.32Zm2.47-4.83a6.22,6.22,0,0,1,.87-.39c.33-.1.67-.13,1-.2a.51.51,0,0,0,.29-.13,3.51,3.51,0,0,0,1.07-1.58.52.52,0,0,0-.67-.68A3.07,3.07,0,0,0,57.36,38.49ZM56.5,50.05l.24-.22,2.37-2.56a2.34,2.34,0,0,0,.42-.62.66.66,0,0,0,0-.5.46.46,0,0,0-.56-.22,1.3,1.3,0,0,0-.43.2,15.16,15.16,0,0,0-1.59,1.51,2.33,2.33,0,0,0-.51,1.14A3.72,3.72,0,0,0,56.5,50.05Zm2.71,14.06c-.23-.71-.43-1.38-1.2-1.65-.47-.16-.92-.41-1.38-.6a5.83,5.83,0,0,0-.72-.18c-.18,0-.43-.1-.51.11a.91.91,0,0,0,0,.61,1.18,1.18,0,0,0,.43.53,5.7,5.7,0,0,0,1.17.62A7.88,7.88,0,0,0,59.21,64.11Zm5.9-43.63.29-.23a12.55,12.55,0,0,1,1.1-1.09,1.09,1.09,0,0,0,.34-1.29c0-.15-.09-.32-.15-.46-.25-.53-.59-.58-1-.16A2.86,2.86,0,0,0,65.11,20.48ZM57.92,32.24c.12-.28.24-.43.24-.6a5.26,5.26,0,0,0-.34-2.6,1.16,1.16,0,0,0-.88-.72.83.83,0,0,0-.51.08,1,1,0,0,0-.13,1.18,9.42,9.42,0,0,1,1.26,2.12C57.64,31.86,57.76,32,57.92,32.24Zm6.86-8.83L63,25.72c.05.05.06.09.1.09A3.07,3.07,0,0,0,66.17,24c.15-.35,0-.53-.39-.57A8.58,8.58,0,0,1,64.78,23.41Zm-5.11,8.4c.42,0,.72,0,1,0a2,2,0,0,0,1.78-1.36c.18-.42,0-.67-.44-.69a6.38,6.38,0,0,0-1.07,0,.73.73,0,0,0-.49.25C60.19,30.57,60,31.15,59.67,31.81Zm1.39-3c.58,0,1,0,1.51,0a1.42,1.42,0,0,0,1.32-1.14c.13-.39-.08-.64-.49-.74s-.7-.2-1.1-.32l-.51.82Zm-.14-2.55a5.19,5.19,0,0,0,.71-1.21,5.33,5.33,0,0,0-.07-2.91c-.07-.2-.15-.37-.4-.37C60.62,22.41,60.42,25.29,60.92,26.26ZM54.79,50.74a.83.83,0,0,0-.2-.84c-.45-.52-.87-1.06-1.31-1.58a4.22,4.22,0,0,0-.55-.57,1.22,1.22,0,0,0-.48-.21c-.46-.07-.69.21-.54.63a6.73,6.73,0,0,0,.38.76,1.15,1.15,0,0,0,.74.55,2.36,2.36,0,0,1,1.53.91A1.88,1.88,0,0,0,54.79,50.74ZM67.74,19.81c-.63.74-1.27,1.46-1.89,2.19,0,0-.1.11-.08.14a1.24,1.24,0,0,0,.15.47.58.58,0,0,0,.36-.09c.32-.18.62-.4,1-.58a2.81,2.81,0,0,0,1.17-1c.25-.44.19-.67-.25-.91Zm.52-2.43c.66-.7,1.22-1.32,1.84-2,0-.17-.08-.49-.13-.8s-.08-.37-.28-.41a.52.52,0,0,0-.57.21A4.79,4.79,0,0,0,68.26,17.38ZM59.11,29.66c.17-.33.32-.6.44-.87a2.12,2.12,0,0,0,.25-.8c0-.61,0-1.23-.08-1.83a.38.38,0,0,0-.35-.39,2.26,2.26,0,0,0-.29.42,11.57,11.57,0,0,0-.45,1.49A2.33,2.33,0,0,0,59.11,29.66Zm4.7-10.35a4.93,4.93,0,0,0-.76,3.88c.37-.48.72-.93,1-1.39,0-.06,0-.2,0-.3,0-.47-.09-.92-.14-1.39C63.94,19.88,63.87,19.64,63.81,19.31ZM68.58,19a.71.71,0,0,0,.07.16,1.85,1.85,0,0,0,1.64-.5A1.58,1.58,0,0,0,70.77,17C70,17.72,69.28,18.34,68.58,19Z"/><path class="cls-2" d="M136.05,63.49c-.07,0-.1.06-.13.06a2,2,0,0,0-1.85,2,4.26,4.26,0,0,0,2,4.11l.51.32c-.94,1.29-1.86,2.54-2.82,3.83.27.42.55.86.89,1.34A41.57,41.57,0,0,0,137.54,71l1.83.12a4.62,4.62,0,0,0,2.48-.64,2.47,2.47,0,0,0,.65-.55,1.26,1.26,0,0,0,.3-1,.79.79,0,0,0-.52-.8c-.12,0-.18-.24-.32-.41l.49-.18a11.47,11.47,0,0,0,1.42-.62,1.66,1.66,0,0,0,.64-2.63c0-.07-.07-.12-.12-.22.15,0,.27-.08.39-.13a8.93,8.93,0,0,0,.84-.37,1.34,1.34,0,0,0,.62-1.57c-.07-.26-.17-.51-.31-.88a1.29,1.29,0,0,0,.37-.28,6.47,6.47,0,0,0,.79-1c.35-.62.3-1.08-.08-2,2.09-1.26,2.27-2,.93-3.84a2.58,2.58,0,0,0,.41-.33,10.71,10.71,0,0,0,1.05-1.08,2,2,0,0,0,0-2.49l-.17-.24a10.9,10.9,0,0,0,.5-1,1.62,1.62,0,0,0-.2-1.64.6.6,0,0,0-.64-.32,2.15,2.15,0,0,1-.48-.08l.26-.57a5.41,5.41,0,0,0,.66-1.81,1.92,1.92,0,0,0-1.22-2.31A.71.71,0,0,1,148,42a10.63,10.63,0,0,0,.34-1.19,1.84,1.84,0,0,0-1.19-2.29,2,2,0,0,1-.17-.12,3.42,3.42,0,0,0,.23-.47,10.31,10.31,0,0,0,.52-1.57,1.49,1.49,0,0,0-1.45-1.86c-.31,0-.42-.14-.36-.46a4,4,0,0,1,.15-.45,2.59,2.59,0,0,0,.22-1.26,1.42,1.42,0,0,0-1.2-1.49c-.32-.08-.37-.21-.2-.52.06-.11.15-.2.21-.31a3.73,3.73,0,0,0,.32-.67,1.4,1.4,0,0,0-1.66-1.8,7,7,0,0,0-.9.27c-.09-.4-.14-.8-.24-1.19a5,5,0,0,0-.36-1.09c-.22-.45-.41-.5-.91-.42a1.66,1.66,0,0,1-.32,0c0-.16,0-.31,0-.48-.07-.77-.12-1.54-.21-2.31a2.15,2.15,0,0,0-.16-.49,1.11,1.11,0,0,0-1.75-.57l-.23.12a7.86,7.86,0,0,0-.15-1.14,4.33,4.33,0,0,0-.49-1.12.87.87,0,0,0-.94-.49c-.21,0-.33-.07-.43-.3a9.77,9.77,0,0,0-.79-1.46,1.49,1.49,0,0,0-.95-.65.89.89,0,0,0-1,.33c-.12.17-.23.34-.53.27l-.14-.52c-.15-.52-.27-1-.45-1.54a4.12,4.12,0,0,0-.57-1,1,1,0,0,0-1.16-.4,1.08,1.08,0,0,0-.88.83c0,.14-.07.27-.12.46-.14-.17-.25-.29-.37-.42a5,5,0,0,0-1.59-1.34,2,2,0,0,0-1.91,0,1.18,1.18,0,0,0-.67,1.48,2.69,2.69,0,0,0,1.39,1.77,8.35,8.35,0,0,0,2.14.69c.1,0,.2.05.32.06s0,.24,0,.34a1.79,1.79,0,0,0,.76,2,8.51,8.51,0,0,0,1,.57c.12.06.27.1.41.16a2.47,2.47,0,0,0,1.6,2.55c.31.15.62.29,1,.44a3.18,3.18,0,0,0-.1.33,1.83,1.83,0,0,0,.43,1.94,4.21,4.21,0,0,0,1.46,1c.13,0,.25.13.37.18-.19,2-.05,2.3,1.25,2.87A2.67,2.67,0,0,0,138.91,32a2.2,2.2,0,0,0-.43,1.68c.18.64.74.9,1.29,1.15a3.87,3.87,0,0,0-.07,1.88,3.52,3.52,0,0,0,1,1.58,2.36,2.36,0,0,0,.88,3c-.05.13-.11.27-.15.4-.11.44-.28.85-.35,1.29a2.32,2.32,0,0,0,.5,1.78c.27.35.21.48-.2.62a1.22,1.22,0,0,0-.67,2,8.11,8.11,0,0,0,.66.65l.38.39a1.74,1.74,0,0,1-.33.08.94.94,0,0,0-1,.72,4.44,4.44,0,0,0-.15,2.08c0,.17.05.32.07.45s0,.09-.07.12a2.77,2.77,0,0,0-.85,2.9,1.11,1.11,0,0,1-.2,1,3.58,3.58,0,0,0-.79,2.6,1.94,1.94,0,0,0-1.09.9,2.2,2.2,0,0,0,0,1.39C136.38,61.33,135.63,62.13,136.05,63.49Zm7.66-23.39.06-.07a.32.32,0,0,0,0,.14c0,.28,0,.57-.07.83s.07.47-.27.64a16.12,16.12,0,0,1-1.42-1,2.63,2.63,0,0,1-.6-.8,1,1,0,0,1-.05-1c.35.32.67.66,1,.94A1.4,1.4,0,0,0,143.71,40.1Zm-1.29-4.83c-.83-.38-1.66-.73-2.48-1.14a1.93,1.93,0,0,1-.64-.57c-.22-.26-.15-.5.13-.68a1.13,1.13,0,0,1,.44-.19,2.23,2.23,0,0,1,1.32.19c.2.1.46.23.54.42.27.63.48,1.3.7,2l0,.05,0,0A.15.15,0,0,0,142.42,35.27Zm-5.62,34.2A7.77,7.77,0,0,1,135,67.36a2.76,2.76,0,0,1-.06-2.27,1,1,0,0,1,1.27-.6,1.91,1.91,0,0,1,1.44,1.79c0,.32,0,.66,0,1A2.72,2.72,0,0,1,136.8,69.47Zm6.91-15.65c-.1,0-.17,0-.21-.08a4.75,4.75,0,0,0-1.64-1.38,1.61,1.61,0,0,1-.9-1.44,2.37,2.37,0,0,1,.17-1.42c.2-.46.46-.54.92-.35a3.54,3.54,0,0,1,2,2.49.25.25,0,0,1,0,.17C144,52.48,143.82,53.13,143.71,53.82Zm-2.17,6.77c-.13-.1-.23-.15-.3-.22l-1.09-1.11a3.78,3.78,0,0,1-.58-.62,1.53,1.53,0,0,1-.29-1.47,5.55,5.55,0,0,1,.59-1,.45.45,0,0,1,.57-.19,3.76,3.76,0,0,1,1.83,1.36,1,1,0,0,1,.11,1c-.13.29-.22.61-.33.91S141.73,60.14,141.54,60.59Zm4.73-12.23c-.05-.09-.08-.12-.08-.15,0-1.19-.09-2.38-.11-3.55a.81.81,0,0,1,.21-.52A11,11,0,0,1,147.51,43a.56.56,0,0,1,1,.35,1.53,1.53,0,0,1,0,.64c-.11.63-.26,1.25-.43,1.89A5.92,5.92,0,0,1,146.27,48.36Zm-6,6.73a3.68,3.68,0,0,1-.12-1.56,2,2,0,0,1,.24-.65.36.36,0,0,1,.53-.18,2.81,2.81,0,0,1,.72.45q.81.83,1.56,1.71c.07.07.15.2.13.28a8.58,8.58,0,0,1-.52,1.71,11.55,11.55,0,0,0-1.15-1A15.12,15.12,0,0,0,140.29,55.09Zm4.72-.23c.2-.77.39-1.48.59-2.15a.73.73,0,0,1,.25-.31c.62-.49,1.26-1,1.89-1.43a2.67,2.67,0,0,1,.66-.37c.45-.16.65,0,.6.47a2.3,2.3,0,0,1-.8,1.71c-.56.44-1.13.82-1.71,1.22-.37.26-.82.36-1.13.72A1.32,1.32,0,0,1,145,54.86Zm-.58-9.32-.05,0a4,4,0,0,0,0,.49.38.38,0,0,1-.27.41,1.07,1.07,0,0,1-.5,0c-.07,0-.14-.12-.19-.18-.37-.52-.74-1-1.07-1.54a6.22,6.22,0,0,1-.5-1.08,2.09,2.09,0,0,1-.09-.78.67.67,0,0,1,.59-.67.93.93,0,0,1,.87.15,1.62,1.62,0,0,1,.74,1.14,6.23,6.23,0,0,0,.18.88C144.24,44.76,144.33,45.14,144.43,45.54Zm-.22,11.86A2,2,0,0,1,145,56c.15-.08.23-.27.37-.4a3.25,3.25,0,0,1,1.42-.94.82.82,0,0,1,1,.39,1,1,0,0,1-.3,1.62,5.16,5.16,0,0,1-2.13.86A2.09,2.09,0,0,1,144.21,57.4Zm-4.47,6.45a2.7,2.7,0,0,1-.11-.43A3.78,3.78,0,0,0,138.41,61a1.12,1.12,0,0,1-.33-1.2c.1-.47.35-.61.78-.44a3.06,3.06,0,0,1,1.68,1.44,2.07,2.07,0,0,1,.05,2.06,5.33,5.33,0,0,0-.32.74A.4.4,0,0,1,139.74,63.85Zm-1.13,2.9a1.1,1.1,0,0,1-.06-.28,4.7,4.7,0,0,0-1.6-2.85,1.29,1.29,0,0,1,.19-2,.47.47,0,0,1,.58-.06,2,2,0,0,1,1.13,1.49,11.9,11.9,0,0,1,0,3.21A1.6,1.6,0,0,1,138.61,66.75Zm-.6,3.47a12.29,12.29,0,0,0,.77-1.27,1.53,1.53,0,0,1,1.32-.86,2,2,0,0,1,1.26.14.91.91,0,0,1,0,1.64A1.63,1.63,0,0,1,141,70a8.16,8.16,0,0,1-2.55.28A3.81,3.81,0,0,1,138,70.22Zm4.71-8.74c.22-.57.38-1,.57-1.48a1.11,1.11,0,0,1,.25-.33c.23-.22.5-.42.74-.62a3.61,3.61,0,0,1,1.42-.72.72.72,0,0,1,.8.26.6.6,0,0,1,0,.81,3.81,3.81,0,0,1-.94.94A13.13,13.13,0,0,1,142.72,61.48Zm1.54-25.42c-.3-.92-.57-1.74-.84-2.58a.19.19,0,0,1,0-.15,3.79,3.79,0,0,1,.67-1.51c.49-.53.94-.47,1.24.19a1.09,1.09,0,0,1,.08.31A5.1,5.1,0,0,1,144.26,36.06Zm-4.37,31.31c0-.06,0-.08,0-.1A3.74,3.74,0,0,1,142.06,65a1.93,1.93,0,0,1,1.61-.08.47.47,0,0,1,.3.78,1.87,1.87,0,0,1-.62.66A8.6,8.6,0,0,1,139.89,67.37ZM129.72,16.19a14.43,14.43,0,0,1-1.43-.28,4.33,4.33,0,0,1-1.66-.86,1.15,1.15,0,0,1-.4-.9.71.71,0,0,1,.89-.74,3.23,3.23,0,0,1,1.07.44,5.37,5.37,0,0,1,1.61,1.77A.39.39,0,0,1,129.72,16.19Zm15.41,23.07c-.18-.69-.37-1.31-.52-1.93a.43.43,0,0,1,.08-.28c.19-.37.39-.72.57-1.09a.85.85,0,0,1,1-.57.81.81,0,0,1,.75.94,2.74,2.74,0,0,1-.08.64A5.5,5.5,0,0,1,145.13,39.26Zm.8,4.06c-.13-.78-.25-1.43-.36-2.08a.7.7,0,0,1,0-.47,10.14,10.14,0,0,1,.92-1.39c.3-.37.64-.3,1,0a1.36,1.36,0,0,1,.25,1.27A5.26,5.26,0,0,1,145.93,43.32Zm-2.46-4.83a6.79,6.79,0,0,0-.87-.39c-.33-.1-.67-.13-1-.2a.49.49,0,0,1-.28-.13,3.36,3.36,0,0,1-1.07-1.58.52.52,0,0,1,.67-.68A3.07,3.07,0,0,1,143.47,38.49Zm.86,11.56-.24-.22-2.38-2.56a2.34,2.34,0,0,1-.42-.62.66.66,0,0,1,0-.5.46.46,0,0,1,.55-.22,1.35,1.35,0,0,1,.44.2,15.16,15.16,0,0,1,1.59,1.51,2.23,2.23,0,0,1,.5,1.14A3.7,3.7,0,0,1,144.33,50.05Zm-2.72,14.06c.24-.71.44-1.38,1.21-1.65.47-.16.92-.41,1.37-.6a6.88,6.88,0,0,1,.72-.18c.19,0,.44-.1.52.11a.91.91,0,0,1,0,.61,1.18,1.18,0,0,1-.43.53,5.77,5.77,0,0,1-1.18.62A7.71,7.71,0,0,1,141.61,64.11Zm-5.9-43.63a3.45,3.45,0,0,1-.28-.23,11.4,11.4,0,0,0-1.11-1.09,1.08,1.08,0,0,1-.33-1.29,3.53,3.53,0,0,1,.15-.46c.25-.53.59-.58,1-.16A2.85,2.85,0,0,1,135.71,20.48Zm7.19,11.76a1.85,1.85,0,0,1-.23-.6A5.25,5.25,0,0,1,143,29a1.19,1.19,0,0,1,.89-.72.79.79,0,0,1,.5.08,1,1,0,0,1,.14,1.18,9.07,9.07,0,0,0-1.26,2.12A6,6,0,0,1,142.9,32.24Zm-6.85-8.83,1.81,2.31c-.05.05-.07.09-.1.09a3.06,3.06,0,0,1-3.1-1.78c-.15-.35,0-.53.38-.57A8.65,8.65,0,0,0,136.05,23.41Zm5.11,8.4c-.42,0-.72,0-1,0a2,2,0,0,1-1.78-1.36c-.18-.42,0-.67.44-.69a6.38,6.38,0,0,1,1.07,0,.73.73,0,0,1,.49.25C140.64,30.57,140.87,31.15,141.16,31.81Zm-1.39-3c-.59,0-1.06,0-1.51,0a1.4,1.4,0,0,1-1.32-1.14c-.14-.39.08-.64.48-.74s.71-.2,1.11-.32l.5.82C139.25,27.83,139.47,28.25,139.77,28.81Zm.13-2.55a5.13,5.13,0,0,1-.7-1.21,5.33,5.33,0,0,1,.07-2.91c.06-.2.15-.37.4-.37A6.57,6.57,0,0,1,139.9,26.26ZM146,50.74a.81.81,0,0,1,.21-.84c.45-.52.87-1.06,1.3-1.58a4.3,4.3,0,0,1,.56-.57,1.16,1.16,0,0,1,.48-.21c.45-.07.69.21.54.63a5.45,5.45,0,0,1-.39.76,1.13,1.13,0,0,1-.74.55,2.36,2.36,0,0,0-1.52.91A1.74,1.74,0,0,1,146,50.74ZM133.08,19.81c.64.74,1.28,1.46,1.9,2.19,0,0,.1.11.08.14a1.44,1.44,0,0,1-.15.47.62.62,0,0,1-.37-.09c-.32-.18-.62-.4-.95-.58a2.78,2.78,0,0,1-1.18-1c-.25-.44-.18-.67.26-.91Zm-.52-2.43c-.65-.7-1.22-1.32-1.84-2,0-.17.09-.49.14-.8s.08-.37.28-.41a.52.52,0,0,1,.57.21A4.78,4.78,0,0,1,132.56,17.38Zm9.15,12.28c-.17-.33-.32-.6-.43-.87A2.12,2.12,0,0,1,141,28c0-.61.05-1.23.08-1.83a.37.37,0,0,1,.35-.39c.08.14.24.27.29.42a13.4,13.4,0,0,1,.45,1.49A2.34,2.34,0,0,1,141.71,29.66ZM137,19.31a5,5,0,0,1,.76,3.88c-.37-.48-.73-.93-1-1.39a.43.43,0,0,1,0-.3c0-.47.08-.92.13-1.39C136.89,19.88,137,19.64,137,19.31ZM132.25,19l-.07.16a1.85,1.85,0,0,1-1.64-.5,1.58,1.58,0,0,1-.49-1.61Z"/><path class="cls-3" d="M121.5,7.13a1.6,1.6,0,0,1,.62,1.2,2.37,2.37,0,0,1,0,.64,7.31,7.31,0,0,0,.62,3h-1.64c-.13.34-.27.66-.42,1l-3.9.1A20.3,20.3,0,0,0,117.42,9c.67-.41,1.34-.83,2-1.25l.65-.44.39-.25c.2,0,.4.08.6.1A1.71,1.71,0,0,0,121.5,7.13Z"/><path class="cls-4" d="M121.5,7.13a3.15,3.15,0,0,1-.43,0c-.2,0-.4-.07-.62-.1.07-.49.15-1,.22-1.48a4.91,4.91,0,0,0,0-2,.87.87,0,0,0-.44-.62v.47c0,.82,0,1.64,0,2.46,0,.48-.08,1-.12,1.44-.21.15-.43.28-.65.43,0-.73.1-1.45.1-2.19s-.05-1.42-.1-2.14c0-.17-.07-.36-.1-.57a4.16,4.16,0,0,0-2.7,1.54c-.1.13-.58.77-.45,1.19-.27,0-.62-.17-.9-.19.08-.53.2-1.15.28-1.69a4.06,4.06,0,0,1,2-3.17,1.16,1.16,0,0,1,1.77.34,10.46,10.46,0,0,1,.62,1c.14,0,.3.06.49.06a1.08,1.08,0,0,1,.95.61,3.63,3.63,0,0,1,.47,1.59,8,8,0,0,1-.25,2.44A3.89,3.89,0,0,0,121.5,7.13Zm-4.7-4.31A4.53,4.53,0,0,1,119,2c-.27-.56-.57-.74-.94-.57a2.15,2.15,0,0,0-1.29,1.34.51.51,0,0,0,0,.17A.15.15,0,0,1,116.8,2.82Z"/><path class="cls-5" d="M120.24,41.32a6.73,6.73,0,0,0-1.22-2,2.78,2.78,0,0,1-.59-1.08q-1.26-3.91-2.51-7.8c-.07-.22-.24-.84-.24-.84l.3.25s.54-.79.71-1.06l-1.81-1.35c-.29.35-.52.67-.76,1l.49.42-.27.2c-2.7,1.27-5.39,2.56-8.09,3.82a1.63,1.63,0,0,1-.77.15,7.49,7.49,0,0,0-2.48.4,2.69,2.69,0,0,0-1.51,2.63,6.18,6.18,0,0,0,1.21,2.8,14.08,14.08,0,0,0,4.45,3.92l1.14.62V46H106.2v2.36h6.1V46h-2.21V44.13l.5.17a16.39,16.39,0,0,0,5.9.8,6.5,6.5,0,0,0,2.44-.57A2.37,2.37,0,0,0,120.24,41.32Zm-1.59-.82a.71.71,0,0,0,.15.16c-.09,0-.14.07-.15.05a.12.12,0,0,1-.09-.11S118.61,40.53,118.65,40.5Zm.43,1.45c-.25.24-.47.42-.72.64l-1.14-1c.32-.23.61-.45,1-.72C118.5,41.22,118.76,41.57,119.08,42Zm-5.63,1.34c.84-.33.84-.33,1.28.29Zm.93.62V44H114s0-.07,0-.1Zm-4.68-3.53.82.25c-.13.37-.15.72-.5.95C109.57,41.28,109.8,40.85,109.7,40.38Zm-1.47-.29,0-.1,1,.22V41C108.88,40.65,108.54,40.38,108.23,40.09Zm.38.94v0s0,0,0,0Zm.81.7c-.59,0-.69-.15-.79-.65A2.22,2.22,0,0,1,109.42,41.73Zm-.1-2-1.24-.25-.22-2.06,1.76.43C109.5,38.52,109.42,39.1,109.32,39.74Zm-3.52-1.66c-.37-.32-.37-.32-.51-1l2.12.25q0,.53.06,1c0,.32.07.64.1.94-.21.15-.33,0-.45-.1Zm.65,1.13c-.3.08-.42,0-.45-.24,0,0,0-.08,0-.12l.07.07C106.17,39,106.3,39.09,106.45,39.21Zm-.54.63h-.11a1.22,1.22,0,0,0-.14-.16l0,0,.16.13Zm-.77-3.21c-.08-.44-.18-.91-.28-1.45a11.11,11.11,0,0,1,2.58.21c0,.51,0,1,0,1.49ZM108,41.08s0,.05,0,.07-.05,0-.06,0a2.89,2.89,0,0,1-1.51-1.27C107.31,39.69,107.86,40.14,108,41.08Zm-.14-4.14c0-.48,0-.93.09-1.49l2.19.59c-.15.48-.26.9-.42,1.39Zm4.88,4.31-1.12-.64c.35-.5.7-1,1.09-1.51.53.31,1,.61,1.69.94Zm.32.89-.76-.1C112.65,41.7,112.68,41.7,113.07,42.14Zm-1.31-3.42a4.81,4.81,0,0,0,.5.18,6.32,6.32,0,0,1-1,1.34l-.1-.05C111.39,39.71,111.56,39.24,111.76,38.72Zm-.25-.65-1.34-.51c.13-.45.25-.87.4-1.37.52.22,1,.38,1.44.57C111.83,37.21,111.68,37.61,111.51,38.07Zm1.44.65c.24-.4.44-.75.67-1.17a15.76,15.76,0,0,1,2,1.19l-.92,1C114.14,39.37,113.57,39.05,113,38.72ZM116,39l1.85,1.51c-.42.28-.72.5-1,.73L115.13,40Zm-.08-.62-2.13-1.26c.14-.3.29-.6.45-1,.78.49,1.48,1,2.25,1.44C116.3,37.85,116.13,38.1,116,38.37Zm-2.55-1.46c-.28-.13-.53-.27-.82-.4.14-.34.25-.66.4-1l.86.43C113.69,36.26,113.55,36.56,113.4,36.91Zm-.2.44-.67,1.19c-.2-.11-.37-.17-.58-.27.16-.46.31-.86.48-1.33Zm-1-1-1.41-.55c.15-.35.27-.67.42-1.05l1.41.56C112.41,35.67,112.3,36,112.15,36.32Zm-1.85-.7c-.78-.22-1.5-.4-2.29-.6.07-.39.12-.76.18-1.21l2.55.74Zm-.47,4.31a6.79,6.79,0,0,1,.22-1.85,4.23,4.23,0,0,1,1.29.46c-.22.55-.42,1.1-.63,1.67Zm1.45,1c.3.15.57.3.93.5a2,2,0,0,1-1.55.31C110.72,41.42,111.06,41.27,111.28,41Zm.93,1.48,1.26.16a2.64,2.64,0,0,1-2.56-.2A3.12,3.12,0,0,1,112.21,42.46Zm1.63-.37c-.22-.17-.44-.36-.69-.54l1.64-1.24,1.68,1.19c-.62.29-1.09.55-1.58.75A1,1,0,0,1,113.84,42.09Zm1,.72c.74.1,1.5.2,2.25.32v.13c-.49.1-1,.22-1.44.3a.49.49,0,0,1-.34-.1c-.18-.15-.35-.35-.52-.52A.69.69,0,0,0,114.84,42.81Zm.88-.42c.33-.19.68-.39,1.08-.6l1,.9A8,8,0,0,1,115.72,42.39Zm2.47-2.21c-.6-.51-1.2-1-1.85-1.53l.55-.77c.6.57,1.34,1,1.54,1.83C118.48,39.94,118.45,40.09,118.19,40.18Zm-.33-2.2a25.11,25.11,0,0,0-4.71-2.91c.67-1.78,2-5.43,2-5.43S117,35.27,117.86,38ZM115,28.13l1,.76-.17.28-1-.77Zm-.33,1.24a41.35,41.35,0,0,1-2,5.48A22.61,22.61,0,0,0,107,33.14s0-.08,0-.12Zm-6.92,4.41c-.07.38-.12.75-.18,1.12l-2.73-.23c0-.19,0-.37-.07-.54A2.9,2.9,0,0,1,107.74,33.78Zm-3.1,2.79a.73.73,0,0,1-.84-.15c-.35-.31-.72-.6-1.19-1l1.78-.27C104.49,35.67,104.57,36.11,104.64,36.57Zm-1.19-1.74a.22.22,0,0,0,0-.1l.82-.42c.05.14.08.24.13.39C104,34.75,103.75,34.8,103.45,34.83Zm.82-1.27c0,.08,0,.18,0,.23a10,10,0,0,1-2,.89A2,2,0,0,1,104.27,33.56Zm-1.62,3.2-.44-.89.14-.08,1,.84Zm.43,1.81h0v0A.09.09,0,0,0,103.08,38.57Zm.61.84a.06.06,0,0,1,0,0l0-.07,0,0s0,0,0,0l0,0ZM103,37.19c.48-.13.9-.21,1.27.17a1.57,1.57,0,0,0,.25.2,2.54,2.54,0,0,1,1,1.54.8.8,0,0,1-.86-.18A11.47,11.47,0,0,1,103,37.19Zm1.42,2.2-.1-.12a.74.74,0,0,0-.08-.13l0,0h0a.07.07,0,0,1,0,0,.29.29,0,0,0,.13.08.58.58,0,0,0,.12.1,1.57,1.57,0,0,0,.18.19.83.83,0,0,1,.14.13l.13.08a.63.63,0,0,0,.07.12l-.15,0-.1-.12a1,1,0,0,1-.16-.12Zm.8,1.39-.13-.08a2.12,2.12,0,0,0-.2-.12l-.1-.1a.46.46,0,0,1-.07-.07l.1,0,.1.1a1.32,1.32,0,0,1,.2.12,1,1,0,0,1,.1.11Zm-.13-.85a26.45,26.45,0,0,0,8.23,3.75l.48.12a.49.49,0,0,0,0,.11l-.46,0a19.47,19.47,0,0,1-4.39-1.37,15.24,15.24,0,0,1-3.45-2.1A1.5,1.5,0,0,1,105.06,39.93Zm.32,1.07a.42.42,0,0,1-.09-.14.46.46,0,0,0,.14.07l.07.08Zm.42.33a.4.4,0,0,1-.12-.1s0-.06-.07-.08l.14,0a.36.36,0,0,1,.11.1l0,.1Zm.35.27a.62.62,0,0,1-.08-.12s.08-.06.1,0a1.25,1.25,0,0,0,.08.12Zm.35.22-.12-.09s.05-.08.07-.08a.5.5,0,0,1,.12.08S106.52,41.82,106.5,41.82Zm5.35,4.64v1.42h-5.23V46.46Zm-3.07-.55V43.66l.42.14a.45.45,0,0,1,.38.53c0,.52,0,1,0,1.58Zm4.76-1.39a18.28,18.28,0,0,1-6.12-2.13,2.1,2.1,0,0,1-.3-.22l-.12-.1-.3-.18a.07.07,0,0,1,.09,0l.25.2.13.09a3.61,3.61,0,0,1,.49.21,19.31,19.31,0,0,0,7.5,2.17c.56,0,1.11,0,1.66,0A13.33,13.33,0,0,1,113.54,44.52Zm3.43-.79,1-.44c.28-.11.33-.08.68.35A3.48,3.48,0,0,1,117,43.73Zm1.73-.82.57-.5c.06.21.11.33.16.5Zm.75-1.41c-.12-.4-.23-.77-.4-1.24C119.64,40.81,119.72,41.1,119.45,41.5Zm.49,1c-.12-.22-.46-.42-.09-.68C120.07,42.05,120,42.29,119.94,42.52Z"/><path class="cls-5" d="M87.68,40.23H82.55c-.68,0-.9-.22-.9-.9V31.45c0-.7.23-.93.94-.93,3.4,0,6.8,0,10.2,0,.74,0,.95.37.95,1,0,2.6,0,5.18,0,7.77v.32a.64.64,0,0,1-.71.66H87.68Zm5.54-.43c0-.27,0-.47,0-.67V31.3a.3.3,0,0,0-.33-.33H82.52c-.35,0-.4.06-.42.42v7.7a3.24,3.24,0,0,0,0,.44.25.25,0,0,0,.28.27H93.22Z"/><path class="cls-6" d="M47.57,86.17l.6.49a.62.62,0,0,0-.11.28.39.39,0,0,0,.16.35.35.35,0,0,0,.26.12.24.24,0,0,0,.2-.08.23.23,0,0,0,0-.2,1,1,0,0,0-.2-.39,1.67,1.67,0,0,1-.36-.75.75.75,0,0,1,.17-.54.61.61,0,0,1,.35-.2.82.82,0,0,1,.46,0,1.6,1.6,0,0,1,.55.35,1.39,1.39,0,0,1,.45.66.81.81,0,0,1-.17.65l-.6-.48a.51.51,0,0,0,.08-.29.34.34,0,0,0-.15-.23.26.26,0,0,0-.2-.1.17.17,0,0,0-.15.06.17.17,0,0,0,0,.12.65.65,0,0,0,.13.25,3.49,3.49,0,0,1,.42.69.67.67,0,0,1,.05.43.72.72,0,0,1-.18.36.94.94,0,0,1-.42.25.85.85,0,0,1-.5,0,1.54,1.54,0,0,1-.56-.35,1.35,1.35,0,0,1-.52-.82A1.08,1.08,0,0,1,47.57,86.17Z"/><path class="cls-6" d="M50.57,89.39l-.7-.61-.39.26-.62-.54,2.46-1.37.69.56-.94,2.65-.65-.55Zm.25-.54.39-.9-.84.53Z"/><path class="cls-6" d="M52.53,88.16l1.94,1.55-.4.5-.65-.52L52.2,91.25l-.64-.51,1.22-1.55-.65-.52Z"/><path class="cls-6" d="M54.67,89.84l.66.49-.55.73.72.52.55-.74.65.49-1.56,2.13L54.49,93l.64-.85-.72-.52-.64.85L53.12,92Z"/><path class="cls-6" d="M56.84,91.43l.75.5-.05,1,.92-.45.74.5-1.71.69-.6.94-.67-.45.62-.93Z"/><path class="cls-6" d="M59.25,95.65l-.79-.48-.33.3L57.42,95l2.25-1.71.75.47-.57,2.75-.72-.45Zm.17-.57.25-1-.76.65Z"/><path class="cls-6" d="M61.38,94.38l1.32.77a.94.94,0,0,1,.42.45.69.69,0,0,1,0,.51.63.63,0,0,1-.34.26.6.6,0,0,1-.33,0,.84.84,0,0,1,.25.42.71.71,0,0,1-.1.43.64.64,0,0,1-.27.27.67.67,0,0,1-.35.1,1,1,0,0,1-.32-.08l-.33-.15-1.23-.71Zm-.32,2.21.35.2a.5.5,0,0,0,.3.09.22.22,0,0,0,.17-.14.24.24,0,0,0,0-.2.9.9,0,0,0-.22-.22l-.35-.2Zm.52-.9.3.18a.49.49,0,0,0,.27.08.24.24,0,0,0,.16-.13.29.29,0,0,0,0-.2c0-.07-.09-.12-.19-.19l-.31-.18Z"/><path class="cls-6" d="M64.09,98.43,63.27,98l-.32.32-.74-.39,2.11-1.86.79.42-.37,2.8-.75-.4Zm.12-.58.18-1-.7.7Z"/><path class="cls-6" d="M66.1,97l1,.47-.32,1.62,1.08-1.27,1,.47-1.14,2.38-.6-.29.87-1.81-1.34,1.6-.54-.27.42-2-.87,1.81L65,99.41Z"/><path class="cls-6" d="M69.74,101.11l-.86-.36-.28.35-.77-.34,2-2,.82.35-.14,2.81-.78-.33Zm.06-.58.12-1-.64.75Z"/><path class="cls-6" d="M72.8,100l.76.29-.94,2.46-.76-.29Z"/><path class="cls-6" d="M74,100.46l.73.25.45,1.71.48-1.37.72.25-.87,2.48-.72-.25-.45-1.7-.49,1.36-.72-.25Z"/><path class="cls-6" d="M76.15,103.06l.76.18a.58.58,0,0,0,0,.3.37.37,0,0,0,.3.25.36.36,0,0,0,.29,0,.25.25,0,0,0,.15-.15.21.21,0,0,0,0-.2,1.07,1.07,0,0,0-.35-.26,1.73,1.73,0,0,1-.64-.54.63.63,0,0,1-.07-.55.69.69,0,0,1,.22-.34.93.93,0,0,1,.42-.17,1.94,1.94,0,0,1,.65.1,1.42,1.42,0,0,1,.69.41.8.8,0,0,1,.12.67l-.76-.19a.35.35,0,0,0,0-.28.39.39,0,0,0-.23-.15.21.21,0,0,0-.22,0,.19.19,0,0,0-.12.11.16.16,0,0,0,0,.12.6.6,0,0,0,.23.17,3.27,3.27,0,0,1,.66.45.88.88,0,0,1,.23.39.69.69,0,0,1,0,.4.74.74,0,0,1-.26.4,1.1,1.1,0,0,1-.47.2,1.5,1.5,0,0,1-.64-.08,1.32,1.32,0,0,1-.82-.52A1.09,1.09,0,0,1,76.15,103.06Z"/><path class="cls-6" d="M79.07,102.12l2.38.65-.17.62-.81-.21-.51,1.9-.79-.21.52-1.91-.81-.22Z"/><path class="cls-6" d="M81.75,102.84l.79.2-.62,2.56-.79-.2Z"/><path class="cls-6" d="M82.85,103.12l2.42.52-.14.64-.8-.18L83.91,106l-.79-.17.42-1.94-.8-.19Z"/><path class="cls-6" d="M87.19,104l.81.15-.29,1.54a1.4,1.4,0,0,1-.15.42,1.08,1.08,0,0,1-.28.32,1,1,0,0,1-.35.15,1.86,1.86,0,0,1-.57,0,2,2,0,0,1-.41-.1,1.14,1.14,0,0,1-.35-.17,1.22,1.22,0,0,1-.23-.27.82.82,0,0,1-.12-.33,1.69,1.69,0,0,1,0-.45l.28-1.55.81.16-.3,1.57a.42.42,0,0,0,.35.54.45.45,0,0,0,.54-.39Z"/><path class="cls-6" d="M88.23,104.18l2.45.35-.09.64-.82-.12-.28,2-.81-.12.29-2-.82-.11Z"/><path class="cls-6" d="M91,104.55l2.16.23-.07.56-1.36-.15-.05.41,1.26.14,0,.53-1.26-.13,0,.52,1.39.15-.06.59-2.22-.24Z"/><path class="cls-6" d="M94.46,106.22a1.37,1.37,0,1,1,2.73.12,1.61,1.61,0,0,1-.2.76,1.09,1.09,0,0,1-.47.43,1.52,1.52,0,0,1-.73.12,1.72,1.72,0,0,1-.72-.19,1.16,1.16,0,0,1-.46-.47A1.47,1.47,0,0,1,94.46,106.22Zm.82,0a.9.9,0,0,0,.12.59.52.52,0,0,0,.39.2.46.46,0,0,0,.42-.15,1,1,0,0,0,.18-.6.78.78,0,0,0-.12-.55.54.54,0,0,0-.4-.21.47.47,0,0,0-.4.15A.78.78,0,0,0,95.28,106.27Z"/><path class="cls-6" d="M97.6,105.07l2,.05,0,.57-1.19,0,0,.45,1,0,0,.54-1,0,0,1.07h-.82Z"/><path class="cls-6" d="M101.1,106.88l.77-.07a.51.51,0,0,0,.12.29.43.43,0,0,0,.36.15.41.41,0,0,0,.27-.09.2.2,0,0,0,.09-.18.26.26,0,0,0-.1-.19,1,1,0,0,0-.42-.13,1.76,1.76,0,0,1-.77-.3.71.71,0,0,1-.25-.5.76.76,0,0,1,.1-.39.71.71,0,0,1,.35-.3,1.53,1.53,0,0,1,.63-.12,1.24,1.24,0,0,1,.78.17.85.85,0,0,1,.33.59l-.77.06a.43.43,0,0,0-.13-.25.39.39,0,0,0-.27-.07.29.29,0,0,0-.22.07.16.16,0,0,0-.07.15.13.13,0,0,0,.07.12.5.5,0,0,0,.27.08,3.22,3.22,0,0,1,.77.22.84.84,0,0,1,.35.29.74.74,0,0,1,.12.38.81.81,0,0,1-.14.47.77.77,0,0,1-.38.33,1.6,1.6,0,0,1-.64.14,1.28,1.28,0,0,1-.94-.24A1.36,1.36,0,0,1,101.1,106.88Z"/><path class="cls-6" d="M105.57,106.48l.72.16a1.26,1.26,0,0,1-.2.52,1.2,1.2,0,0,1-.37.34,1.45,1.45,0,0,1-.57.13,1.82,1.82,0,0,1-.7-.08,1.1,1.1,0,0,1-.5-.4,1.4,1.4,0,0,1-.25-.79,1.29,1.29,0,0,1,.28-1,1.55,1.55,0,0,1,1.74-.27,1.26,1.26,0,0,1,.47.58l-.7.21a1.12,1.12,0,0,0-.09-.17.52.52,0,0,0-.16-.14.56.56,0,0,0-.22,0,.47.47,0,0,0-.4.25,1.27,1.27,0,0,0,.08,1.11.44.44,0,0,0,.39.13.63.63,0,0,0,.35-.15A.84.84,0,0,0,105.57,106.48Z"/><path class="cls-6" d="M106.53,104.83l.82-.06.23,2.63-.82.06Z"/><path class="cls-6" d="M107.83,104.72l2.16-.25.07.55-1.36.15,0,.42,1.26-.15.07.53-1.26.17.07.52,1.39-.17.07.59-2.22.25Z"/><path class="cls-6" d="M110.36,104.43l.76-.12,1.2,1.29-.21-1.44.75-.11.4,2.59-.75.12-1.19-1.27.22,1.42-.76.12Z"/><path class="cls-6" d="M115.29,105.17l.74.08a1.3,1.3,0,0,1-.14.54,1,1,0,0,1-.32.37,1.34,1.34,0,0,1-.55.21,1.77,1.77,0,0,1-.72,0,1.24,1.24,0,0,1-.54-.33,1.73,1.73,0,0,1-.35-.76,1.39,1.39,0,0,1,.15-1,1.38,1.38,0,0,1,.91-.54,1.12,1.12,0,0,1,1.34.57l-.67.29a.59.59,0,0,0-.12-.16.67.67,0,0,0-.18-.11.49.49,0,0,0-.24,0,.46.46,0,0,0-.37.3,1,1,0,0,0,0,.54.92.92,0,0,0,.25.56.45.45,0,0,0,.4.09.44.44,0,0,0,.32-.2A.75.75,0,0,0,115.29,105.17Z"/><path class="cls-6" d="M116,103.44l2.12-.48.12.55-1.32.3.1.4,1.24-.28.11.52-1.24.28.12.51,1.38-.32.13.58-2.16.51Z"/><path class="cls-6" d="M121.74,104.26l-.89.26V105l-.8.23.23-2.8.86-.23,1.67,2.26-.82.24Zm-.32-.5-.54-.84v1Z"/><path class="cls-6" d="M122.22,101.83l.72-.23,1.4,1.07-.44-1.39.74-.23.82,2.51-.74.23-1.39-1.07.45,1.38-.72.23Z"/><path class="cls-6" d="M125,100.91l1.14-.42a1.46,1.46,0,0,1,.57-.1,1,1,0,0,1,.44.14.92.92,0,0,1,.33.32,1.92,1.92,0,0,1,.24.45,1.85,1.85,0,0,1,.13.65.94.94,0,0,1-.12.45.71.71,0,0,1-.26.32,2.83,2.83,0,0,1-.44.24l-1.14.42Zm1,.29.51,1.36.18-.07a.58.58,0,0,0,.32-.19.36.36,0,0,0,.08-.25,1.48,1.48,0,0,0-.1-.45.89.89,0,0,0-.32-.49.58.58,0,0,0-.48,0Z"/><path class="cls-6" d="M128.51,99.59l2.28-1,.26.6-.77.32.77,1.83-.75.31-.77-1.82-.77.32Z"/><path class="cls-6" d="M131,98.52l2-.92.23.5-1.24.57.19.38,1.15-.53.24.48-1.16.54.22.47,1.27-.59.25.54-2,.94Z"/><path class="cls-6" d="M135.59,98l.74-.13a1.49,1.49,0,0,1,0,.55,1,1,0,0,1-.2.45,1.18,1.18,0,0,1-.47.35,1.43,1.43,0,0,1-.68.21,1.11,1.11,0,0,1-.62-.19,1.45,1.45,0,0,1-.54-.62,1.35,1.35,0,0,1-.15-1.05,1.6,1.6,0,0,1,1.51-.94,1.14,1.14,0,0,1,.65.35l-.57.47a.58.58,0,0,0-.15-.12.51.51,0,0,0-.22,0,.54.54,0,0,0-.21,0,.52.52,0,0,0-.29.39,1,1,0,0,0,.13.52,1,1,0,0,0,.39.47.41.41,0,0,0,.4,0,.45.45,0,0,0,.25-.28A.58.58,0,0,0,135.59,98Z"/><path class="cls-6" d="M135.76,96.19l.7-.4.46.8.77-.43-.45-.81L138,95l1.29,2.29-.72.41-.52-.94-.77.43.51.94-.7.4Z"/><path class="cls-6" d="M138.32,94.75l.66-.4,1.61.72-.76-1.24.66-.41,1.37,2.25-.65.4-1.6-.72.76,1.24-.65.4Z"/><path class="cls-6" d="M141.47,94.36a1.41,1.41,0,0,1-.25-1,1.38,1.38,0,0,1,.64-.85,1.32,1.32,0,0,1,1-.27,1.35,1.35,0,0,1,.84.62,1.68,1.68,0,0,1,.28.72,1.18,1.18,0,0,1-.12.64,1.25,1.25,0,0,1-.52.53,1.54,1.54,0,0,1-.68.29,1,1,0,0,1-.64-.12A1.31,1.31,0,0,1,141.47,94.36Zm.69-.45a1,1,0,0,0,.44.4.57.57,0,0,0,.68-.45.94.94,0,0,0-.21-.59.83.83,0,0,0-.42-.36.51.51,0,0,0-.44.08.48.48,0,0,0-.23.37A.74.74,0,0,0,142.16,93.91Z"/><path class="cls-6" d="M143.28,91.55l.66-.47,1.15,1.61,1-.74.39.52-1.7,1.22Z"/><path class="cls-6" d="M145.86,91.33a1.39,1.39,0,0,1-.33-1,1.58,1.58,0,0,1,1.59-1.22,1.3,1.3,0,0,1,.89.57,1.57,1.57,0,0,1,.33.68,1.16,1.16,0,0,1-.06.64,1.51,1.51,0,0,1-.49.57,1.45,1.45,0,0,1-.67.33,1.11,1.11,0,0,1-.65-.06A1.44,1.44,0,0,1,145.86,91.33Zm.64-.5a.93.93,0,0,0,.47.37.55.55,0,0,0,.64-.49,1.06,1.06,0,0,0-.27-.57.77.77,0,0,0-.45-.33.44.44,0,0,0-.42.11.46.46,0,0,0-.2.39A.85.85,0,0,0,146.5,90.83Z"/><path class="cls-6" d="M149.55,88.87l-.35-.42,1-.81.72.86a2.9,2.9,0,0,1-.27.67,1.84,1.84,0,0,1-.45.49,1.64,1.64,0,0,1-.69.36,1.12,1.12,0,0,1-.65-.06,1.61,1.61,0,0,1-.59-.46,1.58,1.58,0,0,1-.35-.68,1.17,1.17,0,0,1,.08-.71,1.75,1.75,0,0,1,.47-.55,2,2,0,0,1,.56-.35.91.91,0,0,1,.43,0,1,1,0,0,1,.44.18l-.52.61a.41.41,0,0,0-.27-.07.59.59,0,0,0-.28.13.53.53,0,0,0-.21.42.89.89,0,0,0,.26.55.92.92,0,0,0,.52.37.53.53,0,0,0,.46-.15A.42.42,0,0,0,150,89a1.82,1.82,0,0,0,.14-.28l-.16-.19Z"/><path class="cls-6" d="M149.52,86.71l.67-.61,1,.3-.2-1,.67-.6.27,1.83.74.82-.6.55-.74-.82Z"/><path class="cls-6" d="M79.8,107.45l1.18.28a1.19,1.19,0,0,1,.53.24.88.88,0,0,1,.29.35,1,1,0,0,1,.1.45,1.91,1.91,0,0,1-.07.52,1.84,1.84,0,0,1-.25.62,1.52,1.52,0,0,1-.35.32.92.92,0,0,1-.4.12,2.24,2.24,0,0,1-.49,0L79.17,110Zm.64.77-.35,1.39.2,0a1,1,0,0,0,.37,0,.34.34,0,0,0,.22-.15,1.25,1.25,0,0,0,.16-.43.83.83,0,0,0,0-.59.57.57,0,0,0-.4-.25Z"/><path class="cls-6" d="M82.47,108.1l2.13.45-.12.56-1.34-.29-.09.4,1.24.27-.11.52-1.24-.27-.1.51,1.37.28-.12.59-2.17-.46Z"/><path class="cls-6" d="M85,108.62l2.15.39-.1.55-1.34-.24-.07.42,1.24.22-.1.54-1.24-.22-.08.52,1.39.25-.1.59-2.2-.39Z"/><path class="cls-6" d="M87.46,109.06l1.06.15.18,1.64.62-1.53,1.07.15L90,112.09l-.65-.1.29-2-.79,1.93-.6-.08L88,109.78l-.28,2-.66-.1Z"/><path class="cls-6" d="M90.8,109.51l2.17.22,0,.55-1.35-.14,0,.42,1.25.14,0,.53-1.25-.13-.07.52,1.39.15-.07.59-2.21-.24Z"/><path class="cls-6" d="M93.34,109.76l1.21.08a1.64,1.64,0,0,1,.57.14,1.1,1.1,0,0,1,.35.3,1.27,1.27,0,0,1,.18.43,2.24,2.24,0,0,1,0,.52,1.92,1.92,0,0,1-.14.66,1,1,0,0,1-.68.55,1.73,1.73,0,0,1-.49,0l-1.21-.08Zm.77.65-.1,1.44.2,0a.79.79,0,0,0,.37,0,.49.49,0,0,0,.19-.19,1.15,1.15,0,0,0,.1-.45,1,1,0,0,0-.1-.59.62.62,0,0,0-.44-.18Z"/><path class="cls-6" d="M99,110l.8,0,0,1.58a1.22,1.22,0,0,1-.08.43,1,1,0,0,1-.24.35,1,1,0,0,1-.33.22,2,2,0,0,1-.57.08,3.07,3.07,0,0,1-.42,0,1.28,1.28,0,0,1-.39-.12.8.8,0,0,1-.26-.23.77.77,0,0,1-.17-.3,1.6,1.6,0,0,1-.07-.45l0-1.58.8,0,0,1.61a.43.43,0,0,0,.11.33.52.52,0,0,0,.34.13.46.46,0,0,0,.33-.11.53.53,0,0,0,.14-.34Z"/><path class="cls-6" d="M100.28,110.06l.75,0,1,1.44V110l.77,0,0,2.63-.77,0-1-1.43,0,1.44-.77,0Z"/><path class="cls-6" d="M103.28,110l.82,0,.11,2.63-.82.05Z"/><path class="cls-6" d="M104.33,109.94l.86,0,.72,1.85.45-1.93.82,0-.79,2.7-.89.06Z"/><path class="cls-6" d="M107.35,109.73l2.18-.22,0,.55-1.36.13,0,.42,1.26-.13,0,.54-1.26.13.05.52,1.39-.15.07.58-2.21.22Z"/><path class="cls-6" d="M110.25,112.07l-.36-2.61,1.34-.19a2.37,2.37,0,0,1,.59,0,.51.51,0,0,1,.35.2.79.79,0,0,1,.19.4,1,1,0,0,1,0,.39.65.65,0,0,1-.21.28.85.85,0,0,1-.27.13.81.81,0,0,1,.22.07.83.83,0,0,1,.15.12l.13.15.49.7-.91.12-.53-.74a1,1,0,0,0-.17-.18.3.3,0,0,0-.2,0l-.07,0,.15,1.06Zm.6-1.66.33,0a1.54,1.54,0,0,0,.21-.06.2.2,0,0,0,.11-.11.21.21,0,0,0,0-.15.29.29,0,0,0-.1-.18.59.59,0,0,0-.32,0l-.35,0Z"/><path class="cls-6" d="M112.76,110.85l.75-.19a.62.62,0,0,0,.15.27.48.48,0,0,0,.39.1.39.39,0,0,0,.25-.11.35.35,0,0,0,.07-.21.3.3,0,0,0-.12-.16,1.08,1.08,0,0,0-.44-.09,1.72,1.72,0,0,1-.8-.18.69.69,0,0,1-.32-.47.92.92,0,0,1,0-.4.65.65,0,0,1,.3-.34,1.72,1.72,0,0,1,.62-.22,1.49,1.49,0,0,1,.79.05.84.84,0,0,1,.42.54l-.75.17a.45.45,0,0,0-.17-.24.39.39,0,0,0-.29,0,.32.32,0,0,0-.2.1.3.3,0,0,0,0,.15s0,.07.09.1a.46.46,0,0,0,.28,0,3.73,3.73,0,0,1,.79.1.86.86,0,0,1,.38.24.67.67,0,0,1,.17.37.8.8,0,0,1-.07.48.88.88,0,0,1-.33.39,1.89,1.89,0,0,1-.6.22,1.38,1.38,0,0,1-1-.11A.87.87,0,0,1,112.76,110.85Z"/><path class="cls-6" d="M115.19,108.64l.8-.15.5,2.58-.8.15Z"/><path class="cls-6" d="M116.29,108.44l2.42-.54.13.64-.8.18.41,1.94-.78.17-.42-1.94-.81.18Z"/><path class="cls-6" d="M118.71,107.9l.87-.22.73.74.31-1,.87-.22-.62,1.75.27,1.07-.79.2-.27-1.07Z"/><path class="cls-7" d="M95.32,19.83l.4,0a1.1,1.1,0,0,0,.13.41.84.84,0,0,0,.34.25,1.35,1.35,0,0,0,.5.1,1.16,1.16,0,0,0,.44-.07.61.61,0,0,0,.28-.2.45.45,0,0,0,.1-.29.42.42,0,0,0-.08-.26.63.63,0,0,0-.3-.2,6,6,0,0,0-.59-.17,3.27,3.27,0,0,1-.64-.2,1.31,1.31,0,0,1-.35-.3.72.72,0,0,1-.11-.41,1,1,0,0,1,.13-.47.79.79,0,0,1,.42-.33,1.64,1.64,0,0,1,.6-.12,1.59,1.59,0,0,1,.64.12,1,1,0,0,1,.43.35,1.11,1.11,0,0,1,.17.52l-.42,0a.63.63,0,0,0-.23-.47.94.94,0,0,0-.57-.15.87.87,0,0,0-.57.15.47.47,0,0,0-.19.36.35.35,0,0,0,.14.28,1.77,1.77,0,0,0,.65.24,5.91,5.91,0,0,1,.72.2.9.9,0,0,1,.42.33.93.93,0,0,1,.14.47.89.89,0,0,1-.16.49,1.31,1.31,0,0,1-.43.37,1.62,1.62,0,0,1-.64.13,2,2,0,0,1-.75-.13,1.12,1.12,0,0,1-.47-.39A1.19,1.19,0,0,1,95.32,19.83Z"/><path class="cls-7" d="M98.59,20.88V17.6H99v3.28Z"/><path class="cls-7" d="M99.64,19.83l.4,0a1,1,0,0,0,.14.41.74.74,0,0,0,.33.25,1.35,1.35,0,0,0,.5.1,1.16,1.16,0,0,0,.44-.07.71.71,0,0,0,.29-.2.51.51,0,0,0,.1-.29.43.43,0,0,0-.09-.26.63.63,0,0,0-.3-.2,4.58,4.58,0,0,0-.59-.17,2.91,2.91,0,0,1-.63-.2,1.17,1.17,0,0,1-.35-.3.66.66,0,0,1-.12-.41,1,1,0,0,1,.13-.47.93.93,0,0,1,.42-.33,1.73,1.73,0,0,1,.6-.12,1.52,1.52,0,0,1,.64.12A1,1,0,0,1,102,18a1,1,0,0,1,.16.52l-.41,0a.67.67,0,0,0-.24-.47.92.92,0,0,0-.57-.15.87.87,0,0,0-.57.15.45.45,0,0,0-.18.36.37.37,0,0,0,.13.28A1.77,1.77,0,0,0,101,19a5.4,5.4,0,0,1,.72.2.9.9,0,0,1,.42.33.84.84,0,0,1,.14.47.88.88,0,0,1-.15.49,1.26,1.26,0,0,1-.44.37A1.59,1.59,0,0,1,101,21a2,2,0,0,1-.75-.13,1.12,1.12,0,0,1-.47-.39A1.44,1.44,0,0,1,99.64,19.83Z"/><path class="cls-7" d="M103.68,20.88V18h-1.07V17.6h2.59V18h-1.09v2.9Z"/><path class="cls-8" d="M82,47H81.2v-.6H82Zm-.66-.11h.54V46.5h-.54Z"/><path class="cls-8" d="M82.84,47h-.77v-.6h.77Zm-.64-.11h.54V46.5H82.2Z"/><path class="cls-8" d="M83.73,47H83v-.6h.78Zm-.64-.11h.53V46.5h-.53Z"/><path class="cls-8" d="M84.61,47h-.75v-.6h.77V47ZM84,46.87h.53V46.5H84Z"/><path class="cls-8" d="M85.5,47h-.77v-.6h.77Zm-.64-.11h.54V46.5h-.54Z"/><path class="cls-8" d="M86.39,47h-.77v-.6h.77Zm-.64-.11h.54V46.5h-.54Z"/><path class="cls-8" d="M87.28,47h-.77v-.6h.77Zm-.64-.11h.54V46.5h-.54Z"/><path class="cls-8" d="M88.16,47h-.77v-.6h.77Zm-.63-.11h.53V46.5h-.53Z"/><path class="cls-8" d="M89.05,47h-.77v-.6h.77Zm-.63-.11H89V46.5h-.53Z"/><path class="cls-8" d="M89.94,47h-.77v-.6h.77Zm-.64-.11h.54V46.5H89.3Z"/><path class="cls-8" d="M90.83,47h-.77v-.6h.77Zm-.64-.11h.54V46.5h-.54Z"/><path class="cls-8" d="M81.53,47.77h-.77v-.6h.77Zm-.65-.12h.53v-.36h-.53Z"/><path class="cls-8" d="M82.42,47.77h-.77v-.6h.77Zm-.66-.12h.54v-.36h-.54Z"/><path class="cls-8" d="M83.31,47.77h-.77v-.6h.77Zm-.66-.12h.54v-.36h-.54Z"/><path class="cls-8" d="M84.19,47.77h-.77v-.6h.77Zm-.65-.12h.54v-.36h-.54Z"/><path class="cls-8" d="M85.08,47.77h-.77v-.6h.77Zm-.65-.12H85v-.36h-.53Z"/><path class="cls-8" d="M86,47.77H85.2v-.6H86Zm-.65-.12h.53v-.36h-.53Z"/><path class="cls-8" d="M86.86,47.77h-.77v-.6h.77Zm-.66-.12h.54v-.36H86.2Z"/><path class="cls-8" d="M87.75,47.77H87v-.6h.77Zm-.66-.12h.54v-.36h-.54Z"/><path class="cls-8" d="M88.63,47.77h-.77v-.6h.77ZM88,47.65h.54v-.36H88Z"/><path class="cls-8" d="M89.52,47.77h-.77v-.6h.77Zm-.65-.12h.53v-.36h-.53Z"/><path class="cls-8" d="M90.41,47.77h-.77v-.6h.77Zm-.65-.12h.53v-.36h-.53Z"/><path class="cls-8" d="M81.11,48.54h-.77v-.6h.77Zm-.65-.1H81v-.37h-.53Z"/><path class="cls-8" d="M82,48.54h-.77v-.6H82Zm-.65-.1h.53v-.37h-.53Z"/><path class="cls-8" d="M82.89,48.54h-.77v-.6h.77Zm-.66-.1h.54v-.37h-.54Z"/><path class="cls-8" d="M83.78,48.54H83v-.6h.78Zm-.66-.1h.54v-.37h-.54Z"/><path class="cls-8" d="M84.66,48.54h-.77v-.6h.77Zm-.65-.1h.54v-.37H84Z"/><path class="cls-8" d="M85.55,48.54h-.77v-.6h.77Zm-.65-.1h.53v-.37H84.9Z"/><path class="cls-8" d="M86.44,48.54h-.77v-.6h.77Zm-.65-.1h.53v-.37h-.53Z"/><path class="cls-8" d="M87.33,48.54h-.77v-.6h.77Zm-.66-.1h.54v-.37h-.54Z"/><path class="cls-8" d="M88.22,48.54h-.78v-.6h.78Zm-.66-.1h.54v-.37h-.54Z"/><path class="cls-8" d="M89.1,48.54h-.77v-.6h.77Zm-.65-.1H89v-.37h-.54Z"/><path class="cls-8" d="M90,48.54h-.77v-.6H90Zm-.65-.1h.53v-.37h-.53Z"/><path class="cls-8" d="M90.88,48.54h-.77v-.6h.77Zm-.65-.1h.53v-.37h-.53Z"/><path class="cls-8" d="M92.45,47h-.77v-.6h.77Zm-.65-.11h.54V46.5H91.8Z"/><path class="cls-8" d="M93.34,47h-.77v-.6h.77Zm-.65-.11h.53V46.5h-.53Z"/><path class="cls-8" d="M94.23,47h-.77v-.6h.77Zm-.65-.11h.53V46.5h-.53Z"/><path class="cls-8" d="M92.86,47.77h-.77v-.6h.77Zm-.66-.12h.54v-.36H92.2Z"/><path class="cls-8" d="M93.74,47.77H93v-.6h.77Zm-.65-.12h.54v-.36h-.54Z"/><path class="cls-8" d="M94.63,47.77h-.77v-.6h.77ZM94,47.65h.53v-.36H94Z"/><path class="cls-8" d="M93.26,48.54h-.77v-.6h.77Zm-.66-.1h.54v-.37H92.6Z"/><path class="cls-8" d="M94.15,48.54h-.77v-.6h.77Zm-.66-.1H94v-.37h-.54Z"/><path class="cls-8" d="M95,48.54h-.77v-.6H95Zm-.65-.1h.54v-.37h-.54Z"/><path class="cls-9" d="M100.16,86.1A32.79,32.79,0,0,1,82.44,81C77.86,78,75,74.24,75,71.16V19.29H86.19l2.48-3.17h23l2.48,3.17h11.16V71.16c0,3.08-2.83,6.83-7.41,9.8A32.94,32.94,0,0,1,100.16,86.1ZM75.58,19.84V71.16c0,2.88,2.75,6.47,7.16,9.33a32.52,32.52,0,0,0,34.84,0c4.41-2.86,7.16-6.43,7.16-9.33V19.84H113.86l-2.47-3.16H88.92l-2.48,3.16Z"/><rect class="cls-9" x="99.42" y="22.04" width="0.57" height="32.57"/><path class="cls-9" d="M122.59,69.77l-22.88-15L77.58,69.28l0-.45a4.07,4.07,0,0,1,0-.47V21.77h45.34V68.36a4.3,4.3,0,0,1-.14,1ZM99.71,54.07l22.51,14.78a4.38,4.38,0,0,0,0-.51v-46H78.05v46Z"/><path class="cls-9" d="M100.16,82.84a27.61,27.61,0,0,1-16.4-5.55c-4.24-3.2-6-6.48-6.23-8.48l0-.16L99.72,54.07l23,15.11,0,.19c-.57,2.48-2.86,5.44-6.13,7.92A27.79,27.79,0,0,1,100.16,82.84ZM78.1,68.93c.3,1.83,2,4.91,6,7.93a26.53,26.53,0,0,0,32.14,0c3.08-2.33,5.26-5.1,5.88-7.41L99.72,54.76Z"/><path class="cls-3" d="M98.57,63.59a5.19,5.19,0,1,0,6.36,3.67A5.18,5.18,0,0,0,98.57,63.59ZM100.83,72a3.52,3.52,0,1,1,2.48-4.31A3.52,3.52,0,0,1,100.83,72Z"/><path class="cls-3" d="M102.39,67.94a2.57,2.57,0,1,1-3.15-1.81A2.57,2.57,0,0,1,102.39,67.94Z"/><path class="cls-7" d="M100.91,76.17,100.7,75a5.82,5.82,0,0,1-1.56,0l-.22,1.17L97,75.65l.42-1.14a6.05,6.05,0,0,1-1.34-.79l-.81.87-1.42-1.42.92-.77A5.93,5.93,0,0,1,94,71.13l-1.12.4-.54-1.93,1.19-.22a5.31,5.31,0,0,1,0-1.49l-1.17-.22.47-2,1.13.41a7.62,7.62,0,0,1,.76-1.33L93.84,64l1.39-1.44.79.92a5.92,5.92,0,0,1,1.36-.78L97,61.59l1.92-.53.22,1.19a5.82,5.82,0,0,1,1.56,0l.22-1.18,1.94.51-.42,1.14a6.24,6.24,0,0,1,1.34.78l.79-.9L106,64l-.93.77a7,7,0,0,1,.72,1.28l1.12-.41.53,1.93-1.19.22a5.31,5.31,0,0,1,0,1.49l1.18.22-.49,1.94-1.14-.4a6.34,6.34,0,0,1-.75,1.32l.9.77-1.39,1.44-.73-.88a6.56,6.56,0,0,1-1.36.78l.4,1.13Zm.14-1.71.22,1.14,1-.29-.38-1.07.2-.08a5.67,5.67,0,0,0,1.61-.94l.17-.13.75.87.72-.74-.87-.74.13-.16a5.66,5.66,0,0,0,.91-1.58l.08-.2,1.09.38.25-1-1.12-.2,0-.22a6,6,0,0,0,0-1.79l0-.22,1.14-.22-.29-1-1.07.39-.1-.22a5.72,5.72,0,0,0-.87-1.52l-.13-.17.88-.74-.73-.73-.76.85L103.7,64a5.9,5.9,0,0,0-1.6-.94l-.2-.09.39-1.09-1-.26-.22,1.12-.21,0a5.8,5.8,0,0,0-1.86,0l-.22,0-.22-1.14-1,.28L98,63l-.2.08a5.67,5.67,0,0,0-1.61.94l-.17.13-.75-.87L94.5,64l.87.74-.14.16a5.88,5.88,0,0,0-.9,1.58l-.08.2-1.09-.39-.25,1,1.12.2,0,.22a6.71,6.71,0,0,0,0,1.79l0,.22-1.14.22.28,1,1.08-.38.08.2a5.72,5.72,0,0,0,.87,1.52l.14.17-.89.74.73.74.76-.86.17.14a5.92,5.92,0,0,0,1.59.93l.2.09-.39,1.09,1,.27.22-1.13.21,0a5.8,5.8,0,0,0,1.86,0Z"/><rect class="cls-7" x="88.9" y="9.29" width="22.48" height="5.55"/><rect class="cls-7" x="83.37" y="5.32" width="33.56" height="2.88"/><path class="cls-8" d="M96.51,49.11H79.05l1.89-3.43H94.61ZM79.8,48.66H95.74l-1.39-2.53H81.2Z"/><path class="cls-5" d="M80.68,40.38c0,.66.13.81.78.81h1.48a6.64,6.64,0,0,1,0,1.54H81.55v3H94.11v-3H92.79V41.2c.48,0,.92,0,1.34,0s.54-.16.57-.57a2.41,2.41,0,0,0,0-.38V30.31c0-.58-.14-.72-.74-.72H81.15a.49.49,0,0,0-.49.49,1.71,1.71,0,0,0,0,.32C80.68,33.73,80.68,37.05,80.68,40.38Zm12.95,2.78v2.2H82.07A2.55,2.55,0,0,1,82,45V43.16ZM83.42,41.22H92.3v1.39c-.4.12-7.72.15-8.88,0A6.3,6.3,0,0,1,83.42,41.22ZM81.15,30.08H94.21V40.7H81.15Z"/><path class="cls-10" d="M133,85.47h0c-.92.53-1.86,1.07-2.8,1.55l.79,1.56-.55.29-1.75-1.07a.81.81,0,0,0-.13.06l.79,1.56-.52.25-.79-1.56-.45.22c0,.07.07.14.1.22a1.53,1.53,0,0,1,.15,1L129.93,94l5-5.26Z"/><path class="cls-10" d="M72,89.87a.82.82,0,0,1-.22-.38,1,1,0,0,1,0-.39,3.88,3.88,0,0,1,.26-.73l.14-.31-.59-.28-.28.55a2.3,2.3,0,0,1-.32.49.89.89,0,0,1-.49.23,1.06,1.06,0,0,1-.62-.13,1,1,0,0,1-.5-.54,1,1,0,0,1,.12-.77l.55.2a1.07,1.07,0,0,0-.1.37.36.36,0,0,0,.2.29.41.41,0,0,0,.32,0,1.25,1.25,0,0,0,.3-.4l.3-.59c-1.25-.64-2.49-1.31-3.7-2a0,0,0,0,0,0,0l-1.78,3.28L70.42,94l1.83-3.92A.61.61,0,0,1,72,89.87Z"/><path class="cls-11" d="M89.62,92.8a4.19,4.19,0,0,0-.43-.1l-.3,0-.16.86.34,0a1.86,1.86,0,0,0,.49,0,.33.33,0,0,0,.21-.12.35.35,0,0,0,.1-.21.4.4,0,0,0-.05-.29A.39.39,0,0,0,89.62,92.8Z"/><path class="cls-11" d="M105.84,93.79a.33.33,0,0,0-.1-.23.3.3,0,0,0-.24-.1h-.45l-.48,0,.06.77.46,0a1.67,1.67,0,0,0,.55-.09.35.35,0,0,0,.17-.15A.31.31,0,0,0,105.84,93.79Z"/><polygon class="cls-11" points="94.55 94.75 95.39 94.81 95.05 93.64 94.55 94.75"/><path class="cls-11" d="M114.55,92.25a.77.77,0,0,0-.65-.12.84.84,0,0,0-.55.39,1.15,1.15,0,0,0-.07.82,1.13,1.13,0,0,0,.4.72.77.77,0,0,0,.65.14.84.84,0,0,0,.54-.39,1.25,1.25,0,0,0,.07-.84A1.11,1.11,0,0,0,114.55,92.25Z"/><path class="cls-11" d="M131.37,82.64a61.42,61.42,0,0,1-62.42,0L65.4,88.7a68.54,68.54,0,0,0,69.56,0ZM70.94,88.83a.82.82,0,0,1-.48.24,1,1,0,0,1-.62-.14.91.91,0,0,1-.51-.53,1.05,1.05,0,0,1,.12-.77l.55.2a1.29,1.29,0,0,0-.1.37.33.33,0,0,0,.2.28.38.38,0,0,0,.32,0,1,1,0,0,0,.3-.41l.91-1.76.55.29-.89,1.73A3,3,0,0,1,70.94,88.83Zm2.93,1.23a1.06,1.06,0,0,1-.33.27,1.23,1.23,0,0,1-.44.08,1.5,1.5,0,0,1-.57-.17,2,2,0,0,1-.57-.37.8.8,0,0,1-.21-.38.87.87,0,0,1,0-.39,3.41,3.41,0,0,1,.27-.73l.68-1.5.57.26-.68,1.5a3.09,3.09,0,0,0-.19.47.48.48,0,0,0,.05.35.62.62,0,0,0,.32.27.64.64,0,0,0,.4.07.36.36,0,0,0,.25-.17,1.93,1.93,0,0,0,.24-.47l.7-1.54.57.25-.67,1.46A3.73,3.73,0,0,1,73.87,90.06Zm3.34-.27-.59-.2a.56.56,0,0,0,0-.39.54.54,0,0,0-.32-.23.64.64,0,0,0-.44,0,.2.2,0,0,0-.16.13.2.2,0,0,0,0,.2,1.82,1.82,0,0,0,.46.41,3.06,3.06,0,0,1,.53.45.87.87,0,0,1,.14.92.84.84,0,0,1-.32.4.91.91,0,0,1-.5.17,1.69,1.69,0,0,1-.66-.15,1.33,1.33,0,0,1-.72-.59,1.27,1.27,0,0,1,0-.87l.59.17a.69.69,0,0,0,0,.5.67.67,0,0,0,.37.3A.72.72,0,0,0,76,91a.39.39,0,0,0,.25-.22.34.34,0,0,0,0-.2.5.5,0,0,0-.15-.2s-.21-.15-.41-.3a1.87,1.87,0,0,1-.53-.54.79.79,0,0,1,0-.67.66.66,0,0,1,.29-.35.87.87,0,0,1,.47-.15,1.44,1.44,0,0,1,.6.14,1.32,1.32,0,0,1,.7.55A1,1,0,0,1,77.21,89.79Zm1.05,2.71-.58-.2.85-2.39-.85-.31.16-.48,2.3.82-.17.49-.85-.31Zm1.28.42L80.47,90l.59.18-.94,2.92Zm3.28.79a1.36,1.36,0,0,1-.85,0,1.43,1.43,0,0,1-.86-.67,1.92,1.92,0,0,1,.64-2.25,1.35,1.35,0,0,1,1.1-.12,1.28,1.28,0,0,1,.79.57,1.19,1.19,0,0,1,.15.62l-.62,0a.55.55,0,0,0-.12-.42.64.64,0,0,0-.36-.25.73.73,0,0,0-.61.08,1.23,1.23,0,0,0-.42.71,1.39,1.39,0,0,0,0,.85.68.68,0,0,0,.45.39.62.62,0,0,0,.46,0,1,1,0,0,0,.38-.4l.52.35A1.34,1.34,0,0,1,82.82,93.71Zm3.77-1.49L85,91.83l-.15.66,1.49.35-.12.5L84.71,93l-.18.8,1.66.39-.12.5-2.26-.54.7-3,2.21.52Zm3.94,1.15a1,1,0,0,1-.19.46.72.72,0,0,1-.3.25.88.88,0,0,1-.33.08,3.7,3.7,0,0,1-.64-.07l-.4-.06-.2,1.14-.61-.1.52-3,1,.17a4.23,4.23,0,0,1,.72.17.8.8,0,0,1,.39.36A1.14,1.14,0,0,1,90.53,93.37Zm2.59.59-.06.52-1.53-.18-.1.82,1.69.21-.06.52-2.32-.28.39-3,2.25.28-.07.52-1.64-.2-.09.67Zm2.63,2.09-.21-.72-1.23-.1-.3.67-.65,0,1.42-3,.66,0,1,3.15Zm1.85-.62a.69.69,0,0,0,.53.27.71.71,0,0,0,.44-.15.84.84,0,0,0,.27-.48l.58.2a1.34,1.34,0,0,1-.48.73,1.22,1.22,0,0,1-.82.22,1.32,1.32,0,0,1-1-.45,1.58,1.58,0,0,1-.35-1.16,1.65,1.65,0,0,1,.43-1.17,1.34,1.34,0,0,1,1.06-.38,1.31,1.31,0,0,1,.9.35,1.11,1.11,0,0,1,.3.57l-.62.13a.62.62,0,0,0-.21-.38.64.64,0,0,0-.42-.15.66.66,0,0,0-.56.23,1.22,1.22,0,0,0-.23.79A1.15,1.15,0,0,0,97.6,95.43Zm2.41.78L100,93.14l2.26,0,0,.52-1.66,0,0,.67,1.54,0v.52l-1.54,0v.84l1.71,0v.52Zm6.15-.27-.5-.64-.36-.42a.59.59,0,0,0-.2-.12h-.43l.1,1.28-.62,0-.24-3,1.29-.1a2,2,0,0,1,.72,0,.81.81,0,0,1,.39.27.92.92,0,0,1,.17.47,1,1,0,0,1-.15.59,1,1,0,0,1-.59.33,1.8,1.8,0,0,1,.35.24,2.68,2.68,0,0,1,.39.46l.42.54Zm1.15-.12-.38-3,2.24-.29.07.52-1.64.2.08.67,1.53-.18.06.52-1.52.18.1.82,1.69-.21.07.52Zm4.33-.62-.66.12-1.59-2.83.65-.12,1.14,2.11.36-2.36.65-.12Zm3.78-1.14a1.4,1.4,0,0,1-1,.64,1.52,1.52,0,0,1-1.16-.17,1.56,1.56,0,0,1-.63-1,1.85,1.85,0,0,1,0-.8,1.6,1.6,0,0,1,.19-.47.93.93,0,0,1,.33-.35,2,2,0,0,1,.62-.27,1.39,1.39,0,0,1,1.14.18,1.87,1.87,0,0,1,.5,2.28Zm1,.12-.79-2.93.61-.17.65,2.43,1.49-.4.14.5Zm4.59-1.64a1.07,1.07,0,0,1-.27.35,1.45,1.45,0,0,1-.53.27,2.15,2.15,0,0,1-.67.1,1,1,0,0,1-.42-.14.87.87,0,0,1-.27-.27,4.52,4.52,0,0,1-.28-.72l-.49-1.55.59-.19.5,1.58a2.1,2.1,0,0,0,.18.48.52.52,0,0,0,.27.24.62.62,0,0,0,.42,0,.66.66,0,0,0,.35-.22.38.38,0,0,0,.07-.3,2.66,2.66,0,0,0-.14-.5L119.85,90l.58-.18.49,1.52a3.76,3.76,0,0,1,.18.75A.8.8,0,0,1,121.05,92.54Zm1.66-.27-.87-2.38-.86.32-.18-.49,2.28-.84.18.49-.85.32.87,2.38Zm1.83-.71-1.14-2.84.57-.24,1.14,2.85Zm3.26-1.79a1.38,1.38,0,0,1-.82.82,1.46,1.46,0,0,1-1.15.07,1.6,1.6,0,0,1-.84-.89,1.68,1.68,0,0,1-.19-.77,1.76,1.76,0,0,1,.09-.5,1.56,1.56,0,0,1,.25-.42,1.68,1.68,0,0,1,.55-.39,1.43,1.43,0,0,1,1.16,0,1.64,1.64,0,0,1,.84.91A1.53,1.53,0,0,1,127.8,89.77Zm2.65-.89-2-1.22.9,1.78-.52.25L127.47,87l.53-.27L130.05,88l-.92-1.83.52-.25L131,88.6Z"/><path class="cls-11" d="M126.58,88.18a.79.79,0,0,0-.67,0,.76.76,0,0,0-.45.48,1.18,1.18,0,0,0,.1.82,1.12,1.12,0,0,0,.53.62.79.79,0,0,0,.67,0,.87.87,0,0,0,.46-.48,1.31,1.31,0,0,0-.1-.82A1.08,1.08,0,0,0,126.58,88.18Z"/></svg>