<?xml version="1.0" encoding="utf-8"?>
<!-- Generator: Adobe Illustrator 25.0.0, SVG Export Plug-In . SVG Version: 6.00 Build 0)  -->
<svg version="1.1" id="Layer_1" xmlns="http://www.w3.org/2000/svg" xmlns:xlink="http://www.w3.org/1999/xlink" x="0px" y="0px"
	 viewBox="0 0 200 113" style="enable-background:new 0 0 200 113;" xml:space="preserve">
<style type="text/css">
	.st0{fill:#002788;}
</style>
<path class="st0" d="M10.21,36.09v35.44c-0.06,2.07,0.1,4.14,0.47,6.18c0.49,2.3,2.12,4.18,4.32,5c1.22,0.4,2.49,0.62,3.78,0.65
	v0.94H0v-0.94c1.28-0.03,2.56-0.25,3.78-0.65c0.97-0.37,1.85-0.95,2.57-1.71c0.87-0.93,1.47-2.08,1.72-3.32
	c0.38-2.04,0.53-4.11,0.47-6.18v-30c0.06-2.05-0.1-4.11-0.47-6.13C7.82,34.11,7.23,32.94,6.35,32c-0.7-0.76-1.57-1.34-2.54-1.7
	C2.58,29.9,1.29,29.69,0,29.66v-0.94h15.67l33.08,42.2V41.51c0.06-2.07-0.1-4.14-0.47-6.18c-0.49-2.29-2.12-4.18-4.32-5
	c-1.22-0.4-2.5-0.62-3.78-0.65v-0.94H59v0.94c-2.36-0.16-4.69,0.68-6.4,2.32c-0.86,0.93-1.46,2.08-1.71,3.32
	c-0.37,2.02-0.53,4.08-0.47,6.13v42.87h-1.84L10.21,36.09z"/>
<path class="st0" d="M89,28.72v0.94c-1.28,0.03-2.56,0.25-3.78,0.65c-0.97,0.36-1.84,0.94-2.55,1.69c-1.15,1.24-1.85,2.83-2,4.51
	c-0.17,1.66-0.25,3.33-0.24,5v30c-0.03,1.78,0.09,3.57,0.34,5.33c0.16,1.11,0.53,2.19,1.1,3.16c0.67,1.06,1.62,1.9,2.75,2.43
	c1.4,0.59,2.91,0.91,4.43,0.95v0.94H63v-0.94c1.3-0.04,2.58-0.27,3.81-0.69c0.96-0.37,1.83-0.95,2.55-1.69
	c0.89-0.91,1.5-2.05,1.75-3.3c0.35-2.04,0.5-4.11,0.45-6.18v-30c0.06-2.07-0.09-4.14-0.45-6.18c-0.51-2.28-2.13-4.16-4.32-5
	c-1.22-0.4-2.5-0.63-3.79-0.67v-1L89,28.72z"/>
<path class="st0" d="M95,84.16l0.12-16.83h0.94c0.84,3.55,2.22,6.96,4.07,10.11c2.96,4.56,6.68,6.84,11.16,6.84
	c2.91,0.09,5.72-1.05,7.74-3.14c2.07-2.14,3.17-5.03,3.06-8c-0.02-1.44-0.25-2.86-0.69-4.23c-0.39-1.33-1.01-2.58-1.81-3.71
	c-0.93-1.19-2.06-2.22-3.32-3.05c-2.1-1.37-4.28-2.61-6.53-3.71c-2.03-1-4-2.1-5.92-3.3c-1.22-0.77-2.34-1.68-3.33-2.73
	c-2.3-2.52-3.55-5.83-3.49-9.24c0-2.24,0.47-4.46,1.37-6.52c0.88-2.04,2.18-3.87,3.81-5.38c2.75-2.62,6.42-4.05,10.22-4
	c1.19-0.01,2.38,0.12,3.54,0.38c1.49,0.4,2.95,0.91,4.36,1.53c1.38,0.54,2.28,0.89,2.77,1c0.42,0.14,0.86,0.21,1.31,0.22
	c1,0,1.59-0.68,1.91-2.06h0.94l0.28,16.17h-0.94c-0.73-2.58-1.36-4.57-1.88-5.94c-0.51-1.33-1.14-2.6-1.9-3.81
	c-1.09-1.88-2.59-3.48-4.39-4.7c-1.65-1.04-3.58-1.57-5.53-1.53c-2.75-0.13-5.41,1.01-7.21,3.09c-0.75,0.89-1.34,1.9-1.72,3
	c-0.41,1.1-0.62,2.27-0.63,3.44c0,4.54,2.92,8.21,8.75,11l5.74,2.78c4.42,2.09,7.6,4.4,9.55,6.93c2.22,2.81,3.4,6.29,3.34,9.87
	c0.01,2.46-0.51,4.9-1.51,7.15c-1.3,3.05-3.52,5.61-6.35,7.34c-3.03,1.77-6.49,2.66-10,2.58c-3.47,0-6.91-0.71-10.1-2.08
	c-1.69-0.73-2.69-1.15-3-1.27c-0.36-0.11-0.73-0.16-1.1-0.16c-1.25-0.04-2.37,0.79-2.68,2L95,84.16z"/>
<path class="st0" d="M153.63,54.59h28.92V41.51c0.07-2.07-0.09-4.14-0.47-6.18c-0.48-2.3-2.1-4.18-4.3-5
	c-1.23-0.4-2.52-0.61-3.81-0.64v-1h26v0.94c-1.28,0.03-2.56,0.25-3.78,0.65c-0.97,0.37-1.85,0.95-2.55,1.72
	c-0.87,0.92-1.47,2.07-1.72,3.31c-0.38,2.04-0.53,4.12-0.47,6.19v30c-0.06,2.06,0.1,4.13,0.47,6.16c0.27,1.25,0.86,2.4,1.72,3.34
	c0.73,0.74,1.61,1.31,2.58,1.69c1.22,0.42,2.49,0.64,3.78,0.68v0.91h-26v-0.94c1.3-0.04,2.58-0.27,3.81-0.69
	c0.95-0.37,1.82-0.93,2.54-1.65c0.87-0.92,1.46-2.06,1.72-3.3c0.37-2.04,0.53-4.11,0.47-6.18v-15h-28.92v15
	c-0.06,2.07,0.1,4.15,0.47,6.19c0.47,2.29,2.08,4.18,4.27,5c1.23,0.43,2.51,0.66,3.81,0.69v0.92h-26v-0.94
	c1.3-0.04,2.58-0.27,3.81-0.69c0.96-0.37,1.82-0.95,2.53-1.69c0.89-0.91,1.5-2.05,1.75-3.3c0.36-2.04,0.51-4.11,0.45-6.18v-30
	c0.06-2.07-0.09-4.14-0.45-6.18c-0.25-1.25-0.86-2.39-1.75-3.3c-0.69-0.77-1.55-1.36-2.51-1.73c-1.22-0.39-2.5-0.61-3.78-0.64v-1h26
	v0.94c-1.29,0.03-2.56,0.25-3.78,0.65c-1,0.36-1.9,0.96-2.62,1.74c-0.86,0.92-1.46,2.07-1.71,3.31c-0.38,2.04-0.54,4.12-0.48,6.19
	V54.59z"/>
</svg>
