<svg width="15" height="16" viewBox="0 0 15 16" fill="none" xmlns="http://www.w3.org/2000/svg">
<path fill-rule="evenodd" clip-rule="evenodd" d="M10.2649 0C10.573 0 10.823 0.250045 10.823 0.558137L10.8234 1.18906C11.9099 1.26356 12.8124 1.63575 13.4511 2.27578C14.1484 2.97606 14.5153 3.98294 14.5116 5.19075V11.9799C14.5116 14.4595 12.9369 16 10.4029 16H4.10863C1.57469 16 0 14.438 0 11.9234V5.18926C0 2.85044 1.40431 1.34916 3.69463 1.18932L3.69509 0.558137C3.69509 0.250045 3.94514 0 4.25323 0C4.56132 0 4.81136 0.250045 4.81136 0.558137L4.81114 1.17506H9.70637L9.70675 0.558137C9.70675 0.250045 9.95679 0 10.2649 0ZM13.3953 6.6262H1.11627V11.9234C1.11627 13.8329 2.17897 14.8837 4.10863 14.8837H10.4029C12.3326 14.8837 13.3953 13.8523 13.3953 11.9799L13.3953 6.6262ZM10.5683 11.3088C10.8764 11.3088 11.1264 11.5589 11.1264 11.867C11.1264 12.175 10.8764 12.4251 10.5683 12.4251C10.2602 12.4251 10.0072 12.175 10.0072 11.867C10.0072 11.5589 10.2535 11.3088 10.5616 11.3088H10.5683ZM7.26598 11.3088C7.57407 11.3088 7.82411 11.5589 7.82411 11.867C7.82411 12.175 7.57407 12.4251 7.26598 12.4251C6.95788 12.4251 6.70486 12.175 6.70486 11.867C6.70486 11.5589 6.95119 11.3088 7.25928 11.3088H7.26598ZM3.95674 11.3088C4.26484 11.3088 4.51488 11.5589 4.51488 11.867C4.51488 12.175 4.26484 12.4251 3.95674 12.4251C3.64865 12.4251 3.39489 12.175 3.39489 11.867C3.39489 11.5589 3.64196 11.3088 3.95005 11.3088H3.95674ZM10.5683 8.41641C10.8764 8.41641 11.1264 8.66645 11.1264 8.97454C11.1264 9.28264 10.8764 9.53268 10.5683 9.53268C10.2602 9.53268 10.0072 9.28264 10.0072 8.97454C10.0072 8.66645 10.2535 8.41641 10.5616 8.41641H10.5683ZM7.26598 8.41641C7.57407 8.41641 7.82411 8.66645 7.82411 8.97454C7.82411 9.28264 7.57407 9.53268 7.26598 9.53268C6.95788 9.53268 6.70486 9.28264 6.70486 8.97454C6.70486 8.66645 6.95119 8.41641 7.25928 8.41641H7.26598ZM3.95674 8.41641C4.26484 8.41641 4.51488 8.66645 4.51488 8.97454C4.51488 9.28264 4.26484 9.53268 3.95674 9.53268C3.64865 9.53268 3.39489 9.28264 3.39489 8.97454C3.39489 8.66645 3.64196 8.41641 3.95005 8.41641H3.95674ZM9.70637 2.29134H4.81114L4.81136 3.00724C4.81136 3.31533 4.56132 3.56538 4.25323 3.56538C3.94514 3.56538 3.69509 3.31533 3.69509 3.00724L3.69469 2.30823C2.02755 2.44828 1.11627 3.45885 1.11627 5.18926V5.50993H13.3953L13.3953 5.18926C13.3983 4.27019 13.1512 3.55578 12.6608 3.06462C12.2303 2.63285 11.601 2.37498 10.8237 2.30859L10.823 3.00724C10.823 3.31533 10.573 3.56538 10.2649 3.56538C9.95679 3.56538 9.70675 3.31533 9.70675 3.00724L9.70637 2.29134Z" fill="white"/>
</svg>
