<?xml version="1.0" encoding="utf-8"?>
<!-- Generator: Adobe Illustrator 25.0.0, SVG Export Plug-In . SVG Version: 6.00 Build 0)  -->
<svg version="1.1" xmlns="http://www.w3.org/2000/svg" xmlns:xlink="http://www.w3.org/1999/xlink" x="0px" y="0px"
	 viewBox="0 0 185 207" style="enable-background:new 0 0 185 207;" xml:space="preserve">
<style type="text/css">
	.st0{fill:#263238;}
	.st1{fill:#FFFFFF;stroke:#263238;stroke-width:0.5705;stroke-linecap:round;stroke-linejoin:round;stroke-miterlimit:10;}
	.st2{fill:none;stroke:#263238;stroke-width:0.4108;stroke-linecap:round;stroke-linejoin:round;}
	.st3{fill:#FFFFFF;}
	.st4{fill:none;stroke:#263238;stroke-width:0.5705;stroke-linecap:round;stroke-linejoin:round;stroke-miterlimit:10;}
	.st5{fill:#FF3152;}
	.st6{fill:#AF2243;}
	.st7{fill:#263238;stroke:#263238;stroke-width:0.5705;stroke-linecap:round;stroke-linejoin:round;stroke-miterlimit:10;}
	.st8{fill:#FF3152;stroke:#263238;stroke-width:0.5705;stroke-linecap:round;stroke-linejoin:round;stroke-miterlimit:10;}
	.st9{fill:none;stroke:#787878;stroke-width:0.5705;stroke-linecap:round;stroke-linejoin:round;stroke-miterlimit:10;}
</style>
<g id="Background_Simple">
</g>
<g id="Plants">
	<g>
		<path class="st0" d="M176.3,150.6c-1.8-0.3-4.2,2-5,3.5c-0.1,0.1-0.6,1.5-0.8,2c0,0,0,0,0-0.1c0.1-1.8-0.1-3.5-0.3-5.1
			c-0.2-1.6-0.6-3.1-0.9-4.5c-0.3-1.4-0.7-2.6-1.1-3.7c-0.2-0.6-0.4-1.1-0.6-1.6c0,0,0,0,0,0c0,0,0.2-2.2,0.2-2.4
			c-0.1-1.7-1.3-4.8-3.1-5.3c-1.3-0.3-2.5,0.6-2.7,1.9c-0.2,1.3,0.7,2.7,1.5,3.6c0.9,0.9,3.3,1.9,3.9,2.2c0.2,0.5,0.4,1.1,0.6,1.7
			c0.3,1.1,0.7,2.3,1,3.7c0.1,0.4,0.2,0.8,0.3,1.2c-0.3-0.6-0.7-1.5-0.7-1.6c-0.8-1.4-3.3-3.7-5.2-3.3c-1.3,0.3-1.9,1.7-1.5,2.9
			c0.4,1.2,1.8,2.1,3,2.5c1.2,0.4,3.9,0.2,4.5,0.1c0.2,0.9,0.3,1.7,0.4,2.7c0.2,1.6,0.3,3.3,0.2,5c0,0.1,0,0.2,0,0.3
			c-0.1-0.3-0.7-2.1-0.7-2.2c-0.7-1.5-2.9-4-4.8-3.8c-1.3,0.2-2.1,1.5-1.8,2.7c0.3,1.3,1.6,2.3,2.7,2.8c1.3,0.6,4.4,0.6,4.6,0.6
			c-0.1,1.6-0.4,3.3-0.7,5c-0.3,1.2-0.6,2.4-0.9,3.7c-0.1-0.4-0.6-2.1-0.7-2.2c-0.7-1.5-2.9-4-4.8-3.8c-1.3,0.2-2.1,1.5-1.8,2.7
			c0.3,1.3,1.6,2.3,2.7,2.8c1.2,0.6,4.2,0.6,4.6,0.6c-0.1,0.6-0.3,1.1-0.4,1.7c-0.5,1.8-1,3.6-1.4,5.4c-0.2,0.6-0.3,1.2-0.4,1.9
			c-0.2-0.6-0.6-1.8-0.6-1.8c-0.7-1.5-2.9-4-4.8-3.8c-1.3,0.1-2,1.4-1.8,2.6c-1.6,0.5-2.7,3.1-2.9,4.6c0,0.1,0,0.4,0,0.8
			c-0.1-0.6-0.2-1.2-0.3-1.8c-0.3-1.7-0.5-3.4-0.7-5.1c0-0.4-0.1-0.7-0.1-1.1c0.6-0.2,2.8-1,3.7-1.7c0.8-0.8,1.7-2,1.6-3.1
			c-0.1-1.2-1.1-2.1-2.3-1.9c-1.7,0.3-2.9,3.1-3.1,4.6c0,0.1,0,0.4,0,0.9c-0.1-0.9-0.3-1.8-0.4-2.7c-0.3-1.6-0.7-3.1-1.1-4.6
			c0.4-0.1,2.9-0.9,3.8-1.8c0.8-0.8,1.7-2,1.6-3.1c-0.1-1.2-1.1-2.1-2.3-1.9c-1.7,0.3-2.9,3.1-3.1,4.6c0,0.1,0,1.5,0,2c0,0,0,0,0,0
			c-0.5-1.5-1.2-2.9-1.9-4.2c-0.7-1.3-1.5-2.5-2.2-3.5c-0.7-1.1-1.5-2-2.1-2.8c-0.4-0.4-0.7-0.8-1-1.2c0,0,0,0,0,0
			c0,0-0.6-2-0.7-2.1c-0.6-1.4-2.6-3.7-4.3-3.5c-1.2,0.1-1.9,1.3-1.7,2.5c0.3,1.2,1.4,2.1,2.5,2.5c1.1,0.5,3.4,0.5,4,0.6
			c0.3,0.4,0.7,0.8,1,1.3c0.6,0.8,1.4,1.7,2.1,2.8c0.2,0.3,0.4,0.6,0.6,0.9c-0.4-0.4-1.1-1.1-1.1-1.1c-1.2-0.9-4-2-5.4-1.1
			c-1,0.7-1.1,2.1-0.3,3c0.8,0.9,2.2,1.2,3.3,1.1c1.2-0.1,3.4-1.1,3.9-1.4c0.4,0.7,0.8,1.4,1.2,2.1c0.7,1.3,1.3,2.7,1.8,4.2
			c0,0.1,0.1,0.2,0.1,0.3c-0.2-0.2-1.2-1.6-1.3-1.7c-1.1-1.1-3.8-2.5-5.3-1.7c-1.1,0.6-1.3,1.9-0.7,2.9c0.7,1,2.1,1.4,3.2,1.5
			c1.3,0.1,4-0.9,4.1-1c0.4,1.4,0.7,2.9,1,4.5c0.2,1.1,0.3,2.3,0.5,3.4c-0.2-0.3-1.2-1.5-1.3-1.6c-1.1-1.1-3.8-2.5-5.3-1.7
			c-1.1,0.6-1.3,1.9-0.7,2.9c0.7,1,2.1,1.4,3.2,1.5c1.2,0.1,3.7-0.9,4.1-1c0.1,0.5,0.1,1,0.2,1.6c0.2,1.7,0.3,3.4,0.6,5.1
			c0.1,0.6,0.2,1.1,0.3,1.7c-0.4-0.5-1-1.3-1.1-1.4c-1.1-1.1-3.8-2.5-5.3-1.7c-1.1,0.6-1.3,1.9-0.7,2.9c0.7,1,2.1,1.4,3.2,1.5
			c1.1,0.1,3.3-0.7,3.9-0.9c0.2,0.9,0.3,1.9,0.6,2.8c0.1,0.4,0.2,0.8,0.3,1.2c0.1,0.4,0.2,0.7,0.3,1.1c0.3,0.8,0.5,1.5,0.8,2.2
			c0.1,0.3,0.2,0.7,0.4,1c-0.3-0.5-0.8-1.3-0.8-1.4c-0.9-1.2-3.4-3-5-2.5c-1.2,0.4-1.6,1.7-1.1,2.8c0.5,1.1,1.8,1.7,2.9,1.9
			c1.2,0.3,3.7-0.3,4.1-0.3c0.3,0.8,0.6,1.6,1,2.4c0.3,0.8,0.7,1.6,1,2.3H157v1.8h0.7l1.1,12.7h8.6l1.1-12.7h0.5v-1.8h-2.4
			c-0.1-0.9-0.1-1.9-0.2-2.9c0-0.8-0.1-1.7-0.1-2.6c0.5,0,3.3-0.3,4.5-1c1.1-0.6,2.3-1.7,2.5-3c0.2-1.3-0.7-2.5-2.1-2.6
			c-1.9-0.1-3.9,2.7-4.4,4.2c0,0.1-0.3,1.4-0.5,2c0-0.5,0-1.1,0-1.6c0-0.8,0-1.6,0-2.5c0-0.4,0-0.9,0.1-1.3c0-0.4,0.1-0.9,0.1-1.3
			c0.1-0.6,0.2-1.3,0.3-1.9c0.8,0,3.2,0.1,4.3-0.3c1.2-0.4,2.5-1.3,2.9-2.6c0.4-1.2-0.3-2.6-1.6-2.8c-1.8-0.3-4.2,2-5,3.5
			c0,0-0.2,0.4-0.3,0.8c0.1-0.6,0.2-1.3,0.4-1.9c0.4-1.8,0.9-3.6,1.3-5.5c0.1-0.4,0.2-0.8,0.3-1.1c0.7,0,3.3,0.1,4.4-0.3
			c1.2-0.4,2.5-1.3,2.9-2.6c0.4-1.2-0.3-2.6-1.6-2.8c-1.8-0.3-4.2,2-5,3.5c0,0.1-0.2,0.4-0.4,0.9c0.2-1,0.4-2,0.6-3
			c0.3-1.7,0.6-3.5,0.7-5.2c0.4,0,3.3,0.2,4.6-0.3c1.2-0.4,2.5-1.3,2.9-2.6C178.3,152.2,177.6,150.9,176.3,150.6z M160.9,190.3
			c-0.4-0.8-0.8-1.7-1.2-2.7c-0.3-0.7-0.6-1.4-0.9-2.1c0.3-0.1,1.9-0.9,2.9-1.7c1.3,0.5,3.1,0.8,3.5,0.8c0,1,0,1.9,0,2.8
			c0,1,0.1,2,0.1,2.9H160.9z M165.4,177.7c0,0.4-0.1,0.9-0.1,1.3c0,0.4-0.1,0.9-0.1,1.3c0,0.9-0.1,1.7-0.1,2.5c0,0.4,0,0.8,0,1.2
			c-0.1-0.7-0.3-1.7-0.3-1.8c-0.4-1.6-2.3-4.4-4.1-4.5c-1.3-0.1-2.3,1.1-2.2,2.4c0,0.3,0.1,0.7,0.3,1c-0.2,0.8-0.4,1.6-0.3,2.2
			c0,0.1,0.2,1.3,0.3,1.8c-0.2-0.5-0.4-0.9-0.6-1.4c-0.3-0.7-0.5-1.4-0.8-2.1c-0.1-0.4-0.2-0.7-0.4-1.1c-0.1-0.4-0.2-0.7-0.3-1.1
			c-0.1-0.6-0.3-1.1-0.4-1.7c0.7-0.2,2.8-1,3.6-1.7c0.6-0.6,1.2-1.4,1.5-2.2c0.1,0.1,0.2,0.1,0.3,0.2c1.1,0.5,3.7,0.6,4.4,0.6
			C165.8,175.7,165.6,176.7,165.4,177.7z"/>
		<path class="st0" d="M174,146.6c1-0.7,2.1-2,2.1-3.3c0-1.3-1-2.4-2.3-2.3c-1.9,0.2-3.5,3.1-3.9,4.7c0,0.1-0.3,2.4-0.2,2.4
			C169.7,148.1,172.9,147.4,174,146.6z"/>
		<path class="st0" d="M149.7,153.2c0,0,2.5-1.6,3.2-2.7c0.6-1,1.1-2.3,0.7-3.5c-0.4-1.1-1.6-1.7-2.7-1.2c-1.5,0.7-2,3.8-1.8,5.3
			C149.2,151.2,149.7,153.2,149.7,153.2z"/>
	</g>
</g>
<g id="Board">
	<g>
		<rect x="63.3" y="18.9" class="st1" width="119" height="71.8"/>
		<rect x="63.3" y="88.4" class="st1" width="119" height="2.2"/>
		<g>
			<g>
				<g id="XMLID_84_">
					<path id="XMLID_85_" class="st2" d="M163.2,67.5c0,0.1,0.9-0.6,1-0.6c0.1,0.2-3.7,3.3-3.6,3.4c0.2,0.4,7.3-4.7,7.5-4.3
						c0.2,0.4-8.6,5.8-8.4,6.2c0.3,0.5,10.2-6.4,10.4-6c0.2,0.4-11,6.6-10.7,7.1c0.3,0.5,11.5-7.3,11.8-6.8c0.3,0.5-12.3,7.1-12,7.6
						c0.3,0.6,12.4-7.8,12.7-7.3c0.3,0.5-13.1,8.7-12.8,9.1c0.4,0.7,14.1-8.9,14.4-8.3c0.4,0.6-14.7,8.2-14.4,8.7
						c0.3,0.6,14.4-9.1,14.7-8.5c0.3,0.5-15.1,8.5-14.7,9.2c0.3,0.6,14.8-9.4,15.2-8.8c0.3,0.6-15.2,9.7-14.9,10.3
						c0.4,0.7,15.6-9.9,16-9.2c0.4,0.6-16.1,9.5-15.7,10.2c0.4,0.6,15.9-10.2,16.3-9.4c0.4,0.6-16.6,9.1-16.2,9.7
						c0.4,0.7,16-10.1,16.4-9.5c0.4,0.6-16.6,9.1-16.2,9.8c0.4,0.8,16-10.2,16.4-9.5c0.3,0.6-16.6,9.2-16.3,9.8
						c0.4,0.7,16.1-10.2,16.5-9.5c0.4,0.7-16.1,10-15.7,10.7c0.4,0.6,15.9-10.2,16.4-9.4c0.4,0.7-16.2,9.4-15.9,10
						c0.4,0.7,15.8-9.9,16.2-9.3c0.3,0.6-16.1,9.2-15.8,9.7c0.4,0.7,15.6-9.8,15.9-9.2c0.4,0.6-15.2,9.6-14.8,10.2
						c0.4,0.6,14.7-9.5,15.1-8.7c0.3,0.6-15.4,8.1-15.1,8.8c0.4,0.7,14.7-9.3,15.1-8.7c0.4,0.7-15.4,8.1-15,8.7
						c0.4,0.6,14.6-9.3,15-8.7c0.3,0.6-13.8,9-13.5,9.6c0.3,0.5,13.2-8.4,13.6-7.8c0.3,0.5-12.6,7.8-12.3,8.3
						c0.3,0.5,11.9-7.5,12.1-7c0.3,0.5-12.2,6.6-11.9,7.1c0.3,0.4,11.5-7.4,11.9-6.8c0.3,0.5-9.8,6.9-9.6,7.3
						c0.2,0.4,8.5-5.5,8.8-5.1c0.2,0.3-6.6,4.7-6.4,5c0.1,0.2,4.9-3.2,5.1-2.9c0.1,0.1-3.1,2.2-3,2.3c0,0.1,1.5-1,1.5-0.9
						c0,0-1.2,0.7-1.2,0.7c0,0.1,0.9-0.6,1-0.6"/>
				</g>
				<g id="XMLID_62_">
					<path id="XMLID_80_" class="st3" d="M167.2,79.6c0.3-0.1,0.6-0.2,0.8-0.4c0.2-0.1,0.4-0.3,0.5-0.6c0.2-0.3,0.3-0.7,0.3-1.1
						c0-0.4-0.1-0.7-0.3-1c-0.2-0.3-0.5-0.5-0.8-0.6c0.2-0.1,0.4-0.3,0.5-0.4c0.2-0.3,0.3-0.6,0.3-1c0-0.4-0.1-0.8-0.3-1.1
						c-0.4-0.5-1-0.7-1.8-0.7h-3.4v7h3.2C166.6,79.7,166.9,79.7,167.2,79.6z M164.5,73.9h1.5c0.3,0,0.6,0,0.8,0.1
						c0.3,0.1,0.4,0.3,0.4,0.6c0,0.3-0.1,0.5-0.3,0.6c-0.2,0.1-0.4,0.2-0.7,0.2h-1.7V73.9z M164.5,78.5v-1.9h1.7
						c0.3,0,0.5,0,0.7,0.1c0.3,0.1,0.4,0.4,0.4,0.8c0,0.4-0.2,0.7-0.5,0.9c-0.2,0.1-0.4,0.1-0.7,0.1H164.5z"/>
					<g id="XMLID_65_">
						<path id="XMLID_67_" class="st3" d="M170,79.3c0.5,0.4,1.1,0.6,1.8,0.6c0.8,0,1.5-0.3,2-0.8c0.3-0.3,0.5-0.6,0.5-0.9h-1.4
							c-0.1,0.2-0.2,0.3-0.3,0.4c-0.2,0.2-0.4,0.2-0.8,0.2c-0.3,0-0.5-0.1-0.8-0.2c-0.3-0.2-0.5-0.6-0.5-1.1h3.8c0-0.4,0-0.8,0-1
							c-0.1-0.4-0.2-0.8-0.4-1.1c-0.2-0.4-0.5-0.6-0.9-0.8c-0.4-0.2-0.8-0.2-1.2-0.2c-0.8,0-1.4,0.2-1.9,0.7
							c-0.5,0.5-0.7,1.2-0.7,2.1C169.2,78.1,169.5,78.8,170,79.3z M171,75.8c0.2-0.2,0.5-0.3,0.8-0.3c0.3,0,0.6,0.1,0.8,0.3
							c0.2,0.2,0.3,0.5,0.4,0.8h-2.3C170.7,76.3,170.8,76,171,75.8z"/>
						<rect id="XMLID_66_" x="170.2" y="73.1" class="st3" width="3.1" height="0.7"/>
					</g>
				</g>
			</g>
			<g>
				<g id="XMLID_56_">
					<path id="XMLID_61_" class="st2" d="M160.9,24.1c0,0.1,0.9-0.6,1-0.6c0.1,0.2-3.8,3.5-3.7,3.7c0.2,0.3,7.8-5,8-4.6
						c0.2,0.3-8.4,4.7-8.2,5c0.2,0.4,8.4-5.3,8.6-5c0.2,0.3-9.2,5.6-9,5.9c0.3,0.5,9.8-6.2,10.1-5.8c0.2,0.4-10.9,7.4-10.6,7.9
						c0.3,0.5,12.3-7.9,12.7-7.3c0.3,0.5-13.1,7.4-12.7,7.9c0.3,0.6,13-8.3,13.3-7.7c0.3,0.5-13.6,8.5-13.4,8.9
						c0.3,0.5,14.1-8.9,14.4-8.3c0.4,0.7-14.7,8.2-14.4,8.8c0.3,0.6,14.4-9.2,14.8-8.5c0.4,0.6-15,8.4-14.7,9
						c0.4,0.6,14.8-9.3,15.1-8.7c0.3,0.6-15.5,8.4-15.1,9c0.4,0.6,14.9-9.4,15.3-8.8c0.4,0.7-15.7,8.3-15.3,8.9
						c0.4,0.7,15-9.5,15.4-8.9c0.3,0.6-15.6,8.9-15.2,9.5c0.4,0.7,15.3-9.7,15.7-9.1c0.4,0.7-16,8.6-15.7,9.2
						c0.4,0.7,15.4-9.7,15.8-9.1c0.4,0.7-15.9,9.3-15.5,10c0.4,0.7,15.7-10,16.1-9.3c0.4,0.6-16,9.9-15.6,10.6
						c0.4,0.8,16-10.2,16.4-9.5c0.4,0.7-16.1,10.1-15.7,10.7c0.4,0.7,16-10.2,16.4-9.5c0.4,0.7-16.8,8.9-16.4,9.6
						c0.4,0.8,16-10.1,16.4-9.5c0.3,0.6-16.3,9.4-16,10c0.4,0.7,15.9-10,16.2-9.4c0.4,0.7-16.1,9.3-15.7,10c0.4,0.6,15.6-9.9,16-9.2
						c0.4,0.7-16,8.9-15.6,9.6c0.4,0.7,15.3-9.8,15.7-9.1c0.4,0.7-14.9,9.4-14.5,10c0.3,0.6,14.4-9.1,14.7-8.5
						c0.3,0.6-13.9,8.6-13.6,9.2c0.3,0.6,13.3-8.4,13.6-7.9c0.3,0.5-13.6,7.5-13.3,8c0.3,0.5,13-8.2,13.3-7.7
						c0.3,0.5-12.6,7.6-12.3,8.1c0.3,0.6,11.8-7.6,12.1-7c0.3,0.5-10.9,7-10.6,7.4c0.2,0.4,10-6.4,10.2-5.9c0.2,0.3-9.8,5.6-9.5,6
						c0.3,0.4,9-5.8,9.2-5.3c0.2,0.3-7.2,5-7,5.3c0.2,0.3,5.7-3.6,5.8-3.4c0.1,0.1-3.1,2.5-3,2.6c0,0.1,1-0.7,1-0.6c0,0-1,0.5-1,0.6
						c0,0.1,0.9-0.6,1-0.6"/>
				</g>
				<path id="XMLID_50_" class="st3" d="M164.9,38.5h2.4v-6.1h1.7l0.2-2.1h-1.9c0,0,0-0.8,0-1.2c0-0.5,0.1-0.7,0.6-0.7
					c0.4,0,1.3,0,1.3,0v-2.1c0,0-1.4,0-1.7,0c-1.8,0-2.6,0.8-2.6,2.3c0,1.3,0,1.6,0,1.6h-1.3v2.1h1.3V38.5z"/>
			</g>
			<g>
				<g id="XMLID_37_">
					<path id="XMLID_39_" class="st2" d="M133,40.9c0,0.1,0.9-0.6,1-0.6c0.1,0.1-3.1,2.5-3,2.6c0.2,0.3,5.8-3.7,6-3.4
						c0.2,0.3-7.1,4.8-6.9,5.1c0.2,0.4,8.6-5.6,8.9-5.1c0.3,0.5-9.9,6.7-9.6,7.1c0.3,0.5,11.4-7.3,11.7-6.8c0.3,0.5-12.3,8.1-12,8.6
						c0.3,0.6,13.4-8.4,13.7-7.9c0.4,0.6-14,7.6-13.7,8.1c0.4,0.6,13.5-8.6,13.8-8c0.3,0.5-14.2,7.8-13.9,8.4
						c0.4,0.6,13.8-8.9,14.2-8.2c0.3,0.6-14.4,9.1-14.1,9.6c0.4,0.6,14.9-9.4,15.3-8.8c0.3,0.6-15.2,9.8-14.9,10.4
						c0.4,0.7,15.7-10,16.1-9.3c0.3,0.6-16.2,9.2-15.8,9.9c0.4,0.8,15.9-10,16.3-9.4c0.4,0.6-16.6,9-16.1,9.7
						c0.4,0.7,15.9-10.2,16.4-9.4c0.3,0.6-16.6,9-16.2,9.7c0.4,0.6,16-10.1,16.4-9.5c0.4,0.6-16.5,9.3-16.2,10
						c0.4,0.7,16.1-10.2,16.5-9.5c0.4,0.7-16.8,9-16.4,9.6c0.4,0.8,16.1-10.2,16.5-9.5c0.4,0.7-16,10.2-15.6,10.8
						c0.4,0.6,15.9-10,16.3-9.4c0.4,0.7-16.3,9.1-15.9,9.8c0.4,0.7,15.7-10,16.1-9.3c0.3,0.6-15.8,9.4-15.4,10.1
						c0.4,0.7,15.3-9.8,15.7-9c0.4,0.6-15.7,8.7-15.3,9.4c0.3,0.6,15-9.6,15.4-8.9c0.4,0.7-15.2,8.7-14.9,9.3
						c0.4,0.6,14.6-9.3,14.9-8.6c0.3,0.5-13.8,8.9-13.5,9.5c0.3,0.6,13.2-8.5,13.6-7.8c0.3,0.6-13.5,7.5-13.1,8
						c0.3,0.6,12.8-8.1,13.1-7.6c0.3,0.5-12.2,7.5-11.9,8c0.3,0.5,11.3-7.3,11.6-6.7c0.3,0.4-11.7,6.3-11.5,6.8
						c0.3,0.5,11.2-7,11.4-6.6c0.3,0.5-11.3,6.2-11,6.7c0.3,0.5,10.6-6.7,10.9-6.3c0.2,0.4-10.5,6-10.2,6.4c0.2,0.4,9.7-6.3,10-5.8
						c0.2,0.4-7.8,5.5-7.6,5.8c0.2,0.3,6.2-4,6.4-3.7c0.1,0.2-3.8,2.9-3.7,3.1c0.1,0.1,1.6-1.1,1.7-1c0,0.1-1.6,0.9-1.6,0.9
						c0.1,0.1,1.5-1,1.5-0.9c0,0-1.2,0.7-1.2,0.7c0,0.1,0.9-0.6,1-0.6"/>
				</g>
				<path id="XMLID_36_" class="st3" d="M133.2,52.6c1,0.6,2.1,1,3.4,1c4.1,0,6.4-3.4,6.2-6.5c0.4-0.3,0.8-0.7,1.1-1.1
					c-0.4,0.2-0.8,0.3-1.3,0.3c0.5-0.3,0.8-0.7,1-1.2c-0.4,0.3-0.9,0.4-1.4,0.5c-0.4-0.4-1-0.7-1.6-0.7c-1.4,0-2.5,1.3-2.1,2.7
					c-1.8-0.1-3.4-1-4.5-2.3c-0.6,1-0.3,2.3,0.7,2.9c-0.4,0-0.7-0.1-1-0.3c0,1,0.7,2,1.8,2.2c-0.3,0.1-0.6,0.1-1,0
					c0.3,0.9,1.1,1.5,2.1,1.5C135.5,52.4,134.3,52.8,133.2,52.6z"/>
			</g>
			<g>
				<g>
					<path id="XMLID_33_" class="st2" d="M106.1,24c0,0.1,0.9-0.6,1-0.6c0.1,0.2-3.9,3.6-3.8,3.8c0.2,0.3,7.9-5,8.1-4.7
						c0.2,0.4-8.6,5-8.4,5.3c0.2,0.4,8.8-5.7,9.1-5.3c0.2,0.4-9.5,5.3-9.3,5.6c0.2,0.4,9.4-6.1,9.7-5.6c0.2,0.4-10.5,7.2-10.3,7.7
						c0.3,0.5,12.1-7.7,12.4-7.1c0.3,0.5-12.9,8.3-12.5,8.8c0.3,0.6,13.7-8.8,14.1-8.1c0.4,0.7-14.3,9.2-14,9.8
						c0.4,0.7,14.9-9.5,15.3-8.9c0.4,0.7-15.7,8.4-15.3,9c0.4,0.7,15.1-9.5,15.4-8.9c0.3,0.5-15.8,8.3-15.4,9
						c0.4,0.7,15-9.7,15.5-8.9c0.3,0.6-15.5,9.6-15.1,10.3c0.4,0.7,15.7-10,16.1-9.3c0.4,0.6-16.3,9.1-15.9,9.8
						c0.4,0.7,15.8-10.1,16.3-9.4c0.4,0.6-16.3,9.5-15.9,10.2c0.4,0.6,16-10.2,16.4-9.5c0.3,0.6-16.6,9.2-16.2,9.9
						c0.4,0.7,16-10.2,16.5-9.5c0.3,0.6-16.7,9.1-16.4,9.6c0.4,0.7,16.1-10.1,16.5-9.5c0.4,0.7-16,10.1-15.6,10.7
						c0.4,0.6,15.9-10.1,16.3-9.4c0.4,0.6-16.1,9.4-15.7,10c0.4,0.7,15.6-10,16-9.2c0.4,0.6-16.3,8.7-16,9.3
						c0.4,0.6,15.6-9.9,16-9.2c0.4,0.7-15.8,9.1-15.4,9.8c0.3,0.6,15.2-9.7,15.6-9c0.4,0.7-15.7,8.6-15.3,9.3
						c0.3,0.6,15-9.6,15.4-8.9c0.3,0.6-15.7,8.3-15.3,9c0.3,0.6,14.9-9.6,15.3-8.9c0.3,0.6-14.9,8.8-14.6,9.4
						c0.4,0.7,14.3-9.1,14.7-8.5c0.3,0.5-14.5,8.3-14.2,8.8c0.4,0.7,13.9-8.8,14.2-8.2c0.3,0.6-12.8,8.5-12.5,9
						c0.3,0.5,12-7.7,12.4-7.1c0.3,0.5-12.1,6.9-11.8,7.3c0.3,0.6,11.4-7.3,11.7-6.8c0.3,0.5-10.8,6.6-10.5,7
						c0.3,0.4,9.9-6.3,10.2-5.9c0.2,0.4-8.5,5.7-8.3,6c0.2,0.3,7.3-4.7,7.5-4.3c0.2,0.3-6.8,4-6.6,4.3c0.2,0.3,6-3.8,6.1-3.5
						c0.1,0.2-3.2,2.6-3.1,2.7c0,0.1,0.9-0.6,1-0.6"/>
				</g>
				<g id="XMLID_28_">
					<g id="XMLID_30_">
						<rect id="XMLID_32_" x="106.8" y="29.8" class="st3" width="2.1" height="6.7"/>
						<path id="XMLID_31_" class="st3" d="M107.8,28.9c0.7,0,1.2-0.6,1.2-1.2c0-0.7-0.6-1.2-1.2-1.2c-0.7,0-1.2,0.6-1.2,1.2
							C106.6,28.4,107.2,28.9,107.8,28.9z"/>
					</g>
					<path id="XMLID_29_" class="st3" d="M112.2,33c0-0.9,0.4-1.5,1.3-1.5c0.8,0,1.1,0.5,1.1,1.5c0,1,0,3.5,0,3.5h2.1
						c0,0,0-2.5,0-4.3c0-1.8-1-2.7-2.4-2.7c-1.4,0-2,1.1-2,1.1v-0.9h-2v6.7h2C112.2,36.6,112.2,34.1,112.2,33z"/>
				</g>
			</g>
			<g>
				<g id="XMLID_26_">
					<path id="XMLID_27_" class="st2" d="M112,67.4c0,0.1,0.9-0.6,1-0.6c0.1,0.1-2.3,1.6-2.2,1.7c0.1,0.2,3.8-2.5,4-2.3
						c0.1,0.2-5.4,3.7-5.2,4c0.2,0.3,7.2-4.6,7.4-4.3c0.2,0.3-8.4,5.5-8.2,5.9c0.3,0.5,9.8-6.3,10.1-5.8c0.2,0.4-10.4,5.8-10.2,6.1
						c0.3,0.5,10.2-6.5,10.5-6.1c0.2,0.4-10.9,6-10.6,6.4c0.3,0.5,10.7-6.9,11-6.4c0.3,0.5-11.7,7.8-11.4,8.3
						c0.4,0.6,12.9-8.2,13.2-7.6c0.3,0.5-13.6,7.8-13.3,8.3c0.3,0.6,13.5-8.6,13.8-8c0.3,0.5-14.1,8.6-13.8,9.1
						c0.3,0.6,14.4-9.1,14.8-8.5c0.4,0.7-14.9,9.2-14.6,9.8c0.4,0.7,15.2-9.7,15.6-9c0.3,0.6-15.7,9.4-15.4,10
						c0.3,0.6,15.7-9.9,16.1-9.3c0.4,0.6-16.2,9.3-15.8,10c0.4,0.6,15.9-10.1,16.3-9.4c0.4,0.7-16.3,9.6-16,10.2
						c0.4,0.8,16.1-10.1,16.5-9.5c0.3,0.6-16.5,9.4-16.2,10c0.4,0.7,16.1-10.1,16.5-9.5c0.4,0.6-16.1,9.9-15.8,10.5
						c0.4,0.8,15.9-10,16.3-9.4c0.4,0.7-16,9.5-15.6,10.2c0.4,0.6,15.5-10,16-9.2c0.3,0.6-15.5,9.3-15.2,9.9
						c0.4,0.7,15.1-9.6,15.5-8.9c0.4,0.6-15.6,8.5-15.3,9.1c0.4,0.7,15-9.5,15.3-8.9c0.3,0.6-15.1,8.7-14.7,9.3
						c0.3,0.6,14.4-9.1,14.8-8.5c0.3,0.5-14,8.6-13.6,9.2c0.4,0.7,13.4-8.4,13.7-7.9c0.3,0.6-12.4,8-12.1,8.5
						c0.3,0.5,11.5-7.4,11.8-6.8c0.3,0.5-10.6,6.7-10.3,7.2c0.3,0.4,9.7-6.1,9.9-5.7c0.2,0.4-9.6,5.4-9.4,5.8c0.2,0.4,9-5.8,9.2-5.3
						c0.1,0.3-6,4.8-5.8,5.1c0.1,0.2,3.8-2.4,3.9-2.2c0,0.1-2.3,1.6-2.2,1.7c0,0.1,0.9-0.6,1-0.6"/>
				</g>
				<g id="XMLID_18_">
					<path id="XMLID_23_" class="st3" d="M117.6,71.2c1.5,0,1.6,0,2.2,0c0.5,0,0.8,0.1,1,0.2c0.3,0.1,0.4,0.2,0.6,0.4
						c0.2,0.2,0.3,0.4,0.4,0.6c0.1,0.2,0.2,0.5,0.2,1c0,0.6,0,0.8,0,2.2c0,1.5,0,1.6,0,2.2c0,0.5-0.1,0.8-0.2,1
						c-0.1,0.3-0.2,0.4-0.4,0.6c-0.2,0.2-0.4,0.3-0.6,0.4c-0.2,0.1-0.5,0.2-1,0.2c-0.6,0-0.8,0-2.2,0c-1.5,0-1.6,0-2.2,0
						c-0.5,0-0.8-0.1-1-0.2c-0.3-0.1-0.4-0.2-0.6-0.4c-0.2-0.2-0.3-0.4-0.4-0.6c-0.1-0.2-0.2-0.5-0.2-1c0-0.6,0-0.8,0-2.2
						c0-1.5,0-1.6,0-2.2c0-0.5,0.1-0.8,0.2-1c0.1-0.3,0.2-0.4,0.4-0.6c0.2-0.2,0.4-0.3,0.6-0.4c0.2-0.1,0.5-0.2,1-0.2
						C115.9,71.2,116.1,71.2,117.6,71.2 M117.6,70.2c-1.5,0-1.7,0-2.3,0c-0.6,0-1,0.1-1.3,0.3c-0.4,0.1-0.7,0.3-1,0.6
						c-0.3,0.3-0.5,0.6-0.6,1c-0.1,0.4-0.2,0.8-0.3,1.3c0,0.6,0,0.8,0,2.3c0,1.5,0,1.7,0,2.3c0,0.6,0.1,1,0.3,1.3
						c0.1,0.4,0.3,0.7,0.6,1c0.3,0.3,0.6,0.5,1,0.6c0.4,0.1,0.8,0.2,1.3,0.3c0.6,0,0.8,0,2.3,0c1.5,0,1.7,0,2.3,0
						c0.6,0,1-0.1,1.3-0.3c0.4-0.1,0.7-0.3,1-0.6c0.3-0.3,0.5-0.6,0.6-1c0.1-0.4,0.2-0.8,0.3-1.3c0-0.6,0-0.8,0-2.3
						c0-1.5,0-1.7,0-2.3c0-0.6-0.1-1-0.3-1.3c-0.1-0.4-0.3-0.7-0.6-1c-0.3-0.3-0.6-0.5-1-0.6c-0.4-0.1-0.8-0.2-1.3-0.3
						C119.2,70.2,119,70.2,117.6,70.2"/>
					<path id="XMLID_20_" class="st3" d="M117.6,72.9c-1.6,0-2.8,1.3-2.8,2.8c0,1.6,1.3,2.8,2.8,2.8c1.6,0,2.8-1.3,2.8-2.8
						C120.4,74.2,119.1,72.9,117.6,72.9 M117.6,77.6c-1,0-1.8-0.8-1.8-1.8c0-1,0.8-1.8,1.8-1.8s1.8,0.8,1.8,1.8
						C119.4,76.7,118.6,77.6,117.6,77.6"/>
					<path id="XMLID_19_" class="st3" d="M121.2,72.8c0,0.4-0.3,0.7-0.7,0.7c-0.4,0-0.7-0.3-0.7-0.7s0.3-0.7,0.7-0.7
						C120.9,72.1,121.2,72.4,121.2,72.8"/>
				</g>
			</g>
			<g>
				<line class="st4" x1="151.4" y1="49.5" x2="159.5" y2="49.5"/>
				<line class="st4" x1="151.4" y1="51.1" x2="159.5" y2="51.1"/>
				<line class="st4" x1="151.4" y1="52.8" x2="159.5" y2="52.8"/>
				<line class="st4" x1="151.4" y1="54.5" x2="159.5" y2="54.5"/>
			</g>
			<g>
				<line class="st4" x1="125.6" y1="30" x2="150" y2="30"/>
				<line class="st4" x1="122.9" y1="64.7" x2="130" y2="57.7"/>
				<line class="st4" x1="167.4" y1="44.7" x2="167.4" y2="62.5"/>
				<g>
					<line class="st4" x1="131.5" y1="73.5" x2="139.6" y2="73.5"/>
					<line class="st4" x1="131.5" y1="75.1" x2="139.6" y2="75.1"/>
					<line class="st4" x1="131.5" y1="76.8" x2="139.6" y2="76.8"/>
					<line class="st4" x1="131.5" y1="78.5" x2="139.6" y2="78.5"/>
				</g>
				<g>
					<line class="st4" x1="108" y1="45.2" x2="116.1" y2="45.2"/>
					<line class="st4" x1="108" y1="46.9" x2="116.1" y2="46.9"/>
					<line class="st4" x1="108" y1="48.5" x2="116.1" y2="48.5"/>
					<line class="st4" x1="108" y1="50.2" x2="116.1" y2="50.2"/>
				</g>
				<g>
					<line class="st4" x1="146" y1="33.1" x2="154.1" y2="33.1"/>
					<line class="st4" x1="146" y1="34.8" x2="154.1" y2="34.8"/>
					<line class="st4" x1="146" y1="36.4" x2="154.1" y2="36.4"/>
					<line class="st4" x1="146" y1="38.1" x2="154.1" y2="38.1"/>
				</g>
				<g>
					<line class="st4" x1="147.9" y1="76.6" x2="156" y2="76.6"/>
					<line class="st4" x1="147.9" y1="78.2" x2="156" y2="78.2"/>
					<line class="st4" x1="147.9" y1="79.9" x2="156" y2="79.9"/>
					<line class="st4" x1="147.9" y1="81.5" x2="156" y2="81.5"/>
				</g>
				<g>
					<polygon class="st5" points="150.7,62.1 143.8,62.5 143.8,69.9 151.4,69.4 					"/>
					<line class="st4" x1="145.2" y1="64.7" x2="149.7" y2="64.3"/>
					<line class="st4" x1="145.1" y1="66.6" x2="149.8" y2="66.4"/>
				</g>
				<g>
					<polygon class="st5" points="123.8,37.5 116.9,38 116.9,45.3 124.5,44.9 					"/>
					<line class="st4" x1="118.3" y1="40.1" x2="122.7" y2="39.8"/>
					<line class="st4" x1="118.1" y1="42" x2="122.9" y2="41.8"/>
				</g>
				<g>
					<polygon class="st5" points="111.9,58.7 105,59.2 105,66.6 112.6,66.1 					"/>
					<line class="st4" x1="106.4" y1="61.3" x2="110.8" y2="61"/>
					<line class="st4" x1="106.2" y1="63.2" x2="111" y2="63.1"/>
				</g>
			</g>
		</g>
	</g>
	<polyline class="st6" points="94.8,90 100.3,91.2 100.3,90.5 95.7,87.3 93.9,89.5 	"/>
</g>
<g id="Character">
	<g>
		<path id="XMLID_194_" class="st1" d="M111.3,100.8c0,0,1.3,2.4,1.3,3.4c0,1.1-6,14.1-6.1,14.5c-0.1,0.4,0.6,2.8,0.2,4.5
			c-0.4,1.7-2,3.6-2,3.6l-2-8.8c0,0,2.3-2.3,1.2-5.4c-1.1-3.1-1.1-9.8-1.1-9.8L111.3,100.8z"/>
		<path id="XMLID_200_" class="st1" d="M100.8,199.1c0,0-0.5,5.5-0.1,5.8c0.4,0.3,2.6,0.3,4.1,0c2.1-0.4,3.2,0.1,4.7,0.1
			c1.5,0,4.7,0.4,5.1-0.3c0.7-1.3-3.3-2.6-5.4-3.9c-2.2-1.3-4.2-2.4-4.2-2.4L100.8,199.1z"/>
		<path id="XMLID_197_" class="st7" d="M84.5,117c0,0-1.9,10.3-2,12.3c-0.1,1.9-5.5,67.6-5.5,67.6l5,0.4l12.4-62.2l0.9-0.2l5.7,64.2
			l4.6-0.9l0.2-70.8l-1.4-10.7L84.5,117z"/>
		<path id="XMLID_196_" class="st8" d="M89.4,84c0,0-8.6-1.8-10.7-2.4c-2-0.5-2.6,4.3-3.2,5.9c-0.6,1.6-6.8,12.8-6.4,13.7
			s2,3.1,5.3,0.9c3.2-2.3,5.2-6,5.2-6s4.3,12.2,4.5,13.6c0.2,1.4-0.5,7.2,0,8.4c0.5,1.2,5.9,1.9,10.3,1.8c4.4-0.1,9.3-0.2,9.9-1.8
			c0.6-1.6-0.1-13.6-0.1-13.6s6.7-1.2,7.8-2.8c1.1-1.6-1.3-3.9-3.4-8.1c-2.2-4.2-2.7-9.3-4.3-10.2c-1.6-1-12.2,0.9-13.1,0.9
			C90.2,84.2,89.4,84,89.4,84z"/>
		<polygon id="XMLID_202_" class="st7" points="91,86.9 92.6,90.8 90.5,114.4 95.5,122.8 98.4,113.1 94.1,90.5 96.4,85.8 93.2,84.4 
			90.7,86.4 		"/>
		<path id="XMLID_199_" class="st8" d="M87.1,83.4l-0.3,6.9l7.2-3.6l6.4,3.8l-3.4-7.2c0,0-2.4-1.4-5.3-1.4
			C88.7,81.9,87.1,83.4,87.1,83.4z"/>
		<path id="XMLID_193_" class="st1" d="M88.6,75.8c0,0,0.4,2.5,0.3,5.5c-0.1,3,0.3,2.4,1.7,4.6c1.4,2.3,2.4,3.1,3.6,1.8
			c1.2-1.3,1.2-4,1.4-4.5c0.2-0.5,0.4-6.8,0.4-6.8S94.5,77.5,88.6,75.8z"/>
		<g>
			<path id="XMLID_15_" class="st1" d="M96.3,63.1c0,0,1.4,3.9,1.4,8.6s0,6.3-1.6,7.1c-1.6,0.8-4,0.9-5.5,0
				c-1.5-0.9-3.1-2.1-4.1-3.2c-1-1.1-3.8-4.5-4.2-6.9s4.1-5.3,7.8-6.8C93.9,60.5,96.3,63.1,96.3,63.1z"/>
			<g>
				<path class="st0" d="M91.5,69.2c0.1,0.5,0,1-0.3,1.1c-0.3,0.1-0.6-0.3-0.7-0.9s0-1,0.3-1.1C91.1,68.3,91.4,68.7,91.5,69.2z"/>
				<path class="st4" d="M94.9,67.9c0,0,0.6-0.8,1.4-0.5"/>
				<line class="st4" x1="94.9" y1="74.3" x2="96.4" y2="73.2"/>
				<path class="st4" d="M89.1,67.9c0,0,0.5-1.6,2.6-1"/>
				<path class="st4" d="M93.6,66.6c0,0,0.1-1.2,1.7-1.2"/>
				<path id="XMLID_13_" class="st4" d="M94.1,67.7c0,0,1.9,3,1.8,3.4c-0.1,0.5-1.9,1.8-1.9,1.8"/>
			</g>
		</g>
		<g>
			<path id="XMLID_190_" class="st7" d="M85.2,73.2c0,0,0.8-0.2,0.8-1.3c0-1.1-0.6-1.8-0.6-3.3c0-1.6,4.9-4.1,7.4-3.8
				c2.5,0.3,4.8,0.3,6.2-1.1c1.4-1.4,1.7-3,1.1-2.9c-0.6,0.1-1.9,0.7-1.9,0.7s0.8-2.9-1.1-5.6c-1.9-2.8-2.4-0.9-2.1-0.5
				c0.3,0.5,1.1,2.6,1.1,2.6s-3.1-2.3-5-2.1c-1.9,0.2-8.1,3-9.6,5.1c-1.5,2.1-1.6,5.5-1.2,7.3s1.5,2,1.5,2l2.5,3.1L85.2,73.2z"/>
			<g>
				<path class="st9" d="M81.8,68.3c0,0,0.3-2.9,3-3.8c2.7-0.9,5.1-0.9,8.5-0.9c3.4,0,1.6-3.3,0.3-3.5"/>
				<path class="st9" d="M81.6,64.3c0,0,0.6-2.4,5.6-2.7"/>
			</g>
		</g>
		<path id="XMLID_14_" class="st1" d="M86.6,74.1c0,0-1.2-2.9-3.1-2c-1.9,0.8,0.2,4.7,2.2,4.6c2-0.1,2.3-1.3,2.3-1.3"/>
		<path id="XMLID_195_" class="st1" d="M86.9,87.8c0,0,0-5.7,0.6-6.8c0.6-1.1,2.5-2,3.6-2.6c1.1-0.6,1.6,0,1.1,0.9
			c-0.5,0.9-1.8,2.1-1.8,2.1s5.3-2.5,5.8-1.8c0.5,0.7,0.6,1.6,0,2.1c-0.6,0.5-1.2,0.8-1.5,1.2c-0.3,0.4,0.3,3.4-0.3,4.4
			c-0.6,1-3.3,2.1-4.7,3c-1.4,0.9-11.5,12-14.2,13.3c-2.7,1.3-4.3,2.1-5.7,0.3c-1.4-1.8-1.1-3.6,0.7-5.8
			C72.3,95.9,86.9,87.8,86.9,87.8z"/>
		<path id="XMLID_198_" class="st1" d="M76.9,196.8c0,0-1.6,3.1-2.7,4.2c-1.1,1.1-3.3,3.2-3.1,3.8c0.2,0.5,10.4,0,10.4,0
			s0.8,0.4,0.6-2.1c-0.1-1.2-0.2-5.4-0.2-5.4L76.9,196.8z"/>
		<path id="XMLID_203_" class="st1" d="M104.3,104.5c0,0,0.1-12.2-0.5-13.7"/>
	</g>
	<polyline class="st6" points="94.4,90.5 100.2,90.9 95.6,88.1 94.7,89.9 94.4,90.5 	"/>
	<path class="st6" d="M104,90.5c0,0,3.5,5.1,3.9,11.1c0,0,0.4,1.4,4.1-1.4c0,0,0.9,1.8-3.4,2.9l-4.1,0.9
		C104.5,104.1,104.8,96,104,90.5z"/>
	<polyline class="st6" points="94.4,90.5 98.4,113.1 96.7,119.8 98.4,119.8 99,112.8 95.5,89.8 	"/>
</g>
<g id="Chair">
	<g>
		<g>
			<path class="st7" d="M18,201.9c0-1.5-1.2-2.6-2.6-2.6c-1.5,0-2.6,1.2-2.6,2.6c0,1.5,1.2,2.6,2.6,2.6
				C16.8,204.6,18,203.4,18,201.9z"/>
			<circle class="st1" cx="15.3" cy="201.9" r="1.3"/>
		</g>
		<g>
			<path class="st7" d="M46.3,201.9c0-1.5-1.2-2.6-2.6-2.6s-2.6,1.2-2.6,2.6c0,1.5,1.2,2.6,2.6,2.6S46.3,203.4,46.3,201.9z"/>
			<path class="st1" d="M45,201.9c0-0.7-0.6-1.3-1.3-1.3c-0.7,0-1.3,0.6-1.3,1.3c0,0.7,0.6,1.3,1.3,1.3
				C44.4,203.2,45,202.6,45,201.9z"/>
		</g>
		<g>
			<circle class="st7" cx="52.9" cy="201.9" r="2.6"/>
			<circle class="st1" cx="52.9" cy="201.9" r="1.3"/>
		</g>
		<path class="st7" d="M39.6,198.9H34v-38.5c0,0,0,0,0,0h5.5c0,0,0,0,0,0V198.9z"/>
		<rect x="32.5" y="178.7" class="st7" width="8.6" height="20.2"/>
		<path class="st7" d="M31,155.6h-7.1c0,0,0,0,0,0v-15.4h7.2L31,155.6C31.1,155.6,31,155.6,31,155.6z"/>
		<path class="st8" d="M41.6,140.2h-28c-2.8,0-5-2.3-4.9-5l0.7-27.3c0.1-2.7,2.2-4.8,4.9-4.8h23.1c2.4,0,4.5,1.8,4.8,4.2l4.2,27.3
			C46.9,137.5,44.6,140.2,41.6,140.2z"/>
		<line class="st4" x1="32.5" y1="161.4" x2="20.2" y2="169.5"/>
		<path class="st7" d="M19.7,168.3l-2.1,1.4c-0.7,0.5-0.8,1.5-0.2,2.1l0.1,0.1c0.5,0.5,1.3,0.5,1.8,0.1l1.9-1.6
			c0.6-0.5,0.7-1.4,0.1-2l0,0C21,168,20.3,167.9,19.7,168.3z"/>
		<path class="st5" d="M59.7,162.8H13.8c-2.3,0-4.2-1.9-4.2-4.2v-0.4c0-2.3,1.9-4.2,4.2-4.2h45.9c2.3,0,4.2,1.9,4.2,4.2v0.4
			C63.9,160.9,62,162.8,59.7,162.8z"/>
		<path class="st8" d="M63.9,157.9c-0.3-2.2-2.3-3.9-4.5-3.9H35.7c-2.3,0-4.3,1.6-4.5,3.9c-0.3,2.7,1.8,4.9,4.4,4.9h24
			C62.1,162.8,64.2,160.5,63.9,157.9z"/>
		<path class="st7" d="M56.4,200.5H12.7v-0.1c0-1.3,1-2.3,2.3-2.3h39.1c1.3,0,2.3,1,2.3,2.3V200.5z"/>
		<path class="st7" d="M48.6,200.5H34.4v-2.4h11.9c1.3,0,2.3,1,2.3,2.3V200.5z"/>
	</g>
</g>
<g id="Table">
	<g>
		<g>
			<rect x="33.5" y="134.8" class="st1" width="36.2" height="1.5"/>
			<rect x="43.7" y="134.8" class="st1" width="36.2" height="1.5"/>
			<rect x="45.7" y="109.2" class="st1" width="30.2" height="23.1"/>
			<rect x="46.9" y="109.2" class="st7" width="30.2" height="23.1"/>
			<rect x="60.1" y="121.5" class="st1" width="7.8" height="14.8"/>
			<g>
				<g>
					<path class="st0" d="M19.3,135.1c0.4,0,0.8-0.3,0.8-0.8l0.2-8.4l4-10.4l9.5,3.7c0.4,0.2,0.9,0,1-0.5c0.2-0.4,0-0.9-0.5-1
						l-10.3-4c-0.2-0.1-0.4-0.1-0.6,0c-0.2,0.1-0.3,0.2-0.4,0.4l-4.3,11.2c0,0.1-0.1,0.2-0.1,0.3l-0.2,8.5
						C18.5,134.7,18.8,135.1,19.3,135.1C19.3,135.1,19.3,135.1,19.3,135.1z"/>
				</g>
				
					<rect x="14" y="132.8" transform="matrix(-1 -1.224647e-16 1.224647e-16 -1 38.5606 268.6125)" class="st7" width="10.5" height="3"/>
				<path class="st0" d="M21.9,114.5c0-1,0.8-1.9,1.9-1.9c1,0,1.9,0.8,1.9,1.9c0,1-0.8,1.9-1.9,1.9
					C22.7,116.4,21.9,115.6,21.9,114.5z"/>
				<path class="st0" d="M17.7,126.2c0-1,0.8-1.9,1.9-1.9s1.9,0.8,1.9,1.9s-0.8,1.9-1.9,1.9S17.7,127.2,17.7,126.2z"/>
				<polygon class="st0" points="34.7,116.8 41.7,116.3 37.3,126 33,120.4 				"/>
			</g>
			<path class="st1" d="M8.5,144.7l1.6,59.1c0,0.8,0.7,1.4,1.4,1.4l0,0c0.8,0,1.4-0.6,1.4-1.4l0.8-59.1H8.5z"/>
			<path class="st1" d="M27.6,144.7l1.6,59.1c0,0.8,0.7,1.4,1.4,1.4l0,0c0.8,0,1.4-0.6,1.4-1.4l0.8-59.1H27.6z"/>
			<path class="st1" d="M106.4,144.7l1.6,59.1c0,0.8,0.7,1.4,1.4,1.4l0,0c0.8,0,1.4-0.6,1.4-1.4l0.8-59.1H106.4z"/>
			<path class="st1" d="M125.5,144.7l1.6,59.1c0,0.8,0.7,1.4,1.4,1.4l0,0c0.8,0,1.4-0.6,1.4-1.4l0.8-59.1H125.5z"/>
			<rect x="6.6" y="138.2" class="st1" width="125.8" height="7.1"/>
			<rect x="6.6" y="138.2" class="st1" width="26.3" height="7.1"/>
			<rect x="6.6" y="138.2" class="st7" width="125.8" height="3.5"/>
			<rect x="5.2" y="135.8" class="st1" width="128.8" height="3.9"/>
			<rect x="34.7" y="135.8" class="st1" width="99.2" height="3.9"/>
		</g>
	</g>
</g>
<g id="Clock">
	<g>
		
			<ellipse transform="matrix(0.3792 -0.9253 0.9253 0.3792 -26.0703 61.5378)" class="st4" cx="32.8" cy="50.2" rx="15.5" ry="15.5"/>
		<ellipse transform="matrix(0.9873 -0.1591 0.1591 0.9873 -7.5669 5.8606)" class="st4" cx="32.8" cy="50.2" rx="12.8" ry="12.8"/>
		<polyline class="st4" points="24.6,50.2 32.8,50.2 32.8,62 		"/>
	</g>
</g>
<g id="Floor">
</g>
</svg>
