<svg width="43" height="75" viewBox="0 0 43 75" fill="none" xmlns="http://www.w3.org/2000/svg">
<path fill-rule="evenodd" clip-rule="evenodd" d="M16.9441 6.31554C20.5029 2.75217 25.33 0.75 30.3636 0.75H41C41.6904 0.75 42.25 1.30964 42.25 2V16.2C42.25 16.8904 41.6904 17.45 41 17.45H30.3636C29.7554 17.45 29.1717 17.6919 28.7411 18.1231C28.3104 18.5543 28.0682 19.1395 28.0682 19.75V29.15H41C41.3849 29.15 41.7483 29.3273 41.9851 29.6306C42.222 29.9339 42.306 30.3294 42.2128 30.7028L38.6673 44.9028C38.5283 45.4594 38.0283 45.85 37.4545 45.85H28.0682V73C28.0682 73.6904 27.5085 74.25 26.8182 74.25H12.6364C11.946 74.25 11.3864 73.6904 11.3864 73V45.85H2C1.30964 45.85 0.75 45.2904 0.75 44.6V30.4C0.75 29.7096 1.30964 29.15 2 29.15H11.3864V19.75C11.3864 14.7114 13.3854 9.87885 16.9441 6.31554ZM30.3636 3.25C25.9941 3.25 21.8032 4.988 18.713 8.08217C15.6227 11.1764 13.8864 15.3734 13.8864 19.75V30.4C13.8864 31.0904 13.3267 31.65 12.6364 31.65H3.25V43.35H12.6364C13.3267 43.35 13.8864 43.9096 13.8864 44.6V71.75H25.5682V44.6C25.5682 43.9096 26.1278 43.35 26.8182 43.35H36.4783L39.3995 31.65H26.8182C26.1278 31.65 25.5682 31.0904 25.5682 30.4V19.75C25.5682 18.4775 26.073 17.2568 26.9722 16.3565C27.8714 15.4561 29.0913 14.95 30.3636 14.95H39.75V3.25H30.3636Z" fill="#01A0E3"/>
</svg>
