<svg width="169" height="51" viewBox="0 0 169 51" fill="none" xmlns="http://www.w3.org/2000/svg">
<path d="M0 6.67295C0 2.98758 2.98758 0 6.67295 0H162.153C165.838 0 168.826 2.98758 168.826 6.67295V43.3742C168.826 47.0595 165.838 50.0471 162.153 50.0471H6.67295C2.98758 50.0471 0 47.0595 0 43.3742V6.67295Z" fill="black"/>
<path d="M35.5969 30.3895C39.5943 28.1743 42.625 26.4866 42.8862 26.3555C43.7215 25.9069 44.5846 24.72 42.8862 23.7982C42.3378 23.5083 39.3852 21.8728 35.5969 19.7642L30.3457 25.1161L35.5966 30.3895H35.5969Z" fill="#FFD900"/>
<path d="M30.3462 25.116L13.625 42.1231C14.0172 42.1756 14.4603 42.0705 14.983 41.7807C16.0798 41.175 27.7066 34.767 35.5977 30.3905L30.3462 25.116Z" fill="#F43249"/>
<path d="M30.3465 25.116L35.5975 19.7901C35.5975 19.7901 16.1594 9.08473 14.9831 8.45305C14.5405 8.18744 14.0439 8.10891 13.5996 8.18744L30.3465 25.1157V25.116Z" fill="#00EE76"/>
<path d="M30.3471 25.116L13.5999 8.18774C12.9201 8.34624 12.3457 8.95223 12.3457 10.191V40.119C12.3457 41.2536 12.7903 42.0706 13.6256 42.1491L30.3468 25.1157L30.3471 25.116Z" fill="#00D3FF"/>
<path d="M85.5421 27.1887C82.5377 27.1887 80.0554 29.535 80.0554 32.752C80.0554 35.9427 82.5116 38.3153 85.5423 38.3153C88.5728 38.3153 91.0287 35.969 91.0287 32.752C91.0287 29.535 88.5728 27.1887 85.5421 27.1887ZM85.5421 36.1015C83.8957 36.1015 82.4596 34.7036 82.4596 32.7272C82.4596 30.7233 83.8968 29.3528 85.5421 29.3528C87.1873 29.3528 88.6245 30.7233 88.6245 32.7272C88.6245 34.7036 87.1873 36.1015 85.5421 36.1015ZM73.6021 27.1887C70.5714 27.1887 68.1151 29.535 68.1151 32.752C68.1151 35.9427 70.5714 38.3153 73.6021 38.3153C76.6325 38.3153 79.0887 35.969 79.0887 32.752C79.0887 29.535 76.6325 27.1887 73.6018 27.1887H73.6021ZM73.6021 36.1015C71.9554 36.1015 70.5196 34.7036 70.5196 32.7272C70.5196 30.7233 71.9568 29.3528 73.6021 29.3528C75.2484 29.3528 76.6845 30.7233 76.6845 32.7272C76.6845 34.7036 75.273 36.1015 73.6021 36.1015ZM59.415 28.9028V31.249H64.9534C64.7961 32.5672 64.3532 33.5428 63.6995 34.2025C62.8899 35.0195 61.6358 35.9165 59.415 35.9165C55.9918 35.9165 53.3539 33.1218 53.3539 29.6675C53.3539 26.2132 55.9932 23.3658 59.415 23.3658C61.2693 23.3658 62.6027 24.1043 63.5954 25.0538L65.2406 23.392C63.8554 22.0478 62.0011 21.0198 59.415 21.0198C54.7376 21.0198 50.8184 24.895 50.8184 29.615C50.8184 34.3353 54.7376 38.2105 59.415 38.2105C61.949 38.2105 63.8308 37.3672 65.3459 35.7842C66.8873 34.2287 67.3576 32.0398 67.3576 30.2735C67.3576 29.7201 67.3058 29.2189 67.2266 28.7968L59.415 28.9028ZM117.469 30.7219C117.025 29.4825 115.615 27.1887 112.792 27.1887C109.97 27.1887 107.645 29.4302 107.645 32.752C107.645 35.8628 109.97 38.3153 113.053 38.3153C115.562 38.3153 116.999 36.7598 117.599 35.8628L115.745 34.5974C115.117 35.5207 114.282 36.1264 113.053 36.1264C111.825 36.1264 110.964 35.5729 110.414 34.4386L117.703 31.3541L117.469 30.7219ZM110.049 32.5947C109.997 30.4583 111.695 29.3514 112.896 29.3514C113.863 29.3514 114.647 29.826 114.934 30.5383L110.049 32.5947ZM104.118 37.9466H106.522V21.6517H104.118V37.9466ZM100.2 28.4281H100.122C99.5733 27.7685 98.5545 27.1887 97.2472 27.1887C94.5037 27.1887 92.0217 29.6413 92.0217 32.752C92.0217 35.8628 94.5297 38.2893 97.2472 38.2893C98.5531 38.2893 99.5721 37.7093 100.122 37.0233H100.2V37.8144C100.2 39.9508 99.0755 41.0836 97.2732 41.0836C95.8099 41.0836 94.8951 40.003 94.5297 39.106L92.4402 40.003C93.0404 41.4797 94.635 43.2988 97.2732 43.2988C100.094 43.2988 102.473 41.6111 102.473 37.5245V27.5311H100.2V28.4281ZM97.4563 36.1015C95.8099 36.1015 94.4259 34.7036 94.4259 32.7535C94.4259 30.8033 95.8111 29.3788 97.4563 29.3788C99.0769 29.3788 100.383 30.8033 100.383 32.7535C100.382 34.6774 99.0755 36.1015 97.4563 36.1015ZM128.678 21.652H122.93V37.9466H125.334V31.7762H128.678C131.343 31.7762 133.955 29.8246 133.955 26.7141C133.955 23.6034 131.343 21.6517 128.678 21.6517V21.652ZM128.756 29.5102H125.359V23.9192H128.756C130.532 23.9192 131.577 25.4222 131.577 26.7138C131.552 27.9795 130.534 29.5102 128.756 29.5102ZM143.545 27.1625C141.82 27.1625 140.017 27.9272 139.286 29.6675L141.403 30.5645C141.873 29.6675 142.709 29.3777 143.598 29.3777C144.852 29.3777 146.106 30.1422 146.132 31.4863V31.6451C145.687 31.3816 144.774 31.0117 143.624 31.0117C141.325 31.0117 138.999 32.3037 138.999 34.6774C138.999 36.866 140.88 38.263 142.97 38.263C144.591 38.263 145.478 37.5245 146.027 36.655H146.105V37.9206H148.429V31.6711C148.404 28.7977 146.288 27.1622 143.545 27.1622V27.1625ZM143.257 36.0753C142.474 36.0753 141.376 35.6792 141.376 34.7048C141.376 33.4391 142.734 32.9645 143.91 32.9645C144.954 32.9645 145.451 33.2018 146.105 33.5179C145.922 35.0209 144.641 36.0753 143.257 36.0753ZM156.817 27.5326L154.073 34.5723H153.995L151.148 27.5323H148.562L152.846 37.3932L150.416 42.9042H152.924L159.482 27.5323H156.817L156.817 27.5326ZM135.288 37.9466H137.693V21.6517H135.288V37.9466Z" fill="white"/>
<path d="M55.5428 16.5196C54.8168 16.5196 54.1477 16.3452 53.5356 15.9965C52.9235 15.6477 52.4359 15.1708 52.0729 14.5658C51.717 13.9537 51.5391 13.2739 51.5391 12.5265C51.5391 11.7792 51.717 11.103 52.0729 10.498C52.4359 9.88583 52.9235 9.40538 53.5356 9.05661C54.1477 8.70783 54.8168 8.53345 55.5428 8.53345C56.1194 8.53345 56.6568 8.63666 57.155 8.84307C57.6533 9.04949 58.0697 9.33776 58.4042 9.70789L57.5714 10.5407C57.3223 10.2631 57.0233 10.0495 56.6746 9.90007C56.3329 9.75059 55.9521 9.67586 55.5322 9.67586C55.041 9.67586 54.5819 9.7933 54.1549 10.0282C53.7278 10.2631 53.3861 10.5976 53.1299 11.0318C52.8737 11.466 52.7455 11.9642 52.7455 12.5265C52.7455 13.0888 52.8737 13.5871 53.1299 14.0213C53.3861 14.4555 53.7278 14.79 54.1549 15.0249C54.5819 15.2598 55.0446 15.3772 55.5428 15.3772C55.9984 15.3772 56.3792 15.3096 56.6852 15.1744C56.9913 15.0391 57.2653 14.8576 57.5073 14.6299C57.6639 14.4733 57.7956 14.2775 57.9024 14.0426C58.0163 13.8077 58.091 13.5515 58.1266 13.2739H55.5322V12.2062H59.2583C59.2939 12.4055 59.3117 12.612 59.3117 12.8255C59.3117 13.3095 59.237 13.7757 59.0875 14.2241C58.938 14.6654 58.6996 15.0498 58.3722 15.3772C57.6533 16.1388 56.7102 16.5196 55.5428 16.5196Z" fill="white"/>
<path d="M60.4252 8.70428H65.0696V9.84668H61.621V11.9607H64.7279V13.0924H61.621V15.2064H65.0696V16.3488H60.4252V8.70428Z" fill="white"/>
<path d="M67.8372 9.84668H65.7018V8.70428H71.1683V9.84668H69.033V16.3488H67.8372V9.84668Z" fill="white"/>
<path d="M74.2945 8.70428H75.4903V16.3488H74.2945V8.70428Z" fill="white"/>
<path d="M78.516 9.84668H76.3806V8.70428H81.8471V9.84668H79.7118V16.3488H78.516V9.84668Z" fill="white"/>
<path d="M88.3415 16.5196C87.6012 16.5196 86.9286 16.3452 86.3236 15.9965C85.7186 15.6406 85.2417 15.1566 84.8929 14.5444C84.5512 13.9323 84.3804 13.2597 84.3804 12.5265C84.3804 11.7934 84.5512 11.1243 84.8929 10.5193C85.2417 9.90719 85.7186 9.42317 86.3236 9.06728C86.9286 8.71139 87.6012 8.53345 88.3415 8.53345C89.0817 8.53345 89.7508 8.71139 90.3487 9.06728C90.9537 9.42317 91.4306 9.90719 91.7794 10.5193C92.1281 11.1243 92.3025 11.7934 92.3025 12.5265C92.3025 13.2597 92.1281 13.9323 91.7794 14.5444C91.4377 15.1566 90.9644 15.6406 90.3594 15.9965C89.7544 16.3452 89.0817 16.5196 88.3415 16.5196ZM88.3415 15.3772C88.8468 15.3772 89.3095 15.2562 89.7294 15.0142C90.1494 14.7722 90.4804 14.4377 90.7224 14.0106C90.9644 13.5764 91.0854 13.0817 91.0854 12.5265C91.0854 11.9714 90.9644 11.4802 90.7224 11.0532C90.4804 10.619 90.1494 10.2809 89.7294 10.0389C89.3095 9.79686 88.8468 9.67586 88.3415 9.67586C87.8361 9.67586 87.3734 9.79686 86.9535 10.0389C86.5335 10.2809 86.199 10.619 85.9499 11.0532C85.7079 11.4802 85.5869 11.9714 85.5869 12.5265C85.5869 13.0817 85.7079 13.5764 85.9499 14.0106C86.199 14.4377 86.5335 14.7722 86.9535 15.0142C87.3734 15.2562 87.8361 15.3772 88.3415 15.3772Z" fill="white"/>
<path d="M93.4021 8.70428H94.8221L98.2386 14.2668H98.3027L98.2386 12.7935V8.70428H99.4237V16.3488H98.1746L94.5872 10.498H94.5231L94.5872 11.9714V16.3488H93.4021V8.70428Z" fill="white"/>
</svg>
