<svg width="119" height="44" viewBox="0 0 119 44" fill="none" xmlns="http://www.w3.org/2000/svg">
<rect width="119" height="44" rx="6" fill="#FF3152"/>
<path d="M21.744 17.228L18.16 27H15.78L12.196 17.228H14.296L16.984 24.998L19.658 17.228H21.744Z" fill="white"/>
<path d="M24.6132 18.32C24.2678 18.32 23.9785 18.2127 23.7452 17.998C23.5212 17.774 23.4092 17.4987 23.4092 17.172C23.4092 16.8454 23.5212 16.5747 23.7452 16.36C23.9785 16.136 24.2678 16.024 24.6132 16.024C24.9585 16.024 25.2432 16.136 25.4672 16.36C25.7005 16.5747 25.8172 16.8454 25.8172 17.172C25.8172 17.4987 25.7005 17.774 25.4672 17.998C25.2432 18.2127 24.9585 18.32 24.6132 18.32ZM25.5792 19.244V27H23.6192V19.244H25.5792Z" fill="white"/>
<path d="M35.4257 22.954C35.4257 23.234 35.407 23.486 35.3697 23.71H29.6997C29.7463 24.27 29.9423 24.7087 30.2877 25.026C30.633 25.3434 31.0577 25.502 31.5617 25.502C32.2897 25.502 32.8077 25.1894 33.1157 24.564H35.2297C35.0057 25.3107 34.5763 25.9267 33.9417 26.412C33.307 26.888 32.5277 27.126 31.6037 27.126C30.857 27.126 30.185 26.9627 29.5877 26.636C28.9997 26.3 28.5377 25.8287 28.2017 25.222C27.875 24.6154 27.7117 23.9154 27.7117 23.122C27.7117 22.3194 27.875 21.6147 28.2017 21.008C28.5283 20.4014 28.9857 19.9347 29.5737 19.608C30.1617 19.2814 30.8383 19.118 31.6037 19.118C32.341 19.118 32.999 19.2767 33.5777 19.594C34.1657 19.9114 34.6183 20.364 34.9357 20.952C35.2623 21.5307 35.4257 22.198 35.4257 22.954ZM33.3957 22.394C33.3863 21.89 33.2043 21.4887 32.8497 21.19C32.495 20.882 32.061 20.728 31.5477 20.728C31.0623 20.728 30.6517 20.8774 30.3157 21.176C29.989 21.4654 29.7883 21.8714 29.7137 22.394H33.3957Z" fill="white"/>
<path d="M48.3083 19.244L46.0403 27H43.9263L42.5123 21.582L41.0983 27H38.9703L36.6883 19.244H38.6763L40.0483 25.152L41.5323 19.244H43.6043L45.0603 25.138L46.4323 19.244H48.3083Z" fill="white"/>
<path d="M57.5207 17.228C58.5474 17.228 59.4481 17.4287 60.2227 17.83C61.0067 18.2314 61.6087 18.8054 62.0287 19.552C62.4581 20.2894 62.6727 21.148 62.6727 22.128C62.6727 23.108 62.4581 23.9667 62.0287 24.704C61.6087 25.432 61.0067 25.9967 60.2227 26.398C59.4481 26.7994 58.5474 27 57.5207 27H54.1047V17.228H57.5207ZM57.4507 25.334C58.4774 25.334 59.2707 25.054 59.8307 24.494C60.3907 23.934 60.6707 23.1454 60.6707 22.128C60.6707 21.1107 60.3907 20.3174 59.8307 19.748C59.2707 19.1694 58.4774 18.88 57.4507 18.88H56.0647V25.334H57.4507Z" fill="white"/>
<path d="M72.0499 22.954C72.0499 23.234 72.0312 23.486 71.9939 23.71H66.3239C66.3705 24.27 66.5665 24.7087 66.9119 25.026C67.2572 25.3434 67.6819 25.502 68.1859 25.502C68.9139 25.502 69.4319 25.1894 69.7399 24.564H71.8539C71.6299 25.3107 71.2005 25.9267 70.5659 26.412C69.9312 26.888 69.1519 27.126 68.2279 27.126C67.4812 27.126 66.8092 26.9627 66.2119 26.636C65.6239 26.3 65.1619 25.8287 64.8259 25.222C64.4992 24.6154 64.3359 23.9154 64.3359 23.122C64.3359 22.3194 64.4992 21.6147 64.8259 21.008C65.1525 20.4014 65.6099 19.9347 66.1979 19.608C66.7859 19.2814 67.4625 19.118 68.2279 19.118C68.9652 19.118 69.6232 19.2767 70.2019 19.594C70.7899 19.9114 71.2425 20.364 71.5599 20.952C71.8865 21.5307 72.0499 22.198 72.0499 22.954ZM70.0199 22.394C70.0105 21.89 69.8285 21.4887 69.4739 21.19C69.1192 20.882 68.6852 20.728 68.1719 20.728C67.6865 20.728 67.2759 20.8774 66.9399 21.176C66.6132 21.4654 66.4125 21.8714 66.3379 22.394H70.0199Z" fill="white"/>
<path d="M76.4625 20.854V24.606C76.4625 24.8674 76.5232 25.0587 76.6445 25.18C76.7752 25.292 76.9898 25.348 77.2885 25.348H78.1985V27H76.9665C75.3145 27 74.4885 26.1974 74.4885 24.592V20.854H73.5645V19.244H74.4885V17.326H76.4625V19.244H78.1985V20.854H76.4625Z" fill="white"/>
<path d="M79.8042 23.094C79.8042 22.31 79.9582 21.6147 80.2662 21.008C80.5836 20.4014 81.0082 19.9347 81.5402 19.608C82.0816 19.2814 82.6836 19.118 83.3462 19.118C83.9249 19.118 84.4289 19.2347 84.8582 19.468C85.2969 19.7014 85.6469 19.9954 85.9082 20.35V19.244H87.8822V27H85.9082V25.866C85.6562 26.23 85.3062 26.5334 84.8582 26.776C84.4196 27.0094 83.9109 27.126 83.3322 27.126C82.6789 27.126 82.0816 26.958 81.5402 26.622C81.0082 26.286 80.5836 25.8147 80.2662 25.208C79.9582 24.592 79.8042 23.8874 79.8042 23.094ZM85.9082 23.122C85.9082 22.646 85.8149 22.24 85.6282 21.904C85.4416 21.5587 85.1896 21.2974 84.8722 21.12C84.5549 20.9334 84.2142 20.84 83.8502 20.84C83.4862 20.84 83.1502 20.9287 82.8422 21.106C82.5342 21.2834 82.2822 21.5447 82.0862 21.89C81.8996 22.226 81.8062 22.6274 81.8062 23.094C81.8062 23.5607 81.8996 23.9714 82.0862 24.326C82.2822 24.6714 82.5342 24.9374 82.8422 25.124C83.1596 25.3107 83.4956 25.404 83.8502 25.404C84.2142 25.404 84.5549 25.3154 84.8722 25.138C85.1896 24.9514 85.4416 24.69 85.6282 24.354C85.8149 24.0087 85.9082 23.598 85.9082 23.122Z" fill="white"/>
<path d="M91.4905 18.32C91.1452 18.32 90.8559 18.2127 90.6225 17.998C90.3985 17.774 90.2865 17.4987 90.2865 17.172C90.2865 16.8454 90.3985 16.5747 90.6225 16.36C90.8559 16.136 91.1452 16.024 91.4905 16.024C91.8359 16.024 92.1205 16.136 92.3445 16.36C92.5779 16.5747 92.6945 16.8454 92.6945 17.172C92.6945 17.4987 92.5779 17.774 92.3445 17.998C92.1205 18.2127 91.8359 18.32 91.4905 18.32ZM92.4565 19.244V27H90.4965V19.244H92.4565Z" fill="white"/>
<path d="M97.053 16.64V27H95.093V16.64H97.053Z" fill="white"/>
<path d="M102.657 27.126C102.023 27.126 101.453 27.014 100.949 26.79C100.445 26.5567 100.044 26.244 99.7455 25.852C99.4562 25.46 99.2975 25.026 99.2695 24.55H101.243C101.281 24.8487 101.425 25.096 101.677 25.292C101.939 25.488 102.261 25.586 102.643 25.586C103.017 25.586 103.306 25.5114 103.511 25.362C103.726 25.2127 103.833 25.0214 103.833 24.788C103.833 24.536 103.703 24.3494 103.441 24.228C103.189 24.0974 102.783 23.9574 102.223 23.808C101.645 23.668 101.169 23.5234 100.795 23.374C100.431 23.2247 100.114 22.996 99.8435 22.688C99.5821 22.38 99.4515 21.9647 99.4515 21.442C99.4515 21.0127 99.5728 20.6207 99.8155 20.266C100.067 19.9114 100.422 19.6314 100.879 19.426C101.346 19.2207 101.892 19.118 102.517 19.118C103.441 19.118 104.179 19.3514 104.729 19.818C105.28 20.2754 105.583 20.896 105.639 21.68H103.763C103.735 21.372 103.605 21.1294 103.371 20.952C103.147 20.7654 102.844 20.672 102.461 20.672C102.107 20.672 101.831 20.7374 101.635 20.868C101.449 20.9987 101.355 21.1807 101.355 21.414C101.355 21.6754 101.486 21.876 101.747 22.016C102.009 22.1467 102.415 22.282 102.965 22.422C103.525 22.562 103.987 22.7067 104.351 22.856C104.715 23.0054 105.028 23.2387 105.289 23.556C105.56 23.864 105.7 24.2747 105.709 24.788C105.709 25.236 105.583 25.6374 105.331 25.992C105.089 26.3467 104.734 26.6267 104.267 26.832C103.81 27.028 103.273 27.126 102.657 27.126Z" fill="white"/>
</svg>
