<svg width="65" height="65" viewBox="0 0 65 65" fill="none" xmlns="http://www.w3.org/2000/svg">
<path d="M47.75 2H17.25C8.82766 2 2 8.82766 2 17.25V47.75C2 56.1723 8.82766 63 17.25 63H47.75C56.1723 63 63 56.1723 63 47.75V17.25C63 8.82766 56.1723 2 47.75 2Z" stroke="#A867C5" stroke-width="2.8" stroke-linecap="round" stroke-linejoin="round"/>
<path d="M44.6987 30.5787C45.0751 33.117 44.6416 35.7094 43.4597 37.9872C42.2778 40.2649 40.4078 42.112 38.1157 43.2657C35.8235 44.4194 33.226 44.821 30.6925 44.4133C28.1589 44.0056 25.8185 42.8094 24.004 40.9949C22.1895 39.1804 20.9933 36.84 20.5856 34.3064C20.1779 31.7729 20.5795 29.1754 21.7332 26.8832C22.8869 24.5911 24.734 22.7211 27.0117 21.5392C29.2895 20.3574 31.8819 19.9238 34.4202 20.3002C37.0094 20.6841 39.4065 21.8907 41.2574 23.7415C43.1083 25.5924 44.3148 27.9895 44.6987 30.5787Z" stroke="#A867C5" stroke-width="2.8" stroke-linecap="round" stroke-linejoin="round"/>
<path d="M49.2754 15.7251H49.3059" stroke="#A867C5" stroke-width="2.8" stroke-linecap="round" stroke-linejoin="round"/>
</svg>
