<svg width="330" height="335" viewBox="0 0 330 335" fill="none" xmlns="http://www.w3.org/2000/svg">
<g opacity="0.3">
<path d="M1.00134 257.892L90.6735 143.185C102.683 127.823 121.403 119.246 140.88 120.181L187.338 122.412C205.032 123.261 222.199 116.258 234.249 103.273L329.167 1" stroke="white" stroke-width="1.00118"/>
<path d="M1 283.201L90.6721 168.495C102.682 153.132 121.401 144.555 140.879 145.49L187.337 147.721C205.031 148.57 222.198 141.567 234.248 128.583L329.166 26.3091" stroke="white" stroke-width="1.00118"/>
<path d="M1 308.511L90.6721 193.804C102.682 178.441 121.401 169.864 140.879 170.799L187.337 173.03C205.031 173.88 222.198 166.876 234.248 153.892L329.166 51.6184" stroke="white" stroke-width="1.00118"/>
<path d="M1 333.821L90.6721 219.114C102.682 203.752 121.401 195.175 140.879 196.11L187.337 198.34C205.031 199.19 222.198 192.187 234.248 179.202L329.166 76.929" stroke="white" stroke-width="1.00118"/>
</g>
</svg>
