<svg width="137" height="90" viewBox="0 0 137 90" fill="none" xmlns="http://www.w3.org/2000/svg">
<rect width="137" height="90" fill="url(#paint0_linear)"/>
<mask id="mask0" mask-type="alpha" maskUnits="userSpaceOnUse" x="0" y="0" width="137" height="90">
<rect width="137" height="90" fill="url(#paint1_linear)"/>
</mask>
<g mask="url(#mask0)">
<g opacity="0.3">
<path d="M-19.9995 106.679L43.4207 25.5529C55.4304 10.1903 74.1499 1.61305 93.6273 2.54828L114.654 3.55789C132.348 4.40749 149.515 -2.59597 161.565 -15.5802L229 -88.2413" stroke="white" stroke-width="1.00118"/>
<path d="M-20 125.882L43.4201 44.7565C55.4299 29.3939 74.1494 20.8166 93.6268 21.7518L114.653 22.7614C132.347 23.611 149.514 16.6076 161.565 3.62339L229 -69.0377" stroke="white" stroke-width="1.00118"/>
<path d="M-20 145.086L43.4201 63.9603C55.4299 48.5977 74.1494 40.0205 93.6268 40.9557L114.653 41.9653C132.347 42.8149 149.514 35.8114 161.565 22.8272L229 -49.8339" stroke="white" stroke-width="1.00118"/>
<path d="M-20 164.291L43.4201 83.1649C55.4299 67.8023 74.1494 59.225 93.6268 60.1602L114.653 61.1698C132.347 62.0194 149.514 55.016 161.565 42.0318L229 -30.6293" stroke="white" stroke-width="1.00118"/>
</g>
</g>
<defs>
<linearGradient id="paint0_linear" x1="7" y1="12" x2="122" y2="76" gradientUnits="userSpaceOnUse">
<stop stop-color="#DF141B"/>
<stop offset="1" stop-color="#FF3152"/>
</linearGradient>
<linearGradient id="paint1_linear" x1="7" y1="12" x2="122" y2="76" gradientUnits="userSpaceOnUse">
<stop stop-color="#DF141B"/>
<stop offset="1" stop-color="#FF3152"/>
</linearGradient>
</defs>
</svg>
