<?xml version="1.0" encoding="utf-8"?>
<!-- Generator: Adobe Illustrator 25.0.0, SVG Export Plug-In . SVG Version: 6.00 Build 0)  -->
<svg version="1.1" xmlns="http://www.w3.org/2000/svg" xmlns:xlink="http://www.w3.org/1999/xlink" x="0px" y="0px"
	 viewBox="0 0 185 173.6" style="enable-background:new 0 0 185 173.6;" xml:space="preserve">
<style type="text/css">
	.st0{fill:#263238;}
	.st1{fill:#73CCBC;}
	.st2{fill:#FFFFFF;}
	.st3{fill:#7D7D7D;}
	.st4{fill:#595959;}
	.st5{fill:#202426;}
</style>
<g id="Background_Simple">
</g>
<g id="Plants">
</g>
<g id="Board">
</g>
<g id="Character">
	<g>
		<g>
			<path class="st0" d="M156.7,108.6H87.4c-0.1,0-0.2-0.1-0.2-0.2v-96c0-0.1,0.1-0.2,0.2-0.2h69.3c0.1,0,0.2,0.1,0.2,0.2v96
				C156.9,108.5,156.8,108.6,156.7,108.6z M87.5,108.2h69V12.6h-69V108.2z"/>
		</g>
		<g>
			<path class="st0" d="M122,108.9c-0.1,0-0.2-0.1-0.2-0.2V12.5c0-0.1,0.1-0.2,0.2-0.2c0.1,0,0.2,0.1,0.2,0.2v96.3
				C122.2,108.8,122.1,108.9,122,108.9z"/>
		</g>
		<g>
			<path class="st0" d="M156.8,60.8H87.3c-0.1,0-0.2-0.1-0.2-0.2c0-0.1,0.1-0.2,0.2-0.2h69.5c0.1,0,0.2,0.1,0.2,0.2
				C156.9,60.7,156.9,60.8,156.8,60.8z"/>
		</g>
		<g>
			<path class="st0" d="M156.8,36.7H87.3c-0.1,0-0.2-0.1-0.2-0.2c0-0.1,0.1-0.2,0.2-0.2h69.5c0.1,0,0.2,0.1,0.2,0.2
				C156.9,36.6,156.9,36.7,156.8,36.7z"/>
		</g>
		<g>
			<path class="st0" d="M156.8,84.9H87.3c-0.1,0-0.2-0.1-0.2-0.2s0.1-0.2,0.2-0.2h69.5c0.1,0,0.2,0.1,0.2,0.2S156.9,84.9,156.8,84.9
				z"/>
		</g>
		<g>
			<g>
				<path class="st0" d="M137.4,54.3c0,0-0.1,0-0.1-0.1c-0.1-0.1-0.1-0.2,0-0.3l6.8-6.5c0.1-0.1,0.2-0.1,0.3,0
					c0.1,0.1,0.1,0.2,0,0.3l-6.8,6.5C137.4,54.3,137.4,54.3,137.4,54.3z"/>
			</g>
			<g>
				<path class="st0" d="M146.1,45.9c0,0-0.1,0-0.1-0.1c-0.1-0.1-0.1-0.2,0-0.3l8.1-7.8c0.1-0.1,0.2-0.1,0.3,0
					c0.1,0.1,0.1,0.2,0,0.3l-8.1,7.8C146.2,45.9,146.1,45.9,146.1,45.9z"/>
			</g>
			<g>
				<path class="st0" d="M134.7,53.3c0,0-0.1,0-0.1-0.1c-0.1-0.1-0.1-0.2,0-0.3l2.1-2.1c0.1-0.1,0.2-0.1,0.3,0
					c0.1,0.1,0.1,0.2,0,0.3l-2.1,2.1C134.8,53.3,134.8,53.3,134.7,53.3z"/>
			</g>
			<g>
				<path class="st0" d="M138.3,49.8c0,0-0.1,0-0.1-0.1c-0.1-0.1-0.1-0.2,0-0.3L146,42c0.1-0.1,0.2-0.1,0.3,0c0.1,0.1,0.1,0.2,0,0.3
					l-7.7,7.4C138.4,49.8,138.4,49.8,138.3,49.8z"/>
			</g>
		</g>
		<g>
			<g>
				<path class="st0" d="M99.9,32.3c0,0-0.1,0-0.1-0.1c-0.1-0.1-0.1-0.2,0-0.3l6.8-6.5c0.1-0.1,0.2-0.1,0.3,0c0.1,0.1,0.1,0.2,0,0.3
					l-6.8,6.5C99.9,32.3,99.9,32.3,99.9,32.3z"/>
			</g>
			<g>
				<path class="st0" d="M108.6,23.9c0,0-0.1,0-0.1-0.1c-0.1-0.1-0.1-0.2,0-0.3l8.1-7.8c0.1-0.1,0.2-0.1,0.3,0
					c0.1,0.1,0.1,0.2,0,0.3l-8.1,7.8C108.7,23.9,108.6,23.9,108.6,23.9z"/>
			</g>
			<g>
				<path class="st0" d="M97.2,31.3c0,0-0.1,0-0.1-0.1C97,31.2,97,31,97.1,31l2.1-2.1c0.1-0.1,0.2-0.1,0.3,0c0.1,0.1,0.1,0.2,0,0.3
					l-2.1,2.1C97.3,31.3,97.3,31.3,97.2,31.3z"/>
			</g>
			<g>
				<path class="st0" d="M100.8,27.8c0,0-0.1,0-0.1-0.1c-0.1-0.1-0.1-0.2,0-0.3l7.7-7.4c0.1-0.1,0.2-0.1,0.3,0
					c0.1,0.1,0.1,0.2,0,0.3l-7.7,7.4C100.9,27.8,100.9,27.8,100.8,27.8z"/>
			</g>
		</g>
		<g>
			<g>
				<path class="st0" d="M135.7,79.8c0,0-0.1,0-0.1-0.1c-0.1-0.1-0.1-0.2,0-0.3l6.8-6.5c0.1-0.1,0.2-0.1,0.3,0
					c0.1,0.1,0.1,0.2,0,0.3l-6.8,6.5C135.8,79.8,135.8,79.8,135.7,79.8z"/>
			</g>
			<g>
				<path class="st0" d="M144.5,71.4c0,0-0.1,0-0.1-0.1c-0.1-0.1-0.1-0.2,0-0.3l8.1-7.8c0.1-0.1,0.2-0.1,0.3,0
					c0.1,0.1,0.1,0.2,0,0.3l-8.1,7.8C144.6,71.4,144.5,71.4,144.5,71.4z"/>
			</g>
			<g>
				<path class="st0" d="M133.1,78.8c0,0-0.1,0-0.1-0.1c-0.1-0.1-0.1-0.2,0-0.3l2.1-2.1c0.1-0.1,0.2-0.1,0.3,0
					c0.1,0.1,0.1,0.2,0,0.3l-2.1,2.1C133.2,78.8,133.1,78.8,133.1,78.8z"/>
			</g>
			<g>
				<path class="st0" d="M136.7,75.3c0,0-0.1,0-0.1-0.1c-0.1-0.1-0.1-0.2,0-0.3l7.7-7.4c0.1-0.1,0.2-0.1,0.3,0
					c0.1,0.1,0.1,0.2,0,0.3l-7.7,7.4C136.8,75.3,136.8,75.3,136.7,75.3z"/>
			</g>
		</g>
	</g>
	<g>
		<g>
			<g>
				<path class="st1" d="M145.5,99.4l-0.3-2.5c0,0-1.3,0.1-1.8-1.1c-0.3-0.7-0.6-2.1-0.2-2.8c0.6-1,2-0.8,2.4,0.3
					c0.4,1,0.5,1.4,0.5,1.4c-0.1-1.5-1.2-7.4,2.1-6.5c1.4,0.4,1.7,1.7,1.8,2.7c0.1,1-0.1,3.7-0.1,3.7s0.9,0.1,1-1.4
					c0.1-1.5,1.5-2.2,2.1-1.5c0.6,0.7,0.9,3.2,0.2,4c-0.7,0.8-2.9,1.1-2.9,1.1l0.1,2.5L145.5,99.4z"/>
				<path class="st0" d="M150.6,99.6L150.6,99.6l-5,0c-0.1,0-0.2-0.1-0.2-0.2l-0.3-2.3c-0.4,0-1.4-0.2-1.8-1.2
					c-0.3-0.7-0.7-2.2-0.2-3c0.3-0.5,0.9-0.8,1.5-0.7c0.6,0.1,1.1,0.5,1.3,1.1c0,0,0,0,0,0.1c-0.2-1.7-0.3-4.1,0.8-5
					c0.4-0.4,1-0.5,1.7-0.3c1.2,0.3,1.8,1.3,1.9,2.9c0.1,0.9,0,2.8-0.1,3.5c0.1,0,0.1-0.1,0.2-0.1c0.2-0.2,0.3-0.6,0.4-1.1
					c0-1,0.7-1.6,1.2-1.8c0.5-0.2,0.9-0.1,1.2,0.3c0.7,0.7,1,3.3,0.2,4.2c-0.6,0.7-2.3,1-2.8,1.1l0.1,2.3c0,0.1,0,0.1-0.1,0.1
					C150.7,99.5,150.6,99.6,150.6,99.6z M145.7,99.2l4.7,0l-0.1-2.3c0-0.1,0.1-0.2,0.2-0.2c0,0,2.1-0.3,2.8-1
					c0.6-0.7,0.4-3.1-0.2-3.7c-0.2-0.2-0.5-0.3-0.8-0.2c-0.5,0.2-0.9,0.7-1,1.5c0,0.6-0.2,1.1-0.5,1.3c-0.3,0.3-0.6,0.2-0.7,0.2
					c-0.1,0-0.2-0.1-0.2-0.2c0,0,0.1-2.7,0.1-3.7c-0.1-1-0.4-2.2-1.6-2.5c-0.6-0.2-1-0.1-1.4,0.2c-1.1,0.9-0.8,3.8-0.6,5.3
					c0,0.3,0.1,0.6,0.1,0.8c0,0.1-0.1,0.2-0.1,0.2c-0.1,0-0.2,0-0.2-0.1c0,0-0.2-0.4-0.5-1.5c-0.2-0.5-0.5-0.8-1-0.8
					c-0.4-0.1-0.8,0.2-1.1,0.5c-0.4,0.6-0.1,1.9,0.2,2.6c0.5,1,1.6,1,1.7,1c0.1,0,0.2,0.1,0.2,0.2L145.7,99.2z"/>
			</g>
			<g>
				<path class="st0" d="M147.2,95.7C147.2,95.7,147.1,95.7,147.2,95.7c-0.1-0.1-0.1-3.2-0.2-4.8c-0.2-1.7,0.4-2.3,0.4-2.3
					c0,0,0.1,0,0.1,0c0,0,0,0.1,0,0.1c0,0-0.5,0.5-0.4,2.1C147.3,92.5,147.3,95.6,147.2,95.7C147.3,95.7,147.3,95.7,147.2,95.7z"/>
			</g>
			<g>
				<path class="st0" d="M149.4,95.3C149.3,95.3,149.3,95.2,149.4,95.3c-0.1-0.1-0.3-2.5-0.1-4c0.1-0.9,0-1.2-0.2-1.3
					c-0.1-0.1-0.2-0.1-0.2-0.1c-0.1,0-0.1,0-0.1-0.1c0-0.1,0-0.1,0.1-0.1c0.1,0,0.2,0,0.3,0.1c0.2,0.2,0.3,0.7,0.2,1.4
					c-0.2,1.5,0,3.9,0,3.9C149.5,95.2,149.4,95.3,149.4,95.3C149.4,95.3,149.4,95.3,149.4,95.3z"/>
			</g>
			<g>
				<path class="st0" d="M146,97.7C146,97.7,145.9,97.6,146,97.7l-0.2-1.1c-0.1,0-0.4,0-0.9-0.1c-0.7-0.1-0.8-0.8-1.1-1.6
					c0-0.1-0.1-0.3-0.1-0.4c-0.1-0.4-0.1-0.8,0-1c0.1-0.2,0.4-0.3,0.4-0.3c0.1,0,0.1,0,0.1,0.1c0,0.1,0,0.1-0.1,0.1
					c0,0-0.2,0-0.3,0.2c-0.1,0.2-0.1,0.5,0,0.9c0,0.2,0.1,0.3,0.1,0.4c0.2,0.8,0.4,1.4,0.9,1.5c0.7,0.1,0.9,0.1,0.9,0.1
					c0,0,0.1,0,0.1,0.1l0.1,1.1C146.1,97.6,146.1,97.7,146,97.7C146,97.7,146,97.7,146,97.7z"/>
			</g>
			<g>
				<path class="st0" d="M150.6,96.4C150.5,96.4,150.5,96.4,150.6,96.4c-0.1,0-0.2,0-0.2-0.1c0-0.1,0-0.1,0.1-0.1c0,0,2,0,2.4-0.7
					c0.4-0.8,0.1-2.2,0.1-2.2c0-0.1,0-0.1,0.1-0.1c0.1,0,0.1,0,0.1,0.1c0,0.1,0.3,1.5-0.2,2.4C152.7,96.3,151,96.4,150.6,96.4z"/>
			</g>
			<g>
				<path class="st0" d="M144.9,93.7c-0.1,0-0.3-0.1-0.3-0.3c0-0.1,0.1-0.3,0.3-0.3c0.1,0,0.3,0.1,0.3,0.3
					C145.1,93.5,145,93.7,144.9,93.7z M144.9,93.3C144.8,93.3,144.8,93.4,144.9,93.3c-0.1,0.1,0,0.2,0,0.2
					C144.9,93.5,145,93.4,144.9,93.3C145,93.4,144.9,93.3,144.9,93.3z"/>
			</g>
			<g>
				<path class="st0" d="M145.5,95.7c-0.1,0-0.3-0.1-0.3-0.3c0-0.1,0.1-0.3,0.3-0.3s0.3,0.1,0.3,0.3
					C145.8,95.6,145.6,95.7,145.5,95.7z M145.5,95.3C145.4,95.3,145.4,95.4,145.5,95.3c-0.1,0.1,0,0.2,0,0.2
					C145.5,95.5,145.6,95.5,145.5,95.3C145.6,95.4,145.5,95.3,145.5,95.3z"/>
			</g>
			<g>
				<path class="st0" d="M144.6,94.9c-0.1,0-0.3-0.1-0.3-0.3c0-0.1,0.1-0.3,0.3-0.3c0.1,0,0.3,0.1,0.3,0.3
					C144.9,94.7,144.8,94.9,144.6,94.9z M144.6,94.5C144.6,94.5,144.5,94.6,144.6,94.5c-0.1,0.1,0,0.2,0,0.2
					C144.7,94.7,144.7,94.6,144.6,94.5C144.7,94.6,144.7,94.5,144.6,94.5z"/>
			</g>
			<g>
				<path class="st0" d="M148.2,92.8c-0.1,0-0.3-0.1-0.3-0.3c0-0.1,0.1-0.3,0.3-0.3c0.1,0,0.3,0.1,0.3,0.3
					C148.4,92.7,148.3,92.8,148.2,92.8z M148.2,92.4C148.1,92.4,148.1,92.5,148.2,92.4c-0.1,0.1,0,0.2,0,0.2
					C148.2,92.6,148.2,92.6,148.2,92.4C148.2,92.5,148.2,92.4,148.2,92.4z"/>
			</g>
			<g>
				<path class="st0" d="M146.5,91.1c-0.1,0-0.3-0.1-0.3-0.3c0-0.1,0.1-0.3,0.3-0.3s0.3,0.1,0.3,0.3C146.8,91,146.7,91.1,146.5,91.1
					z M146.5,90.7C146.5,90.7,146.4,90.8,146.5,90.7c-0.1,0.1,0,0.2,0,0.2C146.6,90.9,146.6,90.9,146.5,90.7
					C146.6,90.8,146.6,90.7,146.5,90.7z"/>
			</g>
			<g>
				<path class="st0" d="M148.7,97.2c-0.1,0-0.3-0.1-0.3-0.3s0.1-0.3,0.3-0.3c0.1,0,0.3,0.1,0.3,0.3S148.9,97.2,148.7,97.2z
					 M148.7,96.8C148.7,96.8,148.7,96.9,148.7,96.8c-0.1,0.1,0,0.2,0,0.2C148.8,97,148.8,97,148.7,96.8
					C148.8,96.9,148.8,96.8,148.7,96.8z"/>
			</g>
			<g>
				<path class="st0" d="M146.8,96.9c-0.1,0-0.3-0.1-0.3-0.3c0-0.1,0.1-0.3,0.3-0.3c0.1,0,0.3,0.1,0.3,0.3
					C147.1,96.8,147,96.9,146.8,96.9z M146.8,96.6C146.8,96.6,146.8,96.6,146.8,96.6c-0.1,0.1,0,0.2,0,0.2
					C146.9,96.8,146.9,96.7,146.8,96.6C146.9,96.6,146.9,96.6,146.8,96.6z"/>
			</g>
			<g>
				<path class="st0" d="M148.5,89.5c-0.1,0-0.3-0.1-0.3-0.3c0-0.1,0.1-0.3,0.3-0.3c0.1,0,0.3,0.1,0.3,0.3
					C148.7,89.4,148.6,89.5,148.5,89.5z M148.5,89.1C148.4,89.1,148.4,89.2,148.5,89.1c-0.1,0.1,0,0.2,0,0.2
					C148.5,89.3,148.5,89.3,148.5,89.1C148.5,89.2,148.5,89.1,148.5,89.1z"/>
			</g>
			<g>
				<path class="st0" d="M152,92.8c-0.1,0-0.3-0.1-0.3-0.3c0-0.1,0.1-0.3,0.3-0.3s0.3,0.1,0.3,0.3C152.3,92.7,152.2,92.8,152,92.8z
					 M152,92.5C152,92.5,151.9,92.5,152,92.5c-0.1,0.1,0,0.2,0,0.2S152.1,92.6,152,92.5C152.1,92.5,152.1,92.5,152,92.5z"/>
			</g>
			<g>
				<path class="st0" d="M151.6,95.2c-0.1,0-0.3-0.1-0.3-0.3s0.1-0.3,0.3-0.3c0.1,0,0.3,0.1,0.3,0.3S151.7,95.2,151.6,95.2z
					 M151.6,94.8C151.5,94.8,151.5,94.9,151.6,94.8c-0.1,0.1,0,0.2,0,0.2C151.6,95,151.6,95,151.6,94.8
					C151.6,94.9,151.6,94.8,151.6,94.8z"/>
			</g>
			<g>
				<path class="st0" d="M148.5,95.1c-0.1,0-0.3-0.1-0.3-0.3c0-0.1,0.1-0.3,0.3-0.3c0.1,0,0.3,0.1,0.3,0.3
					C148.7,95,148.6,95.1,148.5,95.1z M148.5,94.8C148.4,94.8,148.4,94.8,148.5,94.8c-0.1,0.1,0,0.2,0,0.2
					C148.5,95,148.5,94.9,148.5,94.8C148.5,94.8,148.5,94.8,148.5,94.8z"/>
			</g>
		</g>
		<g>
			<polygon class="st2" points="152.5,97.7 143.4,97.7 144.3,105.1 151.5,105.1 			"/>
			<path class="st0" d="M151.5,105.3h-7.2c-0.1,0-0.2-0.1-0.2-0.2l-0.9-7.4c0-0.1,0-0.1,0-0.1c0,0,0.1-0.1,0.1-0.1h9
				c0.1,0,0.1,0,0.1,0.1c0,0,0.1,0.1,0,0.1l-0.9,7.4C151.7,105.2,151.6,105.3,151.5,105.3z M144.5,104.9h6.9l0.9-7h-8.6L144.5,104.9
				z"/>
		</g>
	</g>
	<g>
		<g>
			
				<rect x="21.4" y="83.9" transform="matrix(0.9946 -0.1038 0.1038 0.9946 -12.0431 2.8946)" class="st0" width="0.7" height="66.4"/>
		</g>
		<g>
			<g>
				<g>
					
						<rect x="22.2" y="133.6" transform="matrix(0.7262 -0.6875 0.6875 0.7262 -87.255 52.7276)" class="st0" width="0.7" height="4.5"/>
				</g>
				<g>
					<path class="st1" d="M21.9,135.2c0,0,0.1-1.5-1.2-2.7c-0.8-0.7-5-2.5-5.4-1C14.8,133.2,19.2,136.4,21.9,135.2z"/>
					<path class="st0" d="M20.7,135.7c-1.5,0-3.2-0.8-4.3-1.8c-0.9-0.8-1.4-1.7-1.2-2.3c0.1-0.3,0.3-0.5,0.7-0.6
						c1.4-0.4,4.4,1,5.1,1.6c1.4,1.2,1.3,2.7,1.3,2.8l0,0.1l-0.1,0C21.6,135.6,21.1,135.7,20.7,135.7z M16.3,131.2
						c-0.2,0-0.3,0-0.5,0.1c-0.2,0.1-0.4,0.2-0.4,0.4c-0.1,0.5,0.3,1.2,1.1,2c1.4,1.2,3.6,2.1,5.2,1.5c0-0.4-0.1-1.5-1.2-2.4
						C20,132.2,17.7,131.2,16.3,131.2z"/>
				</g>
				<g>
					
						<rect x="19.8" y="131.6" transform="matrix(0.5289 -0.8487 0.8487 0.5289 -104.3172 80.0453)" class="st0" width="0.2" height="4.7"/>
				</g>
			</g>
			<g>
				<g>
					
						<rect x="23" y="141.1" transform="matrix(0.7262 -0.6875 0.6875 0.7262 -92.2061 55.3242)" class="st0" width="0.7" height="4.5"/>
				</g>
				<g>
					<path class="st1" d="M22.7,142.7c0,0,0.1-1.5-1.2-2.7c-0.8-0.7-5-2.5-5.4-1C15.6,140.7,20,143.9,22.7,142.7z"/>
					<path class="st0" d="M21.4,143.2c-1.5,0-3.2-0.8-4.3-1.8c-0.9-0.8-1.4-1.7-1.2-2.3c0.1-0.3,0.3-0.5,0.7-0.6
						c1.4-0.4,4.4,1,5.1,1.6c1.4,1.2,1.3,2.7,1.3,2.8l0,0.1l-0.1,0C22.4,143.1,21.9,143.2,21.4,143.2z M17.1,138.7
						c-0.2,0-0.3,0-0.5,0.1c-0.2,0.1-0.4,0.2-0.4,0.4c-0.1,0.5,0.3,1.2,1.1,2c1.4,1.2,3.6,2.1,5.2,1.5c0-0.4-0.1-1.5-1.2-2.4
						C20.8,139.7,18.5,138.7,17.1,138.7z"/>
				</g>
				<g>
					
						<rect x="20.6" y="139.1" transform="matrix(0.5289 -0.8487 0.8487 0.5289 -110.3245 84.2506)" class="st0" width="0.2" height="4.7"/>
				</g>
			</g>
			<g>
				<g>
					
						<rect x="20.3" y="115.3" transform="matrix(0.7262 -0.6875 0.6875 0.7262 -75.1693 46.3858)" class="st0" width="0.7" height="4.5"/>
				</g>
				<g>
					<path class="st1" d="M20,116.9c0,0,0.1-1.5-1.2-2.7c-0.8-0.7-5-2.5-5.4-1C12.9,114.9,17.3,118,20,116.9z"/>
					<path class="st0" d="M18.7,117.3c-1.5,0-3.2-0.8-4.3-1.8c-0.9-0.8-1.4-1.7-1.2-2.3c0.1-0.3,0.3-0.5,0.7-0.6
						c1.4-0.4,4.4,1,5.1,1.6c1.4,1.2,1.3,2.7,1.3,2.8l0,0.1l-0.1,0C19.7,117.2,19.2,117.3,18.7,117.3z M14.4,112.9
						c-0.2,0-0.3,0-0.5,0.1c-0.2,0.1-0.4,0.2-0.4,0.4c-0.1,0.5,0.3,1.2,1.1,2c1.4,1.2,3.6,2.1,5.2,1.5c0-0.4-0.1-1.5-1.2-2.4
						C18.1,113.9,15.8,112.9,14.4,112.9z"/>
				</g>
				<g>
					
						<rect x="17.9" y="113.3" transform="matrix(0.5289 -0.8487 0.8487 0.5289 -89.6581 69.7835)" class="st0" width="0.2" height="4.7"/>
				</g>
			</g>
			<g>
				<g>
					
						<rect x="21.1" y="122.8" transform="matrix(0.7262 -0.6875 0.6875 0.7262 -80.1201 48.9822)" class="st0" width="0.7" height="4.5"/>
				</g>
				<g>
					<path class="st1" d="M20.8,124.4c0,0,0.1-1.5-1.2-2.7c-0.8-0.7-5-2.5-5.4-1C13.7,122.4,18,125.6,20.8,124.4z"/>
					<path class="st0" d="M19.5,124.8c-1.5,0-3.2-0.8-4.3-1.8c-0.9-0.8-1.4-1.7-1.2-2.3c0.1-0.3,0.3-0.5,0.7-0.6
						c1.3-0.4,4.3,0.9,5.1,1.6c1.4,1.2,1.3,2.7,1.3,2.8l0,0.1l-0.1,0C20.5,124.8,20,124.8,19.5,124.8z M15.2,120.4
						c-0.2,0-0.3,0-0.5,0.1c-0.2,0.1-0.4,0.2-0.4,0.4c-0.1,0.5,0.3,1.2,1.1,2c1.4,1.2,3.6,2.1,5.2,1.5c0-0.4-0.1-1.5-1.2-2.4
						C18.9,121.4,16.6,120.4,15.2,120.4z"/>
				</g>
				<g>
					
						<rect x="18.7" y="120.8" transform="matrix(0.5289 -0.8487 0.8487 0.5289 -95.6654 73.9888)" class="st0" width="0.2" height="4.7"/>
				</g>
			</g>
			<g>
				<g>
					
						<rect x="19" y="103.1" transform="matrix(0.7262 -0.6875 0.6875 0.7262 -67.1289 42.1707)" class="st0" width="0.7" height="4.5"/>
				</g>
				<g>
					<path class="st1" d="M18.8,104.7c0,0,0.1-1.5-1.2-2.7c-0.8-0.7-5-2.5-5.4-1C11.7,102.7,16,105.8,18.8,104.7z"/>
					<path class="st0" d="M17.5,105.1c-1.5,0-3.2-0.8-4.3-1.8c-0.9-0.8-1.4-1.7-1.2-2.3c0.1-0.3,0.3-0.5,0.7-0.6
						c1.4-0.4,4.4,1,5.1,1.6c1.4,1.2,1.3,2.7,1.3,2.8l0,0.1l-0.1,0C18.4,105,18,105.1,17.5,105.1z M13.2,100.6c-0.2,0-0.3,0-0.5,0.1
						c-0.2,0.1-0.4,0.2-0.4,0.4c-0.1,0.5,0.3,1.2,1.1,2c1.4,1.2,3.6,2.1,5.2,1.5c0-0.4-0.1-1.5-1.2-2.4
						C16.8,101.7,14.5,100.6,13.2,100.6z"/>
				</g>
				<g>
					
						<rect x="16.7" y="101.1" transform="matrix(0.5289 -0.8487 0.8487 0.5289 -79.8996 62.9522)" class="st0" width="0.2" height="4.7"/>
				</g>
			</g>
			<g>
				<g>
					
						<rect x="17.7" y="90.8" transform="matrix(0.7261 -0.6876 0.6876 0.7261 -59.0542 37.9387)" class="st0" width="0.7" height="4.5"/>
				</g>
				<g>
					<path class="st1" d="M17.5,92.4c0,0,0.1-1.5-1.2-2.7c-0.8-0.7-5-2.5-5.4-1C10.4,90.4,14.7,93.6,17.5,92.4z"/>
					<path class="st0" d="M16.2,92.9c-1.5,0-3.2-0.8-4.3-1.8c-0.9-0.8-1.4-1.7-1.2-2.3c0.1-0.3,0.3-0.5,0.7-0.6
						c1.4-0.4,4.4,1,5.1,1.6c1.4,1.2,1.3,2.7,1.3,2.8l0,0.1l-0.1,0C17.1,92.8,16.7,92.9,16.2,92.9z M11.9,88.4c-0.2,0-0.3,0-0.5,0.1
						c-0.2,0.1-0.4,0.2-0.4,0.4c-0.1,0.5,0.3,1.2,1.1,2c1.4,1.2,3.6,2.1,5.2,1.5c0-0.4-0.1-1.5-1.2-2.4
						C15.6,89.4,13.2,88.4,11.9,88.4z"/>
				</g>
				<g>
					
						<rect x="15.4" y="88.8" transform="matrix(0.5289 -0.8487 0.8487 0.5289 -70.0978 56.0895)" class="st0" width="0.2" height="4.7"/>
				</g>
			</g>
			<g>
				<g>
					
						<rect x="22.5" y="130.8" transform="matrix(0.5225 -0.8526 0.8526 0.5225 -99.9987 83.7647)" class="st0" width="4.5" height="0.7"/>
				</g>
				<g>
					<path class="st1" d="M25.3,130.4c0,0-0.4-1.4,0.7-2.9c0.6-0.9,4.4-3.5,5.1-2.1C31.8,126.9,28.2,130.9,25.3,130.4z"/>
					<path class="st0" d="M25.8,130.6c-0.2,0-0.4,0-0.6-0.1l-0.1,0l0-0.1c0-0.1-0.4-1.5,0.7-3c0.5-0.7,3.2-2.7,4.6-2.6
						c0.4,0,0.6,0.2,0.8,0.5c0.3,0.6,0,1.5-0.7,2.5C29.4,129.3,27.5,130.6,25.8,130.6z M25.4,130.2c1.7,0.2,3.7-1.1,4.8-2.6
						c0.6-0.9,0.9-1.7,0.7-2.1c-0.1-0.2-0.2-0.3-0.5-0.3c-1.2-0.1-3.8,1.7-4.3,2.4C25.3,128.8,25.4,129.9,25.4,130.2z"/>
				</g>
				<g>
					
						<rect x="24.6" y="128.6" transform="matrix(0.7226 -0.6913 0.6913 0.7226 -81.4367 54.4044)" class="st0" width="5" height="0.2"/>
				</g>
			</g>
			<g>
				<g>
					
						<rect x="20.5" y="111" transform="matrix(0.5225 -0.8526 0.8526 0.5225 -84.1254 72.5643)" class="st0" width="4.5" height="0.7"/>
				</g>
				<g>
					<path class="st1" d="M23.2,110.6c0,0-0.4-1.4,0.7-2.9c0.6-0.9,4.4-3.5,5.1-2.1C29.7,107.2,26.1,111.2,23.2,110.6z"/>
					<path class="st0" d="M23.7,110.9c-0.2,0-0.4,0-0.6-0.1l-0.1,0l0-0.1c0-0.1-0.4-1.5,0.7-3c0.5-0.7,3.2-2.7,4.6-2.6
						c0.4,0,0.6,0.2,0.8,0.5c0.3,0.6,0,1.5-0.7,2.5C27.4,109.5,25.5,110.9,23.7,110.9z M23.3,110.5c1.7,0.2,3.7-1.1,4.8-2.6
						c0.6-0.9,0.9-1.7,0.7-2.1c-0.1-0.2-0.2-0.3-0.5-0.3c-1.2-0.1-3.8,1.7-4.3,2.4C23.2,109,23.3,110.1,23.3,110.5z"/>
				</g>
				<g>
					
						<rect x="22.5" y="108.8" transform="matrix(0.7226 -0.6913 0.6913 0.7226 -68.3404 47.4922)" class="st0" width="5" height="0.2"/>
				</g>
			</g>
			<g>
				<g>
					
						<rect x="19.5" y="102.3" transform="matrix(0.5225 -0.8526 0.8526 0.5225 -77.1499 67.6423)" class="st0" width="4.5" height="0.7"/>
				</g>
				<g>
					<path class="st1" d="M22.3,101.9c0,0-0.4-1.4,0.7-2.9c0.6-0.9,4.4-3.5,5.1-2.1C28.8,98.5,25.2,102.5,22.3,101.9z"/>
					<path class="st0" d="M22.8,102.2c-0.2,0-0.4,0-0.6-0.1l-0.1,0l0-0.1c0-0.1-0.4-1.5,0.7-3c0.6-0.8,3.3-2.7,4.6-2.6
						c0.4,0,0.6,0.2,0.8,0.5c0.3,0.6,0,1.5-0.7,2.5C26.4,100.9,24.6,102.2,22.8,102.2z M22.4,101.8c1.7,0.2,3.7-1.1,4.8-2.6
						c0.6-0.9,0.9-1.7,0.7-2.1c-0.1-0.2-0.2-0.3-0.5-0.3c-1.2-0.1-3.8,1.7-4.3,2.4C22.3,100.3,22.4,101.4,22.4,101.8z"/>
				</g>
				<g>
					
						<rect x="21.6" y="100.1" transform="matrix(0.7226 -0.6913 0.6913 0.7226 -62.5851 44.4546)" class="st0" width="5" height="0.2"/>
				</g>
			</g>
			<g>
				<g>
					
						<rect x="18.2" y="89.6" transform="matrix(0.5225 -0.8526 0.8526 0.5225 -66.9234 60.4264)" class="st0" width="4.5" height="0.7"/>
				</g>
				<g>
					<path class="st1" d="M21,89.2c0,0-0.4-1.4,0.7-2.9c0.6-0.9,4.4-3.5,5.1-2.1C27.5,85.7,23.9,89.7,21,89.2z"/>
					<path class="st0" d="M21.5,89.4c-0.2,0-0.4,0-0.6-0.1l-0.1,0l0-0.1c0-0.1-0.4-1.5,0.7-3c0.5-0.7,3.2-2.7,4.6-2.6
						c0.4,0,0.6,0.2,0.8,0.5c0.3,0.6,0,1.5-0.7,2.5C25.1,88.1,23.2,89.4,21.5,89.4z M21.1,89c1.7,0.2,3.7-1.1,4.8-2.6
						c0.6-0.9,0.9-1.7,0.7-2.1c-0.1-0.2-0.2-0.3-0.5-0.3c-1.2-0.1-3.8,1.7-4.3,2.4C21,87.6,21.1,88.7,21.1,89z"/>
				</g>
				<g>
					
						<rect x="20.3" y="87.4" transform="matrix(0.7226 -0.6913 0.6913 0.7226 -54.1476 40.0014)" class="st0" width="5" height="0.2"/>
				</g>
				<g>
					<path class="st1" d="M18.3,83.8c0,0-0.4-1.4,0.7-2.9c0.6-0.9,4.4-3.5,5.1-2.1C24.8,80.3,21.2,84.3,18.3,83.8z"/>
					<path class="st0" d="M18.8,84c-0.2,0-0.4,0-0.6-0.1l-0.1,0l0-0.1c0-0.1-0.4-1.5,0.7-3c0.5-0.7,3.2-2.7,4.6-2.6
						c0.4,0,0.6,0.2,0.8,0.5c0.3,0.6,0,1.5-0.7,2.5C22.4,82.7,20.6,84,18.8,84z M18.4,83.6c1.7,0.2,3.7-1.1,4.8-2.6
						c0.6-0.9,0.9-1.7,0.7-2.1c-0.1-0.2-0.2-0.3-0.5-0.3c-1.2-0.1-3.8,1.7-4.3,2.4C18.3,82.1,18.4,83.2,18.4,83.6z"/>
				</g>
				<g>
					
						<rect x="17.6" y="81.9" transform="matrix(0.7226 -0.6913 0.6913 0.7226 -51.1321 36.6494)" class="st0" width="5" height="0.2"/>
				</g>
				<g>
					<path class="st1" d="M18.5,83.9c0,0-1.4,0.2-2.8-1c-0.8-0.7-3-4.7-1.6-5.3C15.7,77,19.3,81,18.5,83.9z"/>
					<path class="st0" d="M18.2,84.1c-0.5,0-1.6-0.1-2.6-1c-0.6-0.6-2.3-3.5-2.1-4.9c0.1-0.4,0.3-0.6,0.6-0.7c0.6-0.2,1.5,0.1,2.4,1
						c1.5,1.3,2.7,3.7,2.1,5.5l0,0.1l-0.1,0C18.5,84.1,18.4,84.1,18.2,84.1z M14.5,77.8c-0.1,0-0.2,0-0.3,0
						c-0.2,0.1-0.3,0.2-0.3,0.5c-0.2,1.2,1.3,4,2,4.5c1,0.9,2.1,1,2.5,0.9c0.4-1.7-0.7-3.8-2.1-5C15.6,78.1,15,77.8,14.5,77.8z"/>
				</g>
				<g>
					<polygon class="st0" points="18.4,84 15.4,80 15.5,79.9 18.6,83.9 					"/>
				</g>
			</g>
		</g>
	</g>
	<g>
		<g>
			
				<rect x="-0.1" y="125.9" transform="matrix(0.1035 -0.9946 0.9946 0.1035 -95.9073 146.1111)" class="st0" width="66.4" height="0.7"/>
		</g>
		<g>
			<g>
				<g>
					
						<rect x="29.6" y="142.5" transform="matrix(0.8522 -0.5232 0.5232 0.8522 -71.3088 37.0941)" class="st0" width="0.7" height="4.5"/>
				</g>
				<g>
					<path class="st1" d="M29.5,144c0,0,0.4-1.4-0.7-2.9c-0.6-0.9-4.4-3.5-5.1-2.1C23,140.5,26.6,144.5,29.5,144z"/>
					<path class="st0" d="M29,144.2c-1.7,0-3.6-1.3-4.7-2.7c-0.8-1-1-1.9-0.7-2.5c0.1-0.3,0.4-0.5,0.8-0.5c1.4-0.1,4.1,1.9,4.6,2.6
						c1.1,1.5,0.7,2.9,0.7,3l0,0.1l-0.1,0C29.4,144.2,29.2,144.2,29,144.2z M24.5,138.8C24.5,138.8,24.4,138.8,24.5,138.8
						c-0.3,0-0.5,0.1-0.6,0.3c-0.2,0.5,0,1.3,0.7,2.1c1.1,1.5,3.1,2.8,4.8,2.6c0.1-0.4,0.2-1.5-0.7-2.6
						C28.2,140.6,25.7,138.8,24.5,138.8z"/>
				</g>
				<g>
					<polygon class="st0" points="29.5,144 26.1,140.8 26.2,140.6 29.6,143.9 					"/>
				</g>
			</g>
			<g>
				<g>
					
						<rect x="31.5" y="124.1" transform="matrix(0.8522 -0.5232 0.5232 0.8522 -61.4335 35.3793)" class="st0" width="0.7" height="4.5"/>
				</g>
				<g>
					<path class="st1" d="M31.4,125.6c0,0,0.4-1.4-0.7-2.9c-0.6-0.9-4.4-3.5-5.1-2.1C24.9,122.2,28.5,126.2,31.4,125.6z"/>
					<path class="st0" d="M30.9,125.9c-1.7,0-3.6-1.3-4.7-2.7c-0.8-1-1-1.9-0.7-2.5c0.1-0.3,0.4-0.5,0.8-0.5
						c1.4-0.1,4.1,1.9,4.6,2.6c1.1,1.5,0.7,2.9,0.7,3l0,0.1l-0.1,0C31.3,125.9,31.1,125.9,30.9,125.9z M26.4,120.5
						C26.4,120.5,26.3,120.5,26.4,120.5c-0.3,0-0.5,0.1-0.6,0.3c-0.2,0.5,0,1.3,0.7,2.1c1.1,1.5,3.1,2.8,4.8,2.6
						c0.1-0.4,0.2-1.5-0.7-2.6C30.1,122.2,27.6,120.5,26.4,120.5z"/>
				</g>
				<g>
					<polygon class="st0" points="31.4,125.7 28,122.4 28.1,122.3 31.5,125.6 					"/>
				</g>
			</g>
			<g>
				<g>
					
						<rect x="30.7" y="131.7" transform="matrix(0.8522 -0.5232 0.5232 0.8522 -65.4804 36.082)" class="st0" width="0.7" height="4.5"/>
				</g>
				<g>
					<path class="st1" d="M30.7,133.2c0,0,0.4-1.4-0.7-2.9c-0.6-0.9-4.4-3.5-5.1-2.1C24.1,129.7,27.7,133.7,30.7,133.2z"/>
					<path class="st0" d="M30.1,133.4c-1.7,0-3.6-1.3-4.7-2.7c-0.8-1-1-1.9-0.7-2.5c0.1-0.3,0.4-0.5,0.8-0.5
						c1.4-0.1,4.1,1.8,4.6,2.6c1.1,1.5,0.7,2.9,0.7,3l0,0.1l-0.1,0C30.5,133.4,30.3,133.4,30.1,133.4z M25.6,128
						C25.6,128,25.6,128,25.6,128c-0.3,0-0.5,0.1-0.6,0.3c-0.2,0.5,0,1.3,0.7,2.1c1.1,1.5,3.1,2.8,4.8,2.6c0.1-0.4,0.2-1.5-0.7-2.6
						C29.3,129.7,26.9,128,25.6,128z"/>
				</g>
				<g>
					<polygon class="st0" points="30.6,133.2 27.2,129.9 27.3,129.8 30.7,133.1 					"/>
				</g>
			</g>
			<g>
				<g>
					
						<rect x="32.8" y="111.9" transform="matrix(0.8522 -0.5233 0.5233 0.8522 -54.8627 34.2414)" class="st0" width="0.7" height="4.5"/>
				</g>
				<g>
					<path class="st1" d="M32.7,113.4c0,0,0.4-1.4-0.7-2.9c-0.6-0.9-4.4-3.5-5.1-2.1C26.2,110,29.7,114,32.7,113.4z"/>
					<path class="st0" d="M32.2,113.7c-1.7,0-3.6-1.3-4.7-2.7c-0.8-1-1-1.9-0.7-2.5c0.1-0.3,0.4-0.5,0.8-0.5
						c1.4-0.1,4.1,1.9,4.6,2.6c1.1,1.5,0.7,2.9,0.7,3l0,0.1l-0.1,0C32.5,113.7,32.4,113.7,32.2,113.7z M27.7,108.3
						C27.6,108.3,27.6,108.3,27.7,108.3c-0.3,0-0.5,0.1-0.6,0.3c-0.2,0.5,0,1.3,0.7,2.1c1.1,1.5,3.1,2.8,4.8,2.6
						c0.1-0.4,0.2-1.5-0.7-2.6C31.4,110,28.9,108.3,27.7,108.3z"/>
				</g>
				<g>
					<polygon class="st0" points="32.6,113.5 29.2,110.2 29.4,110.1 32.8,113.4 					"/>
				</g>
			</g>
			<g>
				<g>
					
						<rect x="34.1" y="99.7" transform="matrix(0.8522 -0.5233 0.5233 0.8522 -48.2589 33.094)" class="st0" width="0.7" height="4.5"/>
				</g>
				<g>
					<path class="st1" d="M34,101.2c0,0,0.4-1.4-0.7-2.9c-0.6-0.9-4.4-3.5-5.1-2.1C27.4,97.7,31,101.7,34,101.2z"/>
					<path class="st0" d="M33.4,101.4c-1.7,0-3.6-1.3-4.7-2.7c-0.8-1-1-1.9-0.7-2.5c0.1-0.3,0.4-0.5,0.8-0.5
						c1.4-0.1,4.1,1.8,4.6,2.6c1.1,1.5,0.7,2.9,0.7,3l0,0.1l-0.1,0C33.8,101.4,33.6,101.4,33.4,101.4z M28.9,96
						C28.9,96,28.9,96,28.9,96c-0.3,0-0.5,0.1-0.6,0.3c-0.2,0.5,0,1.3,0.7,2.1c1.1,1.5,3.1,2.8,4.8,2.6c0.1-0.4,0.2-1.5-0.7-2.6
						C32.7,97.8,30.2,96,28.9,96z"/>
				</g>
				<g>
					<polygon class="st0" points="33.9,101.2 30.5,98 30.6,97.8 34,101.1 					"/>
				</g>
			</g>
			<g>
				<g>
					
						<rect x="30.9" y="140.2" transform="matrix(0.6873 -0.7264 0.7264 0.6873 -91.7482 68.038)" class="st0" width="4.5" height="0.7"/>
				</g>
				<g>
					<path class="st1" d="M33.8,139.9c0,0-0.1-1.5,1.2-2.7c0.8-0.7,5-2.5,5.4-1C40.9,137.9,36.5,141.1,33.8,139.9z"/>
					<path class="st0" d="M35,140.3c-0.5,0-0.9-0.1-1.4-0.2l-0.1,0l0-0.1c0-0.1-0.1-1.6,1.3-2.8c0.7-0.6,3.8-1.9,5.1-1.6
						c0.4,0.1,0.6,0.3,0.7,0.6c0.2,0.6-0.3,1.5-1.2,2.3C38.3,139.5,36.6,140.3,35,140.3z M34,139.8c1.6,0.6,3.8-0.3,5.2-1.5
						c0.8-0.7,1.2-1.5,1.1-2c-0.1-0.2-0.2-0.3-0.4-0.4c-1.2-0.3-4.1,0.9-4.7,1.5C34.1,138.3,34,139.4,34,139.8z"/>
				</g>
				<g>
					
						<rect x="33.4" y="138.5" transform="matrix(0.8502 -0.5265 0.5265 0.8502 -67.5946 39.6609)" class="st0" width="5" height="0.2"/>
				</g>
			</g>
			<g>
				<g>
					
						<rect x="32.9" y="120.4" transform="matrix(0.6873 -0.7264 0.7264 0.6873 -76.7438 63.3454)" class="st0" width="4.5" height="0.7"/>
				</g>
				<g>
					<path class="st1" d="M35.8,120.1c0,0-0.1-1.5,1.2-2.7c0.8-0.7,5-2.5,5.4-1C42.9,118.1,38.6,121.3,35.8,120.1z"/>
					<path class="st0" d="M37.1,120.6c-0.5,0-0.9-0.1-1.4-0.2l-0.1,0l0-0.1c0-0.1-0.1-1.6,1.3-2.8c0.6-0.6,3.7-2,5.1-1.6
						c0.4,0.1,0.6,0.3,0.7,0.6c0.2,0.6-0.3,1.5-1.2,2.3C40.3,119.8,38.6,120.6,37.1,120.6z M36,120c1.6,0.6,3.8-0.3,5.2-1.5
						c0.8-0.7,1.2-1.5,1.1-2c-0.1-0.2-0.2-0.3-0.4-0.4c-1.2-0.3-4.1,0.9-4.7,1.5C36.1,118.6,36,119.7,36,120z"/>
				</g>
				<g>
					
						<rect x="35.4" y="118.7" transform="matrix(0.8502 -0.5265 0.5265 0.8502 -56.8767 37.7787)" class="st0" width="5" height="0.2"/>
				</g>
			</g>
			<g>
				<g>
					
						<rect x="33.8" y="111.7" transform="matrix(0.6873 -0.7264 0.7264 0.6873 -70.15 61.2832)" class="st0" width="4.5" height="0.7"/>
				</g>
				<g>
					<path class="st1" d="M36.7,111.5c0,0-0.1-1.5,1.2-2.7c0.8-0.7,5-2.5,5.4-1C43.8,109.4,39.5,112.6,36.7,111.5z"/>
					<path class="st0" d="M38,111.9c-0.5,0-0.9-0.1-1.4-0.2l-0.1,0l0-0.1c0-0.1-0.1-1.6,1.3-2.8c0.6-0.6,3.7-2,5.1-1.6
						c0.4,0.1,0.6,0.3,0.7,0.6c0.2,0.6-0.3,1.5-1.2,2.3C41.2,111.1,39.5,111.9,38,111.9z M36.9,111.3c1.6,0.6,3.8-0.3,5.2-1.5
						c0.8-0.7,1.2-1.5,1.1-2c-0.1-0.2-0.2-0.3-0.4-0.4c-1.2-0.3-4.1,0.9-4.7,1.5C37,109.9,36.9,111,36.9,111.3z"/>
				</g>
				<g>
					
						<rect x="36.3" y="110" transform="matrix(0.8502 -0.5265 0.5265 0.8502 -52.1666 36.9516)" class="st0" width="5" height="0.2"/>
				</g>
			</g>
			<g>
				<g>
					
						<rect x="35.2" y="99" transform="matrix(0.6873 -0.7264 0.7264 0.6873 -60.4834 58.26)" class="st0" width="4.5" height="0.7"/>
				</g>
				<g>
					<path class="st1" d="M38,98.7c0,0-0.1-1.5,1.2-2.7c0.8-0.7,5-2.5,5.4-1C45.1,96.7,40.8,99.9,38,98.7z"/>
					<path class="st0" d="M39.3,99.1c-0.5,0-0.9-0.1-1.4-0.2l-0.1,0l0-0.1c0-0.1-0.1-1.6,1.3-2.8c0.6-0.6,3.7-2,5.1-1.6
						c0.4,0.1,0.6,0.3,0.7,0.6c0.2,0.6-0.3,1.5-1.2,2.3C42.5,98.3,40.8,99.1,39.3,99.1z M38.2,98.6c1.6,0.6,3.8-0.3,5.2-1.5
						c0.8-0.7,1.2-1.5,1.1-2c-0.1-0.2-0.2-0.3-0.4-0.4c-1.2-0.3-4.1,0.9-4.7,1.5C38.4,97.1,38.2,98.2,38.2,98.6z"/>
				</g>
				<g>
					
						<rect x="37.7" y="97.3" transform="matrix(0.8502 -0.5265 0.5265 0.8502 -45.2615 35.739)" class="st0" width="5" height="0.2"/>
				</g>
				<g>
					<path class="st1" d="M36.5,92.9c0,0-0.1-1.5,1.2-2.7c0.8-0.7,5-2.5,5.4-1C43.7,90.8,39.3,94,36.5,92.9z"/>
					<path class="st0" d="M37.8,93.3c-0.5,0-0.9-0.1-1.4-0.2l-0.1,0l0-0.1c0-0.1-0.1-1.6,1.3-2.8c0.6-0.6,3.7-2,5.1-1.6
						c0.4,0.1,0.6,0.3,0.7,0.6c0.2,0.6-0.3,1.5-1.2,2.3C41,92.5,39.4,93.3,37.8,93.3z M36.7,92.7c1.6,0.6,3.8-0.3,5.2-1.5
						c0.8-0.7,1.2-1.5,1.1-2c-0.1-0.2-0.2-0.3-0.4-0.4c-1.2-0.3-4.1,0.9-4.7,1.5C36.9,91.3,36.7,92.4,36.7,92.7z"/>
				</g>
				<g>
					
						<rect x="36.2" y="91.4" transform="matrix(0.8502 -0.5265 0.5265 0.8502 -42.3969 34.0744)" class="st0" width="5" height="0.2"/>
				</g>
				<g>
					<path class="st1" d="M36.7,93c0,0-1.5-0.1-2.5-1.5c-0.6-0.9-2-5.3-0.4-5.5C35.4,85.8,38.1,90.4,36.7,93z"/>
					<path class="st0" d="M36.8,93.2l-0.1,0c-0.1,0-1.6-0.1-2.7-1.6c-0.5-0.7-1.6-3.9-1-5.2c0.1-0.3,0.4-0.5,0.7-0.6
						c0.7-0.1,1.5,0.4,2.2,1.5c1.2,1.6,1.8,4.1,0.9,5.8L36.8,93.2z M33.9,86.2c0,0-0.1,0-0.1,0c-0.2,0-0.3,0.2-0.4,0.4
						c-0.5,1.1,0.5,4.1,1,4.8c0.8,1.1,1.9,1.4,2.2,1.4c0.7-1.6,0.1-3.8-1-5.3C35.1,86.7,34.4,86.2,33.9,86.2z"/>
				</g>
				<g>
					<polygon class="st0" points="36.6,93.1 34.5,88.6 34.6,88.5 36.8,93 					"/>
				</g>
			</g>
		</g>
	</g>
	<g>
		<rect x="28.3" y="66.3" class="st0" width="0.7" height="83.6"/>
	</g>
	<g>
		<g>
			<g>
				
					<rect x="27" y="133.2" transform="matrix(0.7936 -0.6084 0.6084 0.7936 -76.7975 44.6088)" class="st0" width="0.7" height="4.5"/>
			</g>
			<g>
				<path class="st1" d="M26.8,134.8c0,0,0.2-1.4-1-2.8c-0.7-0.8-4.7-3-5.3-1.6C20,132,23.9,135.6,26.8,134.8z"/>
				<path class="st0" d="M25.9,135.1c-1.6,0-3.4-1-4.6-2.3c-0.9-0.9-1.2-1.8-1-2.4c0.1-0.3,0.4-0.5,0.7-0.6c1.4-0.3,4.3,1.4,4.9,2.1
					c1.2,1.4,1,2.9,1,2.9l0,0.1l-0.1,0C26.6,135.1,26.2,135.1,25.9,135.1z M21.4,130.2c-0.1,0-0.2,0-0.3,0c-0.2,0-0.4,0.2-0.5,0.3
					c-0.2,0.5,0.2,1.3,0.9,2.1c1.2,1.3,3.3,2.5,5,2.1c0-0.4,0-1.5-0.9-2.5C25.2,131.5,22.7,130.2,21.4,130.2z"/>
			</g>
			<g>
				
					<rect x="24.9" y="131" transform="matrix(0.6141 -0.7892 0.7892 0.6141 -95.5974 71.1331)" class="st0" width="0.2" height="4.7"/>
			</g>
		</g>
		<g>
			<g>
				
					<rect x="27" y="117.5" transform="matrix(0.7936 -0.6085 0.6085 0.7936 -67.2483 41.3729)" class="st0" width="0.7" height="4.5"/>
			</g>
			<g>
				<path class="st1" d="M26.8,119.1c0,0,0.2-1.4-1-2.8c-0.7-0.8-4.7-3-5.3-1.6C20,116.3,23.9,119.9,26.8,119.1z"/>
				<path class="st0" d="M25.9,119.4c-1.6,0-3.4-1-4.6-2.3c-0.9-0.9-1.2-1.8-1-2.4c0.1-0.3,0.4-0.5,0.7-0.6c1.4-0.3,4.3,1.4,4.9,2.1
					c1.2,1.4,1,2.9,1,2.9l0,0.1l-0.1,0C26.6,119.3,26.2,119.4,25.9,119.4z M21.4,114.5c-0.1,0-0.2,0-0.3,0c-0.2,0-0.4,0.2-0.5,0.3
					c-0.2,0.5,0.2,1.3,0.9,2.1c1.2,1.3,3.3,2.5,5,2.1c0-0.4,0-1.5-0.9-2.5C25.2,115.8,22.7,114.5,21.4,114.5z"/>
			</g>
			<g>
				
					<rect x="24.9" y="115.3" transform="matrix(0.6141 -0.7892 0.7892 0.6141 -83.206 65.0745)" class="st0" width="0.2" height="4.7"/>
			</g>
		</g>
		<g>
			<g>
				
					<rect x="27" y="99.1" transform="matrix(0.7936 -0.6084 0.6084 0.7936 -56.0286 37.5637)" class="st0" width="0.7" height="4.5"/>
			</g>
			<g>
				<path class="st1" d="M26.8,100.6c0,0,0.2-1.4-1-2.8c-0.7-0.8-4.7-3-5.3-1.6C20,97.9,23.9,101.5,26.8,100.6z"/>
				<path class="st0" d="M25.9,101c-1.6,0-3.4-1-4.6-2.3c-0.9-0.9-1.2-1.8-1-2.4c0.1-0.3,0.4-0.5,0.7-0.6c1.4-0.3,4.3,1.4,4.9,2.1
					c1.2,1.4,1,2.9,1,2.9l0,0.1l-0.1,0C26.6,100.9,26.2,101,25.9,101z M21.4,96c-0.1,0-0.2,0-0.3,0c-0.2,0-0.4,0.2-0.5,0.3
					c-0.2,0.5,0.2,1.3,0.9,2.1c1.2,1.3,3.3,2.5,5,2.1c0-0.4,0-1.5-0.9-2.5C25.2,97.4,22.7,96,21.4,96z"/>
			</g>
			<g>
				
					<rect x="24.9" y="96.8" transform="matrix(0.6141 -0.7892 0.7892 0.6141 -68.66 57.9669)" class="st0" width="0.2" height="4.7"/>
			</g>
		</g>
		<g>
			<g>
				
					<rect x="27" y="86.8" transform="matrix(0.7936 -0.6085 0.6085 0.7936 -48.565 35.0348)" class="st0" width="0.7" height="4.5"/>
			</g>
			<g>
				<path class="st1" d="M26.8,88.4c0,0,0.2-1.4-1-2.8c-0.7-0.8-4.7-3-5.3-1.6C20,85.6,23.9,89.2,26.8,88.4z"/>
				<path class="st0" d="M25.9,88.7c-1.6,0-3.4-1-4.6-2.3c-0.9-0.9-1.2-1.8-1-2.4c0.1-0.3,0.4-0.5,0.7-0.6c1.4-0.3,4.3,1.4,4.9,2.1
					c1.2,1.4,1,2.9,1,2.9l0,0.1l-0.1,0C26.6,88.6,26.2,88.7,25.9,88.7z M21.4,83.8c-0.1,0-0.2,0-0.3,0c-0.2,0-0.4,0.2-0.5,0.3
					c-0.2,0.5,0.2,1.3,0.9,2.1c1.2,1.3,3.3,2.5,5,2.1c0-0.4,0-1.5-0.9-2.5C25.2,85.1,22.7,83.8,21.4,83.8z"/>
			</g>
			<g>
				
					<rect x="24.9" y="84.6" transform="matrix(0.6141 -0.7892 0.7892 0.6141 -58.9727 53.2259)" class="st0" width="0.2" height="4.7"/>
			</g>
		</g>
		<g>
			<g>
				
					<rect x="27" y="74.5" transform="matrix(0.7936 -0.6085 0.6085 0.7936 -41.0655 32.4906)" class="st0" width="0.7" height="4.5"/>
			</g>
			<g>
				<path class="st1" d="M26.8,76c0,0,0.2-1.4-1-2.8c-0.7-0.8-4.7-3-5.3-1.6C20,73.3,23.9,76.9,26.8,76z"/>
				<path class="st0" d="M25.9,76.4c-1.6,0-3.4-1-4.6-2.3c-0.9-0.9-1.2-1.8-1-2.4c0.1-0.3,0.4-0.5,0.7-0.6c1.3-0.2,4.2,1.4,4.9,2.1
					c1.2,1.4,1,2.9,1,2.9l0,0.1l-0.1,0C26.6,76.3,26.2,76.4,25.9,76.4z M21.4,71.4c-0.1,0-0.2,0-0.3,0c-0.2,0-0.4,0.2-0.5,0.3
					c-0.2,0.5,0.2,1.3,0.9,2.1c1.2,1.3,3.3,2.5,5,2.1c0-0.4,0-1.5-0.9-2.5C25.2,72.8,22.7,71.4,21.4,71.4z"/>
			</g>
			<g>
				
					<rect x="24.9" y="72.2" transform="matrix(0.6141 -0.7892 0.7892 0.6141 -49.2454 48.4699)" class="st0" width="0.2" height="4.7"/>
			</g>
		</g>
		<g>
			<g>
				
					<rect x="27.8" y="139.9" transform="matrix(0.6085 -0.7936 0.7936 0.6085 -99.567 78.7833)" class="st0" width="4.5" height="0.7"/>
			</g>
			<g>
				<path class="st1" d="M30.6,139.6c0,0-0.2-1.4,1-2.8c0.7-0.8,4.7-3,5.3-1.6C37.5,136.8,33.5,140.4,30.6,139.6z"/>
				<path class="st0" d="M31.5,139.9c-0.3,0-0.6,0-1-0.1l-0.1,0l0-0.1c0-0.1-0.2-1.5,1-2.9c0.6-0.6,3.5-2.3,4.9-2.1
					c0.4,0.1,0.6,0.3,0.7,0.6c0.2,0.6-0.1,1.5-1,2.4C34.9,138.8,33.1,139.9,31.5,139.9z M30.8,139.4c1.7,0.4,3.8-0.7,5-2.1
					c0.7-0.8,1.1-1.6,0.9-2.1c-0.1-0.2-0.2-0.3-0.5-0.3c-1.2-0.2-4,1.3-4.5,2C30.8,138,30.8,139.1,30.8,139.4z"/>
			</g>
			<g>
				
					<rect x="30.1" y="138" transform="matrix(0.7905 -0.6124 0.6124 0.7905 -77.7196 48.8725)" class="st0" width="5" height="0.2"/>
			</g>
		</g>
		<g>
			<g>
				
					<rect x="27.8" y="115" transform="matrix(0.6085 -0.7936 0.7936 0.6085 -79.75 69.0063)" class="st0" width="4.5" height="0.7"/>
			</g>
			<g>
				<path class="st1" d="M30.6,114.6c0,0-0.2-1.4,1-2.8c0.7-0.8,4.7-3,5.3-1.6C37.5,111.8,33.5,115.4,30.6,114.6z"/>
				<path class="st0" d="M31.5,114.9c-0.3,0-0.6,0-1-0.1l-0.1,0l0-0.1c0-0.1-0.2-1.5,1-2.9c0.6-0.6,3.5-2.3,4.9-2.1
					c0.4,0.1,0.6,0.3,0.7,0.6c0.2,0.6-0.1,1.5-1,2.4C34.9,113.9,33.1,114.9,31.5,114.9z M30.8,114.5c1.7,0.4,3.8-0.7,5-2.1
					c0.7-0.8,1.1-1.6,0.9-2.1c-0.1-0.2-0.2-0.3-0.5-0.3c-1.2-0.2-4,1.3-4.5,2C30.8,113,30.8,114.1,30.8,114.5z"/>
			</g>
			<g>
				
					<rect x="30.1" y="113" transform="matrix(0.7905 -0.6124 0.6124 0.7905 -62.4255 43.6412)" class="st0" width="5" height="0.2"/>
			</g>
		</g>
		<g>
			<g>
				
					<rect x="27.8" y="102.6" transform="matrix(0.6085 -0.7936 0.7936 0.6085 -69.9691 64.1807)" class="st0" width="4.5" height="0.7"/>
			</g>
			<g>
				<path class="st1" d="M30.6,102.3c0,0-0.2-1.4,1-2.8c0.7-0.8,4.7-3,5.3-1.6C37.5,99.5,33.5,103.1,30.6,102.3z"/>
				<path class="st0" d="M31.5,102.6c-0.3,0-0.6,0-1-0.1l-0.1,0l0-0.1c0-0.1-0.2-1.5,1-2.9c0.6-0.6,3.5-2.3,4.9-2.1
					c0.4,0.1,0.6,0.3,0.7,0.6c0.2,0.6-0.1,1.5-1,2.4C34.9,101.6,33.1,102.6,31.5,102.6z M30.8,102.1c1.7,0.4,3.8-0.7,5-2.1
					c0.7-0.8,1.1-1.6,0.9-2.1c-0.1-0.2-0.2-0.3-0.5-0.3c-1.2-0.2-4,1.3-4.5,2C30.8,100.7,30.8,101.8,30.8,102.1z"/>
			</g>
			<g>
				
					<rect x="30.1" y="100.7" transform="matrix(0.7905 -0.6124 0.6124 0.7905 -54.8768 41.0591)" class="st0" width="5" height="0.2"/>
			</g>
		</g>
		<g>
			<g>
				
					<rect x="27.8" y="86.3" transform="matrix(0.6085 -0.7936 0.7936 0.6085 -57.0414 57.8027)" class="st0" width="4.5" height="0.7"/>
			</g>
			<g>
				<path class="st1" d="M30.6,86c0,0-0.2-1.4,1-2.8c0.7-0.8,4.7-3,5.3-1.6C37.5,83.2,33.5,86.8,30.6,86z"/>
				<path class="st0" d="M31.5,86.3c-0.3,0-0.6,0-1-0.1l-0.1,0l0-0.1c0-0.1-0.2-1.5,1-2.9c0.6-0.6,3.5-2.3,4.9-2.1
					c0.4,0.1,0.6,0.3,0.7,0.6c0.2,0.6-0.1,1.5-1,2.4C34.9,85.3,33.1,86.3,31.5,86.3z M30.8,85.8c1.7,0.4,3.8-0.7,5-2.1
					c0.7-0.8,1.1-1.6,0.9-2.1c-0.1-0.2-0.2-0.3-0.5-0.3c-1.2-0.2-4,1.3-4.5,2C30.8,84.4,30.8,85.5,30.8,85.8z"/>
			</g>
			<g>
				
					<rect x="30.1" y="84.4" transform="matrix(0.7905 -0.6124 0.6124 0.7905 -44.8995 37.6463)" class="st0" width="5" height="0.2"/>
			</g>
		</g>
		<g>
			<g>
				
					<rect x="27.8" y="73.5" transform="matrix(0.6085 -0.7936 0.7936 0.6085 -46.8776 52.7883)" class="st0" width="4.5" height="0.7"/>
			</g>
			<g>
				<path class="st1" d="M30.6,73.2c0,0-0.2-1.4,1-2.8c0.7-0.8,4.7-3,5.3-1.6C37.5,70.4,33.5,74,30.6,73.2z"/>
				<path class="st0" d="M31.5,73.5c-0.3,0-0.6,0-1-0.1l-0.1,0l0-0.1c0-0.1-0.2-1.5,1-2.9c0.6-0.6,3.5-2.3,4.9-2.1
					c0.4,0.1,0.6,0.3,0.7,0.6c0.2,0.6-0.1,1.5-1,2.4C34.9,72.5,33.1,73.5,31.5,73.5z M30.8,73c1.7,0.4,3.8-0.7,5-2.1
					c0.7-0.8,1.1-1.6,0.9-2.1c-0.1-0.2-0.2-0.3-0.5-0.3c-1.2-0.2-4,1.3-4.5,2C30.8,71.6,30.8,72.7,30.8,73z"/>
			</g>
			<g>
				
					<rect x="30.1" y="71.6" transform="matrix(0.7905 -0.6124 0.6124 0.7905 -37.0556 34.9633)" class="st0" width="5" height="0.2"/>
			</g>
			<g>
				<path class="st1" d="M28.5,67.5c0,0-0.2-1.4,1-2.8c0.7-0.8,4.7-3,5.3-1.6C35.4,64.7,31.4,68.3,28.5,67.5z"/>
				<path class="st0" d="M29.4,67.8c-0.3,0-0.6,0-1-0.1l-0.1,0l0-0.1c0-0.1-0.2-1.5,1-2.9c0.6-0.6,3.5-2.3,4.9-2.1
					c0.4,0.1,0.6,0.3,0.7,0.6c0.2,0.6-0.1,1.5-1,2.4C32.8,66.8,31,67.8,29.4,67.8z M28.7,67.4c1.7,0.4,3.8-0.7,5-2.1
					c0.7-0.8,1.1-1.6,0.9-2.1c-0.1-0.2-0.2-0.3-0.5-0.3c-1.2-0.2-4,1.3-4.5,2C28.7,65.9,28.7,67,28.7,67.4z"/>
			</g>
			<g>
				<rect x="28" y="65.9" transform="matrix(0.7905 -0.6124 0.6124 0.7905 -34.0145 32.4934)" class="st0" width="5" height="0.2"/>
			</g>
			<g>
				<path class="st1" d="M28.7,67.7c0,0-1.5,0.1-2.6-1.2c-0.7-0.8-2.5-5-1-5.4C26.7,60.6,29.8,64.9,28.7,67.7z"/>
				<path class="st0" d="M28.6,67.9c-0.3,0-1.6-0.1-2.7-1.3c-0.6-0.6-2-3.7-1.5-5.1c0.1-0.4,0.3-0.6,0.6-0.7
					c0.6-0.2,1.5,0.3,2.3,1.2c1.3,1.5,2.3,3.9,1.5,5.7l0,0.1L28.6,67.9C28.7,67.9,28.7,67.9,28.6,67.9z M25.3,61.2
					c-0.1,0-0.1,0-0.2,0c-0.2,0.1-0.3,0.2-0.4,0.4c-0.3,1.2,0.9,4.1,1.5,4.7c0.9,1,2,1.2,2.4,1.2c0.6-1.6-0.3-3.8-1.5-5.2
					C26.4,61.6,25.8,61.2,25.3,61.2z"/>
			</g>
			<g>
				<polygon class="st0" points="28.6,67.7 26,63.5 26.2,63.4 28.8,67.6 				"/>
			</g>
		</g>
	</g>
	<g>
		<polygon class="st0" points="32.1,171.5 23.3,171.5 22.2,149.2 33.2,149.2 		"/>
		<path class="st0" d="M32.3,171.7h-9.2L22,149h11.5L32.3,171.7z M23.4,171.4h8.5l1.1-22H22.4L23.4,171.4z"/>
	</g>
	<g>
		<g>
			<polygon class="st3" points="112.1,80.7 139.3,80.7 133,104.1 105.7,104.1 			"/>
			<path class="st0" d="M133,104.3h-27.3c-0.1,0-0.1,0-0.1-0.1c0,0,0-0.1,0-0.2l6.4-23.4c0-0.1,0.1-0.1,0.2-0.1h27.3
				c0.1,0,0.1,0,0.1,0.1c0,0,0,0.1,0,0.2l-6.4,23.4C133.1,104.3,133.1,104.3,133,104.3z M105.9,104h26.9l6.3-23h-26.9L105.9,104z"/>
		</g>
		<g>
			<polygon class="st2" points="112.8,81.6 138.1,81.6 132.2,103.3 107,103.3 			"/>
			<path class="st0" d="M132.2,103.5H107c-0.1,0-0.1,0-0.1-0.1c0,0,0-0.1,0-0.2l5.9-21.7c0-0.1,0.1-0.1,0.2-0.1h25.3
				c0.1,0,0.1,0,0.1,0.1c0,0,0,0.1,0,0.2l-5.9,21.7C132.4,103.4,132.3,103.5,132.2,103.5z M107.2,103.1h24.9l5.8-21.3H113
				L107.2,103.1z"/>
		</g>
		<g>
			<g>
				<g>
					<path class="st0" d="M119,96.5l1.5-5.7h0.6l-1.4,5.1h1.6l-0.2,0.6H119z"/>
				</g>
				<g>
					<path class="st0" d="M122.8,92.2c0.2-0.9,0.8-1.4,1.7-1.4c0.9,0,1.2,0.6,0.9,1.4l-0.8,2.9c-0.2,0.9-0.8,1.4-1.7,1.4
						c-0.9,0-1.1-0.6-0.9-1.4L122.8,92.2z M122.6,95.2c-0.1,0.5,0,0.8,0.5,0.8c0.5,0,0.8-0.3,0.9-0.8l0.8-3c0.1-0.5,0-0.8-0.5-0.8
						c-0.5,0-0.8,0.3-0.9,0.8L122.6,95.2z"/>
				</g>
				<g>
					<path class="st0" d="M128.5,92.2l-0.1,0.5h-0.6l0.1-0.5c0.1-0.5,0-0.8-0.4-0.8c-0.5,0-0.7,0.3-0.9,0.8l-0.8,3
						c-0.1,0.5,0,0.8,0.4,0.8c0.5,0,0.7-0.3,0.9-0.8l0.3-1.1h-0.6l0.2-0.6h1.2l-0.4,1.7c-0.2,0.9-0.8,1.4-1.7,1.4
						c-0.9,0-1.1-0.6-0.9-1.4l0.8-2.9c0.2-0.9,0.8-1.4,1.7-1.4C128.5,90.8,128.7,91.4,128.5,92.2z"/>
				</g>
				<g>
					<path class="st0" d="M129,92.2c0.2-0.9,0.8-1.4,1.7-1.4c0.9,0,1.2,0.6,0.9,1.4l-0.8,2.9c-0.2,0.9-0.8,1.4-1.7,1.4
						c-0.9,0-1.1-0.6-0.9-1.4L129,92.2z M128.9,95.2c-0.1,0.5,0,0.8,0.5,0.8c0.5,0,0.8-0.3,0.9-0.8l0.8-3c0.1-0.5,0-0.8-0.5-0.8
						c-0.5,0-0.8,0.3-0.9,0.8L128.9,95.2z"/>
				</g>
			</g>
			<g>
				<path class="st0" d="M114.6,92.9c-0.1,0-0.1,0-0.1-0.1c-0.4-0.5-0.7-1.1-0.9-1.7c-1-2.9,0.1-5.5,1.7-6.3c1-0.5,2.1-0.3,2.8,0.7
					c1.4,1.9,1.7,4.3,1.8,5.6c0,0.1-0.1,0.2-0.2,0.2c-0.1,0-0.2-0.1-0.2-0.2c0-1.2-0.3-3.6-1.7-5.4c-0.6-0.8-1.5-1.1-2.4-0.6
					c-1.5,0.8-2.4,3.2-1.5,5.9c0.2,0.5,0.5,1.1,0.9,1.6c0.1,0.1,0,0.2,0,0.3C114.7,92.9,114.6,92.9,114.6,92.9z"/>
			</g>
			<g>
				<path class="st0" d="M114,98.7c-0.1,0-0.2,0-0.2,0c-0.9-0.1-1.6-0.6-2.2-1.6c-0.2-0.4-0.2-0.7-0.1-1.1c0.7-1.4,4.3-2,4.5-2
					c0.1,0,0.2,0.1,0.2,0.2c0,0.1-0.1,0.2-0.2,0.2c-1,0.2-3.7,0.8-4.2,1.8c-0.1,0.2-0.1,0.5,0.1,0.8c0.5,0.9,1.1,1.4,1.9,1.4
					c1.6,0.2,3.5-1.7,4.4-2.8c0.1-0.1,0.2-0.1,0.3,0c0.1,0.1,0.1,0.2,0,0.3C117.6,96.9,115.8,98.7,114,98.7z"/>
			</g>
			<g>
				<path class="st1" d="M118.5,89.4c0.6,1.6,0.5,3.2-0.3,3.5c-0.8,0.3-1.9-0.8-2.5-2.4c-0.6-1.6-0.5-3.2,0.3-3.5
					C116.8,86.7,117.9,87.8,118.5,89.4z"/>
				<path class="st0" d="M118,93.1c-0.4,0-0.8-0.2-1.2-0.6c-0.5-0.5-0.9-1.2-1.2-2c-0.3-0.8-0.4-1.6-0.4-2.3
					c0.1-0.7,0.3-1.2,0.8-1.4c0.4-0.2,1,0,1.5,0.5c0.5,0.5,0.9,1.2,1.2,2l0,0c0.3,0.8,0.4,1.6,0.4,2.3c-0.1,0.7-0.3,1.2-0.8,1.4
					C118.2,93.1,118.1,93.1,118,93.1z M116.3,87.1c-0.1,0-0.1,0-0.2,0c-0.3,0.1-0.5,0.5-0.5,1.1c-0.1,0.6,0.1,1.4,0.4,2.2
					c0.3,0.8,0.7,1.4,1.1,1.9c0.4,0.4,0.8,0.6,1.1,0.5c0.3-0.1,0.5-0.5,0.5-1.1c0.1-0.6-0.1-1.4-0.4-2.2l0,0
					c-0.3-0.8-0.7-1.4-1.1-1.9C116.9,87.3,116.5,87.1,116.3,87.1z"/>
			</g>
			<g>
				<path class="st1" d="M113.1,97c0.2,0.5,1.1,0.6,2.1,0.2c1-0.4,1.6-1.1,1.5-1.6c-0.2-0.5-1.1-0.6-2.1-0.2
					C113.5,95.8,112.9,96.5,113.1,97z"/>
				<path class="st0" d="M114.1,97.7c-0.1,0-0.2,0-0.2,0c-0.5,0-0.8-0.2-0.9-0.6c-0.1-0.3,0-0.7,0.3-1c0.3-0.3,0.7-0.6,1.2-0.8
					c0.5-0.2,1-0.3,1.5-0.2c0.5,0,0.8,0.2,0.9,0.6c0.1,0.3,0,0.7-0.3,1c-0.3,0.3-0.7,0.6-1.2,0.8C114.9,97.6,114.4,97.7,114.1,97.7z
					 M115.7,95.4c-0.3,0-0.7,0.1-1.1,0.2c-0.5,0.2-0.8,0.4-1.1,0.7c-0.2,0.2-0.3,0.5-0.2,0.6l0,0c0.1,0.2,0.3,0.3,0.6,0.3
					c0.4,0,0.8,0,1.3-0.2c0.5-0.2,0.8-0.4,1.1-0.7c0.2-0.2,0.3-0.5,0.2-0.6c-0.1-0.2-0.3-0.3-0.6-0.3
					C115.8,95.4,115.8,95.4,115.7,95.4z"/>
			</g>
			<g>
				<path class="st0" d="M120.4,91.9C120.4,91.9,120.3,91.9,120.4,91.9c-0.2-0.1-0.2-0.1-0.2-0.2c0,0,0.3-1.8-0.5-4
					c0-0.1,0-0.2,0.1-0.2c0.1,0,0.2,0,0.2,0.1c0.5,1.5,0.6,2.8,0.5,3.5c1.3-2.2,0.5-4.4,0.5-4.4c0-0.1,0-0.2,0.1-0.2
					c0.1,0,0.2,0,0.2,0.1c0,0,1.1,2.9-0.9,5.4C120.5,91.9,120.4,91.9,120.4,91.9z"/>
			</g>
		</g>
		<g>
			<rect x="94.7" y="102.9" class="st3" width="38.2" height="1.2"/>
			<path class="st0" d="M133,104.3H94.7c-0.1,0-0.2-0.1-0.2-0.2v-1.2c0-0.1,0.1-0.2,0.2-0.2H133c0.1,0,0.2,0.1,0.2,0.2v1.2
				C133.2,104.2,133.1,104.3,133,104.3z M94.9,104h37.9v-0.9H94.9V104z"/>
		</g>
		<g>
			<rect x="115.4" y="102.9" class="st4" width="17.6" height="1.2"/>
			<path class="st0" d="M133,104.3h-17.6c-0.1,0-0.2-0.1-0.2-0.2v-1.2c0-0.1,0.1-0.2,0.2-0.2H133c0.1,0,0.2,0.1,0.2,0.2v1.2
				C133.2,104.2,133.1,104.3,133,104.3z M115.6,104h17.2v-0.9h-17.2V104z"/>
		</g>
	</g>
	<g>
		<g>
			<g>
				<rect x="82.5" y="106.1" class="st2" width="2.1" height="65.3"/>
				<path class="st0" d="M84.6,171.6h-2.1c-0.1,0-0.2-0.1-0.2-0.2v-65.3c0-0.1,0.1-0.2,0.2-0.2h2.1c0.1,0,0.2,0.1,0.2,0.2v65.3
					C84.7,171.5,84.7,171.6,84.6,171.6z M82.7,171.2h1.7v-64.9h-1.7V171.2z"/>
			</g>
			<g>
				
					<rect x="80.7" y="106.1" transform="matrix(-1 -1.224647e-16 1.224647e-16 -1 163.2477 277.5163)" class="st5" width="1.8" height="65.3"/>
				<path class="st0" d="M82.5,171.6h-1.8c-0.1,0-0.2-0.1-0.2-0.2v-65.3c0-0.1,0.1-0.2,0.2-0.2h1.8c0.1,0,0.2,0.1,0.2,0.2v65.3
					C82.7,171.5,82.6,171.6,82.5,171.6z M80.9,171.2h1.4v-64.9h-1.4V171.2z"/>
			</g>
		</g>
		<g>
			<g>
				<rect x="135.2" y="140.3" class="st2" width="2.1" height="31.1"/>
				<path class="st0" d="M137.2,171.6h-2.1c-0.1,0-0.2-0.1-0.2-0.2v-31.1c0-0.1,0.1-0.2,0.2-0.2h2.1c0.1,0,0.2,0.1,0.2,0.2v31.1
					C137.4,171.5,137.3,171.6,137.2,171.6z M135.4,171.2h1.7v-30.7h-1.7V171.2z"/>
			</g>
			<g>
				
					<rect x="133.4" y="140.3" transform="matrix(-1 -1.224647e-16 1.224647e-16 -1 268.5866 311.6699)" class="st5" width="1.8" height="31.1"/>
				<path class="st5" d="M135.2,171.6h-1.8c-0.1,0-0.2-0.1-0.2-0.2v-31.1c0-0.1,0.1-0.2,0.2-0.2h1.8c0.1,0,0.2,0.1,0.2,0.2v31.1
					C135.4,171.5,135.3,171.6,135.2,171.6z M133.6,171.2h1.4v-30.7h-1.4V171.2z"/>
			</g>
		</g>
		<g>
			<g>
				<g>
					<rect x="157.2" y="140.3" class="st2" width="2.1" height="31.1"/>
					<path class="st0" d="M159.2,171.6h-2.1c-0.1,0-0.2-0.1-0.2-0.2v-31.1c0-0.1,0.1-0.2,0.2-0.2h2.1c0.1,0,0.2,0.1,0.2,0.2v31.1
						C159.4,171.5,159.3,171.6,159.2,171.6z M157.4,171.2h1.7v-30.7h-1.7V171.2z"/>
				</g>
				<g>
					
						<rect x="155.4" y="140.3" transform="matrix(-1 -1.224647e-16 1.224647e-16 -1 312.6168 311.6699)" class="st5" width="1.8" height="31.1"/>
					<path class="st0" d="M157.2,171.6h-1.8c-0.1,0-0.2-0.1-0.2-0.2v-31.1c0-0.1,0.1-0.2,0.2-0.2h1.8c0.1,0,0.2,0.1,0.2,0.2v31.1
						C157.4,171.5,157.3,171.6,157.2,171.6z M155.6,171.2h1.4v-30.7h-1.4V171.2z"/>
				</g>
			</g>
			<g>
				<g>
					
						<rect x="114.8" y="106.8" transform="matrix(-1 -1.224647e-16 1.224647e-16 -1 249.6445 248.8078)" class="st5" width="20.1" height="35.3"/>
					<path class="st0" d="M134.9,142.2h-20.1c-0.1,0-0.2-0.1-0.2-0.2v-35.3c0-0.1,0.1-0.2,0.2-0.2h20.1c0.1,0,0.2,0.1,0.2,0.2v35.3
						C135,142.2,135,142.2,134.9,142.2z M115,141.9h19.7v-34.9H115V141.9z"/>
				</g>
				<g>
					<rect x="134.9" y="106.8" class="st2" width="26.4" height="35.3"/>
					<path class="st0" d="M161.3,142.2h-26.4c-0.1,0-0.2-0.1-0.2-0.2v-35.3c0-0.1,0.1-0.2,0.2-0.2h26.4c0.1,0,0.2,0.1,0.2,0.2v35.3
						C161.5,142.2,161.4,142.2,161.3,142.2z M135,141.9h26.1v-34.9H135V141.9z"/>
				</g>
				<g>
					<polygon class="st0" points="134.9,106.8 114.8,106.8 114.8,108.5 134.9,108.5 161.3,108.5 161.3,106.8 					"/>
					<path class="st0" d="M161.3,108.7h-46.5c-0.1,0-0.2-0.1-0.2-0.2v-1.7c0-0.1,0.1-0.2,0.2-0.2h46.5c0.1,0,0.2,0.1,0.2,0.2v1.7
						C161.5,108.6,161.4,108.7,161.3,108.7z M115,108.3h46.1v-1.3H115V108.3z"/>
				</g>
				<g>
					<g>
						<rect x="116.5" y="108.8" class="st2" width="17.1" height="8.2"/>
						<path class="st0" d="M133.6,117.2h-17.1c-0.1,0-0.2-0.1-0.2-0.2v-8.2c0-0.1,0.1-0.2,0.2-0.2h17.1c0.1,0,0.2,0.1,0.2,0.2v8.2
							C133.8,117.1,133.7,117.2,133.6,117.2z M116.7,116.8h16.7V109h-16.7V116.8z"/>
					</g>
					<g>
						<rect x="122.8" y="112.1" class="st0" width="4.5" height="1.6"/>
					</g>
				</g>
				<g>
					<g>
						<rect x="116.5" y="120.1" class="st2" width="17.1" height="8.2"/>
						<path class="st0" d="M133.6,128.6h-17.1c-0.1,0-0.2-0.1-0.2-0.2v-8.2c0-0.1,0.1-0.2,0.2-0.2h17.1c0.1,0,0.2,0.1,0.2,0.2v8.2
							C133.8,128.5,133.7,128.6,133.6,128.6z M116.7,128.2h16.7v-7.9h-16.7V128.2z"/>
					</g>
					<g>
						<rect x="122.8" y="123.3" class="st0" width="4.5" height="1.6"/>
					</g>
				</g>
				<g>
					<g>
						<rect x="116.5" y="131.5" class="st2" width="17.1" height="8.2"/>
						<path class="st0" d="M133.6,139.9h-17.1c-0.1,0-0.2-0.1-0.2-0.2v-8.2c0-0.1,0.1-0.2,0.2-0.2h17.1c0.1,0,0.2,0.1,0.2,0.2v8.2
							C133.8,139.8,133.7,139.9,133.6,139.9z M116.7,139.5h16.7v-7.9h-16.7V139.5z"/>
					</g>
					<g>
						<rect x="122.8" y="134.5" class="st0" width="4.5" height="1.6"/>
					</g>
				</g>
			</g>
			<g>
				<g>
					<rect x="77.9" y="105.2" class="st5" width="86.1" height="2.1"/>
					<path class="st0" d="M164,107.4H77.9c-0.1,0-0.2-0.1-0.2-0.2v-2.1c0-0.1,0.1-0.2,0.2-0.2H164c0.1,0,0.2,0.1,0.2,0.2v2.1
						C164.2,107.4,164.1,107.4,164,107.4z M78.1,107.1h85.7v-1.7H78.1V107.1z"/>
				</g>
				<g>
					<rect x="138" y="105.2" class="st2" width="26" height="2.1"/>
					<path class="st0" d="M164,107.4h-26c-0.1,0-0.2-0.1-0.2-0.2v-2.1c0-0.1,0.1-0.2,0.2-0.2h26c0.1,0,0.2,0.1,0.2,0.2v2.1
						C164.2,107.4,164.1,107.4,164,107.4z M138.2,107.1h25.6v-1.7h-25.6V107.1z"/>
				</g>
			</g>
		</g>
	</g>
	<g>
		<path class="st2" d="M85.2,126.1c0,0,2.6,1.8,6.4,12.7c1.3,3.7,8.4,23.3,8.7,24.7c0.4,1.4,1.1,3,2.2,3s5.2-5.2,4.7-5.9
			c-0.5-0.6-2.9-3.1-2.9-3.1s-1.4-15.9-1.7-20.4c-0.2-4.5,0.8-9.9-1.6-13.5c-2.4-3.6-12.8,0.1-12.8,0.1L85.2,126.1z"/>
		<path class="st0" d="M102.6,166.7c-1.4,0-2.2-2.2-2.4-3.1c-0.2-0.9-3.2-9.1-5.6-15.8c-1.5-4.1-2.7-7.6-3.2-8.9
			c-3.7-10.7-6.3-12.6-6.3-12.7c0,0-0.1-0.1-0.1-0.2c0-0.1,0-0.1,0.1-0.2l3.1-2.3c0,0,0,0,0,0c0.4-0.2,10.6-3.7,13.1-0.1
			c1.8,2.7,1.7,6.3,1.6,9.8c0,1.3-0.1,2.6,0,3.8c0.2,4.3,1.6,19.2,1.7,20.3c0.3,0.4,2.4,2.5,2.8,3.1c0.1,0.2,0.1,0.5-0.1,1
			C106.6,163.1,103.6,166.7,102.6,166.7z M85.5,126.1c0.7,0.6,3,3.3,6.2,12.7c0.5,1.4,1.7,4.9,3.2,8.9c2.5,7,5.3,14.9,5.6,15.8
			c0.2,0.7,0.9,2.9,2.1,2.9c0.6,0,2.6-2.1,3.8-4c0.8-1.3,0.7-1.5,0.7-1.5c-0.5-0.6-2.8-3.1-2.9-3.1c0,0,0-0.1-0.1-0.1
			c0-0.2-1.4-16-1.7-20.4c-0.1-1.2,0-2.5,0-3.8c0.1-3.4,0.1-7-1.6-9.6c-2.2-3.4-12,0-12.6,0.2L85.5,126.1z"/>
	</g>
	<g>
		<g>
			<path class="st1" d="M105.6,157.6c0,0-1,0.5-0.9,1.6c0.1,1.1,1.2,2.6,1.2,2.6s-2.4,1.9-3.6,2c-1.2,0.1-2.6,0.4-2.6,0.7
				c0,0.4,1,1,1.6,2.4c0.6,1.4,2,3.5,2.4,4c0.4,0.5,0.6,0.9,2,0.5c1.4-0.4,4.4-3.1,6-4.2c1.6-1.1,6.5-1.9,7.4-2.5
				c0.9-0.6,3.6-4.6,2.4-5.4s-1.6,0.1-3.1,0.5c-1.5,0.4-5.9-0.1-8.2-0.6c-2.4-0.5-3.1-0.6-3.1-0.6L105.6,157.6z"/>
			<path class="st0" d="M104.8,171.7c-0.6,0-0.9-0.3-1.2-0.7c-0.4-0.5-1.8-2.7-2.4-4c-0.3-0.8-0.8-1.3-1.1-1.7
				c-0.3-0.3-0.5-0.5-0.5-0.8c0-0.2,0-0.7,2.8-0.9c1-0.1,2.9-1.4,3.4-1.8c-0.3-0.4-1.1-1.6-1.2-2.6c-0.1-1,0.6-1.6,1-1.8
				c0.1,0,0.1,0,0.2,0l1.3,1c0.2,0,1,0.2,3.1,0.6c2.4,0.5,6.7,1,8.1,0.6c0.5-0.1,0.9-0.3,1.2-0.5c0.7-0.3,1.2-0.6,2.1,0
				c0.2,0.1,0.4,0.3,0.4,0.8c0.1,1.5-2,4.3-2.8,4.9c-0.4,0.3-1.5,0.6-2.8,0.9c-1.6,0.4-3.6,1-4.5,1.6c-0.5,0.4-1.2,0.9-1.9,1.5
				c-1.5,1.2-3.2,2.5-4.1,2.8C105.3,171.7,105,171.7,104.8,171.7z M105.5,157.8c-0.2,0.1-0.8,0.6-0.7,1.4c0.1,1.1,1.2,2.5,1.2,2.5
				c0.1,0.1,0,0.2,0,0.3c-0.1,0.1-2.4,1.9-3.7,2c-1.9,0.2-2.4,0.5-2.4,0.6c0,0.1,0.2,0.3,0.4,0.5c0.4,0.4,0.8,0.9,1.2,1.8
				c0.6,1.4,2,3.5,2.3,4c0.4,0.5,0.6,0.8,1.8,0.4c0.9-0.2,2.5-1.6,4-2.7c0.7-0.6,1.4-1.1,1.9-1.5c1-0.7,2.9-1.2,4.7-1.6
				c1.2-0.3,2.3-0.6,2.7-0.9c0.7-0.5,2.7-3.3,2.6-4.6c0-0.2-0.1-0.4-0.2-0.5c-0.7-0.4-1.1-0.3-1.7,0c-0.3,0.2-0.7,0.4-1.2,0.5
				c-1.5,0.4-5.9-0.1-8.3-0.6c-2.3-0.5-3.1-0.6-3.1-0.6c0,0-0.1,0-0.1,0L105.5,157.8z"/>
		</g>
		<g>
			<path class="st2" d="M103.5,170.6c0.1,0.1,0.2,0.2,0.2,0.3c0.4,0.5,0.6,0.9,2,0.5c1.4-0.4,4.4-3.1,6-4.2c1.6-1.1,6.5-1.9,7.4-2.5
				c0.9-0.6,3.6-4.6,2.4-5.4c-0.2-0.1-0.4-0.2-0.6-0.2c0,0.1,0,0.2,0.1,0.2c0.4,1.5-0.9,3-2,4.1c-1.1,1.1-4.9,0.9-9,3
				C107,167.9,104.7,169.7,103.5,170.6z"/>
			<path class="st0" d="M104.8,171.7c-0.6,0-0.9-0.3-1.2-0.7c-0.1-0.1-0.1-0.2-0.2-0.3c-0.1-0.1,0-0.2,0-0.3
				c1.2-0.9,3.6-2.7,6.5-4.2c2.3-1.2,4.4-1.6,6.1-2c1.3-0.3,2.4-0.5,2.9-1c1.1-1.1,2.3-2.5,1.9-3.9c0-0.1,0-0.1,0-0.2l0-0.1
				c0-0.1,0-0.1,0-0.2c0,0,0.1-0.1,0.2,0c0.2,0.1,0.4,0.1,0.6,0.3c0.2,0.1,0.4,0.3,0.4,0.8c0.1,1.5-2,4.3-2.8,4.9
				c-0.4,0.3-1.5,0.6-2.8,0.9c-1.6,0.4-3.6,1-4.5,1.6c-0.5,0.4-1.2,0.9-1.9,1.5c-1.5,1.2-3.2,2.5-4.1,2.8
				C105.3,171.7,105,171.7,104.8,171.7z M103.7,170.6c0,0.1,0.1,0.1,0.1,0.1c0.4,0.5,0.6,0.8,1.8,0.4c0.9-0.2,2.5-1.6,4-2.7
				c0.7-0.6,1.4-1.1,1.9-1.5c1-0.7,2.9-1.2,4.7-1.6c1.2-0.3,2.3-0.6,2.7-0.9c0.7-0.5,2.7-3.3,2.6-4.6c0-0.2-0.1-0.4-0.2-0.5
				c-0.1,0-0.1-0.1-0.2-0.1c0.3,1.6-0.9,3.1-2.1,4.2c-0.6,0.6-1.6,0.8-3.1,1.1c-1.7,0.4-3.7,0.8-6,1.9
				C107.3,168,104.9,169.7,103.7,170.6z"/>
		</g>
	</g>
	<g>
		<path class="st0" d="M103.4,145.1c-0.3-3.3-0.5-6.3-0.6-7.9c-0.2-4.5,0.8-9.9-1.6-13.5c-2.4-3.6-12.8,0.1-12.8,0.1l-3.1,2.3
			c0,0,2.6,1.8,6.4,12.7c0.5,1.4,1.8,5.1,3.3,9.3L103.4,145.1z"/>
		<path class="st0" d="M94.9,148.3C94.9,148.3,94.8,148.3,94.9,148.3c-0.1,0-0.2-0.1-0.2-0.1l-0.1-0.2c-1.5-4.1-2.8-7.7-3.2-9.1
			c-3.7-10.7-6.3-12.6-6.3-12.7c0,0-0.1-0.1-0.1-0.2c0-0.1,0-0.1,0.1-0.2l3.1-2.3c0,0,0,0,0,0c0.4-0.2,10.6-3.7,13.1-0.1
			c1.8,2.7,1.7,6.3,1.6,9.8c0,1.3-0.1,2.6,0,3.8c0.1,1.4,0.3,4.1,0.6,7.9c0,0.1,0,0.2-0.1,0.2L94.9,148.3
			C94.9,148.3,94.9,148.3,94.9,148.3z M85.5,126.1c0.7,0.6,3,3.3,6.2,12.7c0.5,1.4,1.8,4.9,3.2,9.1l0,0.1l8.2-2.9
			c-0.3-3.8-0.5-6.4-0.6-7.8c-0.1-1.2,0-2.5,0-3.8c0.1-3.4,0.1-7-1.6-9.6c-2.2-3.4-12,0-12.6,0.2L85.5,126.1z"/>
	</g>
	<g>
		<path class="st2" d="M97.3,62.2c0,0,0.6,1.5,0.5,2.7c-0.1,1.2-1.2,1.8-1.4,1.5c-0.1-0.3-0.1-1.2-0.1-1.7c0-0.5,0-0.5,0-0.5
			s-0.2,0.5-1,1.2C94.4,66.2,94,66,93.6,66s-0.5-1.1,0.1-1.9C94.3,63.3,96.1,61.5,97.3,62.2z"/>
		<path class="st0" d="M96.5,66.6c-0.2,0-0.3-0.1-0.3-0.2c-0.1-0.3-0.1-1.1-0.1-1.6c-0.2,0.2-0.4,0.5-0.7,0.8
			c-0.7,0.7-1.2,0.7-1.6,0.6c-0.1,0-0.1,0-0.2,0c-0.1,0-0.2,0-0.4-0.2c-0.2-0.4-0.1-1.3,0.3-2c0.7-0.9,2.5-2.7,3.8-2
			c0,0,0.1,0.1,0.1,0.1c0,0.1,0.6,1.5,0.5,2.8C97.8,65.9,97.1,66.6,96.5,66.6C96.6,66.6,96.5,66.6,96.5,66.6z M96.2,64
			C96.3,64,96.3,64,96.2,64c0.1,0,0.2,0.1,0.2,0.2v0.5c0,0.4,0,1.3,0.1,1.6c0,0,0.2,0,0.3-0.1c0.3-0.2,0.6-0.6,0.7-1.3
			c0.1-1-0.3-2.3-0.4-2.6c-0.9-0.5-2.6,1-3.2,1.9c-0.3,0.5-0.4,1.1-0.3,1.4c0,0.2,0.1,0.2,0.1,0.2c0,0,0.1,0,0.2,0
			c0.3,0,0.7,0.1,1.2-0.5c0.8-0.8,1-1.2,1-1.2C96.1,64.1,96.2,64,96.2,64z"/>
	</g>
	<g>
		<path class="st2" d="M99.9,65.1c-1.1-0.7-2.8,1.7-5.4,1.1c-0.3-0.1-0.5-0.6,0.1-1.7c0.6-1.1,2.4-2,3.3-2.7c0.9-0.7,1.6-1.2,1.6-2
			c0-0.8-2,0.5-2.6,0.9c-0.3,0.2-1.2,0.7-2.1,1.1c-0.1,0-0.3,0-0.5,0c-1,0.1-2.6,0.2-3.1,0.8c-0.8,0.7-1.2,3-1.4,3.9
			c-0.5,0.7-0.9,1.4-1.2,1.8c-0.8,1.2-16.7,12.9-16.7,12.9l1.1,9.9l18.1-20.6c0,0,0.5-0.5,1.7-0.9c1.2-0.5,2.9-0.8,4.4-1.6
			c1.5-0.8,1.6-0.9,3.2-1.9C101,65.6,100.5,65.5,99.9,65.1z"/>
		<path class="st0" d="M72.8,91.3C72.8,91.3,72.8,91.3,72.8,91.3c-0.1,0-0.2-0.1-0.2-0.2l-1.1-9.9c0-0.1,0-0.1,0.1-0.2
			c5.5-4,16.1-11.9,16.7-12.8c0.3-0.4,0.7-1,1.2-1.8l0-0.1c0.2-1,0.6-3.1,1.4-3.8c0.6-0.5,2.1-0.7,3.3-0.8c0.2,0,0.3,0,0.5,0
			c0.5-0.2,1.8-0.9,2.1-1.1c0.3-0.2,2.1-1.5,2.7-1.2c0.1,0,0.2,0.1,0.2,0.4c0,0.9-0.7,1.5-1.7,2.2c-0.2,0.2-0.5,0.4-0.9,0.6
			c-0.9,0.6-2,1.3-2.4,2.1c-0.5,0.9-0.4,1.3-0.3,1.3c0,0,0.1,0.1,0.1,0.1c1.4,0.3,2.5-0.3,3.4-0.7c0.8-0.4,1.5-0.7,2.1-0.4l0,0
			c0.1,0,0.1,0.1,0.2,0.1c0.3,0.2,0.6,0.3,0.6,0.6c0,0.3-0.2,0.4-0.5,0.6c-0.3,0.2-0.6,0.4-0.8,0.5c-0.9,0.6-1.2,0.8-2.4,1.4
			c-1,0.5-2.1,0.9-3.1,1.2c-0.5,0.1-0.9,0.3-1.3,0.4c-1.2,0.4-1.6,0.9-1.6,0.9L73,91.2C73,91.3,72.9,91.3,72.8,91.3z M71.9,81.3
			l1.1,9.4l17.8-20.3c0,0,0.5-0.5,1.8-1c0.4-0.1,0.9-0.3,1.3-0.4c1-0.3,2.1-0.6,3.1-1.1c1.2-0.6,1.5-0.8,2.4-1.4
			c0.2-0.1,0.5-0.3,0.8-0.5c0.3-0.2,0.3-0.3,0.3-0.3c0-0.1-0.3-0.2-0.4-0.3c-0.1,0-0.1-0.1-0.2-0.1c-0.4-0.3-1,0-1.7,0.4
			c-1,0.5-2.2,1.1-3.7,0.8c-0.2,0-0.3-0.1-0.4-0.3c-0.2-0.3,0-0.9,0.3-1.7c0.4-0.9,1.6-1.6,2.5-2.2c0.3-0.2,0.6-0.4,0.8-0.6
			c0.9-0.7,1.5-1.2,1.5-1.9c0-0.1,0-0.1,0-0.1c-0.3-0.1-1.6,0.6-2.3,1.1C96.7,61,96,61.4,94.8,62c0,0,0,0-0.1,0c-0.1,0-0.3,0-0.5,0
			c-1.5,0.1-2.6,0.3-3,0.7c-0.7,0.6-1.1,2.7-1.3,3.6l0,0.1c0,0,0,0,0,0.1c-0.5,0.7-1,1.4-1.2,1.8C87.8,69.6,73.3,80.2,71.9,81.3z"/>
	</g>
	<g>
		<path class="st1" d="M80.9,74.4c-4.4,3.3-9.1,6.8-9.1,6.8l1.1,9.9L84,78.5L80.9,74.4z"/>
		<path class="st0" d="M72.8,91.3C72.8,91.3,72.8,91.3,72.8,91.3c-0.1,0-0.2-0.1-0.2-0.2l-1.1-9.9c0-0.1,0-0.1,0.1-0.2
			c0,0,4.8-3.5,9.1-6.8c0.1-0.1,0.2,0,0.3,0l3.1,4.1c0.1,0.1,0.1,0.2,0,0.2L73,91.2C73,91.3,72.9,91.3,72.8,91.3z M71.9,81.3
			l1.1,9.4l10.7-12.2l-2.9-3.8C76.8,77.7,72.6,80.8,71.9,81.3z"/>
	</g>
	<g>
		<path class="st2" d="M75.3,112c0,0,8-0.4,19.6,1.5c11.6,1.9,15.9,3.9,15.6,6.1c-1.4,9.1-22.7,39.1-22.7,39.1l0.4,4.2
			c0,0-0.7,1-3.4,1.1c-2.6,0.1-5.9-3.6-5.9-3.6s2.9-3,4-6.6c1.1-3.6,10.1-26.9,10.1-26.9s-11.8,2.6-24.9,0.2
			C55.1,124.7,75.3,112,75.3,112z"/>
		<path class="st0" d="M84.7,164.2c-2.6,0-5.7-3.5-5.9-3.7c-0.1-0.1-0.1-0.2,0-0.3c0,0,2.9-3,4-6.6c1-3.3,8.9-23.8,10-26.6
			c-2,0.4-12.9,2.3-24.7,0.2c-2.7-0.5-4.2-1.5-4.5-2.9c-0.9-4.6,11-12.2,11.6-12.5c0,0,0.1,0,0.1,0c0.1,0,8.1-0.4,19.6,1.5
			c11.3,1.8,16.1,3.8,15.7,6.3c-1.4,8.9-21.3,37.2-22.6,39.1l0.4,4.2c0,0,0,0.1,0,0.1c0,0-0.8,1.1-3.5,1.2
			C84.7,164.2,84.7,164.2,84.7,164.2z M79.2,160.4c0.6,0.6,3.3,3.4,5.5,3.4c0,0,0.1,0,0.1,0c2.1-0.1,3-0.8,3.2-1l-0.4-4.2
			c0,0,0-0.1,0-0.1c0.2-0.3,21.2-30,22.6-39c0.3-2.2-4.7-4.2-15.4-5.9c-11-1.8-18.8-1.5-19.5-1.5c-0.8,0.5-12.2,7.9-11.3,12.1
			c0.2,1.3,1.7,2.2,4.2,2.6c12.9,2.3,24.7-0.2,24.8-0.2c0.1,0,0.1,0,0.2,0.1c0,0.1,0.1,0.1,0,0.2c-0.1,0.2-9,23.4-10.1,26.9
			C82.2,157,79.7,159.8,79.2,160.4z"/>
	</g>
	<g>
		<path class="st0" d="M94.9,113.5c-11.6-1.9-19.6-1.5-19.6-1.5s-20.2,12.7-7.1,15.1c13.1,2.4,24.9-0.2,24.9-0.2s-3.8,9.7-6.7,17.6
			l8.8,3.4c6.3-9.5,14.4-22.7,15.2-28.2C110.8,117.4,106.4,115.4,94.9,113.5z"/>
		<path class="st0" d="M95.2,148C95.2,148,95.1,148,95.2,148l-8.9-3.4c-0.1,0-0.1-0.1-0.1-0.2c2.6-7,5.9-15.5,6.6-17.2
			c-2,0.4-12.9,2.3-24.7,0.2c-2.7-0.5-4.2-1.5-4.5-2.9c-0.9-4.6,11-12.2,11.6-12.5c0,0,0.1,0,0.1,0c0.1,0,8.1-0.4,19.6,1.5
			c11.3,1.8,16.1,3.8,15.7,6.3c-0.9,5.5-8.8,18.4-15.3,28.2C95.3,147.9,95.2,148,95.2,148z M86.6,144.3l8.5,3.3
			c6.5-9.8,14.3-22.6,15.1-28c0.3-2.2-4.7-4.2-15.4-5.9c-11-1.8-18.8-1.5-19.5-1.5c-0.8,0.5-12.2,7.9-11.3,12.1
			c0.2,1.3,1.7,2.2,4.2,2.6c12.9,2.3,24.7-0.2,24.8-0.2c0.1,0,0.1,0,0.2,0.1c0,0.1,0.1,0.1,0,0.2C93.2,127,89.6,136.5,86.6,144.3z"
			/>
	</g>
	<g>
		<g>
			<path class="st1" d="M87.8,158.7c0,0-0.7,0.2-1.1,1.1c-0.4,0.9-0.6,1.7-0.6,1.7s-2.4-0.5-4-1.2c-1.6-0.7-2.7-1.5-2.7-1.5
				s-1.1,0.1-1.1,0.9c0,0.7-0.1,2.1-0.6,3.4c-0.3,0.8-1,2.6-1.4,3.8c-0.2,0.6,0.1,1.2,0.7,1.4c2,0.4,6.1,1.4,9.7,2.5
				c4.9,1.5,10.2,0.7,10.8,0.6c0.6-0.1,3.1-1.6,2-2.6c-1.1-1-7.7-3.6-9.1-5.4C88.9,161.5,87.8,158.7,87.8,158.7z"/>
			<path class="st0" d="M93.3,171.7c-2,0-4.4-0.2-6.8-0.9c-3.5-1.1-7.6-2-9.7-2.5c-0.3-0.1-0.6-0.3-0.8-0.6c-0.2-0.3-0.2-0.7-0.1-1
				c0.4-1,1.1-2.9,1.4-3.8c0.4-1.1,0.6-2.4,0.6-3.3c0-0.9,1.2-1.1,1.3-1.1c0,0,0.1,0,0.1,0c0,0,1.1,0.7,2.7,1.5
				c1.3,0.6,3.2,1.1,3.8,1.2c0.1-0.3,0.3-0.9,0.6-1.6c0.4-0.9,1.2-1.2,1.2-1.2c0.1,0,0.2,0,0.2,0.1c0,0,1.1,2.9,2.5,4.6
				c0.8,1,3.6,2.4,5.8,3.5c1.5,0.7,2.8,1.4,3.2,1.8c0.3,0.3,0.4,0.6,0.3,1c-0.3,1-1.9,1.9-2.4,2C97.4,171.4,95.7,171.7,93.3,171.7z
				 M79.3,159c-0.2,0-0.9,0.2-0.9,0.7c0,0.4,0,2-0.6,3.4c-0.3,0.8-1,2.7-1.4,3.8c-0.1,0.2-0.1,0.5,0,0.7c0.1,0.2,0.3,0.4,0.6,0.4
				c2.1,0.5,6.2,1.4,9.7,2.5c5.1,1.6,10.7,0.6,10.7,0.6c0.4-0.1,1.9-0.9,2.1-1.7c0.1-0.2,0-0.4-0.2-0.6c-0.4-0.4-1.7-1-3.1-1.7
				c-2.4-1.2-5.1-2.6-6-3.6c-1.2-1.5-2.2-3.8-2.4-4.5c-0.2,0.1-0.6,0.4-0.8,0.9c-0.4,0.9-0.6,1.7-0.6,1.7c0,0.1-0.1,0.2-0.2,0.1
				c-0.1,0-2.4-0.5-4-1.3C80.6,159.8,79.5,159.1,79.3,159z"/>
		</g>
		<g>
			<path class="st2" d="M98.9,168.3c0,1.2-0.6,2.5-2.6,2.5c-2,0-5.5-0.2-10.5-2.2c-3.9-1.6-7.8-2.5-9.2-2.9
				c-0.2,0.4-0.3,0.8-0.4,1.1c-0.2,0.6,0.1,1.2,0.7,1.4c2,0.4,6.1,1.4,9.7,2.5c4.9,1.5,10.2,0.7,10.8,0.6c0.6-0.1,3.1-1.6,2-2.6
				C99.2,168.5,99.1,168.4,98.9,168.3z"/>
			<path class="st0" d="M93.3,171.7c-2,0-4.4-0.2-6.8-0.9c-3.5-1.1-7.6-2-9.7-2.5c-0.3-0.1-0.6-0.3-0.8-0.6c-0.2-0.3-0.2-0.7-0.1-1
				l0.4-1.1c0-0.1,0.1-0.1,0.2-0.1c1.5,0.3,5.3,1.3,9.3,2.9c3.8,1.5,7.2,2.2,10.4,2.2c2.1,0,2.4-1.4,2.4-2.3c0-0.1,0-0.1,0.1-0.2
				c0.1,0,0.1,0,0.2,0c0.2,0.1,0.4,0.3,0.5,0.4c0.3,0.3,0.4,0.6,0.3,1c-0.3,1-1.9,1.9-2.4,2C97.4,171.4,95.7,171.7,93.3,171.7z
				 M76.7,165.9l-0.4,1c-0.1,0.2-0.1,0.5,0,0.7c0.1,0.2,0.3,0.4,0.6,0.4c2.1,0.5,6.2,1.4,9.7,2.5c5.1,1.6,10.7,0.6,10.7,0.6
				c0.4-0.1,1.9-0.9,2.1-1.7c0.1-0.2,0-0.4-0.2-0.6c-0.1,0-0.1-0.1-0.2-0.2c-0.1,0.9-0.6,2.3-2.8,2.3c-3.3,0-6.7-0.7-10.5-2.3
				C81.9,167.2,78.2,166.2,76.7,165.9z"/>
		</g>
	</g>
	<g>
		<g>
			<path class="st1" d="M50.1,83c0,0-1.4,10.7-1.2,12.8c0.1,2,1.6,19.6,1.9,23.4c0.3,3.8,1.9,7.2,4.7,7.9c2.8,0.7,10.2,1.7,13.3,0.9
				c3.2-0.8,6.6-7.9,7.7-10.6c1.1-2.7,1.9-4.4,1.6-5c-0.3-0.6-1.8-1.8-1.8-1.8S73.5,90,72.8,84.7c-0.7-5.3-0.3-5.8-2.8-7.8
				C67.5,74.8,54.6,73.1,50.1,83z"/>
			<path class="st0" d="M65.8,128.4c-3.5,0-8-0.7-10.3-1.2c-2.6-0.6-4.5-3.7-4.9-8.1c-0.3-3.8-1.8-21.4-1.9-23.4
				c-0.1-2,1.2-12.4,1.2-12.8c0,0,0,0,0-0.1c2.2-4.8,6.3-6.6,9.3-7.3c4.8-1.1,9.5,0,10.9,1.1c2.2,1.8,2.2,2.4,2.6,5.9
				c0.1,0.6,0.1,1.3,0.2,2.1c0.7,5.1,3.3,24.5,3.5,25.8c0.3,0.2,1.5,1.3,1.8,1.8c0.3,0.6-0.2,1.9-1.2,4.2l-0.4,0.9
				c-0.4,1-4.2,9.8-7.8,10.7C68.1,128.4,67,128.4,65.8,128.4z M50.3,83c-0.1,0.6-1.3,10.8-1.2,12.7c0.1,2,1.6,19.6,1.9,23.4
				c0.4,4.2,2.1,7.2,4.6,7.7c3,0.7,10.2,1.7,13.3,0.9c3.4-0.9,7.2-9.5,7.6-10.5l0.4-0.9c0.8-1.9,1.5-3.5,1.2-3.9
				c-0.3-0.5-1.8-1.8-1.8-1.8c0,0-0.1-0.1-0.1-0.1c0-0.2-2.8-20.6-3.5-25.9c-0.1-0.8-0.2-1.5-0.2-2.1C72,79.2,72,78.7,69.9,77
				c-1.4-1.1-6.1-2.1-10.6-1.1C56.4,76.6,52.4,78.4,50.3,83z"/>
		</g>
		<g>
			<path class="st0" d="M66.9,121.5c-0.1,0-0.1,0-0.2-0.1c-0.1-0.1,0-0.2,0.1-0.3c0.4-0.3,0.8-0.6,1.3-0.9c0.1-0.1,0.2,0,0.3,0
				c0.1,0.1,0,0.2,0,0.3C67.9,120.9,67.5,121.2,66.9,121.5C67,121.5,67,121.5,66.9,121.5z"/>
		</g>
		<g>
			<path class="st0" d="M69.3,119.8c-0.1,0-0.1,0-0.1-0.1c-0.1-0.1-0.1-0.2,0-0.3c3.9-3.4,6.3-8.1,6.3-8.1c0-0.1,0.2-0.1,0.3-0.1
				c0.1,0,0.1,0.2,0.1,0.3c0,0-2.5,4.8-6.4,8.3C69.4,119.8,69.3,119.8,69.3,119.8z"/>
		</g>
		<g>
			<path class="st0" d="M66.2,117.7c-0.1,0-0.1,0-0.2-0.1c-0.1-0.1,0-0.2,0.1-0.3c3.8-2.2,7.7-5.8,7.7-5.8c0.1-0.1,0.2-0.1,0.3,0
				c0.1,0.1,0.1,0.2,0,0.3C74,111.8,70.1,115.4,66.2,117.7C66.3,117.7,66.2,117.7,66.2,117.7z"/>
		</g>
	</g>
	<g>
		<g>
			<g>
				<path class="st2" d="M77,49.2c0,0,1.1,2.4,1.5,4.1c0.3,1.7,0.5,3.3,1.2,3.6c0.8,0.3,2.3,0.5,2,1.4c-0.2,0.9-1.7,2.4-1.7,2.4
					s0.3,5.4,0.2,6.4c-0.1,1-6.1,1-6.4,1c-0.3,0-3.7,8-3.7,8l-9.5-4.7l1.8-5.9c0,0-2.9-5.7-3.2-8.1c-0.2-2.5,5.5-7,8.8-8
					C71.4,48.3,77,49.2,77,49.2z"/>
				<path class="st0" d="M70.1,76.3C70.1,76.3,70.1,76.3,70.1,76.3l-9.6-4.8c-0.1,0-0.1-0.1-0.1-0.2l1.8-5.8
					c-0.4-0.7-2.9-5.8-3.2-8.1c-0.2-2.6,5.6-7.2,8.9-8.2c3.3-1,8.8-0.2,9-0.1c0.1,0,0.1,0,0.1,0.1c0,0.1,1.1,2.4,1.5,4.1
					c0.1,0.3,0.1,0.6,0.2,0.9c0.2,1.2,0.4,2.3,1,2.5c0.2,0.1,0.4,0.1,0.7,0.2c0.8,0.2,1.7,0.5,1.5,1.4c-0.2,0.8-1.4,2.1-1.7,2.4
					c0,0.7,0.3,5.4,0.2,6.4c-0.1,1-4.1,1.2-6.6,1.2c-0.4,0.5-2.4,5.1-3.6,7.9C70.3,76.2,70.2,76.2,70.1,76.3
					C70.2,76.3,70.2,76.3,70.1,76.3z M60.9,71.2l9.2,4.6c3.4-8,3.7-8,3.8-8c3.5,0,6.2-0.4,6.3-0.9c0.1-1-0.2-6.4-0.2-6.4
					c0-0.1,0-0.1,0.1-0.1c0,0,1.4-1.4,1.6-2.3c0.1-0.5-0.4-0.7-1.2-0.9c-0.3-0.1-0.5-0.1-0.7-0.2c-0.7-0.3-0.9-1.4-1.2-2.8
					c-0.1-0.3-0.1-0.6-0.2-0.9c-0.3-1.5-1.2-3.5-1.4-3.9c-0.8-0.1-5.8-0.8-8.7,0.1c-3.2,1-8.9,5.5-8.7,7.8c0.2,2.4,3.1,8,3.1,8.1
					c0,0,0,0.1,0,0.1L60.9,71.2z"/>
			</g>
			<g>
				<polygon class="st0" points="73.9,68.1 70.8,67.2 72,71.6 				"/>
				<path class="st0" d="M72,71.8C72,71.8,72,71.8,72,71.8c-0.1,0-0.2-0.1-0.2-0.1l-1.1-4.4c0-0.1,0-0.1,0.1-0.2c0,0,0.1-0.1,0.2,0
					l3,0.9c0.1,0,0.1,0.1,0.1,0.1c0,0.1,0,0.1,0,0.2l-1.9,3.6C72.1,71.8,72,71.8,72,71.8z M71.1,67.5l0.9,3.6l1.6-2.9L71.1,67.5z"/>
			</g>
			<g>
				<path class="st0" d="M78.1,55.6c0.2,0.6,0.1,1.2-0.2,1.3c-0.2,0.1-0.6-0.4-0.7-1c-0.2-0.6-0.1-1.2,0.2-1.3
					C77.7,54.5,78,54.9,78.1,55.6z"/>
			</g>
			<g>
				<path class="st0" d="M78.2,62.5c-1.1,0-2-0.7-2-0.7c-0.1-0.1-0.1-0.2,0-0.3c0.1-0.1,0.2-0.1,0.3,0c0,0,1.3,1,2.4,0.5
					c0.1,0,0.2,0,0.2,0.1c0,0.1,0,0.2-0.1,0.2C78.7,62.4,78.4,62.5,78.2,62.5z"/>
			</g>
		</g>
		<g>
			<path class="st0" d="M76.5,47c0,0,1.6,2.8,0.5,4.6c-1.1,1.8-3.8,2.6-5.3,4.3c-1.5,1.7-2.3,4.6-2.8,4.9c-0.6,0.2-2.3-3.2-3.3-2.9
				s-2.7,2.6-1.2,5.1c1.5,2.5,4.1,2.1,4.1,2.1s-4.1,2.1-4.9,2.1c-0.8,0-3.2-1.4-4.3-2.6c-1.1-1.2-5.2-5-5.4-8
				c-0.2-3.1,3.8-6.9,3.8-6.9s-4.9-0.3-3.6-2.1c1.2-1.8,5.7-2.9,5.7-2.9s-0.8-2.8,0.3-3.4c1.1-0.6,8,1.7,8,1.7s-1.9-2.5,0.8-2.6
				C71.5,40.2,76.1,43.6,76.5,47z"/>
			<path class="st0" d="M63.5,67.5c-0.8,0-3.3-1.4-4.4-2.7c-0.2-0.2-0.4-0.4-0.6-0.7c-1.6-1.7-4.6-4.8-4.8-7.5
				c-0.2-2.7,2.7-5.8,3.6-6.8c-0.9-0.1-3.1-0.4-3.5-1.4c-0.2-0.3-0.1-0.7,0.1-1c1.1-1.7,4.7-2.7,5.6-3c-0.2-0.7-0.6-2.9,0.5-3.4
				c1-0.5,6,1,7.7,1.5c-0.3-0.5-0.6-1.2-0.3-1.7c0.2-0.4,0.7-0.7,1.5-0.7c2.9-0.1,7.5,3.4,7.9,6.8c0.2,0.3,1.5,3,0.4,4.8
				c-0.6,1-1.8,1.7-2.9,2.4c-0.9,0.6-1.8,1.1-2.5,1.9c-0.8,0.9-1.4,2.2-1.9,3.2c-0.5,1-0.7,1.6-1,1.7c-0.4,0.1-0.8-0.3-1.5-1.2
				C66.8,59,66,58,65.5,58.1c-0.4,0.1-1,0.6-1.4,1.5c-0.3,0.6-0.6,1.9,0.3,3.3c1.4,2.4,3.9,2.1,3.9,2.1c0.1,0,0.2,0,0.2,0.1
				c0,0.1,0,0.2-0.1,0.2C68,65.5,64.3,67.5,63.5,67.5z M60.5,41.4c-0.2,0-0.4,0-0.5,0.1c-0.8,0.4-0.5,2.4-0.2,3.2c0,0,0,0.1,0,0.1
				c0,0-0.1,0.1-0.1,0.1c0,0-4.4,1.1-5.5,2.9c-0.2,0.3-0.2,0.5-0.1,0.7c0.4,0.8,2.7,1.1,3.6,1.2c0.1,0,0.1,0.1,0.2,0.1
				c0,0.1,0,0.1,0,0.2c0,0-4,3.8-3.8,6.7c0.2,2.6,3.1,5.6,4.7,7.2c0.3,0.3,0.5,0.5,0.6,0.7c1.2,1.3,3.5,2.5,4.2,2.5
				c0.5,0,2.5-1,4.1-1.8c-0.9-0.1-2.5-0.5-3.5-2.2c-0.9-1.6-0.6-3-0.3-3.7c0.4-0.9,1-1.6,1.6-1.7c0.7-0.2,1.5,0.8,2.2,1.8
				c0.3,0.4,0.9,1.1,1,1.1c0.2-0.1,0.5-0.8,0.8-1.5c0.5-1.1,1.1-2.4,1.9-3.3c0.7-0.8,1.6-1.4,2.6-2c1.1-0.7,2.1-1.4,2.7-2.3
				c1.1-1.7-0.4-4.4-0.5-4.4c0,0,0,0,0-0.1c-0.3-3.2-4.6-6.5-7.4-6.5c0,0-0.1,0-0.1,0c-0.7,0-1.1,0.2-1.2,0.5
				c-0.3,0.5,0.3,1.5,0.6,1.8c0.1,0.1,0.1,0.2,0,0.2c0,0.1-0.1,0.1-0.2,0.1C65.5,42.4,62,41.4,60.5,41.4z"/>
		</g>
		<g>
			<g>
				<path class="st0" d="M67.5,59.5c-0.1,0-0.1,0-0.2-0.1c0-0.1,0-0.2,0.1-0.2l14.4-5.8c0.1,0,0.2,0,0.2,0.1c0,0.1,0,0.2-0.1,0.2
					L67.5,59.5C67.5,59.5,67.5,59.5,67.5,59.5z"/>
			</g>
			<g>
				<path class="st0" d="M80.4,57.4c-0.1,0-0.1,0-0.2-0.1c-0.1-0.1,0-0.2,0.1-0.3c0.7-0.4,1.2-1.2,1.2-2.1c0-1.3-1.1-2.4-2.4-2.4
					c-0.3,0-0.6,0.1-0.9,0.2c-0.1,0-0.2,0-0.2-0.1c0-0.1,0-0.2,0.1-0.2c0.3-0.1,0.7-0.2,1.1-0.2c1.5,0,2.7,1.2,2.7,2.7
					C81.9,56,81.3,56.9,80.4,57.4C80.4,57.4,80.4,57.4,80.4,57.4z"/>
			</g>
		</g>
	</g>
	<g>
		<g>
			<path class="st1" d="M72.8,79.2c0,0-0.1-3.3-1-4.2c-0.9-0.9-7.6-4.6-10.6-5.4c-3.1-0.8-6.2,0.3-8.3,1c-2,0.7-3.4,2.6-4.2,6.8
				c-0.8,4.2-0.9,6.8,0.8,7c1.7,0.2,4.1-4.9,9.4-5.9c5.3-1,10.2-0.1,11.3,0.5C71.4,79.6,72.8,79.2,72.8,79.2z"/>
			<path class="st0" d="M49.7,84.6c0,0-0.1,0-0.1,0c-0.4-0.1-0.8-0.3-1-0.6c-0.7-0.9-0.6-2.8,0.1-6.6c0.8-4.1,2.1-6.2,4.3-6.9
				l0.2-0.1c2-0.7,5.1-1.7,8.1-0.9C64.3,70.3,71,74,72,74.9c0.9,0.9,1.1,4.2,1.1,4.3c0,0.1-0.1,0.2-0.1,0.2c-0.1,0-1.5,0.3-2.7-0.2
				c-1.1-0.5-5.9-1.5-11.2-0.4c-3.1,0.6-5.2,2.6-6.8,4.1C51.2,83.9,50.4,84.6,49.7,84.6z M59,69.6c-2.2,0-4.2,0.7-5.7,1.2L53,70.8
				c-2.1,0.7-3.3,2.7-4.1,6.6c-0.5,2.6-0.9,5.3-0.1,6.3c0.2,0.3,0.4,0.4,0.8,0.4c0.6,0.1,1.4-0.7,2.4-1.6c1.6-1.5,3.7-3.6,7-4.2
				c5.4-1,10.3-0.1,11.4,0.5c0.9,0.4,1.9,0.3,2.3,0.2c-0.1-1-0.3-3.2-1-3.9c-0.8-0.8-7.4-4.6-10.5-5.4C60.4,69.6,59.7,69.6,59,69.6z
				"/>
		</g>
		<g>
			<path class="st0" d="M54,76.6c-0.1,0-0.1,0-0.2-0.1c0-0.1,0-0.2,0.1-0.2c0,0,0.7-0.3,1.7-0.6c0.1,0,0.2,0,0.2,0.1
				c0,0.1,0,0.2-0.1,0.2C54.7,76.3,54,76.6,54,76.6C54,76.6,54,76.6,54,76.6z"/>
		</g>
		<g>
			<path class="st0" d="M72.8,79.4C72.8,79.4,72.8,79.4,72.8,79.4c-0.2-0.1-7.2-4-9.8-4.8c-1.1-0.3-3-0.1-5.7,0.7
				c-0.1,0-0.2,0-0.2-0.1c0-0.1,0-0.2,0.1-0.2c2.8-0.8,4.8-1.1,5.9-0.7c2.6,0.8,9.5,4.6,9.8,4.8c0.1,0.1,0.1,0.2,0.1,0.3
				C73,79.4,72.9,79.4,72.8,79.4z"/>
		</g>
	</g>
	<g>
		<g>
			<path class="st2" d="M106.4,97.6c0,0-0.4,2.3-0.8,2.6c-0.4,0.3-0.4-2.2-0.4-2.2s-0.5,1.4-0.9,1.7c-0.3,0.3-0.1-1.4-0.1-1.4
				l0.4-1.7L106.4,97.6z"/>
			<path class="st0" d="M105.5,100.5c0,0-0.1,0-0.1,0c-0.2-0.1-0.3-0.8-0.4-1.5c-0.2,0.4-0.4,0.8-0.6,1c-0.1,0.1-0.3,0.1-0.3,0.1
				c-0.1,0-0.3-0.2-0.1-1.7l0.4-1.7c0-0.1,0.1-0.1,0.1-0.1c0.1,0,0.1,0,0.2,0l1.8,0.9c0.1,0,0.1,0.1,0.1,0.2
				c-0.1,0.6-0.4,2.5-0.9,2.7C105.7,100.4,105.6,100.5,105.5,100.5z M105.2,97.9C105.2,97.9,105.2,97.9,105.2,97.9
				c0.1,0,0.2,0.1,0.2,0.2c0,0.9,0.1,1.7,0.2,2c0.2-0.3,0.5-1.3,0.6-2.3l-1.5-0.8l-0.3,1.4c0,0.4-0.1,0.8-0.1,1.1
				c0.3-0.4,0.6-1.2,0.7-1.5C105.1,97.9,105.1,97.9,105.2,97.9z"/>
		</g>
		<g>
			<path class="st2" d="M101.6,95.3l3.5,0.1c0,0,0.9,0.1,1,0.7c0.1,0.5,0.7,1.7,0.7,1.7l-5.4-1.6L101.6,95.3z"/>
			<path class="st0" d="M106.8,97.9C106.8,97.9,106.8,97.9,106.8,97.9l-5.4-1.6c-0.1,0-0.2-0.1-0.1-0.2l0.2-0.8
				c0-0.1,0.1-0.1,0.2-0.1l3.5,0.1c0.1,0,1.1,0.2,1.2,0.8c0.1,0.5,0.6,1.7,0.6,1.7c0,0.1,0,0.1,0,0.2
				C106.9,97.9,106.9,97.9,106.8,97.9z M101.7,96l4.8,1.4c-0.2-0.4-0.4-1-0.5-1.4c-0.1-0.3-0.7-0.5-0.9-0.5l-3.3-0.1L101.7,96z"/>
		</g>
		<g>
			<path class="st2" d="M102.9,96.4c0,0,4.8-0.7,5-0.3c0.1,0.3,0.5,3,0.6,3.8c0,0.1-0.2,0.2-0.2,0.1l-1.4-2.3l-3.7,0.3
				C103.1,98,102.1,97.1,102.9,96.4z"/>
			<path class="st0" d="M108.3,100.3c-0.1,0-0.2,0-0.3-0.1l-1.3-2.3l-3.5,0.3c0,0-0.1,0-0.1,0c0,0-0.6-0.6-0.6-1.2
				c0-0.3,0.1-0.5,0.4-0.7c0,0,0.1,0,0.1,0c5-0.7,5.1-0.3,5.2-0.1c0.1,0.3,0.5,3,0.6,3.9c0,0.1-0.1,0.3-0.2,0.3
				C108.3,100.3,108.3,100.3,108.3,100.3z M106.8,97.5c0.1,0,0.1,0,0.2,0.1l1.2,2.1c-0.1-1-0.4-3.1-0.5-3.5
				c-0.4-0.1-2.7,0.1-4.7,0.3c-0.1,0.1-0.2,0.2-0.2,0.4c0,0.3,0.3,0.7,0.4,0.8L106.8,97.5C106.8,97.5,106.8,97.5,106.8,97.5z"/>
		</g>
		<g>
			<path class="st1" d="M62.7,81.7c0,0-3,2.2-2,7.7c1,5.5,8.4,20.5,9,21.9c0.7,1.3,3.5,1.4,4.8,1c1.3-0.4,24.6-9.7,24.6-9.7
				s2.5-0.7,2.9-1.2c0.4-0.5,2.9-3.3,2.9-3.3s3.9,0.5,4.8,0.3c0.9-0.3-0.9-0.5-1.8-0.8c-0.7-0.2-4.6-1.7-6.3-2.4
				c-0.5-0.2-1.1-0.1-1.5,0.3c-1.2,1.3-3.8,3.9-4.3,4.3c-0.7,0.5-19.1,3.7-19.1,3.7s-4.3-20.3-6-22C69,79.9,66,80.3,66,80.3"/>
			<path class="st0" d="M73,112.8c-1.4,0-2.9-0.4-3.4-1.3c-0.1-0.2-7.9-16.1-9-21.9c-1.1-5.5,1.9-7.8,2-7.9c0.1-0.1,0.2,0,0.3,0
				c0.1,0.1,0,0.2,0,0.3c0,0-2.9,2.2-1.9,7.5c1,5,7.5,18.7,9,21.8c0.6,1.2,3.4,1.3,4.6,1c1.3-0.4,24.4-9.6,24.6-9.7
				c1-0.3,2.5-0.8,2.8-1.1c0.4-0.5,2.8-3.2,2.9-3.3c0,0,0.1-0.1,0.2-0.1c1.1,0.1,3.9,0.5,4.7,0.3c-0.2-0.1-0.7-0.2-1-0.2
				c-0.3-0.1-0.6-0.1-0.8-0.2c-0.7-0.2-4.7-1.8-6.4-2.4c-0.4-0.2-1-0.1-1.3,0.3c-1.4,1.4-3.9,3.9-4.4,4.3
				c-0.7,0.5-16.1,3.2-19.2,3.7c-0.1,0-0.2,0-0.2-0.1c-1.5-7-4.7-20.6-6-21.9c-1.6-1.6-4.5-1.3-4.6-1.3c-0.1,0-0.2-0.1-0.2-0.2
				c0-0.1,0.1-0.2,0.2-0.2c0.1,0,3.1-0.4,4.9,1.4c1.7,1.7,5.6,19.8,6,21.9c7.3-1.3,18.3-3.2,18.8-3.6c0.5-0.4,3.2-3.1,4.3-4.3
				c0.4-0.5,1.1-0.6,1.7-0.4c1.7,0.7,5.6,2.2,6.3,2.4c0.2,0.1,0.5,0.1,0.8,0.2c1.1,0.2,1.4,0.3,1.4,0.6c0,0.2-0.3,0.3-0.4,0.3
				c-0.9,0.2-4.2-0.2-4.8-0.2c-0.4,0.4-2.5,2.7-2.8,3.2c-0.4,0.6-2.7,1.2-3,1.2c-0.9,0.4-23.3,9.3-24.6,9.7
				C74.2,112.7,73.6,112.8,73,112.8z"/>
		</g>
		<g>
			<path class="st2" d="M87,107.5c6.1-2.4,12.2-4.8,12.2-4.8s2.5-0.7,2.9-1.2c0.4-0.5,2.9-3.3,2.9-3.3s3.9,0.5,4.8,0.3
				c0.9-0.3-0.9-0.5-1.8-0.8c-0.7-0.2-4.6-1.7-6.3-2.4c-0.5-0.2-1.1-0.1-1.5,0.3c-1.2,1.3-3.8,3.9-4.3,4.3
				c-0.3,0.3-5.5,1.3-10.4,2.1L87,107.5z"/>
			<path class="st0" d="M87,107.7C87,107.7,87,107.7,87,107.7c-0.1,0-0.2-0.1-0.2-0.1l-1.6-5.5c0-0.1,0-0.1,0-0.2
				c0,0,0.1-0.1,0.1-0.1c8.8-1.6,10.1-2,10.3-2.1c0.5-0.4,3.2-3.1,4.3-4.3c0.4-0.5,1.1-0.6,1.7-0.4c1.7,0.7,5.6,2.2,6.3,2.4
				c0.2,0.1,0.5,0.1,0.8,0.2c1.1,0.2,1.4,0.3,1.4,0.6c0,0.2-0.3,0.3-0.4,0.3c-0.9,0.2-4.2-0.2-4.8-0.2c-0.4,0.4-2.5,2.7-2.8,3.2
				c-0.4,0.6-2.7,1.2-3,1.2C99.3,102.9,93.2,105.3,87,107.7C87.1,107.7,87.1,107.7,87,107.7z M85.7,102.2l1.5,5.1
				c6-2.4,12-4.8,12-4.8c1-0.3,2.5-0.8,2.8-1.1c0.4-0.5,2.8-3.2,2.9-3.3c0,0,0.1-0.1,0.2-0.1c1.1,0.1,3.9,0.5,4.7,0.3
				c-0.2-0.1-0.7-0.2-1-0.2c-0.3-0.1-0.6-0.1-0.8-0.2c-0.7-0.2-4.7-1.8-6.4-2.4c-0.4-0.2-1-0.1-1.3,0.3c-1.4,1.4-3.9,3.9-4.4,4.3
				C95.8,100.2,95.5,100.4,85.7,102.2z"/>
		</g>
	</g>
	<g>
		<g>
			<g>
				<path class="st5" d="M46.1,133.3l-5.7,37.9c-0.1,0.4,0.5,0.5,0.6,0.2l8.6-37.4L46.1,133.3z"/>
				<path class="st0" d="M40.7,171.7c0,0-0.1,0-0.1,0c-0.2-0.1-0.4-0.3-0.4-0.6l5.7-37.9c0-0.1,0-0.1,0.1-0.1c0,0,0.1,0,0.1,0
					l3.5,0.6c0.1,0,0.1,0,0.1,0.1c0,0,0,0.1,0,0.1l-8.6,37.4C41.1,171.6,40.9,171.7,40.7,171.7z M46.3,133.5l-5.7,37.7
					c0,0.1,0.1,0.1,0.1,0.2c0,0,0.1,0,0.1-0.1l8.5-37.2L46.3,133.5z"/>
			</g>
			<g>
				<path class="st5" d="M54.6,133.5l2.5,37.6c0,0.4,0.6,0.4,0.6,0l0.4-37.9L54.6,133.5z"/>
				<path class="st0" d="M57.4,171.6c-0.2,0-0.5-0.2-0.5-0.5l-2.5-37.6c0-0.1,0.1-0.2,0.2-0.2l3.5-0.3c0.1,0,0.1,0,0.1,0
					c0,0,0.1,0.1,0.1,0.1l-0.4,37.9C57.9,171.4,57.7,171.6,57.4,171.6C57.4,171.6,57.4,171.6,57.4,171.6z M54.8,133.7l2.5,37.4
					c0,0.1,0.1,0.1,0.1,0.1c0,0,0.1,0,0.1-0.1l0.4-37.7L54.8,133.7z"/>
			</g>
			<g>
				<path class="st5" d="M63,134.1l6.8,36.9c0.1,0.4,0.7,0.3,0.6-0.1l-4-37.6L63,134.1z"/>
				<path class="st0" d="M70.1,171.4c-0.2,0-0.4-0.1-0.5-0.4l-6.8-36.9c0-0.1,0-0.2,0.1-0.2l3.5-0.8c0.1,0,0.1,0,0.2,0
					c0,0,0.1,0.1,0.1,0.1l4,37.6C70.6,171.2,70.4,171.4,70.1,171.4C70.2,171.4,70.1,171.4,70.1,171.4z M63.2,134.2L70,171
					c0,0.1,0.1,0.1,0.1,0.1c0,0,0.1,0,0.1-0.1l-3.9-37.4L63.2,134.2z"/>
			</g>
			<g>
				<path class="st5" d="M76.2,133.8l5.6,37.2c0.1,0.4,0.6,0.3,0.6-0.1l-2.7-37.7L76.2,133.8z"/>
				<path class="st0" d="M82,171.4c-0.2,0-0.4-0.1-0.5-0.4L76,133.8c0-0.1,0.1-0.2,0.1-0.2l3.5-0.7c0.1,0,0.1,0,0.1,0
					c0,0,0.1,0.1,0.1,0.1l2.7,37.7C82.5,171.2,82.3,171.4,82,171.4C82.1,171.4,82,171.4,82,171.4z M76.4,133.9l5.5,37
					c0,0.1,0.1,0.1,0.1,0.1c0,0,0.1,0,0.1-0.1l-2.7-37.5L76.4,133.9z"/>
			</g>
		</g>
		<g>
			<path class="st2" d="M70.8,126.2c0,0-6.5-2.2-9.6-10c-3.1-7.9-8.1-21.4-11.6-23.1c-3.5-1.7-10.3,1.5-10.7,14.2
				c-0.4,12.7,0.6,22.1,3.4,25.2c2.5,2.7,6.7,6.2,21.4,6.5c13.1,0.2,18.5-4.8,20.3-6.5c1.9-1.7,4.8-5.3,2.4-5.3
				S73.9,127.1,70.8,126.2z"/>
			<path class="st0" d="M64.7,139.1c-0.3,0-0.6,0-0.8,0c-13.9-0.2-18.6-3.3-21.6-6.5c-3.4-3.8-3.8-15.8-3.5-25.3
				c0.2-6.7,2.4-11.8,5.9-13.9c1.7-1,3.6-1.2,5.1-0.4c3.3,1.7,7.9,13.6,11,21.5l0.7,1.7c3,7.6,9.3,9.9,9.5,9.9
				c1.4,0.4,5.2,0.9,15.6,0.9c0.5,0,0.9,0.2,1,0.5c0.5,1.2-2.2,4.1-3.3,5.1C82.5,134.2,77.3,139.1,64.7,139.1z M47.8,92.8
				c-0.9,0-1.9,0.3-2.9,0.8c-1.6,1-5.4,4.2-5.7,13.6c-0.5,13.3,0.7,22.1,3.4,25c2.9,3.2,7.5,6.2,21.3,6.4c13,0.2,18.4-4.8,20.2-6.4
				c1.8-1.7,3.5-3.9,3.2-4.7c-0.1-0.2-0.3-0.3-0.7-0.3c-10.5,0-14.4-0.5-15.8-0.9c0,0,0,0,0,0c-0.1,0-6.7-2.3-9.7-10.1l-0.7-1.7
				c-3-7.8-7.6-19.7-10.8-21.3C49,93,48.4,92.8,47.8,92.8z"/>
		</g>
	</g>
	<g>
		<g>
			<g>
				<path class="st2" d="M101.1,48.6c0,0-2.6-3-6.1-3.5c-3.5-0.6-3.8,4.6,0.8,6.9c1.9,1,4.1,0.6,4.1,0.6s-3.6,4.3-1.3,5
					c5.3,1.5,4.1-6.5,4.1-6.5L101.1,48.6z"/>
				<path class="st0" d="M99.7,57.9c-0.4,0-0.8-0.1-1.3-0.2c-0.5-0.1-0.7-0.4-0.9-0.8c-0.4-1.2,1.1-3.3,1.8-4.1
					c-0.7,0-2.3,0-3.7-0.7c-2.8-1.4-3.9-4-3.4-5.7c0.4-1.2,1.4-1.7,2.7-1.5c3.6,0.6,6.1,3.5,6.2,3.6c0,0,0,0,0,0l1.6,2.4
					c0,0,0,0,0,0.1c0,0.2,0.6,4.6-1.3,6.3C101,57.7,100.4,57.9,99.7,57.9z M99.8,52.3c0.1,0,0.1,0,0.2,0.1c0,0.1,0,0.2,0,0.2
					c-0.7,0.8-2.3,3-2,4.1c0.1,0.3,0.3,0.4,0.6,0.5c1.1,0.3,2,0.2,2.7-0.3c1.7-1.5,1.2-5.5,1.2-5.9l-1.5-2.4c-0.2-0.2-2.6-2.9-6-3.5
					c-1.2-0.2-2,0.3-2.3,1.2c-0.5,1.6,0.6,4,3.2,5.3C97.7,52.7,99.7,52.4,99.8,52.3C99.8,52.3,99.8,52.3,99.8,52.3z"/>
			</g>
			<g>
				<path class="st2" d="M101.9,48.4c0,0-1.5-3.6-0.4-7s5.6-1.1,5.5,4c0,2.2-1,3.7-1,3.7s5.7-1.2,5,1.1c-1.6,5.3-7.7,0.7-7.7,0.7
					L101.9,48.4z"/>
				<path class="st0" d="M108,52.9c-2.2,0-4.6-1.8-4.8-1.9c0,0,0,0,0-0.1l-1.4-2.5c0,0,0,0,0,0c-0.1-0.2-1.5-3.7-0.4-7.2
					c0.4-1.3,1.3-1.9,2.4-1.7c1.7,0.3,3.5,2.5,3.5,5.8c0,1.6-0.5,2.9-0.9,3.5c1.1-0.2,3.8-0.6,4.6,0.3c0.3,0.3,0.3,0.7,0.2,1.1
					c-0.4,1.3-1.1,2.2-2.2,2.5C108.7,52.9,108.4,52.9,108,52.9z M103.5,50.7c0.3,0.2,3.3,2.4,5.5,1.7c0.9-0.3,1.5-1.1,1.9-2.3
					c0.1-0.3,0.1-0.6-0.1-0.7c-0.7-0.8-3.6-0.4-4.7-0.1c-0.1,0-0.1,0-0.2-0.1c0-0.1,0-0.1,0-0.2c0,0,1-1.6,1-3.6
					c0-3-1.6-5.1-3.2-5.4c-0.9-0.2-1.6,0.4-2,1.5c-1,3.2,0.3,6.7,0.4,6.9L103.5,50.7z"/>
			</g>
			<g>
				<g>
					<path class="st0" d="M103.9,52.9c-0.1,0-0.3-0.1-0.3-0.2l-3.5-6c-0.1-0.2,0-0.4,0.1-0.5c0.2-0.1,0.4,0,0.5,0.1l3.5,6
						c0.1,0.2,0,0.4-0.1,0.5C104,52.9,104,52.9,103.9,52.9z"/>
				</g>
			</g>
			<g>
				<path class="st0" d="M100.6,47.5c-0.1,0-0.1,0-0.2-0.1c0,0-1.3-2.6-3.4-2.9c-0.1,0-0.2-0.1-0.2-0.2c0-0.1,0.1-0.2,0.2-0.2
					c2.3,0.3,3.6,3,3.7,3.1C100.8,47.3,100.8,47.4,100.6,47.5C100.7,47.5,100.7,47.5,100.6,47.5z"/>
			</g>
			<g>
				<path class="st0" d="M100.7,46.6c-0.1,0-0.2,0-0.2-0.1c0-0.1-0.8-2.3-0.2-3.8c0-0.1,0.1-0.1,0.2-0.1c0.1,0,0.1,0.1,0.1,0.2
					c-0.5,1.3,0.2,3.5,0.2,3.5C100.9,46.4,100.8,46.5,100.7,46.6C100.7,46.6,100.7,46.6,100.7,46.6z"/>
			</g>
		</g>
		<g>
			<path class="st1" d="M98.4,48.9c-0.1,0.7-1.1,1-2.2,0.8c-1.1-0.2-1.8-0.9-1.7-1.6c0.1-0.7,1.1-1,2.2-0.8
				C97.8,47.5,98.5,48.2,98.4,48.9z"/>
			<path class="st0" d="M96.8,50c-0.2,0-0.4,0-0.7-0.1c-0.6-0.1-1-0.4-1.4-0.7c-0.4-0.3-0.5-0.7-0.5-1.1c0.1-0.4,0.4-0.7,0.9-0.9
				c0.4-0.2,1-0.2,1.6-0.1c0.6,0.1,1,0.4,1.4,0.7c0.4,0.3,0.5,0.7,0.5,1.1c-0.1,0.4-0.4,0.7-0.9,0.9C97.5,49.9,97.2,50,96.8,50z
				 M96.1,47.4c-0.3,0-0.5,0-0.8,0.1c-0.4,0.1-0.6,0.3-0.6,0.6c-0.1,0.3,0.1,0.5,0.3,0.8c0.3,0.3,0.7,0.5,1.2,0.6
				c0.5,0.1,1,0.1,1.3-0.1c0.4-0.1,0.6-0.3,0.6-0.6c0.1-0.3-0.1-0.5-0.3-0.8c-0.3-0.3-0.7-0.5-1.2-0.6
				C96.5,47.5,96.3,47.4,96.1,47.4z"/>
		</g>
		<g>
			<path class="st1" d="M101.1,53.5c0.4,0.3,0.4,1,0,1.6c-0.4,0.6-1,0.9-1.4,0.7c-0.4-0.3-0.4-1,0-1.6
				C100,53.6,100.7,53.3,101.1,53.5z"/>
			<path class="st0" d="M99.9,56.1c-0.2,0-0.3,0-0.4-0.1c-0.5-0.3-0.5-1.1,0-1.8c0.5-0.7,1.2-1,1.7-0.7l0,0c0.5,0.3,0.5,1.1,0,1.8
				c-0.2,0.3-0.5,0.6-0.8,0.7C100.2,56,100,56.1,99.9,56.1z M100.8,53.6c-0.3,0-0.7,0.3-1,0.7c-0.3,0.5-0.4,1.1-0.1,1.3
				c0.2,0.1,0.4,0,0.5,0c0.2-0.1,0.5-0.3,0.6-0.6c0.3-0.5,0.4-1.1,0.1-1.3C100.9,53.7,100.8,53.6,100.8,53.6z"/>
		</g>
		<g>
			<path class="st1" d="M108.9,50.4c0,0.5-0.6,0.8-1.3,0.8c-0.7,0-1.4-0.4-1.4-0.8c0-0.5,0.6-0.8,1.3-0.8
				C108.2,49.6,108.9,50,108.9,50.4z"/>
			<path class="st0" d="M107.5,51.4c-0.8,0-1.5-0.4-1.5-1c0-0.6,0.7-1,1.5-1c0.9,0,1.5,0.4,1.5,1c0,0.3-0.2,0.6-0.5,0.7
				C108.3,51.3,107.9,51.4,107.5,51.4C107.5,51.4,107.5,51.4,107.5,51.4z M107.5,49.8C107.5,49.8,107.5,49.8,107.5,49.8
				c-0.7,0-1.2,0.3-1.2,0.7c0,0.3,0.5,0.6,1.2,0.6c0.3,0,0.6-0.1,0.9-0.2c0.1-0.1,0.3-0.2,0.3-0.4l0,0
				C108.7,50.1,108.1,49.8,107.5,49.8z"/>
		</g>
		<g>
			<path class="st1" d="M104.3,46.5c-0.7,0.1-1.3-0.8-1.4-1.8c-0.1-1.1,0.3-2,1-2.1c0.7-0.1,1.3,0.8,1.4,1.8
				C105.4,45.5,104.9,46.4,104.3,46.5z"/>
			<path class="st0" d="M104.2,46.7c-0.4,0-0.7-0.2-1-0.6c-0.3-0.4-0.5-0.9-0.5-1.5c-0.1-1.2,0.4-2.2,1.2-2.3c0.4,0,0.8,0.2,1.1,0.6
				c0.3,0.4,0.5,0.9,0.5,1.5c0.1,1.2-0.4,2.2-1.2,2.3l0,0C104.2,46.7,104.2,46.7,104.2,46.7z M103.9,42.7
				C103.9,42.7,103.9,42.7,103.9,42.7c-0.6,0.1-1,0.9-0.9,1.9c0.1,0.5,0.2,0.9,0.5,1.3c0.2,0.3,0.5,0.4,0.8,0.4l0,0
				c0.6-0.1,0.9-0.9,0.8-1.9c-0.1-0.5-0.2-0.9-0.5-1.3C104.4,42.9,104.1,42.7,103.9,42.7z"/>
		</g>
	</g>
</g>
<g id="Chair">
</g>
<g id="Table">
</g>
<g id="Clock">
</g>
<g id="Floor">
</g>
</svg>
