<svg width="127" height="39" viewBox="0 0 127 39" fill="none" xmlns="http://www.w3.org/2000/svg">
<path d="M35.0493 5.53776C35.4845 4.97904 35.9904 4.47798 36.5544 4.04684C37.1085 3.62856 37.7204 3.29142 38.3714 3.0458C38.9891 2.81017 39.6448 2.68749 40.3066 2.68372C40.977 2.68633 41.6414 2.809 42.2677 3.0458C42.9216 3.28947 43.5359 3.62673 44.0911 4.04684C44.6604 4.47606 45.167 4.98139 45.5962 5.54841C46.0325 6.11908 46.3717 6.7565 46.6004 7.43549L51.2342 20.596C51.539 21.4882 51.6973 22.4231 51.703 23.3649C51.7147 24.1112 51.542 24.849 51.1998 25.514C50.7267 26.3659 50.0408 26.7727 49.142 26.7727H47.396V22.9815H48.3615C48.3461 22.639 48.2735 22.3015 48.1464 21.9826L43.5385 8.77945C43.4079 8.47275 43.2342 8.18592 43.0224 7.92749C42.7947 7.64413 42.535 7.38758 42.2483 7.16286C41.9554 6.93212 41.6311 6.74354 41.285 6.6027C40.98 6.47101 40.6522 6.3987 40.3195 6.38972C39.985 6.39411 39.6549 6.46661 39.3498 6.6027C39.0146 6.74278 38.7 6.9269 38.4144 7.15008C38.1284 7.38229 37.8656 7.6412 37.6296 7.92323C37.4102 8.18117 37.2279 8.46786 37.0877 8.77519L32.555 21.9805C32.4077 22.2941 32.3251 22.6337 32.312 22.9794H33.2624V26.7706H31.5422C30.6413 26.7706 29.9575 26.3446 29.4823 25.5118C29.1114 24.868 28.9262 24.1357 28.9469 23.3947C28.9615 22.4434 29.1307 21.5005 29.4479 20.6024L34.015 7.43123C34.2541 6.7488 34.6034 6.10933 35.0493 5.53776Z" fill="#231F20"/>
<path d="M41.8426 16.3788H38.8301V20.17H41.8426V16.3788Z" fill="#EC1C24"/>
<path d="M71.9233 6.86889L59.3422 15.0221L71.9233 23.2307L70.1923 26.2977L57.7897 18.2169V26.6513H54.502V4.22357H57.7897V11.8699L70.1923 3.75073L71.9233 6.86889Z" fill="#231F20"/>
<path d="M80.1401 3.79126H76.8008V26.7642H80.1401V3.79126Z" fill="#231F20"/>
<path d="M101.128 14.4236C100.511 15.4023 99.6027 16.1673 98.5283 16.6131L101.347 26.6236H97.922L95.1567 17.0391H87.218V26.5789H83.9238V13.4183H96.5049C96.8158 13.4192 97.1232 13.3545 97.4069 13.2285C97.6905 13.1026 97.9438 12.9182 98.1499 12.6877C98.6064 12.2116 98.8552 11.5765 98.8423 10.9199V9.84008C98.8603 9.17126 98.6116 8.52233 98.1499 8.03394C97.9438 7.80346 97.6905 7.61911 97.4069 7.49314C97.1232 7.36718 96.8158 7.30249 96.5049 7.30339H84.0743V3.7337H96.5136C97.268 3.73018 98.0138 3.89392 98.6961 4.21292C99.3731 4.5266 99.9805 4.9704 100.483 5.51854C101.002 6.08512 101.41 6.7414 101.689 7.45461C101.982 8.21465 102.128 9.02241 102.119 9.83582V10.9242C102.136 12.1607 101.788 13.3752 101.119 14.4193L101.128 14.4236Z" fill="#231F20"/>
<path d="M109.971 5.53776C110.41 4.97753 110.921 4.47634 111.491 4.04684C112.046 3.62808 112.66 3.29092 113.312 3.0458C113.93 2.80925 114.585 2.68654 115.247 2.68372C115.919 2.68647 116.585 2.80913 117.213 3.0458C117.867 3.28992 118.482 3.62714 119.038 4.04684C119.606 4.47838 120.112 4.98341 120.544 5.54841C120.975 6.12127 121.313 6.75817 121.543 7.43549L126.162 20.596C126.469 21.4875 126.627 22.4229 126.629 23.3649C126.644 24.1108 126.473 24.8489 126.132 25.514C125.657 26.3659 124.971 26.7727 124.072 26.7727H122.324V22.9815H123.292C123.277 22.6389 123.204 22.3012 123.077 21.9826L118.466 8.77945C118.337 8.47286 118.165 8.186 117.955 7.92749C117.725 7.64405 117.464 7.38751 117.176 7.16286C116.884 6.93182 116.561 6.7432 116.215 6.6027C115.909 6.46922 115.58 6.39684 115.245 6.38972C114.916 6.39432 114.59 6.46686 114.291 6.6027C113.954 6.74097 113.638 6.92522 113.353 7.15008C113.061 7.37619 112.794 7.63251 112.558 7.91471C112.338 8.17311 112.154 8.45967 112.011 8.76667L107.479 21.972C107.332 22.2859 107.25 22.6253 107.236 22.9709H108.186V26.7621H106.466C105.569 26.7621 104.881 26.3361 104.408 25.5033C104.037 24.8594 103.851 24.1273 103.87 23.3862C103.887 22.435 104.056 21.4925 104.372 20.5939L108.932 7.42484C109.175 6.74514 109.526 6.10812 109.971 5.53776Z" fill="#231F20"/>
<path d="M116.766 16.3788H113.756V20.1678H116.766V16.3788Z" fill="#EC1C24"/>
<path d="M80.1401 0H76.8008V3.7912H80.1401V0Z" fill="#EC1C24"/>
<path fill-rule="evenodd" clip-rule="evenodd" d="M14.0239 2.79871C14.0531 2.72477 14.0677 2.64595 14.0669 2.56655C9.46109 2.53461 4.66604 2.5559 0.017202 2.5559C-1.60206e-08 2.5559 0 2.5772 0 2.5985V5.59525C3.61027 5.03083 6.34323 3.52074 10.1062 3.10329C11.349 2.96697 12.6585 2.87113 14.0175 2.79871H14.0239Z" fill="#FF3152"/>
<path fill-rule="evenodd" clip-rule="evenodd" d="M9.09985 5.07131C10.4717 4.76035 12.1597 4.82851 13.9229 4.79656C13.9229 4.49837 13.9035 4.15759 13.9229 3.89136C12.4951 3.98294 11.1275 4.06601 9.89974 4.25557C6.36689 4.80934 3.61242 6.23636 0 6.73049V11.1841C2.07284 9.90615 3.65542 8.10214 5.6444 6.71133C6.67685 5.94842 7.85108 5.39474 9.09985 5.08196V5.07131Z" fill="#FF3152"/>
<path fill-rule="evenodd" clip-rule="evenodd" d="M6.86574 17.3138C7.34151 16.4806 7.89204 15.6914 8.51068 14.956C10.4051 12.8133 13.0843 11.578 15.7291 10.1254C15.4818 9.78039 15.2668 9.41618 15.0517 9.05835C11.9554 9.98698 9.74493 11.6568 8.11504 14.1403C7.33235 15.3351 6.66577 16.6407 5.76267 17.7802C5.10292 18.6187 4.32015 19.3545 3.4404 19.9634C3.21032 20.121 2.75447 20.4554 2.45773 20.4852C2.36003 20.4958 2.26116 20.4873 2.16678 20.4601C2.0724 20.4329 1.98436 20.3876 1.90768 20.3266C1.831 20.2657 1.76719 20.1904 1.7199 20.1051C1.6726 20.0197 1.64275 19.926 1.63204 19.8292C1.55678 19.2051 2.1567 19.0773 2.54589 18.8154C5.91748 16.53 6.8808 11.9273 10.1578 9.56953C11.3447 8.71757 12.9122 8.26391 14.4927 7.7506C14.2704 7.14836 14.1175 6.52318 14.0368 5.88695C13.0788 5.866 12.1205 5.90941 11.1684 6.01688C9.17627 6.21522 7.27447 6.93975 5.6616 8.11481C3.71348 9.51202 2.18465 11.3927 0 12.5854V26.4553C1.47272 25.2634 2.76909 23.8725 3.85109 22.3233C4.98428 20.7599 5.85298 18.99 6.86144 17.3138H6.86574Z" fill="#FF3152"/>
<path fill-rule="evenodd" clip-rule="evenodd" d="M10.5355 17.7675C12.0063 14.9816 14.4554 13.2458 16.8701 11.4055C16.7819 11.2843 16.6761 11.1767 16.5562 11.0861C14.836 11.938 13.0212 12.7729 11.5461 13.7761C8.53577 15.8293 7.00695 19.4459 5.05022 22.5406C4.09942 24.0155 2.95799 25.3609 1.65498 26.5426C1.62917 26.5661 1.56897 26.6129 1.58187 26.6619H6.76182C8.48202 24.0933 9.07118 20.5428 10.5377 17.7675H10.5355Z" fill="#FF3152"/>
<path fill-rule="evenodd" clip-rule="evenodd" d="M14.6867 14.9262C13.6182 15.8872 12.7269 17.0253 12.0526 18.2893C10.67 20.8643 9.86369 23.9974 8.45312 26.6597H10.9238C11.3194 25.1177 11.6118 23.6417 12.186 22.3638C13.8524 18.5555 17.0584 16.2574 19.4473 13.1882C19.4925 13.1307 19.5699 13.0434 19.5484 12.9986C19.0574 12.8079 18.5815 12.5808 18.1249 12.3192C17.5444 12.6919 16.9208 13.1584 16.3467 13.5971C15.7726 14.0359 15.2049 14.4661 14.6867 14.9347V14.9262Z" fill="#FF3152"/>
<path fill-rule="evenodd" clip-rule="evenodd" d="M17.5501 19.4672C18.8037 17.4949 20.2616 15.6973 21.4442 13.6739C21.4765 13.6228 21.5345 13.5546 21.5173 13.4865C21.2808 13.4396 21.0335 13.4034 20.8013 13.3566C20.387 13.8848 19.957 14.3988 19.5112 14.8986C19.0811 15.3863 18.6511 15.8528 18.1888 16.3235C15.4665 19.1349 13.0282 22.1104 12.0605 26.662H14.7484C15.19 24.104 16.1401 21.6585 17.5437 19.4672H17.5501Z" fill="#FF3152"/>
<path fill-rule="evenodd" clip-rule="evenodd" d="M21.3261 21.7249C21.0883 22.1903 20.9424 22.6963 20.896 23.2158C20.8788 23.4011 20.9089 23.6034 20.8831 23.8313C20.8079 24.4703 19.8876 24.3851 19.7499 23.8888C19.6123 23.3926 19.7908 22.6514 19.8983 22.2723C20.3026 20.841 21.2186 19.9166 21.9711 18.8644C23.0097 17.414 23.6763 15.7527 23.9666 13.5802C23.7516 13.5802 23.4398 13.5908 23.2054 13.6079C22.0615 15.7484 20.5133 17.5673 19.2683 19.6312C18.0233 21.6951 16.9417 23.9144 16.3418 26.6449C18.9716 26.6811 21.668 26.6449 24.3214 26.662V17.0391C23.6526 18.8687 22.1475 20.021 21.3261 21.7249Z" fill="#FF3152"/>
<path fill-rule="evenodd" clip-rule="evenodd" d="M8.05718 26.9814C8.08299 26.9366 8.13674 26.8898 8.11524 26.8323H6.881C6.43211 27.4914 5.90353 28.0936 5.30702 28.6256C4.8651 29.0135 4.38786 29.3601 3.8814 29.6608C3.71153 29.7609 3.50726 29.861 3.45135 30.0676C3.42813 30.1539 3.42539 30.2444 3.44334 30.332C3.46129 30.4196 3.49945 30.5018 3.55484 30.5724C3.61023 30.6429 3.68134 30.6998 3.76261 30.7386C3.84388 30.7774 3.93311 30.797 4.02332 30.796C4.25554 30.796 4.49852 30.583 4.70065 30.4616C6.08575 29.5871 7.23604 28.3929 8.05288 26.9814" fill="#FF3152"/>
<path fill-rule="evenodd" clip-rule="evenodd" d="M11.0527 26.8791C10.4786 29.1475 9.97759 31.2284 8.93903 33.0558C8.07893 34.5851 6.82748 35.8523 4.89441 36.2868C4.60843 36.3507 4.16978 36.372 4.10097 36.5488C4.06694 36.6632 4.07909 36.7862 4.13485 36.8919C4.1906 36.9976 4.28562 37.0777 4.39985 37.1154C4.61488 37.1814 5.04493 37.0621 5.33736 36.9876C6.1504 36.776 6.90747 36.3923 7.55642 35.863C10.0486 33.8822 10.9388 30.3253 11.8333 26.8365H11.0678C11.0506 26.8365 11.0506 26.86 11.0527 26.8834" fill="#FF3152"/>
<path fill-rule="evenodd" clip-rule="evenodd" d="M14.8895 26.8791C14.7094 27.9625 14.596 29.0558 14.5498 30.1528C14.5347 30.4765 14.4552 31.0516 14.5648 31.288C14.7541 31.6927 15.483 31.5968 15.6249 31.2454C15.6638 31.0599 15.6775 30.8701 15.6658 30.681C15.6984 29.3889 15.8473 28.1024 16.1109 26.8365H14.9175C14.8981 26.8365 14.9046 26.8706 14.8895 26.8834" fill="#FF3152"/>
<path d="M29.1365 33.3179C29.1924 32.2124 29.9773 31.7354 31.0717 31.7354C31.9125 31.7354 32.8263 31.9931 32.8263 33.2561V35.7544C32.8194 35.8007 32.8233 35.8479 32.8378 35.8924C32.8523 35.9369 32.8769 35.9775 32.9097 36.0111C32.9426 36.0446 32.9828 36.0703 33.0272 36.086C33.0717 36.1017 33.1192 36.107 33.1661 36.1016C33.2287 36.1007 33.2907 36.0885 33.3488 36.0654V36.5489C33.2249 36.578 33.0977 36.5909 32.9704 36.5872C32.3791 36.5872 32.2888 36.2592 32.2888 35.763H32.2544C31.848 36.3764 31.433 36.7235 30.5191 36.7235C29.644 36.7235 28.9258 36.2976 28.9258 35.3434C28.9258 34.0186 30.2267 33.976 31.4803 33.8269C31.9598 33.7737 32.2264 33.7098 32.2264 33.1879C32.2264 32.4127 31.6652 32.2252 30.9814 32.2252C30.2611 32.2252 29.7278 32.5532 29.7085 33.32L29.1365 33.3179ZM32.235 34.0101H32.2157C32.1426 34.1464 31.8845 34.1954 31.7276 34.2231C30.7406 34.3977 29.5149 34.3892 29.5149 35.3093C29.5149 35.8844 30.0289 36.2422 30.5772 36.2422C31.4631 36.2422 32.2458 35.6863 32.235 34.7513V34.0101Z" fill="#040405"/>
<path d="M37.2622 30.0634H36.6816V36.5872H37.2622V30.0634Z" fill="#040405"/>
<path d="M40.5918 31.8716H41.2111L42.4281 35.912H42.4475L43.6064 31.8716H44.2623L45.4234 35.912H45.4428L46.6598 31.8716H47.2791L45.7481 36.5872H45.1095L43.9397 32.6256H43.9247L42.7592 36.5872H42.1228L40.5918 31.8716Z" fill="#040405"/>
<path d="M50.5453 33.3179C50.6012 32.2124 51.3839 31.7354 52.4805 31.7354C53.3191 31.7354 54.233 31.9931 54.233 33.2561V35.7544C54.2268 35.8009 54.2314 35.8482 54.2464 35.8927C54.2614 35.9371 54.2864 35.9776 54.3196 36.0111C54.3527 36.0445 54.3931 36.0701 54.4377 36.0858C54.4823 36.1014 54.53 36.1069 54.577 36.1016C54.6396 36.1003 54.7015 36.0881 54.7598 36.0654V36.5489C54.6351 36.578 54.5072 36.5909 54.3792 36.5872C53.7879 36.5872 53.6997 36.2592 53.6997 35.763H53.6825C53.274 36.3764 52.859 36.7235 51.9451 36.7235C51.0699 36.7235 50.3496 36.2976 50.3496 35.3434C50.3496 34.0186 51.6527 33.976 52.9063 33.8269C53.3815 33.7737 53.6524 33.7098 53.6524 33.1879C53.6524 32.4127 53.089 32.2252 52.4031 32.2252C51.7172 32.2252 51.1538 32.5532 51.1344 33.32L50.5453 33.3179ZM53.6438 34.0101H53.6244C53.5492 34.1464 53.2933 34.1954 53.1342 34.2231C52.1494 34.3977 50.9216 34.3892 50.9216 35.3093C50.9216 35.8844 51.4376 36.2422 51.9838 36.2422C52.8697 36.2422 53.6524 35.6863 53.6438 34.7513V34.0101Z" fill="#040405"/>
<path d="M57.5488 31.8716H58.1659L59.7356 35.8949L61.1999 31.8716H61.7827L59.7141 37.3071C59.383 38.1036 59.1852 38.3315 58.4627 38.3315C58.313 38.3379 58.1632 38.3236 58.0176 38.2889V37.8012C58.1491 37.829 58.283 37.8447 58.4175 37.848C58.9293 37.848 59.0626 37.5477 59.2432 37.109L59.4453 36.5701L57.5488 31.8716Z" fill="#040405"/>
<path d="M67.8991 33.256C67.8669 32.5425 67.3164 32.223 66.652 32.223C66.1381 32.223 65.5274 32.4232 65.5274 33.0345C65.5274 33.5456 66.1187 33.7288 66.5144 33.831L67.2884 34.0014C67.9529 34.1037 68.6474 34.4871 68.6474 35.3092C68.6474 36.3294 67.6217 36.7234 66.7358 36.7234C65.6306 36.7234 64.8716 36.2144 64.7812 35.0621H65.3683C65.4156 35.8395 65.994 36.2399 66.7702 36.2399C67.3121 36.2399 68.0604 36.0014 68.0604 35.3433C68.0604 34.798 67.5465 34.6148 67.0175 34.4913L66.2714 34.3252C65.5166 34.125 64.9447 33.8694 64.9447 33.0643C64.9447 32.108 65.8951 31.7395 66.7337 31.7395C67.6819 31.7395 68.4367 32.2358 68.4775 33.2602L67.8991 33.256Z" fill="#040405"/>
<path d="M80.7929 33.3541C80.6359 32.6512 80.2016 32.2188 79.4468 32.2188C78.3287 32.2188 77.7761 33.2263 77.7761 34.2316C77.7761 35.2369 78.3287 36.2401 79.4468 36.2401C79.8063 36.2312 80.149 36.0876 80.4056 35.8381C80.6623 35.5886 80.8137 35.2519 80.8294 34.8961H81.41C81.253 36.0313 80.5047 36.7235 79.4468 36.7235C77.9911 36.7235 77.1934 35.5841 77.1934 34.2316C77.1934 32.8791 77.9911 31.7354 79.4468 31.7354C80.4574 31.7354 81.2423 32.2721 81.382 33.3519L80.7929 33.3541Z" fill="#040405"/>
<path d="M84.916 31.8716H85.4514V32.9791H85.4708C85.597 32.6143 85.8421 32.3014 86.1675 32.0897C86.493 31.878 86.8802 31.7795 87.2684 31.8098V32.3891C87.0366 32.3698 86.8034 32.3997 86.5843 32.4767C86.3651 32.5537 86.165 32.6761 85.9974 32.8357C85.8297 32.9953 85.6983 33.1885 85.612 33.4024C85.5256 33.6162 85.4863 33.8459 85.4966 34.076V36.5871H84.916V31.8716Z" fill="#040405"/>
<path d="M90.6901 34.387C90.703 35.2262 91.1417 36.24 92.2577 36.24C93.1049 36.24 93.5672 35.748 93.7521 35.0324H94.3327C94.0875 36.0973 93.4554 36.7235 92.2577 36.7235C90.7525 36.7235 90.1074 35.5755 90.1074 34.2315C90.1074 32.9877 90.7396 31.7374 92.2577 31.7374C93.7758 31.7374 94.4079 33.0601 94.352 34.387H90.6901ZM93.7715 33.9014C93.7414 33.0324 93.1952 32.223 92.2663 32.223C91.3374 32.223 90.7912 33.0452 90.6987 33.9014H93.7715Z" fill="#040405"/>
<path d="M97.7734 33.3179C97.8293 32.2124 98.6142 31.7354 99.7086 31.7354C100.547 31.7354 101.461 31.9931 101.461 33.2561V35.7544C101.455 35.8007 101.46 35.8478 101.474 35.8921C101.489 35.9364 101.514 35.9767 101.547 36.0101C101.58 36.0436 101.62 36.0691 101.664 36.085C101.709 36.1008 101.756 36.1065 101.803 36.1016C101.866 36.1007 101.928 36.0885 101.986 36.0654V36.5489C101.863 36.5778 101.736 36.5907 101.609 36.5872C101.018 36.5872 100.924 36.2592 100.924 35.763H100.908C100.5 36.3764 100.089 36.7235 99.1732 36.7235C98.2959 36.7235 97.582 36.2976 97.582 35.3434C97.582 34.0186 98.8722 33.976 100.134 33.8269C100.61 33.7737 100.881 33.7098 100.881 33.1879C100.881 32.4127 100.315 32.2252 99.6334 32.2252C98.9152 32.2252 98.3798 32.5532 98.3626 33.32L97.7734 33.3179ZM100.874 34.0101H100.846C100.775 34.1464 100.519 34.1954 100.362 34.2231C99.3732 34.3977 98.1454 34.3892 98.1454 35.3093C98.1454 35.8844 98.6636 36.2422 99.2098 36.2422C100.094 36.2422 100.874 35.6863 100.868 34.7513L100.874 34.0101Z" fill="#040405"/>
<path d="M106.235 31.8716H107.202V32.3594H106.235V35.5372C106.235 35.912 106.291 36.1314 106.706 36.1591C106.872 36.1594 107.038 36.1501 107.202 36.1314V36.6341C107.026 36.6341 106.863 36.6511 106.688 36.6511C105.91 36.6511 105.646 36.3976 105.652 35.5862V32.3594H104.824V31.8716H105.652V30.4574H106.235V31.8716Z" fill="#040405"/>
<path d="M111.325 30.9855H110.738V30.0654H111.319L111.325 30.9855ZM111.325 36.5893H110.738V31.8716H111.319L111.325 36.5893Z" fill="#040405"/>
<path d="M114.604 31.8716H115.244L116.739 36.0142H116.758L118.235 31.8716H118.833L117.055 36.5872H116.433L114.604 31.8716Z" fill="#040405"/>
<path d="M122.442 34.387C122.455 35.2262 122.894 36.24 124.01 36.24C124.859 36.24 125.319 35.748 125.504 35.0324H126.087C125.839 36.0973 125.207 36.7235 124.01 36.7235C122.504 36.7235 121.859 35.5755 121.859 34.2315C121.859 32.9877 122.494 31.7374 124.01 31.7374C125.526 31.7374 126.16 33.0601 126.104 34.387H122.442ZM125.523 33.9014C125.493 33.0324 124.951 32.223 124.018 32.223C123.085 32.223 122.541 33.0452 122.451 33.9014H125.523Z" fill="#040405"/>
</svg>
