<svg width="90" height="127" viewBox="0 0 90 127" fill="none" xmlns="http://www.w3.org/2000/svg">
<path fill-rule="evenodd" clip-rule="evenodd" d="M51.7145 0.879933C51.8223 0.619426 51.8761 0.341755 51.8731 0.0620211C34.8887 -0.0505356 17.2065 0.024502 0.0634339 0.024502C-5.90775e-08 0.024502 0 0.0995397 0 0.174577V10.7324C13.3132 8.74389 23.3913 3.42371 37.2674 1.95297C41.8506 1.47273 46.6795 1.13506 51.6907 0.879933H51.7145Z" fill="#FF3152"/>
<path fill-rule="evenodd" clip-rule="evenodd" d="M32.7348 9.70744C37.6697 8.56336 43.7418 8.81412 50.0845 8.69658C50.0845 7.59951 50.0149 6.34573 50.0845 5.36621C44.9484 5.70317 40.0289 6.00877 35.6122 6.70619C22.9035 8.74359 12.9949 13.9938 0 15.8118V32.1972C7.4566 27.4955 13.1496 20.8583 20.3045 15.7413C24.0185 12.9345 28.2426 10.8974 32.7348 9.74662V9.70744Z" fill="#FF3152"/>
<path fill-rule="evenodd" clip-rule="evenodd" d="M24.985 53.4717C26.7164 50.3566 28.7198 47.4064 30.9711 44.657C37.8649 36.6464 47.6148 32.028 57.2394 26.5974C56.3396 25.3075 55.5571 23.9458 54.7746 22.6081C43.5067 26.0798 35.4626 32.3226 29.5313 41.6072C26.683 46.0743 24.2573 50.9555 20.9708 55.2156C18.57 58.3502 15.7214 61.1013 12.5199 63.3774C11.6826 63.9666 10.0237 65.2168 8.94391 65.3283C8.58835 65.3681 8.22856 65.3362 7.88511 65.2345C7.54165 65.1328 7.22125 64.9632 6.94221 64.7355C6.66317 64.5077 6.43097 64.2263 6.25885 63.9072C6.08674 63.5881 5.9781 63.2376 5.93913 62.8757C5.66526 60.5427 7.84841 60.0649 9.26473 59.0855C21.5342 50.5414 25.0398 33.3339 36.965 24.5191C41.2844 21.334 46.9888 19.638 52.7401 17.7189C51.9312 15.4674 51.3747 13.1301 51.0812 10.7515C47.5949 10.6732 44.1074 10.8355 40.6427 11.2373C33.3933 11.9788 26.4724 14.6875 20.6031 19.0806C13.5137 24.3041 7.95014 31.3353 0 35.7944V87.6479C5.35935 83.1919 10.0769 77.9918 14.0145 72.2001C18.1382 66.3555 21.2995 59.7384 24.9694 53.4717H24.985Z" fill="#FF3152"/>
<path fill-rule="evenodd" clip-rule="evenodd" d="M39.6325 55.9834C44.9664 46.0655 53.8484 39.8858 62.6056 33.3345C62.2857 32.903 61.9021 32.5198 61.4671 32.1972C55.2286 35.2302 48.6471 38.2025 43.2976 41.7739C32.3803 49.0834 26.8359 61.9584 19.7397 72.9758C16.2915 78.2265 12.152 83.0163 7.42653 87.2233C7.33296 87.3067 7.11461 87.4735 7.1614 87.6479H25.9469C32.1854 78.5034 34.322 65.8634 39.6403 55.9834H39.6325Z" fill="#FF3152"/>
<path fill-rule="evenodd" clip-rule="evenodd" d="M53.5146 43.7412C49.554 47.3373 46.25 51.5959 43.7509 56.3258C38.6259 65.9615 35.637 77.6854 30.4084 87.6479H39.5664C41.033 81.8776 42.1169 76.3544 44.245 71.5724C50.4221 57.322 62.3059 48.7224 71.161 37.2377C71.3284 37.0225 71.6153 36.6957 71.5356 36.5283C69.7154 35.8146 67.9516 34.9647 66.2592 33.9859C64.1072 35.3806 61.7958 37.1261 59.6677 38.7679C57.5396 40.4097 55.4354 42.0197 53.5146 43.7731V43.7412Z" fill="#FF3152"/>
<path fill-rule="evenodd" clip-rule="evenodd" d="M66.5163 61.5325C71.4941 54.3735 77.2829 47.8485 81.979 40.504C82.107 40.3185 82.3376 40.0711 82.2693 39.8237C81.3301 39.6536 80.3482 39.5222 79.426 39.3521C77.781 41.2694 76.0734 43.1352 74.3031 44.9494C72.5955 46.7198 70.8878 48.4129 69.0521 50.1214C58.2428 60.3264 48.5605 71.1267 44.7183 87.6479H55.391C57.1445 78.3631 60.9174 69.4862 66.4907 61.5325H66.5163Z" fill="#FF3152"/>
<path fill-rule="evenodd" clip-rule="evenodd" d="M78.6936 69.421C77.841 71.1391 77.3175 73.0072 77.1512 74.9252C77.0895 75.6093 77.1975 76.3563 77.1049 77.1977C76.835 79.5567 73.5342 79.2421 73.0406 77.41C72.547 75.5779 73.1872 72.8415 73.5728 71.4418C75.0226 66.1578 78.308 62.7451 81.0073 58.8607C84.7322 53.5059 87.123 47.3726 88.1641 39.3521C87.3929 39.3521 86.2746 39.3914 85.434 39.4543C81.3312 47.3569 75.7784 54.072 71.3131 61.6915C66.8478 69.3109 62.9686 77.5044 60.8169 87.585C70.2488 87.7187 79.9198 87.585 89.4366 87.6479V52.122C87.0381 58.8764 81.6396 63.1304 78.6936 69.421Z" fill="#FF3152"/>
<path fill-rule="evenodd" clip-rule="evenodd" d="M28.3793 88.2534C28.4778 88.0718 28.6828 87.8814 28.6008 87.6479H23.8921C22.1795 90.3249 20.1629 92.7709 17.8872 94.9315C16.2012 96.507 14.3805 97.9144 12.4483 99.1356C11.8002 99.5422 11.0209 99.9488 10.8076 100.788C10.719 101.139 10.7086 101.506 10.7771 101.862C10.8455 102.217 10.9911 102.552 11.2024 102.838C11.4138 103.125 11.685 103.356 11.9951 103.513C12.3052 103.671 12.6456 103.751 12.9897 103.746C13.8757 103.746 14.8027 102.881 15.5738 102.388C20.8581 98.8365 25.2466 93.9863 28.3629 88.2534" fill="#FF3152"/>
<path fill-rule="evenodd" clip-rule="evenodd" d="M41.8364 87.8107C39.7166 96.4787 37.8667 104.43 34.032 111.414C30.8563 117.257 26.2356 122.1 19.0982 123.76C18.0422 124.005 16.4226 124.086 16.1686 124.762C16.0429 125.199 16.0878 125.669 16.2936 126.073C16.4995 126.477 16.8503 126.783 17.2721 126.927C18.066 127.179 19.6539 126.723 20.7337 126.438C23.7356 125.63 26.5309 124.163 28.927 122.141C38.1287 114.572 41.4156 100.98 44.7183 87.6479H41.892C41.8284 87.6479 41.8284 87.7374 41.8364 87.8269" fill="#FF3152"/>
<path fill-rule="evenodd" clip-rule="evenodd" d="M54.0029 87.8095C52.998 91.9186 52.3651 96.065 52.1074 100.226C52.0235 101.454 51.5796 103.635 52.1914 104.532C53.2471 106.067 57.3139 105.703 58.1057 104.37C58.3228 103.666 58.3994 102.947 58.3337 102.229C58.5157 97.3288 59.3467 92.4489 60.817 87.6479H54.1588C54.0509 87.6479 54.0869 87.7771 54.0029 87.8256" fill="#FF3152"/>
</svg>
