<svg width="314" height="246" viewBox="0 0 314 246" fill="none" xmlns="http://www.w3.org/2000/svg">
<mask id="mask0_2979_50" style="mask-type:alpha" maskUnits="userSpaceOnUse" x="-1" y="0" width="315" height="319">
<path d="M0.000931429 73.4205L84.6437 181.694C96.6534 197.056 115.373 205.634 134.85 204.698L176.436 202.702C194.13 201.852 211.297 208.855 223.347 221.84L313 318.44M0 49.2816L84.6427 157.555C96.6525 172.917 115.372 181.495 134.849 180.56L176.435 178.563C194.129 177.713 211.296 184.717 223.347 197.701L312.999 294.301M0 25.1408L84.6427 133.414C96.6525 148.777 115.372 157.354 134.849 156.419L176.435 154.422C194.129 153.572 211.296 160.576 223.347 173.56L312.999 270.16M0 1L84.6427 109.273C96.6525 124.636 115.372 133.213 134.849 132.278L176.435 130.281C194.129 129.432 211.296 136.435 223.347 149.419L312.999 246.02" stroke="#DADADA" stroke-width="1.00118"/>
</mask>
<g mask="url(#mask0_2979_50)">
<rect y="-2" width="324" height="248" fill="#D9D9D9"/>
</g>
</svg>
