<svg width="1127" height="1101" viewBox="0 0 1127 1101" fill="none" xmlns="http://www.w3.org/2000/svg">
<g filter="url(#filter0_d)">
<path d="M231.807 40H894.836C995.356 40 1076.64 121.265 1076.64 221.807V859.193C1076.64 959.713 995.379 1041 894.836 1041H231.807C131.287 1041 50 959.735 50 859.193V221.807C50 121.287 131.287 40 231.807 40Z" fill="url(#paint0_linear)"/>
<path d="M231.807 65H894.836C981.551 65 1051.64 135.074 1051.64 221.807V859.193C1051.64 945.908 981.57 1016 894.836 1016H231.807C145.092 1016 75 945.926 75 859.193V221.807C75 135.094 145.094 65 231.807 65Z" stroke="white" stroke-width="50"/>
</g>
<g clip-path="url(#clip0)">
<path d="M461.954 672.958L550.528 761.589L794.233 517.828H617.029L461.954 672.958Z" fill="#39CEFD"/>
<path d="M617.029 252H794.234L417.639 628.65L329.009 540.02L617.029 252Z" fill="#39CEFD"/>
<path d="M550.528 761.593L617.028 828.038H794.233L639.158 672.963L550.528 761.593Z" fill="#03569B"/>
<path d="M681.975 716.058L639.158 672.963L550.528 761.593L681.975 716.058Z" fill="url(#paint1_linear)"/>
<path d="M461.945 672.935L550.577 584.302L639.215 672.935L550.577 761.568L461.945 672.935Z" fill="#16B9FD"/>
<path d="M794.234 517.835L639.159 672.965L794.234 828.096H617.029L461.899 672.965L617.029 517.835H794.234ZM617.029 252L329.009 540.02L417.639 628.65L794.234 252H617.029Z" fill="url(#paint2_radial)"/>
</g>
<defs>
<filter id="filter0_d" x="0" y="0" width="1126.64" height="1101" filterUnits="userSpaceOnUse" color-interpolation-filters="sRGB">
<feFlood flood-opacity="0" result="BackgroundImageFix"/>
<feColorMatrix in="SourceAlpha" type="matrix" values="0 0 0 0 0 0 0 0 0 0 0 0 0 0 0 0 0 0 127 0" result="hardAlpha"/>
<feOffset dy="10"/>
<feGaussianBlur stdDeviation="25"/>
<feComposite in2="hardAlpha" operator="out"/>
<feColorMatrix type="matrix" values="0 0 0 0 0.768627 0 0 0 0 0.768627 0 0 0 0 0.768627 0 0 0 0.5 0"/>
<feBlend mode="normal" in2="BackgroundImageFix" result="effect1_dropShadow"/>
<feBlend mode="normal" in="SourceGraphic" in2="effect1_dropShadow" result="shape"/>
</filter>
<linearGradient id="paint0_linear" x1="563.322" y1="40" x2="563.322" y2="1041" gradientUnits="userSpaceOnUse">
<stop stop-color="#54CDFF"/>
<stop offset="0.963542" stop-color="#0E8ABD"/>
</linearGradient>
<linearGradient id="paint1_linear" x1="576.393" y1="778.697" x2="642.402" y2="712.688" gradientUnits="userSpaceOnUse">
<stop stop-color="#1A237E" stop-opacity="0.4"/>
<stop offset="1" stop-color="#1A237E" stop-opacity="0"/>
</linearGradient>
<radialGradient id="paint2_radial" cx="0" cy="0" r="1" gradientUnits="userSpaceOnUse" gradientTransform="translate(342.079 291.265) scale(704.782)">
<stop stop-color="white" stop-opacity="0.1"/>
<stop offset="1" stop-color="white" stop-opacity="0"/>
</radialGradient>
<clipPath id="clip0">
<rect width="576.1" height="576.1" fill="white" transform="translate(275 252)"/>
</clipPath>
</defs>
</svg>
