<svg width="36" height="32" viewBox="0 0 36 32" fill="none" xmlns="http://www.w3.org/2000/svg">
<path d="M6 24.3333H4.33333C3.44928 24.3333 2.60143 23.9821 1.97631 23.357C1.35119 22.7319 1 21.8841 1 21V4.33333C1 3.44928 1.35119 2.60143 1.97631 1.97631C2.60143 1.35119 3.44928 1 4.33333 1H31C31.8841 1 32.7319 1.35119 33.357 1.97631C33.9821 2.60143 34.3333 3.44928 34.3333 4.33333V21C34.3333 21.8841 33.9821 22.7319 33.357 23.357C32.7319 23.9821 31.8841 24.3333 31 24.3333H29.3333" stroke="white" stroke-width="2" stroke-linecap="round" stroke-linejoin="round"/>
<path d="M17.6673 21L26.0007 31H9.33398L17.6673 21Z" stroke="white" stroke-width="2" stroke-linecap="round" stroke-linejoin="round"/>
</svg>
