<svg width="1127" height="1101" viewBox="0 0 1127 1101" fill="none" xmlns="http://www.w3.org/2000/svg">
<g filter="url(#filter0_d)">
<path d="M231.807 40H894.836C995.356 40 1076.64 121.265 1076.64 221.807V859.193C1076.64 959.713 995.379 1041 894.836 1041H231.807C131.287 1041 50 959.735 50 859.193V221.807C50 121.287 131.287 40 231.807 40Z" fill="url(#paint0_linear)"/>
<path d="M231.807 65H894.836C981.551 65 1051.64 135.074 1051.64 221.807V859.193C1051.64 945.908 981.57 1016 894.836 1016H231.807C145.092 1016 75 945.926 75 859.193V221.807C75 135.094 145.094 65 231.807 65Z" stroke="white" stroke-width="50"/>
</g>
<g filter="url(#filter1_f)">
<path fill-rule="evenodd" clip-rule="evenodd" d="M785.419 810.438L683.675 666.254H441.817L340.583 810.418L785.419 810.438Z" fill="black" fill-opacity="0.57"/>
</g>
<path fill-rule="evenodd" clip-rule="evenodd" d="M742.009 687.864L704.43 766.369L678.57 668.613L742.009 687.864ZM395.991 687.864L421.575 766.369L447.435 668.613L395.991 687.864Z" fill="#7F8082"/>
<path fill-rule="evenodd" clip-rule="evenodd" d="M276.572 428.369L276.553 428.398L329.9 766.383H421.587L414.097 687.878H461.141L467.132 766.383H659.214L665.206 687.878H711.95L704.46 766.383H796.744L849.428 428.369H276.572Z" fill="url(#paint1_linear)" stroke="#D6D6D6" stroke-width="0.161633" stroke-linejoin="round"/>
<path fill-rule="evenodd" clip-rule="evenodd" d="M407.618 636.125L435.196 532.801L433.257 324.129L381.536 428.372L407.618 636.125Z" fill="url(#paint2_radial)"/>
<path fill-rule="evenodd" clip-rule="evenodd" d="M605.67 303.67H719.959L717.612 556.278H596.841L605.67 303.67ZM523.001 303.829L411.68 303.898L414.318 555.38H527.654L523.001 303.829Z" fill="#293441"/>
<path fill-rule="evenodd" clip-rule="evenodd" d="M423.203 532.788L407.621 636.116H719.287L700.746 533.527L423.203 532.788Z" fill="#2D3948"/>
<path fill-rule="evenodd" clip-rule="evenodd" d="M719.285 636.137L692.221 533.547L693.237 323.46L745.6 428.359L719.285 636.137Z" fill="url(#paint3_linear)"/>
<path fill-rule="evenodd" clip-rule="evenodd" d="M407.857 636.128L435.181 532.801L433.242 324.129L381.526 428.383L407.857 636.128Z" fill="url(#paint4_linear)"/>
<path fill-rule="evenodd" clip-rule="evenodd" d="M511.317 362.06L521.607 581.433H601.766L614.68 362.06H511.317Z" fill="#2D3B48"/>
<path fill-rule="evenodd" clip-rule="evenodd" d="M849.428 428.363L718.418 218.807H406.956L276.573 428.363H381.543L432.979 324.525H517.553L511.316 362.058H614.676L609.211 323.388H693.453L745.596 428.363H849.428Z" fill="url(#paint5_linear)" stroke="#D6D6D6" stroke-width="0.161633" stroke-linejoin="round"/>
<path opacity="0.45" fill-rule="evenodd" clip-rule="evenodd" d="M609.218 323.382L694.175 323.452L745.603 428.357L719.287 636.128H521.61L623.786 428.357L609.218 323.382Z" fill="#363F49"/>
<path opacity="0.3" fill-rule="evenodd" clip-rule="evenodd" d="M623.782 428.369L521.606 636.14H407.621L381.541 428.371L623.782 428.369Z" fill="url(#paint6_linear)"/>
<path opacity="0.2" fill-rule="evenodd" clip-rule="evenodd" d="M432.98 324.522H517.555L511.318 362.056H614.678L623.782 428.361H381.541L432.98 324.522Z" fill="url(#paint7_linear)"/>
<g opacity="0.8" filter="url(#filter2_f)">
<path d="M648.002 567.958C656.038 567.958 662.553 544.863 662.553 516.373C662.553 487.884 656.038 464.788 648.002 464.788C639.967 464.788 633.452 487.884 633.452 516.373C633.452 544.863 639.967 567.958 648.002 567.958Z" fill="#05F0FF"/>
</g>
<g filter="url(#filter3_f)">
<path opacity="0.9" d="M648.004 562.813C654.25 562.813 659.313 542.365 659.313 517.142C659.313 491.918 654.25 471.47 648.004 471.47C641.758 471.47 636.695 491.918 636.695 517.142C636.695 542.365 641.758 562.813 648.004 562.813Z" fill="white" stroke="#06EFFE" stroke-width="0.161678"/>
<path opacity="0.9" d="M648.004 559.498C654.25 559.498 659.313 540.588 659.313 517.262C659.313 493.937 654.25 475.027 648.004 475.027C641.758 475.027 636.695 493.937 636.695 517.262C636.695 540.588 641.758 559.498 648.004 559.498Z" fill="#FEFFFF" stroke="#06EFFE" stroke-width="0.161573"/>
</g>
<g opacity="0.8" filter="url(#filter4_f)">
<path d="M483.42 575.231C491.456 575.231 497.97 552.135 497.97 523.646C497.97 495.156 491.456 472.061 483.42 472.061C475.384 472.061 468.87 495.156 468.87 523.646C468.87 552.135 475.384 575.231 483.42 575.231Z" fill="#05F0FF"/>
</g>
<g filter="url(#filter5_f)">
<path opacity="0.9" d="M483.422 570.086C489.668 570.086 494.731 549.638 494.731 524.414C494.731 499.19 489.668 478.742 483.422 478.742C477.176 478.742 472.113 499.19 472.113 524.414C472.113 549.638 477.176 570.086 483.422 570.086Z" fill="white" stroke="#06EFFE" stroke-width="0.161678"/>
<path opacity="0.9" d="M483.422 566.77C489.668 566.77 494.731 547.861 494.731 524.535C494.731 501.209 489.668 482.3 483.422 482.3C477.176 482.3 472.113 501.209 472.113 524.535C472.113 547.861 477.176 566.77 483.422 566.77Z" fill="#FEFFFF" stroke="#06EFFE" stroke-width="0.161573"/>
</g>
<path d="M432.98 324.519H517.555L511.318 362.052H614.678L609.213 323.382L694.17 323.452L745.598 428.357L719.282 636.128H407.621L381.541 428.359L432.98 324.519Z" stroke="#D6D6D6" stroke-width="0.161633" stroke-linejoin="round"/>
<g opacity="0.343">
<path fill-rule="evenodd" clip-rule="evenodd" d="M744.745 428.369H381.285H744.745Z" fill="white"/>
<path d="M744.745 428.369H381.285" stroke="white" stroke-width="0.161633"/>
</g>
<defs>
<filter id="filter0_d" x="0" y="0" width="1126.64" height="1101" filterUnits="userSpaceOnUse" color-interpolation-filters="sRGB">
<feFlood flood-opacity="0" result="BackgroundImageFix"/>
<feColorMatrix in="SourceAlpha" type="matrix" values="0 0 0 0 0 0 0 0 0 0 0 0 0 0 0 0 0 0 127 0" result="hardAlpha"/>
<feOffset dy="10"/>
<feGaussianBlur stdDeviation="25"/>
<feComposite in2="hardAlpha" operator="out"/>
<feColorMatrix type="matrix" values="0 0 0 0 0.768627 0 0 0 0 0.768627 0 0 0 0 0.768627 0 0 0 0.5 0"/>
<feBlend mode="normal" in2="BackgroundImageFix" result="effect1_dropShadow"/>
<feBlend mode="normal" in="SourceGraphic" in2="effect1_dropShadow" result="shape"/>
</filter>
<filter id="filter1_f" x="336.047" y="661.717" width="453.909" height="153.258" filterUnits="userSpaceOnUse" color-interpolation-filters="sRGB">
<feFlood flood-opacity="0" result="BackgroundImageFix"/>
<feBlend mode="normal" in="SourceGraphic" in2="BackgroundImageFix" result="shape"/>
<feGaussianBlur stdDeviation="2.26837" result="effect1_foregroundBlur"/>
</filter>
<filter id="filter2_f" x="632.479" y="463.814" width="31.0475" height="105.117" filterUnits="userSpaceOnUse" color-interpolation-filters="sRGB">
<feFlood flood-opacity="0" result="BackgroundImageFix"/>
<feBlend mode="normal" in="SourceGraphic" in2="BackgroundImageFix" result="shape"/>
<feGaussianBlur stdDeviation="0.486819" result="effect1_foregroundBlur"/>
</filter>
<filter id="filter3_f" x="636.278" y="471.052" width="23.4532" height="92.1785" filterUnits="userSpaceOnUse" color-interpolation-filters="sRGB">
<feFlood flood-opacity="0" result="BackgroundImageFix"/>
<feBlend mode="normal" in="SourceGraphic" in2="BackgroundImageFix" result="shape"/>
<feGaussianBlur stdDeviation="0.1683" result="effect1_foregroundBlur"/>
</filter>
<filter id="filter4_f" x="467.896" y="471.087" width="31.0476" height="105.117" filterUnits="userSpaceOnUse" color-interpolation-filters="sRGB">
<feFlood flood-opacity="0" result="BackgroundImageFix"/>
<feBlend mode="normal" in="SourceGraphic" in2="BackgroundImageFix" result="shape"/>
<feGaussianBlur stdDeviation="0.486819" result="effect1_foregroundBlur"/>
</filter>
<filter id="filter5_f" x="471.695" y="478.325" width="23.4532" height="92.1785" filterUnits="userSpaceOnUse" color-interpolation-filters="sRGB">
<feFlood flood-opacity="0" result="BackgroundImageFix"/>
<feBlend mode="normal" in="SourceGraphic" in2="BackgroundImageFix" result="shape"/>
<feGaussianBlur stdDeviation="0.1683" result="effect1_foregroundBlur"/>
</filter>
<linearGradient id="paint0_linear" x1="563.322" y1="40" x2="563.322" y2="1041" gradientUnits="userSpaceOnUse">
<stop stop-color="#10C3D1"/>
<stop offset="0.963542" stop-color="#007781"/>
</linearGradient>
<linearGradient id="paint1_linear" x1="213284" y1="132858" x2="96213.7" y2="5026.36" gradientUnits="userSpaceOnUse">
<stop stop-color="#ACACAC"/>
<stop offset="1" stop-color="#E9E9E9"/>
</linearGradient>
<radialGradient id="paint2_radial" cx="0" cy="0" r="1" gradientUnits="userSpaceOnUse" gradientTransform="translate(629108 -165574) rotate(-85.4139) scale(10066.5 29990.6)">
<stop stop-color="#25303B"/>
<stop offset="1" stop-color="#25303B" stop-opacity="0"/>
</radialGradient>
<linearGradient id="paint3_linear" x1="18157.2" y1="97640.9" x2="-4968.19" y2="50745.5" gradientUnits="userSpaceOnUse">
<stop stop-color="#24303A"/>
<stop offset="1" stop-color="#394958"/>
</linearGradient>
<linearGradient id="paint4_linear" x1="7662.71" y1="97430.5" x2="30635.1" y2="50503.6" gradientUnits="userSpaceOnUse">
<stop stop-color="#24303A"/>
<stop offset="1" stop-color="#394958"/>
</linearGradient>
<linearGradient id="paint5_linear" x1="202452" y1="22681.2" x2="62116" y2="61165.6" gradientUnits="userSpaceOnUse">
<stop stop-color="#E5E5E5"/>
<stop offset="1" stop-color="white"/>
</linearGradient>
<linearGradient id="paint6_linear" x1="44524.7" y1="39945.1" x2="44524.7" y2="66487" gradientUnits="userSpaceOnUse">
<stop stop-color="white"/>
<stop offset="0.5" stop-color="white" stop-opacity="0.532"/>
<stop offset="1" stop-color="white" stop-opacity="0"/>
</linearGradient>
<linearGradient id="paint7_linear" x1="47374.9" y1="20073.9" x2="47374.9" y2="13444.5" gradientUnits="userSpaceOnUse">
<stop stop-color="white"/>
<stop offset="1" stop-color="white" stop-opacity="0"/>
</linearGradient>
</defs>
</svg>
