<svg width="524" height="515" viewBox="0 0 524 515" fill="none" xmlns="http://www.w3.org/2000/svg">
<path d="M259.948 263.6C248.247 235.563 271.285 205.373 301.416 209.258L489.065 233.453C519.196 237.338 533.822 272.384 515.392 296.536L400.615 446.947C382.184 471.099 344.52 466.243 332.819 438.206L259.948 263.6Z" fill="#FF3152" fill-opacity="0.1"/>
<path d="M243.807 401.788C212.839 442.646 149.253 434.658 129.353 387.41L5.42104 93.1607C-14.4791 45.9121 24.2314 -5.16069 75.1 1.22956L391.893 41.026C442.762 47.4162 467.637 106.477 436.668 147.335L243.807 401.788Z" fill="#173751" fill-opacity="0.05"/>
<path d="M161.42 490.91V514.439H305.136C305.136 514.439 305.34 466.409 309.045 436.07C312.751 405.731 170.497 482.575 161.42 490.91Z" fill="url(#paint0_linear_2640_1031)"/>
<path d="M290.381 173.486L415.413 182.357C415.413 182.357 420.081 86.4042 430.971 33.8393C430.971 33.8393 352.671 25.1987 297.705 33.8393C297.707 33.8349 290.833 98.0453 290.381 173.486Z" fill="url(#paint1_linear_2640_1031)"/>
<path d="M434.001 37.7914L430.96 33.835C430.96 33.835 416.441 109.562 415.402 182.353H418.515C418.515 182.353 418.443 116.115 434.001 37.7914Z" fill="url(#paint2_linear_2640_1031)"/>
<g style="mix-blend-mode:multiply" opacity="0.2">
<path d="M304.26 122.307C293.797 127.431 296.816 43.3427 304.26 36.0818C311.703 28.8208 419.56 34.0069 422.85 36.9508C426.141 39.8948 421.113 73.2579 417.666 74.8157C414.219 76.3734 402.125 80.1299 384.832 101.072C367.538 122.014 346.972 103.975 336.082 102.189C325.191 100.403 307.185 120.874 304.26 122.307Z" fill="#A492F9"/>
</g>
<path d="M390.87 65.462C379.128 59.6198 363.121 80.8878 372.673 98.0821C382.225 115.276 398.303 91.5816 399.686 82.8497C401.07 74.1178 395.364 67.6977 390.87 65.462Z" fill="white"/>
<g style="mix-blend-mode:multiply">
<path d="M409.192 173.486C406.434 181.21 331.583 164.029 305.224 168.524C278.864 173.019 305.108 132.675 315.84 119.309C326.572 105.943 341.435 137.186 354.571 144.212C367.707 151.239 397.246 86.8696 411.26 77.7293C425.273 68.589 411.783 166.219 409.192 173.486Z" fill="#C5ABE3"/>
</g>
<g style="mix-blend-mode:multiply" opacity="0.5">
<path d="M361.561 169.793C350.154 162.188 388.083 103.236 401.786 96.531C415.489 89.8262 409.527 144.464 403.563 160.585C397.598 176.706 361.561 169.793 361.561 169.793Z" fill="#C5ABE3"/>
</g>
<path d="M307.185 88.12C300.617 89.1586 314.281 83.8377 336.661 73.9631C359.042 64.0884 361.978 74.8082 373.385 78.6104C384.793 82.4125 394.473 76.655 401.734 76.8592C408.995 77.0634 391.882 81.2045 361.633 80.859C331.383 80.5136 307.185 88.12 307.185 88.12Z" fill="#4F63F9"/>
<path d="M332.804 93.8932C326.742 91.6489 358.16 87.7837 375.121 83.7665C392.082 79.7493 394.395 86.9951 396.168 87.3275C397.94 87.6599 373.019 86.7517 357.17 88.2856C341.321 89.8195 334.375 94.4733 332.804 93.8932Z" fill="#4F63F9"/>
<path d="M296.789 47.6899C299.474 54.3295 300.032 34.5715 325.155 32.2142C350.278 29.8569 418.036 36.7029 423.546 38.3801C429.056 40.0574 430.088 34.5237 430.088 34.5237C430.088 34.5237 364.147 29.5961 336.232 30.6325C308.318 31.6688 299.091 33.307 298.292 34.4368C297.493 35.5666 296.789 47.6899 296.789 47.6899Z" fill="#93C2FF"/>
<path d="M352.137 236.059C348.176 237.519 346.112 255.502 350.686 266.738C355.261 277.975 367.615 288.667 375.832 292.502C384.048 296.336 375.658 255.847 367.535 246.164C359.411 236.48 352.137 236.059 352.137 236.059Z" fill="#4B81EE"/>
<path d="M201.399 201.358C197.283 204.484 189.59 219.871 177.405 223.762C165.22 227.654 156.387 221.227 151.081 229.628C145.774 238.03 178.96 298.456 183.877 362.775C188.795 427.094 160.283 498.932 160.283 498.932C160.283 498.932 198.805 502.358 214.73 503.601C250.164 506.367 291.992 486.743 311.697 477.666C312.657 466.212 299.253 283.673 294.412 242.869C289.57 202.064 290.266 201.028 270.907 197.223C251.548 193.419 238.275 188.633 238.275 188.633L201.399 201.358Z" fill="url(#paint3_linear_2640_1031)"/>
<g style="mix-blend-mode:multiply" opacity="0.5">
<path d="M201.032 496.445C198.144 495.3 222.318 469.106 234.609 444.986C246.9 420.865 254.917 393.116 257.524 391.819C260.13 390.522 276.72 444.469 279.567 468.329C282.415 492.189 238.41 507.186 201.032 496.445Z" fill="#E392AD"/>
</g>
<g style="mix-blend-mode:soft-light" opacity="0.5">
<path d="M201.733 234.22C200.864 235.906 207.623 279.507 210.119 282.468C212.614 285.429 231.291 279.8 246.111 265.956C260.93 252.112 253.713 229.599 250.863 228.717C248.013 227.835 243.808 244.39 233.407 246.632C216.22 250.326 203.284 231.187 201.733 234.22Z" fill="#FFBB9A"/>
</g>
<path style="mix-blend-mode:multiply" d="M198.271 220.415C198.271 220.415 214.583 371.329 228.662 407.638C242.74 443.947 245.603 456.397 242.617 461.583C239.63 466.769 210.428 439.422 203.768 346.246C197.109 253.07 198.271 220.415 198.271 220.415Z" fill="url(#paint4_linear_2640_1031)"/>
<path style="mix-blend-mode:multiply" d="M216.219 499.265C200.461 500.049 245.641 439.799 260.527 372.369C275.414 304.939 257.904 239.064 257.904 239.064C257.904 239.064 276.874 306.873 265.427 388.119C253.981 469.365 226.859 498.73 216.219 499.265Z" fill="url(#paint5_linear_2640_1031)"/>
<path d="M336.595 340.724C331.928 341.504 313.524 321.793 305.219 300.53C305.219 300.53 307.134 317.379 310.581 340.941C310.581 340.967 310.594 340.982 310.581 340.995C310.589 341.008 310.593 341.022 310.594 341.036C311.431 346.798 312.373 352.986 313.401 359.404V359.445C315.247 371.012 317.369 383.386 319.736 395.704C328.822 442.914 318.45 458.724 314.563 461.844C310.675 464.964 293.038 467.812 270.734 482.595C262.361 488.153 257.283 489.276 254.383 487.51C254.175 487.382 253.978 487.236 253.795 487.075C252.891 486.321 252.235 485.239 251.797 483.87L251.755 483.707C250.235 478.821 251.291 470.58 252.841 461.833C256.208 442.903 270.217 388.181 268.66 324.642C267.103 261.103 249.599 206.378 247.012 200.801C244.425 195.224 239.692 193.712 239.692 193.712L238.27 188.634C241.866 187.548 265.541 196.134 268.141 195.723C270.741 195.313 297.697 185.992 317.058 188.539C317.058 188.539 324.66 192.884 325.173 226.616C325.173 226.616 334 245.288 339.692 257.468C345.385 269.648 341.261 339.957 336.595 340.724Z" fill="url(#paint6_linear_2640_1031)"/>
<g style="mix-blend-mode:multiply">
<path d="M239.701 193.714C239.701 193.714 246.543 204.142 252.247 225.147C257.95 246.153 261.986 413.881 261.986 413.881C261.986 413.881 273.497 350.283 269.531 297.158C265.565 244.032 252.418 200.405 248.619 193.714C244.821 187.022 238.285 188.632 238.285 188.632L239.701 193.714Z" fill="#E392AD"/>
</g>
<path d="M196.474 474.454C195.201 478.312 193.75 481.393 192.095 483.542C179.643 499.721 156.599 499.837 146.542 498.996C146.47 499 146.397 498.995 146.325 498.981H146.319C143.391 498.735 141.625 498.407 141.625 498.407C143.588 495.445 145.357 492.358 146.92 489.167C146.935 489.141 146.948 489.099 146.962 489.071C148.193 486.594 149.383 483.965 150.506 481.202C159.989 458.172 166.362 425.93 170.593 395.747L170.634 395.461C171.236 391.176 171.798 386.946 172.304 382.798C176.928 345.555 178.325 314.251 178.421 311.827C178.023 315.031 171.77 366.332 166.257 372.109C160.552 378.077 128.395 389.999 125.809 387.152C123.222 384.306 113.357 358.626 120.622 325.68C127.887 292.734 147.581 260.854 147.581 260.854C142.151 240.883 143.352 229.631 143.352 229.631C161.853 217.423 181.379 219.696 185.525 217.108C189.671 214.521 198.483 194.632 200.371 195.769L201.398 201.352C201.398 201.352 199.18 206.391 198.661 210.799C198.142 215.207 197.621 256.694 201.767 303.725C205.505 345.966 207.831 440.397 196.474 474.454Z" fill="url(#paint7_linear_2640_1031)"/>
<g style="mix-blend-mode:multiply">
<path d="M200.371 195.774C200.371 195.774 194.01 215.956 194.435 241.687C194.861 267.417 198.853 402.971 199.277 438.244C199.7 473.517 187.672 488.275 187.672 488.275C187.672 488.275 204.459 481.814 208.475 426.138C212.491 370.461 199.025 243.112 198.319 225.144C197.613 207.176 202.932 202.71 202.932 202.71L200.371 195.774Z" fill="#E392AD"/>
</g>
<path d="M200.374 195.774C200.374 195.774 195.871 201.612 187.674 214.894C179.477 228.175 166.736 245.422 166.736 247.496C166.736 252.152 174.803 252.152 177.961 253.58C181.119 255.007 172.705 267.672 172.051 276.49C171.397 285.309 185.446 367.959 190.113 396.481C194.781 425.004 197.761 452.535 198.2 453.02C198.638 453.504 201.349 358.097 198.454 306.488C195.559 254.879 192.125 222.978 194.879 210.01C197.633 197.041 200.374 195.774 200.374 195.774Z" fill="url(#paint8_linear_2640_1031)"/>
<path d="M243.387 189.062C243.387 189.062 263.482 196.531 279.902 209.671C296.322 222.811 293.557 227.626 293.729 229.627C293.901 231.628 282.148 238.372 281.283 239.065C280.419 239.758 290.601 253.761 293.807 272.089C297.013 290.418 266.766 413.176 263.482 422.512C260.198 431.848 256.16 445.325 256.16 445.325C256.16 445.325 272.294 377.063 272.641 312.035C272.989 247.008 247.316 199.918 243.387 189.062Z" fill="url(#paint9_linear_2640_1031)"/>
<g style="mix-blend-mode:multiply">
<path d="M171.008 393.29C169.881 402.143 201.034 394.25 227.011 324.402C236.246 299.568 256.915 313.065 267.112 308.396C277.309 303.727 279.562 277.792 279.562 277.792C279.562 277.792 245.299 276.308 229.932 285.04C214.565 293.772 171.871 339.693 171.871 339.693L171.844 382.965L171.008 393.29Z" fill="#D07CAD"/>
</g>
<path d="M169.105 373.406C169.347 390.467 193.994 370.553 196.976 342.802C199.005 323.919 197.884 314.275 197.884 314.275C197.884 314.275 194.125 304.42 184.792 308.57C175.458 312.719 168.975 364.2 169.105 373.406Z" fill="#4B81EE"/>
<g style="mix-blend-mode:multiply">
<path d="M293.704 226.46C293.901 230.679 285.776 234.397 280.238 234.223C274.699 234.049 259.893 231.946 259.893 231.946C259.893 231.946 260.201 233.345 260.188 233.291C260.175 233.236 268.743 232.982 273.409 234.594C276.275 235.604 278.938 237.118 281.274 239.063C281.274 239.063 291.048 236.124 294.757 233.184C298.467 230.245 293.704 226.46 293.704 226.46Z" fill="#B588AD"/>
</g>
<path d="M256.45 252.82C256.414 252.857 256.382 252.898 256.354 252.941L256.395 252.928L256.504 252.902C258.063 252.613 271.393 250.108 273.458 250.341C275.661 250.601 277.223 256.952 277.303 257.728C277.383 258.503 275.839 259.109 275.839 259.109C276.733 259.018 277.636 259.05 278.521 259.205C279.725 259.466 280.765 266.375 280.683 267.583C280.657 267.931 280.54 268.266 280.343 268.555C280.146 268.843 279.877 269.075 279.562 269.225C279.562 269.225 281.204 273.029 281.204 276.493C281.204 279.956 273.198 285.224 270.344 291.317C270.344 291.317 263.735 292.74 262.694 288.21C262.694 288.21 251.022 298.969 246.754 300.911C245.466 301.5 243.713 301.582 241.771 301.458C237.23 301.159 231.578 299.666 227.951 300.392C222.767 301.432 187.502 337.594 174.188 349.352C174.188 349.352 171.343 325.331 186.723 307.481C186.723 307.481 201.492 294.56 214.741 283.665C227.99 272.769 240.536 251.896 241.439 250.858C242.343 249.819 251.689 245.669 256.997 235.69C257.01 235.69 257.01 235.69 257.025 235.677C257.531 235.417 265.687 231.256 269.97 226.478C274.375 221.551 276.577 218.705 279.425 218.185C282.272 217.666 284.87 219.867 285.774 224.015C286.225 226.083 285.2 229.75 282.27 233.405C279.34 237.059 274.566 240.674 267.501 242.686C267.516 242.691 260.487 247.166 256.45 252.82Z" fill="url(#paint10_linear_2640_1031)"/>
<path style="mix-blend-mode:multiply" d="M282.269 233.41C279.369 237.052 274.565 240.68 267.5 242.692C267.5 242.692 260.48 247.167 256.442 252.821L257.167 252.684L256.496 252.901L256.388 252.927L256.346 252.94C256.346 252.94 248.527 254.187 247.739 254.446C247.596 254.473 247.449 254.478 247.304 254.461H247.276C245.854 254.27 242.2 252.723 241.434 250.861C242.35 249.82 251.683 245.673 256.992 235.694C257.005 235.694 257.005 235.694 257.02 235.681C262.615 234.066 263.34 239.472 264.941 241.403C266.542 243.335 282.269 233.41 282.269 233.41Z" fill="url(#paint11_linear_2640_1031)"/>
<path style="mix-blend-mode:multiply" opacity="0.5" d="M281.198 276.499C281.198 279.949 273.192 285.231 270.338 291.323C270.338 291.323 263.729 292.746 262.688 288.216C262.688 288.216 251.016 298.975 246.748 300.918C245.46 301.506 243.707 301.589 241.766 301.465C247.91 301.739 260.879 285.753 262.51 280.208C264.141 274.663 260.432 272.434 259.144 271.476C257.856 270.518 256.737 263.437 254.315 262.401C251.894 261.365 251.112 256.693 249.895 255.926C249.036 255.388 248.145 254.904 247.226 254.475L247.267 254.462H247.296L256.435 252.82L257.161 252.683L256.49 252.9C258.049 252.611 271.378 250.106 273.444 250.338C275.646 250.599 277.208 256.95 277.288 257.725C277.369 258.501 275.825 259.107 275.825 259.107C276.719 259.016 277.621 259.048 278.507 259.203C279.71 259.464 280.751 266.373 280.668 267.581C280.643 267.929 280.526 268.264 280.329 268.553C280.132 268.841 279.862 269.073 279.547 269.223C279.547 269.223 281.198 273.036 281.198 276.499Z" fill="url(#paint12_linear_2640_1031)"/>
<g style="mix-blend-mode:multiply">
<path d="M271.251 225.04C271.251 225.04 269.401 227.133 269.833 229.251C270.265 231.369 278.666 229.944 282.27 227.437C285.873 224.93 285.289 221.818 283.121 220.591C280.954 219.363 271.251 225.04 271.251 225.04Z" fill="#E392AD"/>
</g>
<path d="M279.231 218.575C277.094 218.251 269.121 225.551 270.094 228.708C271.067 231.865 283.056 228.041 284.353 224.28C285.649 220.519 279.231 218.575 279.231 218.575Z" fill="#FFC4B1"/>
<path d="M277.268 219.261C277.268 219.261 280.81 220.174 282.537 221.903C284.264 223.633 283.877 224.589 284.222 224.586C284.568 224.584 285.719 222.012 282.267 220.024C278.816 218.036 277.268 219.261 277.268 219.261Z" fill="#FFE4DB"/>
<path d="M270.203 227.072C270.203 227.072 271.691 225.656 272.809 226.46C273.928 227.264 273.513 229.843 273.513 229.843C273.513 229.843 269.054 230.334 270.203 227.072Z" fill="#FFE4DB"/>
<g style="mix-blend-mode:multiply" opacity="0.5">
<path d="M263.135 240.692C264.373 244.197 256.293 236.173 258.029 235.459C259.764 234.744 262.186 237.998 263.135 240.692Z" fill="#E392AD"/>
</g>
<g style="mix-blend-mode:multiply">
<path d="M277.302 257.735C277.302 257.735 263.999 257.218 253.543 261.109L275.838 259.117C275.838 259.117 276.953 258.334 277.302 257.735Z" fill="#E392AD"/>
</g>
<g style="mix-blend-mode:multiply">
<path d="M279.562 269.233C279.562 269.233 272.394 268.025 258.711 270.908L279.562 269.233Z" fill="#E392AD"/>
</g>
<g style="mix-blend-mode:multiply">
<path d="M262.703 288.216C262.703 288.216 269.436 282.439 271.196 281.531C272.955 280.623 277.03 280.228 277.03 280.228C277.03 280.228 271.778 281.459 271.382 281.848C270.987 282.237 276.18 282.237 276.18 282.237C276.18 282.237 272.054 283.106 270.355 283.447C268.657 283.788 267.234 284.829 266.932 285.566C266.63 286.302 266.949 289.259 265.412 289.757C263.874 290.254 262.703 288.216 262.703 288.216Z" fill="#E392AD"/>
</g>
<g style="mix-blend-mode:soft-light" opacity="0.3">
<path d="M213.432 289.388C212.292 299.073 229.133 297.7 239.691 295.484C250.249 293.268 258.244 279.009 258.696 275.244C259.148 271.479 256.557 266.425 253.533 263.183C250.51 259.942 248.321 257.441 245.063 254.471C241.805 251.501 236.042 260.644 229.922 268.98C223.801 277.316 213.96 284.99 213.432 289.388Z" fill="white"/>
</g>
<path style="mix-blend-mode:multiply" opacity="0.5" d="M245.848 255.955C243.317 256.39 242.281 261.628 242.281 261.628C242.281 261.628 246.121 259.088 245.848 255.955Z" fill="url(#paint13_linear_2640_1031)"/>
<path style="mix-blend-mode:multiply" opacity="0.5" d="M252.656 261.628C252.656 261.628 247.47 262.86 247.276 266.944C247.083 271.029 252.656 261.628 252.656 261.628Z" fill="url(#paint14_linear_2640_1031)"/>
<path style="mix-blend-mode:multiply" opacity="0.5" d="M256.481 270.575C256.481 270.575 252.815 272.796 251.436 275.494C254.7 275.201 256.481 270.575 256.481 270.575Z" fill="url(#paint15_linear_2640_1031)"/>
<path d="M193.305 169.213C193.305 169.213 200.713 189.01 203.448 216.5C203.448 216.5 214.392 230.766 228.912 229.556C243.432 228.346 243.247 207.078 243.247 207.078C243.247 207.078 237.259 183.654 233.426 172.889L193.305 169.213Z" fill="url(#paint16_linear_2640_1031)"/>
<g style="mix-blend-mode:multiply">
<path d="M197.794 184.245C197.794 184.245 210.926 193.666 224.675 199.421C238.423 205.176 236.935 183.926 236.935 183.926L233.443 172.889C233.443 172.889 213.348 174.922 193.305 169.215L197.794 184.245Z" fill="#E392AD"/>
</g>
<path style="mix-blend-mode:multiply" d="M196.09 170.227C189.4 168.593 208.298 199.714 219.256 210.779C230.214 221.845 224.623 211.768 219.256 198.799C213.889 185.831 207.962 172.38 205.316 171.878C202.671 171.376 196.09 170.227 196.09 170.227Z" fill="url(#paint17_linear_2640_1031)"/>
<path d="M199.731 325.202C198.843 361.051 183.969 378.762 183.969 378.762C180.685 380.283 176.838 381.608 172.72 382.731C153.92 387.905 129.48 389.152 126.935 387.563C123.829 385.632 119.504 372.192 121.229 351.619C122.954 331.046 135.323 307.538 143.279 306.585C151.235 305.631 158.318 315.492 162.983 315.058C167.649 314.623 181.99 305.805 182.948 305.464C182.989 305.45 183.031 305.435 183.085 305.422C184.097 305.135 186.232 305.464 186.232 305.464L186.738 307.488C177.064 320.411 167.034 375.312 178.105 375.134C189.175 374.956 196.46 328.396 196.46 328.396L199.731 325.202Z" fill="url(#paint18_linear_2640_1031)"/>
<path d="M387.826 180.397C387.826 180.397 382.396 203.625 380.15 207.416C377.904 211.207 375.533 212.557 373.111 218.114C370.689 223.672 370.817 271.913 363.209 295.43C355.6 318.947 329.725 284.986 329.725 284.986C329.725 284.986 352.481 249.124 356.189 217.217C356.354 215.848 356.478 214.479 356.558 213.126C356.558 213.126 340.303 208.183 338.715 202.697C338.702 202.667 338.693 202.634 338.689 202.602C338.689 202.588 338.689 202.588 338.674 202.573C338.142 200.466 337.69 197.88 337.184 195.073C337.183 195.062 337.177 195.052 337.169 195.045C336.348 190.483 335.364 185.409 333.652 181.125C333.487 180.714 333.311 180.304 333.133 179.893C330.232 173.375 325.182 166.822 325.182 164.7C325.182 162.455 331.231 158.308 338.155 163.318C342.862 166.74 343.396 170.64 343.546 173.762C343.6 175.213 343.587 176.499 343.861 177.499C344.006 178.06 344.27 178.584 344.636 179.034C345.002 179.484 345.46 179.85 345.981 180.106C346.614 180.412 347.304 180.584 348.007 180.612L347.829 177.67L387.826 180.397Z" fill="url(#paint19_linear_2640_1031)"/>
<path style="mix-blend-mode:multiply" d="M348.003 180.625C348.003 180.625 355.939 182.657 361.035 193.159C366.13 203.662 361.604 185.227 352.853 182.352C352.853 182.352 359.206 183.563 368.215 190.695C377.225 197.828 383.189 184.395 384.225 183.045C385.261 181.696 386.986 183.832 386.986 183.832L387.811 180.395L347.82 177.686L348.003 180.625Z" fill="url(#paint20_linear_2640_1031)"/>
<path style="mix-blend-mode:multiply" d="M356.189 217.217C356.354 215.848 356.478 214.479 356.558 213.126C356.558 213.126 340.303 208.183 338.716 202.697C338.702 202.667 338.694 202.634 338.689 202.602C341.685 206.23 365.083 212.772 366.315 214.334C367.273 215.561 362.579 217.643 356.189 217.217Z" fill="url(#paint21_linear_2640_1031)"/>
<g style="mix-blend-mode:multiply">
<path d="M327.449 169.751C327.449 169.751 330.392 176.015 334.617 175.617C338.224 175.272 337.599 166.21 335.19 164.387C332.781 162.564 327.449 169.751 327.449 169.751Z" fill="#E392AD"/>
</g>
<g style="mix-blend-mode:multiply" opacity="0.3">
<path d="M337.184 195.084C337.182 195.073 337.177 195.062 337.168 195.055C336.347 190.493 335.363 185.42 333.652 181.135C333.487 180.725 333.311 180.314 333.133 179.903C338.865 182.463 342.472 172.54 342.472 172.54C342.472 172.54 342.787 172.375 343.539 173.772C343.593 175.223 343.58 176.51 343.854 177.509C343.999 178.071 344.263 178.594 344.629 179.044C344.995 179.494 345.453 179.86 345.974 180.116C348.541 188.198 338.715 202.707 337.184 195.084Z" fill="#E392AD"/>
</g>
<path d="M325.399 165.686C324.68 163.627 332.274 162.903 334.522 163.853C336.77 164.802 337.984 173.532 334.522 174.659C331.06 175.787 326.733 169.508 325.399 165.686Z" fill="#FFC4B1"/>
<path d="M325.725 166.514C325.725 166.514 326.229 164.891 330.378 164.372C334.526 163.853 336.038 166.006 336.038 166.006C336.038 166.006 336.146 162.508 329.47 163.44C322.793 164.372 325.725 166.514 325.725 166.514Z" fill="#FFE4DB"/>
<path d="M331.018 173.758C331.018 173.758 333.485 172.02 336.033 173.58C336.033 173.58 334.775 177.267 331.018 173.758Z" fill="#FFE4DB"/>
<g style="mix-blend-mode:soft-light" opacity="0.3">
<path d="M341.607 203.791C338.293 201.065 345.517 189.874 347.282 184.427C349.048 178.98 361.915 188.576 365.286 201.977C368.657 215.378 348.433 209.412 341.607 203.791Z" fill="white"/>
</g>
<path d="M208.477 316.724L213.489 312.035C213.489 312.035 211.752 319.246 210.72 319.505C209.689 319.763 208.477 316.724 208.477 316.724Z" fill="#C2096F"/>
<path d="M385.335 293.801C385.09 294.349 384.816 294.911 384.514 295.485C375.744 312.171 344.886 339.985 340.742 340.861C336.472 341.764 328.303 339.696 320.393 323.997C312.483 308.297 316.37 266.945 323.896 260.338C331.422 253.731 336.335 263.703 341.272 255.271C344.159 250.331 346.676 243.42 348.77 238.977C350.249 235.815 351.507 233.912 352.521 234.849C352.521 234.849 349.222 244.089 350.946 255.504C352.671 266.919 372.909 294.064 376.534 289.397C380.159 284.73 369.269 250.757 369.269 250.757L369.432 245.842C381.23 272.818 385.335 293.801 385.335 293.801Z" fill="url(#paint22_linear_2640_1031)"/>
<g style="mix-blend-mode:soft-light">
<path d="M385.336 293.801C385.09 294.349 384.816 294.911 384.515 295.485C380.247 294.364 374.91 292.037 368.259 287.82C345.653 273.502 345.599 249.603 348.759 238.968C350.239 235.807 351.496 233.903 352.51 234.84C352.51 234.84 349.211 244.08 350.936 255.495C352.66 266.91 372.899 294.055 376.524 289.388C380.149 284.722 369.259 250.748 369.259 250.748L369.421 245.833C381.231 272.818 385.336 293.801 385.336 293.801Z" fill="#A4A6FF"/>
</g>
<path d="M374.006 232.534C373.978 232.63 373.951 232.752 373.923 232.836C371.858 239.843 366.206 282.468 366.206 282.468C341.617 260.498 351.825 237.229 351.825 237.229C353.057 229.551 353.315 223.377 353.452 222.597C353.589 221.817 355.533 221.845 355.533 221.845C355.533 221.845 355.027 225.608 355.967 227.129C360.852 235.168 372.648 232.056 372.474 229.291C372.301 226.525 371.86 226.466 371.86 226.466L372.077 224.235C372.077 224.235 375.898 225.799 374.006 232.534Z" fill="url(#paint23_linear_2640_1031)"/>
<path d="M371.843 226.46L371.207 230.766C371.207 230.766 372.597 231.172 373.064 228.852C373.531 226.532 371.843 226.46 371.843 226.46Z" fill="#E33D6F"/>
<g style="mix-blend-mode:multiply">
<path d="M202.934 211.862C202.934 211.862 211.454 229.641 225.713 228.863C239.972 228.085 242.8 208.983 242.121 202.713L243.259 207.684C243.259 207.684 245.765 228.863 228.652 231.112C211.539 233.36 203.659 218.46 203.442 216.505C203.225 214.549 202.934 211.862 202.934 211.862Z" fill="#E392AD"/>
</g>
<g style="mix-blend-mode:multiply">
<path d="M194.437 241.688C194.437 241.688 180.126 252.744 179.413 253.203C178.701 253.661 168.718 250.285 167.292 248.47C165.865 246.656 167.291 251.512 169.885 254.176C172.478 256.84 178.66 255.03 178.651 255.21C178.642 255.39 178.169 257.589 178.169 257.589C178.169 257.589 180.193 252.273 187.969 247.173C192.828 243.986 194.437 243.932 194.437 243.932V241.688Z" fill="#B588AD"/>
</g>
<g style="mix-blend-mode:multiply">
<path d="M199.731 325.202C198.842 361.051 183.969 378.762 183.969 378.762C180.685 380.283 176.838 381.608 172.72 382.731C171.68 381.526 170.735 379.803 169.896 377.461C164.545 362.652 179.887 315.032 183.087 305.422C184.099 305.135 186.234 305.464 186.234 305.464L186.74 307.488C177.066 320.411 167.036 375.312 178.106 375.134C189.177 374.956 196.46 328.396 196.46 328.396L199.731 325.202Z" fill="#E392AD"/>
</g>
<path d="M216.22 309.528C216.22 309.528 212.647 319.192 209.897 322.805C209.246 323.674 208.64 324.187 208.131 324.133C205.525 323.872 173.527 355.766 173.527 355.766C173.527 355.766 176.373 321.312 186.731 307.488C186.731 307.488 198.718 296.964 201.687 292.829C205.177 287.997 207.551 289.668 207.551 289.668C207.551 289.668 200.749 303.903 209.563 318.686L213.49 312.033L216.22 309.528Z" fill="url(#paint24_linear_2640_1031)"/>
<path style="mix-blend-mode:multiply" opacity="0.8" d="M305.224 300.529C305.224 300.529 301.336 264.652 305.224 247.017C309.112 229.381 321.905 233.127 322.769 231.341C323.634 229.555 313.608 225.966 306.521 232.343C299.433 238.719 299.444 277.275 305.224 300.529Z" fill="url(#paint25_linear_2640_1031)"/>
<g style="mix-blend-mode:multiply">
<path d="M325.188 226.616C317.669 225.06 313.262 238.027 306.261 237.249C299.261 236.471 312.534 192.777 317.063 188.536C323.796 195.728 324.858 217.148 324.967 219.735C325.075 222.323 325.188 226.616 325.188 226.616Z" fill="#E392AD"/>
</g>
<g style="mix-blend-mode:multiply">
<path d="M143.355 229.628C146.031 225.319 166.333 255.699 169.365 269.148C172.397 282.597 172.477 291.324 170.668 291.713C168.859 292.102 157.834 264.609 154.723 259.942C151.613 255.276 147.593 260.851 147.593 260.851C147.593 260.851 141.974 239.643 143.355 229.628Z" fill="#E392AD"/>
</g>
<path style="mix-blend-mode:multiply" opacity="0.8" d="M174.422 310.184C174.422 310.184 167.552 296.145 147.848 295.484C147.848 295.484 163.486 303.74 166.727 313.932L174.422 310.184Z" fill="url(#paint26_linear_2640_1031)"/>
<path style="mix-blend-mode:multiply" opacity="0.8" d="M167.553 313.582C167.553 313.582 165.461 315.587 162.976 315.057C160.491 314.527 150.624 305.984 143.272 306.584C135.92 307.184 129.506 322.572 129.506 322.572C129.506 322.572 133.222 308.75 143.139 303.723C153.057 298.695 167.553 313.582 167.553 313.582Z" fill="url(#paint27_linear_2640_1031)"/>
<path style="mix-blend-mode:multiply" opacity="0.8" d="M131.254 333.985C131.254 333.985 138.697 314.944 161.421 314.866L158.614 312.626C158.614 312.626 136.612 308.222 131.254 333.985Z" fill="url(#paint28_linear_2640_1031)"/>
<path style="mix-blend-mode:multiply" opacity="0.8" d="M339.705 257.478C337.156 258.782 321.298 268.111 320.262 290.674C320.262 290.674 320.166 273.393 326.094 265.778C332.021 258.163 335.409 258.825 335.409 258.825C335.409 258.825 327.001 257.189 322.075 262.721C317.149 268.252 316.561 286.246 316.561 286.246C316.561 286.246 313.262 270.668 320.779 257.596C328.296 244.523 338.724 255.388 338.724 255.388L339.705 257.478Z" fill="url(#paint29_linear_2640_1031)"/>
<g style="mix-blend-mode:multiply">
<path d="M305.222 300.529C305.222 300.529 297.358 290.935 296.841 278.151C296.324 265.367 304.26 251.151 304.26 251.151C304.26 251.151 299.951 274.514 305.222 300.529Z" fill="#E392AD"/>
</g>
<path style="mix-blend-mode:multiply" opacity="0.8" d="M332.625 339.092C320.392 323.997 366.67 302.835 374.394 301.171C382.118 299.506 364.231 323.077 352.485 331.97C340.739 340.863 337.357 342.998 332.625 339.092Z" fill="url(#paint30_linear_2640_1031)"/>
<path style="mix-blend-mode:multiply" opacity="0.5" d="M314.563 461.846C310.664 464.953 293.039 467.815 270.735 482.597C262.362 488.155 257.284 489.278 254.384 487.512C254.176 487.384 253.979 487.238 253.795 487.077C252.774 486.277 252.067 485.142 251.797 483.873L251.756 483.71C248.064 466.161 277.535 366.28 285.884 330.597C294.233 294.913 297.446 273.806 299.785 273.491C302.124 273.176 303.877 292.517 305.215 300.525C306.518 308.273 310.345 339.016 310.578 340.936C310.578 340.963 310.591 340.978 310.578 340.991C310.143 339.676 299.083 306.95 290.378 346.753C281.497 387.351 252.173 465.837 262.26 474.2C272.346 482.562 296.494 466.596 307.893 442.39C319.129 418.559 313.573 361.249 313.395 359.441C315.241 371.008 317.363 383.381 319.73 395.7C328.822 442.916 318.451 458.726 314.563 461.846Z" fill="url(#paint31_linear_2640_1031)"/>
<path style="mix-blend-mode:multiply" opacity="0.8" d="M146.319 498.981C143.391 498.735 141.625 498.407 141.625 498.407C143.588 495.445 145.357 492.358 146.92 489.167C145.146 493.753 143.86 498.653 146.319 498.981Z" fill="url(#paint32_linear_2640_1031)"/>
<path style="mix-blend-mode:multiply" opacity="0.8" d="M198.747 440.316C200.267 451.568 198.938 463.504 196.475 474.454C195.202 478.313 193.751 481.394 192.096 483.542C179.644 499.722 156.599 499.837 146.543 498.996C152.112 499.283 192.437 488.839 192.096 471.743C191.753 454.401 191.192 375.655 167.553 416.801C168.662 412.543 169.798 403.441 170.593 395.748L170.635 395.461C171.36 388.617 171.84 382.964 171.84 382.964L172.305 382.799L183.964 378.762C197.415 361.164 198.734 338.19 198.734 338.19C198.734 338.19 201.592 359.048 196.748 367.521C191.905 375.994 186.555 375.023 187.663 382.73C188.771 390.436 194.175 406.424 198.747 440.316Z" fill="url(#paint33_linear_2640_1031)"/>
<path style="mix-blend-mode:multiply" opacity="0.8" d="M126.934 387.563C122.957 383.262 160.895 368.761 164.959 366.145C169.023 363.53 168.53 380.418 171.844 382.964C171.844 382.964 141.28 390.134 126.934 387.563Z" fill="url(#paint34_linear_2640_1031)"/>
<g style="mix-blend-mode:multiply" opacity="0.8">
<path d="M216.22 309.528C216.22 309.528 212.647 319.192 209.897 322.805C206.518 320.806 203.084 316.537 202.098 307.542C199.991 288.338 207.545 289.668 207.545 289.668C207.545 289.668 200.742 303.903 209.556 318.686L213.483 312.033L216.22 309.528Z" fill="#E392AD"/>
</g>
<g style="mix-blend-mode:multiply">
<path d="M186.73 307.488C186.73 307.488 174.845 335.461 181.934 347.493L195.34 334.675C195.34 334.675 185.488 364.238 180.57 366.83C175.653 369.422 173.516 355.76 173.516 355.76C173.516 355.76 174.797 325.082 186.73 307.488Z" fill="#E392AD"/>
</g>
<g style="mix-blend-mode:multiply">
<path d="M352.138 236.059C352.138 236.059 348.724 250.991 354.658 263.886C360.592 276.78 366.821 277.825 366.821 277.825L370.231 253.874C370.231 253.874 373.326 263.845 372.548 273.498C371.771 283.151 367.796 284.27 367.796 284.27C367.796 284.27 340.976 268.431 352.138 236.059Z" fill="#E392AD"/>
</g>
<path d="M259.167 435.093C258.556 432.268 290.587 303.724 290.587 303.724C290.587 303.724 283.669 354.474 274.872 391.82C266.076 429.166 259.167 435.093 259.167 435.093Z" fill="#391861"/>
<g style="mix-blend-mode:multiply">
<path d="M191.969 401.964C188.451 386.808 194.328 465.27 194.873 471.321C195.419 477.372 200.664 464.686 198.194 442.74C195.725 420.794 191.969 401.964 191.969 401.964Z" fill="#E392AD"/>
</g>
<g style="mix-blend-mode:multiply">
<path d="M213.482 312.033C213.482 312.033 204.885 312.778 207.544 289.668C207.544 289.668 201.176 300.629 208.476 316.724L213.482 312.033Z" fill="#FEB1C8"/>
</g>
<g style="mix-blend-mode:multiply">
<path d="M198.27 220.415C198.27 220.415 214.477 246.73 233.021 241.685C251.566 236.64 250.858 209.94 250.858 209.94C250.858 209.94 251.891 238.402 232.504 243.938C213.117 249.474 198.333 221.729 198.333 221.729L198.27 220.415Z" fill="#E392AD"/>
</g>
<g style="mix-blend-mode:multiply">
<path d="M305.223 494.075C292 482.851 255.3 511.554 231.13 514.448C206.96 517.342 186.217 504.636 176.754 501.784C167.291 498.931 161.42 503.865 161.42 503.865V499.265C161.42 499.265 168.603 498.787 181.209 499.98C194.317 501.221 213.235 504.097 233.063 502.044C271.952 498.012 311.706 477.665 311.706 477.665L305.624 480.907L305.223 494.075Z" fill="#D07CAD"/>
</g>
<g style="mix-blend-mode:multiply">
<path d="M267.559 484.584C274.863 484.316 282.124 483.33 289.235 481.64C300.642 478.875 311.704 471.735 311.704 471.735L311.32 463.512C311.32 463.512 299.189 466.425 289.632 470.749C280.076 475.072 267.559 484.584 267.559 484.584Z" fill="#D07CAD"/>
</g>
<g style="mix-blend-mode:multiply">
<path d="M161.418 499.265C161.418 499.265 181.552 499.591 191.923 494.075C202.295 488.559 203.157 440.319 203.157 440.319C203.157 440.319 199.008 473.858 192.095 483.542C185.182 493.225 161.418 499.265 161.418 499.265Z" fill="#D07CAD"/>
</g>
<path style="mix-blend-mode:multiply" opacity="0.8" d="M339.705 257.479C339.705 257.479 325.917 280.765 324.501 305.305C323.085 329.845 318.419 297.701 320.789 282.462C323.159 267.223 339.705 257.479 339.705 257.479Z" fill="url(#paint35_linear_2640_1031)"/>
<g style="mix-blend-mode:soft-light" opacity="0.2">
<path d="M268.148 195.728C265.416 199.804 290.291 212.17 297.498 212.909C304.705 213.648 315.838 190.242 315.838 190.242C315.838 190.242 307.817 184.81 268.148 195.728Z" fill="white"/>
</g>
<g style="mix-blend-mode:soft-light" opacity="0.2">
<path d="M146.377 228.604C145.341 230.247 159.426 243.732 162.193 245.894C164.96 248.056 181.81 222.345 182.849 220.418C183.887 218.49 161.242 218.488 146.377 228.604Z" fill="white"/>
</g>
<g style="mix-blend-mode:soft-light" opacity="0.2">
<path d="M140.866 321.726C132.369 327.686 121.226 363.897 125.549 372.542C129.871 381.187 158.304 360.238 166.729 346.253C175.155 332.268 164.612 314.8 164.612 314.8C164.612 314.8 153.42 312.922 140.866 321.726Z" fill="white"/>
</g>
<g style="mix-blend-mode:multiply" opacity="0.5">
<path d="M343.413 251.141C343.413 251.141 331.395 274.588 327.775 287.817C324.154 301.046 323.494 322.964 325.184 326.334C326.873 329.703 349.171 306.106 351.899 298.974C354.627 291.841 341.269 268.5 342.047 262.406C342.824 256.312 343.413 251.141 343.413 251.141Z" fill="#E392AD"/>
</g>
<g style="mix-blend-mode:soft-light" opacity="0.2">
<path d="M305.223 317.024C293.383 304.766 288.403 381.551 290.375 396.234C292.347 410.917 308.687 425.104 311.925 424.066C315.164 423.027 315.162 390.172 311.708 358.365C308.255 326.557 305.223 317.024 305.223 317.024Z" fill="white"/>
</g>
<g style="mix-blend-mode:soft-light" opacity="0.2">
<path d="M310.494 457.436C305.483 452.767 314.988 429.817 317.927 418.728C320.865 407.639 324.538 433.041 320.865 445.886C317.192 458.731 310.494 457.436 310.494 457.436Z" fill="white"/>
</g>
<path d="M222.488 51.2812C222.488 51.2812 230.903 53.4191 235.52 60.5693C240.138 67.7195 239.697 93.6565 239.697 93.6565L222.488 51.2812Z" fill="url(#paint36_linear_2640_1031)"/>
<path d="M257.202 148.039C257.194 148.067 257.185 148.094 257.174 148.12C254.984 157.853 247.895 167.817 239.7 171.28C229.081 175.784 202.466 172.499 193.298 169.214C190.04 168.049 186.999 164.834 183.98 160.591L183.952 160.562C178.491 152.884 173.116 141.852 166.78 133.502C165.575 131.927 164.439 130.408 163.359 128.916C155.586 118.213 150.979 109.59 149.141 97.9816C147.076 84.7459 166.821 67.6906 169.365 64.7749C190.848 40.261 213.701 46.8854 224.592 56.7361C227.896 59.7596 230.729 63.2617 232.995 67.1257L233.021 67.167C237.046 73.9826 238.277 79.814 238.277 79.814C238.277 79.814 238.577 83.0164 239.274 87.151C239.372 87.7811 239.492 88.4372 239.618 89.1064C240.028 91.3225 241.027 94.677 241.657 96.8953C242.71 100.604 246.186 107.887 249.976 116.666C250.386 117.611 250.797 118.57 251.207 119.513C254.383 127.069 257.215 134.652 257.775 139.731C258.041 142.513 257.847 145.32 257.202 148.039V148.039Z" fill="url(#paint37_linear_2640_1031)"/>
<path style="mix-blend-mode:multiply" d="M233.021 67.1713C233.021 67.1713 230.039 74.4541 208.515 76.1922C186.99 77.9303 174.812 68.677 169.886 74.3715C164.96 80.066 173.511 109.384 179.751 103.937C179.751 103.937 177.534 108.864 178.863 120.334C180.192 131.803 178.428 130.395 175.331 130.491C174.169 130.532 169.25 129.956 163.359 128.916C155.586 118.213 150.979 109.59 149.141 97.9816C147.076 84.7459 166.821 67.6906 169.365 64.7749C190.848 40.261 213.701 46.8854 224.592 56.7361C227.896 59.7596 230.729 63.2617 232.995 67.1257L233.021 67.1713Z" fill="url(#paint38_linear_2640_1031)"/>
<path d="M170.143 133.251C170.143 133.251 161.455 128.836 154.976 131.172C148.497 133.508 150.699 145.959 157.18 151.664C163.662 157.37 169.107 157.889 176.237 160.222C183.368 162.556 182.319 152.053 182.319 152.053C182.319 152.053 180.636 137.271 170.143 133.251Z" fill="url(#paint39_linear_2640_1031)"/>
<path d="M163.922 69.9678C162.402 74.3782 145.026 76.7986 141.012 84.2768C136.998 91.7551 137.754 97.1628 138.912 98.7379C140.069 100.313 142.441 89.5064 152.927 82.5908C163.414 75.6753 163.922 69.9678 163.922 69.9678Z" fill="url(#paint40_linear_2640_1031)"/>
<path style="mix-blend-mode:multiply" d="M173.987 142.241C173.987 142.241 163.922 136.62 158.044 137.746C152.167 138.871 155.594 147.905 158.044 151.057C160.494 154.21 164.778 154.949 164.778 154.949C164.778 154.949 158.859 153.804 157.304 147.514C155.749 141.224 158.989 140.057 161.452 139.475C163.915 138.893 161.687 143.219 162.755 148.941C163.824 154.664 167.812 155.75 170.081 155.944C172.351 156.137 167.747 152.313 167.747 147.709C167.747 143.106 170.787 151.342 174.747 150.045C178.706 148.748 173.987 142.241 173.987 142.241Z" fill="url(#paint41_linear_2640_1031)"/>
<path style="mix-blend-mode:multiply" d="M203.441 95.3385C216.286 95.9034 222.481 91.7536 222.481 91.7536C222.481 91.7536 231.638 85.1835 234.766 83.2803C237.893 81.3771 238.973 86.3698 238.973 86.3698C238.973 86.3698 240.971 98.2216 246.518 108.82C246.518 108.82 237.95 114.536 231.929 113.191C225.908 111.846 226.831 107.523 222.941 102.265C215.854 98.5714 214.818 105.411 214.818 105.411C214.818 105.411 217.238 117.093 213.348 123.615C209.458 130.138 192.451 135.43 183.974 129.844C175.496 124.259 177.397 109.778 177.397 109.778C177.397 109.778 188.02 95.9816 203.441 95.3385Z" fill="url(#paint42_linear_2640_1031)"/>
<g style="mix-blend-mode:multiply" opacity="0.6">
<path d="M167.962 139.473C162.558 137.89 167.486 148.877 172.024 149.135C176.561 149.394 172.543 144.727 172.217 143.365C171.891 142.002 173.987 142.241 173.987 142.241C173.987 142.241 170.56 140.369 167.962 139.473Z" fill="#BF7988"/>
</g>
<path style="mix-blend-mode:multiply" d="M189.994 122.098C189.994 122.098 186.518 114.711 193.947 107.759C201.375 100.806 211.26 115.215 211.26 115.215L189.994 122.098Z" fill="url(#paint43_linear_2640_1031)"/>
<g style="mix-blend-mode:multiply">
<path d="M190.221 123.298C191.246 127.133 207.53 119.331 211.022 117.777C214.515 116.224 209.413 114.473 207.484 112.128C205.555 109.784 201.896 107.305 195.801 109.956C189.706 112.606 189.324 119.911 190.221 123.298Z" fill="#E392AD"/>
</g>
<path d="M209.384 118.071C208.37 118.421 206.269 119.309 203.806 120.285C200.079 121.747 195.553 123.424 192.753 123.798C191.45 123.974 190.514 123.861 190.227 123.298C189.988 122.835 189.838 121.936 189.877 120.798C189.951 117.169 191.832 111.129 198.428 109.678C198.5 109.659 198.572 109.646 198.646 109.639C207.145 107.951 212.071 117.156 209.384 118.071Z" fill="#FFE4EC"/>
<path d="M204.481 117.132C204.483 118.219 204.252 119.294 203.806 120.285C200.079 121.747 195.552 123.424 192.753 123.798C191.534 123.084 190.538 122.045 189.877 120.797C189.951 117.169 191.832 111.129 198.428 109.678C198.499 109.659 198.572 109.646 198.645 109.639C200.314 110.058 201.795 111.023 202.852 112.381C203.909 113.739 204.483 115.411 204.481 117.132Z" fill="#7F6186"/>
<path style="mix-blend-mode:multiply" d="M201.674 117.138C201.674 118.12 201.383 119.079 200.837 119.895C200.292 120.711 199.517 121.347 198.611 121.723C197.704 122.098 196.707 122.197 195.744 122.005C194.782 121.813 193.898 121.34 193.204 120.646C192.51 119.952 192.038 119.068 191.847 118.105C191.656 117.142 191.754 116.144 192.13 115.238C192.506 114.331 193.142 113.556 193.958 113.011C194.774 112.466 195.734 112.175 196.715 112.176C197.366 112.176 198.011 112.304 198.613 112.554C199.215 112.803 199.761 113.168 200.222 113.629C200.682 114.09 201.048 114.637 201.297 115.239C201.546 115.841 201.674 116.487 201.674 117.138V117.138Z" fill="url(#paint44_linear_2640_1031)"/>
<path d="M209.264 114.307C209.264 114.307 205.686 108.161 197.029 110.414C188.371 112.667 190.079 122.95 190.079 122.95C190.079 122.95 186.853 115.465 193.393 109.973C200.328 104.157 208.002 111.67 209.264 114.307Z" fill="#6C2A51"/>
<path d="M200.209 115.226C200.209 115.226 202.181 113.067 204.64 113.686L200.209 115.226Z" fill="white"/>
<path style="mix-blend-mode:multiply" d="M230.916 108.741C230.916 108.741 227.308 98.356 231.133 93.6174C234.958 88.8789 240.781 98.3972 240.781 98.3972L230.916 108.741Z" fill="url(#paint45_linear_2640_1031)"/>
<g style="mix-blend-mode:multiply">
<path d="M230.914 109.929C229.313 107.989 228.688 100.834 233.197 96.8409C237.706 92.8476 241.698 100.169 242.806 103.385C243.913 106.6 239.113 108.817 236.225 109.412C233.336 110.007 231.181 110.261 230.914 109.929Z" fill="#E392AD"/>
</g>
<path d="M241.621 105.824C240.934 106.547 239.759 107.262 238.432 107.862C237.033 108.501 235.564 108.976 234.056 109.276C232.918 109.494 231.942 109.526 231.393 109.276C231.275 109.234 231.17 109.162 231.087 109.069C231.004 108.975 230.945 108.862 230.917 108.74C230.418 106.063 230.431 102.624 231.319 100.049C231.782 98.6716 232.505 97.5462 233.519 96.8966C234.045 96.5609 234.647 96.3629 235.27 96.3208C239.77 95.9536 243.986 103.347 241.621 105.824Z" fill="#FFE4EC"/>
<path d="M238.958 104.646C238.962 105.74 238.784 106.826 238.432 107.862C237.033 108.501 235.564 108.976 234.056 109.276C233.645 109.499 233.185 109.615 232.718 109.613C232.256 109.612 231.802 109.5 231.393 109.287C231.275 109.244 231.17 109.173 231.087 109.079C231.004 108.985 230.945 108.872 230.917 108.75C230.418 106.074 230.431 102.634 231.319 100.06C231.782 98.6823 232.505 97.5568 233.519 96.9072C236.558 97.1918 238.958 100.557 238.958 104.646Z" fill="#7F6186"/>
<path style="mix-blend-mode:multiply" d="M236.482 104.646C236.482 106.76 235.47 108.574 234.056 109.275C233.645 109.499 233.185 109.615 232.718 109.612C232.256 109.611 231.802 109.5 231.393 109.286C231.275 109.244 231.17 109.172 231.087 109.079C231.004 108.985 230.945 108.872 230.917 108.75C230.418 106.073 230.431 102.634 231.319 100.059C231.747 99.8205 232.228 99.6956 232.718 99.6963C234.794 99.6941 236.482 101.908 236.482 104.646Z" fill="url(#paint46_linear_2640_1031)"/>
<path d="M230.592 106.417C230.592 106.417 230.909 98.5433 235.492 96.9898C240.075 95.4364 242.307 102.88 242.307 102.88C242.307 102.88 240.629 95.1039 237.136 94.828C233.643 94.5521 229.975 98.4868 230.592 106.417Z" fill="#6C2A51"/>
<path d="M236.754 102.266C236.754 102.266 238.726 100.107 241.185 100.726L236.754 102.266Z" fill="white"/>
<path style="mix-blend-mode:multiply" d="M218.322 125.023C218.322 125.023 218.24 130.787 219.146 132.278C220.051 133.768 224.669 132.652 224.669 132.652C224.669 132.652 220.788 134.353 218.281 132.471C215.775 130.59 218.322 125.023 218.322 125.023Z" fill="url(#paint47_linear_2640_1031)"/>
<g style="mix-blend-mode:multiply">
<path d="M213.434 144.231C213.434 144.231 237.028 147.773 245.842 136.192C245.842 136.192 242.117 143.738 231.583 145.535C222.949 146.995 213.434 144.231 213.434 144.231Z" fill="#CE7988"/>
</g>
<path style="mix-blend-mode:multiply" d="M216.784 139.318C216.784 139.318 212.44 142.178 213.546 148.009C213.546 148.007 208.566 143.12 216.784 139.318Z" fill="url(#paint48_linear_2640_1031)"/>
<g style="mix-blend-mode:multiply">
<path d="M173.238 159.301C176.238 160.222 182.026 156.711 182.026 156.711C182.026 156.711 181.249 160.467 178.657 160.561C176.066 160.654 173.238 159.301 173.238 159.301Z" fill="#FEB1C8"/>
</g>
<g style="mix-blend-mode:multiply">
<path d="M257.174 148.12C254.985 157.854 247.895 167.817 239.701 171.28C229.082 175.784 202.466 172.499 193.298 169.214C190.04 168.05 187 164.834 183.98 160.591C184.632 161.18 195.351 170.679 214.412 171.144C234.103 171.637 247.841 163.52 250.684 160.563C253.371 157.799 256.764 149.189 257.174 148.12Z" fill="#E392AD"/>
</g>
<path d="M223.339 91.753C223.339 91.753 222.339 86.5669 223.339 82.8712V89.0307C223.339 89.0307 223.688 82.1847 228.365 79.7209L224.351 87.2144C224.351 87.2144 230.691 78.5868 233.949 77.2311C237.207 75.8753 238.777 81.9327 239.129 82.8495C239.481 83.7664 238.994 86.3714 238.994 86.3714C238.994 86.3714 236.11 82.9364 223.339 91.753Z" fill="url(#paint49_linear_2640_1031)"/>
<path d="M203.767 96.4055C203.767 96.4055 199.004 91.1238 193.776 90.0918L201.284 95.5582C201.284 95.5582 194.252 90.3438 190.54 91.2129C190.54 91.2129 187.888 90.9413 184.575 94.1981C180.333 98.3652 176.637 108.69 176.637 108.69C176.637 108.69 192.038 98.1371 203.767 96.4055Z" fill="url(#paint50_linear_2640_1031)"/>
<path style="mix-blend-mode:multiply" opacity="0.4" d="M178.182 135.843C184.48 127.718 201.205 149.331 211.259 159.525C221.313 169.719 205.231 170.653 193.305 166.386C181.379 162.119 183.451 149.974 180.204 144.225C176.957 138.477 178.182 135.843 178.182 135.843Z" fill="url(#paint51_linear_2640_1031)"/>
<path d="M242.804 93.5088L250.27 88.729C250.27 88.729 250.191 85.2897 248.793 85.7351C247.394 86.1805 242.012 90.2977 242.012 90.2977L242.804 93.5088Z" fill="#8075BA"/>
<g style="mix-blend-mode:multiply" opacity="0.5">
<path d="M249.328 114.901C248.783 115.596 247.506 117.593 246.793 118.025C241.24 121.419 226.922 123.839 225.091 97.37C224.806 93.3658 233.199 88.5208 239.324 87.5627C239.159 86.8805 239.107 86.17 238.968 85.5312C231.318 86.8522 222.341 93.1355 222.12 95.7709C222.041 96.7312 222.167 98.1348 222.517 99.8316L222.354 99.1646C222.354 99.1646 214.863 96.577 209.974 103.573C209.704 103.128 209.4 102.705 209.064 102.308C206.458 99.4145 186.393 99.4427 177.386 111.058C173.63 115.896 181.862 132.864 190.2 136.478C197.789 139.773 211.166 136.297 213.731 126.505C215.586 119.453 213.695 111.553 211.531 106.573C212.139 105.322 215.532 99.2428 223.012 101.872C224.339 106.797 227.124 113.193 231.377 117.867C236.759 123.778 246.168 122.888 250.851 118.688C250.382 117.732 249.797 115.861 249.328 114.901ZM196.49 135.619C186.527 136.523 175.77 120.961 179.114 113.38C183.348 103.797 203.604 100.027 206.916 105.437C220.701 127.956 204.309 134.924 196.49 135.619Z" fill="#E15153"/>
</g>
<path d="M248.792 85.7431C237.126 80.4571 224.402 89.9559 224.083 93.6972C223.764 97.4385 226.824 108.358 233.312 115.326C239.8 122.294 251.011 120.366 254.352 113.677C257.692 106.987 253.659 87.9397 248.792 85.7431ZM248.729 115.476C243.171 118.8 228.851 121.166 227.052 95.2528C226.618 89.0217 241.279 82.5972 248.785 88.5632C254.702 93.267 255.805 111.237 248.729 115.476Z" fill="url(#paint52_linear_2640_1031)"/>
<g style="mix-blend-mode:soft-light">
<path d="M248.727 115.476C243.169 118.801 228.849 121.167 227.05 95.2535C226.616 89.0224 241.277 82.5978 248.783 88.5639C254.7 93.2677 255.803 111.238 248.727 115.476Z" fill="#CFC7B8"/>
</g>
<path d="M211.023 100.096C208.416 97.2585 188.356 97.2867 179.333 108.65C175.572 113.393 183.782 130 192.111 133.546C199.698 136.772 213.082 133.368 215.66 123.784C218.238 114.201 213.618 102.933 211.023 100.096ZM198.395 132.699C188.432 133.587 177.694 118.344 181.045 110.931C185.289 101.543 205.549 97.8581 208.846 103.157C222.623 125.201 206.223 132.016 198.395 132.699Z" fill="url(#paint53_linear_2640_1031)"/>
<g style="mix-blend-mode:soft-light">
<path d="M198.395 132.699C188.432 133.588 177.694 118.344 181.045 110.931C185.29 101.543 205.55 97.8586 208.847 103.158C222.624 125.201 206.223 132.017 198.395 132.699Z" fill="#CFC7B8"/>
</g>
<path d="M213.37 104.503C213.37 104.503 216.661 96.8163 224.962 99.6711L224.31 97.0118C224.31 97.0118 216.793 94.4741 211.906 101.357L213.37 104.503Z" fill="#382A8D"/>
<path d="M178.639 114.677C178.639 114.677 175.74 115.828 174.584 116.732C173.429 117.636 162.855 130.144 162.855 130.144L165.588 130.961C165.588 130.961 175.025 122.009 176.419 120.797C177.814 119.585 180.01 118.866 180.01 118.866L178.639 114.677Z" fill="url(#paint54_linear_2640_1031)"/>
<g style="mix-blend-mode:soft-light">
<path d="M174.976 116.458C173.798 117.44 174.246 119.039 175.18 119.787C176.114 120.534 179.419 118.701 179.684 118.123C179.949 117.545 178.996 114.677 178.996 114.677C178.996 114.677 175.812 115.763 174.976 116.458Z" fill="#5CF1FF"/>
</g>
<g style="mix-blend-mode:soft-light">
<path d="M229.287 104.502C233.522 96.8978 244.884 110.585 247.097 112.838C249.311 115.091 252.382 110.616 252.382 110.616C252.382 110.616 250.021 117.857 240.653 116.032C231.285 114.207 229.287 104.502 229.287 104.502Z" fill="#5CF1FF"/>
</g>
<g style="mix-blend-mode:soft-light">
<path d="M184.127 120.619C188.36 113.015 199.722 126.703 201.937 128.956C204.153 131.209 207.219 126.733 207.219 126.733C207.219 126.733 204.859 133.974 195.491 132.149C186.123 130.324 184.127 120.619 184.127 120.619Z" fill="#5CF1FF"/>
</g>
<g style="mix-blend-mode:soft-light">
<path d="M197.262 99.5792C196.726 99.8986 204.721 99.6596 207.266 101.535C209.812 103.41 212.805 108.935 214.082 108.628C215.359 108.322 212.942 102.16 209.91 99.9855C206.877 97.8107 198.17 99.0382 197.262 99.5792Z" fill="#5CF1FF"/>
</g>
<g style="mix-blend-mode:soft-light">
<path d="M237.031 85.264C236.249 85.6877 242.615 84.9012 246.707 86.648C250.799 88.3948 252.612 94.1914 253.006 94.2892C253.399 94.3869 252.009 87.5366 248.701 85.8897C245.393 84.2429 239.635 83.8474 237.031 85.264Z" fill="#5CF1FF"/>
</g>
<path d="M252.094 115.896C250.14 116.526 252.774 111.457 253.76 109.89C254.746 108.324 255.569 114.772 252.094 115.896Z" fill="#FAFBF9"/>
<path d="M212.783 127.747C211.102 128.291 213.367 123.926 214.216 122.577C215.066 121.227 215.774 126.774 212.783 127.747Z" fill="#FAFBF9"/>
<path d="M218.28 131.101C219.227 133.491 227.172 131.319 232.28 129.846C237.389 128.373 239.961 126.296 240.024 124.347C240.086 122.398 234.761 117.088 230.519 112.775C226.277 108.463 222.947 106.883 220.093 108.265C217.239 109.647 216.638 126.965 218.28 131.101Z" fill="url(#paint55_linear_2640_1031)"/>
<path style="mix-blend-mode:multiply" opacity="0.3" d="M238.282 127.952C242.739 125.816 236.777 119.504 234.01 117.957C231.243 116.41 227.385 109.484 222.499 112.511C217.612 115.537 216.019 130.902 218.841 132.382C221.662 133.861 225.974 131.578 228.439 131.321C230.904 131.065 233.417 132.466 235.837 129.101L238.282 127.952Z" fill="url(#paint56_linear_2640_1031)"/>
<path style="mix-blend-mode:multiply" d="M236.297 128.946C236.297 128.946 240.641 127.208 241.149 125.016C241.657 122.824 239.097 123.165 234.329 122.14C229.562 121.114 226.384 123.673 223.775 126.611C221.167 129.548 218.626 131.002 218.83 132.373C219.034 133.744 224.193 133.025 225.378 132.386C226.564 131.747 226.862 131.156 228.419 131.313C229.977 131.469 232.661 130.704 233.849 129.809C234.555 129.274 235.411 128.972 236.297 128.946V128.946Z" fill="url(#paint57_linear_2640_1031)"/>
<g style="mix-blend-mode:soft-light" opacity="0.5">
<path d="M236.996 121.254C232.786 119.696 226.711 122.685 223.436 122.203C220.161 121.721 221.52 117.143 223.436 114.529C225.352 111.916 229.735 115.72 232.104 117.571C234.474 119.422 236.996 121.254 236.996 121.254Z" fill="#E7ECFF"/>
</g>
<g style="mix-blend-mode:multiply">
<path d="M234.771 129.284C236.257 127.63 237.4 126.924 238.014 127.165C238.95 127.532 236.344 129.216 235.825 129.092C235.462 129.036 235.091 129.104 234.771 129.284V129.284Z" fill="#D1A1C8"/>
</g>
<path style="mix-blend-mode:multiply" d="M234.771 129.283C234.771 129.283 238.088 124.995 237.578 122.731C237.067 120.467 234.897 117.277 234.897 117.277C234.897 117.277 238.025 120.239 239.893 123.007C241.761 125.775 239.428 127.645 237.397 128.367C235.367 129.088 234.771 129.283 234.771 129.283Z" fill="url(#paint58_linear_2640_1031)"/>
<g style="mix-blend-mode:multiply" opacity="0.5">
<path d="M218.281 131.824C220.703 134.288 226.448 138.374 232.543 137.597C238.637 136.819 240.579 124.343 240.579 124.343C240.579 124.343 239.812 124.178 237.868 123.87C235.924 123.561 234.022 120.474 228.672 122.946C224.537 124.858 222.258 130.312 218.281 131.824Z" fill="#FEB1C8"/>
</g>
<g style="mix-blend-mode:multiply">
<path d="M225.596 131.989C225.596 131.989 227.129 130.41 228.23 129.999C229.332 129.588 229.499 130.736 229.232 130.994C228.964 131.253 227.605 131.103 226.805 131.47C226.006 131.837 225.596 131.989 225.596 131.989Z" fill="#D1A1C8"/>
</g>
<path style="mix-blend-mode:multiply" d="M201.705 96.5743C201.705 96.5743 194.387 91.9292 189.635 92.2073C184.883 92.4854 179.763 100.309 179.186 103.038C178.608 105.767 184.833 101.763 191.512 99.5617C198.191 97.3608 201.705 96.5743 201.705 96.5743Z" fill="url(#paint59_linear_2640_1031)"/>
<g style="mix-blend-mode:multiply">
<path d="M224.537 90.9448C224.537 90.9448 229.498 79.306 233.605 77.922C237.4 76.6445 237.773 82.2673 236.785 84.3943C235.797 86.5213 232.113 85.5827 224.537 90.9448Z" fill="#E392AD"/>
</g>
<path style="mix-blend-mode:multiply" d="M225.596 148.357C225.596 148.357 234.11 149.146 239.566 145.828C239.566 145.828 238.801 152.831 234.788 153.215C230.774 153.6 225.596 148.357 225.596 148.357Z" fill="url(#paint60_linear_2640_1031)"/>
<path d="M169.633 60.3598C169.633 60.3598 191.331 32.5913 210.824 32.1155C230.318 31.6397 232.438 55.2954 230.572 56.5577C228.706 57.82 231.949 37.873 211.259 35.3462C195.245 33.3973 174.235 53.6594 169.633 60.3598Z" fill="url(#paint61_linear_2640_1031)"/>
<path d="M242.615 62.0527C235.608 68.2795 232.111 65.7223 232.111 65.7223C232.111 65.7223 229.77 67.8949 217.578 68.8291C205.387 69.7634 194.89 70.1023 194.89 70.1023C194.768 73.3461 193.289 74.893 193.289 74.893C188.2 70.7454 169.356 67.556 166.715 75.51C164.074 83.4641 168.318 99.0115 168.318 99.0115C168.318 99.0115 164.951 106.8 164.43 114.313C163.909 121.826 178.17 135.844 178.17 135.844L176.487 139.473C173.244 134.284 161.913 130.697 161.913 130.697C147.204 118.817 144.986 104.98 143.427 92.2763C141.867 79.5729 162.716 75.6708 166.734 64.6121C170.753 53.5533 181.721 32.4569 198.663 32.1028C214.221 31.7877 222.539 49.5144 226.59 54.7157C226.881 55.1045 227.211 55.462 227.576 55.7824C231.216 58.7698 242.615 62.0527 242.615 62.0527Z" fill="url(#paint62_linear_2640_1031)"/>
<path d="M170.28 62.3947C170.28 62.3947 169.237 53.539 172.995 46.4019C176.752 39.2647 184.146 39.3191 184.143 38.5804C184.143 38.5804 171.828 37.5114 167.552 48.442C163.275 59.3726 165.347 66.2273 163.922 70.0815C162.497 73.9358 170.28 62.3947 170.28 62.3947Z" fill="url(#paint63_linear_2640_1031)"/>
<path style="mix-blend-mode:multiply" d="M242.617 62.0534C235.61 68.2802 232.113 65.723 232.113 65.723C232.113 65.723 229.771 67.8956 217.58 68.8299C205.389 69.7641 194.892 70.103 194.892 70.103C181.345 60.6586 167.538 64.3825 166.758 64.5997C175.967 59.1116 191.238 67.7218 197.465 67.9C203.692 68.0782 221.47 64.7757 221.47 64.7757C221.47 64.7757 206.814 53.8126 195.211 53.1955C183.608 52.5785 170.292 62.3945 170.292 62.3945C170.292 62.3945 185.537 45.2437 200 51.2793C214.463 57.3149 226.409 58.0427 226.6 54.7164C226.891 55.1052 227.222 55.4627 227.586 55.7832C231.218 58.7705 242.617 62.0534 242.617 62.0534Z" fill="url(#paint64_linear_2640_1031)"/>
<path style="mix-blend-mode:multiply" d="M167.408 74.1396C167.408 74.1396 152.755 90.6822 151.079 104.574C149.402 118.466 159.041 128.202 159.041 128.202C159.041 128.202 153.29 109.964 157.049 96.9155C160.809 83.8666 167.408 74.1396 167.408 74.1396Z" fill="url(#paint65_linear_2640_1031)"/>
<path style="mix-blend-mode:multiply" d="M168.329 99.0166C168.329 99.0166 161.068 105.369 158.605 112.176C156.142 118.983 160.125 129.19 160.125 129.19L161.231 129.842C161.231 129.842 156.661 113.021 168.329 99.0166Z" fill="url(#paint66_linear_2640_1031)"/>
<g style="mix-blend-mode:multiply">
<path d="M171.879 60.7634C171.879 60.7634 184.476 45.5918 196.435 42.6088C208.394 39.6257 214.53 60.7634 214.53 60.7634C214.53 60.7634 204.856 53.1439 193.203 53.1939C181.551 53.2439 171.879 60.7634 171.879 60.7634Z" fill="#E392AD"/>
</g>
<g style="mix-blend-mode:multiply">
<path d="M167.408 74.1401C167.408 74.1401 168.976 67.6352 177.399 65.6907C185.822 63.7461 193.294 74.8918 193.294 74.8918C193.294 74.8918 182.949 70.1402 167.408 74.1401Z" fill="#E392AD"/>
</g>
<g style="mix-blend-mode:multiply">
<path d="M138.912 98.747C138.912 98.747 142.639 85.8849 148.99 80.0057C155.341 74.1266 162.391 73.6182 162.391 73.6182C162.391 73.6182 153.269 84.4814 150.88 88.0554C148.491 91.6294 143.432 92.2746 143.432 92.2746C143.432 92.2746 141.51 95.6727 140.489 97.1957C139.468 98.7187 139.785 99.0642 138.912 98.747Z" fill="#E392AD"/>
</g>
<g style="mix-blend-mode:soft-light" opacity="0.5">
<path d="M193.603 32.8487C203.542 32.6314 207.567 36.5139 209.639 40.6702C211.711 44.8265 199.648 42.2193 194.833 43.0862C190.017 43.9531 200.263 41.6262 204.691 40.6702C209.12 39.7142 204.094 32.047 193.603 32.8487Z" fill="white"/>
</g>
<g style="mix-blend-mode:soft-light" opacity="0.5">
<path d="M188.407 53.6187C195.899 53.1972 191.261 59.2155 186.911 61.5836C182.56 63.9518 177.834 62.7525 174.55 62.7721C171.266 62.7916 182.762 61.7553 187.343 58.731C191.924 55.7066 188.407 53.6187 188.407 53.6187Z" fill="white"/>
</g>
<g style="mix-blend-mode:multiply" opacity="0.2">
<path d="M185.084 135.701C169.782 131.873 183.248 146.675 195.049 152.987C206.849 159.298 195.813 138.382 185.084 135.701Z" fill="#E392AD"/>
</g>
<g style="mix-blend-mode:multiply">
<path d="M334.729 161.519C334.729 161.519 345.063 163.439 346.403 177.457L343.86 177.509C343.86 177.509 343.493 172.929 342.472 169.116C341.451 165.303 334.729 161.519 334.729 161.519Z" fill="#A46BAD"/>
</g>
<g style="mix-blend-mode:soft-light" opacity="0.5">
<path d="M224.567 241.978C216.496 238.843 233.388 232.788 238.194 226.459C243.001 220.13 243.907 208.98 245.073 209.109C246.24 209.237 250.518 220.261 244.296 232.191C238.073 244.121 224.567 241.978 224.567 241.978Z" fill="white"/>
</g>
<g style="mix-blend-mode:soft-light" opacity="0.3">
<path d="M182.331 322.573C180.1 338.368 189.683 330.225 195.341 321.148C200.999 312.07 201.809 297.053 201.726 295.485C201.644 293.916 192.654 301.785 189.242 305.305C185.83 308.825 183.008 317.774 182.331 322.573Z" fill="white"/>
</g>
<g style="mix-blend-mode:soft-light" opacity="0.5">
<path d="M374.005 232.534C371.87 233.725 368.614 234.707 364.07 233.957C354.861 232.436 353.451 222.597 353.451 222.597C353.575 221.817 355.532 221.845 355.532 221.845C355.532 221.845 355.026 225.608 355.966 227.129C360.851 235.168 372.647 232.056 372.473 229.291C372.3 226.525 371.859 226.466 371.859 226.466L372.076 224.235C372.076 224.235 375.896 225.799 374.005 232.534Z" fill="white"/>
</g>
<g style="mix-blend-mode:multiply">
<path d="M355.406 224.587C355.406 224.587 357.654 230.52 363.64 231.09C369.626 231.659 371.844 226.458 371.844 226.458L371.207 231.133C371.207 231.133 357.882 236.563 355.406 224.587Z" fill="#E392AD"/>
</g>
<g style="mix-blend-mode:multiply" opacity="0.5">
<path d="M164.614 314.794C164.614 314.794 153.319 312.609 139.165 323.163C129.977 330.016 154.731 313.947 164.603 295.186C169.939 285.044 159.792 269.636 162.885 266.814C171.701 258.775 176.017 309.317 176.017 309.317L164.614 314.794Z" fill="#E392AD"/>
</g>
<g style="mix-blend-mode:soft-light" opacity="0.2">
<path d="M171.871 244.67C172.251 248.82 179.305 248.92 186.393 243.56C193.48 238.2 194.603 207.251 195.122 205.867C195.641 204.483 185.498 218.529 181.189 224.932C176.879 231.335 171.608 241.804 171.871 244.67Z" fill="white"/>
</g>
<path d="M284.862 246.624C284.223 248.66 291.022 281.195 289.955 297.088C288.889 312.981 279.312 349.36 279.312 349.36C279.312 349.36 296.143 290.587 293.819 272.087C291.495 253.587 284.862 246.624 284.862 246.624Z" fill="#5E4FB8"/>
<path d="M175.337 302.684C175.337 302.684 174.616 280.134 176.017 269.945C177.418 259.755 182.001 252.109 182.001 252.109C182.001 252.109 174.74 263.218 173.063 270.907C171.386 278.596 175.337 302.684 175.337 302.684Z" fill="#5E4FB8"/>
<path d="M167.291 248.467C168.933 246.326 174.81 249.525 179.995 248.834C185.179 248.143 189.769 244.671 189.769 244.671C189.769 244.671 181.222 252.518 179.052 252.638C176.882 252.757 168.761 249.394 167.291 248.467Z" fill="#5E4FB8"/>
<path d="M349.418 263.961C349.418 263.961 363.818 283.117 371.207 287.63C378.596 292.142 382.421 288.366 383.609 289.846C384.797 291.325 384.513 295.495 384.513 295.495C384.513 295.495 358.267 288.853 349.418 263.961Z" fill="#6A5CD4"/>
<g style="mix-blend-mode:soft-light" opacity="0.5">
<path d="M219.665 349.359C216.374 351.84 227.267 403.362 235.269 418.727C243.27 434.092 258.526 374.996 259.16 358.364C259.795 341.733 243.261 379.111 234.183 375.745C225.104 372.38 225.08 345.278 219.665 349.359Z" fill="#FFBB9A"/>
</g>
<path d="M247.594 190.778C247.594 190.778 276.811 209.446 285.875 215.523C285.875 215.523 272.669 198.858 247.594 190.778Z" fill="#5E4FB8"/>
<g style="mix-blend-mode:multiply">
<path d="M161.42 514.447C161.42 514.447 161.5 503.599 162.365 502.043C163.229 500.488 166.73 514.875 166.73 514.875L161.42 514.447Z" fill="#D07CAD"/>
</g>
<g style="mix-blend-mode:multiply">
<path d="M305.137 514.447C305.137 514.447 305.137 496.336 303.756 495.126C302.374 493.916 298.949 514.78 298.949 514.78L305.137 514.447Z" fill="#D07CAD"/>
</g>
<g style="mix-blend-mode:soft-light">
<path d="M124.598 386.114C124.598 386.114 118.634 355.547 122.19 331.514C125.745 307.48 147.602 260.851 147.602 260.851C147.602 260.851 122.303 302.604 119.136 333.986C115.969 365.368 124.598 386.114 124.598 386.114Z" fill="#4BFFFF"/>
</g>
<g style="mix-blend-mode:soft-light">
<path d="M147.587 260.851C149.145 261.368 146.551 253.972 153.291 251.385C160.031 248.797 148.986 236.198 147.379 231.342C145.771 226.486 163.805 220.97 163.805 220.97C163.805 220.97 151.017 223.922 143.988 229.226C143.988 229.224 141.106 233.1 147.587 260.851Z" fill="#4BFFFF"/>
</g>
<g style="mix-blend-mode:soft-light">
<path d="M294.818 189.416C294.818 189.416 311.034 188.058 316.036 191.517C321.039 194.976 319.805 219.27 319.807 222.818C319.809 226.366 323.313 225.86 324.803 228.032C331.536 237.857 331.799 250.867 334.079 252.149C336.36 253.431 339.709 257.472 339.709 257.472L325.191 226.62C325.191 226.62 325.537 195.067 317.066 188.54C317.062 188.536 310.276 187.252 294.818 189.416Z" fill="#4BFFFF"/>
</g>
<g style="mix-blend-mode:soft-light">
<path d="M150.506 498.535C143.931 494.72 160.497 462.795 165.823 444.121C171.148 425.447 169.104 406.862 169.104 406.862C169.104 406.862 165.121 435.758 158.212 458.354C151.303 480.949 145.35 492.947 141.629 498.4C141.629 498.407 148.154 499.521 150.506 498.535Z" fill="#4BFFFF"/>
</g>
<g style="mix-blend-mode:soft-light">
<path d="M314.326 318.045C314.326 318.045 328.937 337.018 338.279 336.58C347.621 336.141 377.907 305.365 377.907 305.365C377.907 305.365 352.017 336.193 340.742 340.86C340.742 340.86 336.511 342.224 330.979 337.974C325.447 333.725 314.326 318.045 314.326 318.045Z" fill="#4BFFFF"/>
</g>
<g style="mix-blend-mode:soft-light">
<path d="M310.323 462.189C307.73 459.51 319.137 451.448 321.04 435.092C322.942 418.736 318.522 389.267 318.522 389.267C318.522 389.267 324.721 415.297 322.879 439.283C321.037 463.269 310.323 462.189 310.323 462.189Z" fill="#4BFFFF"/>
</g>
<g style="mix-blend-mode:multiply" opacity="0.8">
<path d="M305.22 300.535C305.22 300.535 315.144 328.019 325.352 328.019C335.56 328.019 353.234 299.204 352.052 294.237C350.871 289.27 340.004 264.739 338.69 261.628C337.376 258.516 326.017 270.907 326.017 270.907C326.017 270.907 324.453 258.497 319.375 267.972C314.297 277.447 311.447 239.323 306.521 239.065C301.595 238.806 299.51 277.46 305.22 300.535Z" fill="#B892AD"/>
</g>
<defs>
<linearGradient id="paint0_linear_2640_1031" x1="235.267" y1="514.448" x2="235.267" y2="429.024" gradientUnits="userSpaceOnUse">
<stop stop-color="#C50B79"/>
<stop offset="1" stop-color="#C01160"/>
</linearGradient>
<linearGradient id="paint1_linear_2640_1031" x1="360.675" y1="182.353" x2="360.675" y2="29.9959" gradientUnits="userSpaceOnUse">
<stop stop-color="#7E8EFF"/>
<stop offset="1" stop-color="#7096FF"/>
</linearGradient>
<linearGradient id="paint2_linear_2640_1031" x1="424.707" y1="182.353" x2="424.707" y2="33.835" gradientUnits="userSpaceOnUse">
<stop stop-color="#26258A"/>
<stop offset="1" stop-color="#3C2C95"/>
</linearGradient>
<linearGradient id="paint3_linear_2640_1031" x1="231.131" y1="503.864" x2="231.131" y2="188.631" gradientUnits="userSpaceOnUse">
<stop stop-color="#FF6686"/>
<stop offset="1" stop-color="#FF7C89"/>
</linearGradient>
<linearGradient id="paint4_linear_2640_1031" x1="220.938" y1="462.189" x2="220.938" y2="220.417" gradientUnits="userSpaceOnUse">
<stop offset="0.02" stop-color="white"/>
<stop offset="0.99" stop-color="#EA8CC1"/>
</linearGradient>
<linearGradient id="paint5_linear_2640_1031" x1="241.012" y1="499.273" x2="241.012" y2="239.064" gradientUnits="userSpaceOnUse">
<stop offset="0.02" stop-color="white"/>
<stop offset="0.99" stop-color="#EA8CC1"/>
</linearGradient>
<linearGradient id="paint6_linear_2640_1031" x1="290.375" y1="488.281" x2="290.375" y2="188.102" gradientUnits="userSpaceOnUse">
<stop stop-color="#2B2583"/>
<stop offset="1" stop-color="#482C97"/>
</linearGradient>
<linearGradient id="paint7_linear_2640_1031" x1="161.418" y1="499.265" x2="161.418" y2="195.721" gradientUnits="userSpaceOnUse">
<stop stop-color="#2B2583"/>
<stop offset="1" stop-color="#482C97"/>
</linearGradient>
<linearGradient id="paint8_linear_2640_1031" x1="183.554" y1="453.029" x2="183.554" y2="195.774" gradientUnits="userSpaceOnUse">
<stop stop-color="#38328A"/>
<stop offset="1" stop-color="#5C43A2"/>
</linearGradient>
<linearGradient id="paint9_linear_2640_1031" x1="268.716" y1="445.321" x2="268.716" y2="189.062" gradientUnits="userSpaceOnUse">
<stop stop-color="#38328A"/>
<stop offset="1" stop-color="#5C43A2"/>
</linearGradient>
<linearGradient id="paint10_linear_2640_1031" x1="229.932" y1="349.359" x2="229.932" y2="218.114" gradientUnits="userSpaceOnUse">
<stop stop-color="#FFB595"/>
<stop offset="0.98" stop-color="#FFAEA9"/>
</linearGradient>
<linearGradient id="paint11_linear_2640_1031" x1="241.438" y1="243.941" x2="282.269" y2="243.941" gradientUnits="userSpaceOnUse">
<stop offset="0.02" stop-color="white"/>
<stop offset="0.99" stop-color="#EA9DC8"/>
</linearGradient>
<linearGradient id="paint12_linear_2640_1031" x1="241.779" y1="275.921" x2="281.202" y2="275.921" gradientUnits="userSpaceOnUse">
<stop offset="0.01" stop-color="#EA9DC8"/>
<stop offset="0.98" stop-color="#FFDBD6"/>
</linearGradient>
<linearGradient id="paint13_linear_2640_1031" x1="242.281" y1="258.79" x2="245.861" y2="258.79" gradientUnits="userSpaceOnUse">
<stop offset="0.02" stop-color="white"/>
<stop offset="0.99" stop-color="#EA9DC8"/>
</linearGradient>
<linearGradient id="paint14_linear_2640_1031" x1="247.272" y1="264.8" x2="252.656" y2="264.8" gradientUnits="userSpaceOnUse">
<stop offset="0.02" stop-color="white"/>
<stop offset="0.99" stop-color="#EA9DC8"/>
</linearGradient>
<linearGradient id="paint15_linear_2640_1031" x1="251.436" y1="273.035" x2="256.481" y2="273.035" gradientUnits="userSpaceOnUse">
<stop offset="0.02" stop-color="white"/>
<stop offset="0.99" stop-color="#EA9DC8"/>
</linearGradient>
<linearGradient id="paint16_linear_2640_1031" x1="218.28" y1="229.628" x2="218.28" y2="169.213" gradientUnits="userSpaceOnUse">
<stop offset="0.02" stop-color="#FFA67F"/>
<stop offset="1" stop-color="#FF8B7C"/>
</linearGradient>
<linearGradient id="paint17_linear_2640_1031" x1="210.119" y1="215.522" x2="210.119" y2="170.166" gradientUnits="userSpaceOnUse">
<stop offset="0.02" stop-color="white"/>
<stop offset="0.99" stop-color="#F29DC8"/>
</linearGradient>
<linearGradient id="paint18_linear_2640_1031" x1="160.283" y1="388.209" x2="160.283" y2="305.305" gradientUnits="userSpaceOnUse">
<stop stop-color="#38328A"/>
<stop offset="1" stop-color="#4F349B"/>
</linearGradient>
<linearGradient id="paint19_linear_2640_1031" x1="356.504" y1="303.723" x2="356.504" y2="160.958" gradientUnits="userSpaceOnUse">
<stop stop-color="#FFB595"/>
<stop offset="0.98" stop-color="#FFAEA9"/>
</linearGradient>
<linearGradient id="paint20_linear_2640_1031" x1="367.826" y1="196.364" x2="367.826" y2="177.686" gradientUnits="userSpaceOnUse">
<stop offset="0.02" stop-color="#FFDBD6"/>
<stop offset="0.99" stop-color="#EA9DC8"/>
</linearGradient>
<linearGradient id="paint21_linear_2640_1031" x1="338.689" y1="209.943" x2="366.441" y2="209.943" gradientUnits="userSpaceOnUse">
<stop offset="0.01" stop-color="#EA9DC8"/>
<stop offset="0.98" stop-color="white"/>
</linearGradient>
<linearGradient id="paint22_linear_2640_1031" x1="350.688" y1="341.039" x2="350.688" y2="234.597" gradientUnits="userSpaceOnUse">
<stop stop-color="#38328A"/>
<stop offset="1" stop-color="#4F349B"/>
</linearGradient>
<linearGradient id="paint23_linear_2640_1031" x1="362.127" y1="282.468" x2="362.127" y2="221.845" gradientUnits="userSpaceOnUse">
<stop stop-color="#FF6686"/>
<stop offset="1" stop-color="#FF7C89"/>
</linearGradient>
<linearGradient id="paint24_linear_2640_1031" x1="194.874" y1="355.766" x2="194.874" y2="289.388" gradientUnits="userSpaceOnUse">
<stop stop-color="#FF6686"/>
<stop offset="1" stop-color="#FF7C89"/>
</linearGradient>
<linearGradient id="paint25_linear_2640_1031" x1="311.927" y1="300.529" x2="311.927" y2="228.708" gradientUnits="userSpaceOnUse">
<stop offset="0.01" stop-color="#C2798B"/>
<stop offset="0.98" stop-color="white"/>
</linearGradient>
<linearGradient id="paint26_linear_2640_1031" x1="161.134" y1="313.932" x2="161.134" y2="295.484" gradientUnits="userSpaceOnUse">
<stop offset="0.01" stop-color="#C2798B"/>
<stop offset="0.98" stop-color="white"/>
</linearGradient>
<linearGradient id="paint27_linear_2640_1031" x1="129.506" y1="312.628" x2="167.553" y2="312.628" gradientUnits="userSpaceOnUse">
<stop offset="0.02" stop-color="white"/>
<stop offset="0.99" stop-color="#C2798B"/>
</linearGradient>
<linearGradient id="paint28_linear_2640_1031" x1="131.254" y1="323.163" x2="161.421" y2="323.163" gradientUnits="userSpaceOnUse">
<stop offset="0.02" stop-color="white"/>
<stop offset="0.99" stop-color="#C2798B"/>
</linearGradient>
<linearGradient id="paint29_linear_2640_1031" x1="315.84" y1="270.907" x2="339.705" y2="270.907" gradientUnits="userSpaceOnUse">
<stop offset="0.02" stop-color="white"/>
<stop offset="0.99" stop-color="#C2798B"/>
</linearGradient>
<linearGradient id="paint30_linear_2640_1031" x1="330.579" y1="321.024" x2="376.268" y2="321.024" gradientUnits="userSpaceOnUse">
<stop offset="0.01" stop-color="#C2798B"/>
<stop offset="0.98" stop-color="white"/>
</linearGradient>
<linearGradient id="paint31_linear_2640_1031" x1="287.4" y1="488.281" x2="287.4" y2="273.498" gradientUnits="userSpaceOnUse">
<stop offset="0.01" stop-color="#C2798B"/>
<stop offset="0.98" stop-color="white"/>
</linearGradient>
<linearGradient id="paint32_linear_2640_1031" x1="144.277" y1="498.981" x2="144.277" y2="489.167" gradientUnits="userSpaceOnUse">
<stop offset="0.02" stop-color="white"/>
<stop offset="0.99" stop-color="#C2798B"/>
</linearGradient>
<linearGradient id="paint33_linear_2640_1031" x1="173.063" y1="499.266" x2="173.063" y2="338.19" gradientUnits="userSpaceOnUse">
<stop offset="0.02" stop-color="white"/>
<stop offset="0.99" stop-color="#C2798B"/>
</linearGradient>
<linearGradient id="paint34_linear_2640_1031" x1="126.643" y1="376.996" x2="171.844" y2="376.996" gradientUnits="userSpaceOnUse">
<stop offset="0.01" stop-color="#C2798B"/>
<stop offset="0.98" stop-color="white"/>
</linearGradient>
<linearGradient id="paint35_linear_2640_1031" x1="314.525" y1="309.444" x2="343.328" y2="259.57" gradientUnits="userSpaceOnUse">
<stop offset="0.02" stop-color="white"/>
<stop offset="0.99" stop-color="#C2798B"/>
</linearGradient>
<linearGradient id="paint36_linear_2640_1031" x1="235.737" y1="94.2844" x2="228.768" y2="50.2868" gradientUnits="userSpaceOnUse">
<stop stop-color="#3E2987"/>
<stop offset="0.14" stop-color="#372987"/>
<stop offset="0.66" stop-color="#212885"/>
<stop offset="1" stop-color="#192885"/>
</linearGradient>
<linearGradient id="paint37_linear_2640_1031" x1="203.445" y1="173.481" x2="203.445" y2="47.8631" gradientUnits="userSpaceOnUse">
<stop stop-color="#FFB595"/>
<stop offset="0.98" stop-color="#FFC2A9"/>
</linearGradient>
<linearGradient id="paint38_linear_2640_1031" x1="198.146" y1="127.191" x2="185.904" y2="49.9239" gradientUnits="userSpaceOnUse">
<stop offset="0.02" stop-color="white"/>
<stop offset="0.99" stop-color="#F29DC8"/>
</linearGradient>
<linearGradient id="paint39_linear_2640_1031" x1="178.52" y1="161.15" x2="155.999" y2="130.162" gradientUnits="userSpaceOnUse">
<stop stop-color="#FFB595"/>
<stop offset="0.98" stop-color="#FF958D"/>
</linearGradient>
<linearGradient id="paint40_linear_2640_1031" x1="153.153" y1="96.6783" x2="149.287" y2="72.2863" gradientUnits="userSpaceOnUse">
<stop stop-color="#3E2987"/>
<stop offset="0.57" stop-color="#2C2F90"/>
<stop offset="1" stop-color="#243294"/>
</linearGradient>
<linearGradient id="paint41_linear_2640_1031" x1="165.562" y1="155.95" x2="165.562" y2="137.596" gradientUnits="userSpaceOnUse">
<stop offset="0.02" stop-color="white"/>
<stop offset="0.99" stop-color="#F29DC8"/>
</linearGradient>
<linearGradient id="paint42_linear_2640_1031" x1="211.873" y1="132.197" x2="211.873" y2="82.8501" gradientUnits="userSpaceOnUse">
<stop offset="0.02" stop-color="white"/>
<stop offset="0.99" stop-color="#F29DC8"/>
</linearGradient>
<linearGradient id="paint43_linear_2640_1031" x1="189.183" y1="113.988" x2="211.26" y2="113.988" gradientUnits="userSpaceOnUse">
<stop offset="0.01" stop-color="#EA9DC8"/>
<stop offset="0.98" stop-color="white"/>
</linearGradient>
<linearGradient id="paint44_linear_2640_1031" x1="196.715" y1="122.098" x2="196.715" y2="112.176" gradientUnits="userSpaceOnUse">
<stop offset="0.02" stop-color="#E0B3D1"/>
<stop offset="0.99" stop-color="#C2798B"/>
</linearGradient>
<linearGradient id="paint45_linear_2640_1031" x1="229.374" y1="100.526" x2="240.775" y2="100.526" gradientUnits="userSpaceOnUse">
<stop offset="0.02" stop-color="white"/>
<stop offset="0.99" stop-color="#EA9DC8"/>
</linearGradient>
<linearGradient id="paint46_linear_2640_1031" x1="233.535" y1="109.612" x2="233.535" y2="99.6941" gradientUnits="userSpaceOnUse">
<stop offset="0.02" stop-color="#E0B3D1"/>
<stop offset="0.99" stop-color="#C2798B"/>
</linearGradient>
<linearGradient id="paint47_linear_2640_1031" x1="220.924" y1="133.358" x2="220.924" y2="125.023" gradientUnits="userSpaceOnUse">
<stop offset="0.01" stop-color="#EA9DC8"/>
<stop offset="0.98" stop-color="white"/>
</linearGradient>
<linearGradient id="paint48_linear_2640_1031" x1="218.631" y1="142.689" x2="212.362" y2="147.608" gradientUnits="userSpaceOnUse">
<stop offset="0.02" stop-color="white"/>
<stop offset="0.99" stop-color="#F29DC8"/>
</linearGradient>
<linearGradient id="paint49_linear_2640_1031" x1="231.077" y1="91.753" x2="231.077" y2="77.0333" gradientUnits="userSpaceOnUse">
<stop stop-color="#B877B8"/>
<stop offset="0.23" stop-color="#9A6DBA"/>
<stop offset="0.56" stop-color="#7762BB"/>
<stop offset="0.83" stop-color="#615BBD"/>
<stop offset="1" stop-color="#5958BD"/>
</linearGradient>
<linearGradient id="paint50_linear_2640_1031" x1="189.65" y1="109.729" x2="191.259" y2="89.8689" gradientUnits="userSpaceOnUse">
<stop stop-color="#B877B8"/>
<stop offset="0.23" stop-color="#9A6DBA"/>
<stop offset="0.56" stop-color="#7762BB"/>
<stop offset="0.83" stop-color="#615BBD"/>
<stop offset="1" stop-color="#5958BD"/>
</linearGradient>
<linearGradient id="paint51_linear_2640_1031" x1="196.187" y1="168.791" x2="196.187" y2="134.055" gradientUnits="userSpaceOnUse">
<stop offset="0.02" stop-color="white"/>
<stop offset="0.99" stop-color="#F29DC8"/>
</linearGradient>
<linearGradient id="paint52_linear_2640_1031" x1="240.538" y1="120.691" x2="240.538" y2="85.0228" gradientUnits="userSpaceOnUse">
<stop stop-color="#26258A"/>
<stop offset="1" stop-color="#3C2C95"/>
</linearGradient>
<linearGradient id="paint53_linear_2640_1031" x1="198.126" y1="135.77" x2="198.126" y2="99.4278" gradientUnits="userSpaceOnUse">
<stop stop-color="#26258A"/>
<stop offset="1" stop-color="#3C2C95"/>
</linearGradient>
<linearGradient id="paint54_linear_2640_1031" x1="171.339" y1="131.985" x2="171.339" y2="115.639" gradientUnits="userSpaceOnUse">
<stop stop-color="#26258A"/>
<stop offset="1" stop-color="#3C2C95"/>
</linearGradient>
<linearGradient id="paint55_linear_2640_1031" x1="217.381" y1="119.971" x2="240.024" y2="119.971" gradientUnits="userSpaceOnUse">
<stop stop-color="#FFB595"/>
<stop offset="0.98" stop-color="#FFC2A9"/>
</linearGradient>
<linearGradient id="paint56_linear_2640_1031" x1="228.66" y1="132.87" x2="228.66" y2="111.746" gradientUnits="userSpaceOnUse">
<stop offset="0.01" stop-color="#F29DC8"/>
<stop offset="0.98" stop-color="white"/>
</linearGradient>
<linearGradient id="paint57_linear_2640_1031" x1="230.016" y1="133.153" x2="230.016" y2="121.909" gradientUnits="userSpaceOnUse">
<stop offset="0.01" stop-color="#F29DC8"/>
<stop offset="0.98" stop-color="white"/>
</linearGradient>
<linearGradient id="paint58_linear_2640_1031" x1="234.771" y1="123.28" x2="240.564" y2="123.28" gradientUnits="userSpaceOnUse">
<stop offset="0.01" stop-color="#EA9DC8"/>
<stop offset="0.98" stop-color="#FFDBD6"/>
</linearGradient>
<linearGradient id="paint59_linear_2640_1031" x1="179.625" y1="97.6208" x2="201.497" y2="99.3915" gradientUnits="userSpaceOnUse">
<stop offset="0.02" stop-color="white"/>
<stop offset="0.99" stop-color="#F29DC8"/>
</linearGradient>
<linearGradient id="paint60_linear_2640_1031" x1="232.57" y1="153.241" x2="232.57" y2="145.828" gradientUnits="userSpaceOnUse">
<stop offset="0.02" stop-color="white"/>
<stop offset="0.99" stop-color="#F29DC8"/>
</linearGradient>
<linearGradient id="paint61_linear_2640_1031" x1="201.135" y1="61.255" x2="196.839" y2="34.1278" gradientUnits="userSpaceOnUse">
<stop stop-color="#3E2987"/>
<stop offset="0.57" stop-color="#2C2F90"/>
<stop offset="1" stop-color="#243294"/>
</linearGradient>
<linearGradient id="paint62_linear_2640_1031" x1="202.181" y1="135.401" x2="186.099" y2="33.8989" gradientUnits="userSpaceOnUse">
<stop stop-color="#3E2987"/>
<stop offset="0.57" stop-color="#2C2F90"/>
<stop offset="1" stop-color="#243294"/>
</linearGradient>
<linearGradient id="paint63_linear_2640_1031" x1="176.2" y1="68.9105" x2="171.643" y2="40.1494" gradientUnits="userSpaceOnUse">
<stop stop-color="#3E2987"/>
<stop offset="0.57" stop-color="#2C2F90"/>
<stop offset="1" stop-color="#243294"/>
</linearGradient>
<linearGradient id="paint64_linear_2640_1031" x1="166.767" y1="60.0459" x2="242.617" y2="60.0459" gradientUnits="userSpaceOnUse">
<stop offset="0.02" stop-color="white"/>
<stop offset="0.99" stop-color="#C2798B"/>
</linearGradient>
<linearGradient id="paint65_linear_2640_1031" x1="159.145" y1="128.202" x2="159.145" y2="74.1396" gradientUnits="userSpaceOnUse">
<stop offset="0.02" stop-color="white"/>
<stop offset="0.99" stop-color="#C2798B"/>
</linearGradient>
<linearGradient id="paint66_linear_2640_1031" x1="163.066" y1="129.846" x2="163.066" y2="99.0166" gradientUnits="userSpaceOnUse">
<stop offset="0.02" stop-color="white"/>
<stop offset="0.99" stop-color="#C2798B"/>
</linearGradient>
</defs>
</svg>
