<svg width="56" height="56" viewBox="0 0 56 56" fill="none" xmlns="http://www.w3.org/2000/svg">
<circle cx="28" cy="28" r="28" fill="#017E84" fill-opacity="0.15"/>
<path d="M23 26.4499L27 17C27.7956 17 28.5587 17.3319 29.1213 17.9226C29.6839 18.5133 30 19.3146 30 20.15V24.35H35.66C35.9499 24.3465 36.2371 24.4093 36.5016 24.5339C36.7661 24.6586 37.0016 24.8421 37.1919 25.0718C37.3821 25.3016 37.5225 25.572 37.6033 25.8643C37.6842 26.1567 37.7035 26.464 37.66 26.7649L36.28 36.2149C36.2077 36.7156 35.9654 37.1721 35.5979 37.5001C35.2304 37.8281 34.7623 38.0056 34.28 37.9999H23M23 26.4499V37.9999M23 26.4499H20C19.4696 26.4499 18.9609 26.6712 18.5858 27.065C18.2107 27.4588 18 27.993 18 28.5499V35.8999C18 36.4568 18.2107 36.991 18.5858 37.3848C18.9609 37.7786 19.4696 37.9999 20 37.9999H23" stroke="#017E84" stroke-width="2" stroke-linecap="round" stroke-linejoin="round"/>
</svg>
