<svg width="56" height="56" viewBox="0 0 56 56" fill="none" xmlns="http://www.w3.org/2000/svg">
<circle cx="28" cy="28" r="28" fill="#017E84" fill-opacity="0.15"/>
<path fill-rule="evenodd" clip-rule="evenodd" d="M29.5996 20.8C29.5996 20.3582 29.9578 20 30.3996 20H35.1996C35.6414 20 35.9996 20.3582 35.9996 20.8V25.6C35.9996 26.0418 35.6414 26.4 35.1996 26.4C34.7578 26.4 34.3996 26.0418 34.3996 25.6V21.6H30.3996C29.9578 21.6 29.5996 21.2418 29.5996 20.8Z" fill="#017E84"/>
<path fill-rule="evenodd" clip-rule="evenodd" d="M20.8 29.5996C21.2418 29.5996 21.6 29.9578 21.6 30.3996V34.3996H25.6C26.0418 34.3996 26.4 34.7578 26.4 35.1996C26.4 35.6414 26.0418 35.9996 25.6 35.9996H20.8C20.3582 35.9996 20 35.6414 20 35.1996V30.3996C20 29.9578 20.3582 29.5996 20.8 29.5996Z" fill="#017E84"/>
<path fill-rule="evenodd" clip-rule="evenodd" d="M35.7655 20.2343C36.0779 20.5467 36.0779 21.0533 35.7655 21.3657L30.1655 26.9657C29.8531 27.2781 29.3465 27.2781 29.0341 26.9657C28.7217 26.6533 28.7217 26.1467 29.0341 25.8343L34.6341 20.2343C34.9465 19.9219 35.4531 19.9219 35.7655 20.2343Z" fill="#017E84"/>
<path fill-rule="evenodd" clip-rule="evenodd" d="M26.9657 29.0351C27.2781 29.3475 27.2781 29.854 26.9657 30.1665L21.3657 35.7665C21.0533 36.0789 20.5467 36.0789 20.2343 35.7665C19.9219 35.454 19.9219 34.9475 20.2343 34.6351L25.8343 29.0351C26.1467 28.7227 26.6533 28.7227 26.9657 29.0351Z" fill="#017E84"/>
</svg>
