<svg width="56" height="56" viewBox="0 0 56 56" fill="none" xmlns="http://www.w3.org/2000/svg">
<circle cx="28" cy="28" r="28" fill="#017E84" fill-opacity="0.15"/>
<path d="M17 34.5V27.5C17 24.7152 18.1062 22.0445 20.0754 20.0754C22.0445 18.1062 24.7152 17 27.5 17C30.2848 17 32.9555 18.1062 34.9246 20.0754C36.8938 22.0445 38 24.7152 38 27.5V34.5M38 35.6667C38 36.2855 37.7542 36.879 37.3166 37.3166C36.879 37.7542 36.2855 38 35.6667 38H34.5C33.8812 38 33.2877 37.7542 32.8501 37.3166C32.4125 36.879 32.1667 36.2855 32.1667 35.6667V32.1667C32.1667 31.5478 32.4125 30.9543 32.8501 30.5168C33.2877 30.0792 33.8812 29.8333 34.5 29.8333H38V35.6667ZM17 35.6667C17 36.2855 17.2458 36.879 17.6834 37.3166C18.121 37.7542 18.7145 38 19.3333 38H20.5C21.1188 38 21.7123 37.7542 22.1499 37.3166C22.5875 36.879 22.8333 36.2855 22.8333 35.6667V32.1667C22.8333 31.5478 22.5875 30.9543 22.1499 30.5168C21.7123 30.0792 21.1188 29.8333 20.5 29.8333H17V35.6667Z" stroke="#017E84" stroke-width="2" stroke-linecap="round" stroke-linejoin="round"/>
</svg>
