<svg width="1127" height="1101" viewBox="0 0 1127 1101" fill="none" xmlns="http://www.w3.org/2000/svg">
<g filter="url(#filter0_d)">
<path d="M231.807 40H894.836C995.356 40 1076.64 121.265 1076.64 221.807V859.193C1076.64 959.713 995.379 1041 894.836 1041H231.807C131.287 1041 50 959.735 50 859.193V221.807C50 121.287 131.287 40 231.807 40Z" fill="url(#paint0_linear)"/>
<path d="M231.807 65H894.836C981.551 65 1051.64 135.074 1051.64 221.807V859.193C1051.64 945.908 981.57 1016 894.836 1016H231.807C145.092 1016 75 945.926 75 859.193V221.807C75 135.094 145.094 65 231.807 65Z" stroke="white" stroke-width="50"/>
</g>
<path fill-rule="evenodd" clip-rule="evenodd" d="M783.642 633.075C797.545 633.088 811.139 628.978 822.706 621.264C834.272 613.551 843.292 602.581 848.624 589.742C853.956 576.902 855.361 562.77 852.662 549.132C849.962 535.494 843.279 522.963 833.457 513.123C823.636 503.284 811.117 496.577 797.484 493.853C783.851 491.128 769.716 492.507 756.867 497.815C744.018 503.124 733.031 512.123 725.296 523.676C717.562 535.228 713.427 548.815 713.414 562.717C713.406 571.948 715.215 581.091 718.74 589.622C722.265 598.154 727.435 605.908 733.957 612.441C740.478 618.974 748.222 624.159 756.747 627.7C765.272 631.24 774.411 633.066 783.642 633.075ZM783.642 604.234C791.841 604.246 799.859 601.828 806.682 597.284C813.506 592.74 818.829 586.274 821.978 578.705C825.127 571.135 825.961 562.802 824.374 554.759C822.788 546.716 818.851 539.323 813.063 533.517C807.275 527.711 799.895 523.752 791.857 522.14C783.819 520.528 775.483 521.336 767.904 524.461C760.325 527.587 753.843 532.89 749.277 539.699C744.712 546.509 742.268 554.519 742.255 562.717C742.247 568.161 743.311 573.553 745.386 578.585C747.461 583.618 750.507 588.192 754.351 592.047C758.194 595.902 762.759 598.963 767.784 601.054C772.81 603.145 778.199 604.225 783.642 604.234Z" fill="white"/>
<path fill-rule="evenodd" clip-rule="evenodd" d="M634.716 633.075C648.619 633.088 662.213 628.978 673.78 621.264C685.346 613.551 694.366 602.581 699.698 589.742C705.03 576.902 706.435 562.77 703.735 549.132C701.036 535.494 694.352 522.963 684.531 513.123C674.709 503.284 662.191 496.577 648.558 493.853C634.925 491.128 620.79 492.507 607.941 497.815C595.091 503.124 584.105 512.123 576.37 523.676C568.636 535.228 564.501 548.815 564.488 562.717C564.471 581.349 571.851 599.225 585.008 612.418C598.164 625.611 616.02 633.041 634.651 633.075H634.716ZM634.716 604.234C642.914 604.246 650.932 601.828 657.756 597.284C664.58 592.74 669.903 586.274 673.052 578.705C676.201 571.135 677.035 562.802 675.448 554.759C673.861 546.716 669.925 539.323 664.137 533.517C658.349 527.711 650.969 523.752 642.931 522.14C634.893 520.528 626.557 521.336 618.978 524.461C611.399 527.587 604.916 532.89 600.351 539.699C595.786 546.509 593.342 554.519 593.329 562.717C593.321 568.161 594.384 573.553 596.46 578.585C598.535 583.618 601.581 588.192 605.424 592.047C609.267 595.902 613.832 598.963 618.858 601.054C623.884 603.145 629.273 604.225 634.716 604.234Z" fill="white"/>
<path fill-rule="evenodd" clip-rule="evenodd" d="M558.149 562.266V562.784C558.149 578.612 552.802 593.977 542.975 606.385C533.147 618.793 519.416 627.518 504.009 631.144C488.601 634.77 472.42 633.085 458.091 626.361C443.761 619.638 432.123 608.271 425.064 594.103C418.005 579.936 415.938 563.799 419.2 548.311C422.462 532.822 430.861 518.889 443.035 508.772C455.208 498.655 470.442 492.948 486.266 492.575C502.091 492.202 517.577 497.185 530.213 506.717V461.968C530.213 458.263 531.685 454.711 534.304 452.091C536.924 449.472 540.477 448 544.181 448C547.886 448 551.439 449.472 554.058 452.091C556.678 454.711 558.149 458.263 558.149 461.968V562.266ZM487.856 604.235C496.055 604.273 504.08 601.88 510.918 597.357C517.756 592.834 523.099 586.385 526.272 578.826C529.444 571.266 530.304 562.936 528.742 554.888C527.181 546.839 523.267 539.435 517.497 533.611C511.728 527.787 504.36 523.804 496.327 522.167C488.294 520.53 479.956 521.312 472.367 524.414C464.778 527.516 458.279 532.798 453.693 539.594C449.106 546.389 446.637 554.391 446.599 562.59C446.573 568.033 447.62 573.428 449.68 578.467C451.74 583.506 454.771 588.09 458.603 591.957C462.434 595.824 466.989 598.899 472.008 601.006C477.028 603.112 482.413 604.21 487.856 604.235Z" fill="white"/>
<path fill-rule="evenodd" clip-rule="evenodd" d="M342.293 632.95C356.195 632.95 369.786 628.827 381.345 621.104C392.905 613.38 401.915 602.401 407.235 589.557C412.555 576.713 413.947 562.579 411.235 548.944C408.523 535.308 401.828 522.783 391.997 512.953C382.167 503.122 369.642 496.427 356.006 493.715C342.371 491.003 328.237 492.395 315.393 497.715C302.549 503.035 291.57 512.045 283.846 523.605C276.123 535.164 272 548.755 272 562.657C272 581.3 279.406 599.179 292.588 612.362C305.771 625.544 323.65 632.95 342.293 632.95ZM341.646 604.367C349.855 604.367 357.88 601.929 364.702 597.363C371.524 592.797 376.837 586.308 379.966 578.718C383.096 571.129 383.902 562.781 382.281 554.733C380.661 546.686 376.687 539.3 370.864 533.514C365.041 527.727 357.631 523.8 349.573 522.23C341.515 520.659 333.173 521.517 325.603 524.694C318.034 527.871 311.578 533.225 307.054 540.075C302.531 546.926 300.144 554.965 300.195 563.174C300.263 574.123 304.66 584.6 312.427 592.318C320.193 600.036 330.697 604.367 341.646 604.367Z" fill="#875A7B"/>
<defs>
<filter id="filter0_d" x="0" y="0" width="1126.64" height="1101" filterUnits="userSpaceOnUse" color-interpolation-filters="sRGB">
<feFlood flood-opacity="0" result="BackgroundImageFix"/>
<feColorMatrix in="SourceAlpha" type="matrix" values="0 0 0 0 0 0 0 0 0 0 0 0 0 0 0 0 0 0 127 0" result="hardAlpha"/>
<feOffset dy="10"/>
<feGaussianBlur stdDeviation="25"/>
<feComposite in2="hardAlpha" operator="out"/>
<feColorMatrix type="matrix" values="0 0 0 0 0.768627 0 0 0 0 0.768627 0 0 0 0 0.768627 0 0 0 0.5 0"/>
<feBlend mode="normal" in2="BackgroundImageFix" result="effect1_dropShadow"/>
<feBlend mode="normal" in="SourceGraphic" in2="effect1_dropShadow" result="shape"/>
</filter>
<linearGradient id="paint0_linear" x1="563.322" y1="40" x2="563.322" y2="1041" gradientUnits="userSpaceOnUse">
<stop stop-color="#F16ACC"/>
<stop offset="0.963542" stop-color="#A20076"/>
</linearGradient>
</defs>
</svg>
