<svg width="1149" height="202" viewBox="0 0 1149 202" fill="none" xmlns="http://www.w3.org/2000/svg">
<g filter="url(#filter0_d_2593_171)">
<rect x="58" y="54" width="295" height="86" rx="4" fill="white"/>
</g>
<path d="M163.912 91.88V103H162.088V95.384L158.696 103H157.432L154.024 95.384V103H152.2V91.88H154.168L158.072 100.6L161.96 91.88H163.912ZM170.933 103.144C170.101 103.144 169.349 102.957 168.677 102.584C168.005 102.2 167.477 101.667 167.093 100.984C166.709 100.291 166.517 99.4907 166.517 98.584C166.517 97.688 166.715 96.8933 167.109 96.2C167.504 95.5067 168.043 94.9733 168.725 94.6C169.408 94.2267 170.171 94.04 171.013 94.04C171.856 94.04 172.619 94.2267 173.301 94.6C173.984 94.9733 174.523 95.5067 174.917 96.2C175.312 96.8933 175.509 97.688 175.509 98.584C175.509 99.48 175.307 100.275 174.901 100.968C174.496 101.661 173.941 102.2 173.237 102.584C172.544 102.957 171.776 103.144 170.933 103.144ZM170.933 101.56C171.403 101.56 171.84 101.448 172.245 101.224C172.661 101 172.997 100.664 173.253 100.216C173.509 99.768 173.637 99.224 173.637 98.584C173.637 97.944 173.515 97.4053 173.269 96.968C173.024 96.52 172.699 96.184 172.293 95.96C171.888 95.736 171.451 95.624 170.981 95.624C170.512 95.624 170.075 95.736 169.669 95.96C169.275 96.184 168.96 96.52 168.725 96.968C168.491 97.4053 168.373 97.944 168.373 98.584C168.373 99.5333 168.613 100.269 169.093 100.792C169.584 101.304 170.197 101.56 170.933 101.56ZM179.937 95.464C180.203 95.016 180.555 94.6693 180.993 94.424C181.441 94.168 181.969 94.04 182.577 94.04V95.928H182.113C181.398 95.928 180.854 96.1093 180.481 96.472C180.118 96.8347 179.937 97.464 179.937 98.36V103H178.113V94.184H179.937V95.464ZM193.133 98.376C193.133 98.7067 193.112 99.0053 193.069 99.272H186.333C186.386 99.976 186.648 100.541 187.117 100.968C187.586 101.395 188.162 101.608 188.845 101.608C189.826 101.608 190.52 101.197 190.925 100.376H192.893C192.626 101.187 192.141 101.853 191.437 102.376C190.744 102.888 189.88 103.144 188.845 103.144C188.002 103.144 187.245 102.957 186.573 102.584C185.912 102.2 185.389 101.667 185.005 100.984C184.632 100.291 184.445 99.4907 184.445 98.584C184.445 97.6773 184.626 96.8827 184.989 96.2C185.362 95.5067 185.88 94.9733 186.541 94.6C187.213 94.2267 187.981 94.04 188.845 94.04C189.677 94.04 190.418 94.2213 191.069 94.584C191.72 94.9467 192.226 95.4587 192.589 96.12C192.952 96.7707 193.133 97.5227 193.133 98.376ZM191.229 97.8C191.218 97.128 190.978 96.5893 190.509 96.184C190.04 95.7787 189.458 95.576 188.765 95.576C188.136 95.576 187.597 95.7787 187.149 96.184C186.701 96.5787 186.434 97.1173 186.349 97.8H191.229ZM207.228 91.88V93.368H202.508V96.648H206.188V98.136H202.508V103H200.684V91.88H207.228ZM211.543 91.16V103H209.719V91.16H211.543ZM222.817 98.376C222.817 98.7067 222.796 99.0053 222.753 99.272H216.017C216.071 99.976 216.332 100.541 216.801 100.968C217.271 101.395 217.847 101.608 218.529 101.608C219.511 101.608 220.204 101.197 220.609 100.376H222.577C222.311 101.187 221.825 101.853 221.121 102.376C220.428 102.888 219.564 103.144 218.529 103.144C217.687 103.144 216.929 102.957 216.257 102.584C215.596 102.2 215.073 101.667 214.689 100.984C214.316 100.291 214.129 99.4907 214.129 98.584C214.129 97.6773 214.311 96.8827 214.673 96.2C215.047 95.5067 215.564 94.9733 216.225 94.6C216.897 94.2267 217.665 94.04 218.529 94.04C219.361 94.04 220.103 94.2213 220.753 94.584C221.404 94.9467 221.911 95.4587 222.273 96.12C222.636 96.7707 222.817 97.5227 222.817 98.376ZM220.913 97.8C220.903 97.128 220.663 96.5893 220.193 96.184C219.724 95.7787 219.143 95.576 218.449 95.576C217.82 95.576 217.281 95.7787 216.833 96.184C216.385 96.5787 216.119 97.1173 216.033 97.8H220.913ZM229.189 98.536L232.037 103H229.973L228.069 100.008L226.277 103H224.373L227.221 98.664L224.373 94.184H226.437L228.341 97.176L230.133 94.184H232.037L229.189 98.536ZM235.125 93.016C234.794 93.016 234.517 92.904 234.293 92.68C234.069 92.456 233.957 92.1787 233.957 91.848C233.957 91.5173 234.069 91.24 234.293 91.016C234.517 90.792 234.794 90.68 235.125 90.68C235.445 90.68 235.717 90.792 235.941 91.016C236.165 91.24 236.277 91.5173 236.277 91.848C236.277 92.1787 236.165 92.456 235.941 92.68C235.717 92.904 235.445 93.016 235.125 93.016ZM236.021 94.184V103H234.197V94.184H236.021ZM241.04 95.496C241.349 95.0693 241.77 94.7227 242.304 94.456C242.848 94.1787 243.45 94.04 244.112 94.04C244.89 94.04 245.594 94.2267 246.224 94.6C246.853 94.9733 247.349 95.5067 247.712 96.2C248.074 96.8827 248.256 97.6667 248.256 98.552C248.256 99.4373 248.074 100.232 247.712 100.936C247.349 101.629 246.848 102.173 246.208 102.568C245.578 102.952 244.88 103.144 244.112 103.144C243.429 103.144 242.821 103.011 242.288 102.744C241.765 102.477 241.349 102.136 241.04 101.72V103H239.216V91.16H241.04V95.496ZM246.4 98.552C246.4 97.944 246.272 97.4213 246.016 96.984C245.77 96.536 245.44 96.2 245.024 95.976C244.618 95.7413 244.181 95.624 243.712 95.624C243.253 95.624 242.816 95.7413 242.4 95.976C241.994 96.2107 241.664 96.552 241.408 97C241.162 97.448 241.04 97.976 241.04 98.584C241.04 99.192 241.162 99.7253 241.408 100.184C241.664 100.632 241.994 100.973 242.4 101.208C242.816 101.443 243.253 101.56 243.712 101.56C244.181 101.56 244.618 101.443 245.024 101.208C245.44 100.963 245.77 100.611 246.016 100.152C246.272 99.6933 246.4 99.16 246.4 98.552ZM251.787 93.016C251.457 93.016 251.179 92.904 250.955 92.68C250.731 92.456 250.619 92.1787 250.619 91.848C250.619 91.5173 250.731 91.24 250.955 91.016C251.179 90.792 251.457 90.68 251.787 90.68C252.107 90.68 252.379 90.792 252.603 91.016C252.827 91.24 252.939 91.5173 252.939 91.848C252.939 92.1787 252.827 92.456 252.603 92.68C252.379 92.904 252.107 93.016 251.787 93.016ZM252.683 94.184V103H250.859V94.184H252.683ZM257.702 91.16V103H255.878V91.16H257.702ZM261.825 93.016C261.494 93.016 261.217 92.904 260.993 92.68C260.769 92.456 260.657 92.1787 260.657 91.848C260.657 91.5173 260.769 91.24 260.993 91.016C261.217 90.792 261.494 90.68 261.825 90.68C262.145 90.68 262.417 90.792 262.641 91.016C262.865 91.24 262.977 91.5173 262.977 91.848C262.977 92.1787 262.865 92.456 262.641 92.68C262.417 92.904 262.145 93.016 261.825 93.016ZM262.721 94.184V103H260.897V94.184H262.721ZM268.044 95.672V100.552C268.044 100.883 268.118 101.123 268.268 101.272C268.428 101.411 268.694 101.48 269.068 101.48H270.188V103H268.748C267.926 103 267.297 102.808 266.86 102.424C266.422 102.04 266.204 101.416 266.204 100.552V95.672H265.164V94.184H266.204V91.992H268.044V94.184H270.188V95.672H268.044ZM280.605 94.184L275.197 107.144H273.309L275.101 102.856L271.629 94.184H273.661L276.141 100.904L278.717 94.184H280.605Z" fill="#0D2A42"/>
<circle cx="315" cy="54" r="18" fill="#017E84"/>
<rect x="70" y="64" width="65" height="65" rx="4" fill="#714B67"/>
<path d="M324 48L313 59L308 54" stroke="white" stroke-width="2" stroke-linecap="round" stroke-linejoin="round"/>
<g filter="url(#filter1_d_2593_171)">
<rect x="427" y="54" width="295" height="86" rx="4" fill="white"/>
</g>
<path d="M523.024 91.88V103H521.2V91.88H523.024ZM530.667 94.04C531.36 94.04 531.979 94.184 532.523 94.472C533.077 94.76 533.509 95.1867 533.819 95.752C534.128 96.3173 534.283 97 534.283 97.8V103H532.475V98.072C532.475 97.2827 532.277 96.68 531.883 96.264C531.488 95.8373 530.949 95.624 530.267 95.624C529.584 95.624 529.04 95.8373 528.635 96.264C528.24 96.68 528.043 97.2827 528.043 98.072V103H526.219V94.184H528.043V95.192C528.341 94.8293 528.72 94.5467 529.179 94.344C529.648 94.1413 530.144 94.04 530.667 94.04ZM536.801 98.584C536.801 97.6773 536.983 96.8827 537.345 96.2C537.719 95.5067 538.231 94.9733 538.881 94.6C539.532 94.2267 540.279 94.04 541.121 94.04C542.188 94.04 543.068 94.296 543.761 94.808C544.465 95.3093 544.94 96.0293 545.185 96.968H543.217C543.057 96.5307 542.801 96.1893 542.449 95.944C542.097 95.6987 541.655 95.576 541.121 95.576C540.375 95.576 539.777 95.8427 539.329 96.376C538.892 96.8987 538.673 97.6347 538.673 98.584C538.673 99.5333 538.892 100.275 539.329 100.808C539.777 101.341 540.375 101.608 541.121 101.608C542.177 101.608 542.876 101.144 543.217 100.216H545.185C544.929 101.112 544.449 101.827 543.745 102.36C543.041 102.883 542.167 103.144 541.121 103.144C540.279 103.144 539.532 102.957 538.881 102.584C538.231 102.2 537.719 101.667 537.345 100.984C536.983 100.291 536.801 99.4907 536.801 98.584ZM549.627 95.464C549.894 95.016 550.246 94.6693 550.683 94.424C551.131 94.168 551.659 94.04 552.267 94.04V95.928H551.803C551.088 95.928 550.544 96.1093 550.171 96.472C549.808 96.8347 549.627 97.464 549.627 98.36V103H547.803V94.184H549.627V95.464ZM562.824 98.376C562.824 98.7067 562.802 99.0053 562.76 99.272H556.024C556.077 99.976 556.338 100.541 556.808 100.968C557.277 101.395 557.853 101.608 558.536 101.608C559.517 101.608 560.21 101.197 560.616 100.376H562.584C562.317 101.187 561.832 101.853 561.128 102.376C560.434 102.888 559.57 103.144 558.536 103.144C557.693 103.144 556.936 102.957 556.264 102.584C555.602 102.2 555.08 101.667 554.696 100.984C554.322 100.291 554.136 99.4907 554.136 98.584C554.136 97.6773 554.317 96.8827 554.68 96.2C555.053 95.5067 555.57 94.9733 556.232 94.6C556.904 94.2267 557.672 94.04 558.536 94.04C559.368 94.04 560.109 94.2213 560.76 94.584C561.41 94.9467 561.917 95.4587 562.28 96.12C562.642 96.7707 562.824 97.5227 562.824 98.376ZM560.92 97.8C560.909 97.128 560.669 96.5893 560.2 96.184C559.73 95.7787 559.149 95.576 558.456 95.576C557.826 95.576 557.288 95.7787 556.84 96.184C556.392 96.5787 556.125 97.1173 556.04 97.8H560.92ZM564.811 98.552C564.811 97.6667 564.992 96.8827 565.355 96.2C565.728 95.5173 566.229 94.9893 566.859 94.616C567.499 94.232 568.203 94.04 568.971 94.04C569.664 94.04 570.267 94.1787 570.779 94.456C571.301 94.7227 571.717 95.0587 572.027 95.464V94.184H573.867V103H572.027V101.688C571.717 102.104 571.296 102.451 570.763 102.728C570.229 103.005 569.621 103.144 568.939 103.144C568.181 103.144 567.488 102.952 566.859 102.568C566.229 102.173 565.728 101.629 565.355 100.936C564.992 100.232 564.811 99.4373 564.811 98.552ZM572.027 98.584C572.027 97.976 571.899 97.448 571.643 97C571.397 96.552 571.072 96.2107 570.667 95.976C570.261 95.7413 569.824 95.624 569.355 95.624C568.885 95.624 568.448 95.7413 568.043 95.976C567.637 96.2 567.307 96.536 567.051 96.984C566.805 97.4213 566.683 97.944 566.683 98.552C566.683 99.16 566.805 99.6933 567.051 100.152C567.307 100.611 567.637 100.963 568.043 101.208C568.459 101.443 568.896 101.56 569.355 101.56C569.824 101.56 570.261 101.443 570.667 101.208C571.072 100.973 571.397 100.632 571.643 100.184C571.899 99.7253 572.027 99.192 572.027 98.584ZM580.262 103.144C579.569 103.144 578.945 103.021 578.39 102.776C577.846 102.52 577.414 102.179 577.094 101.752C576.774 101.315 576.604 100.829 576.582 100.296H578.47C578.502 100.669 578.678 100.984 578.998 101.24C579.329 101.485 579.74 101.608 580.23 101.608C580.742 101.608 581.137 101.512 581.414 101.32C581.702 101.117 581.846 100.861 581.846 100.552C581.846 100.221 581.686 99.976 581.366 99.816C581.057 99.656 580.561 99.48 579.878 99.288C579.217 99.1067 578.678 98.9307 578.262 98.76C577.846 98.5893 577.484 98.328 577.174 97.976C576.876 97.624 576.726 97.16 576.726 96.584C576.726 96.1147 576.865 95.688 577.142 95.304C577.42 94.9093 577.814 94.6 578.326 94.376C578.849 94.152 579.446 94.04 580.118 94.04C581.121 94.04 581.926 94.296 582.534 94.808C583.153 95.3093 583.484 95.9973 583.526 96.872H581.702C581.67 96.4773 581.51 96.1627 581.222 95.928C580.934 95.6933 580.545 95.576 580.054 95.576C579.574 95.576 579.206 95.6667 578.95 95.848C578.694 96.0293 578.566 96.2693 578.566 96.568C578.566 96.8027 578.652 97 578.822 97.16C578.993 97.32 579.201 97.448 579.446 97.544C579.692 97.6293 580.054 97.7413 580.534 97.88C581.174 98.0507 581.697 98.2267 582.102 98.408C582.518 98.5787 582.876 98.8347 583.174 99.176C583.473 99.5173 583.628 99.9707 583.638 100.536C583.638 101.037 583.5 101.485 583.222 101.88C582.945 102.275 582.55 102.584 582.038 102.808C581.537 103.032 580.945 103.144 580.262 103.144ZM594.489 98.376C594.489 98.7067 594.468 99.0053 594.425 99.272H587.689C587.743 99.976 588.004 100.541 588.473 100.968C588.943 101.395 589.519 101.608 590.201 101.608C591.183 101.608 591.876 101.197 592.281 100.376H594.249C593.983 101.187 593.497 101.853 592.793 102.376C592.1 102.888 591.236 103.144 590.201 103.144C589.359 103.144 588.601 102.957 587.929 102.584C587.268 102.2 586.745 101.667 586.361 100.984C585.988 100.291 585.801 99.4907 585.801 98.584C585.801 97.6773 585.983 96.8827 586.345 96.2C586.719 95.5067 587.236 94.9733 587.897 94.6C588.569 94.2267 589.337 94.04 590.201 94.04C591.033 94.04 591.775 94.2213 592.425 94.584C593.076 94.9467 593.583 95.4587 593.945 96.12C594.308 96.7707 594.489 97.5227 594.489 98.376ZM592.585 97.8C592.575 97.128 592.335 96.5893 591.865 96.184C591.396 95.7787 590.815 95.576 590.121 95.576C589.492 95.576 588.953 95.7787 588.505 96.184C588.057 96.5787 587.791 97.1173 587.705 97.8H592.585ZM596.476 98.552C596.476 97.6667 596.658 96.8827 597.02 96.2C597.394 95.5173 597.895 94.9893 598.524 94.616C599.164 94.232 599.874 94.04 600.652 94.04C601.228 94.04 601.794 94.168 602.348 94.424C602.914 94.6693 603.362 95 603.692 95.416V91.16H605.532V103H603.692V101.672C603.394 102.099 602.978 102.451 602.444 102.728C601.922 103.005 601.319 103.144 600.636 103.144C599.868 103.144 599.164 102.952 598.524 102.568C597.895 102.173 597.394 101.629 597.02 100.936C596.658 100.232 596.476 99.4373 596.476 98.552ZM603.692 98.584C603.692 97.976 603.564 97.448 603.308 97C603.063 96.552 602.738 96.2107 602.332 95.976C601.927 95.7413 601.49 95.624 601.02 95.624C600.551 95.624 600.114 95.7413 599.708 95.976C599.303 96.2 598.972 96.536 598.716 96.984C598.471 97.4213 598.348 97.944 598.348 98.552C598.348 99.16 598.471 99.6933 598.716 100.152C598.972 100.611 599.303 100.963 599.708 101.208C600.124 101.443 600.562 101.56 601.02 101.56C601.49 101.56 601.927 101.443 602.332 101.208C602.738 100.973 603.063 100.632 603.308 100.184C603.564 99.7253 603.692 99.192 603.692 98.584ZM617.348 103.112C616.602 103.112 615.93 102.984 615.332 102.728C614.735 102.461 614.266 102.088 613.924 101.608C613.583 101.128 613.412 100.568 613.412 99.928H615.364C615.407 100.408 615.594 100.803 615.924 101.112C616.266 101.421 616.74 101.576 617.348 101.576C617.978 101.576 618.468 101.427 618.82 101.128C619.172 100.819 619.348 100.424 619.348 99.944C619.348 99.5707 619.236 99.2667 619.012 99.032C618.799 98.7973 618.527 98.616 618.196 98.488C617.876 98.36 617.428 98.2213 616.852 98.072C616.127 97.88 615.535 97.688 615.076 97.496C614.628 97.2933 614.244 96.984 613.924 96.568C613.604 96.152 613.444 95.5973 613.444 94.904C613.444 94.264 613.604 93.704 613.924 93.224C614.244 92.744 614.692 92.376 615.268 92.12C615.844 91.864 616.511 91.736 617.268 91.736C618.346 91.736 619.226 92.008 619.908 92.552C620.602 93.0853 620.986 93.8213 621.06 94.76H619.044C619.012 94.3547 618.82 94.008 618.468 93.72C618.116 93.432 617.652 93.288 617.076 93.288C616.554 93.288 616.127 93.4213 615.796 93.688C615.466 93.9547 615.3 94.3387 615.3 94.84C615.3 95.1813 615.402 95.464 615.604 95.688C615.818 95.9013 616.084 96.072 616.404 96.2C616.724 96.328 617.162 96.4667 617.716 96.616C618.452 96.8187 619.05 97.0213 619.508 97.224C619.978 97.4267 620.372 97.7413 620.692 98.168C621.023 98.584 621.188 99.144 621.188 99.848C621.188 100.413 621.034 100.947 620.724 101.448C620.426 101.949 619.983 102.355 619.396 102.664C618.82 102.963 618.138 103.112 617.348 103.112ZM623.533 98.552C623.533 97.6667 623.714 96.8827 624.077 96.2C624.45 95.5173 624.951 94.9893 625.581 94.616C626.221 94.232 626.925 94.04 627.693 94.04C628.386 94.04 628.989 94.1787 629.501 94.456C630.023 94.7227 630.439 95.0587 630.749 95.464V94.184H632.589V103H630.749V101.688C630.439 102.104 630.018 102.451 629.485 102.728C628.951 103.005 628.343 103.144 627.661 103.144C626.903 103.144 626.21 102.952 625.581 102.568C624.951 102.173 624.45 101.629 624.077 100.936C623.714 100.232 623.533 99.4373 623.533 98.552ZM630.749 98.584C630.749 97.976 630.621 97.448 630.365 97C630.119 96.552 629.794 96.2107 629.389 95.976C628.983 95.7413 628.546 95.624 628.077 95.624C627.607 95.624 627.17 95.7413 626.765 95.976C626.359 96.2 626.029 96.536 625.773 96.984C625.527 97.4213 625.405 97.944 625.405 98.552C625.405 99.16 625.527 99.6933 625.773 100.152C626.029 100.611 626.359 100.963 626.765 101.208C627.181 101.443 627.618 101.56 628.077 101.56C628.546 101.56 628.983 101.443 629.389 101.208C629.794 100.973 630.119 100.632 630.365 100.184C630.621 99.7253 630.749 99.192 630.749 98.584ZM637.608 91.16V103H635.784V91.16H637.608ZM648.883 98.376C648.883 98.7067 648.862 99.0053 648.819 99.272H642.083C642.136 99.976 642.398 100.541 642.867 100.968C643.336 101.395 643.912 101.608 644.595 101.608C645.576 101.608 646.27 101.197 646.675 100.376H648.643C648.376 101.187 647.891 101.853 647.187 102.376C646.494 102.888 645.63 103.144 644.595 103.144C643.752 103.144 642.995 102.957 642.323 102.584C641.662 102.2 641.139 101.667 640.755 100.984C640.382 100.291 640.195 99.4907 640.195 98.584C640.195 97.6773 640.376 96.8827 640.739 96.2C641.112 95.5067 641.63 94.9733 642.291 94.6C642.963 94.2267 643.731 94.04 644.595 94.04C645.427 94.04 646.168 94.2213 646.819 94.584C647.47 94.9467 647.976 95.4587 648.339 96.12C648.702 96.7707 648.883 97.5227 648.883 98.376ZM646.979 97.8C646.968 97.128 646.728 96.5893 646.259 96.184C645.79 95.7787 645.208 95.576 644.515 95.576C643.886 95.576 643.347 95.7787 642.899 96.184C642.451 96.5787 642.184 97.1173 642.099 97.8H646.979ZM654.678 103.144C653.985 103.144 653.361 103.021 652.806 102.776C652.262 102.52 651.83 102.179 651.51 101.752C651.19 101.315 651.019 100.829 650.998 100.296H652.886C652.918 100.669 653.094 100.984 653.414 101.24C653.745 101.485 654.155 101.608 654.646 101.608C655.158 101.608 655.553 101.512 655.83 101.32C656.118 101.117 656.262 100.861 656.262 100.552C656.262 100.221 656.102 99.976 655.782 99.816C655.473 99.656 654.977 99.48 654.294 99.288C653.633 99.1067 653.094 98.9307 652.678 98.76C652.262 98.5893 651.899 98.328 651.59 97.976C651.291 97.624 651.142 97.16 651.142 96.584C651.142 96.1147 651.281 95.688 651.558 95.304C651.835 94.9093 652.23 94.6 652.742 94.376C653.265 94.152 653.862 94.04 654.534 94.04C655.537 94.04 656.342 94.296 656.95 94.808C657.569 95.3093 657.899 95.9973 657.942 96.872H656.118C656.086 96.4773 655.926 96.1627 655.638 95.928C655.35 95.6933 654.961 95.576 654.47 95.576C653.99 95.576 653.622 95.6667 653.366 95.848C653.11 96.0293 652.982 96.2693 652.982 96.568C652.982 96.8027 653.067 97 653.238 97.16C653.409 97.32 653.617 97.448 653.862 97.544C654.107 97.6293 654.47 97.7413 654.95 97.88C655.59 98.0507 656.113 98.2267 656.518 98.408C656.934 98.5787 657.291 98.8347 657.59 99.176C657.889 99.5173 658.043 99.9707 658.054 100.536C658.054 101.037 657.915 101.485 657.638 101.88C657.361 102.275 656.966 102.584 656.454 102.808C655.953 103.032 655.361 103.144 654.678 103.144Z" fill="#0D2A42"/>
<circle cx="684" cy="54" r="18" fill="#017E84"/>
<rect x="439" y="64" width="65" height="65" rx="4" fill="#714B67"/>
<path d="M486.541 88.75L472.687 102.604L465.396 95.3125L454.458 106.25" stroke="white" stroke-width="2.5" stroke-linecap="round" stroke-linejoin="round"/>
<path d="M477.792 88.75H486.542V97.5" stroke="white" stroke-width="2.5" stroke-linecap="round" stroke-linejoin="round"/>
<path d="M693 48L682 59L677 54" stroke="white" stroke-width="2" stroke-linecap="round" stroke-linejoin="round"/>
<g filter="url(#filter2_d_2593_171)">
<rect x="796" y="54" width="295" height="86" rx="4" fill="white"/>
</g>
<path d="M892.024 81.88V93H890.2V81.88H892.024ZM905.891 84.04C906.584 84.04 907.203 84.184 907.747 84.472C908.301 84.76 908.733 85.1867 909.043 85.752C909.363 86.3173 909.523 87 909.523 87.8V93H907.715V88.072C907.715 87.2827 907.517 86.68 907.123 86.264C906.728 85.8373 906.189 85.624 905.507 85.624C904.824 85.624 904.28 85.8373 903.875 86.264C903.48 86.68 903.283 87.2827 903.283 88.072V93H901.475V88.072C901.475 87.2827 901.277 86.68 900.883 86.264C900.488 85.8373 899.949 85.624 899.267 85.624C898.584 85.624 898.04 85.8373 897.635 86.264C897.24 86.68 897.043 87.2827 897.043 88.072V93H895.219V84.184H897.043V85.192C897.341 84.8293 897.72 84.5467 898.179 84.344C898.637 84.1413 899.128 84.04 899.651 84.04C900.355 84.04 900.984 84.1893 901.539 84.488C902.093 84.7867 902.52 85.2187 902.819 85.784C903.085 85.2507 903.501 84.8293 904.067 84.52C904.632 84.2 905.24 84.04 905.891 84.04ZM914.468 85.48C914.777 85.0747 915.198 84.7333 915.732 84.456C916.265 84.1787 916.868 84.04 917.54 84.04C918.308 84.04 919.006 84.232 919.636 84.616C920.276 84.9893 920.777 85.5173 921.14 86.2C921.502 86.8827 921.684 87.6667 921.684 88.552C921.684 89.4373 921.502 90.232 921.14 90.936C920.777 91.6293 920.276 92.1733 919.636 92.568C919.006 92.952 918.308 93.144 917.54 93.144C916.868 93.144 916.27 93.0107 915.748 92.744C915.225 92.4667 914.798 92.1253 914.468 91.72V97.192H912.644V84.184H914.468V85.48ZM919.828 88.552C919.828 87.944 919.7 87.4213 919.444 86.984C919.198 86.536 918.868 86.2 918.452 85.976C918.046 85.7413 917.609 85.624 917.14 85.624C916.681 85.624 916.244 85.7413 915.828 85.976C915.422 86.2107 915.092 86.552 914.836 87C914.59 87.448 914.468 87.976 914.468 88.584C914.468 89.192 914.59 89.7253 914.836 90.184C915.092 90.632 915.422 90.9733 915.828 91.208C916.244 91.4427 916.681 91.56 917.14 91.56C917.609 91.56 918.046 91.4427 918.452 91.208C918.868 90.9627 919.198 90.6107 919.444 90.152C919.7 89.6933 919.828 89.16 919.828 88.552ZM926.112 85.464C926.378 85.016 926.73 84.6693 927.168 84.424C927.616 84.168 928.144 84.04 928.752 84.04V85.928H928.288C927.573 85.928 927.029 86.1093 926.656 86.472C926.293 86.8347 926.112 87.464 926.112 88.36V93H924.288V84.184H926.112V85.464ZM935.052 93.144C934.22 93.144 933.468 92.9573 932.796 92.584C932.124 92.2 931.596 91.6667 931.212 90.984C930.828 90.2907 930.636 89.4907 930.636 88.584C930.636 87.688 930.833 86.8933 931.228 86.2C931.623 85.5067 932.161 84.9733 932.844 84.6C933.527 84.2267 934.289 84.04 935.132 84.04C935.975 84.04 936.737 84.2267 937.42 84.6C938.103 84.9733 938.641 85.5067 939.036 86.2C939.431 86.8933 939.628 87.688 939.628 88.584C939.628 89.48 939.425 90.2747 939.02 90.968C938.615 91.6613 938.06 92.2 937.356 92.584C936.663 92.9573 935.895 93.144 935.052 93.144ZM935.052 91.56C935.521 91.56 935.959 91.448 936.364 91.224C936.78 91 937.116 90.664 937.372 90.216C937.628 89.768 937.756 89.224 937.756 88.584C937.756 87.944 937.633 87.4053 937.388 86.968C937.143 86.52 936.817 86.184 936.412 85.96C936.007 85.736 935.569 85.624 935.1 85.624C934.631 85.624 934.193 85.736 933.788 85.96C933.393 86.184 933.079 86.52 932.844 86.968C932.609 87.4053 932.492 87.944 932.492 88.584C932.492 89.5333 932.732 90.2693 933.212 90.792C933.703 91.304 934.316 91.56 935.052 91.56ZM945.639 91.368L948.135 84.184H950.071L946.711 93H944.535L941.191 84.184H943.143L945.639 91.368ZM960.33 88.376C960.33 88.7067 960.309 89.0053 960.266 89.272H953.53C953.583 89.976 953.845 90.5413 954.314 90.968C954.783 91.3947 955.359 91.608 956.042 91.608C957.023 91.608 957.717 91.1973 958.122 90.376H960.09C959.823 91.1867 959.338 91.8533 958.634 92.376C957.941 92.888 957.077 93.144 956.042 93.144C955.199 93.144 954.442 92.9573 953.77 92.584C953.109 92.2 952.586 91.6667 952.202 90.984C951.829 90.2907 951.642 89.4907 951.642 88.584C951.642 87.6773 951.823 86.8827 952.186 86.2C952.559 85.5067 953.077 84.9733 953.738 84.6C954.41 84.2267 955.178 84.04 956.042 84.04C956.874 84.04 957.615 84.2213 958.266 84.584C958.917 84.9467 959.423 85.4587 959.786 86.12C960.149 86.7707 960.33 87.5227 960.33 88.376ZM958.426 87.8C958.415 87.128 958.175 86.5893 957.706 86.184C957.237 85.7787 956.655 85.576 955.962 85.576C955.333 85.576 954.794 85.7787 954.346 86.184C953.898 86.5787 953.631 87.1173 953.546 87.8H958.426ZM962.317 88.552C962.317 87.6667 962.498 86.8827 962.861 86.2C963.234 85.5173 963.736 84.9893 964.365 84.616C965.005 84.232 965.714 84.04 966.493 84.04C967.069 84.04 967.634 84.168 968.189 84.424C968.754 84.6693 969.202 85 969.533 85.416V81.16H971.373V93H969.533V91.672C969.234 92.0987 968.818 92.4507 968.285 92.728C967.762 93.0053 967.16 93.144 966.477 93.144C965.709 93.144 965.005 92.952 964.365 92.568C963.736 92.1733 963.234 91.6293 962.861 90.936C962.498 90.232 962.317 89.4373 962.317 88.552ZM969.533 88.584C969.533 87.976 969.405 87.448 969.149 87C968.904 86.552 968.578 86.2107 968.173 85.976C967.768 85.7413 967.33 85.624 966.861 85.624C966.392 85.624 965.954 85.7413 965.549 85.976C965.144 86.2 964.813 86.536 964.557 86.984C964.312 87.4213 964.189 87.944 964.189 88.552C964.189 89.16 964.312 89.6933 964.557 90.152C964.813 90.6107 965.144 90.9627 965.549 91.208C965.965 91.4427 966.402 91.56 966.861 91.56C967.33 91.56 967.768 91.4427 968.173 91.208C968.578 90.9733 968.904 90.632 969.149 90.184C969.405 89.7253 969.533 89.192 969.533 88.584ZM978.917 87.416C978.917 86.328 979.168 85.352 979.669 84.488C980.181 83.624 980.869 82.952 981.733 82.472C982.608 81.9813 983.562 81.736 984.597 81.736C985.781 81.736 986.832 82.0293 987.749 82.616C988.677 83.192 989.349 84.0133 989.765 85.08H987.573C987.285 84.4933 986.885 84.056 986.373 83.768C985.861 83.48 985.269 83.336 984.597 83.336C983.861 83.336 983.205 83.5013 982.629 83.832C982.053 84.1627 981.6 84.6373 981.269 85.256C980.949 85.8747 980.789 86.5947 980.789 87.416C980.789 88.2373 980.949 88.9573 981.269 89.576C981.6 90.1947 982.053 90.6747 982.629 91.016C983.205 91.3467 983.861 91.512 984.597 91.512C985.269 91.512 985.861 91.368 986.373 91.08C986.885 90.792 987.285 90.3547 987.573 89.768H989.765C989.349 90.8347 988.677 91.656 987.749 92.232C986.832 92.808 985.781 93.096 984.597 93.096C983.552 93.096 982.597 92.856 981.733 92.376C980.869 91.8853 980.181 91.208 979.669 90.344C979.168 89.48 978.917 88.504 978.917 87.416ZM1000.68 84.184V93H998.86V91.96C998.572 92.3227 998.193 92.6107 997.724 92.824C997.265 93.0267 996.775 93.128 996.252 93.128C995.559 93.128 994.935 92.984 994.38 92.696C993.836 92.408 993.404 91.9813 993.084 91.416C992.775 90.8507 992.62 90.168 992.62 89.368V84.184H994.428V89.096C994.428 89.8853 994.625 90.4933 995.02 90.92C995.415 91.336 995.953 91.544 996.636 91.544C997.319 91.544 997.857 91.336 998.252 90.92C998.657 90.4933 998.86 89.8853 998.86 89.096V84.184H1000.68ZM1007.09 93.144C1006.4 93.144 1005.77 93.0213 1005.22 92.776C1004.67 92.52 1004.24 92.1787 1003.92 91.752C1003.6 91.3147 1003.43 90.8293 1003.41 90.296H1005.3C1005.33 90.6693 1005.51 90.984 1005.83 91.24C1006.16 91.4853 1006.57 91.608 1007.06 91.608C1007.57 91.608 1007.97 91.512 1008.24 91.32C1008.53 91.1173 1008.67 90.8613 1008.67 90.552C1008.67 90.2213 1008.51 89.976 1008.19 89.816C1007.89 89.656 1007.39 89.48 1006.71 89.288C1006.05 89.1067 1005.51 88.9307 1005.09 88.76C1004.67 88.5893 1004.31 88.328 1004 87.976C1003.7 87.624 1003.55 87.16 1003.55 86.584C1003.55 86.1147 1003.69 85.688 1003.97 85.304C1004.25 84.9093 1004.64 84.6 1005.15 84.376C1005.68 84.152 1006.27 84.04 1006.95 84.04C1007.95 84.04 1008.75 84.296 1009.36 84.808C1009.98 85.3093 1010.31 85.9973 1010.35 86.872H1008.53C1008.5 86.4773 1008.34 86.1627 1008.05 85.928C1007.76 85.6933 1007.37 85.576 1006.88 85.576C1006.4 85.576 1006.03 85.6667 1005.78 85.848C1005.52 86.0293 1005.39 86.2693 1005.39 86.568C1005.39 86.8027 1005.48 87 1005.65 87.16C1005.82 87.32 1006.03 87.448 1006.27 87.544C1006.52 87.6293 1006.88 87.7413 1007.36 87.88C1008 88.0507 1008.53 88.2267 1008.93 88.408C1009.35 88.5787 1009.7 88.8347 1010 89.176C1010.3 89.5173 1010.46 89.9707 1010.47 90.536C1010.47 91.0373 1010.33 91.4853 1010.05 91.88C1009.77 92.2747 1009.38 92.584 1008.87 92.808C1008.37 93.032 1007.77 93.144 1007.09 93.144ZM1015.37 85.672V90.552C1015.37 90.8827 1015.44 91.1227 1015.59 91.272C1015.75 91.4107 1016.02 91.48 1016.39 91.48H1017.51V93H1016.07C1015.25 93 1014.62 92.808 1014.18 92.424C1013.74 92.04 1013.53 91.416 1013.53 90.552V85.672H1012.49V84.184H1013.53V81.992H1015.37V84.184H1017.51V85.672H1015.37ZM1023.81 93.144C1022.98 93.144 1022.23 92.9573 1021.56 92.584C1020.89 92.2 1020.36 91.6667 1019.97 90.984C1019.59 90.2907 1019.4 89.4907 1019.4 88.584C1019.4 87.688 1019.6 86.8933 1019.99 86.2C1020.39 85.5067 1020.92 84.9733 1021.61 84.6C1022.29 84.2267 1023.05 84.04 1023.89 84.04C1024.74 84.04 1025.5 84.2267 1026.18 84.6C1026.87 84.9733 1027.4 85.5067 1027.8 86.2C1028.19 86.8933 1028.39 87.688 1028.39 88.584C1028.39 89.48 1028.19 90.2747 1027.78 90.968C1027.38 91.6613 1026.82 92.2 1026.12 92.584C1025.43 92.9573 1024.66 93.144 1023.81 93.144ZM1023.81 91.56C1024.28 91.56 1024.72 91.448 1025.13 91.224C1025.54 91 1025.88 90.664 1026.13 90.216C1026.39 89.768 1026.52 89.224 1026.52 88.584C1026.52 87.944 1026.4 87.4053 1026.15 86.968C1025.91 86.52 1025.58 86.184 1025.17 85.96C1024.77 85.736 1024.33 85.624 1023.86 85.624C1023.39 85.624 1022.96 85.736 1022.55 85.96C1022.16 86.184 1021.84 86.52 1021.61 86.968C1021.37 87.4053 1021.25 87.944 1021.25 88.584C1021.25 89.5333 1021.49 90.2693 1021.97 90.792C1022.47 91.304 1023.08 91.56 1023.81 91.56ZM1041.67 84.04C1042.36 84.04 1042.98 84.184 1043.52 84.472C1044.08 84.76 1044.51 85.1867 1044.82 85.752C1045.14 86.3173 1045.3 87 1045.3 87.8V93H1043.49V88.072C1043.49 87.2827 1043.29 86.68 1042.9 86.264C1042.5 85.8373 1041.96 85.624 1041.28 85.624C1040.6 85.624 1040.06 85.8373 1039.65 86.264C1039.26 86.68 1039.06 87.2827 1039.06 88.072V93H1037.25V88.072C1037.25 87.2827 1037.05 86.68 1036.66 86.264C1036.26 85.8373 1035.72 85.624 1035.04 85.624C1034.36 85.624 1033.82 85.8373 1033.41 86.264C1033.02 86.68 1032.82 87.2827 1032.82 88.072V93H1030.99V84.184H1032.82V85.192C1033.12 84.8293 1033.5 84.5467 1033.95 84.344C1034.41 84.1413 1034.9 84.04 1035.43 84.04C1036.13 84.04 1036.76 84.1893 1037.31 84.488C1037.87 84.7867 1038.3 85.2187 1038.59 85.784C1038.86 85.2507 1039.28 84.8293 1039.84 84.52C1040.41 84.2 1041.02 84.04 1041.67 84.04ZM1056.5 88.376C1056.5 88.7067 1056.48 89.0053 1056.43 89.272H1049.7C1049.75 89.976 1050.01 90.5413 1050.48 90.968C1050.95 91.3947 1051.53 91.608 1052.21 91.608C1053.19 91.608 1053.89 91.1973 1054.29 90.376H1056.26C1055.99 91.1867 1055.51 91.8533 1054.8 92.376C1054.11 92.888 1053.25 93.144 1052.21 93.144C1051.37 93.144 1050.61 92.9573 1049.94 92.584C1049.28 92.2 1048.75 91.6667 1048.37 90.984C1048 90.2907 1047.81 89.4907 1047.81 88.584C1047.81 87.6773 1047.99 86.8827 1048.35 86.2C1048.73 85.5067 1049.25 84.9733 1049.91 84.6C1050.58 84.2267 1051.35 84.04 1052.21 84.04C1053.04 84.04 1053.78 84.2213 1054.43 84.584C1055.09 84.9467 1055.59 85.4587 1055.95 86.12C1056.32 86.7707 1056.5 87.5227 1056.5 88.376ZM1054.59 87.8C1054.58 87.128 1054.34 86.5893 1053.87 86.184C1053.41 85.7787 1052.82 85.576 1052.13 85.576C1051.5 85.576 1050.96 85.7787 1050.51 86.184C1050.07 86.5787 1049.8 87.1173 1049.71 87.8H1054.59ZM1060.92 85.464C1061.18 85.016 1061.54 84.6693 1061.97 84.424C1062.42 84.168 1062.95 84.04 1063.56 84.04V85.928H1063.09C1062.38 85.928 1061.84 86.1093 1061.46 86.472C1061.1 86.8347 1060.92 87.464 1060.92 88.36V93H1059.09V84.184H1060.92V85.464ZM895.976 118L893.416 113.552H892.024V118H890.2V106.88H894.04C894.893 106.88 895.613 107.029 896.2 107.328C896.797 107.627 897.24 108.027 897.528 108.528C897.827 109.029 897.976 109.589 897.976 110.208C897.976 110.933 897.763 111.595 897.336 112.192C896.92 112.779 896.275 113.179 895.4 113.392L898.152 118H895.976ZM892.024 112.096H894.04C894.723 112.096 895.235 111.925 895.576 111.584C895.928 111.243 896.104 110.784 896.104 110.208C896.104 109.632 895.933 109.184 895.592 108.864C895.251 108.533 894.733 108.368 894.04 108.368H892.024V112.096ZM909.189 113.376C909.189 113.707 909.168 114.005 909.125 114.272H902.389C902.443 114.976 902.704 115.541 903.173 115.968C903.643 116.395 904.219 116.608 904.901 116.608C905.883 116.608 906.576 116.197 906.981 115.376H908.949C908.683 116.187 908.197 116.853 907.493 117.376C906.8 117.888 905.936 118.144 904.901 118.144C904.059 118.144 903.301 117.957 902.629 117.584C901.968 117.2 901.445 116.667 901.061 115.984C900.688 115.291 900.501 114.491 900.501 113.584C900.501 112.677 900.683 111.883 901.045 111.2C901.419 110.507 901.936 109.973 902.597 109.6C903.269 109.227 904.037 109.04 904.901 109.04C905.733 109.04 906.475 109.221 907.125 109.584C907.776 109.947 908.283 110.459 908.645 111.12C909.008 111.771 909.189 112.523 909.189 113.376ZM907.285 112.8C907.275 112.128 907.035 111.589 906.565 111.184C906.096 110.779 905.515 110.576 904.821 110.576C904.192 110.576 903.653 110.779 903.205 111.184C902.757 111.579 902.491 112.117 902.405 112.8H907.285ZM913.608 106.16V118H911.784V106.16H913.608ZM916.195 113.552C916.195 112.667 916.376 111.883 916.739 111.2C917.112 110.517 917.614 109.989 918.243 109.616C918.883 109.232 919.587 109.04 920.355 109.04C921.048 109.04 921.651 109.179 922.163 109.456C922.686 109.723 923.102 110.059 923.411 110.464V109.184H925.251V118H923.411V116.688C923.102 117.104 922.68 117.451 922.147 117.728C921.614 118.005 921.006 118.144 920.323 118.144C919.566 118.144 918.872 117.952 918.243 117.568C917.614 117.173 917.112 116.629 916.739 115.936C916.376 115.232 916.195 114.437 916.195 113.552ZM923.411 113.584C923.411 112.976 923.283 112.448 923.027 112C922.782 111.552 922.456 111.211 922.051 110.976C921.646 110.741 921.208 110.624 920.739 110.624C920.27 110.624 919.832 110.741 919.427 110.976C919.022 111.2 918.691 111.536 918.435 111.984C918.19 112.421 918.067 112.944 918.067 113.552C918.067 114.16 918.19 114.693 918.435 115.152C918.691 115.611 919.022 115.963 919.427 116.208C919.843 116.443 920.28 116.56 920.739 116.56C921.208 116.56 921.646 116.443 922.051 116.208C922.456 115.973 922.782 115.632 923.027 115.184C923.283 114.725 923.411 114.192 923.411 113.584ZM930.575 110.672V115.552C930.575 115.883 930.65 116.123 930.799 116.272C930.959 116.411 931.226 116.48 931.599 116.48H932.719V118H931.279C930.458 118 929.828 117.808 929.391 117.424C928.954 117.04 928.735 116.416 928.735 115.552V110.672H927.695V109.184H928.735V106.992H930.575V109.184H932.719V110.672H930.575ZM936.128 108.016C935.797 108.016 935.52 107.904 935.296 107.68C935.072 107.456 934.96 107.179 934.96 106.848C934.96 106.517 935.072 106.24 935.296 106.016C935.52 105.792 935.797 105.68 936.128 105.68C936.448 105.68 936.72 105.792 936.944 106.016C937.168 106.24 937.28 106.517 937.28 106.848C937.28 107.179 937.168 107.456 936.944 107.68C936.72 107.904 936.448 108.016 936.128 108.016ZM937.024 109.184V118H935.2V109.184H937.024ZM944.043 118.144C943.211 118.144 942.459 117.957 941.787 117.584C941.115 117.2 940.587 116.667 940.203 115.984C939.819 115.291 939.627 114.491 939.627 113.584C939.627 112.688 939.824 111.893 940.219 111.2C940.613 110.507 941.152 109.973 941.835 109.6C942.517 109.227 943.28 109.04 944.123 109.04C944.965 109.04 945.728 109.227 946.411 109.6C947.093 109.973 947.632 110.507 948.027 111.2C948.421 111.893 948.619 112.688 948.619 113.584C948.619 114.48 948.416 115.275 948.011 115.968C947.605 116.661 947.051 117.2 946.347 117.584C945.653 117.957 944.885 118.144 944.043 118.144ZM944.043 116.56C944.512 116.56 944.949 116.448 945.355 116.224C945.771 116 946.107 115.664 946.363 115.216C946.619 114.768 946.747 114.224 946.747 113.584C946.747 112.944 946.624 112.405 946.379 111.968C946.133 111.52 945.808 111.184 945.403 110.96C944.997 110.736 944.56 110.624 944.091 110.624C943.621 110.624 943.184 110.736 942.779 110.96C942.384 111.184 942.069 111.52 941.835 111.968C941.6 112.405 941.483 112.944 941.483 113.584C941.483 114.533 941.723 115.269 942.203 115.792C942.693 116.304 943.307 116.56 944.043 116.56ZM955.67 109.04C956.363 109.04 956.982 109.184 957.526 109.472C958.081 109.76 958.513 110.187 958.822 110.752C959.131 111.317 959.286 112 959.286 112.8V118H957.478V113.072C957.478 112.283 957.281 111.68 956.886 111.264C956.491 110.837 955.953 110.624 955.27 110.624C954.587 110.624 954.043 110.837 953.638 111.264C953.243 111.68 953.046 112.283 953.046 113.072V118H951.222V109.184H953.046V110.192C953.345 109.829 953.723 109.547 954.182 109.344C954.651 109.141 955.147 109.04 955.67 109.04ZM965.613 118.144C964.919 118.144 964.295 118.021 963.741 117.776C963.197 117.52 962.765 117.179 962.445 116.752C962.125 116.315 961.954 115.829 961.933 115.296H963.821C963.853 115.669 964.029 115.984 964.349 116.24C964.679 116.485 965.09 116.608 965.581 116.608C966.093 116.608 966.487 116.512 966.765 116.32C967.053 116.117 967.197 115.861 967.197 115.552C967.197 115.221 967.037 114.976 966.717 114.816C966.407 114.656 965.911 114.48 965.229 114.288C964.567 114.107 964.029 113.931 963.613 113.76C963.197 113.589 962.834 113.328 962.525 112.976C962.226 112.624 962.077 112.16 962.077 111.584C962.077 111.115 962.215 110.688 962.493 110.304C962.77 109.909 963.165 109.6 963.677 109.376C964.199 109.152 964.797 109.04 965.469 109.04C966.471 109.04 967.277 109.296 967.885 109.808C968.503 110.309 968.834 110.997 968.877 111.872H967.053C967.021 111.477 966.861 111.163 966.573 110.928C966.285 110.693 965.895 110.576 965.405 110.576C964.925 110.576 964.557 110.667 964.301 110.848C964.045 111.029 963.917 111.269 963.917 111.568C963.917 111.803 964.002 112 964.173 112.16C964.343 112.32 964.551 112.448 964.797 112.544C965.042 112.629 965.405 112.741 965.885 112.88C966.525 113.051 967.047 113.227 967.453 113.408C967.869 113.579 968.226 113.835 968.525 114.176C968.823 114.517 968.978 114.971 968.989 115.536C968.989 116.037 968.85 116.485 968.573 116.88C968.295 117.275 967.901 117.584 967.389 117.808C966.887 118.032 966.295 118.144 965.613 118.144Z" fill="#0D2A42"/>
<circle cx="1053" cy="54" r="18" fill="#017E84"/>
<rect x="808" y="64" width="65" height="65" rx="4" fill="#714B67"/>
<path d="M1062 48L1051 59L1046 54" stroke="white" stroke-width="2" stroke-linecap="round" stroke-linejoin="round"/>
<path d="M386 105L392 99L386 93" stroke="black" stroke-opacity="0.5" stroke-width="2" stroke-linecap="round" stroke-linejoin="round"/>
<path d="M756 105L762 99L756 93" stroke="black" stroke-opacity="0.5" stroke-width="2" stroke-linecap="round" stroke-linejoin="round"/>
<path fill-rule="evenodd" clip-rule="evenodd" d="M100.636 93.2722C99.8827 93.2722 99.2722 93.8827 99.2722 94.6358V106.909C99.2722 107.662 99.8827 108.272 100.636 108.272H112.909C113.662 108.272 114.272 107.662 114.272 106.909V94.6358C114.272 93.8827 113.662 93.2722 112.909 93.2722H100.636ZM96.5449 94.6358C96.5449 92.3765 98.3765 90.5449 100.636 90.5449H112.909C115.168 90.5449 116.999 92.3765 116.999 94.6358V106.909C116.999 109.168 115.168 110.999 112.909 110.999H100.636C98.3765 110.999 96.5449 109.168 96.5449 106.909V94.6358Z" fill="white"/>
<path fill-rule="evenodd" clip-rule="evenodd" d="M91.0909 83.7273C90.7292 83.7273 90.3824 83.8709 90.1267 84.1267C89.8709 84.3824 89.7273 84.7292 89.7273 85.0909V97.3636C89.7273 97.7253 89.8709 98.0721 90.1267 98.3279C90.3824 98.5836 90.7293 98.7273 91.0909 98.7273H92.4545C93.2077 98.7273 93.8182 99.3378 93.8182 100.091C93.8182 100.844 93.2077 101.455 92.4545 101.455H91.0909C90.0059 101.455 88.9654 101.024 88.1982 100.256C87.431 99.4892 87 98.4486 87 97.3636V85.0909C87 84.0059 87.431 82.9654 88.1982 82.1982C88.9654 81.431 90.0059 81 91.0909 81H103.364C104.449 81 105.489 81.431 106.256 82.1982C107.024 82.9654 107.455 84.0059 107.455 85.0909V86.4545C107.455 87.2077 106.844 87.8182 106.091 87.8182C105.338 87.8182 104.727 87.2077 104.727 86.4545V85.0909C104.727 84.7293 104.584 84.3824 104.328 84.1267C104.072 83.8709 103.725 83.7273 103.364 83.7273H91.0909Z" fill="white"/>
<path fill-rule="evenodd" clip-rule="evenodd" d="M838.325 84.6748C838.508 84.2645 838.914 84 839.364 84C840.569 84 841.725 84.4789 842.578 85.3313C843.43 86.1838 843.909 87.3399 843.909 88.5454V91.9545H849.199C849.69 91.9499 850.177 92.0518 850.626 92.2532C851.077 92.4556 851.478 92.7535 851.803 93.1265C852.127 93.4994 852.366 93.9383 852.504 94.4129C852.642 94.8875 852.675 95.3864 852.601 95.875L851.032 106.102C851.032 106.102 851.033 106.102 851.032 106.102C850.909 106.915 850.496 107.656 849.87 108.188C849.245 108.719 848.45 109.007 847.63 109H831.409C830.505 109 829.638 108.641 828.998 108.001C828.359 107.362 828 106.495 828 105.591V97.6363C828 96.7321 828.359 95.865 828.998 95.2257C829.638 94.5864 830.505 94.2272 831.409 94.2272H834.08L838.325 84.6748ZM835.954 95.6047L840.054 86.3802C840.397 86.4895 840.712 86.6795 840.971 86.9384C841.397 87.3646 841.636 87.9427 841.636 88.5454V93.0909C841.636 93.7184 842.145 94.2272 842.773 94.2272H849.204L849.217 94.2271C849.382 94.2253 849.545 94.2592 849.695 94.3267C849.846 94.3941 849.98 94.4935 850.088 94.6178C850.196 94.7421 850.276 94.8884 850.321 95.0466C850.367 95.2046 850.378 95.3708 850.354 95.5335C850.354 95.5333 850.354 95.5336 850.354 95.5335L848.785 105.761C848.744 106.032 848.607 106.279 848.398 106.457C848.189 106.634 847.923 106.73 847.649 106.727L835.954 106.727V95.6047ZM833.682 106.727V96.4999H831.409C831.108 96.4999 830.819 96.6196 830.606 96.8328C830.392 97.0459 830.273 97.3349 830.273 97.6363V105.591C830.273 105.892 830.392 106.181 830.606 106.394C830.819 106.607 831.108 106.727 831.409 106.727H833.682Z" fill="white"/>
<defs>
<filter id="filter0_d_2593_171" x="0" y="0" width="411" height="202" filterUnits="userSpaceOnUse" color-interpolation-filters="sRGB">
<feFlood flood-opacity="0" result="BackgroundImageFix"/>
<feColorMatrix in="SourceAlpha" type="matrix" values="0 0 0 0 0 0 0 0 0 0 0 0 0 0 0 0 0 0 127 0" result="hardAlpha"/>
<feOffset dy="4"/>
<feGaussianBlur stdDeviation="29"/>
<feComposite in2="hardAlpha" operator="out"/>
<feColorMatrix type="matrix" values="0 0 0 0 0 0 0 0 0 0 0 0 0 0 0 0 0 0 0.1 0"/>
<feBlend mode="normal" in2="BackgroundImageFix" result="effect1_dropShadow_2593_171"/>
<feBlend mode="normal" in="SourceGraphic" in2="effect1_dropShadow_2593_171" result="shape"/>
</filter>
<filter id="filter1_d_2593_171" x="369" y="0" width="411" height="202" filterUnits="userSpaceOnUse" color-interpolation-filters="sRGB">
<feFlood flood-opacity="0" result="BackgroundImageFix"/>
<feColorMatrix in="SourceAlpha" type="matrix" values="0 0 0 0 0 0 0 0 0 0 0 0 0 0 0 0 0 0 127 0" result="hardAlpha"/>
<feOffset dy="4"/>
<feGaussianBlur stdDeviation="29"/>
<feComposite in2="hardAlpha" operator="out"/>
<feColorMatrix type="matrix" values="0 0 0 0 0 0 0 0 0 0 0 0 0 0 0 0 0 0 0.1 0"/>
<feBlend mode="normal" in2="BackgroundImageFix" result="effect1_dropShadow_2593_171"/>
<feBlend mode="normal" in="SourceGraphic" in2="effect1_dropShadow_2593_171" result="shape"/>
</filter>
<filter id="filter2_d_2593_171" x="738" y="0" width="411" height="202" filterUnits="userSpaceOnUse" color-interpolation-filters="sRGB">
<feFlood flood-opacity="0" result="BackgroundImageFix"/>
<feColorMatrix in="SourceAlpha" type="matrix" values="0 0 0 0 0 0 0 0 0 0 0 0 0 0 0 0 0 0 127 0" result="hardAlpha"/>
<feOffset dy="4"/>
<feGaussianBlur stdDeviation="29"/>
<feComposite in2="hardAlpha" operator="out"/>
<feColorMatrix type="matrix" values="0 0 0 0 0 0 0 0 0 0 0 0 0 0 0 0 0 0 0.1 0"/>
<feBlend mode="normal" in2="BackgroundImageFix" result="effect1_dropShadow_2593_171"/>
<feBlend mode="normal" in="SourceGraphic" in2="effect1_dropShadow_2593_171" result="shape"/>
</filter>
</defs>
</svg>
