<svg width="56" height="56" viewBox="0 0 56 56" fill="none" xmlns="http://www.w3.org/2000/svg">
<circle cx="28" cy="28" r="28" fill="#017E84" fill-opacity="0.15"/>
<path d="M35.9 23.1992H19.1C17.9402 23.1992 17 24.1394 17 25.2992V35.7992C17 36.959 17.9402 37.8992 19.1 37.8992H35.9C37.0598 37.8992 38 36.959 38 35.7992V25.2992C38 24.1394 37.0598 23.1992 35.9 23.1992Z" stroke="#017E84" stroke-width="2" stroke-linecap="round" stroke-linejoin="round"/>
<path d="M31.6998 37.9V21.1C31.6998 20.543 31.4786 20.0089 31.0847 19.6151C30.6909 19.2212 30.1568 19 29.5998 19H25.3998C24.8428 19 24.3087 19.2212 23.9149 19.6151C23.5211 20.0089 23.2998 20.543 23.2998 21.1V37.9" stroke="#017E84" stroke-width="2" stroke-linecap="round" stroke-linejoin="round"/>
</svg>
