<svg width="56" height="56" viewBox="0 0 56 56" fill="none" xmlns="http://www.w3.org/2000/svg">
<circle cx="28" cy="28" r="28" fill="#017E84" fill-opacity="0.15"/>
<path fill-rule="evenodd" clip-rule="evenodd" d="M18 19.9921C18 19.4442 18.4442 19 18.9921 19H28.9134C29.1766 19 29.4289 19.1045 29.615 19.2906L38.1395 27.8151C38.6938 28.3727 39.005 29.1271 39.005 29.9134C39.005 30.6998 38.6938 31.4541 38.1395 32.0118L37.4358 31.3123L38.1374 32.0139L31.0242 39.1271C31.0241 39.1272 31.0243 39.1269 31.0242 39.1271C30.7478 39.4036 30.4193 39.6234 30.0582 39.7731C29.6968 39.9229 29.3095 40 28.9184 40C28.5273 40 28.1399 39.9229 27.7786 39.7731C27.4174 39.6234 27.0892 39.4039 26.8128 39.1273C26.8127 39.1272 26.8129 39.1273 26.8128 39.1273L18.291 30.6154C18.1047 30.4293 18 30.1768 18 29.9134V19.9921ZM36.7322 30.6129C36.7325 30.6126 36.7328 30.6123 36.7331 30.612C36.9173 30.4262 37.0207 30.1751 37.0207 29.9134C37.0207 29.6518 36.9173 29.4007 36.7331 29.2149C36.7328 29.2146 36.7325 29.2143 36.7322 29.214L28.5025 20.9843H19.9843V29.5021L28.2157 37.724L28.2165 37.7248C28.3086 37.817 28.418 37.8902 28.5385 37.9401C28.6589 37.99 28.788 38.0157 28.9184 38.0157C29.0488 38.0157 29.1779 37.99 29.2983 37.9401C29.4188 37.8902 29.5282 37.817 29.6203 37.7248L36.7322 30.6129Z" fill="#017E84"/>
<path fill-rule="evenodd" clip-rule="evenodd" d="M22.9609 24.9531C22.9609 24.4051 23.4051 23.9609 23.9531 23.9609H23.963C24.5109 23.9609 24.9551 24.4051 24.9551 24.9531C24.9551 25.501 24.5109 25.9452 23.963 25.9452H23.9531C23.4051 25.9452 22.9609 25.501 22.9609 24.9531Z" fill="#017E84"/>
</svg>
