<svg width="56" height="56" viewBox="0 0 56 56" fill="none" xmlns="http://www.w3.org/2000/svg">
<circle cx="28" cy="28" r="28" fill="#017E84" fill-opacity="0.15"/>
<path fill-rule="evenodd" clip-rule="evenodd" d="M27.0915 27.1815C26.5895 27.1815 26.1824 27.5885 26.1824 28.0906V36.2724C26.1824 36.7744 26.5895 37.1815 27.0915 37.1815H35.2733C35.7754 37.1815 36.1824 36.7744 36.1824 36.2724V28.0906C36.1824 27.5885 35.7754 27.1815 35.2733 27.1815H27.0915ZM24.3643 28.0906C24.3643 26.5843 25.5853 25.3633 27.0915 25.3633H35.2733C36.7796 25.3633 38.0006 26.5843 38.0006 28.0906V36.2724C38.0006 37.7786 36.7796 38.9996 35.2733 38.9996H27.0915C25.5853 38.9996 24.3643 37.7786 24.3643 36.2724V28.0906Z" fill="#017E84"/>
<path fill-rule="evenodd" clip-rule="evenodd" d="M20.7273 20.8182C20.4862 20.8182 20.2549 20.914 20.0844 21.0844C19.914 21.2549 19.8182 21.4862 19.8182 21.7273V29.9091C19.8182 30.1502 19.914 30.3814 20.0844 30.5519C20.2549 30.7224 20.4862 30.8182 20.7273 30.8182H21.6364C22.1384 30.8182 22.5455 31.2252 22.5455 31.7273C22.5455 32.2294 22.1384 32.6364 21.6364 32.6364H20.7273C20.004 32.6364 19.3103 32.349 18.7988 31.8376C18.2873 31.3261 18 30.6324 18 29.9091V21.7273C18 21.004 18.2873 20.3103 18.7988 19.7988C19.3103 19.2873 20.004 19 20.7273 19H28.9091C29.6324 19 30.3261 19.2873 30.8376 19.7988C31.349 20.3103 31.6364 21.004 31.6364 21.7273V22.6364C31.6364 23.1384 31.2294 23.5455 30.7273 23.5455C30.2252 23.5455 29.8182 23.1384 29.8182 22.6364V21.7273C29.8182 21.4862 29.7224 21.2549 29.5519 21.0844C29.3814 20.914 29.1502 20.8182 28.9091 20.8182H20.7273Z" fill="#017E84"/>
</svg>
