<svg width="16" height="16" viewBox="0 0 16 16" fill="none" xmlns="http://www.w3.org/2000/svg">
<path fill-rule="evenodd" clip-rule="evenodd" d="M15.3846 14.7327C15.7243 14.7327 16 15.0166 16 15.3663C16 15.7161 15.7243 15.9999 15.3846 15.9999H9.4336C9.09391 15.9999 8.81823 15.7161 8.81823 15.3663C8.81823 15.0166 9.09391 14.7327 9.4336 14.7327H15.3846ZM11.5823 0.55219C11.6233 0.585137 12.996 1.68336 12.996 1.68336C13.4949 1.98918 13.8846 2.53575 14.0323 3.18286C14.1792 3.82321 14.0725 4.48384 13.7304 5.04224C13.7281 5.04597 13.7258 5.04965 13.7179 5.0606L13.7117 5.06905C13.6562 5.14441 13.4147 5.45872 12.1963 7.03053C12.185 7.05113 12.1721 7.07042 12.1581 7.08917C12.1376 7.1168 12.1152 7.1422 12.0913 7.16533C12.0082 7.27307 11.9205 7.38628 11.8282 7.50531L11.6411 7.74646C11.2553 8.24402 10.7976 8.83403 10.2546 9.53383L9.9759 9.89297C8.92758 11.2439 7.58499 12.9736 5.86511 15.189C5.4885 15.6722 4.924 15.9535 4.31766 15.9611L1.33188 16H1.32368C1.03897 16 0.79118 15.7989 0.72472 15.5126L0.0527366 12.5803C-0.0859267 11.9729 0.0519161 11.3461 0.430163 10.8595L8.15921 0.906157C8.16249 0.902777 8.16495 0.898554 8.16823 0.895174C9.0158 -0.14814 10.5485 -0.301892 11.5823 0.55219ZM7.29746 4.044L1.39096 11.651C1.25066 11.8318 1.19897 12.065 1.25066 12.2888L1.80941 14.7261L4.30289 14.694C4.54001 14.6914 4.75908 14.5824 4.90431 14.3966C5.65218 13.4332 6.59211 12.2223 7.55849 10.9772L7.90039 10.5367L8.24287 10.0954C9.14917 8.92763 10.0445 7.7738 10.7937 6.80804L7.29746 4.044ZM9.1159 1.70364L8.06627 3.05391L11.5622 5.81716C12.2351 4.94936 12.6778 4.37781 12.7187 4.32333C12.8532 4.09861 12.9058 3.78097 12.8352 3.47516C12.763 3.16174 12.5735 2.89563 12.3002 2.72583C12.242 2.68444 10.8594 1.57945 10.8168 1.54482C10.2966 1.11566 9.53763 1.19001 9.1159 1.70364Z" fill="white"/>
</svg>
