<svg width="1127" height="1101" viewBox="0 0 1127 1101" fill="none" xmlns="http://www.w3.org/2000/svg">
<g filter="url(#filter0_d)">
<path d="M231.807 40H894.836C995.356 40 1076.64 121.265 1076.64 221.807V859.193C1076.64 959.713 995.379 1041 894.836 1041H231.807C131.287 1041 50 959.735 50 859.193V221.807C50 121.287 131.287 40 231.807 40Z" fill="url(#paint0_linear)"/>
<path d="M231.807 65H894.836C981.551 65 1051.64 135.074 1051.64 221.807V859.193C1051.64 945.908 981.57 1016 894.836 1016H231.807C145.092 1016 75 945.926 75 859.193V221.807C75 135.094 145.094 65 231.807 65Z" stroke="white" stroke-width="50"/>
</g>
<path d="M790.181 600.151C728.905 612.792 724.691 592.046 724.691 592.046C789.388 496.045 816.435 374.187 793.097 344.363C729.422 263.008 619.201 301.484 617.361 302.481L616.77 302.588C604.663 300.074 591.116 298.579 575.887 298.329C548.162 297.876 527.13 305.598 511.17 317.701C511.17 317.701 314.546 236.699 323.692 419.576C325.637 458.48 379.455 713.951 443.645 636.787C467.106 608.57 489.777 584.713 489.777 584.713C501.035 592.192 514.514 596.008 528.644 594.637L529.743 593.706C529.401 597.209 529.557 600.635 530.181 604.692C513.645 623.168 518.505 626.411 485.448 633.216C451.997 640.111 471.648 652.382 484.478 655.592C500.032 659.48 536.014 664.99 560.327 630.954L559.359 634.838C565.837 640.028 570.386 668.594 569.624 694.491C568.861 720.386 568.352 738.165 573.456 752.052C578.564 765.939 583.651 797.185 627.109 787.874C663.419 780.092 682.237 759.927 684.856 726.289C686.712 702.376 690.917 705.911 691.181 684.531L694.554 674.41C698.442 641.994 695.172 631.535 717.542 636.4L722.981 636.878C739.444 637.626 760.996 634.228 773.644 628.35C800.879 615.711 817.032 594.607 790.177 600.151H790.181Z" fill="#336791"/>
<path d="M522.679 436.974C517.157 436.205 512.157 436.916 509.627 438.832C508.205 439.91 507.764 441.159 507.645 442.018C507.327 444.295 508.922 446.812 509.903 448.11C512.676 451.786 516.727 454.312 520.736 454.869C521.317 454.951 521.896 454.988 522.471 454.988C529.157 454.988 535.237 449.781 535.773 445.939C536.443 441.126 529.456 437.918 522.679 436.976V436.974ZM705.61 437.126C705.082 433.354 698.37 432.278 691.999 433.164C685.636 434.05 679.468 436.922 679.983 440.703C680.395 443.643 685.704 448.663 691.989 448.663C692.52 448.663 693.056 448.628 693.596 448.551C697.791 447.97 700.869 445.306 702.332 443.771C704.557 441.431 705.847 438.822 705.61 437.126Z" fill="white"/>
<path d="M810.571 598.716C808.235 591.651 800.714 589.378 788.22 591.958C751.122 599.614 737.837 594.311 733.475 591.099C762.31 547.171 786.032 494.07 798.829 444.528C804.891 421.06 808.239 399.265 808.513 381.5C808.816 362.003 805.494 347.675 798.646 338.922C771.032 303.638 730.504 284.711 681.446 284.192C647.719 283.813 619.224 292.444 613.7 294.871C602.067 291.978 589.385 290.202 575.578 289.975C550.26 289.565 528.375 295.627 510.255 307.983C502.385 305.053 482.044 298.071 457.169 294.063C414.165 287.14 379.991 292.386 355.604 309.662C326.505 330.279 313.071 367.131 315.673 419.193C316.549 436.709 326.53 490.592 342.279 542.195C363.011 610.114 385.548 648.563 409.259 656.473C412.034 657.398 415.234 658.045 418.763 658.045C427.413 658.045 438.018 654.147 449.051 640.882C462.509 624.738 476.43 608.986 490.797 593.645C500.118 598.648 510.359 601.442 520.832 601.722C520.852 601.996 520.879 602.27 520.904 602.542C519.101 604.692 517.336 606.873 515.608 609.084C508.352 618.296 506.841 620.214 483.483 625.023C476.838 626.395 459.191 630.032 458.931 642.403C458.651 655.919 479.792 661.595 482.201 662.197C490.595 664.298 498.682 665.335 506.394 665.335C525.15 665.335 541.656 659.17 554.847 647.242C554.441 695.427 556.45 742.907 562.235 757.373C566.974 769.216 578.55 798.159 615.113 798.156C620.479 798.156 626.384 797.532 632.88 796.139C671.041 787.96 687.613 771.093 694.023 733.909C697.453 714.036 703.34 666.583 706.109 641.129C711.952 642.953 719.475 643.787 727.607 643.785C744.568 643.785 764.14 640.181 776.414 634.484C790.202 628.081 815.083 612.368 810.571 598.716ZM719.695 426.714C719.569 434.228 718.535 441.05 717.439 448.171C716.258 455.829 715.039 463.747 714.732 473.359C714.429 482.713 715.597 492.438 716.726 501.844C719.009 520.841 721.352 540.398 712.284 559.696C710.778 557.027 709.436 554.269 708.266 551.436C707.139 548.704 704.691 544.315 701.302 538.241C688.117 514.596 657.242 459.225 673.048 436.63C677.756 429.905 689.704 422.991 719.695 426.714ZM683.341 299.408C727.298 300.378 762.069 316.822 786.687 348.281C805.569 372.41 784.777 482.202 724.587 576.921C723.981 576.151 723.373 575.384 722.761 574.62L721.999 573.668C737.553 547.981 734.512 522.566 731.804 500.033C730.692 490.786 729.641 482.052 729.909 473.847C730.185 465.153 731.334 457.694 732.447 450.483C733.813 441.596 735.204 432.4 734.821 421.561C735.107 420.423 735.222 419.08 735.072 417.485C734.093 407.091 722.225 375.981 698.036 347.823C684.804 332.422 665.509 315.186 639.162 303.562C650.495 301.213 665.991 299.023 683.341 299.408ZM437.375 631.173C425.219 645.79 416.825 642.988 414.064 642.069C396.076 636.069 375.205 598.05 356.803 537.763C340.88 485.598 331.576 433.142 330.838 418.433C328.514 371.913 339.79 339.493 364.357 322.07C404.337 293.719 470.067 310.689 496.48 319.295C496.101 319.67 495.705 320.02 495.33 320.401C451.987 364.172 453.016 438.957 453.123 443.529C453.119 445.292 453.267 447.79 453.469 451.224C454.215 463.803 455.603 487.213 451.895 513.724C448.45 538.361 456.044 562.474 472.727 579.882C474.44 581.665 476.239 583.362 478.119 584.967C470.694 592.92 454.555 610.508 437.375 631.173ZM483.691 569.376C470.245 555.345 464.138 535.828 466.934 515.826C470.848 487.821 469.404 463.43 468.627 450.326C468.518 448.492 468.421 446.885 468.365 445.618C474.697 440.003 504.039 424.282 524.965 429.077C534.513 431.263 540.331 437.766 542.75 448.95C555.269 506.853 544.407 530.986 535.679 550.381C533.88 554.376 532.18 558.153 530.73 562.059L529.605 565.08C526.757 572.716 524.108 579.816 522.465 586.557C508.17 586.516 494.265 580.409 483.691 569.374V569.376ZM485.885 647.465C481.711 646.422 477.957 644.611 475.754 643.109C477.594 642.244 480.868 641.065 486.546 639.895C514.026 634.239 518.27 630.246 527.538 618.479C529.662 615.78 532.071 612.723 535.407 608.997L535.411 608.993C540.379 603.43 542.651 604.374 546.772 606.084C550.112 607.464 553.365 611.651 554.684 616.258C555.308 618.434 556.009 622.563 553.716 625.777C534.356 652.884 506.145 652.536 485.885 647.465ZM629.699 781.292C596.081 788.495 584.179 771.342 576.335 751.734C571.272 739.074 568.783 681.989 570.549 618.947C570.572 618.108 570.452 617.299 570.221 616.536C570.015 615.031 569.701 613.542 569.282 612.082C566.657 602.909 560.259 595.236 552.584 592.055C549.535 590.792 543.939 588.474 537.214 590.194C538.648 584.285 541.135 577.611 543.832 570.385L544.963 567.346C546.236 563.92 547.835 560.37 549.525 556.612C558.658 536.321 571.167 508.528 557.591 445.742C552.506 422.224 535.524 410.739 509.782 413.408C494.349 415.005 480.229 421.231 473.187 424.802C471.672 425.568 470.288 426.31 468.994 427.031C470.96 403.336 478.385 359.054 506.164 331.037C523.654 313.4 546.947 304.689 575.327 305.158C631.246 306.073 667.106 334.77 687.343 358.686C704.782 379.292 714.225 400.05 717.993 411.246C689.652 408.364 670.377 413.958 660.607 427.927C639.35 458.314 672.236 517.291 688.041 545.636C690.94 550.83 693.442 555.32 694.229 557.228C699.376 569.701 706.039 578.03 710.903 584.108C712.395 585.97 713.842 587.777 714.942 589.356C706.358 591.83 690.94 597.548 692.345 626.127C691.212 640.468 683.154 707.608 679.06 731.329C673.656 762.668 662.123 774.34 629.699 781.294V781.292ZM770.02 620.713C761.243 624.786 746.555 627.842 732.602 628.499C717.19 629.22 709.344 626.772 707.498 625.266C706.632 607.456 713.261 605.596 720.276 603.626C721.379 603.317 722.454 603.014 723.493 602.651C724.137 603.177 724.844 603.698 725.619 604.209C738.006 612.385 760.1 613.266 791.292 606.828L791.634 606.76C787.427 610.693 780.228 615.972 770.02 620.713Z" fill="white"/>
<defs>
<filter id="filter0_d" x="0" y="0" width="1126.64" height="1101" filterUnits="userSpaceOnUse" color-interpolation-filters="sRGB">
<feFlood flood-opacity="0" result="BackgroundImageFix"/>
<feColorMatrix in="SourceAlpha" type="matrix" values="0 0 0 0 0 0 0 0 0 0 0 0 0 0 0 0 0 0 127 0" result="hardAlpha"/>
<feOffset dy="10"/>
<feGaussianBlur stdDeviation="25"/>
<feComposite in2="hardAlpha" operator="out"/>
<feColorMatrix type="matrix" values="0 0 0 0 0.768627 0 0 0 0 0.768627 0 0 0 0 0.768627 0 0 0 0.5 0"/>
<feBlend mode="normal" in2="BackgroundImageFix" result="effect1_dropShadow"/>
<feBlend mode="normal" in="SourceGraphic" in2="effect1_dropShadow" result="shape"/>
</filter>
<linearGradient id="paint0_linear" x1="563.322" y1="40" x2="563.322" y2="1041" gradientUnits="userSpaceOnUse">
<stop stop-color="#A3A2FF"/>
<stop offset="1" stop-color="#5C59F7"/>
</linearGradient>
</defs>
</svg>
