<svg width="1127" height="1101" viewBox="0 0 1127 1101" fill="none" xmlns="http://www.w3.org/2000/svg">
<g filter="url(#filter0_d)">
<path d="M231.807 40H894.836C995.356 40 1076.64 121.265 1076.64 221.807V859.193C1076.64 959.713 995.379 1041 894.836 1041H231.807C131.287 1041 50 959.735 50 859.193V221.807C50 121.287 131.287 40 231.807 40Z" fill="url(#paint0_linear)"/>
<path d="M231.807 65H894.836C981.551 65 1051.64 135.074 1051.64 221.807V859.193C1051.64 945.908 981.57 1016 894.836 1016H231.807C145.092 1016 75 945.926 75 859.193V221.807C75 135.094 145.094 65 231.807 65Z" stroke="white" stroke-width="50"/>
</g>
<circle cx="489.571" cy="326.722" r="45.7578" fill="white"/>
<circle cx="639.656" cy="753.184" r="39.3517" fill="white"/>
<path d="M560.578 259.159C417.252 259.159 426.201 321.314 426.201 321.314L426.36 385.708H563.133V405.041H372.036C372.036 405.041 280.321 394.639 280.321 539.254C280.321 683.874 360.372 678.745 360.372 678.745H408.146V611.636C408.146 611.636 405.57 531.585 486.918 531.585H622.573C622.573 531.585 698.788 532.817 698.788 457.926V334.098C698.788 334.098 710.363 259.159 560.578 259.159ZM485.161 302.463C488.393 302.46 491.594 303.094 494.58 304.33C497.567 305.566 500.281 307.378 502.566 309.663C504.851 311.949 506.664 314.662 507.899 317.649C509.135 320.635 509.769 323.836 509.766 327.068C509.769 330.3 509.135 333.501 507.899 336.488C506.664 339.474 504.851 342.188 502.566 344.474C500.281 346.759 497.567 348.571 494.58 349.807C491.594 351.042 488.393 351.677 485.161 351.674C481.929 351.677 478.728 351.042 475.741 349.807C472.755 348.571 470.041 346.759 467.756 344.474C465.47 342.188 463.658 339.474 462.422 336.488C461.187 333.501 460.553 330.3 460.555 327.068C460.553 323.836 461.187 320.635 462.422 317.649C463.658 314.662 465.47 311.949 467.756 309.663C470.041 307.378 472.755 305.566 475.741 304.33C478.728 303.094 481.929 302.46 485.161 302.463Z" fill="url(#paint1_linear)"/>
<path d="M564.647 820.804C707.973 820.804 699.024 758.649 699.024 758.649L698.865 694.258H562.089V674.925H753.187C753.187 674.925 844.901 685.326 844.901 540.707C844.901 396.09 764.85 401.219 764.85 401.219H717.077V468.325C717.077 468.325 719.652 548.376 638.304 548.376H502.649C502.649 548.376 426.434 547.145 426.434 622.037V745.867C426.434 745.867 414.861 820.804 564.645 820.804H564.647ZM640.064 777.505C636.832 777.508 633.631 776.873 630.644 775.638C627.657 774.402 624.944 772.59 622.658 770.305C620.373 768.019 618.561 765.305 617.325 762.319C616.09 759.332 615.455 756.131 615.458 752.899C615.455 749.667 616.089 746.466 617.325 743.479C618.56 740.492 620.372 737.778 622.658 735.493C624.943 733.207 627.657 731.395 630.644 730.159C633.63 728.923 636.831 728.289 640.064 728.292C643.296 728.289 646.497 728.923 649.483 730.159C652.47 731.394 655.183 733.207 657.469 735.492C659.754 737.777 661.566 740.491 662.802 743.478C664.037 746.464 664.672 749.665 664.669 752.897C664.672 756.129 664.037 759.33 662.802 762.317C661.566 765.303 659.754 768.017 657.469 770.302C655.183 772.588 652.47 774.4 649.483 775.635C646.497 776.871 643.296 777.505 640.064 777.503V777.505Z" fill="url(#paint2_linear)"/>
<defs>
<filter id="filter0_d" x="0" y="0" width="1126.64" height="1101" filterUnits="userSpaceOnUse" color-interpolation-filters="sRGB">
<feFlood flood-opacity="0" result="BackgroundImageFix"/>
<feColorMatrix in="SourceAlpha" type="matrix" values="0 0 0 0 0 0 0 0 0 0 0 0 0 0 0 0 0 0 127 0" result="hardAlpha"/>
<feOffset dy="10"/>
<feGaussianBlur stdDeviation="25"/>
<feComposite in2="hardAlpha" operator="out"/>
<feColorMatrix type="matrix" values="0 0 0 0 0.768627 0 0 0 0 0.768627 0 0 0 0 0.768627 0 0 0 0.5 0"/>
<feBlend mode="normal" in2="BackgroundImageFix" result="effect1_dropShadow"/>
<feBlend mode="normal" in="SourceGraphic" in2="effect1_dropShadow" result="shape"/>
</filter>
<linearGradient id="paint0_linear" x1="563.322" y1="40" x2="563.322" y2="1041" gradientUnits="userSpaceOnUse">
<stop stop-color="#FFC804"/>
<stop offset="1" stop-color="#D5A600"/>
</linearGradient>
<linearGradient id="paint1_linear" x1="334.577" y1="309.676" x2="614.366" y2="586.673" gradientUnits="userSpaceOnUse">
<stop stop-color="#387EB8"/>
<stop offset="1" stop-color="#366994"/>
</linearGradient>
<linearGradient id="paint2_linear" x1="506.311" y1="487.547" x2="806.772" y2="771.583" gradientUnits="userSpaceOnUse">
<stop stop-color="#FFE052"/>
<stop offset="1" stop-color="#FFC331"/>
</linearGradient>
</defs>
</svg>
