<svg width="53" height="59" viewBox="0 0 53 59" fill="none" xmlns="http://www.w3.org/2000/svg">
<path d="M19.5 39C30.2696 39 39 30.2696 39 19.5C39 8.73045 30.2696 0 19.5 0C8.73045 0 0 8.73045 0 19.5C0 30.2696 8.73045 39 19.5 39Z" fill="#FF3152"/>
<g clip-path="url(#clip0_62_254)">
<path d="M52.0071 25.2994C46.1568 22.8842 40.2931 20.4823 34.4428 18.0805C34.4025 18.0671 34.3623 18.0268 34.3086 18H33.6914C32.1886 18.6306 30.6857 19.2613 29.1829 19.8785C24.7684 21.69 20.3672 23.5014 15.9527 25.3129C15.2415 25.6081 15 25.9569 15 26.7486V49.4251C15 50.2302 15.2281 50.5657 15.9929 50.8743C21.7627 53.2493 27.5325 55.6243 33.3023 57.9993C33.7853 58.2006 34.2147 58.2006 34.6977 57.9993C40.4809 55.6109 46.2641 53.2493 52.0473 50.8743C52.7719 50.5791 53 50.2168 53 49.4251V26.7486C53 25.9435 52.7719 25.6081 52.0071 25.2994ZM23.1448 25.0713C26.6201 23.649 30.0953 22.2267 33.5706 20.791C33.8658 20.6568 34.1208 20.6434 34.4294 20.7775C35.5833 21.274 36.7641 21.7436 37.9315 22.2267C38.0523 22.2804 38.1596 22.334 38.334 22.4145C37.1398 22.9379 35.9993 23.4343 34.8722 23.9308C31.4506 25.4202 28.029 26.9096 24.6208 28.4124C24.339 28.5332 24.1109 28.5466 23.8425 28.4258C22.5141 27.8623 21.1857 27.3256 19.8573 26.7754C19.75 26.7352 19.6292 26.6681 19.4548 26.5876C20.7161 26.0777 21.9371 25.5678 23.1448 25.0713ZM32.7387 54.7253C32.7387 54.8058 32.7387 54.8997 32.7253 55.0339C31.7323 54.6314 30.7797 54.2288 29.8136 53.8397C25.815 52.2027 21.8164 50.5523 17.8178 48.9153C17.6299 48.8347 17.5092 48.7542 17.5092 48.4993V28.815C17.5092 28.7479 17.5226 28.6808 17.536 28.5466C18.3545 28.8821 19.1194 29.2041 19.8976 29.5127C20.8771 29.9153 21.8432 30.3178 22.8362 30.7069C23.0777 30.8008 23.1582 30.935 23.1582 31.2034C23.1448 33.2429 23.1582 35.2825 23.1582 37.322C23.1582 38.0869 23.6815 38.637 24.4061 38.637C25.1307 38.637 25.6674 38.0869 25.6674 37.2818V31.8877C26.0162 32.0353 26.3249 32.1561 26.6335 32.2768C28.5657 33.0685 30.4979 33.8736 32.4301 34.6518C32.6582 34.7458 32.7521 34.8531 32.7521 35.1081C32.7387 41.6427 32.7387 48.1773 32.7387 54.7253ZM34.4965 32.3976C34.1342 32.5452 33.8524 32.5452 33.5035 32.3976C31.6518 31.6059 29.7867 30.8545 27.935 30.0897C27.8008 30.036 27.6667 29.9823 27.4788 29.9018C28.7401 29.3517 29.9477 28.815 31.1419 28.2917C34.5233 26.8157 37.8912 25.3531 41.2592 23.8771C41.5007 23.7698 41.6886 23.7698 41.9301 23.8637C44.0233 24.7359 46.1299 25.5946 48.2232 26.4668C48.3171 26.4936 48.3976 26.5473 48.5452 26.6144C47.4986 27.0438 46.5056 27.4597 45.4993 27.8757C41.8362 29.3785 38.1596 30.8814 34.4965 32.3976ZM50.0883 48.9555C45.2578 50.928 40.4407 52.9138 35.6102 54.8997C35.5162 54.94 35.4223 54.9802 35.2747 55.0339C35.2747 54.8997 35.2613 54.7924 35.2613 54.685C35.2613 48.1638 35.2613 41.6561 35.2479 35.1483C35.2479 34.9202 35.2747 34.7726 35.5297 34.6787C40.4004 32.6794 45.2578 30.6801 50.1285 28.6808C50.2359 28.6405 50.3432 28.6137 50.4908 28.56V29.0297C50.4908 35.4838 50.4908 41.9244 50.5042 48.3651C50.5042 48.7006 50.3969 48.8347 50.0883 48.9555Z" fill="#000F4A"/>
</g>
<defs>
<clipPath id="clip0_62_254">
<rect width="38" height="40.1469" fill="white" transform="translate(15 18)"/>
</clipPath>
</defs>
</svg>
