<svg width="61" height="58" viewBox="0 0 61 58" fill="none" xmlns="http://www.w3.org/2000/svg">
<path d="M19.5 39C30.2696 39 39 30.2696 39 19.5C39 8.73045 30.2696 0 19.5 0C8.73045 0 0 8.73045 0 19.5C0 30.2696 8.73045 39 19.5 39Z" fill="#FF3152"/>
<path d="M59.4574 27.6206C58.6935 27.0133 57.812 26.8059 56.8571 26.8059H49.82C49.82 25.5617 49.8347 24.3619 49.82 23.1622C49.8053 22.7474 49.7906 22.3179 49.6731 21.918C49.1589 20.0961 47.7633 19.0148 45.7947 19.0148C37.5382 19 29.2965 19 21.0548 19C19.7179 19 18.5573 19.474 17.7933 20.5997C17.426 21.1477 17.2644 21.8291 17 22.4364V46.4615C17 46.9206 17.5436 47.1576 17.8815 46.8318C19.2037 45.4987 20.5699 44.1952 21.8334 42.7881C22.6267 41.929 23.7579 41.3957 24.9038 41.5291C25.4033 41.5883 25.9175 41.5291 26.4464 41.5291V47.0095C26.4611 48.1056 26.7696 49.098 27.6364 49.9423C28.4444 50.7273 29.5903 51.068 30.7068 51.068C38.0377 51.0532 45.3539 51.068 52.6701 51.0532C53.008 51.0532 53.2431 51.142 53.4928 51.3938C55.6083 53.5416 57.7239 55.6745 59.8541 57.8074C59.9716 57.9259 60.1332 58 60.3242 58C60.6915 58 61 57.7038 61 57.3186V30.9385C61 29.5906 60.5299 28.4649 59.4574 27.6206ZM26.4611 30.8644C26.4464 33.3676 26.4464 35.8857 26.4464 38.4037V38.9073C26.2701 38.9221 26.1232 38.9221 25.9616 38.937C24.801 38.937 23.6257 38.9221 22.4504 38.937C22.2301 38.937 22.0244 39.0258 21.8481 39.1739C21.0988 39.8701 20.3937 40.6107 19.571 41.4402V40.9218C19.571 35.0118 19.571 29.1018 19.5856 23.2066C19.5856 22.3179 20.2908 21.6069 21.1723 21.6069H45.6624C46.779 21.6069 47.2491 22.0809 47.2491 23.2214V26.8059H30.7068C30.0017 26.8059 29.3112 26.8652 28.6648 27.191C27.181 27.9613 26.4611 29.2055 26.4611 30.8644ZM58.4144 52.5788C58.385 52.5936 58.3409 52.6232 58.3115 52.6381C57.9296 52.2381 57.5476 51.8234 57.1656 51.4235C56.3135 50.5644 55.4467 49.7201 54.6093 48.8462C54.3596 48.5944 54.0364 48.4463 53.6838 48.4463C46.0444 48.4611 38.4197 48.4611 30.795 48.4611C30.604 48.4611 30.413 48.4611 30.2367 48.4463C29.5756 48.4018 29.0908 47.913 29.0321 47.2465V30.7459C29.0321 29.9757 29.5169 29.4869 30.2808 29.4128C30.413 29.398 30.5306 29.398 30.6628 29.398H56.9893C57.9149 29.4276 58.4144 29.9313 58.4144 30.8792V52.5788Z" fill="#000F4A"/>
<path d="M55.8287 35.8861C55.8287 36.5823 55.2704 37.16 54.5653 37.16H32.8811C32.1906 37.16 31.6177 36.5971 31.6177 35.8861C31.6177 35.19 32.1759 34.6123 32.8811 34.6123H54.5653C55.2704 34.6271 55.8287 35.19 55.8287 35.8861Z" fill="#000F4A"/>
<path d="M50.6721 41.099C50.6721 41.7952 50.1138 42.3729 49.4087 42.3729H32.8811C32.1906 42.3729 31.6177 41.81 31.6177 41.099C31.6177 40.4029 32.1759 39.8252 32.8811 39.8252H49.4087C50.1138 39.8252 50.6721 40.3881 50.6721 41.099Z" fill="#000F4A"/>
</svg>
