<svg width="58" height="61" viewBox="0 0 58 61" fill="none" xmlns="http://www.w3.org/2000/svg">
<path d="M19.5 39C30.2696 39 39 30.2696 39 19.5C39 8.73045 30.2696 0 19.5 0C8.73045 0 0 8.73045 0 19.5C0 30.2696 8.73045 39 19.5 39Z" fill="#FF3152"/>
<path d="M56 46C56 47.1493 55.5435 48.2515 54.7308 49.0641C53.9181 49.8768 52.8159 50.3333 51.6667 50.3333H25.6667L17 59V24.3333C17 23.1841 17.4565 22.0819 18.2692 21.2692C19.0819 20.4565 20.1841 20 21.3333 20H51.6667C52.8159 20 53.9181 20.4565 54.7308 21.2692C55.5435 22.0819 56 23.1841 56 24.3333V46Z" stroke="#000F4A" stroke-width="2.5" stroke-linecap="round" stroke-linejoin="round"/>
<line x1="26.25" y1="28.75" x2="47.75" y2="28.75" stroke="#000F4A" stroke-width="2.5" stroke-linecap="round"/>
<line x1="26.25" y1="34.75" x2="47.75" y2="34.75" stroke="#000F4A" stroke-width="2.5" stroke-linecap="round"/>
<line x1="26.25" y1="40.75" x2="35.75" y2="40.75" stroke="#000F4A" stroke-width="2.5" stroke-linecap="round"/>
</svg>
