<svg width="48" height="57" viewBox="0 0 48 57" fill="none" xmlns="http://www.w3.org/2000/svg">
<path d="M19.5 39C30.2696 39 39 30.2696 39 19.5C39 8.73045 30.2696 0 19.5 0C8.73045 0 0 8.73045 0 19.5C0 30.2696 8.73045 39 19.5 39Z" fill="#FF3152"/>
<path d="M35.5 18H20.7C19.7187 18 18.7776 18.3898 18.0837 19.0837C17.3898 19.7776 17 20.7187 17 21.7V51.3C17 52.2813 17.3898 53.2224 18.0837 53.9163C18.7776 54.6102 19.7187 55 20.7 55H42.9C43.8813 55 44.8224 54.6102 45.5163 53.9163C46.2102 53.2224 46.6 52.2813 46.6 51.3V29.1L35.5 18Z" stroke="#000F4A" stroke-width="2.5" stroke-linecap="round" stroke-linejoin="round"/>
<path d="M35.5 18V29.1H46.6" stroke="#000F4A" stroke-width="2.5" stroke-linecap="round" stroke-linejoin="round"/>
<path d="M39.2 38.3496H24.4" stroke="#000F4A" stroke-width="2.5" stroke-linecap="round" stroke-linejoin="round"/>
<path d="M39.2 45.75H24.4" stroke="#000F4A" stroke-width="2.5" stroke-linecap="round" stroke-linejoin="round"/>
<path d="M28.1 30.9502H26.25H24.4" stroke="#000F4A" stroke-width="2.5" stroke-linecap="round" stroke-linejoin="round"/>
</svg>
