<svg width="31" height="22" viewBox="0 0 31 22" fill="none" xmlns="http://www.w3.org/2000/svg">
<path d="M6.87459 21.8828C3.08372 21.8828 0 18.7991 0 15.0082C0 11.3511 2.86991 8.35165 6.47584 8.14443C6.53828 7.47036 6.49144 5.63544 4.73316 3.08296C4.60024 2.89041 4.62436 2.63073 4.78944 2.46565C5.50895 1.74614 5.95362 1.29299 6.26484 0.976057C6.67216 0.561663 6.85807 0.372459 7.13006 0.125519C7.22228 0.0418167 7.33864 -0.000274658 7.45552 -0.000274658C7.56901 -0.000274658 7.68207 0.0394421 7.77337 0.118446C10.8372 2.78447 14.2407 8.29299 13.7483 15.0432C13.4598 19.0063 10.569 21.8828 6.87459 21.8828Z" fill="#DEE6EA"/>
<path d="M30.9523 15.0432V15.0437C30.6628 19.0063 27.7716 21.8828 24.0781 21.8828C20.2872 21.8828 17.203 18.7991 17.203 15.0082C17.203 11.3511 20.0734 8.35165 23.6798 8.14443C23.7423 7.47084 23.6949 5.6369 21.9362 3.08296C21.8033 2.89041 21.8274 2.63073 21.9925 2.46565C22.7091 1.749 23.1528 1.29677 23.4641 0.98032C23.8733 0.563116 24.0602 0.372946 24.3335 0.125082C24.4258 0.0418167 24.5426 -0.000274658 24.659 -0.000274658C24.7725 -0.000274658 24.8856 0.0394421 24.9769 0.118931C28.0407 2.78496 31.4442 8.29343 30.9523 15.0432Z" fill="#DEE6EA"/>
</svg>
