<?xml version="1.0" encoding="utf-8"?>
<!-- Generator: Adobe Illustrator 25.0.0, SVG Export Plug-In . SVG Version: 6.00 Build 0)  -->
<svg version="1.1" id="Layer_1" xmlns="http://www.w3.org/2000/svg" xmlns:xlink="http://www.w3.org/1999/xlink" x="0px" y="0px"
	 viewBox="0 0 627.87 596.48" style="enable-background:new 0 0 627.87 596.48;" xml:space="preserve">
<style type="text/css">
	.st0{opacity:0.25;}
	.st1{fill:#4C1841;}
	.st2{opacity:0.43;fill:#4C1841;}
	.st3{opacity:0.36;fill:#4C1841;}
	.st4{fill:url(#SVGID_1_);}
	.st5{fill:url(#SVGID_2_);}
	.st6{fill:url(#SVGID_3_);}
	.st7{fill:#6A2A59;stroke:#262261;stroke-width:1.8456;stroke-miterlimit:10;}
	.st8{fill:#D92055;}
	.st9{fill:none;stroke:#FF697B;stroke-width:1.8456;stroke-miterlimit:10;}
	.st10{fill:#FF697B;}
	.st11{opacity:0.43;fill:#700F2F;}
	.st12{opacity:0.36;fill:#700F2F;}
	.st13{fill:#00CBF2;}
	.st14{fill:url(#SVGID_4_);}
	.st15{fill:#00D7F5;}
	.st16{fill:url(#SVGID_5_);}
</style>
<g>
	<g class="st0">
		<path class="st1" d="M429.9,73.55c0,0,42.1-21.66,75.28-14.49c0,0,14.7,11.27-19.18,65.24L429.9,73.55z"/>
		<path class="st1" d="M94.78,454.71c0,0-41.12,25.23-74.1,15.91c0,0-15.09-21.78,18-66.66L94.78,454.71z"/>
		<path class="st1" d="M454.93,64.5c0,0-79.61,17.95-238.84,154.02c0,0-108.73,81.59-188.11,200.76l40,48.14
			c0,0,122.44-45.17,245.32-154.51c0,0,113.63-90.1,180.7-201.39L454.93,64.5z"/>
		<circle class="st1" cx="208.24" cy="311.27" r="48.67"/>
		<circle class="st1" cx="322.9" cy="215.99" r="48.67"/>
		<path class="st1" d="M353.98,253.45c-19.97,16.6-49.33,14.5-66.77-4.32c16.83,8.64,37.9,7,53.37-5.86
			c20.67-17.17,23.51-47.85,6.34-68.52c-0.58-0.7-1.16-1.37-1.78-2.03c5.66,2.91,10.84,6.98,15.17,12.19
			C377.48,205.58,374.66,236.26,353.98,253.45z"/>
		<path class="st1" d="M239.32,348.73c-19.97,16.6-49.33,14.5-66.77-4.32c16.83,8.64,37.9,7,53.37-5.86
			c20.67-17.17,23.51-47.85,6.34-68.52c-0.58-0.7-1.16-1.37-1.78-2.03c5.66,2.91,10.84,6.98,15.17,12.19
			C262.82,300.86,260,331.54,239.32,348.73z"/>
		<circle class="st1" cx="71.47" cy="440.93" r="4.79"/>
		<circle class="st1" cx="53.26" cy="419.03" r="4.79"/>
		<circle class="st1" cx="469.19" cy="110.44" r="4.79"/>
		<circle class="st1" cx="450.98" cy="88.54" r="4.79"/>
		<line class="st1" x1="471.6" y1="87.57" x2="368.29" y2="173.42"/>
		<line class="st1" x1="157.82" y1="350.66" x2="46.85" y2="442.87"/>
		<line class="st1" x1="274.46" y1="253.74" x2="255.04" y2="269.88"/>
		<path class="st1" d="M311.14,155.5c0,0,84.62-11.16,68.77,82.76"/>
		<path class="st1" d="M199.81,253.64c0,0,84.62-11.16,68.77,82.76"/>
		<path class="st1" d="M266.23,193.61c0,0-26.47,81.15,68.77,82.76"/>
		<path class="st1" d="M149,291.02c0,0-26.47,81.15,68.77,82.76"/>
		<polygon class="st2" points="166.25,260.74 184.33,405.71 192.53,400.24 174.33,254.03 		"/>
		<polygon class="st3" points="318.11,138.78 442.26,189.44 447.18,182.37 325.27,132.84 		"/>
		<g>
			<path class="st1" d="M196.67,84.42c0,0-10.17-0.94-20.98-6.04c0,0-8.59-6.95,2.06-16.73c0,0,6.29-1.47,9.43,3.43
				c0,0,7.57,6.85,13.49,9.45L196.67,84.42z"/>
			<path class="st1" d="M200.66,74.53l276.13,114.21c0,0,19.55-1.91,27.97-0.21l90.15,37.27l-12.89,28.55
				c0,0-72.74-29.12-86.41-39.5c-4.99-3.79-21.69-17.15-21.69-17.15L196.77,83.4L200.66,74.53z"/>
			<path class="st1" d="M594.45,225.25c0,0,24.83,8.79,15.41,25.7c0,0-6.4,13.77-27.3,3.43L594.45,225.25z"/>
		</g>
		<g>
			<path class="st1" d="M204.43,554.22c0,0-1.89,10.04,0.05,21.83c0,0,4.32,10.17,16.66,2.61c0,0,3.14-5.64-0.72-10.01
				c0,0-4.51-9.16-5.39-15.56L204.43,554.22z"/>
			<path class="st1" d="M215.04,553.1L181,256.23c0,0,7.2-18.28,7.88-26.83l-11.09-96.92l-31,4.56c0,0,8.04,77.94,14.26,93.94
				c2.27,5.84,10.54,25.57,10.54,25.57l33.85,297.88L215.04,553.1z"/>
			<path class="st1" d="M178.19,133.07c0,0-1.64-26.29-20.48-21.87c0,0-15,2.37-10.79,25.31L178.19,133.07z"/>
		</g>
	</g>
	<g>
		
			<linearGradient id="SVGID_1_" gradientUnits="userSpaceOnUse" x1="172.5652" y1="134.1855" x2="247.45" y2="134.1855" gradientTransform="matrix(0.6391 0.7691 -0.7691 0.6391 451.0937 -191.5505)">
			<stop  offset="5.586592e-03" style="stop-color:#FEA200"/>
			<stop  offset="0.4218" style="stop-color:#FFB613"/>
			<stop  offset="0.4268" style="stop-color:#FFB715"/>
			<stop  offset="0.5382" style="stop-color:#FFC240"/>
			<stop  offset="0.6384" style="stop-color:#FFCA5F"/>
			<stop  offset="0.7231" style="stop-color:#FFCF72"/>
			<stop  offset="0.7821" style="stop-color:#FFD179"/>
			<stop  offset="0.8321" style="stop-color:#FFD689"/>
			<stop  offset="0.9293" style="stop-color:#FFE4B3"/>
			<stop  offset="0.9777" style="stop-color:#FFEBCA"/>
		</linearGradient>
		<path class="st4" d="M432.33,48.41c0,0,42.1-21.66,75.28-14.49c0,0,14.7,11.27-19.18,65.24L432.33,48.41z"/>
		
			<linearGradient id="SVGID_2_" gradientUnits="userSpaceOnUse" x1="176.6635" y1="702.7258" x2="251.5483" y2="702.7258" gradientTransform="matrix(0.6391 0.7691 -0.7691 0.6391 451.0937 -191.5505)">
			<stop  offset="5.586592e-03" style="stop-color:#FEA200"/>
			<stop  offset="0.4218" style="stop-color:#FFB613"/>
			<stop  offset="0.4268" style="stop-color:#FFB715"/>
			<stop  offset="0.5382" style="stop-color:#FFC240"/>
			<stop  offset="0.6384" style="stop-color:#FFCA5F"/>
			<stop  offset="0.7231" style="stop-color:#FFCF72"/>
			<stop  offset="0.7821" style="stop-color:#FFD179"/>
			<stop  offset="0.8321" style="stop-color:#FFD689"/>
			<stop  offset="0.9293" style="stop-color:#FFE4B3"/>
			<stop  offset="0.9777" style="stop-color:#FFEBCA"/>
		</linearGradient>
		<path class="st5" d="M97.21,429.58c0,0-41.12,25.23-74.1,15.91c0,0-15.09-21.78,18-66.66L97.21,429.58z"/>
		
			<linearGradient id="SVGID_3_" gradientUnits="userSpaceOnUse" x1="147.0096" y1="420.3197" x2="282.6407" y2="420.3197" gradientTransform="matrix(0.6391 0.7691 -0.7691 0.6391 451.0937 -191.5505)">
			<stop  offset="0" style="stop-color:#FF2941"/>
			<stop  offset="0.3799" style="stop-color:#FE4D61"/>
			<stop  offset="0.6313" style="stop-color:#FE4D61"/>
			<stop  offset="0.8128" style="stop-color:#FF979F"/>
			<stop  offset="0.8261" style="stop-color:#FF9599"/>
			<stop  offset="0.873" style="stop-color:#FF8E89"/>
			<stop  offset="0.9263" style="stop-color:#FF8A80"/>
			<stop  offset="1" style="stop-color:#FF897D"/>
			<stop  offset="1" style="stop-color:#FF99A5"/>
		</linearGradient>
		<path class="st6" d="M457.36,39.37c0,0-79.61,17.95-238.84,154.02c0,0-108.73,81.59-188.11,200.76l40,48.14
			c0,0,122.44-45.17,245.32-154.51c0,0,113.63-90.1,180.7-201.39L457.36,39.37z"/>
		<circle class="st7" cx="210.67" cy="286.14" r="48.67"/>
		<circle class="st7" cx="325.34" cy="190.86" r="48.67"/>
		<path class="st1" d="M356.41,228.31c-19.97,16.6-49.33,14.5-66.77-4.32c16.83,8.64,37.9,7,53.37-5.86
			c20.67-17.17,23.51-47.85,6.34-68.52c-0.58-0.7-1.16-1.37-1.78-2.03c5.66,2.91,10.84,6.98,15.17,12.19
			C379.91,180.45,377.09,211.13,356.41,228.31z"/>
		<path class="st1" d="M241.75,323.59c-19.97,16.6-49.33,14.5-66.77-4.32c16.83,8.64,37.9,7,53.37-5.86
			c20.67-17.17,23.51-47.85,6.34-68.52c-0.58-0.7-1.16-1.37-1.78-2.03c5.66,2.91,10.84,6.98,15.17,12.19
			C265.25,275.72,262.43,306.41,241.75,323.59z"/>
		<circle class="st8" cx="73.9" cy="415.8" r="4.79"/>
		<circle class="st8" cx="55.7" cy="393.9" r="4.79"/>
		<circle class="st8" cx="471.62" cy="85.31" r="4.79"/>
		<circle class="st8" cx="453.42" cy="63.41" r="4.79"/>
		<line class="st9" x1="474.03" y1="62.44" x2="370.72" y2="148.29"/>
		<line class="st9" x1="160.25" y1="325.53" x2="49.28" y2="417.74"/>
		<line class="st9" x1="276.89" y1="228.6" x2="257.47" y2="244.74"/>
		<g>
			<path class="st10" d="M313.57,130.37c10.73-1.42,21.79-0.65,32.29,2.35c5.25,1.5,10.32,3.72,14.97,6.65
				c4.64,2.94,8.8,6.67,12.2,11c3.38,4.35,6.04,9.23,7.92,14.39c0.45,1.29,0.81,2.62,1.21,3.93c0.19,0.66,0.42,1.31,0.57,1.97
				l0.42,2.01c0.26,1.34,0.59,2.67,0.79,4.02l0.47,4.07c0.07,0.68,0.17,1.35,0.22,2.03l0.08,2.04l0.16,4.08
				c-0.03,2.72-0.13,5.43-0.25,8.14c-0.3,2.7-0.55,5.4-0.89,8.08c-0.44,2.67-0.9,5.34-1.37,8c0.28-2.69,0.57-5.38,0.89-8.06
				c0.21-2.69,0.31-5.39,0.48-8.07c0.02-2.69,0.05-5.38-0.01-8.07l-0.28-4.02l-0.14-2.01c-0.06-0.67-0.19-1.33-0.27-1.99l-0.58-3.97
				c-0.22-1.32-0.57-2.61-0.84-3.92l-0.44-1.95c-0.16-0.65-0.39-1.27-0.59-1.91c-0.42-1.27-0.78-2.55-1.24-3.8
				c-1.88-4.98-4.45-9.68-7.73-13.85c-3.25-4.19-7.24-7.78-11.7-10.68c-4.45-2.92-9.36-5.1-14.44-6.76
				c-5.09-1.65-10.38-2.69-15.73-3.29C324.38,130.16,318.97,130,313.57,130.37z"/>
		</g>
		<g>
			<path class="st10" d="M202.25,228.51c10.73-1.42,21.79-0.65,32.29,2.35c5.25,1.5,10.32,3.72,14.97,6.65
				c4.64,2.94,8.8,6.67,12.2,11c3.38,4.35,6.04,9.23,7.92,14.39c0.45,1.29,0.81,2.62,1.21,3.93c0.19,0.66,0.42,1.31,0.57,1.97
				l0.42,2.01c0.26,1.34,0.59,2.67,0.79,4.02l0.47,4.07c0.07,0.68,0.17,1.35,0.22,2.03l0.08,2.04l0.16,4.08
				c-0.03,2.72-0.13,5.43-0.25,8.14c-0.3,2.7-0.55,5.4-0.89,8.08c-0.44,2.67-0.9,5.34-1.37,8c0.28-2.69,0.57-5.38,0.89-8.06
				c0.21-2.69,0.31-5.39,0.48-8.07c0.02-2.69,0.05-5.38-0.01-8.07l-0.28-4.02l-0.14-2.01c-0.06-0.67-0.19-1.33-0.27-1.99l-0.58-3.97
				c-0.22-1.32-0.57-2.61-0.84-3.92l-0.44-1.95c-0.16-0.65-0.39-1.27-0.59-1.91c-0.42-1.27-0.78-2.55-1.24-3.8
				c-1.88-4.98-4.45-9.68-7.73-13.85c-3.25-4.19-7.24-7.78-11.7-10.68c-4.45-2.92-9.36-5.1-14.44-6.76
				c-5.09-1.65-10.38-2.69-15.73-3.29C213.05,228.31,207.64,228.14,202.25,228.51z"/>
		</g>
		<g>
			<path class="st10" d="M268.66,168.47c-1.35,5.24-2.18,10.58-2.55,15.95c-0.39,5.36-0.33,10.76,0.36,16.06
				c0.7,5.3,1.94,10.53,4,15.44c2.03,4.91,4.83,9.49,8.35,13.45c3.5,3.98,7.64,7.38,12.2,10.13c1.14,0.68,2.34,1.27,3.51,1.91
				c0.59,0.31,1.17,0.65,1.77,0.93l1.84,0.79c1.23,0.51,2.44,1.08,3.7,1.55l3.8,1.3c0.64,0.21,1.26,0.45,1.91,0.63l1.95,0.5
				l3.9,1.01c2.63,0.55,5.28,1.01,7.93,1.49c2.67,0.33,5.34,0.72,8.02,1.01c2.69,0.18,5.38,0.38,8.08,0.6
				c-2.7-0.02-5.41-0.06-8.12-0.11c-2.7-0.15-5.4-0.4-8.11-0.6c-2.68-0.38-5.37-0.78-8.05-1.24l-3.98-0.9l-1.99-0.45
				c-0.66-0.16-1.3-0.39-1.96-0.58l-3.91-1.21c-1.29-0.44-2.54-1.01-3.81-1.51l-1.9-0.78c-0.63-0.27-1.22-0.62-1.84-0.92
				c-1.21-0.64-2.45-1.23-3.64-1.91c-4.72-2.79-9.04-6.3-12.7-10.42c-3.63-4.14-6.54-8.91-8.58-14.01
				c-2.03-5.11-3.28-10.5-3.79-15.93C264.03,189.78,265.3,178.76,268.66,168.47z"/>
		</g>
		<g>
			<path class="st10" d="M151.43,265.88c-1.35,5.24-2.18,10.58-2.55,15.95c-0.39,5.36-0.33,10.76,0.36,16.06
				c0.7,5.3,1.94,10.53,4,15.44c2.03,4.91,4.83,9.49,8.35,13.45c3.5,3.98,7.64,7.38,12.2,10.13c1.14,0.68,2.34,1.27,3.51,1.91
				c0.59,0.31,1.16,0.65,1.77,0.93l1.84,0.79c1.23,0.51,2.44,1.08,3.7,1.55l3.8,1.3c0.64,0.21,1.26,0.45,1.91,0.63l1.95,0.5
				l3.9,1.01c2.63,0.55,5.28,1.01,7.93,1.49c2.67,0.33,5.34,0.72,8.02,1.01c2.69,0.18,5.38,0.38,8.08,0.6
				c-2.7-0.02-5.41-0.06-8.12-0.11c-2.7-0.15-5.4-0.4-8.11-0.6c-2.68-0.38-5.37-0.78-8.05-1.24l-3.98-0.9l-1.99-0.45
				c-0.66-0.16-1.3-0.39-1.96-0.58l-3.91-1.21c-1.29-0.44-2.54-1.01-3.81-1.51l-1.9-0.78c-0.63-0.27-1.22-0.62-1.84-0.92
				c-1.21-0.64-2.45-1.23-3.64-1.91c-4.72-2.79-9.04-6.3-12.7-10.42c-3.63-4.14-6.54-8.91-8.58-14.01
				c-2.03-5.11-3.28-10.5-3.79-15.93C146.81,287.19,148.07,276.17,151.43,265.88z"/>
		</g>
		<polygon class="st11" points="168.68,235.61 186.76,380.58 194.96,375.1 176.76,228.9 		"/>
		<polygon class="st12" points="320.54,113.65 444.69,164.31 449.61,157.23 327.7,107.7 		"/>
		<g>
			<path class="st13" d="M199.11,59.29c0,0-10.17-0.94-20.98-6.04c0,0-8.59-6.95,2.06-16.73c0,0,6.29-1.47,9.43,3.43
				c0,0,7.57,6.85,13.49,9.45L199.11,59.29z"/>
			
				<linearGradient id="SVGID_4_" gradientUnits="userSpaceOnUse" x1="221.9743" y1="264.4155" x2="204.553" y2="227.0554" gradientTransform="matrix(0.6391 0.7691 -0.7691 0.6391 451.0937 -191.5505)">
				<stop  offset="5.586592e-03" style="stop-color:#00D7F5"/>
				<stop  offset="0.0411" style="stop-color:#00D7F5"/>
				<stop  offset="0.2793" style="stop-color:#00D7F5"/>
				<stop  offset="0.3065" style="stop-color:#2BDCF4"/>
				<stop  offset="0.3371" style="stop-color:#54E0F4"/>
				<stop  offset="0.3716" style="stop-color:#7AE4F3"/>
				<stop  offset="0.4091" style="stop-color:#9AE8F3"/>
				<stop  offset="0.4505" style="stop-color:#B6EBF3"/>
				<stop  offset="0.4974" style="stop-color:#CCEDF2"/>
				<stop  offset="0.5521" style="stop-color:#DDEFF2"/>
				<stop  offset="0.6196" style="stop-color:#E8F0F2"/>
				<stop  offset="0.7145" style="stop-color:#EFF1F2"/>
				<stop  offset="0.9777" style="stop-color:#F1F1F2"/>
			</linearGradient>
			<path class="st14" d="M203.1,49.4l276.13,114.21c0,0,19.55-1.91,27.97-0.21l90.15,37.27l-12.89,28.55c0,0-72.74-29.12-86.41-39.5
				c-4.99-3.79-21.69-17.15-21.69-17.15L199.2,58.27L203.1,49.4z"/>
			<path class="st15" d="M596.88,200.11c0,0,24.83,8.79,15.41,25.7c0,0-6.4,13.77-27.3,3.43L596.88,200.11z"/>
		</g>
		<g>
			<path class="st13" d="M206.86,529.09c0,0-1.89,10.04,0.05,21.83c0,0,4.32,10.17,16.66,2.61c0,0,3.14-5.64-0.72-10.01
				c0,0-4.51-9.16-5.39-15.56L206.86,529.09z"/>
			
				<linearGradient id="SVGID_5_" gradientUnits="userSpaceOnUse" x1="2970.4973" y1="671.928" x2="2953.0759" y2="634.5679" gradientTransform="matrix(-0.5642 -0.8257 -0.8257 0.5642 2404.3059 2395.0859)">
				<stop  offset="5.586592e-03" style="stop-color:#00D7F5"/>
				<stop  offset="0.0411" style="stop-color:#00D7F5"/>
				<stop  offset="0.2793" style="stop-color:#00D7F5"/>
				<stop  offset="0.3065" style="stop-color:#2BDCF4"/>
				<stop  offset="0.3371" style="stop-color:#54E0F4"/>
				<stop  offset="0.3716" style="stop-color:#7AE4F3"/>
				<stop  offset="0.4091" style="stop-color:#9AE8F3"/>
				<stop  offset="0.4505" style="stop-color:#B6EBF3"/>
				<stop  offset="0.4974" style="stop-color:#CCEDF2"/>
				<stop  offset="0.5521" style="stop-color:#DDEFF2"/>
				<stop  offset="0.6196" style="stop-color:#E8F0F2"/>
				<stop  offset="0.7145" style="stop-color:#EFF1F2"/>
				<stop  offset="0.9777" style="stop-color:#F1F1F2"/>
			</linearGradient>
			<path class="st16" d="M217.47,527.97L183.43,231.1c0,0,7.2-18.28,7.88-26.83l-11.09-96.92l-31,4.56c0,0,8.04,77.94,14.26,93.94
				c2.27,5.84,10.54,25.57,10.54,25.57l33.85,297.88L217.47,527.97z"/>
			<path class="st15" d="M180.62,107.94c0,0-1.64-26.29-20.48-21.87c0,0-15,2.37-10.8,25.31L180.62,107.94z"/>
		</g>
	</g>
</g>
</svg>
