<svg width="100" height="50" viewBox="0 0 100 50" fill="none" xmlns="http://www.w3.org/2000/svg">
<path d="M15.1875 27.375C21.9185 27.375 27.375 21.9185 27.375 15.1875C27.375 8.45653 21.9185 3 15.1875 3C8.45653 3 3 8.45653 3 15.1875C3 21.9185 8.45653 27.375 15.1875 27.375Z" fill="#FF3152"/>
<path fill-rule="evenodd" clip-rule="evenodd" d="M15.9442 11.4375C13.9911 11.4375 12.3748 13.0423 12.3748 14.9954V43.4954C12.3748 45.4484 13.9911 47.0625 15.9442 47.0625H44.4419C46.395 47.0625 47.9998 45.4484 47.9998 43.4954V14.9954C47.9998 13.0423 46.395 11.4375 44.4419 11.4375H15.9442ZM15.9442 13.8032H44.4419C45.1203 13.8032 45.634 14.3169 45.634 14.9954V20.9329H23.0669C21.4617 20.9104 21.4617 23.3298 23.0669 23.3079H45.634V43.4954C45.634 44.1737 45.1203 44.6875 44.4419 44.6875H15.9442C15.2658 44.6875 14.7498 44.1737 14.7498 43.4954V23.3079H18.3169C19.922 23.3303 19.922 20.9109 18.3169 20.9329H14.7498V14.9954C14.7498 14.3169 15.2658 13.8032 15.9442 13.8032ZM18.3169 16.1829C17.661 16.1829 17.1294 16.7145 17.1294 17.3704C17.1294 18.0262 17.6611 18.5579 18.3169 18.5579C18.9727 18.5579 19.5044 18.0262 19.5044 17.3704C19.5044 16.7145 18.9727 16.1829 18.3169 16.1829ZM23.0669 16.1829C22.411 16.1829 21.8794 16.7145 21.8794 17.3704C21.8794 18.0262 22.4111 18.5579 23.0669 18.5579C23.7227 18.5579 24.2544 18.0262 24.2544 17.3704C24.2544 16.7145 23.7227 16.1829 23.0669 16.1829ZM27.8169 16.1829C27.161 16.1829 26.6294 16.7145 26.6294 17.3704C26.6294 18.0262 27.1611 18.5579 27.8169 18.5579C28.4727 18.5579 29.0044 18.0262 29.0044 17.3704C29.0044 16.7145 28.4727 16.1829 27.8169 16.1829Z" fill="#000F4A"/>
<path d="M22.6069 28.1404C22.7541 28.0823 22.9114 28.0542 23.0696 28.0578H37.3149C37.4731 28.0542 37.6304 28.0823 37.7776 28.1404C37.9248 28.1985 38.0589 28.2854 38.172 28.396C38.2852 28.5066 38.375 28.6388 38.4364 28.7846C38.4978 28.9304 38.5294 29.0871 38.5294 29.2453C38.5294 29.4035 38.4978 29.5602 38.4364 29.706C38.375 29.8518 38.2852 29.9839 38.172 30.0946C38.0589 30.2052 37.9248 30.2921 37.7776 30.3502C37.6304 30.4083 37.4731 30.4363 37.3149 30.4328H23.0696C22.9114 30.4363 22.7541 30.4083 22.6069 30.3502C22.4597 30.2921 22.3256 30.2052 22.2125 30.0946C22.0994 29.9839 22.0095 29.8518 21.9481 29.706C21.8867 29.5602 21.8551 29.4035 21.8551 29.2453C21.8551 29.0871 21.8867 28.9304 21.9481 28.7846C22.0095 28.6388 22.0994 28.5066 22.2125 28.396C22.3256 28.2854 22.4597 28.1985 22.6069 28.1404Z" fill="#FF3152"/>
<path d="M22.1242 33.1994C22.3355 32.965 22.6314 32.8241 22.9467 32.8078C22.9876 32.8057 23.0286 32.8057 23.0696 32.8078H37.3149C37.6302 32.8078 37.9325 32.933 38.1555 33.1559C38.3784 33.3789 38.5036 33.6812 38.5036 33.9965C38.5036 34.3117 38.3784 34.614 38.1555 34.837C37.9325 35.0599 37.6302 35.1851 37.3149 35.1851H23.0696C22.7543 35.2014 22.4455 35.0918 22.2111 34.8804C21.9766 34.669 21.8358 34.3732 21.8195 34.0579C21.8032 33.7427 21.9128 33.4338 22.1242 33.1994Z" fill="#FF3152"/>
<path d="M22.1423 37.9597C22.3479 37.7265 22.6366 37.5831 22.9467 37.5601C22.9876 37.558 23.0286 37.558 23.0696 37.5601H30.1876C30.3458 37.5566 30.5031 37.5847 30.6503 37.6427C30.7975 37.7008 30.9316 37.7877 31.0447 37.8983C31.1578 38.009 31.2477 38.1411 31.3091 38.2869C31.3705 38.4328 31.4021 38.5894 31.4021 38.7476C31.4021 38.9058 31.3705 39.0625 31.3091 39.2083C31.2477 39.3542 31.1578 39.4863 31.0447 39.5969C30.9316 39.7075 30.7975 39.7944 30.6503 39.8525C30.5031 39.9106 30.3458 39.9387 30.1876 39.9351H23.0696C22.7589 39.9443 22.4569 39.8314 22.2283 39.6207C21.9998 39.41 21.8628 39.1182 21.8467 38.8077C21.8306 38.4973 21.9368 38.1929 22.1423 37.9597Z" fill="#FF3152"/>
<path d="M65.1875 27.375C71.9185 27.375 77.375 21.9185 77.375 15.1875C77.375 8.45653 71.9185 3 65.1875 3C58.4565 3 53 8.45653 53 15.1875C53 21.9185 58.4565 27.375 65.1875 27.375Z" fill="#C11531"/>
<path fill-rule="evenodd" clip-rule="evenodd" d="M65.9442 11.4375C63.9911 11.4375 62.3748 13.0423 62.3748 14.9954V43.4954C62.3748 45.4484 63.9911 47.0625 65.9442 47.0625H94.4419C96.395 47.0625 97.9998 45.4484 97.9998 43.4954V14.9954C97.9998 13.0423 96.395 11.4375 94.4419 11.4375H65.9442ZM65.9442 13.8032H94.4419C95.1203 13.8032 95.634 14.3169 95.634 14.9954V20.9329H73.0669C71.4617 20.9104 71.4617 23.3298 73.0669 23.3079H95.634V43.4954C95.634 44.1737 95.1203 44.6875 94.4419 44.6875H65.9442C65.2658 44.6875 64.7498 44.1737 64.7498 43.4954V23.3079H68.3169C69.922 23.3303 69.922 20.9109 68.3169 20.9329H64.7498V14.9954C64.7498 14.3169 65.2658 13.8032 65.9442 13.8032ZM68.3169 16.1829C67.661 16.1829 67.1294 16.7145 67.1294 17.3704C67.1294 18.0262 67.6611 18.5579 68.3169 18.5579C68.9727 18.5579 69.5044 18.0262 69.5044 17.3704C69.5044 16.7145 68.9727 16.1829 68.3169 16.1829ZM73.0669 16.1829C72.411 16.1829 71.8794 16.7145 71.8794 17.3704C71.8794 18.0262 72.4111 18.5579 73.0669 18.5579C73.7227 18.5579 74.2544 18.0262 74.2544 17.3704C74.2544 16.7145 73.7227 16.1829 73.0669 16.1829ZM77.8169 16.1829C77.161 16.1829 76.6294 16.7145 76.6294 17.3704C76.6294 18.0262 77.1611 18.5579 77.8169 18.5579C78.4727 18.5579 79.0044 18.0262 79.0044 17.3704C79.0044 16.7145 78.4727 16.1829 77.8169 16.1829Z" fill="white"/>
<path d="M72.6069 28.1404C72.7541 28.0823 72.9114 28.0542 73.0696 28.0578H87.3149C87.4731 28.0542 87.6304 28.0823 87.7776 28.1404C87.9248 28.1985 88.0589 28.2854 88.172 28.396C88.2852 28.5066 88.375 28.6388 88.4364 28.7846C88.4978 28.9304 88.5294 29.0871 88.5294 29.2453C88.5294 29.4035 88.4978 29.5602 88.4364 29.706C88.375 29.8518 88.2852 29.9839 88.172 30.0946C88.0589 30.2052 87.9248 30.2921 87.7776 30.3502C87.6304 30.4083 87.4731 30.4363 87.3149 30.4328H73.0696C72.9114 30.4363 72.7541 30.4083 72.6069 30.3502C72.4597 30.2921 72.3256 30.2052 72.2125 30.0946C72.0994 29.9839 72.0095 29.8518 71.9481 29.706C71.8867 29.5602 71.8551 29.4035 71.8551 29.2453C71.8551 29.0871 71.8867 28.9304 71.9481 28.7846C72.0095 28.6388 72.0994 28.5066 72.2125 28.396C72.3256 28.2854 72.4597 28.1985 72.6069 28.1404Z" fill="#C11531"/>
<path d="M72.1242 33.1994C72.3355 32.965 72.6314 32.8241 72.9467 32.8078C72.9876 32.8057 73.0286 32.8057 73.0696 32.8078H87.3149C87.6302 32.8078 87.9325 32.933 88.1555 33.1559C88.3784 33.3789 88.5036 33.6812 88.5036 33.9965C88.5036 34.3117 88.3784 34.614 88.1555 34.837C87.9325 35.0599 87.6302 35.1851 87.3149 35.1851H73.0696C72.7543 35.2014 72.4455 35.0918 72.2111 34.8804C71.9766 34.669 71.8358 34.3732 71.8195 34.0579C71.8032 33.7427 71.9128 33.4338 72.1242 33.1994Z" fill="#C11531"/>
<path d="M72.1423 37.9597C72.3479 37.7265 72.6366 37.5831 72.9467 37.5601C72.9876 37.558 73.0286 37.558 73.0696 37.5601H80.1876C80.3458 37.5566 80.5031 37.5847 80.6503 37.6427C80.7975 37.7008 80.9316 37.7877 81.0447 37.8983C81.1578 38.009 81.2477 38.1411 81.3091 38.2869C81.3705 38.4328 81.4021 38.5894 81.4021 38.7476C81.4021 38.9058 81.3705 39.0625 81.3091 39.2083C81.2477 39.3542 81.1578 39.4863 81.0447 39.5969C80.9316 39.7075 80.7975 39.7944 80.6503 39.8525C80.5031 39.9106 80.3458 39.9387 80.1876 39.9351H73.0696C72.7589 39.9443 72.4569 39.8314 72.2283 39.6207C71.9998 39.41 71.8628 39.1182 71.8467 38.8077C71.8306 38.4973 71.9368 38.1929 72.1423 37.9597Z" fill="#C11531"/>
</svg>
