<svg width="100" height="50" viewBox="0 0 100 50" fill="none" xmlns="http://www.w3.org/2000/svg">
<rect x="78.5636" y="41.2578" width="19.5206" height="9.41261" rx="1" transform="rotate(-45.1792 78.5636 41.2578)" fill="#C11531"/>
<path d="M63.0144 24.0287C69.0974 24.0287 74.0287 19.0974 74.0287 13.0144C74.0287 6.9313 69.0974 2 63.0144 2C56.9313 2 52 6.9313 52 13.0144C52 19.0974 56.9313 24.0287 63.0144 24.0287Z" fill="#C11531"/>
<path fill-rule="evenodd" clip-rule="evenodd" d="M61.3851 10.2484C61.7647 9.86877 62.359 9.83463 62.7772 10.146L88.1019 16.2588C88.4741 16.3487 88.7604 16.6464 88.8355 17.0219L90.5 25.3446L88.8253 27L87.03 18.0234L65.4655 12.8182L75.6898 23.0425C76.3938 22.6081 77.2233 22.3574 78.1113 22.3574C80.6613 22.3574 82.7285 24.4246 82.7285 26.9747C82.7285 29.5247 80.6613 31.5919 78.1113 31.5919C75.5612 31.5919 73.494 29.5247 73.494 26.9747C73.494 26.0866 73.7447 25.2572 74.1792 24.5532L63.9547 14.3286L69.16 35.8934L78.1875 37.6989L76.5 39.3672L68.1585 37.6989C67.783 37.6238 67.4852 37.3376 67.3954 36.9654L61.2824 11.6403C60.9713 11.2221 61.0055 10.628 61.3851 10.2484ZM76.3418 25.2358C75.9018 25.6834 75.6304 26.2974 75.6304 26.9747C75.6304 28.3448 76.7411 29.4555 78.1113 29.4555C79.4814 29.4555 80.5921 28.3448 80.5921 26.9747C80.5921 25.6045 79.4814 24.4938 78.1113 24.4938C77.434 24.4938 76.8201 24.7652 76.3724 25.2052C76.3674 25.2104 76.3624 25.2155 76.3573 25.2206C76.3522 25.2257 76.347 25.2308 76.3418 25.2358Z" fill="white"/>
<rect x="28.5636" y="41.2578" width="19.5206" height="9.41261" rx="1" transform="rotate(-45.1792 28.5636 41.2578)" fill="#FF3152"/>
<path d="M13.0144 24.0287C19.0974 24.0287 24.0287 19.0974 24.0287 13.0144C24.0287 6.9313 19.0974 2 13.0144 2C6.9313 2 2 6.9313 2 13.0144C2 19.0974 6.9313 24.0287 13.0144 24.0287Z" fill="#FF3152"/>
<path fill-rule="evenodd" clip-rule="evenodd" d="M11.3851 10.2484C11.7647 9.86877 12.359 9.83463 12.7772 10.146L38.1019 16.2588C38.4741 16.3487 38.7604 16.6464 38.8355 17.0219L40.5 25.3446L38.8253 27L37.03 18.0234L15.4655 12.8182L25.6898 23.0425C26.3938 22.6081 27.2233 22.3574 28.1113 22.3574C30.6613 22.3574 32.7285 24.4246 32.7285 26.9747C32.7285 29.5247 30.6613 31.5919 28.1113 31.5919C25.5612 31.5919 23.494 29.5247 23.494 26.9747C23.494 26.0866 23.7447 25.2572 24.1792 24.5532L13.9547 14.3286L19.16 35.8934L28.1875 37.6989L26.5 39.3672L18.1585 37.6989C17.783 37.6238 17.4852 37.3376 17.3954 36.9654L11.2824 11.6403C10.9713 11.2221 11.0055 10.628 11.3851 10.2484ZM26.3418 25.2358C25.9018 25.6834 25.6304 26.2974 25.6304 26.9747C25.6304 28.3448 26.7411 29.4555 28.1113 29.4555C29.4814 29.4555 30.5921 28.3448 30.5921 26.9747C30.5921 25.6045 29.4814 24.4938 28.1113 24.4938C27.434 24.4938 26.8201 24.7652 26.3724 25.2052C26.3674 25.2104 26.3624 25.2155 26.3573 25.2206C26.3522 25.2257 26.347 25.2308 26.3418 25.2358Z" fill="#000F4A"/>
</svg>
