<svg width="100" height="50" viewBox="0 0 100 50" fill="none" xmlns="http://www.w3.org/2000/svg">
<path d="M17.9381 23.2844C24.0917 23.2844 29.0802 18.2958 29.0802 12.1422C29.0802 5.98853 24.0917 1 17.9381 1C11.7844 1 6.79587 5.98853 6.79587 12.1422C6.79587 18.2958 11.7844 23.2844 17.9381 23.2844Z" fill="#FF3152"/>
<path d="M41.1057 32.0814C43.9192 31.3463 44.9664 29.1568 44.9977 27.3583C45.0289 26.3573 44.7476 25.4346 44.2005 24.5901C43.4502 23.4797 42.403 22.7916 41.1057 22.4944V21.9158C41.1057 19.2101 41.0901 16.5202 41.0901 13.8146C41.0901 12.8918 40.4961 12.407 39.5896 12.7667C38.261 13.3141 36.9011 13.8146 35.5569 14.3463C34.8223 14.6435 34.0721 14.925 33.3062 15.2221C33.2124 9.43554 27.7105 4.66553 21.474 5.99488C18.8638 6.55789 16.7849 7.98108 15.3469 10.2488C13.5026 13.1577 13.315 16.2387 14.5967 19.476H12.9711C11.6113 19.476 10.6578 20.1172 10.1108 21.3527C10.0483 21.4935 9.87632 21.6343 9.72002 21.6812C9.21985 21.8376 8.68842 21.9314 8.17261 22.0722C6.8753 22.4319 6.01563 23.5423 6 24.8872V29.6573C6.01563 31.0335 6.8753 32.1283 8.21951 32.488C8.67278 32.6131 9.12606 32.7538 9.57934 32.832C9.89195 32.8946 10.0483 33.0197 10.1733 33.3012C10.5641 34.2396 11.283 34.8026 12.2678 35.0216C12.4397 35.0685 12.6273 35.0841 12.8304 35.1154V36.3665C12.8304 39.2755 12.7992 42.2 12.8617 45.109C12.893 47.2516 14.9562 48.9562 17.0819 48.7217C19.1607 48.4871 20.6143 46.8762 20.63 44.7649V35.0841C21.4115 35.1154 22.1618 34.9746 22.912 35.2718C28.4451 37.4457 33.9939 39.5726 39.527 41.7465C40.5117 42.1375 41.137 41.5119 41.1213 40.6674C41.0744 37.9618 41.1057 35.2718 41.1057 32.5662V32.0814ZM41.1213 24.5745C42.2155 24.856 43.0282 25.9976 43.0439 27.2332C43.0595 28.4999 42.278 29.6416 41.1213 29.9857V24.5745ZM9.87632 30.924C9.36052 30.7676 8.82909 30.6895 8.40707 30.4392C8.15698 30.2828 7.96942 29.8606 7.95379 29.5634C7.92253 27.9838 7.92253 26.4043 7.96942 24.809C7.96942 24.5745 8.18824 24.2304 8.39144 24.1209C8.82909 23.902 9.34489 23.7925 9.87632 23.6205V30.924ZM18.6762 44.6711C18.6762 46.1881 17.3632 47.1734 16.0347 46.6573C15.3 46.3757 14.7999 45.7971 14.7999 45.0151C14.7686 41.7152 14.7842 38.4309 14.7842 35.0998H18.6449C18.6606 35.2405 18.6762 35.3656 18.6762 35.4907C18.6762 38.5561 18.6918 41.6214 18.6762 44.6711ZM21.5991 32.9102C21.5991 32.9572 21.5834 33.0197 21.5678 33.1292H13.0024C12.2209 33.1292 11.8457 32.7695 11.8457 31.9719V22.5726C11.8457 21.7906 12.2209 21.4309 13.0024 21.4309C13.8152 21.4153 14.6279 21.4153 15.4251 21.4309C15.597 21.4466 15.8158 21.5248 15.9253 21.6499C17.3164 23.3859 19.0982 24.5119 21.2552 25.0436C21.4896 25.1062 21.6147 25.1688 21.6147 25.4503C21.5991 27.9369 21.6147 30.4236 21.5991 32.9102ZM15.769 15.4723C15.8002 11.2184 19.2858 7.76213 23.5372 7.77777C27.8824 7.7934 31.3524 11.2653 31.3367 15.5975C31.3211 19.9608 27.8199 23.4015 23.4434 23.3702C19.1607 23.3389 15.7221 19.8044 15.769 15.4723ZM39.1363 39.4944C38.6674 39.3224 38.2454 39.1504 37.8233 38.994C33.2124 37.1954 28.6014 35.3969 23.9749 33.614C23.6623 33.4889 23.5372 33.3481 23.5372 33.0041C23.5529 30.6113 23.5528 28.2184 23.5528 25.8256V25.4033C24.35 25.2782 25.1315 25.2313 25.8818 25.028C29.6643 23.9958 32.0557 21.5404 33.0561 17.74C33.103 17.5837 33.228 17.3647 33.3687 17.3178C35.2287 16.5671 37.0731 15.8477 38.9331 15.1283C38.98 15.1126 39.0269 15.1126 39.1363 15.097V39.4944Z" fill="#000F4A"/>
<path d="M26.4131 17.1141C26.6163 18.3183 25.9911 19.5225 24.8814 20.1325C24.7094 20.2263 24.5531 20.414 24.475 20.6016C24.2874 20.9926 24.0061 21.2428 23.5528 21.2428C23.1151 21.2428 22.8338 21.0083 22.6306 20.6173C22.5368 20.414 22.3805 20.2263 22.1929 20.1168C21.3645 19.6164 20.8175 18.9126 20.6455 17.9586C20.4892 17.0828 20.9425 16.5041 21.6928 16.5667C22.1304 16.598 22.4587 16.8951 22.5524 17.333C22.5837 17.4894 22.5837 17.6614 22.6306 17.8178C22.7713 18.2714 23.2402 18.5685 23.6935 18.4903C24.1624 18.4121 24.5219 17.9899 24.5219 17.5207C24.5219 17.0515 24.178 16.6449 23.7091 16.5667C23.3808 16.5198 23.037 16.5041 22.7244 16.4103C21.5521 16.0662 20.7393 15.0809 20.6612 13.8298C20.583 12.6099 21.1145 11.6715 22.1773 11.0616C22.3961 10.9365 22.5837 10.827 22.6619 10.5299C22.7713 10.1076 23.1308 9.9043 23.5684 9.9043C23.9904 9.9043 24.3187 10.1232 24.4437 10.5142C24.5219 10.8114 24.6938 10.9209 24.9283 11.0616C25.8661 11.5933 26.3819 12.4066 26.4757 13.3293C26.46 14.1269 26.1474 14.5336 25.616 14.5805C25.0064 14.6274 24.6313 14.299 24.5375 13.6108C24.4437 13.0009 24.0842 12.6568 23.5528 12.6412C23.0839 12.6412 22.6931 12.9696 22.5993 13.4544C22.5056 13.8923 22.7713 14.3772 23.1933 14.5179C23.4121 14.5805 23.6466 14.5961 23.8654 14.6274C25.2409 14.8151 26.1943 15.7534 26.4131 17.1141Z" fill="#000F4A"/>
<path d="M12.7649 39.0682C12.7649 36.8705 14.5465 35.0889 16.7443 35.0889V35.0889C18.942 35.0889 20.7236 36.8705 20.7236 39.0682V44.7731C20.7236 46.9708 18.942 48.7524 16.7443 48.7524V48.7524C14.5465 48.7524 12.7649 46.9708 12.7649 44.7731V39.0682Z" fill="#FF3152"/>
<path d="M12.7649 35.0547H16.7443H20.7236V42.385H12.7649V35.0547Z" fill="#FF3152"/>
<path d="M67.9381 23.2844C74.0917 23.2844 79.0802 18.2958 79.0802 12.1422C79.0802 5.98853 74.0917 1 67.9381 1C61.7844 1 56.7959 5.98853 56.7959 12.1422C56.7959 18.2958 61.7844 23.2844 67.9381 23.2844Z" fill="#C11531"/>
<path d="M91.1057 32.0814C93.9192 31.3463 94.9664 29.1568 94.9977 27.3583C95.0289 26.3573 94.7476 25.4346 94.2005 24.5901C93.4502 23.4797 92.403 22.7916 91.1057 22.4944V21.9158C91.1057 19.2101 91.0901 16.5202 91.0901 13.8146C91.0901 12.8918 90.4961 12.407 89.5896 12.7667C88.261 13.3141 86.9011 13.8146 85.5569 14.3463C84.8223 14.6435 84.0721 14.925 83.3062 15.2221C83.2124 9.43554 77.7105 4.66553 71.474 5.99488C68.8638 6.55789 66.7849 7.98108 65.3469 10.2488C63.5026 13.1577 63.315 16.2387 64.5967 19.476H62.9711C61.6113 19.476 60.6578 20.1172 60.1108 21.3527C60.0483 21.4935 59.8763 21.6343 59.72 21.6812C59.2198 21.8376 58.6884 21.9314 58.1726 22.0722C56.8753 22.4319 56.0156 23.5423 56 24.8872V29.6573C56.0156 31.0335 56.8753 32.1283 58.2195 32.488C58.6728 32.6131 59.1261 32.7538 59.5793 32.832C59.8919 32.8946 60.0483 33.0197 60.1733 33.3012C60.5641 34.2396 61.283 34.8026 62.2678 35.0216C62.4397 35.0685 62.6273 35.0841 62.8304 35.1154V36.3665C62.8304 39.2755 62.7992 42.2 62.8617 45.109C62.893 47.2516 64.9562 48.9562 67.0819 48.7217C69.1607 48.4871 70.6143 46.8762 70.63 44.7649V35.0841C71.4115 35.1154 72.1618 34.9746 72.912 35.2718C78.4451 37.4457 83.9939 39.5726 89.527 41.7465C90.5117 42.1375 91.137 41.5119 91.1213 40.6674C91.0744 37.9618 91.1057 35.2718 91.1057 32.5662V32.0814ZM91.1213 24.5745C92.2155 24.856 93.0282 25.9976 93.0439 27.2332C93.0595 28.4999 92.278 29.6416 91.1213 29.9857V24.5745ZM59.8763 30.924C59.3605 30.7676 58.8291 30.6895 58.4071 30.4392C58.157 30.2828 57.9694 29.8606 57.9538 29.5634C57.9225 27.9838 57.9225 26.4043 57.9694 24.809C57.9694 24.5745 58.1882 24.2304 58.3914 24.1209C58.8291 23.902 59.3449 23.7925 59.8763 23.6205V30.924ZM68.6762 44.6711C68.6762 46.1881 67.3632 47.1734 66.0347 46.6573C65.3 46.3757 64.7999 45.7971 64.7999 45.0151C64.7686 41.7152 64.7842 38.4309 64.7842 35.0998H68.6449C68.6606 35.2405 68.6762 35.3656 68.6762 35.4907C68.6762 38.5561 68.6918 41.6214 68.6762 44.6711ZM71.5991 32.9102C71.5991 32.9572 71.5834 33.0197 71.5678 33.1292H63.0024C62.2209 33.1292 61.8457 32.7695 61.8457 31.9719V22.5726C61.8457 21.7906 62.2209 21.4309 63.0024 21.4309C63.8152 21.4153 64.6279 21.4153 65.4251 21.4309C65.597 21.4466 65.8158 21.5248 65.9253 21.6499C67.3164 23.3859 69.0982 24.5119 71.2552 25.0436C71.4896 25.1062 71.6147 25.1688 71.6147 25.4503C71.5991 27.9369 71.6147 30.4236 71.5991 32.9102ZM65.769 15.4723C65.8002 11.2184 69.2858 7.76213 73.5372 7.77777C77.8824 7.7934 81.3524 11.2653 81.3367 15.5975C81.3211 19.9608 77.8199 23.4015 73.4434 23.3702C69.1607 23.3389 65.7221 19.8044 65.769 15.4723ZM89.1363 39.4944C88.6674 39.3224 88.2454 39.1504 87.8233 38.994C83.2124 37.1954 78.6014 35.3969 73.9749 33.614C73.6623 33.4889 73.5372 33.3481 73.5372 33.0041C73.5529 30.6113 73.5528 28.2184 73.5528 25.8256V25.4033C74.35 25.2782 75.1315 25.2313 75.8818 25.028C79.6643 23.9958 82.0557 21.5404 83.0561 17.74C83.103 17.5837 83.228 17.3647 83.3687 17.3178C85.2287 16.5671 87.0731 15.8477 88.9331 15.1283C88.98 15.1126 89.0269 15.1126 89.1363 15.097V39.4944Z" fill="white"/>
<path d="M76.4131 17.1141C76.6163 18.3183 75.9911 19.5225 74.8814 20.1325C74.7094 20.2263 74.5531 20.414 74.475 20.6016C74.2874 20.9926 74.0061 21.2428 73.5528 21.2428C73.1151 21.2428 72.8338 21.0083 72.6306 20.6173C72.5368 20.414 72.3805 20.2263 72.1929 20.1168C71.3645 19.6164 70.8175 18.9126 70.6455 17.9586C70.4892 17.0828 70.9425 16.5041 71.6928 16.5667C72.1304 16.598 72.4587 16.8951 72.5524 17.333C72.5837 17.4894 72.5837 17.6614 72.6306 17.8178C72.7713 18.2714 73.2402 18.5685 73.6935 18.4903C74.1624 18.4121 74.5219 17.9899 74.5219 17.5207C74.5219 17.0515 74.178 16.6449 73.7091 16.5667C73.3808 16.5198 73.037 16.5041 72.7244 16.4103C71.5521 16.0662 70.7393 15.0809 70.6612 13.8298C70.583 12.6099 71.1145 11.6715 72.1773 11.0616C72.3961 10.9365 72.5837 10.827 72.6619 10.5299C72.7713 10.1076 73.1308 9.9043 73.5684 9.9043C73.9904 9.9043 74.3187 10.1232 74.4437 10.5142C74.5219 10.8114 74.6938 10.9209 74.9283 11.0616C75.8661 11.5933 76.3819 12.4066 76.4757 13.3293C76.46 14.1269 76.1474 14.5336 75.616 14.5805C75.0064 14.6274 74.6313 14.299 74.5375 13.6108C74.4437 13.0009 74.0842 12.6568 73.5528 12.6412C73.0839 12.6412 72.6931 12.9696 72.5993 13.4544C72.5056 13.8923 72.7713 14.3772 73.1933 14.5179C73.4121 14.5805 73.6466 14.5961 73.8654 14.6274C75.2409 14.8151 76.1943 15.7534 76.4131 17.1141Z" fill="white"/>
<path d="M62.7649 39.0682C62.7649 36.8705 64.5465 35.0889 66.7443 35.0889V35.0889C68.942 35.0889 70.7236 36.8705 70.7236 39.0682V44.7731C70.7236 46.9708 68.942 48.7524 66.7443 48.7524V48.7524C64.5465 48.7524 62.7649 46.9708 62.7649 44.7731V39.0682Z" fill="#C11531"/>
<path d="M62.7649 35.0547H66.7443H70.7236V42.385H62.7649V35.0547Z" fill="#C11531"/>
</svg>
