<svg width="100" height="50" viewBox="0 0 100 50" fill="none" xmlns="http://www.w3.org/2000/svg">
<path d="M14.7942 32.5884C21.8602 32.5884 27.5884 26.8602 27.5884 19.7942C27.5884 12.7282 21.8602 7 14.7942 7C7.72815 7 2 12.7282 2 19.7942C2 26.8602 7.72815 32.5884 14.7942 32.5884Z" fill="#FF3152"/>
<path d="M12.8798 15.7286C12.4777 16.1307 12.2517 16.6762 12.2517 17.245V33.8733C12.2517 34.442 12.4776 34.9876 12.8798 35.3897C13.2819 35.7918 13.8274 36.0178 14.3962 36.0178H16.0591C16.7114 36.0178 17.2402 36.5466 17.2402 37.1989C17.2402 37.8512 16.7114 38.38 16.0591 38.38H14.3962C13.2011 38.38 12.0547 37.9053 11.2095 37.0601C10.3643 36.2149 9.88947 35.0685 9.88947 33.8733V17.245C9.88947 16.0498 10.3642 14.9035 11.2094 14.0583C11.5218 13.6183 12.5966 12.7383 14.3962 12.7383H41.0014C42.1966 12.7383 43.343 13.2131 44.1882 14.0582C45.0335 14.9035 45.5082 16.0499 45.5082 17.245V30.1503H43.146V17.245C43.146 16.6762 42.92 16.1307 42.5179 15.7287C42.1158 15.3265 41.5702 15.1005 41.0014 15.1005H14.3962C13.7305 15.1005 13.1079 15.5192 12.8798 15.7286Z" fill="#000F4A"/>
<path d="M26.779 34.9767C27.2577 34.4023 28.1398 34.4023 28.6184 34.9767L34.3765 41.8863C35.0263 42.666 34.4718 43.85 33.4567 43.85H21.9407C20.9257 43.85 20.3712 42.666 21.021 41.8863L26.779 34.9767Z" fill="#FF3152"/>
<path fill-rule="evenodd" clip-rule="evenodd" d="M37.7916 31.2134C37.7916 29.8631 38.8861 28.7686 40.2364 28.7686H46.5552C47.9054 28.7686 49 29.8631 49 31.2134V41.3234C49 42.6736 47.9054 43.7682 46.5552 43.7682H40.2364C38.8861 43.7682 37.7916 42.6736 37.7916 41.3234V31.2134ZM40.2364 31.1308C40.1907 31.1308 40.1538 31.1677 40.1538 31.2134V41.3234C40.1538 41.369 40.1907 41.406 40.2364 41.406H46.5552C46.6008 41.406 46.6378 41.369 46.6378 41.3234V31.2134C46.6378 31.1677 46.6008 31.1308 46.5552 31.1308H40.2364Z" fill="#000F4A"/>
<path fill-rule="evenodd" clip-rule="evenodd" d="M42.486 40.0594C42.486 39.5568 42.8934 39.1494 43.396 39.1494H43.403C43.9055 39.1494 44.3129 39.5568 44.3129 40.0594C44.3129 40.562 43.9055 40.9694 43.403 40.9694H43.396C42.8934 40.9694 42.486 40.562 42.486 40.0594Z" fill="#FF3152"/>
<path d="M64.7942 32.5884C71.8602 32.5884 77.5884 26.8602 77.5884 19.7942C77.5884 12.7282 71.8602 7 64.7942 7C57.7282 7 52 12.7282 52 19.7942C52 26.8602 57.7282 32.5884 64.7942 32.5884Z" fill="#C11531"/>
<path d="M62.8798 15.7286C62.4777 16.1307 62.2517 16.6762 62.2517 17.245V33.8733C62.2517 34.4421 62.4776 34.9876 62.8798 35.3897C63.2819 35.7918 63.8274 36.0178 64.3962 36.0178H66.0591C66.7114 36.0178 67.2402 36.5466 67.2402 37.1989C67.2402 37.8512 66.7114 38.38 66.0591 38.38H64.3962C63.2011 38.38 62.0547 37.9054 61.2095 37.0601C60.3643 36.2149 59.8895 35.0685 59.8895 33.8733V17.245C59.8895 16.0498 60.3642 14.9035 61.2094 14.0583C61.5219 13.6183 62.5966 12.7383 64.3962 12.7383H91.0014C92.1967 12.7383 93.343 13.2131 94.1882 14.0582C95.0335 14.9035 95.5082 16.0499 95.5082 17.245V30.1503H93.146V17.245C93.146 16.6762 92.92 16.1307 92.518 15.7287C92.1158 15.3265 91.5702 15.1005 91.0014 15.1005H64.3962C63.7305 15.1005 63.1079 15.5192 62.8798 15.7286Z" fill="white"/>
<path d="M76.779 34.9767C77.2577 34.4023 78.1398 34.4023 78.6184 34.9767L84.3765 41.8863C85.0263 42.666 84.4718 43.85 83.4567 43.85H71.9407C70.9257 43.85 70.3712 42.666 71.021 41.8863L76.779 34.9767Z" fill="#C11531"/>
<path fill-rule="evenodd" clip-rule="evenodd" d="M87.7916 31.2134C87.7916 29.8631 88.8861 28.7686 90.2364 28.7686H96.5552C97.9054 28.7686 99 29.8631 99 31.2134V41.3234C99 42.6736 97.9054 43.7682 96.5552 43.7682H90.2364C88.8861 43.7682 87.7916 42.6736 87.7916 41.3234V31.2134ZM90.2364 31.1308C90.1907 31.1308 90.1538 31.1677 90.1538 31.2134V41.3234C90.1538 41.369 90.1907 41.406 90.2364 41.406H96.5552C96.6008 41.406 96.6378 41.369 96.6378 41.3234V31.2134C96.6378 31.1677 96.6008 31.1308 96.5552 31.1308H90.2364Z" fill="white"/>
<path fill-rule="evenodd" clip-rule="evenodd" d="M92.486 40.0594C92.486 39.5568 92.8934 39.1494 93.396 39.1494H93.403C93.9055 39.1494 94.3129 39.5568 94.3129 40.0594C94.3129 40.562 93.9055 40.9694 93.403 40.9694H93.396C92.8934 40.9694 92.486 40.562 92.486 40.0594Z" fill="#C11531"/>
</svg>
