<svg width="100" height="50" viewBox="0 0 100 50" fill="none" xmlns="http://www.w3.org/2000/svg">
<path d="M20.8336 33.6672C29.5782 33.6672 36.6672 26.5782 36.6672 17.8336C36.6672 9.08894 29.5782 2 20.8336 2C12.0889 2 5 9.08894 5 17.8336C5 26.5782 12.0889 33.6672 20.8336 33.6672Z" fill="#FF3152"/>
<path fill-rule="evenodd" clip-rule="evenodd" d="M25.2995 16.2053C24.1756 16.2053 23.2646 17.1164 23.2646 18.2402V44.2236C23.2646 45.3474 24.1756 46.2585 25.2995 46.2585H41.5391C42.6629 46.2585 43.574 45.3474 43.574 44.2236V18.2402C43.574 17.1164 42.6629 16.2053 41.5391 16.2053H25.2995ZM20.8385 18.2402C20.8385 15.7765 22.8358 13.7793 25.2995 13.7793H41.5391C44.0028 13.7793 46 15.7765 46 18.2402V44.2236C46 46.6873 44.0028 48.6845 41.5391 48.6845H25.2995C22.8358 48.6845 20.8385 46.6873 20.8385 44.2236V18.2402Z" fill="#000F4A"/>
<path fill-rule="evenodd" clip-rule="evenodd" d="M32.2064 40.9757C32.2064 40.3058 32.7495 39.7627 33.4194 39.7627H33.4363C34.1063 39.7627 34.6494 40.3058 34.6494 40.9757C34.6494 41.6456 34.1063 42.1887 33.4363 42.1887H33.4194C32.7495 42.1887 32.2064 41.6456 32.2064 40.9757Z" fill="#000F4A"/>
<path d="M70.8336 33.6672C79.5782 33.6672 86.6672 26.5782 86.6672 17.8336C86.6672 9.08894 79.5782 2 70.8336 2C62.0889 2 55 9.08894 55 17.8336C55 26.5782 62.0889 33.6672 70.8336 33.6672Z" fill="#C11531"/>
<path fill-rule="evenodd" clip-rule="evenodd" d="M75.2995 16.2053C74.1756 16.2053 73.2646 17.1164 73.2646 18.2402V44.2236C73.2646 45.3474 74.1756 46.2585 75.2995 46.2585H91.5391C92.6629 46.2585 93.574 45.3474 93.574 44.2236V18.2402C93.574 17.1164 92.6629 16.2053 91.5391 16.2053H75.2995ZM70.8385 18.2402C70.8385 15.7765 72.8358 13.7793 75.2995 13.7793H91.5391C94.0028 13.7793 96 15.7765 96 18.2402V44.2236C96 46.6873 94.0028 48.6845 91.5391 48.6845H75.2995C72.8358 48.6845 70.8385 46.6873 70.8385 44.2236V18.2402Z" fill="white"/>
<path fill-rule="evenodd" clip-rule="evenodd" d="M82.2064 40.9757C82.2064 40.3058 82.7495 39.7627 83.4194 39.7627H83.4363C84.1063 39.7627 84.6494 40.3058 84.6494 40.9757C84.6494 41.6456 84.1063 42.1887 83.4363 42.1887H83.4194C82.7495 42.1887 82.2064 41.6456 82.2064 40.9757Z" fill="white"/>
</svg>
