<svg width="100" height="50" viewBox="0 0 100 50" fill="none" xmlns="http://www.w3.org/2000/svg">
<path d="M13.5439 26.0877C19.9194 26.0877 25.0877 20.9194 25.0877 14.5439C25.0877 8.16836 19.9194 3 13.5439 3C7.16836 3 2 8.16836 2 14.5439C2 20.9194 7.16836 26.0877 13.5439 26.0877Z" fill="#FF3152"/>
<path d="M13.4724 19.6759C13.0702 18.8164 12.9229 17.8597 13.0479 16.919C13.1729 15.9783 13.5649 15.0932 14.1775 14.3685C14.5971 13.8693 15.1123 13.459 15.6928 13.1616C16.2733 12.8643 16.9073 12.6859 17.5576 12.637C18.015 12.6053 18.4745 12.6369 18.9231 12.731C19.7955 12.1703 20.7314 11.7152 21.7111 11.3753C20.2029 10.4565 18.4102 10.1225 16.6722 10.4365C14.9343 10.7504 13.3718 11.6906 12.2803 13.079C11.1888 14.4673 10.6441 16.2076 10.7493 17.9706C10.8545 19.7335 11.6022 21.3967 12.851 22.6455C12.9418 21.6348 13.1503 20.6382 13.4724 19.6759V19.6759ZM18.7491 28.5877C17.7131 27.036 17.2108 25.189 17.3184 23.3264C17.426 21.4637 18.1375 19.6868 19.3453 18.2647C20.5502 16.8442 22.1861 15.856 24.0041 15.4505C25.8221 15.045 27.7228 15.2442 29.4172 16.018C30.4488 15.6873 31.5112 15.4616 32.5882 15.3444C30.3933 13.5953 27.6039 12.7687 24.8103 13.0397C22.0167 13.3107 19.4382 14.658 17.6203 16.7964C15.8066 18.9399 14.8934 21.7024 15.0722 24.5046C15.251 27.3068 16.5079 29.9309 18.5794 31.8265C18.5282 30.7439 18.5851 29.659 18.7491 28.5877V28.5877Z" fill="#000F4A"/>
<path fill-rule="evenodd" clip-rule="evenodd" d="M23.1021 23.2344C21.2977 25.825 20.4472 28.961 20.6954 32.1083C20.8371 33.8974 21.33 35.6409 22.1458 37.2394C22.9617 38.8378 24.0845 40.2599 25.4501 41.4242C27.8532 43.4717 30.8918 44.6228 34.0484 44.6814C37.2049 44.7401 40.2842 43.7026 42.7616 41.7457C45.2391 39.7889 46.9616 37.0337 47.6357 33.9494C48.3098 30.8651 47.8938 27.6425 46.4586 24.8305C45.0234 22.0185 42.6577 19.791 39.7645 18.5274C36.8714 17.2638 33.6296 17.0423 30.5914 17.9005C27.5532 18.7588 24.9065 20.6437 23.1021 23.2344ZM44.8891 26.7721C45.3136 27.8346 45.5766 28.9568 45.6675 30.1013C45.7965 31.6446 45.6093 33.1904 45.1256 34.6464C45.4995 33.5103 45.7017 32.2963 45.7017 31.0351C45.7017 29.5294 45.4135 28.091 44.8891 26.7721Z" fill="#FF3152"/>
<path d="M63.5439 26.0877C69.9194 26.0877 75.0877 20.9194 75.0877 14.5439C75.0877 8.16836 69.9194 3 63.5439 3C57.1684 3 52 8.16836 52 14.5439C52 20.9194 57.1684 26.0877 63.5439 26.0877Z" fill="#C11531"/>
<path d="M63.4724 19.6759C63.0703 18.8164 62.9229 17.8597 63.0479 16.919C63.1729 15.9783 63.5649 15.0932 64.1775 14.3685C64.5972 13.8693 65.1124 13.459 65.6928 13.1616C66.2733 12.8643 66.9073 12.6859 67.5577 12.637C68.015 12.6053 68.4745 12.6369 68.9232 12.731C69.7955 12.1703 70.7314 11.7152 71.7112 11.3753C70.2029 10.4565 68.4102 10.1225 66.6723 10.4365C64.9343 10.7504 63.3718 11.6906 62.2803 13.079C61.1888 14.4673 60.6441 16.2076 60.7493 17.9706C60.8545 19.7335 61.6022 21.3967 62.851 22.6455C62.9418 21.6348 63.1504 20.6382 63.4724 19.6759V19.6759ZM68.7491 28.5877C67.7131 27.036 67.2109 25.189 67.3184 23.3264C67.426 21.4637 68.1375 19.6868 69.3453 18.2647C70.5502 16.8442 72.1861 15.856 74.0041 15.4505C75.8221 15.045 77.7228 15.2442 79.4172 16.018C80.4488 15.6873 81.5112 15.4616 82.5882 15.3444C80.3933 13.5953 77.6039 12.7687 74.8103 13.0397C72.0167 13.3107 69.4382 14.658 67.6204 16.7964C65.8066 18.9399 64.8934 21.7024 65.0722 24.5046C65.251 27.3068 66.508 29.9309 68.5794 31.8265C68.5282 30.7439 68.5851 29.659 68.7491 28.5877V28.5877Z" fill="white"/>
<path fill-rule="evenodd" clip-rule="evenodd" d="M73.1021 23.2344C71.2977 25.825 70.4472 28.961 70.6954 32.1083C70.8371 33.8974 71.33 35.6409 72.1458 37.2394C72.9617 38.8378 74.0845 40.2599 75.4501 41.4242C77.8532 43.4717 80.8918 44.6228 84.0484 44.6814C87.2049 44.7401 90.2842 43.7026 92.7616 41.7457C95.2391 39.7889 96.9616 37.0337 97.6357 33.9494C98.3098 30.8651 97.8938 27.6425 96.4586 24.8305C95.0234 22.0185 92.6577 19.791 89.7645 18.5274C86.8714 17.2638 83.6296 17.0423 80.5914 17.9005C77.5532 18.7588 74.9065 20.6437 73.1021 23.2344ZM94.8893 26.7726C95.3137 27.8349 95.5767 28.957 95.6675 30.1013C95.7965 31.6445 95.6093 33.1902 95.1257 34.6461C95.4995 33.5101 95.7017 32.2962 95.7017 31.0351C95.7017 29.5295 95.4135 28.0913 94.8893 26.7726Z" fill="#C11531"/>
</svg>
