<svg width="22" height="20" viewBox="0 0 22 20" fill="none" xmlns="http://www.w3.org/2000/svg">
<path d="M4.74036 19.4771L4.74022 19.4765L10.7751 16.4686L10.9981 16.3575L11.2211 16.4686L17.2584 19.4763C17.2585 19.4764 17.2586 19.4764 17.2587 19.4765C17.4062 19.5495 17.6062 19.426 17.5695 19.224L17.5695 19.2237L16.4282 12.9173L16.3794 12.6472L16.5809 12.461L21.4236 7.98648L21.4239 7.98624C21.5754 7.84646 21.4836 7.6065 21.3077 7.58252L21.307 7.58242L14.5722 6.65445L14.3163 6.61918L14.197 6.38999L11.1941 0.620988L4.74036 19.4771ZM4.74036 19.4771C4.59298 19.5488 4.39428 19.4254 4.43084 19.224L4.4309 19.2237L5.57214 12.9173L5.62102 12.6472L5.4194 12.461L0.575634 7.98676C0.575627 7.98675 0.57562 7.98674 0.575613 7.98674C0.424687 7.84703 0.516577 7.60652 0.692685 7.58252L0.693396 7.58242L7.42813 6.65445L7.68409 6.61918L7.80339 6.38999L10.8063 0.620988C10.8903 0.459718 11.1099 0.459671 11.194 0.620847L4.74036 19.4771Z" fill="#EFF8ED" stroke="#96BB7C"/>
</svg>
