<svg width="36" height="36" viewBox="0 0 36 36" fill="none" xmlns="http://www.w3.org/2000/svg">
<path fill-rule="evenodd" clip-rule="evenodd" d="M23.994 4.5477C21.0931 3.25514 17.8521 2.93493 14.7544 3.63483C11.6566 4.33472 8.86814 6.01722 6.80474 8.43139C4.74134 10.8456 3.51361 13.8621 3.30465 17.031C3.09569 20.1999 3.9167 23.3515 5.64523 26.0157C7.37376 28.6799 9.9172 30.714 12.8962 31.8146C15.8752 32.9152 19.1302 33.0233 22.1757 32.1229C25.2212 31.2224 27.894 29.3616 29.7956 26.818C31.6971 24.2744 32.7254 21.1842 32.7273 18.0084V16.5039C32.7273 15.6002 33.4599 14.8675 34.3636 14.8675C35.2674 14.8675 36 15.6002 36 16.5039V18.0094C35.9978 21.8909 34.7409 25.6687 32.4168 28.7776C30.0927 31.8864 26.8259 34.1607 23.1036 35.2613C19.3814 36.3619 15.4031 36.2297 11.762 34.8845C8.12102 33.5394 5.01238 31.0533 2.89973 27.797C0.787079 24.5408 -0.216376 20.6888 0.0390182 16.8157C0.294412 12.9425 1.79497 9.25568 4.3169 6.30503C6.83883 3.35438 10.247 1.29799 14.0331 0.442565C17.8193 -0.41286 21.7805 -0.0214907 25.326 1.5583C26.1515 1.92612 26.5225 2.8935 26.1547 3.719C25.7869 4.5445 24.8195 4.91552 23.994 4.5477ZM35.5201 3.76102C36.1595 4.39974 36.16 5.43582 35.5213 6.07518L19.1577 22.4552C18.8508 22.7623 18.4345 22.9349 18.0004 22.935C17.5663 22.9351 17.1499 22.7627 16.8429 22.4558L11.9338 17.5467C11.2948 16.9076 11.2948 15.8715 11.9338 15.2325C12.5729 14.5935 13.6089 14.5935 14.248 15.2325L17.9994 18.9839L33.206 3.76217C33.8447 3.12281 34.8808 3.1223 35.5201 3.76102Z" fill="white"/>
</svg>
