<svg width="75" height="62" viewBox="0 0 75 62" fill="none" xmlns="http://www.w3.org/2000/svg">
<path d="M73 2.0325C69.9095 4.21587 66.4877 5.8858 62.8664 6.97798C60.9227 4.73962 58.3396 3.15313 55.4663 2.43307C52.5931 1.71302 49.5684 1.89415 46.8013 2.95195C44.0341 4.00976 41.6582 5.89321 39.9946 8.34757C38.3311 10.8019 37.4603 13.7088 37.5 16.675V19.9073C31.8285 20.0546 26.2087 18.7948 21.141 16.2401C16.0733 13.6853 11.7151 9.91499 8.45455 5.26484C8.45455 5.26484 -4.45455 34.3559 24.5909 47.2852C17.9444 51.8039 10.0267 54.0696 2 53.7499C31.0455 69.9115 66.5455 53.7499 66.5455 16.578C66.5425 15.6777 66.4561 14.7795 66.2873 13.8952C69.581 10.6418 71.9054 6.53422 73 2.0325V2.0325Z" stroke="#01AAE3" stroke-width="2.8" stroke-linecap="round" stroke-linejoin="round"/>
</svg>
