<svg width="1440" height="722" viewBox="0 0 1440 722" fill="none" xmlns="http://www.w3.org/2000/svg">
<mask id="mask0" style="mask-type:alpha" maskUnits="userSpaceOnUse" x="0" y="0" width="1440" height="722">
<rect width="1440" height="722" fill="#EFF8ED"/>
</mask>
<g mask="url(#mask0)">
<path d="M78.1471 522.655C-269.192 458.704 -148.405 144.147 -44.5937 -5.13751C233.781 -322.843 606.281 -282.7 922.192 -223.236C1222.72 -166.668 1311.31 -507.955 1739.71 -182.736C2548.01 430.883 1932.58 1226.75 1446.52 1493.08C960.454 1759.42 407.901 1281.29 589.179 986.082C770.457 690.878 512.322 602.594 78.1471 522.655Z" stroke="white"/>
<path d="M135.06 528.842C-190.63 468.905 -77.372 174.097 19.9686 34.1849C280.992 -263.574 630.275 -225.951 926.495 -170.219C1208.29 -117.202 1291.36 -437.063 1693.06 -132.261C2450.98 442.835 1873.91 1188.73 1418.14 1438.35C962.376 1687.96 444.262 1239.84 614.241 963.174C784.219 686.504 542.173 603.763 135.06 528.842Z" stroke="white"/>
<path d="M191.4 534.929C-112.803 478.917 -7.01596 203.41 83.9027 72.658C327.705 -205.606 653.943 -170.448 930.62 -118.365C1193.82 -68.8199 1271.42 -367.739 1646.61 -82.8935C2354.52 454.549 1815.53 1151.61 1389.83 1384.88C964.13 1618.16 480.2 1199.38 638.965 940.824C797.729 682.268 571.653 604.944 191.4 534.929Z" stroke="white"/>
<path d="M243.32 540.579C-41.0793 488.211 57.821 230.627 142.821 108.381C370.753 -151.781 675.754 -118.91 934.42 -70.2156C1180.49 -23.8933 1253.03 -303.366 1603.8 -37.0513C2265.63 465.428 1761.72 1117.14 1363.74 1335.24C965.748 1553.34 513.321 1161.81 661.75 920.069C810.18 678.333 598.82 606.039 243.32 540.579Z" stroke="white"/>
<path d="M306.29 547.39C45.906 499.413 136.455 263.428 214.278 151.433C422.963 -86.9141 702.208 -56.7996 939.031 -12.1893C1164.32 30.2481 1230.74 -225.79 1551.89 18.1925C2157.83 478.536 1696.47 1075.6 1332.09 1275.41C967.71 1475.22 553.489 1116.52 689.385 895.057C825.281 673.591 631.769 607.36 306.29 547.39Z" stroke="white"/>
<path d="M389.142 556.373C160.359 514.19 239.919 306.698 308.298 208.225C491.657 -1.34488 737.013 25.1328 945.096 64.3563C1143.04 101.669 1201.4 -123.455 1483.58 91.0685C2015.98 495.828 1610.61 1020.81 1290.45 1196.49C970.291 1372.18 606.34 1056.79 725.744 862.062C845.148 667.336 675.122 609.102 389.142 556.373Z" stroke="white"/>
<path d="M471.995 565.358C274.811 528.968 343.384 349.968 402.318 265.017C560.352 84.2253 771.819 107.066 951.161 140.903C1121.77 173.092 1172.07 -21.1189 1415.27 163.945C1874.13 513.122 1524.75 966.012 1248.81 1117.57C972.872 1269.14 659.191 997.056 762.104 829.069C865.016 661.082 718.474 610.845 471.995 565.358Z" stroke="white"/>
</g>
</svg>
