<svg width="1127" height="1101" viewBox="0 0 1127 1101" fill="none" xmlns="http://www.w3.org/2000/svg">
<g filter="url(#filter0_d)">
<path d="M231.807 40H894.836C995.356 40 1076.64 121.265 1076.64 221.807V859.193C1076.64 959.713 995.379 1041 894.836 1041H231.807C131.287 1041 50 959.735 50 859.193V221.807C50 121.287 131.287 40 231.807 40Z" fill="url(#paint0_linear)"/>
<path d="M231.807 65H894.836C981.551 65 1051.64 135.074 1051.64 221.807V859.193C1051.64 945.908 981.57 1016 894.836 1016H231.807C145.092 1016 75 945.926 75 859.193V221.807C75 135.094 145.094 65 231.807 65Z" stroke="white" stroke-width="50"/>
</g>
<path d="M345.128 708.526V344.97C345.128 342.501 346.183 341.088 348.671 341.088C354.682 341.088 360.335 341.088 368.457 340.73C376.937 340.372 385.774 340.372 395.309 340.014C404.844 339.656 415.096 339.656 426.044 339.297C436.992 338.939 447.601 338.939 458.192 338.939C487.155 338.958 511.181 342.482 530.967 349.907C548.643 355.918 564.886 365.811 578.303 378.87C589.609 390.176 598.447 403.951 604.1 419.158C609.396 433.988 612.222 449.195 612.222 465.1C612.222 495.476 605.156 520.576 591.023 540.363C576.89 560.149 557.104 574.998 534.133 583.477C510.107 592.315 483.612 595.481 454.63 595.481C446.15 595.481 440.497 595.481 436.973 595.123C433.45 594.765 428.494 594.765 421.785 594.765V708.187C422.143 710.655 420.372 712.785 417.903 713.124H349.349C346.541 713.124 345.128 711.711 345.128 708.526ZM422.143 409.265V527.982C427.099 528.34 431.678 528.698 435.918 528.698H454.649C468.424 528.698 482.218 526.588 495.277 522.329C506.583 519.144 516.476 512.436 524.24 503.598C531.664 494.76 535.188 482.757 535.188 467.21C535.546 456.262 532.72 445.314 527.066 435.76C521.055 426.583 512.575 419.516 502.343 415.616C489.265 410.32 475.132 408.191 460.641 408.549C451.446 408.549 443.324 408.549 436.615 408.907C429.568 408.549 424.612 408.907 422.143 409.265Z" fill="#9999FF"/>
<path d="M661.707 429.749H723.534C727.077 429.749 729.904 432.218 730.959 435.403C732.014 438.229 732.73 441.056 733.069 444.24C733.785 447.783 734.483 451.665 734.841 455.189C735.199 459.071 735.557 463.31 735.557 467.908C746.147 455.547 758.886 445.296 773.358 437.532C789.601 428.355 808.332 423.757 827.063 423.757C829.532 423.399 831.661 425.17 832 427.639V497.946C832 500.772 830.229 501.827 826.347 501.827C813.627 501.469 800.55 502.525 788.188 505.37C777.937 507.481 768.044 510.665 758.509 514.905C751.8 518.09 745.431 522.33 740.494 527.983V708.169C740.494 711.712 739.081 713.106 735.896 713.106H666.286C663.46 713.464 660.991 711.693 660.633 708.866V511.721C660.633 503.241 660.633 494.403 660.275 485.226C659.917 476.049 659.917 466.853 659.559 457.676C659.559 449.554 658.862 441.772 658.146 433.65C657.788 431.879 658.862 430.107 660.614 429.768C660.633 429.41 661.349 429.41 661.707 429.749Z" fill="#9999FF"/>
<defs>
<filter id="filter0_d" x="0" y="0" width="1126.64" height="1101" filterUnits="userSpaceOnUse" color-interpolation-filters="sRGB">
<feFlood flood-opacity="0" result="BackgroundImageFix"/>
<feColorMatrix in="SourceAlpha" type="matrix" values="0 0 0 0 0 0 0 0 0 0 0 0 0 0 0 0 0 0 127 0" result="hardAlpha"/>
<feOffset dy="10"/>
<feGaussianBlur stdDeviation="25"/>
<feComposite in2="hardAlpha" operator="out"/>
<feColorMatrix type="matrix" values="0 0 0 0 0.768627 0 0 0 0 0.768627 0 0 0 0 0.768627 0 0 0 0.5 0"/>
<feBlend mode="normal" in2="BackgroundImageFix" result="effect1_dropShadow"/>
<feBlend mode="normal" in="SourceGraphic" in2="effect1_dropShadow" result="shape"/>
</filter>
<linearGradient id="paint0_linear" x1="563.322" y1="40" x2="563.322" y2="1041" gradientUnits="userSpaceOnUse">
<stop stop-color="#00008C"/>
<stop offset="1" stop-color="#232352"/>
</linearGradient>
</defs>
</svg>
