<svg width="1127" height="1101" viewBox="0 0 1127 1101" fill="none" xmlns="http://www.w3.org/2000/svg">
<g filter="url(#filter0_d)">
<path d="M231.806 40H894.861C995.389 40 1076.67 121.278 1076.67 221.806V859.194C1076.67 959.722 995.389 1041 894.861 1041H231.806C131.278 1041 50 959.722 50 859.194V221.806C50 121.278 131.278 40 231.806 40Z" fill="url(#paint0_linear)"/>
<path d="M231.806 65H894.861C981.582 65 1051.67 135.085 1051.67 221.806V859.194C1051.67 945.915 981.582 1016 894.861 1016H231.806C145.085 1016 75 945.915 75 859.194V221.806C75 135.085 145.085 65 231.806 65Z" stroke="white" stroke-width="50"/>
</g>
<path d="M291.847 380.125C292.156 378.274 293.699 377.039 295.55 377.039H382.259C384.728 376.731 386.888 378.274 387.505 380.434C389.665 389.074 392.442 399.257 395.528 411.599C398.614 423.634 402.008 436.902 405.711 451.714C409.414 466.217 413.117 481.337 416.82 496.457C420.522 511.577 424.225 526.389 427.928 540.892C431.631 555.394 434.717 568.663 437.185 580.697C439.654 592.732 441.814 602.915 443.357 610.629H443.974C445.208 603.532 447.368 594.275 450.454 582.857C453.54 571.132 457.243 558.172 461.254 543.977C465.265 529.474 469.585 514.663 473.905 499.543C478.226 484.423 482.237 469.303 486.557 454.183C490.568 439.371 494.58 425.485 497.974 412.834C501.677 400.182 504.454 389.382 506.614 380.742C506.923 378.582 508.774 377.039 510.934 377.348H595.483C597.643 377.039 599.495 378.582 599.803 380.434V380.742L611.22 698.264C611.529 699.498 611.22 700.732 610.603 701.349C609.678 702.275 608.752 702.584 607.518 702.584H546.112C545.186 702.584 544.569 702.275 543.643 701.967C543.026 701.349 542.717 700.115 542.717 699.189C542.717 682.218 542.717 664.629 542.409 646.115C542.1 627.601 542.1 609.086 541.792 590.263C541.483 571.44 541.483 553.543 541.792 536.263C542.1 518.983 542.409 503.246 542.409 488.434C542.409 473.931 542.409 461.28 542.717 450.48C543.026 439.68 543.026 431.657 543.026 426.411H542.409C540.557 434.742 538.089 445.542 535.003 458.811C531.917 472.08 528.214 487.2 523.894 504.171C519.574 520.834 514.946 538.114 510.317 556.012C505.38 573.909 500.751 591.497 496.123 609.086C491.494 626.675 487.174 643.029 482.854 658.149C478.534 673.269 475.14 686.846 472.363 698.264C471.745 700.732 469.585 702.275 467.117 702.275H413.117C410.339 702.584 407.871 701.041 407.562 698.264C404.785 686.538 401.391 673.269 397.997 658.149C394.294 643.029 390.591 626.983 386.888 610.32C383.185 593.657 379.174 576.686 374.854 559.406C370.534 542.126 366.522 525.154 362.819 509.109C359.116 492.754 355.722 477.634 352.636 463.44C349.551 449.245 346.773 436.594 344.305 425.794H343.379V464.983C343.379 480.103 343.071 497.074 342.762 515.28C342.145 533.794 341.836 552.926 341.219 572.983C340.602 593.04 340.293 613.715 339.676 635.006C339.059 656.298 338.133 677.589 337.208 698.264C337.208 701.041 335.973 702.275 333.505 702.275H278.887C277.962 702.275 276.727 701.967 275.802 701.658C274.876 701.041 274.876 699.807 275.185 697.955L291.847 380.125ZM794.513 594.275H696.695C697.929 603.532 701.015 612.48 706.261 620.503C711.815 628.835 719.529 635.315 728.787 639.018C738.97 643.646 751.93 646.115 768.284 646.115C779.084 646.115 789.884 645.189 800.376 643.338C810.25 641.486 820.124 638.709 829.381 634.698C830.924 633.463 831.85 634.081 831.85 637.166V684.378C831.85 685.612 831.542 686.846 831.233 688.081C830.616 689.007 829.999 689.624 829.073 690.241C818.89 695.178 808.09 698.572 796.673 701.041C782.17 703.818 767.667 705.052 752.855 704.744C729.404 704.744 709.655 701.041 693.609 693.944C678.489 687.464 665.221 677.281 654.729 664.629C644.855 652.595 637.758 639.018 633.438 624.206C629.118 609.703 626.958 594.583 626.958 579.155C626.958 562.492 629.426 546.137 634.672 530.091C639.609 514.663 647.323 500.468 657.815 487.817C667.998 475.474 680.649 465.6 695.152 458.503C711.198 451.097 729.095 447.394 746.684 447.703C763.038 447.394 779.393 450.48 794.513 457.268C807.164 463.131 818.581 471.771 826.913 482.88C834.936 493.371 841.416 505.097 845.427 518.057C849.439 530.4 851.29 543.052 851.29 555.703C851.29 563.109 850.982 569.589 850.673 575.452C850.056 581.315 849.747 585.635 849.439 588.412C849.13 590.572 847.279 592.423 845.119 592.423C843.267 592.423 839.873 592.732 834.936 593.04C829.999 593.657 824.136 593.966 817.039 593.966C809.941 593.966 802.227 594.275 794.513 594.275ZM696.695 545.829H761.495C769.518 545.829 775.381 545.829 779.084 545.52C781.553 545.52 784.021 545.212 786.181 544.903V541.817C786.181 537.806 785.564 534.103 784.33 530.4C778.775 513.12 762.421 501.394 744.215 502.011C727.244 501.086 711.198 510.034 703.175 525.463C699.781 531.943 697.621 538.732 696.695 545.829Z" fill="#9999FF"/>
<defs>
<filter id="filter0_d" x="0" y="0" width="1126.67" height="1101" filterUnits="userSpaceOnUse" color-interpolation-filters="sRGB">
<feFlood flood-opacity="0" result="BackgroundImageFix"/>
<feColorMatrix in="SourceAlpha" type="matrix" values="0 0 0 0 0 0 0 0 0 0 0 0 0 0 0 0 0 0 127 0" result="hardAlpha"/>
<feOffset dy="10"/>
<feGaussianBlur stdDeviation="25"/>
<feComposite in2="hardAlpha" operator="out"/>
<feColorMatrix type="matrix" values="0 0 0 0 0.768627 0 0 0 0 0.768627 0 0 0 0 0.768627 0 0 0 0.5 0"/>
<feBlend mode="normal" in2="BackgroundImageFix" result="effect1_dropShadow"/>
<feBlend mode="normal" in="SourceGraphic" in2="effect1_dropShadow" result="shape"/>
</filter>
<linearGradient id="paint0_linear" x1="563.333" y1="40" x2="563.333" y2="1041" gradientUnits="userSpaceOnUse">
<stop stop-color="#000078"/>
<stop offset="1" stop-color="#25254D"/>
</linearGradient>
</defs>
</svg>
