<svg width="1127" height="1101" viewBox="0 0 1127 1101" fill="none" xmlns="http://www.w3.org/2000/svg">
<g filter="url(#filter0_d)">
<path d="M231.806 40H894.861C995.398 40 1076.67 121.278 1076.67 221.806V859.194C1076.67 959.722 995.398 1041 894.861 1041H231.806C131.278 1041 50 959.722 50 859.194V221.806C50 121.278 131.278 40 231.806 40Z" fill="url(#paint0_linear)"/>
<path d="M231.806 65H894.861C981.59 65 1051.67 135.084 1051.67 221.806V859.194C1051.67 945.916 981.59 1016 894.861 1016H231.806C145.085 1016 75 945.915 75 859.194V221.806C75 135.085 145.085 65 231.806 65Z" stroke="white" stroke-width="50"/>
</g>
<path d="M401.629 560.022H479.569C477.728 553.577 475.273 545.912 472.511 537.933C469.755 529.641 466.987 520.748 464.232 511.542C461.157 502.022 458.395 492.816 455.326 483.309C452.264 473.796 449.502 464.897 447.04 455.997C444.585 447.405 442.437 439.42 440.289 432.055H439.675C436.913 445.257 433.538 458.446 429.242 471.648C424.638 486.378 420.042 501.722 415.125 517.066C411.136 532.716 406.232 547.139 401.629 560.022ZM497.982 621.096H383.824L360.502 693.512C359.888 696.281 357.439 698.122 354.677 697.815H296.978C293.603 697.815 292.682 695.974 293.603 692.291L392.417 409.046C393.337 405.977 394.258 403.215 395.485 399.532C396.713 393.088 397.327 386.337 397.327 379.586C397.026 378.051 398.247 376.517 399.788 376.21H479.269C481.41 376.21 482.945 377.131 483.252 378.659L595.261 693.212C596.181 696.581 595.261 698.122 592.192 698.122H528.055C525.907 698.422 523.759 696.894 523.152 694.746" fill="#9999FF"/>
<path d="M679.959 548.055H744.71C752.689 548.055 758.519 548.055 762.202 547.755C764.657 547.448 767.118 546.834 769.26 545.3V542.231C769.26 538.242 768.64 534.559 767.419 530.877C761.895 513.692 745.63 502.024 727.531 502.644C710.647 501.724 694.689 510.623 686.71 525.967C683.028 533.025 680.873 540.39 679.959 548.055ZM777.245 592.865H679.959C681.187 602.379 684.255 611.892 689.472 620.177C694.996 628.463 702.668 634.907 711.881 638.59C724.149 643.807 737.652 646.569 751.154 646.262C761.895 645.955 772.635 645.034 783.069 642.886C792.582 641.659 801.789 639.204 810.381 635.828C811.915 634.6 812.836 635.208 812.836 638.283V685.235C812.836 686.462 812.529 687.69 812.222 688.917C811.609 689.838 810.995 690.452 810.074 691.065C800.254 695.362 790.127 698.43 779.387 700.272C764.964 703.034 750.54 704.261 735.81 703.954C712.488 703.954 692.848 700.272 676.89 693.214C661.847 686.769 648.658 676.642 638.224 664.054C628.404 652.092 621.346 638.59 617.056 623.86C612.754 609.437 610.605 594.4 610.605 579.05C610.605 562.485 613.06 546.214 618.277 530.257C623.187 514.919 630.859 500.803 641.293 488.221C651.42 475.946 664.002 466.126 678.425 459.068C692.848 452.01 710.039 449.548 729.673 449.548C745.937 449.248 762.202 452.31 777.245 459.068C789.82 464.592 800.868 472.877 809.46 483.612C817.439 494.052 823.884 505.707 827.873 518.602C831.862 530.877 833.704 543.459 833.704 556.04C833.704 563.405 833.397 569.85 833.09 575.68C832.482 581.511 832.169 585.807 831.862 588.569C831.555 590.717 829.714 592.559 827.566 592.559C825.725 592.559 822.349 592.865 817.439 593.172C812.529 593.786 806.699 594.093 799.64 594.093C792.582 594.093 785.217 592.865 777.245 592.865Z" fill="#9999FF"/>
<defs>
<filter id="filter0_d" x="0" y="0" width="1126.67" height="1101" filterUnits="userSpaceOnUse" color-interpolation-filters="sRGB">
<feFlood flood-opacity="0" result="BackgroundImageFix"/>
<feColorMatrix in="SourceAlpha" type="matrix" values="0 0 0 0 0 0 0 0 0 0 0 0 0 0 0 0 0 0 127 0" result="hardAlpha"/>
<feOffset dy="10"/>
<feGaussianBlur stdDeviation="25"/>
<feComposite in2="hardAlpha" operator="out"/>
<feColorMatrix type="matrix" values="0 0 0 0 0.768627 0 0 0 0 0.768627 0 0 0 0 0.768627 0 0 0 0.5 0"/>
<feBlend mode="normal" in2="BackgroundImageFix" result="effect1_dropShadow"/>
<feBlend mode="normal" in="SourceGraphic" in2="effect1_dropShadow" result="shape"/>
</filter>
<linearGradient id="paint0_linear" x1="563.333" y1="40" x2="563.333" y2="1041" gradientUnits="userSpaceOnUse">
<stop stop-color="#000078"/>
<stop offset="1" stop-color="#25254D"/>
</linearGradient>
</defs>
</svg>
