<svg width="28" height="28" viewBox="0 0 28 28" fill="none" xmlns="http://www.w3.org/2000/svg">
<path d="M22.4394 1.66718C21.3513 1.66718 20.3077 2.09943 19.5383 2.86884C18.7689 3.63824 18.3367 4.68179 18.3367 5.7699V22.1808C18.3367 23.2689 18.7689 24.3124 19.5383 25.0819C20.3077 25.8513 21.3513 26.2835 22.4394 26.2835C23.5275 26.2835 24.571 25.8513 25.3405 25.0819C26.1099 24.3124 26.5421 23.2689 26.5421 22.1808C26.5421 21.0927 26.1099 20.0491 25.3405 19.2797C24.571 18.5103 23.5275 18.0781 22.4394 18.0781H6.0285C4.94039 18.0781 3.89685 18.5103 3.12744 19.2797C2.35803 20.0491 1.92578 21.0927 1.92578 22.1808C1.92578 23.2689 2.35803 24.3124 3.12744 25.0819C3.89685 25.8513 4.94039 26.2835 6.0285 26.2835C7.11661 26.2835 8.16016 25.8513 8.92957 25.0819C9.69898 24.3124 10.1312 23.2689 10.1312 22.1808V5.7699C10.1312 4.68179 9.69898 3.63824 8.92957 2.86884C8.16016 2.09943 7.11661 1.66718 6.0285 1.66718C4.94039 1.66718 3.89685 2.09943 3.12744 2.86884C2.35803 3.63824 1.92578 4.68179 1.92578 5.7699C1.92578 6.85801 2.35803 7.90155 3.12744 8.67096C3.89685 9.44037 4.94039 9.87262 6.0285 9.87262H22.4394C23.5275 9.87262 24.571 9.44037 25.3405 8.67096C26.1099 7.90155 26.5421 6.85801 26.5421 5.7699C26.5421 4.68179 26.1099 3.63824 25.3405 2.86884C24.571 2.09943 23.5275 1.66718 22.4394 1.66718Z" stroke="white" stroke-width="2" stroke-linecap="round" stroke-linejoin="round"/>
</svg>
