<svg width="1127" height="1101" viewBox="0 0 1127 1101" fill="none" xmlns="http://www.w3.org/2000/svg">
<g filter="url(#filter0_d)">
<path d="M231.807 40H894.836C995.356 40 1076.64 121.265 1076.64 221.807V859.193C1076.64 959.713 995.379 1041 894.836 1041H231.807C131.287 1041 50 959.736 50 859.193V221.807C50 121.287 131.265 40 231.807 40Z" fill="url(#paint0_linear)"/>
<path d="M231.807 65H894.836C981.551 65 1051.64 135.074 1051.64 221.807V859.193C1051.64 945.908 981.57 1016 894.836 1016H231.807C145.092 1016 75 945.926 75 859.193V221.807C75 135.092 145.074 65 231.807 65Z" stroke="white" stroke-width="50"/>
</g>
<path d="M564.785 727.183H339.726C335.826 727.183 334.046 725.044 334.046 720.785V358.016C333.687 355.536 335.466 353.397 337.946 353.056H408.94C410.719 352.696 412.84 354.116 412.84 355.896V655.13H576.826C580.385 655.13 581.445 656.909 580.726 660.09L570.427 721.845C570.427 723.624 569.367 725.044 568.307 726.104C567.265 726.824 566.205 727.183 564.785 727.183Z" fill="#31A8FF"/>
<path d="M621.579 443.208H683.694C687.253 443.208 690.093 445.688 691.153 448.888C692.573 451.368 693.633 454.207 693.993 457.047C694.712 460.606 695.413 464.506 695.772 468.047C696.132 471.946 696.492 476.206 696.492 480.825C707.131 468.406 719.929 458.107 734.469 450.308C750.807 441.429 768.905 437.169 787.364 437.529C789.844 437.169 791.983 438.949 792.324 441.429V512.063C792.324 514.902 790.544 515.963 786.644 515.963C763.567 514.543 740.489 518.802 719.551 528.041C712.451 531.24 705.711 535.5 700.392 541.179V722.204C700.392 725.763 698.972 727.164 695.772 727.164H626.558C623.718 727.524 621.238 725.744 620.879 722.904V524.841C620.879 516.322 620.879 507.443 620.519 498.224C620.159 488.985 620.159 479.765 619.8 470.545C619.44 462.746 618.739 454.927 617.66 447.108C617.301 445.329 618.38 443.549 620.14 443.208C620.519 442.848 620.86 442.848 621.579 443.208Z" fill="#31A8FF"/>
<defs>
<filter id="filter0_d" x="0" y="0" width="1126.64" height="1101" filterUnits="userSpaceOnUse" color-interpolation-filters="sRGB">
<feFlood flood-opacity="0" result="BackgroundImageFix"/>
<feColorMatrix in="SourceAlpha" type="matrix" values="0 0 0 0 0 0 0 0 0 0 0 0 0 0 0 0 0 0 127 0" result="hardAlpha"/>
<feOffset dy="10"/>
<feGaussianBlur stdDeviation="25"/>
<feComposite in2="hardAlpha" operator="out"/>
<feColorMatrix type="matrix" values="0 0 0 0 0.768627 0 0 0 0 0.768627 0 0 0 0 0.768627 0 0 0 0.5 0"/>
<feBlend mode="normal" in2="BackgroundImageFix" result="effect1_dropShadow"/>
<feBlend mode="normal" in="SourceGraphic" in2="effect1_dropShadow" result="shape"/>
</filter>
<linearGradient id="paint0_linear" x1="563.322" y1="40" x2="563.322" y2="1041" gradientUnits="userSpaceOnUse">
<stop stop-color="#003D6D"/>
<stop offset="1" stop-color="#203647"/>
</linearGradient>
</defs>
</svg>
