<svg width="1127" height="1101" viewBox="0 0 1127 1101" fill="none" xmlns="http://www.w3.org/2000/svg">
<g filter="url(#filter0_d)">
<path d="M231.807 40H894.836C995.356 40 1076.64 121.265 1076.64 221.807V859.193C1076.64 959.713 995.379 1041 894.836 1041H231.807C131.287 1041 50 959.736 50 859.193V221.807C50 121.287 131.265 40 231.807 40Z" fill="url(#paint0_linear)"/>
<path d="M231.807 65H894.836C981.551 65 1051.64 135.074 1051.64 221.807V859.193C1051.64 945.908 981.57 1016 894.836 1016H231.807C145.092 1016 75 945.926 75 859.193V221.807C75 135.092 145.074 65 231.807 65Z" stroke="white" stroke-width="50"/>
</g>
<path d="M322 538.036C322 483.099 322 428.244 322 373.308C322 360.874 322 360.793 334.108 360.63C368.074 360.061 402.04 359.167 436.006 359.005C461.196 358.842 485.98 362.662 509.22 372.658C549.524 390.13 572.846 421.093 577.396 464.733C581.947 508.455 570.489 546.731 534.329 574.768C513.771 590.696 489.393 598.01 464.203 601.017C444.619 603.374 424.63 603.049 404.884 603.13C397.977 603.13 396.027 605.081 396.027 611.826C396.27 642.788 395.864 673.751 396.27 704.795C396.352 713.003 393.914 715.766 385.626 715.441C368.805 714.872 351.903 715.278 335.083 715.278C322.081 715.278 322.081 715.278 322.081 702.682C322 647.827 322 592.891 322 538.036ZM396.677 537.304C415.773 541.205 453.477 538.361 470.541 531.941C491.993 523.814 504.751 505.854 504.995 483.343C505.238 457.907 494.187 439.622 473.385 431.17C448.52 421.093 422.842 423.775 396.677 425.4C396.677 463.27 396.677 500.328 396.677 537.304Z" fill="#31A8FE"/>
<path d="M607.212 638.072C619.564 642.867 630.94 648.15 642.722 651.725C663.606 658.064 684.977 661.965 706.998 659.202C711.223 658.714 715.449 657.251 719.593 655.87C725.769 653.919 729.913 649.856 730.807 643.192C731.782 636.285 729.019 630.433 723.168 627.183C713.011 621.494 702.285 616.781 691.884 611.661C675.876 603.778 658.811 597.358 643.941 587.687C593.317 554.612 597.786 483.097 650.929 454.085C676.12 440.35 702.935 438.156 730.644 438.156C750.553 438.156 769.486 441.163 787.688 449.371C792.888 451.728 795.164 454.735 795.082 460.505C794.839 476.514 794.839 492.605 795.082 508.615C795.245 515.847 792.645 516.904 786.225 514.547C761.848 505.445 736.739 499.838 710.573 500.244C704.398 500.325 698.222 501.626 692.128 502.926C685.464 504.307 680.995 508.533 679.451 515.278C677.907 522.186 680.67 528.2 686.358 531.532C696.597 537.627 707.323 542.828 718.049 547.948C733.895 555.587 750.471 562.088 765.829 570.621C795.082 586.956 807.19 612.88 803.289 645.793C799.633 676.755 781.918 697.56 753.884 709.506C719.837 723.971 684.327 722.915 648.817 716.576C637.115 714.463 625.739 710.481 614.282 707.23C608.512 705.605 606.156 702.029 606.318 695.772C606.643 678.95 606.4 662.046 606.481 645.224C606.481 643.111 606.887 640.754 607.212 638.072Z" fill="#31A8FE"/>
<defs>
<filter id="filter0_d" x="0" y="0" width="1126.64" height="1101" filterUnits="userSpaceOnUse" color-interpolation-filters="sRGB">
<feFlood flood-opacity="0" result="BackgroundImageFix"/>
<feColorMatrix in="SourceAlpha" type="matrix" values="0 0 0 0 0 0 0 0 0 0 0 0 0 0 0 0 0 0 127 0" result="hardAlpha"/>
<feOffset dy="10"/>
<feGaussianBlur stdDeviation="25"/>
<feComposite in2="hardAlpha" operator="out"/>
<feColorMatrix type="matrix" values="0 0 0 0 0.768627 0 0 0 0 0.768627 0 0 0 0 0.768627 0 0 0 0.5 0"/>
<feBlend mode="normal" in2="BackgroundImageFix" result="effect1_dropShadow"/>
<feBlend mode="normal" in="SourceGraphic" in2="effect1_dropShadow" result="shape"/>
</filter>
<linearGradient id="paint0_linear" x1="563.322" y1="40" x2="563.322" y2="1041" gradientUnits="userSpaceOnUse">
<stop stop-color="#003D6D"/>
<stop offset="1" stop-color="#203647"/>
</linearGradient>
</defs>
</svg>
