<svg width="1101" height="1101" viewBox="0 0 1101 1101" fill="none" xmlns="http://www.w3.org/2000/svg">
<g filter="url(#filter0_d)">
<path d="M206.109 40H894.891C980.691 40 1051 110.308 1051 196.108V884.892C1051 970.692 980.691 1041 894.891 1041H206.109C120.31 1041 50 970.692 50 884.892V196.108C50 110.308 120.31 40 206.109 40Z" fill="url(#paint0_linear)"/>
<path d="M206.109 65H894.891C966.884 65 1026 124.116 1026 196.108V884.892C1026 956.884 966.884 1016 894.891 1016H206.109C134.116 1016 75 956.884 75 884.892V196.108C75 124.116 134.116 65 206.109 65Z" stroke="white" stroke-width="50"/>
</g>
<path d="M435.984 387.024V715.875C435.984 719.655 434.094 721.545 431.259 721.545H370.779C367.944 721.545 367 719.655 367 715.875V387.024C367 384.189 368.89 383.244 371.725 383.244H431.259C433.149 383.244 435.038 384.189 435.038 386.079C435.983 386.079 435.984 386.079 435.984 387.024Z" fill="#FF3366"/>
<path d="M630.648 727.21C606.078 727.21 582.455 722.485 560.72 712.09C539.931 702.641 522.922 687.521 511.582 667.677C499.297 644.997 492.681 619.483 493.626 593.024C493.626 569.399 499.297 544.83 511.582 524.04C523.867 502.306 541.821 485.297 563.556 473.957C589.07 460.727 617.419 454.112 645.768 455.057C647.658 455.057 649.548 455.057 652.383 455.057C655.217 455.057 660.889 455.057 665.614 456.002V356.78C665.614 353.945 666.557 353 668.447 353H728.927C730.816 353 731.762 353.945 731.762 355.835V356.78V662.952C731.762 668.622 731.761 675.236 732.706 682.796C733.65 689.411 733.651 696.026 733.651 701.696C733.651 703.586 732.706 706.421 730.816 707.366C714.751 713.98 697.741 719.65 680.732 723.43C664.667 726.265 647.657 727.21 630.648 727.21ZM665.614 662.952V519.316C661.834 518.371 658.052 518.371 654.272 517.426C650.492 517.426 646.714 516.481 643.879 516.481C631.594 516.481 618.363 519.316 607.023 524.985C582.454 537.27 566.391 562.784 568.281 590.189C568.281 601.528 570.169 612.868 573.949 624.208C576.784 632.713 582.455 641.217 589.07 646.887C595.684 652.557 603.245 657.282 610.805 660.117C619.309 662.952 628.758 663.897 638.208 663.897C642.933 663.897 647.659 663.897 651.439 662.952C656.164 663.897 660.889 663.897 665.614 662.952Z" fill="#FF3366"/>
<defs>
<filter id="filter0_d" x="0" y="0" width="1101" height="1101" filterUnits="userSpaceOnUse" color-interpolation-filters="sRGB">
<feFlood flood-opacity="0" result="BackgroundImageFix"/>
<feColorMatrix in="SourceAlpha" type="matrix" values="0 0 0 0 0 0 0 0 0 0 0 0 0 0 0 0 0 0 127 0" result="hardAlpha"/>
<feOffset dy="10"/>
<feGaussianBlur stdDeviation="25"/>
<feComposite in2="hardAlpha" operator="out"/>
<feColorMatrix type="matrix" values="0 0 0 0 0.768627 0 0 0 0 0.768627 0 0 0 0 0.768627 0 0 0 0.5 0"/>
<feBlend mode="normal" in2="BackgroundImageFix" result="effect1_dropShadow"/>
<feBlend mode="normal" in="SourceGraphic" in2="effect1_dropShadow" result="shape"/>
</filter>
<linearGradient id="paint0_linear" x1="550.5" y1="40" x2="550.5" y2="1041" gradientUnits="userSpaceOnUse">
<stop stop-color="#74002F"/>
<stop offset="1" stop-color="#4A1C2F"/>
</linearGradient>
</defs>
</svg>
