<svg width="1127" height="1101" viewBox="0 0 1127 1101" fill="none" xmlns="http://www.w3.org/2000/svg">
<g filter="url(#filter0_d)">
<path d="M231.782 40H894.844C995.344 40 1076.63 121.281 1076.63 221.782V859.218C1076.63 959.719 995.344 1041 894.844 1041H231.782C131.281 1041 50 959.719 50 859.218V221.782C50 121.281 131.281 40 231.782 40Z" fill="url(#paint0_linear)"/>
<path d="M231.782 65H894.844C981.537 65 1051.63 135.088 1051.63 221.782V859.218C1051.63 945.912 981.537 1016 894.844 1016H231.782C145.088 1016 75 945.912 75 859.218V221.782C75 135.088 145.088 65 231.782 65Z" stroke="white" stroke-width="50"/>
</g>
<path d="M498.033 621.983H384.281L361.072 694.189C360.499 697.054 357.92 698.774 355.341 698.487H297.748C294.31 698.487 293.45 696.768 294.31 693.043L392.876 409.951C393.736 406.799 394.596 403.647 396.028 399.922C397.461 393.619 398.607 387.029 398.607 380.438C398.321 379.006 399.467 377.287 401.186 377C401.472 377 401.759 377 402.045 377H480.555C482.56 377 484.28 377.86 484.566 379.579L595.74 693.616C596.6 697.054 595.74 698.487 592.588 698.487H528.692C526.686 698.774 524.394 697.341 523.821 695.049L498.033 621.983ZM402.045 560.952H479.695C477.976 554.649 475.397 546.912 472.532 538.89C469.667 530.58 467.088 521.698 464.223 512.529C461.071 503.073 458.492 493.904 455.34 484.449C452.188 474.993 449.609 466.111 447.031 457.228C444.452 448.633 442.446 440.61 440.154 433.446H439.581C436.716 446.627 433.564 459.807 429.266 472.988C424.681 487.601 420.097 503.073 415.226 518.259C411.501 533.732 406.63 548.059 402.045 560.952Z" fill="#9999FF"/>
<path d="M830.409 457.228V644.906C830.409 653.215 830.409 660.378 830.695 666.968C830.982 673.272 831.269 679.003 831.555 683.874C832.128 688.745 832.415 691.61 832.701 694.762C832.988 697.627 831.842 698.773 829.263 698.773H776.828C774.249 699.06 771.957 697.627 771.097 695.335C770.524 692.756 769.951 690.177 769.378 687.599C768.805 685.593 768.805 683.301 768.805 681.295C759.063 690.177 747.029 696.481 734.135 700.206C723.247 703.358 711.499 704.79 700.038 704.79C688.576 704.79 677.402 703.358 666.8 699.633C657.058 696.194 647.889 690.464 640.726 682.728C632.703 674.132 626.972 664.103 623.534 652.928C619.236 638.888 617.23 624.275 617.517 609.376V457.515C617.23 455.795 618.377 453.79 620.669 453.503C620.955 453.503 621.242 453.503 621.528 453.503H679.981C681.7 453.217 683.705 454.363 683.992 456.655C683.992 456.942 683.992 457.228 683.992 457.515V601.353C683.992 614.82 687.144 625.421 692.874 633.158C698.605 640.894 710.639 644.906 724.393 644.906C731.556 644.906 738.433 643.759 745.309 641.181C752.473 638.602 758.776 635.45 764.507 631.152V457.228C764.507 455.222 765.94 453.79 768.805 453.79H827.257C828.69 453.503 830.695 454.649 830.695 456.369C830.409 456.655 830.409 456.942 830.409 457.228Z" fill="#9999FF"/>
<defs>
<filter id="filter0_d" x="0" y="0" width="1126.63" height="1101" filterUnits="userSpaceOnUse" color-interpolation-filters="sRGB">
<feFlood flood-opacity="0" result="BackgroundImageFix"/>
<feColorMatrix in="SourceAlpha" type="matrix" values="0 0 0 0 0 0 0 0 0 0 0 0 0 0 0 0 0 0 127 0" result="hardAlpha"/>
<feOffset dy="10"/>
<feGaussianBlur stdDeviation="25"/>
<feComposite in2="hardAlpha" operator="out"/>
<feColorMatrix type="matrix" values="0 0 0 0 0.768627 0 0 0 0 0.768627 0 0 0 0 0.768627 0 0 0 0.5 0"/>
<feBlend mode="normal" in2="BackgroundImageFix" result="effect1_dropShadow"/>
<feBlend mode="normal" in="SourceGraphic" in2="effect1_dropShadow" result="shape"/>
</filter>
<linearGradient id="paint0_linear" x1="563.313" y1="40" x2="563.313" y2="1041" gradientUnits="userSpaceOnUse">
<stop stop-color="#000078"/>
<stop offset="1" stop-color="#00005B"/>
</linearGradient>
</defs>
</svg>
