<svg width="1127" height="1101" viewBox="0 0 1127 1101" fill="none" xmlns="http://www.w3.org/2000/svg">
<g filter="url(#filter0_d)">
<path d="M231.768 40H894.688C995.195 40 1076.46 121.261 1076.46 221.768V859.026C1076.46 959.534 995.195 1040.79 894.688 1040.79H231.768C131.261 1040.79 50 959.534 50 859.026V221.768C50 121.261 131.261 40 231.768 40Z" fill="url(#paint0_linear)"/>
<path d="M231.768 65H894.688C981.388 65 1051.46 135.068 1051.46 221.768V859.026C1051.46 945.726 981.388 1015.79 894.688 1015.79H231.768C145.068 1015.79 75 945.726 75 859.026V221.768C75 135.068 145.068 65 231.768 65Z" stroke="white" stroke-width="50"/>
</g>
<path d="M580.445 405.937L495.467 546.151L586.11 694.863C586.677 695.996 586.96 697.129 586.677 698.262C586.394 699.395 585.261 698.545 583.561 698.828H518.694C514.162 698.828 511.046 698.545 509.063 695.712C503.115 683.815 496.883 672.202 490.935 660.305C484.986 648.691 478.471 636.794 471.673 624.614C464.875 612.434 458.076 600.254 451.278 587.79H450.712C444.763 599.97 438.248 612.15 431.733 624.331C425.218 636.511 418.703 648.691 412.471 660.588C405.956 672.485 399.441 684.665 392.926 696.279C391.793 699.112 389.527 699.395 386.411 699.395H324.094C322.961 699.395 322.111 699.961 322.111 698.545C321.828 697.412 322.111 696.279 322.678 695.429L410.772 550.966L324.944 405.653C324.094 404.52 323.811 403.387 324.377 402.821C324.944 401.971 326.077 401.688 327.21 401.688H391.51C392.926 401.688 394.343 401.971 395.476 402.254C396.609 402.821 397.459 403.671 398.308 404.804C403.69 416.984 409.922 429.164 416.437 441.344C423.235 453.524 429.75 465.421 436.832 477.318C443.63 489.215 449.862 501.112 455.81 513.292H456.377C462.325 500.829 468.557 488.649 474.789 476.752C481.021 464.855 487.535 452.958 494.05 441.061C500.565 429.164 506.797 416.984 513.029 405.37C513.312 404.237 513.879 403.104 514.729 402.537C515.862 401.971 516.995 401.688 518.411 401.971H578.179C579.595 401.688 581.012 402.537 581.295 403.954C581.578 404.237 581.012 405.37 580.445 405.937ZM711.312 704.777C690.35 705.06 669.389 700.811 650.411 692.03C632.565 683.815 617.836 670.219 607.638 653.507C597.157 636.228 592.059 614.7 592.059 588.923C591.776 567.962 597.157 547.284 607.638 529.155C618.402 510.743 633.981 495.447 652.677 485.25C672.505 474.202 696.299 468.821 724.342 468.821C725.758 468.821 727.741 468.821 730.29 469.104C732.839 469.387 735.672 469.387 739.071 469.67V380.16C739.071 378.177 739.921 377.044 741.904 377.044H799.406C800.822 376.761 801.955 377.894 802.238 379.027V649.258C802.238 654.356 802.522 660.022 802.805 666.253C803.371 672.202 803.655 677.867 803.938 682.682C803.938 684.665 803.088 686.365 801.105 687.215C786.376 693.446 770.796 697.979 754.934 700.811C740.488 703.36 726.041 704.777 711.312 704.777ZM739.071 648.125V523.49C736.522 522.923 733.973 522.357 731.423 522.074C728.307 521.79 725.191 521.507 722.076 521.507C711.028 521.507 699.981 523.773 690.067 528.872C680.436 533.687 672.222 540.769 665.99 549.833C659.758 558.897 656.642 571.078 656.642 585.807C656.359 595.721 658.059 605.635 661.458 614.983C664.29 622.631 668.539 629.429 674.204 635.095C679.586 640.193 686.101 644.159 693.466 646.425C701.114 648.974 709.046 650.107 716.977 650.107C721.226 650.107 725.191 649.824 728.874 649.541C732.556 649.824 735.672 649.258 739.071 648.125Z" fill="#FF61F6"/>
<defs>
<filter id="filter0_d" x="0" y="0" width="1126.46" height="1100.79" filterUnits="userSpaceOnUse" color-interpolation-filters="sRGB">
<feFlood flood-opacity="0" result="BackgroundImageFix"/>
<feColorMatrix in="SourceAlpha" type="matrix" values="0 0 0 0 0 0 0 0 0 0 0 0 0 0 0 0 0 0 127 0" result="hardAlpha"/>
<feOffset dy="10"/>
<feGaussianBlur stdDeviation="25"/>
<feComposite in2="hardAlpha" operator="out"/>
<feColorMatrix type="matrix" values="0 0 0 0 0.768627 0 0 0 0 0.768627 0 0 0 0 0.768627 0 0 0 0.5 0"/>
<feBlend mode="normal" in2="BackgroundImageFix" result="effect1_dropShadow"/>
<feBlend mode="normal" in="SourceGraphic" in2="effect1_dropShadow" result="shape"/>
</filter>
<linearGradient id="paint0_linear" x1="563.228" y1="40" x2="563.228" y2="1040.79" gradientUnits="userSpaceOnUse">
<stop stop-color="#850066"/>
<stop offset="1" stop-color="#421B39"/>
</linearGradient>
</defs>
</svg>
