<svg width="1127" height="1101" viewBox="0 0 1127 1101" fill="none" xmlns="http://www.w3.org/2000/svg">
<g filter="url(#filter0_d)">
<path d="M231.782 40H894.844C995.344 40 1076.63 121.281 1076.63 221.782V859.218C1076.63 959.719 995.344 1041 894.844 1041H231.782C131.281 1041 50 959.719 50 859.218V221.782C50 121.281 131.281 40 231.782 40Z" fill="url(#paint0_linear)"/>
<path d="M231.782 65H894.844C981.537 65 1051.63 135.088 1051.63 221.782V859.218C1051.63 945.912 981.537 1016 894.844 1016H231.782C145.088 1016 75 945.912 75 859.218V221.782C75 135.088 145.088 65 231.782 65Z" stroke="white" stroke-width="50"/>
</g>
<path d="M491.78 626.396H375.999L352.317 699.782C351.732 702.706 349.101 704.46 346.469 704.167H286.825C283.316 704.167 282.439 702.413 283.316 698.612L384.186 410.331C385.063 407.115 385.94 404.776 387.402 400.682C388.571 394.25 389.156 387.233 389.156 380.509C388.864 379.047 390.033 377.292 391.787 377H392.665H473.068C475.699 377 476.868 377.877 477.161 379.631L590.895 698.32C591.772 701.828 590.895 703.29 587.678 703.29H522.479C520.432 703.583 518.093 702.121 517.509 699.782L491.78 625.519V626.396ZM394.126 564.12H473.36C471.606 557.688 468.974 549.793 466.051 541.607C463.127 533.128 460.495 524.065 457.572 514.709C454.356 505.06 451.724 495.704 448.508 486.056C445.292 476.407 442.661 467.344 440.029 458.28C437.398 449.509 435.351 441.322 433.012 434.013H432.427C429.504 447.462 426.288 460.912 421.902 474.361C417.224 489.272 412.546 505.06 407.576 520.556C403.482 536.344 398.804 550.963 394.126 564.12Z" fill="#9999FF"/>
<path d="M626.272 699.491V513.833C626.272 508.278 626.272 501.553 625.979 494.828C625.687 487.519 625.687 481.087 625.395 474.947C625.102 468.807 624.81 462.667 624.518 459.159C624.225 458.282 624.225 457.112 625.102 455.943C625.98 455.358 626.857 455.066 628.319 455.066H678.607C680.361 455.066 682.115 455.358 683.577 455.943C684.747 456.527 685.624 457.697 686.209 459.451C686.793 461.205 687.671 463.837 688.255 466.468C689.132 469.977 689.717 473.485 690.01 476.701C699.658 468.222 711.061 461.79 723.048 457.405C735.328 453.311 747.9 451.265 760.764 451.265C770.705 451.265 780.646 452.727 790.002 455.943C812.222 463.252 829.765 480.21 837.366 502.138C842.337 515.002 844.383 531.668 844.383 552.134V699.783C844.383 702.999 843.214 704.169 840.29 704.169L781.523 704.754C778.892 705.046 776.845 703.584 776.552 700.953V699.783V559.736C776.26 550.38 774.506 541.024 770.705 532.545C767.781 526.405 763.396 520.557 757.841 517.049C751.408 512.956 744.099 511.201 736.497 511.494C728.311 511.494 720.124 512.663 712.815 515.879C705.798 518.803 699.658 522.896 694.103 527.867V700.368C694.103 703.584 692.933 704.754 690.01 704.754H630.658C628.611 705.046 626.564 703.584 626.272 701.245C625.98 700.076 625.98 699.783 626.272 699.491Z" fill="#9999FF"/>
<defs>
<filter id="filter0_d" x="0" y="0" width="1126.63" height="1101" filterUnits="userSpaceOnUse" color-interpolation-filters="sRGB">
<feFlood flood-opacity="0" result="BackgroundImageFix"/>
<feColorMatrix in="SourceAlpha" type="matrix" values="0 0 0 0 0 0 0 0 0 0 0 0 0 0 0 0 0 0 127 0" result="hardAlpha"/>
<feOffset dy="10"/>
<feGaussianBlur stdDeviation="25"/>
<feComposite in2="hardAlpha" operator="out"/>
<feColorMatrix type="matrix" values="0 0 0 0 0.768627 0 0 0 0 0.768627 0 0 0 0 0.768627 0 0 0 0.5 0"/>
<feBlend mode="normal" in2="BackgroundImageFix" result="effect1_dropShadow"/>
<feBlend mode="normal" in="SourceGraphic" in2="effect1_dropShadow" result="shape"/>
</filter>
<linearGradient id="paint0_linear" x1="563.313" y1="40" x2="563.313" y2="1041" gradientUnits="userSpaceOnUse">
<stop stop-color="#000078"/>
<stop offset="1" stop-color="#00005B"/>
</linearGradient>
</defs>
</svg>
