<svg width="1127" height="1101" viewBox="0 0 1127 1101" fill="none" xmlns="http://www.w3.org/2000/svg">
<g filter="url(#filter0_d)">
<path d="M231.806 40H894.861C995.389 40 1076.67 121.278 1076.67 221.806V859.194C1076.67 959.722 995.389 1041 894.861 1041H231.806C131.278 1041 50 959.722 50 859.194V221.806C50 121.278 131.278 40 231.806 40Z" fill="url(#paint0_linear)"/>
<path d="M231.806 65H894.861C981.582 65 1051.67 135.085 1051.67 221.806V859.194C1051.67 945.915 981.582 1016 894.861 1016H231.806C145.085 1016 75 945.915 75 859.194V221.806C75 135.085 145.085 65 231.806 65Z" stroke="white" stroke-width="50"/>
</g>
<path d="M563.942 644.785H441.293L416.236 722.264C415.577 725.232 412.939 727.21 409.972 726.88H347.988C344.361 726.88 343.372 724.902 344.361 720.946L450.525 415.313C451.514 412.016 452.503 408.39 453.822 404.433C455.141 397.509 455.8 390.256 455.8 383.003C455.47 381.354 456.789 379.706 458.438 379.376C458.767 379.376 459.097 379.376 459.427 379.376H543.83C546.468 379.376 547.786 380.365 548.116 382.014L668.457 721.605C669.446 725.232 668.457 726.88 665.16 726.88H596.252C593.944 727.21 591.637 725.561 590.977 723.254L563.942 644.785ZM460.416 577.856H544.16C542.182 570.932 539.544 562.689 536.577 554.117C533.609 545.215 530.642 535.654 527.675 525.763C524.378 515.542 521.41 505.651 518.113 495.431C514.816 485.21 511.849 475.649 509.211 466.087C506.574 456.856 504.266 448.283 501.958 440.371H501.299C498.331 454.548 494.705 468.725 490.089 482.902C485.143 498.728 480.198 515.213 474.923 531.698C470.307 548.512 465.361 564.008 460.416 577.856Z" fill="#FF9A00"/>
<path d="M740.332 435.755C729.452 436.085 718.902 431.798 710.989 424.215C703.406 415.973 699.45 405.093 699.779 393.883C699.45 382.673 703.736 372.123 711.649 364.54C719.561 356.956 730.112 353 740.992 353C753.85 353 763.741 356.956 770.995 364.54C778.248 372.452 782.204 383.003 781.875 393.883C782.204 405.093 778.248 415.973 770.335 424.215C762.752 432.128 751.542 436.414 740.332 435.755ZM703.406 721.935V468.065C703.406 464.768 704.725 463.45 707.692 463.45H772.973C775.94 463.45 777.259 465.098 777.259 468.065V721.935C777.259 725.562 775.94 727.21 772.973 727.21H708.352C705.055 727.21 703.406 725.232 703.406 721.935Z" fill="#FF9A00"/>
<defs>
<filter id="filter0_d" x="0" y="0" width="1126.67" height="1101" filterUnits="userSpaceOnUse" color-interpolation-filters="sRGB">
<feFlood flood-opacity="0" result="BackgroundImageFix"/>
<feColorMatrix in="SourceAlpha" type="matrix" values="0 0 0 0 0 0 0 0 0 0 0 0 0 0 0 0 0 0 127 0" result="hardAlpha"/>
<feOffset dy="10"/>
<feGaussianBlur stdDeviation="25"/>
<feComposite in2="hardAlpha" operator="out"/>
<feColorMatrix type="matrix" values="0 0 0 0 0.768627 0 0 0 0 0.768627 0 0 0 0 0.768627 0 0 0 0.5 0"/>
<feBlend mode="normal" in2="BackgroundImageFix" result="effect1_dropShadow"/>
<feBlend mode="normal" in="SourceGraphic" in2="effect1_dropShadow" result="shape"/>
</filter>
<linearGradient id="paint0_linear" x1="563.333" y1="40" x2="563.333" y2="1041" gradientUnits="userSpaceOnUse">
<stop stop-color="#580000"/>
<stop offset="1" stop-color="#381616"/>
</linearGradient>
</defs>
</svg>
