<svg width="1127" height="1101" viewBox="0 0 1127 1101" fill="none" xmlns="http://www.w3.org/2000/svg">
<g filter="url(#filter0_d)">
<path d="M231.807 40H894.836C995.356 40 1076.64 121.265 1076.64 221.807V859.193C1076.64 959.713 995.379 1041 894.836 1041H231.807C131.287 1041 50 959.735 50 859.193V221.807C50 121.287 131.287 40 231.807 40Z" fill="url(#paint0_linear)"/>
<path d="M231.807 65H894.836C981.551 65 1051.64 135.074 1051.64 221.807V859.193C1051.64 945.908 981.57 1016 894.836 1016H231.807C145.092 1016 75 945.926 75 859.193V221.807C75 135.094 145.094 65 231.807 65Z" stroke="white" stroke-width="50"/>
</g>
<g clip-path="url(#clip0)">
<path d="M470.772 818.419C521.963 818.419 563.509 776.873 563.509 725.682V632.945H470.772C419.582 632.945 378.036 674.491 378.036 725.682C378.036 776.873 419.582 818.419 470.772 818.419Z" fill="#0ACF83"/>
<path d="M378.036 540.209C378.036 489.019 419.582 447.473 470.772 447.473H563.509V632.946H470.772C419.582 632.946 378.036 591.4 378.036 540.209Z" fill="#A259FF"/>
<path d="M378.039 354.737C378.039 303.546 419.585 262 470.775 262H563.512V447.473H470.775C419.585 447.473 378.039 405.927 378.039 354.737Z" fill="#F24E1E"/>
<path d="M563.511 262H656.248C707.439 262 748.985 303.546 748.985 354.737C748.985 405.927 707.439 447.473 656.248 447.473H563.511V262Z" fill="#FF7262"/>
<path d="M748.985 540.209C748.985 591.4 707.439 632.946 656.248 632.946C605.058 632.946 563.511 591.4 563.511 540.209C563.511 489.019 605.058 447.473 656.248 447.473C707.439 447.473 748.985 489.019 748.985 540.209Z" fill="#1ABCFE"/>
</g>
<defs>
<filter id="filter0_d" x="0" y="0" width="1126.64" height="1101" filterUnits="userSpaceOnUse" color-interpolation-filters="sRGB">
<feFlood flood-opacity="0" result="BackgroundImageFix"/>
<feColorMatrix in="SourceAlpha" type="matrix" values="0 0 0 0 0 0 0 0 0 0 0 0 0 0 0 0 0 0 127 0" result="hardAlpha"/>
<feOffset dy="10"/>
<feGaussianBlur stdDeviation="25"/>
<feComposite in2="hardAlpha" operator="out"/>
<feColorMatrix type="matrix" values="0 0 0 0 0.768627 0 0 0 0 0.768627 0 0 0 0 0.768627 0 0 0 0.5 0"/>
<feBlend mode="normal" in2="BackgroundImageFix" result="effect1_dropShadow"/>
<feBlend mode="normal" in="SourceGraphic" in2="effect1_dropShadow" result="shape"/>
</filter>
<linearGradient id="paint0_linear" x1="563.322" y1="40" x2="563.322" y2="1041" gradientUnits="userSpaceOnUse">
<stop stop-color="#8328F7"/>
<stop offset="1" stop-color="#3F1575"/>
</linearGradient>
<clipPath id="clip0">
<rect width="371.021" height="556.42" fill="white" transform="translate(378 262)"/>
</clipPath>
</defs>
</svg>
